%
M48
M72
T01C0.01300
T02C0.01500
T03C0.02756
T04C0.04000
%
T01
X42794Y34380
X49894Y163080
T02
X24694Y53980
X23994Y60980
X34494Y68680
X37294Y81980
X35894Y95980
X28194Y105080
X44294Y113480
X46394Y123980
X56894Y95980
X59694Y88980
X63894Y81280
X70894Y61680
X78594Y52580
X89094Y66580
X79294Y74980
X75794Y106480
X64594Y112080
X61094Y137280
X69494Y160380
X75794Y136580
X49894Y70780
X54094Y214980
X69494Y219880
X26094Y219880
T03
X28559Y26093
X33559Y26093
X38559Y26093
X43559Y26093
X48559Y26093
X53559Y26093
X58559Y26093
X63559Y26093
X68559Y26093
X73559Y26093
X78559Y26093
X83559Y26093
X88559Y26093
T04
X84350Y100406
X84350Y110406
X84350Y120406
X94350Y120406
X94350Y110406
X94350Y100406
X30439Y134479
X30439Y144479
M30
