G75*
%MOIN*%
%OFA0B0*%
%FSLAX25Y25*%
%IPPOS*%
%LPD*%
%AMOC8*
5,1,8,0,0,1.08239X$1,22.5*
%
%ADD10R,0.33600X0.17500*%
%ADD11OC8,0.06000*%
%ADD12C,0.04756*%
%ADD13C,0.06000*%
%ADD14R,0.07874X0.03937*%
%ADD15R,0.03937X0.07874*%
%ADD16R,0.05118X0.05906*%
%ADD17R,0.05906X0.05118*%
%ADD18R,0.04724X0.04724*%
%ADD19C,0.01400*%
%ADD20C,0.02900*%
%ADD21C,0.03100*%
D10*
X0063394Y0241730D03*
D11*
X0084350Y0120406D03*
X0084350Y0110406D03*
X0084350Y0100406D03*
X0094350Y0100406D03*
X0094350Y0110406D03*
X0094350Y0120406D03*
D12*
X0088559Y0028471D02*
X0088559Y0023715D01*
X0083559Y0023715D02*
X0083559Y0028471D01*
X0078559Y0028471D02*
X0078559Y0023715D01*
X0073559Y0023715D02*
X0073559Y0028471D01*
X0068559Y0028471D02*
X0068559Y0023715D01*
X0063559Y0023715D02*
X0063559Y0028471D01*
X0058559Y0028471D02*
X0058559Y0023715D01*
X0053559Y0023715D02*
X0053559Y0028471D01*
X0048559Y0028471D02*
X0048559Y0023715D01*
X0043559Y0023715D02*
X0043559Y0028471D01*
X0038559Y0028471D02*
X0038559Y0023715D01*
X0033559Y0023715D02*
X0033559Y0028471D01*
X0028559Y0028471D02*
X0028559Y0023715D01*
D13*
X0027439Y0134479D02*
X0033439Y0134479D01*
X0033439Y0144479D02*
X0027439Y0144479D01*
D14*
X0039042Y0155391D03*
X0039042Y0161297D03*
X0039042Y0167202D03*
X0039042Y0173108D03*
X0039042Y0179013D03*
X0039042Y0184919D03*
X0039042Y0190824D03*
X0039042Y0196730D03*
X0039042Y0202635D03*
X0039042Y0208541D03*
X0039042Y0214446D03*
X0039042Y0220352D03*
X0039042Y0226257D03*
X0090448Y0226257D03*
X0090448Y0220352D03*
X0090448Y0214446D03*
X0090448Y0208541D03*
X0090448Y0202635D03*
X0090448Y0196730D03*
X0090448Y0190824D03*
X0090448Y0184919D03*
X0090448Y0179013D03*
X0090448Y0173108D03*
X0090448Y0167202D03*
X0090448Y0161297D03*
X0090448Y0155391D03*
D15*
X0085448Y0148344D03*
X0079542Y0148344D03*
X0073637Y0148344D03*
X0067731Y0148344D03*
X0061826Y0148344D03*
X0055920Y0148344D03*
X0050015Y0148344D03*
X0044161Y0148344D03*
D16*
X0086054Y0137365D03*
X0093535Y0137365D03*
D17*
X0028979Y0154540D03*
X0028979Y0162020D03*
X0028909Y0172040D03*
X0028909Y0179520D03*
D18*
X0028894Y0189146D03*
X0028894Y0197414D03*
D19*
X0029376Y0197288D02*
X0033705Y0197288D01*
X0032957Y0196933D02*
X0032957Y0194828D01*
X0032841Y0194395D01*
X0032617Y0194008D01*
X0032300Y0193691D01*
X0031913Y0193468D01*
X0031480Y0193352D01*
X0029376Y0193352D01*
X0029376Y0196933D01*
X0029376Y0197895D01*
X0032957Y0197895D01*
X0032957Y0200000D01*
X0032841Y0200432D01*
X0032617Y0200820D01*
X0032300Y0201136D01*
X0031913Y0201360D01*
X0031480Y0201476D01*
X0029376Y0201476D01*
X0029376Y0197895D01*
X0028413Y0197895D01*
X0028413Y0201476D01*
X0026308Y0201476D01*
X0025876Y0201360D01*
X0025554Y0201174D01*
X0025554Y0215952D01*
X0026370Y0216930D01*
X0026681Y0216930D01*
X0027765Y0217379D01*
X0028595Y0218209D01*
X0029044Y0219293D01*
X0029044Y0220467D01*
X0028595Y0221551D01*
X0027765Y0222381D01*
X0026681Y0222830D01*
X0025554Y0222830D01*
X0025554Y0252337D01*
X0094894Y0252337D01*
X0094894Y0229626D01*
X0085931Y0229626D01*
X0085111Y0228806D01*
X0085111Y0228357D01*
X0058202Y0228357D01*
X0056972Y0227127D01*
X0051994Y0222150D01*
X0051994Y0217052D01*
X0051594Y0216651D01*
X0051144Y0215567D01*
X0051144Y0214393D01*
X0051594Y0213309D01*
X0052423Y0212479D01*
X0053508Y0212030D01*
X0054681Y0212030D01*
X0055765Y0212479D01*
X0056595Y0213309D01*
X0057044Y0214393D01*
X0057044Y0215567D01*
X0056595Y0216651D01*
X0056194Y0217052D01*
X0056194Y0220410D01*
X0059941Y0224157D01*
X0085111Y0224157D01*
X0085111Y0223709D01*
X0085515Y0223304D01*
X0085111Y0222900D01*
X0085111Y0222452D01*
X0070995Y0222452D01*
X0070081Y0222830D01*
X0068908Y0222830D01*
X0067823Y0222381D01*
X0066994Y0221551D01*
X0066544Y0220467D01*
X0066544Y0219293D01*
X0066994Y0218209D01*
X0067823Y0217379D01*
X0068908Y0216930D01*
X0070081Y0216930D01*
X0071165Y0217379D01*
X0071995Y0218209D01*
X0072013Y0218252D01*
X0085111Y0218252D01*
X0085111Y0217803D01*
X0085515Y0217399D01*
X0085111Y0216995D01*
X0085111Y0211898D01*
X0085515Y0211493D01*
X0085111Y0211089D01*
X0085111Y0205992D01*
X0085515Y0205588D01*
X0085111Y0205184D01*
X0085111Y0200087D01*
X0085515Y0199682D01*
X0085111Y0199278D01*
X0085111Y0194181D01*
X0085515Y0193777D01*
X0085111Y0193373D01*
X0085111Y0188276D01*
X0085515Y0187871D01*
X0085111Y0187467D01*
X0085111Y0182370D01*
X0085515Y0181966D01*
X0085111Y0181561D01*
X0085111Y0176465D01*
X0085515Y0176060D01*
X0085111Y0175656D01*
X0085111Y0170559D01*
X0085515Y0170155D01*
X0085111Y0169750D01*
X0085111Y0164654D01*
X0085515Y0164249D01*
X0085111Y0163845D01*
X0085111Y0163397D01*
X0069541Y0163397D01*
X0069475Y0163330D01*
X0068908Y0163330D01*
X0067823Y0162881D01*
X0066994Y0162051D01*
X0066544Y0160967D01*
X0066544Y0159793D01*
X0066994Y0158709D01*
X0067823Y0157879D01*
X0068908Y0157430D01*
X0070081Y0157430D01*
X0071165Y0157879D01*
X0071995Y0158709D01*
X0072197Y0159197D01*
X0085111Y0159197D01*
X0085111Y0158748D01*
X0085303Y0158556D01*
X0085151Y0158403D01*
X0084927Y0158016D01*
X0084811Y0157583D01*
X0084811Y0155675D01*
X0090164Y0155675D01*
X0090164Y0155107D01*
X0090732Y0155107D01*
X0090732Y0151723D01*
X0094609Y0151723D01*
X0094894Y0151799D01*
X0094894Y0141718D01*
X0090396Y0141718D01*
X0089998Y0141320D01*
X0089974Y0141362D01*
X0089657Y0141678D01*
X0089269Y0141902D01*
X0088837Y0142018D01*
X0086634Y0142018D01*
X0086634Y0137945D01*
X0085475Y0137945D01*
X0085475Y0142018D01*
X0083271Y0142018D01*
X0082839Y0141902D01*
X0082451Y0141678D01*
X0082135Y0141362D01*
X0081911Y0140974D01*
X0081795Y0140542D01*
X0081795Y0137945D01*
X0085475Y0137945D01*
X0085475Y0136786D01*
X0081795Y0136786D01*
X0081795Y0134188D01*
X0081911Y0133756D01*
X0082135Y0133368D01*
X0082451Y0133052D01*
X0082839Y0132828D01*
X0083271Y0132712D01*
X0085475Y0132712D01*
X0085475Y0136785D01*
X0086634Y0136785D01*
X0086634Y0132712D01*
X0088837Y0132712D01*
X0089269Y0132828D01*
X0089657Y0133052D01*
X0089974Y0133368D01*
X0089998Y0133410D01*
X0090396Y0133012D01*
X0094894Y0133012D01*
X0094894Y0124806D01*
X0092527Y0124806D01*
X0091883Y0124162D01*
X0088394Y0127650D01*
X0087164Y0128880D01*
X0083664Y0128880D01*
X0081564Y0130980D01*
X0077965Y0134579D01*
X0078295Y0134909D01*
X0078744Y0135993D01*
X0078744Y0137167D01*
X0078295Y0138251D01*
X0077465Y0139081D01*
X0076381Y0139530D01*
X0075208Y0139530D01*
X0074123Y0139081D01*
X0073294Y0138251D01*
X0072844Y0137167D01*
X0072844Y0135993D01*
X0073294Y0134909D01*
X0073694Y0134508D01*
X0073694Y0132910D01*
X0077725Y0128880D01*
X0073694Y0124850D01*
X0073694Y0117150D01*
X0054794Y0098250D01*
X0054794Y0098052D01*
X0054394Y0097651D01*
X0053944Y0096567D01*
X0053944Y0095393D01*
X0054394Y0094309D01*
X0055223Y0093479D01*
X0056308Y0093030D01*
X0057481Y0093030D01*
X0058323Y0093379D01*
X0057594Y0092650D01*
X0057594Y0091052D01*
X0057194Y0090651D01*
X0056744Y0089567D01*
X0056744Y0088393D01*
X0057194Y0087309D01*
X0057594Y0086908D01*
X0057594Y0075510D01*
X0058825Y0074280D01*
X0068794Y0064310D01*
X0068794Y0063752D01*
X0068394Y0063351D01*
X0067944Y0062267D01*
X0067944Y0061093D01*
X0068394Y0060009D01*
X0069223Y0059179D01*
X0070308Y0058730D01*
X0071481Y0058730D01*
X0072565Y0059179D01*
X0073395Y0060009D01*
X0073844Y0061093D01*
X0073844Y0062267D01*
X0073395Y0063351D01*
X0072994Y0063752D01*
X0072994Y0066050D01*
X0061794Y0077250D01*
X0061794Y0079208D01*
X0062223Y0078779D01*
X0063308Y0078330D01*
X0064481Y0078330D01*
X0065565Y0078779D01*
X0066395Y0079609D01*
X0066844Y0080693D01*
X0066844Y0081867D01*
X0066395Y0082951D01*
X0065994Y0083352D01*
X0065994Y0085210D01*
X0075664Y0094880D01*
X0075664Y0094880D01*
X0076894Y0096110D01*
X0076894Y0103743D01*
X0077194Y0103867D01*
X0077194Y0077052D01*
X0076794Y0076651D01*
X0076344Y0075567D01*
X0076344Y0074393D01*
X0076794Y0073309D01*
X0077194Y0072908D01*
X0077194Y0063250D01*
X0071459Y0057514D01*
X0071459Y0031690D01*
X0071419Y0031673D01*
X0071271Y0031526D01*
X0071216Y0031581D01*
X0070696Y0031958D01*
X0070124Y0032250D01*
X0069514Y0032448D01*
X0068880Y0032549D01*
X0068559Y0032549D01*
X0068559Y0026093D01*
X0068559Y0026093D01*
X0068559Y0032549D01*
X0068238Y0032549D01*
X0067604Y0032448D01*
X0066994Y0032250D01*
X0066422Y0031958D01*
X0065902Y0031581D01*
X0065847Y0031526D01*
X0065699Y0031673D01*
X0064310Y0032249D01*
X0062807Y0032249D01*
X0061419Y0031673D01*
X0061059Y0031313D01*
X0060699Y0031673D01*
X0059310Y0032249D01*
X0057807Y0032249D01*
X0056419Y0031673D01*
X0056059Y0031313D01*
X0055699Y0031673D01*
X0054310Y0032249D01*
X0052807Y0032249D01*
X0051419Y0031673D01*
X0051059Y0031313D01*
X0050699Y0031673D01*
X0049310Y0032249D01*
X0047807Y0032249D01*
X0046419Y0031673D01*
X0046059Y0031313D01*
X0045699Y0031673D01*
X0044310Y0032249D01*
X0042807Y0032249D01*
X0041419Y0031673D01*
X0041059Y0031313D01*
X0040699Y0031673D01*
X0039310Y0032249D01*
X0037807Y0032249D01*
X0036419Y0031673D01*
X0036059Y0031313D01*
X0035699Y0031673D01*
X0034310Y0032249D01*
X0032807Y0032249D01*
X0032338Y0032054D01*
X0033264Y0032980D01*
X0034494Y0034210D01*
X0034494Y0050310D01*
X0035364Y0051180D01*
X0049364Y0051180D01*
X0050594Y0052410D01*
X0051994Y0053810D01*
X0051994Y0068708D01*
X0052395Y0069109D01*
X0052844Y0070193D01*
X0052844Y0071367D01*
X0052395Y0072451D01*
X0051565Y0073281D01*
X0050481Y0073730D01*
X0049308Y0073730D01*
X0048223Y0073281D01*
X0047394Y0072451D01*
X0046944Y0071367D01*
X0046944Y0070193D01*
X0047394Y0069109D01*
X0047794Y0068708D01*
X0047794Y0055550D01*
X0047625Y0055380D01*
X0033625Y0055380D01*
X0030294Y0052050D01*
X0030294Y0035950D01*
X0026459Y0032114D01*
X0026459Y0031690D01*
X0026419Y0031673D01*
X0025554Y0030809D01*
X0025554Y0051143D01*
X0026365Y0051479D01*
X0026766Y0051880D01*
X0029764Y0051880D01*
X0030994Y0053110D01*
X0033794Y0055910D01*
X0033794Y0062910D01*
X0036594Y0065710D01*
X0036594Y0066608D01*
X0036995Y0067009D01*
X0037444Y0068093D01*
X0037444Y0069267D01*
X0036995Y0070351D01*
X0036165Y0071181D01*
X0035081Y0071630D01*
X0033908Y0071630D01*
X0032823Y0071181D01*
X0031994Y0070351D01*
X0031544Y0069267D01*
X0031544Y0068093D01*
X0031982Y0067037D01*
X0030825Y0065880D01*
X0029594Y0064650D01*
X0029594Y0057650D01*
X0028025Y0056080D01*
X0026766Y0056080D01*
X0026365Y0056481D01*
X0025554Y0056817D01*
X0025554Y0058433D01*
X0025665Y0058479D01*
X0026495Y0059309D01*
X0026944Y0060393D01*
X0026944Y0061567D01*
X0026495Y0062651D01*
X0025665Y0063481D01*
X0025554Y0063527D01*
X0025554Y0103745D01*
X0025694Y0103409D01*
X0026523Y0102579D01*
X0027608Y0102130D01*
X0028175Y0102130D01*
X0033177Y0097128D01*
X0032944Y0096567D01*
X0032944Y0095393D01*
X0033394Y0094309D01*
X0034223Y0093479D01*
X0035308Y0093030D01*
X0036481Y0093030D01*
X0037565Y0093479D01*
X0038395Y0094309D01*
X0038844Y0095393D01*
X0038844Y0096567D01*
X0038395Y0097651D01*
X0037994Y0098052D01*
X0037994Y0098250D01*
X0031144Y0105100D01*
X0031144Y0105667D01*
X0030695Y0106751D01*
X0030294Y0107152D01*
X0030294Y0116810D01*
X0040964Y0127480D01*
X0042194Y0128710D01*
X0042194Y0142707D01*
X0043876Y0142707D01*
X0043876Y0148059D01*
X0044445Y0148059D01*
X0044445Y0142707D01*
X0046353Y0142707D01*
X0046785Y0142823D01*
X0047173Y0143046D01*
X0047300Y0143173D01*
X0047466Y0143007D01*
X0052563Y0143007D01*
X0052968Y0143411D01*
X0053372Y0143007D01*
X0058469Y0143007D01*
X0058873Y0143411D01*
X0059277Y0143007D01*
X0064374Y0143007D01*
X0064779Y0143411D01*
X0065183Y0143007D01*
X0070280Y0143007D01*
X0070684Y0143411D01*
X0071089Y0143007D01*
X0076185Y0143007D01*
X0076590Y0143411D01*
X0076994Y0143007D01*
X0082091Y0143007D01*
X0082495Y0143411D01*
X0082900Y0143007D01*
X0087996Y0143007D01*
X0088816Y0143827D01*
X0088816Y0151723D01*
X0090164Y0151723D01*
X0090164Y0155107D01*
X0084811Y0155107D01*
X0084811Y0153681D01*
X0082900Y0153681D01*
X0082495Y0153276D01*
X0082091Y0153681D01*
X0076994Y0153681D01*
X0076590Y0153276D01*
X0076185Y0153681D01*
X0071089Y0153681D01*
X0070684Y0153276D01*
X0070280Y0153681D01*
X0065183Y0153681D01*
X0064779Y0153276D01*
X0064374Y0153681D01*
X0059277Y0153681D01*
X0058873Y0153276D01*
X0058469Y0153681D01*
X0053372Y0153681D01*
X0052968Y0153276D01*
X0052563Y0153681D01*
X0047466Y0153681D01*
X0047300Y0153514D01*
X0047173Y0153641D01*
X0046785Y0153865D01*
X0046353Y0153981D01*
X0044679Y0153981D01*
X0044679Y0155107D01*
X0039327Y0155107D01*
X0039327Y0155675D01*
X0044679Y0155675D01*
X0044679Y0157583D01*
X0044564Y0158016D01*
X0044340Y0158403D01*
X0044187Y0158556D01*
X0044379Y0158748D01*
X0044379Y0163845D01*
X0043975Y0164249D01*
X0044379Y0164654D01*
X0044379Y0169750D01*
X0043975Y0170155D01*
X0044379Y0170559D01*
X0044379Y0175656D01*
X0043975Y0176060D01*
X0044379Y0176465D01*
X0044379Y0181561D01*
X0043975Y0181966D01*
X0044379Y0182370D01*
X0044379Y0187467D01*
X0043975Y0187871D01*
X0044379Y0188276D01*
X0044379Y0193373D01*
X0043975Y0193777D01*
X0044379Y0194181D01*
X0044379Y0199278D01*
X0043975Y0199682D01*
X0044379Y0200087D01*
X0044379Y0205184D01*
X0043975Y0205588D01*
X0044379Y0205992D01*
X0044379Y0211089D01*
X0043975Y0211493D01*
X0044379Y0211898D01*
X0044379Y0216995D01*
X0043975Y0217399D01*
X0044379Y0217803D01*
X0044379Y0222900D01*
X0043975Y0223304D01*
X0044379Y0223709D01*
X0044379Y0228806D01*
X0043559Y0229626D01*
X0034526Y0229626D01*
X0033705Y0228806D01*
X0033705Y0223709D01*
X0034110Y0223304D01*
X0033705Y0222900D01*
X0033705Y0217803D01*
X0034110Y0217399D01*
X0033705Y0216995D01*
X0033705Y0211898D01*
X0034110Y0211493D01*
X0033705Y0211089D01*
X0033705Y0205992D01*
X0034110Y0205588D01*
X0033705Y0205184D01*
X0033705Y0200087D01*
X0034110Y0199682D01*
X0033705Y0199278D01*
X0033705Y0194181D01*
X0034110Y0193777D01*
X0033705Y0193373D01*
X0033705Y0188276D01*
X0034110Y0187871D01*
X0033705Y0187467D01*
X0033705Y0182370D01*
X0034110Y0181966D01*
X0033705Y0181561D01*
X0033705Y0176465D01*
X0034110Y0176060D01*
X0033705Y0175656D01*
X0033705Y0170559D01*
X0034110Y0170155D01*
X0033937Y0169982D01*
X0033262Y0170657D01*
X0033262Y0175179D01*
X0032661Y0175780D01*
X0033262Y0176381D01*
X0033262Y0182659D01*
X0032442Y0183479D01*
X0031009Y0183479D01*
X0031009Y0185384D01*
X0031837Y0185384D01*
X0032657Y0186204D01*
X0032657Y0192088D01*
X0031837Y0192908D01*
X0025952Y0192908D01*
X0025554Y0192510D01*
X0025554Y0193653D01*
X0025876Y0193468D01*
X0026308Y0193352D01*
X0028413Y0193352D01*
X0028413Y0196933D01*
X0029376Y0196933D01*
X0032957Y0196933D01*
X0032957Y0195889D02*
X0033705Y0195889D01*
X0033705Y0194491D02*
X0032866Y0194491D01*
X0033705Y0193092D02*
X0025554Y0193092D01*
X0028413Y0194491D02*
X0029376Y0194491D01*
X0029376Y0195889D02*
X0028413Y0195889D01*
X0028413Y0198686D02*
X0029376Y0198686D01*
X0029376Y0200085D02*
X0028413Y0200085D01*
X0025554Y0201484D02*
X0033705Y0201484D01*
X0033705Y0202882D02*
X0025554Y0202882D01*
X0025554Y0204281D02*
X0033705Y0204281D01*
X0034019Y0205679D02*
X0025554Y0205679D01*
X0025554Y0207078D02*
X0033705Y0207078D01*
X0033705Y0208476D02*
X0025554Y0208476D01*
X0025554Y0209875D02*
X0033705Y0209875D01*
X0033889Y0211273D02*
X0025554Y0211273D01*
X0025554Y0212672D02*
X0033705Y0212672D01*
X0033705Y0214070D02*
X0025554Y0214070D01*
X0025554Y0215469D02*
X0033705Y0215469D01*
X0033705Y0216867D02*
X0026317Y0216867D01*
X0026094Y0219880D02*
X0022594Y0215680D01*
X0022594Y0062380D01*
X0023994Y0060980D01*
X0026115Y0063031D02*
X0029594Y0063031D01*
X0029594Y0064429D02*
X0025554Y0064429D01*
X0025554Y0065828D02*
X0030772Y0065828D01*
X0031903Y0067226D02*
X0025554Y0067226D01*
X0025554Y0068625D02*
X0031544Y0068625D01*
X0031858Y0070023D02*
X0025554Y0070023D01*
X0025554Y0071422D02*
X0033405Y0071422D01*
X0034494Y0068680D02*
X0034494Y0066580D01*
X0031694Y0063780D01*
X0031694Y0056780D01*
X0028894Y0053980D01*
X0024694Y0053980D01*
X0025554Y0050444D02*
X0030294Y0050444D01*
X0030294Y0049046D02*
X0025554Y0049046D01*
X0025554Y0047647D02*
X0030294Y0047647D01*
X0030294Y0046249D02*
X0025554Y0046249D01*
X0025554Y0044850D02*
X0030294Y0044850D01*
X0030294Y0043452D02*
X0025554Y0043452D01*
X0025554Y0042053D02*
X0030294Y0042053D01*
X0030294Y0040655D02*
X0025554Y0040655D01*
X0025554Y0039256D02*
X0030294Y0039256D01*
X0030294Y0037858D02*
X0025554Y0037858D01*
X0025554Y0036459D02*
X0030294Y0036459D01*
X0029405Y0035061D02*
X0025554Y0035061D01*
X0025554Y0033662D02*
X0028007Y0033662D01*
X0026608Y0032264D02*
X0025554Y0032264D01*
X0025554Y0030865D02*
X0025611Y0030865D01*
X0028559Y0031245D02*
X0028559Y0026093D01*
X0028559Y0031245D02*
X0032394Y0035080D01*
X0032394Y0051180D01*
X0034494Y0053280D01*
X0048494Y0053280D01*
X0049894Y0054680D01*
X0049894Y0070780D01*
X0047763Y0072820D02*
X0025554Y0072820D01*
X0025554Y0074219D02*
X0058886Y0074219D01*
X0057594Y0075617D02*
X0025554Y0075617D01*
X0025554Y0077016D02*
X0057594Y0077016D01*
X0057594Y0078415D02*
X0025554Y0078415D01*
X0025554Y0079813D02*
X0057594Y0079813D01*
X0057594Y0081212D02*
X0025554Y0081212D01*
X0025554Y0082610D02*
X0057594Y0082610D01*
X0057594Y0084009D02*
X0025554Y0084009D01*
X0025554Y0085407D02*
X0057594Y0085407D01*
X0057594Y0086806D02*
X0025554Y0086806D01*
X0025554Y0088204D02*
X0056823Y0088204D01*
X0056759Y0089603D02*
X0025554Y0089603D01*
X0025554Y0091001D02*
X0057544Y0091001D01*
X0057594Y0092400D02*
X0025554Y0092400D01*
X0025554Y0093798D02*
X0033904Y0093798D01*
X0033026Y0095197D02*
X0025554Y0095197D01*
X0025554Y0096595D02*
X0032956Y0096595D01*
X0032311Y0097994D02*
X0025554Y0097994D01*
X0025554Y0099392D02*
X0030912Y0099392D01*
X0029514Y0100791D02*
X0025554Y0100791D01*
X0025554Y0102189D02*
X0027465Y0102189D01*
X0025619Y0103588D02*
X0025554Y0103588D01*
X0025554Y0106415D02*
X0025554Y0130498D01*
X0026564Y0130079D01*
X0034314Y0130079D01*
X0035932Y0130749D01*
X0037169Y0131987D01*
X0037839Y0133604D01*
X0037839Y0135354D01*
X0037169Y0136972D01*
X0035932Y0138209D01*
X0034314Y0138879D01*
X0026564Y0138879D01*
X0025554Y0138461D01*
X0025554Y0140165D01*
X0025635Y0140124D01*
X0026339Y0139895D01*
X0027069Y0139779D01*
X0030139Y0139779D01*
X0030139Y0144179D01*
X0030739Y0144179D01*
X0030739Y0139779D01*
X0033809Y0139779D01*
X0034540Y0139895D01*
X0035243Y0140124D01*
X0035903Y0140459D01*
X0036501Y0140894D01*
X0037024Y0141417D01*
X0037459Y0142016D01*
X0037795Y0142675D01*
X0037994Y0143289D01*
X0037994Y0130450D01*
X0026094Y0118550D01*
X0026094Y0107152D01*
X0025694Y0106751D01*
X0025554Y0106415D01*
X0025554Y0107783D02*
X0026094Y0107783D01*
X0026094Y0109182D02*
X0025554Y0109182D01*
X0025554Y0110580D02*
X0026094Y0110580D01*
X0026094Y0111979D02*
X0025554Y0111979D01*
X0025554Y0113377D02*
X0026094Y0113377D01*
X0026094Y0114776D02*
X0025554Y0114776D01*
X0025554Y0116174D02*
X0026094Y0116174D01*
X0026094Y0117573D02*
X0025554Y0117573D01*
X0025554Y0118971D02*
X0026516Y0118971D01*
X0025554Y0120370D02*
X0027914Y0120370D01*
X0029313Y0121768D02*
X0025554Y0121768D01*
X0025554Y0123167D02*
X0030711Y0123167D01*
X0032110Y0124565D02*
X0025554Y0124565D01*
X0025554Y0125964D02*
X0033508Y0125964D01*
X0034907Y0127362D02*
X0025554Y0127362D01*
X0025554Y0128761D02*
X0036305Y0128761D01*
X0037704Y0130159D02*
X0034508Y0130159D01*
X0036741Y0131558D02*
X0037994Y0131558D01*
X0037994Y0132956D02*
X0037571Y0132956D01*
X0037839Y0134355D02*
X0037994Y0134355D01*
X0037994Y0135753D02*
X0037674Y0135753D01*
X0037994Y0137152D02*
X0036989Y0137152D01*
X0037994Y0138551D02*
X0035108Y0138551D01*
X0034706Y0139949D02*
X0037994Y0139949D01*
X0037994Y0141348D02*
X0036954Y0141348D01*
X0037818Y0142746D02*
X0037994Y0142746D01*
X0040094Y0147080D02*
X0037294Y0149880D01*
X0033639Y0149880D01*
X0028979Y0154540D01*
X0029969Y0150581D02*
X0031370Y0149179D01*
X0030739Y0149179D01*
X0030739Y0144779D01*
X0030139Y0144779D01*
X0030139Y0149179D01*
X0027069Y0149179D01*
X0026339Y0149063D01*
X0025635Y0148835D01*
X0025554Y0148794D01*
X0025554Y0150581D01*
X0029969Y0150581D01*
X0030811Y0149739D02*
X0025554Y0149739D01*
X0030139Y0148340D02*
X0030739Y0148340D01*
X0030739Y0146942D02*
X0030139Y0146942D01*
X0030139Y0145543D02*
X0030739Y0145543D01*
X0030739Y0144145D02*
X0030139Y0144145D01*
X0030139Y0142746D02*
X0030739Y0142746D01*
X0030739Y0141348D02*
X0030139Y0141348D01*
X0030139Y0139949D02*
X0030739Y0139949D01*
X0026172Y0139949D02*
X0025554Y0139949D01*
X0025554Y0138551D02*
X0025770Y0138551D01*
X0025554Y0130159D02*
X0026370Y0130159D01*
X0028194Y0117680D02*
X0040094Y0129580D01*
X0040094Y0147080D01*
X0040492Y0149652D02*
X0039394Y0150750D01*
X0038422Y0151723D01*
X0038758Y0151723D01*
X0038758Y0155107D01*
X0033405Y0155107D01*
X0033405Y0153199D01*
X0033448Y0153042D01*
X0033332Y0153157D01*
X0033332Y0157679D01*
X0032731Y0158280D01*
X0033332Y0158881D01*
X0033332Y0159197D01*
X0033705Y0159197D01*
X0033705Y0158748D01*
X0033898Y0158556D01*
X0033745Y0158403D01*
X0033521Y0158016D01*
X0033405Y0157583D01*
X0033405Y0155675D01*
X0038758Y0155675D01*
X0038758Y0155107D01*
X0039327Y0155107D01*
X0039327Y0151723D01*
X0040492Y0151723D01*
X0040492Y0149652D01*
X0040492Y0149739D02*
X0040406Y0149739D01*
X0040492Y0151137D02*
X0039007Y0151137D01*
X0038758Y0152536D02*
X0039327Y0152536D01*
X0039327Y0153934D02*
X0038758Y0153934D01*
X0038758Y0155333D02*
X0033332Y0155333D01*
X0033332Y0156731D02*
X0033405Y0156731D01*
X0033587Y0158130D02*
X0032881Y0158130D01*
X0033332Y0153934D02*
X0033405Y0153934D01*
X0029703Y0161297D02*
X0028979Y0162020D01*
X0029703Y0161297D02*
X0039042Y0161297D01*
X0039042Y0167202D02*
X0033747Y0167202D01*
X0028909Y0172040D01*
X0028909Y0179520D02*
X0028909Y0189131D01*
X0028894Y0189146D01*
X0031009Y0184701D02*
X0033705Y0184701D01*
X0033705Y0183303D02*
X0032618Y0183303D01*
X0033262Y0181904D02*
X0034048Y0181904D01*
X0033705Y0180506D02*
X0033262Y0180506D01*
X0033262Y0179107D02*
X0033705Y0179107D01*
X0033705Y0177709D02*
X0033262Y0177709D01*
X0033191Y0176310D02*
X0033860Y0176310D01*
X0033705Y0174912D02*
X0033262Y0174912D01*
X0033262Y0173513D02*
X0033705Y0173513D01*
X0033705Y0172115D02*
X0033262Y0172115D01*
X0033262Y0170716D02*
X0033705Y0170716D01*
X0033705Y0186100D02*
X0032552Y0186100D01*
X0032657Y0187498D02*
X0033737Y0187498D01*
X0033705Y0188897D02*
X0032657Y0188897D01*
X0032657Y0190295D02*
X0033705Y0190295D01*
X0033705Y0191694D02*
X0032657Y0191694D01*
X0032957Y0198686D02*
X0033705Y0198686D01*
X0033707Y0200085D02*
X0032934Y0200085D01*
X0033705Y0218266D02*
X0028619Y0218266D01*
X0029044Y0219664D02*
X0033705Y0219664D01*
X0033705Y0221063D02*
X0028798Y0221063D01*
X0027572Y0222461D02*
X0033705Y0222461D01*
X0033705Y0223860D02*
X0025554Y0223860D01*
X0025554Y0225258D02*
X0033705Y0225258D01*
X0033705Y0226657D02*
X0025554Y0226657D01*
X0025554Y0228055D02*
X0033705Y0228055D01*
X0034354Y0229454D02*
X0025554Y0229454D01*
X0025554Y0230852D02*
X0094894Y0230852D01*
X0094894Y0232251D02*
X0081445Y0232251D01*
X0081594Y0232400D02*
X0080774Y0231580D01*
X0046014Y0231580D01*
X0045194Y0232400D01*
X0045194Y0251060D01*
X0046014Y0251880D01*
X0080774Y0251880D01*
X0081594Y0251060D01*
X0081594Y0232400D01*
X0081594Y0233649D02*
X0094894Y0233649D01*
X0094894Y0235048D02*
X0081594Y0235048D01*
X0081594Y0236446D02*
X0094894Y0236446D01*
X0094894Y0237845D02*
X0081594Y0237845D01*
X0081594Y0239243D02*
X0094894Y0239243D01*
X0094894Y0240642D02*
X0081594Y0240642D01*
X0081594Y0242040D02*
X0094894Y0242040D01*
X0094894Y0243439D02*
X0081594Y0243439D01*
X0081594Y0244837D02*
X0094894Y0244837D01*
X0094894Y0246236D02*
X0081594Y0246236D01*
X0081594Y0247634D02*
X0094894Y0247634D01*
X0094894Y0249033D02*
X0081594Y0249033D01*
X0081594Y0250431D02*
X0094894Y0250431D01*
X0094894Y0251830D02*
X0080824Y0251830D01*
X0085759Y0229454D02*
X0043731Y0229454D01*
X0044379Y0228055D02*
X0057900Y0228055D01*
X0056501Y0226657D02*
X0044379Y0226657D01*
X0044379Y0225258D02*
X0055103Y0225258D01*
X0053704Y0223860D02*
X0044379Y0223860D01*
X0044379Y0222461D02*
X0052306Y0222461D01*
X0051994Y0221063D02*
X0044379Y0221063D01*
X0044379Y0219664D02*
X0051994Y0219664D01*
X0051994Y0218266D02*
X0044379Y0218266D01*
X0044379Y0216867D02*
X0051810Y0216867D01*
X0051144Y0215469D02*
X0044379Y0215469D01*
X0044379Y0214070D02*
X0051278Y0214070D01*
X0052231Y0212672D02*
X0044379Y0212672D01*
X0044195Y0211273D02*
X0085295Y0211273D01*
X0085111Y0209875D02*
X0044379Y0209875D01*
X0044379Y0208476D02*
X0085111Y0208476D01*
X0085111Y0207078D02*
X0044379Y0207078D01*
X0044066Y0205679D02*
X0085424Y0205679D01*
X0085111Y0204281D02*
X0044379Y0204281D01*
X0044379Y0202882D02*
X0085111Y0202882D01*
X0085111Y0201484D02*
X0044379Y0201484D01*
X0044378Y0200085D02*
X0085113Y0200085D01*
X0085111Y0198686D02*
X0044379Y0198686D01*
X0044379Y0197288D02*
X0085111Y0197288D01*
X0085111Y0195889D02*
X0044379Y0195889D01*
X0044379Y0194491D02*
X0085111Y0194491D01*
X0085111Y0193092D02*
X0044379Y0193092D01*
X0044379Y0191694D02*
X0085111Y0191694D01*
X0085111Y0190295D02*
X0044379Y0190295D01*
X0044379Y0188897D02*
X0085111Y0188897D01*
X0085142Y0187498D02*
X0044348Y0187498D01*
X0044379Y0186100D02*
X0085111Y0186100D01*
X0085111Y0184701D02*
X0044379Y0184701D01*
X0044379Y0183303D02*
X0085111Y0183303D01*
X0085454Y0181904D02*
X0044037Y0181904D01*
X0044379Y0180506D02*
X0085111Y0180506D01*
X0085111Y0179107D02*
X0044379Y0179107D01*
X0044379Y0177709D02*
X0085111Y0177709D01*
X0085265Y0176310D02*
X0044225Y0176310D01*
X0044379Y0174912D02*
X0085111Y0174912D01*
X0085111Y0173513D02*
X0044379Y0173513D01*
X0044379Y0172115D02*
X0085111Y0172115D01*
X0085111Y0170716D02*
X0044379Y0170716D01*
X0044379Y0169318D02*
X0085111Y0169318D01*
X0085111Y0167919D02*
X0044379Y0167919D01*
X0044379Y0166521D02*
X0085111Y0166521D01*
X0085111Y0165122D02*
X0044379Y0165122D01*
X0044379Y0163724D02*
X0085111Y0163724D01*
X0084993Y0158130D02*
X0071416Y0158130D01*
X0069494Y0160380D02*
X0070411Y0161297D01*
X0090448Y0161297D01*
X0097278Y0161297D01*
X0097494Y0161080D01*
X0097494Y0141325D01*
X0093535Y0137365D01*
X0094894Y0132956D02*
X0089492Y0132956D01*
X0087283Y0128761D02*
X0094894Y0128761D01*
X0094894Y0130159D02*
X0082385Y0130159D01*
X0080986Y0131558D02*
X0094894Y0131558D01*
X0094894Y0127362D02*
X0088682Y0127362D01*
X0088394Y0127650D02*
X0088394Y0127650D01*
X0090080Y0125964D02*
X0094894Y0125964D01*
X0092286Y0124565D02*
X0091479Y0124565D01*
X0091968Y0121106D02*
X0091968Y0120406D01*
X0094350Y0120406D01*
X0091968Y0121106D02*
X0086294Y0126780D01*
X0082794Y0126780D01*
X0080694Y0128880D01*
X0075794Y0123980D01*
X0075794Y0116280D01*
X0056894Y0097380D01*
X0056894Y0095980D01*
X0055937Y0099392D02*
X0036852Y0099392D01*
X0038053Y0097994D02*
X0054736Y0097994D01*
X0053956Y0096595D02*
X0038833Y0096595D01*
X0038763Y0095197D02*
X0054026Y0095197D01*
X0054904Y0093798D02*
X0037884Y0093798D01*
X0035894Y0095980D02*
X0035894Y0097380D01*
X0028194Y0105080D01*
X0028194Y0117680D01*
X0030294Y0116174D02*
X0042194Y0116174D01*
X0042194Y0115552D02*
X0042194Y0117150D01*
X0044294Y0119250D01*
X0044294Y0121908D01*
X0043894Y0122309D01*
X0043444Y0123393D01*
X0043444Y0124567D01*
X0043894Y0125651D01*
X0044723Y0126481D01*
X0045808Y0126930D01*
X0046981Y0126930D01*
X0048065Y0126481D01*
X0048895Y0125651D01*
X0049344Y0124567D01*
X0049344Y0123393D01*
X0048895Y0122309D01*
X0048494Y0121908D01*
X0048494Y0117510D01*
X0047264Y0116280D01*
X0046465Y0115481D01*
X0046795Y0115151D01*
X0047244Y0114067D01*
X0047244Y0112893D01*
X0046795Y0111809D01*
X0045965Y0110979D01*
X0044881Y0110530D01*
X0043708Y0110530D01*
X0042623Y0110979D01*
X0041794Y0111809D01*
X0041344Y0112893D01*
X0041344Y0114067D01*
X0041794Y0115151D01*
X0042194Y0115552D01*
X0041638Y0114776D02*
X0030294Y0114776D01*
X0030294Y0113377D02*
X0041344Y0113377D01*
X0041723Y0111979D02*
X0030294Y0111979D01*
X0030294Y0110580D02*
X0043586Y0110580D01*
X0045003Y0110580D02*
X0067125Y0110580D01*
X0065726Y0109182D02*
X0030294Y0109182D01*
X0030294Y0107783D02*
X0064328Y0107783D01*
X0062929Y0106385D02*
X0030847Y0106385D01*
X0031258Y0104986D02*
X0061531Y0104986D01*
X0060132Y0103588D02*
X0032657Y0103588D01*
X0034055Y0102189D02*
X0058734Y0102189D01*
X0057335Y0100791D02*
X0035454Y0100791D01*
X0031057Y0117573D02*
X0042617Y0117573D01*
X0044016Y0118971D02*
X0032456Y0118971D01*
X0033854Y0120370D02*
X0044294Y0120370D01*
X0044294Y0121768D02*
X0035253Y0121768D01*
X0036651Y0123167D02*
X0043538Y0123167D01*
X0043444Y0124565D02*
X0038050Y0124565D01*
X0039448Y0125964D02*
X0044206Y0125964D01*
X0046394Y0123980D02*
X0046394Y0118380D01*
X0044294Y0116280D01*
X0044294Y0113480D01*
X0047244Y0113377D02*
X0069922Y0113377D01*
X0068523Y0111979D02*
X0046866Y0111979D01*
X0046951Y0114776D02*
X0071320Y0114776D01*
X0072719Y0116174D02*
X0047159Y0116174D01*
X0048494Y0117573D02*
X0073694Y0117573D01*
X0073694Y0118971D02*
X0048494Y0118971D01*
X0048494Y0120370D02*
X0073694Y0120370D01*
X0073694Y0121768D02*
X0048494Y0121768D01*
X0049251Y0123167D02*
X0073694Y0123167D01*
X0073694Y0124565D02*
X0049344Y0124565D01*
X0048582Y0125964D02*
X0074808Y0125964D01*
X0076207Y0127362D02*
X0040847Y0127362D01*
X0042194Y0128761D02*
X0077605Y0128761D01*
X0076445Y0130159D02*
X0042194Y0130159D01*
X0042194Y0131558D02*
X0075047Y0131558D01*
X0073694Y0132956D02*
X0042194Y0132956D01*
X0042194Y0134355D02*
X0073694Y0134355D01*
X0072944Y0135753D02*
X0042194Y0135753D01*
X0042194Y0137152D02*
X0072844Y0137152D01*
X0073593Y0138551D02*
X0042194Y0138551D01*
X0042194Y0139949D02*
X0081795Y0139949D01*
X0081795Y0138551D02*
X0077996Y0138551D01*
X0078744Y0137152D02*
X0085475Y0137152D01*
X0085475Y0138551D02*
X0086634Y0138551D01*
X0086634Y0139949D02*
X0085475Y0139949D01*
X0085475Y0141348D02*
X0086634Y0141348D01*
X0088816Y0144145D02*
X0094894Y0144145D01*
X0094894Y0145543D02*
X0088816Y0145543D01*
X0088816Y0146942D02*
X0094894Y0146942D01*
X0094894Y0148340D02*
X0088816Y0148340D01*
X0088816Y0149739D02*
X0094894Y0149739D01*
X0094894Y0151137D02*
X0088816Y0151137D01*
X0090164Y0152536D02*
X0090732Y0152536D01*
X0090732Y0153934D02*
X0090164Y0153934D01*
X0090164Y0155333D02*
X0039327Y0155333D01*
X0043876Y0146942D02*
X0044445Y0146942D01*
X0044445Y0145543D02*
X0043876Y0145543D01*
X0043876Y0144145D02*
X0044445Y0144145D01*
X0044445Y0142746D02*
X0043876Y0142746D01*
X0042194Y0141348D02*
X0082127Y0141348D01*
X0081795Y0135753D02*
X0078645Y0135753D01*
X0078189Y0134355D02*
X0081795Y0134355D01*
X0082617Y0132956D02*
X0079588Y0132956D01*
X0075794Y0133780D02*
X0080694Y0128880D01*
X0084350Y0120406D02*
X0072294Y0108351D01*
X0072294Y0104380D01*
X0059694Y0091780D01*
X0059694Y0088980D01*
X0059694Y0076380D01*
X0070894Y0065180D01*
X0070894Y0061680D01*
X0070053Y0058835D02*
X0051994Y0058835D01*
X0051994Y0057437D02*
X0071459Y0057437D01*
X0071459Y0056038D02*
X0051994Y0056038D01*
X0051994Y0054640D02*
X0071459Y0054640D01*
X0071459Y0053241D02*
X0051426Y0053241D01*
X0050027Y0051843D02*
X0071459Y0051843D01*
X0071459Y0050444D02*
X0034629Y0050444D01*
X0034494Y0049046D02*
X0071459Y0049046D01*
X0071459Y0047647D02*
X0034494Y0047647D01*
X0034494Y0046249D02*
X0071459Y0046249D01*
X0071459Y0044850D02*
X0034494Y0044850D01*
X0034494Y0043452D02*
X0071459Y0043452D01*
X0071459Y0042053D02*
X0034494Y0042053D01*
X0034494Y0040655D02*
X0071459Y0040655D01*
X0071459Y0039256D02*
X0034494Y0039256D01*
X0034494Y0037858D02*
X0071459Y0037858D01*
X0071459Y0036459D02*
X0034494Y0036459D01*
X0034494Y0035061D02*
X0071459Y0035061D01*
X0071459Y0033662D02*
X0033946Y0033662D01*
X0032548Y0032264D02*
X0067036Y0032264D01*
X0068559Y0032264D02*
X0068559Y0032264D01*
X0068559Y0030865D02*
X0068559Y0030865D01*
X0068559Y0029467D02*
X0068559Y0029467D01*
X0068559Y0028068D02*
X0068559Y0028068D01*
X0068559Y0026670D02*
X0068559Y0026670D01*
X0070082Y0032264D02*
X0071459Y0032264D01*
X0073559Y0026093D02*
X0073559Y0056645D01*
X0079294Y0062380D01*
X0079294Y0074980D01*
X0079294Y0105351D01*
X0084350Y0110406D01*
X0089094Y0105151D02*
X0089094Y0066580D01*
X0083559Y0061045D01*
X0083559Y0026093D01*
X0086059Y0031313D02*
X0085699Y0031673D01*
X0085659Y0031690D01*
X0085659Y0060175D01*
X0089114Y0063630D01*
X0089681Y0063630D01*
X0090765Y0064079D01*
X0091595Y0064909D01*
X0092044Y0065993D01*
X0092044Y0067167D01*
X0091595Y0068251D01*
X0091194Y0068652D01*
X0091194Y0096914D01*
X0092403Y0095706D01*
X0094049Y0095706D01*
X0094049Y0100106D01*
X0094650Y0100106D01*
X0094650Y0095706D01*
X0094894Y0095706D01*
X0094894Y0021580D01*
X0091764Y0021580D01*
X0092337Y0022963D01*
X0092337Y0029222D01*
X0091762Y0030611D01*
X0090699Y0031673D01*
X0089310Y0032249D01*
X0087807Y0032249D01*
X0086419Y0031673D01*
X0086059Y0031313D01*
X0085659Y0032264D02*
X0094894Y0032264D01*
X0094894Y0033662D02*
X0085659Y0033662D01*
X0085659Y0035061D02*
X0094894Y0035061D01*
X0094894Y0036459D02*
X0085659Y0036459D01*
X0085659Y0037858D02*
X0094894Y0037858D01*
X0094894Y0039256D02*
X0085659Y0039256D01*
X0085659Y0040655D02*
X0094894Y0040655D01*
X0094894Y0042053D02*
X0085659Y0042053D01*
X0085659Y0043452D02*
X0094894Y0043452D01*
X0094894Y0044850D02*
X0085659Y0044850D01*
X0085659Y0046249D02*
X0094894Y0046249D01*
X0094894Y0047647D02*
X0085659Y0047647D01*
X0085659Y0049046D02*
X0094894Y0049046D01*
X0094894Y0050444D02*
X0085659Y0050444D01*
X0085659Y0051843D02*
X0094894Y0051843D01*
X0094894Y0053241D02*
X0085659Y0053241D01*
X0085659Y0054640D02*
X0094894Y0054640D01*
X0094894Y0056038D02*
X0085659Y0056038D01*
X0085659Y0057437D02*
X0094894Y0057437D01*
X0094894Y0058835D02*
X0085659Y0058835D01*
X0085718Y0060234D02*
X0094894Y0060234D01*
X0094894Y0061632D02*
X0087117Y0061632D01*
X0088515Y0063031D02*
X0094894Y0063031D01*
X0094894Y0064429D02*
X0091116Y0064429D01*
X0091976Y0065828D02*
X0094894Y0065828D01*
X0094894Y0067226D02*
X0092020Y0067226D01*
X0091221Y0068625D02*
X0094894Y0068625D01*
X0094894Y0070023D02*
X0091194Y0070023D01*
X0091194Y0071422D02*
X0094894Y0071422D01*
X0094894Y0072820D02*
X0091194Y0072820D01*
X0091194Y0074219D02*
X0094894Y0074219D01*
X0094894Y0075617D02*
X0091194Y0075617D01*
X0091194Y0077016D02*
X0094894Y0077016D01*
X0094894Y0078415D02*
X0091194Y0078415D01*
X0091194Y0079813D02*
X0094894Y0079813D01*
X0094894Y0081212D02*
X0091194Y0081212D01*
X0091194Y0082610D02*
X0094894Y0082610D01*
X0094894Y0084009D02*
X0091194Y0084009D01*
X0091194Y0085407D02*
X0094894Y0085407D01*
X0094894Y0086806D02*
X0091194Y0086806D01*
X0091194Y0088204D02*
X0094894Y0088204D01*
X0094894Y0089603D02*
X0091194Y0089603D01*
X0091194Y0091001D02*
X0094894Y0091001D01*
X0094894Y0092400D02*
X0091194Y0092400D01*
X0091194Y0093798D02*
X0094894Y0093798D01*
X0094894Y0095197D02*
X0091194Y0095197D01*
X0091194Y0096595D02*
X0091514Y0096595D01*
X0094049Y0096595D02*
X0094650Y0096595D01*
X0094650Y0097994D02*
X0094049Y0097994D01*
X0094049Y0099392D02*
X0094650Y0099392D01*
X0094650Y0100706D02*
X0094049Y0100706D01*
X0094049Y0105106D01*
X0092403Y0105106D01*
X0091194Y0103898D01*
X0091194Y0104281D01*
X0092919Y0106006D01*
X0094894Y0106006D01*
X0094894Y0105106D01*
X0094650Y0105106D01*
X0094650Y0100706D01*
X0094650Y0100791D02*
X0094049Y0100791D01*
X0094049Y0102189D02*
X0094650Y0102189D01*
X0094650Y0103588D02*
X0094049Y0103588D01*
X0094049Y0104986D02*
X0094650Y0104986D01*
X0092283Y0104986D02*
X0091900Y0104986D01*
X0089094Y0105151D02*
X0094350Y0110406D01*
X0086634Y0132956D02*
X0085475Y0132956D01*
X0085475Y0134355D02*
X0086634Y0134355D01*
X0086634Y0135753D02*
X0085475Y0135753D01*
X0089982Y0141348D02*
X0090025Y0141348D01*
X0094894Y0142746D02*
X0046499Y0142746D01*
X0046527Y0153934D02*
X0084811Y0153934D01*
X0084811Y0156731D02*
X0044679Y0156731D01*
X0044498Y0158130D02*
X0067573Y0158130D01*
X0066654Y0159528D02*
X0044379Y0159528D01*
X0044379Y0160927D02*
X0066544Y0160927D01*
X0067268Y0162325D02*
X0044379Y0162325D01*
X0055958Y0212672D02*
X0085111Y0212672D01*
X0085111Y0214070D02*
X0056911Y0214070D01*
X0057044Y0215469D02*
X0085111Y0215469D01*
X0085111Y0216867D02*
X0056379Y0216867D01*
X0056194Y0218266D02*
X0066970Y0218266D01*
X0066544Y0219664D02*
X0056194Y0219664D01*
X0056847Y0221063D02*
X0066791Y0221063D01*
X0068017Y0222461D02*
X0058245Y0222461D01*
X0059644Y0223860D02*
X0085111Y0223860D01*
X0085111Y0222461D02*
X0070972Y0222461D01*
X0069966Y0220352D02*
X0090448Y0220352D01*
X0090448Y0226257D02*
X0059072Y0226257D01*
X0054094Y0221280D01*
X0054094Y0214980D01*
X0045344Y0232251D02*
X0025554Y0232251D01*
X0025554Y0233649D02*
X0045194Y0233649D01*
X0045194Y0235048D02*
X0025554Y0235048D01*
X0025554Y0236446D02*
X0045194Y0236446D01*
X0045194Y0237845D02*
X0025554Y0237845D01*
X0025554Y0239243D02*
X0045194Y0239243D01*
X0045194Y0240642D02*
X0025554Y0240642D01*
X0025554Y0242040D02*
X0045194Y0242040D01*
X0045194Y0243439D02*
X0025554Y0243439D01*
X0025554Y0244837D02*
X0045194Y0244837D01*
X0045194Y0246236D02*
X0025554Y0246236D01*
X0025554Y0247634D02*
X0045194Y0247634D01*
X0045194Y0249033D02*
X0025554Y0249033D01*
X0025554Y0250431D02*
X0045194Y0250431D01*
X0045964Y0251830D02*
X0025554Y0251830D01*
X0069494Y0219880D02*
X0069496Y0219921D01*
X0069501Y0219962D01*
X0069510Y0220002D01*
X0069522Y0220041D01*
X0069538Y0220079D01*
X0069557Y0220116D01*
X0069579Y0220151D01*
X0069604Y0220183D01*
X0069632Y0220214D01*
X0069663Y0220242D01*
X0069695Y0220267D01*
X0069730Y0220289D01*
X0069767Y0220308D01*
X0069805Y0220324D01*
X0069844Y0220336D01*
X0069884Y0220345D01*
X0069925Y0220350D01*
X0069966Y0220352D01*
X0075794Y0136580D02*
X0075794Y0133780D01*
X0075794Y0106480D02*
X0074794Y0105480D01*
X0074794Y0096980D01*
X0063894Y0086080D01*
X0063894Y0081280D01*
X0063104Y0078415D02*
X0061794Y0078415D01*
X0062028Y0077016D02*
X0077158Y0077016D01*
X0077194Y0078415D02*
X0064685Y0078415D01*
X0063427Y0075617D02*
X0076365Y0075617D01*
X0076417Y0074219D02*
X0064825Y0074219D01*
X0066224Y0072820D02*
X0077194Y0072820D01*
X0077194Y0071422D02*
X0067622Y0071422D01*
X0069021Y0070023D02*
X0077194Y0070023D01*
X0077194Y0068625D02*
X0070419Y0068625D01*
X0071818Y0067226D02*
X0077194Y0067226D01*
X0077194Y0065828D02*
X0072994Y0065828D01*
X0072994Y0064429D02*
X0077194Y0064429D01*
X0076975Y0063031D02*
X0073528Y0063031D01*
X0073844Y0061632D02*
X0075577Y0061632D01*
X0074178Y0060234D02*
X0073488Y0060234D01*
X0072780Y0058835D02*
X0071735Y0058835D01*
X0068675Y0064429D02*
X0051994Y0064429D01*
X0051994Y0063031D02*
X0068261Y0063031D01*
X0067944Y0061632D02*
X0051994Y0061632D01*
X0051994Y0060234D02*
X0068300Y0060234D01*
X0067277Y0065828D02*
X0051994Y0065828D01*
X0051994Y0067226D02*
X0065878Y0067226D01*
X0064480Y0068625D02*
X0051994Y0068625D01*
X0052774Y0070023D02*
X0063081Y0070023D01*
X0061683Y0071422D02*
X0052822Y0071422D01*
X0052026Y0072820D02*
X0060284Y0072820D01*
X0065994Y0084009D02*
X0077194Y0084009D01*
X0077194Y0085407D02*
X0066191Y0085407D01*
X0066537Y0082610D02*
X0077194Y0082610D01*
X0077194Y0081212D02*
X0066844Y0081212D01*
X0066480Y0079813D02*
X0077194Y0079813D01*
X0077194Y0086806D02*
X0067590Y0086806D01*
X0068988Y0088204D02*
X0077194Y0088204D01*
X0077194Y0089603D02*
X0070387Y0089603D01*
X0071785Y0091001D02*
X0077194Y0091001D01*
X0077194Y0092400D02*
X0073184Y0092400D01*
X0074582Y0093798D02*
X0077194Y0093798D01*
X0077194Y0095197D02*
X0075981Y0095197D01*
X0076894Y0096595D02*
X0077194Y0096595D01*
X0077194Y0097994D02*
X0076894Y0097994D01*
X0076894Y0099392D02*
X0077194Y0099392D01*
X0077194Y0100791D02*
X0076894Y0100791D01*
X0076894Y0102189D02*
X0077194Y0102189D01*
X0077194Y0103588D02*
X0076894Y0103588D01*
X0078594Y0052580D02*
X0078559Y0052545D01*
X0078559Y0026093D01*
X0091507Y0030865D02*
X0094894Y0030865D01*
X0094894Y0029467D02*
X0092236Y0029467D01*
X0092337Y0028068D02*
X0094894Y0028068D01*
X0094894Y0026670D02*
X0092337Y0026670D01*
X0092337Y0025271D02*
X0094894Y0025271D01*
X0094894Y0023873D02*
X0092337Y0023873D01*
X0092134Y0022474D02*
X0094894Y0022474D01*
X0047794Y0056038D02*
X0033794Y0056038D01*
X0033794Y0057437D02*
X0047794Y0057437D01*
X0047794Y0058835D02*
X0033794Y0058835D01*
X0033794Y0060234D02*
X0047794Y0060234D01*
X0047794Y0061632D02*
X0033794Y0061632D01*
X0033915Y0063031D02*
X0047794Y0063031D01*
X0047794Y0064429D02*
X0035314Y0064429D01*
X0036594Y0065828D02*
X0047794Y0065828D01*
X0047794Y0067226D02*
X0037085Y0067226D01*
X0037444Y0068625D02*
X0047794Y0068625D01*
X0047015Y0070023D02*
X0037131Y0070023D01*
X0035583Y0071422D02*
X0046967Y0071422D01*
X0032884Y0054640D02*
X0032524Y0054640D01*
X0031486Y0053241D02*
X0031126Y0053241D01*
X0030294Y0051843D02*
X0026729Y0051843D01*
X0025554Y0057437D02*
X0029381Y0057437D01*
X0029594Y0058835D02*
X0026022Y0058835D01*
X0026878Y0060234D02*
X0029594Y0060234D01*
X0029594Y0061632D02*
X0026917Y0061632D01*
D20*
X0042794Y0034380D03*
X0049894Y0163080D03*
D21*
X0024694Y0053980D03*
X0023994Y0060980D03*
X0034494Y0068680D03*
X0037294Y0081980D03*
X0035894Y0095980D03*
X0028194Y0105080D03*
X0044294Y0113480D03*
X0046394Y0123980D03*
X0056894Y0095980D03*
X0059694Y0088980D03*
X0063894Y0081280D03*
X0070894Y0061680D03*
X0078594Y0052580D03*
X0089094Y0066580D03*
X0079294Y0074980D03*
X0075794Y0106480D03*
X0064594Y0112080D03*
X0061094Y0137280D03*
X0069494Y0160380D03*
X0075794Y0136580D03*
X0049894Y0070780D03*
X0054094Y0214980D03*
X0069494Y0219880D03*
X0026094Y0219880D03*
M02*
