G75*
%MOIN*%
%OFA0B0*%
%FSLAX25Y25*%
%IPPOS*%
%LPD*%
%AMOC8*
5,1,8,0,0,1.08239X$1,22.5*
%
%ADD10C,0.00500*%
%ADD11C,0.00400*%
%ADD12C,0.00200*%
%ADD13R,0.02953X0.05709*%
%ADD14C,0.00600*%
%ADD15R,0.05512X0.02559*%
%ADD16R,0.00591X0.01181*%
%ADD17R,0.01181X0.01181*%
%ADD18R,0.05315X0.02362*%
D10*
X0044204Y0153391D02*
X0044204Y0230163D01*
X0044204Y0253785D01*
X0085542Y0253785D01*
X0085542Y0230163D01*
X0044204Y0230163D01*
X0044204Y0153391D02*
X0085542Y0153391D01*
X0085542Y0230163D01*
D11*
X0019179Y0150238D02*
X0019179Y0148703D01*
X0019179Y0149470D02*
X0023783Y0149470D01*
X0023783Y0148703D02*
X0023783Y0150238D01*
X0023016Y0151772D02*
X0023783Y0152539D01*
X0023783Y0154074D01*
X0023016Y0154841D01*
X0019947Y0154841D01*
X0019179Y0154074D01*
X0019179Y0152539D01*
X0019947Y0151772D01*
X0023016Y0151772D01*
X0023016Y0156376D02*
X0019947Y0156376D01*
X0023016Y0159445D01*
X0019947Y0159445D01*
X0019179Y0158678D01*
X0019179Y0157143D01*
X0019947Y0156376D01*
X0023016Y0156376D02*
X0023783Y0157143D01*
X0023783Y0158678D01*
X0023016Y0159445D01*
X0034109Y0173480D02*
X0034109Y0175782D01*
X0034877Y0176549D01*
X0035644Y0176549D01*
X0036411Y0175782D01*
X0036411Y0173480D01*
X0036411Y0175782D02*
X0037179Y0176549D01*
X0037946Y0176549D01*
X0038713Y0175782D01*
X0038713Y0173480D01*
X0034109Y0173480D01*
X0034094Y0188480D02*
X0034094Y0190782D01*
X0034862Y0191549D01*
X0035629Y0191549D01*
X0036396Y0190782D01*
X0036396Y0188480D01*
X0036396Y0190782D02*
X0037164Y0191549D01*
X0037931Y0191549D01*
X0038698Y0190782D01*
X0038698Y0188480D01*
X0034094Y0188480D01*
X0034862Y0193084D02*
X0034094Y0193851D01*
X0034094Y0195386D01*
X0034862Y0196153D01*
X0037931Y0196153D01*
X0038698Y0195386D01*
X0038698Y0193851D01*
X0037931Y0193084D01*
X0034862Y0193084D01*
X0034862Y0197688D02*
X0034094Y0198455D01*
X0034094Y0199990D01*
X0034862Y0200757D01*
X0037931Y0200757D01*
X0038698Y0199990D01*
X0038698Y0198455D01*
X0037931Y0197688D01*
X0034862Y0197688D01*
X0034094Y0203826D02*
X0038698Y0203826D01*
X0038698Y0202292D02*
X0038698Y0205361D01*
X0031355Y0195052D02*
X0031355Y0191508D01*
X0026434Y0191410D02*
X0026434Y0195052D01*
X0045908Y0236268D02*
X0045141Y0237036D01*
X0045141Y0240105D01*
X0048210Y0237036D01*
X0047443Y0236268D01*
X0045908Y0236268D01*
X0048210Y0237036D02*
X0048210Y0240105D01*
X0047443Y0240872D01*
X0045908Y0240872D01*
X0045141Y0240105D01*
X0049744Y0237036D02*
X0049744Y0236268D01*
X0050512Y0236268D01*
X0050512Y0237036D01*
X0049744Y0237036D01*
X0052046Y0238570D02*
X0055116Y0238570D01*
X0052814Y0240872D01*
X0052814Y0236268D01*
X0061254Y0236268D02*
X0064324Y0236268D01*
X0064324Y0240872D01*
X0061254Y0240872D01*
X0062789Y0238570D02*
X0064324Y0238570D01*
X0065858Y0236268D02*
X0068927Y0236268D01*
X0068927Y0240872D01*
X0070462Y0240105D02*
X0070462Y0239337D01*
X0071229Y0238570D01*
X0073531Y0238570D01*
X0073531Y0236268D02*
X0071229Y0236268D01*
X0070462Y0237036D01*
X0070462Y0237803D01*
X0071229Y0238570D01*
X0070462Y0240105D02*
X0071229Y0240872D01*
X0073531Y0240872D01*
X0073531Y0236268D01*
X0088393Y0139963D02*
X0091294Y0139963D01*
X0091294Y0134767D02*
X0088294Y0134767D01*
X0089198Y0132169D02*
X0089198Y0127565D01*
X0086129Y0127565D01*
X0087664Y0129867D02*
X0089198Y0129867D01*
X0089198Y0132169D02*
X0086129Y0132169D01*
X0090733Y0127565D02*
X0093802Y0127565D01*
X0093802Y0132169D01*
X0095337Y0131402D02*
X0095337Y0130634D01*
X0096104Y0129867D01*
X0098406Y0129867D01*
X0098406Y0127565D02*
X0096104Y0127565D01*
X0095337Y0128332D01*
X0095337Y0129100D01*
X0096104Y0129867D01*
X0095337Y0131402D02*
X0096104Y0132169D01*
X0098406Y0132169D01*
X0098406Y0127565D01*
D12*
X0097562Y0133495D02*
X0097562Y0141235D01*
X0082027Y0141235D01*
X0082027Y0133495D01*
X0097562Y0133495D01*
X0032850Y0150512D02*
X0032850Y0166048D01*
X0025109Y0166048D01*
X0025109Y0150512D01*
X0032850Y0150512D01*
X0032779Y0168012D02*
X0025039Y0168012D01*
X0025039Y0183548D01*
X0032779Y0183548D01*
X0032779Y0168012D01*
D13*
X0086971Y0137361D03*
X0092671Y0137361D03*
D14*
X0031479Y0156666D02*
X0031479Y0159894D01*
X0026479Y0159894D02*
X0026479Y0156666D01*
X0026409Y0174166D02*
X0026409Y0177394D01*
X0031409Y0177394D02*
X0031409Y0174166D01*
D15*
X0028915Y0172860D03*
X0028915Y0178660D03*
X0028974Y0161200D03*
X0028974Y0155400D03*
D16*
X0031257Y0193871D03*
X0026532Y0193871D03*
D17*
X0028894Y0193871D03*
D18*
X0028894Y0196233D03*
X0028894Y0190327D03*
M02*
