G75*
%MOIN*%
%OFA0B0*%
%FSLAX25Y25*%
%IPPOS*%
%LPD*%
%AMOC8*
5,1,8,0,0,1.08239X$1,22.5*
%
%ADD10C,0.01000*%
%ADD11C,0.00200*%
%ADD12C,0.00400*%
%ADD13R,0.05709X0.02953*%
%ADD14R,0.02953X0.05709*%
%ADD15C,0.00800*%
%ADD16C,0.00100*%
%ADD17C,0.00600*%
%ADD18R,0.04528X0.01574*%
%ADD19R,0.04528X0.01575*%
%ADD20R,0.04528X0.01575*%
%ADD21R,0.01574X0.04528*%
%ADD22R,0.01575X0.04528*%
%ADD23R,0.01575X0.04528*%
%ADD24C,0.00500*%
%ADD25R,0.02000X0.02000*%
%ADD26R,0.02559X0.05512*%
%ADD27R,0.05512X0.02559*%
%ADD28C,0.00300*%
%ADD29R,0.06000X0.06000*%
%ADD30R,0.05900X0.03600*%
%ADD31R,0.02400X0.04200*%
D10*
X0064923Y0066834D02*
X0064925Y0066901D01*
X0064931Y0066967D01*
X0064941Y0067033D01*
X0064955Y0067098D01*
X0064972Y0067162D01*
X0064994Y0067225D01*
X0065019Y0067287D01*
X0065048Y0067347D01*
X0065081Y0067405D01*
X0065116Y0067461D01*
X0065156Y0067515D01*
X0065198Y0067566D01*
X0065243Y0067615D01*
X0065291Y0067661D01*
X0065342Y0067704D01*
X0065395Y0067744D01*
X0065451Y0067781D01*
X0065509Y0067814D01*
X0065568Y0067844D01*
X0065629Y0067870D01*
X0065692Y0067893D01*
X0065756Y0067911D01*
X0065821Y0067926D01*
X0065887Y0067937D01*
X0065953Y0067944D01*
X0066019Y0067947D01*
X0066086Y0067946D01*
X0066152Y0067941D01*
X0066218Y0067932D01*
X0066284Y0067919D01*
X0066348Y0067902D01*
X0066411Y0067882D01*
X0066473Y0067857D01*
X0066534Y0067829D01*
X0066593Y0067798D01*
X0066649Y0067763D01*
X0066704Y0067725D01*
X0066756Y0067683D01*
X0066805Y0067638D01*
X0066852Y0067591D01*
X0066896Y0067541D01*
X0066936Y0067488D01*
X0066974Y0067433D01*
X0067008Y0067376D01*
X0067039Y0067317D01*
X0067066Y0067256D01*
X0067089Y0067194D01*
X0067109Y0067130D01*
X0067125Y0067065D01*
X0067137Y0067000D01*
X0067145Y0066934D01*
X0067149Y0066867D01*
X0067149Y0066801D01*
X0067145Y0066734D01*
X0067137Y0066668D01*
X0067125Y0066603D01*
X0067109Y0066538D01*
X0067089Y0066474D01*
X0067066Y0066412D01*
X0067039Y0066351D01*
X0067008Y0066292D01*
X0066974Y0066235D01*
X0066936Y0066180D01*
X0066896Y0066127D01*
X0066852Y0066077D01*
X0066805Y0066030D01*
X0066756Y0065985D01*
X0066704Y0065943D01*
X0066649Y0065905D01*
X0066592Y0065870D01*
X0066534Y0065839D01*
X0066473Y0065811D01*
X0066411Y0065786D01*
X0066348Y0065766D01*
X0066284Y0065749D01*
X0066218Y0065736D01*
X0066152Y0065727D01*
X0066086Y0065722D01*
X0066019Y0065721D01*
X0065953Y0065724D01*
X0065887Y0065731D01*
X0065821Y0065742D01*
X0065756Y0065757D01*
X0065692Y0065775D01*
X0065629Y0065798D01*
X0065568Y0065824D01*
X0065509Y0065854D01*
X0065451Y0065887D01*
X0065395Y0065924D01*
X0065342Y0065964D01*
X0065291Y0066007D01*
X0065243Y0066053D01*
X0065198Y0066102D01*
X0065156Y0066153D01*
X0065116Y0066207D01*
X0065081Y0066263D01*
X0065048Y0066321D01*
X0065019Y0066381D01*
X0064994Y0066443D01*
X0064972Y0066506D01*
X0064955Y0066570D01*
X0064941Y0066635D01*
X0064931Y0066701D01*
X0064925Y0066767D01*
X0064923Y0066834D01*
X0064020Y0233874D02*
X0062018Y0233874D01*
X0061017Y0234875D01*
X0061017Y0238879D01*
X0062018Y0239880D01*
X0064020Y0239880D01*
X0065021Y0238879D01*
X0065021Y0234875D02*
X0064020Y0233874D01*
X0067463Y0233874D02*
X0069465Y0235876D01*
X0069465Y0237878D01*
X0067463Y0239880D01*
X0068337Y0242886D02*
X0066335Y0242886D01*
X0065334Y0243886D01*
X0065334Y0247890D01*
X0066335Y0248891D01*
X0068337Y0248891D01*
X0069338Y0247890D01*
X0069338Y0243886D02*
X0068337Y0242886D01*
X0071780Y0242886D02*
X0072781Y0242886D01*
X0072781Y0243886D01*
X0071780Y0243886D01*
X0071780Y0242886D01*
X0075003Y0243886D02*
X0076004Y0242886D01*
X0078005Y0242886D01*
X0079006Y0243886D01*
X0079006Y0244887D01*
X0078005Y0245888D01*
X0076004Y0245888D01*
X0075003Y0246889D01*
X0075003Y0247890D01*
X0076004Y0248891D01*
X0078005Y0248891D01*
X0079006Y0247890D01*
X0063113Y0243886D02*
X0063113Y0242886D01*
X0062112Y0242886D01*
X0062112Y0243886D01*
X0063113Y0243886D01*
X0059670Y0244887D02*
X0059670Y0248891D01*
X0059670Y0244887D02*
X0057668Y0242886D01*
X0055666Y0244887D01*
X0055666Y0248891D01*
X0053444Y0243886D02*
X0053444Y0242886D01*
X0052443Y0242886D01*
X0052443Y0243886D01*
X0053444Y0243886D01*
X0050148Y0242886D02*
X0048146Y0242886D01*
X0049147Y0242886D02*
X0049147Y0248891D01*
X0048146Y0248891D02*
X0050148Y0248891D01*
X0058722Y0239880D02*
X0056720Y0237878D01*
X0056720Y0235876D01*
X0058722Y0233874D01*
D11*
X0071606Y0156769D02*
X0079346Y0156769D01*
X0079346Y0141233D01*
X0071606Y0141233D01*
X0071606Y0156769D01*
X0061828Y0134519D02*
X0061828Y0126779D01*
X0046293Y0126779D01*
X0046293Y0134519D01*
X0061828Y0134519D01*
X0058696Y0146040D02*
X0058196Y0146540D01*
X0058696Y0146040D02*
X0059196Y0146540D01*
X0058696Y0147040D02*
X0058696Y0146040D01*
X0058524Y0147440D02*
X0058524Y0147941D01*
X0058858Y0148275D01*
X0058858Y0148441D01*
X0058524Y0147941D02*
X0058191Y0148275D01*
X0058191Y0148441D01*
X0057358Y0148441D02*
X0056691Y0147440D01*
X0056691Y0146941D02*
X0057358Y0146941D01*
X0057358Y0146775D01*
X0056691Y0146107D01*
X0056691Y0145940D01*
X0057358Y0145940D01*
X0056096Y0146540D02*
X0056098Y0146560D01*
X0056104Y0146578D01*
X0056113Y0146596D01*
X0056125Y0146611D01*
X0056140Y0146623D01*
X0056158Y0146632D01*
X0056176Y0146638D01*
X0056196Y0146640D01*
X0056216Y0146638D01*
X0056234Y0146632D01*
X0056252Y0146623D01*
X0056267Y0146611D01*
X0056279Y0146596D01*
X0056288Y0146578D01*
X0056294Y0146560D01*
X0056296Y0146540D01*
X0056294Y0146520D01*
X0056288Y0146502D01*
X0056279Y0146484D01*
X0056267Y0146469D01*
X0056252Y0146457D01*
X0056234Y0146448D01*
X0056216Y0146442D01*
X0056196Y0146440D01*
X0056176Y0146442D01*
X0056158Y0146448D01*
X0056140Y0146457D01*
X0056125Y0146469D01*
X0056113Y0146484D01*
X0056104Y0146502D01*
X0056098Y0146520D01*
X0056096Y0146540D01*
X0055696Y0146540D02*
X0055698Y0146584D01*
X0055704Y0146628D01*
X0055714Y0146671D01*
X0055727Y0146713D01*
X0055744Y0146754D01*
X0055765Y0146793D01*
X0055789Y0146830D01*
X0055816Y0146865D01*
X0055846Y0146897D01*
X0055879Y0146927D01*
X0055915Y0146953D01*
X0055952Y0146977D01*
X0055992Y0146996D01*
X0056033Y0147013D01*
X0056076Y0147025D01*
X0056119Y0147034D01*
X0056163Y0147039D01*
X0056207Y0147040D01*
X0056251Y0147037D01*
X0056295Y0147030D01*
X0056338Y0147019D01*
X0056380Y0147005D01*
X0056420Y0146987D01*
X0056459Y0146965D01*
X0056495Y0146941D01*
X0056529Y0146913D01*
X0056561Y0146882D01*
X0056590Y0146848D01*
X0056616Y0146812D01*
X0056638Y0146774D01*
X0056657Y0146734D01*
X0056672Y0146692D01*
X0056684Y0146650D01*
X0056692Y0146606D01*
X0056696Y0146562D01*
X0056696Y0146518D01*
X0056692Y0146474D01*
X0056684Y0146430D01*
X0056672Y0146388D01*
X0056657Y0146346D01*
X0056638Y0146306D01*
X0056616Y0146268D01*
X0056590Y0146232D01*
X0056561Y0146198D01*
X0056529Y0146167D01*
X0056495Y0146139D01*
X0056459Y0146115D01*
X0056420Y0146093D01*
X0056380Y0146075D01*
X0056338Y0146061D01*
X0056295Y0146050D01*
X0056251Y0146043D01*
X0056207Y0146040D01*
X0056163Y0146041D01*
X0056119Y0146046D01*
X0056076Y0146055D01*
X0056033Y0146067D01*
X0055992Y0146084D01*
X0055952Y0146103D01*
X0055915Y0146127D01*
X0055879Y0146153D01*
X0055846Y0146183D01*
X0055816Y0146215D01*
X0055789Y0146250D01*
X0055765Y0146287D01*
X0055744Y0146326D01*
X0055727Y0146367D01*
X0055714Y0146409D01*
X0055704Y0146452D01*
X0055698Y0146496D01*
X0055696Y0146540D01*
X0055696Y0147540D02*
X0055196Y0148040D01*
X0055696Y0148540D01*
X0056196Y0148040D02*
X0055196Y0148040D01*
X0056691Y0148441D02*
X0057358Y0147440D01*
X0062491Y0121909D02*
X0046956Y0121909D01*
X0046956Y0114169D01*
X0062491Y0114169D01*
X0062491Y0121909D01*
X0044080Y0117077D02*
X0036340Y0117077D01*
X0036340Y0132612D01*
X0044080Y0132612D01*
X0044080Y0117077D01*
X0044459Y0050621D02*
X0052199Y0050621D01*
X0052199Y0035086D01*
X0044459Y0035086D01*
X0044459Y0050621D01*
X0041275Y0050621D02*
X0033535Y0050621D01*
X0033535Y0035086D01*
X0041275Y0035086D01*
X0041275Y0050621D01*
X0030956Y0051423D02*
X0030956Y0035888D01*
X0023216Y0035888D01*
X0023216Y0051423D01*
X0030956Y0051423D01*
X0054678Y0050630D02*
X0054678Y0035094D01*
X0062418Y0035094D01*
X0062418Y0050630D01*
X0054678Y0050630D01*
D12*
X0014464Y0005169D02*
X0014464Y0002867D01*
X0019068Y0002867D01*
X0019068Y0005169D01*
X0018300Y0005936D01*
X0015231Y0005936D01*
X0014464Y0005169D01*
X0014464Y0007471D02*
X0014464Y0009773D01*
X0015231Y0010540D01*
X0016766Y0010540D01*
X0017533Y0009773D01*
X0017533Y0007471D01*
X0017533Y0009005D02*
X0019068Y0010540D01*
X0019068Y0012075D02*
X0014464Y0012075D01*
X0014464Y0015144D01*
X0015998Y0016678D02*
X0014464Y0018213D01*
X0019068Y0018213D01*
X0019068Y0016678D02*
X0019068Y0019748D01*
X0019068Y0021282D02*
X0015998Y0024352D01*
X0015231Y0024352D01*
X0014464Y0023584D01*
X0014464Y0022050D01*
X0015231Y0021282D01*
X0014464Y0025886D02*
X0014464Y0028956D01*
X0015231Y0028956D01*
X0018300Y0025886D01*
X0019068Y0025886D01*
X0019068Y0024352D02*
X0019068Y0021282D01*
X0016766Y0013609D02*
X0016766Y0012075D01*
X0019068Y0007471D02*
X0014464Y0007471D01*
X0015231Y0030490D02*
X0015998Y0030490D01*
X0016766Y0031258D01*
X0016766Y0032792D01*
X0017533Y0033559D01*
X0018300Y0033559D01*
X0019068Y0032792D01*
X0019068Y0031258D01*
X0018300Y0030490D01*
X0017533Y0030490D01*
X0016766Y0031258D01*
X0016766Y0032792D02*
X0015998Y0033559D01*
X0015231Y0033559D01*
X0014464Y0032792D01*
X0014464Y0031258D01*
X0015231Y0030490D01*
X0014464Y0035094D02*
X0014464Y0038163D01*
X0014464Y0035094D02*
X0019068Y0035094D01*
X0016766Y0035094D02*
X0016766Y0036629D01*
X0018817Y0038856D02*
X0017282Y0040390D01*
X0018817Y0041925D01*
X0021886Y0041925D01*
X0021886Y0043460D02*
X0017282Y0043460D01*
X0017282Y0045761D01*
X0018050Y0046529D01*
X0019584Y0046529D01*
X0020351Y0045761D01*
X0020351Y0043460D01*
X0020351Y0044994D02*
X0021886Y0046529D01*
X0021886Y0048063D02*
X0021886Y0051133D01*
X0021886Y0052667D02*
X0017282Y0052667D01*
X0017282Y0055737D01*
X0019584Y0054202D02*
X0019584Y0052667D01*
X0019584Y0049598D02*
X0019584Y0048063D01*
X0017282Y0048063D02*
X0021886Y0048063D01*
X0019584Y0041925D02*
X0019584Y0038856D01*
X0018817Y0038856D02*
X0021886Y0038856D01*
X0024488Y0042156D02*
X0024488Y0045156D01*
X0029685Y0045156D02*
X0029685Y0042254D01*
X0034806Y0041354D02*
X0034806Y0044255D01*
X0040003Y0044354D02*
X0040003Y0041354D01*
X0042601Y0041148D02*
X0042601Y0039613D01*
X0043368Y0038846D01*
X0046438Y0038846D01*
X0047205Y0039613D01*
X0047205Y0041148D01*
X0046438Y0041915D01*
X0045731Y0041354D02*
X0045731Y0044255D01*
X0045670Y0043450D02*
X0044903Y0044217D01*
X0044903Y0045752D01*
X0045670Y0046519D01*
X0046438Y0046519D01*
X0047205Y0045752D01*
X0047205Y0044217D01*
X0046438Y0043450D01*
X0045670Y0043450D01*
X0044903Y0044217D02*
X0044136Y0043450D01*
X0043368Y0043450D01*
X0042601Y0044217D01*
X0042601Y0045752D01*
X0043368Y0046519D01*
X0044136Y0046519D01*
X0044903Y0045752D01*
X0043368Y0041915D02*
X0042601Y0041148D01*
X0050927Y0041354D02*
X0050927Y0044354D01*
X0053525Y0044217D02*
X0054292Y0043450D01*
X0055060Y0043450D01*
X0055827Y0044217D01*
X0055827Y0046519D01*
X0057362Y0046519D02*
X0054292Y0046519D01*
X0053525Y0045752D01*
X0053525Y0044217D01*
X0054292Y0041915D02*
X0053525Y0041148D01*
X0053525Y0039613D01*
X0054292Y0038846D01*
X0057362Y0038846D01*
X0058129Y0039613D01*
X0058129Y0041148D01*
X0057362Y0041915D01*
X0055950Y0041362D02*
X0055950Y0044264D01*
X0057362Y0043450D02*
X0058129Y0044217D01*
X0058129Y0045752D01*
X0057362Y0046519D01*
X0061147Y0044362D02*
X0061147Y0041362D01*
X0063744Y0044225D02*
X0064512Y0043458D01*
X0067581Y0043458D01*
X0068348Y0044225D01*
X0068348Y0045760D01*
X0067581Y0046527D01*
X0064512Y0046527D02*
X0063744Y0045760D01*
X0063744Y0044225D01*
X0058389Y0108239D02*
X0055320Y0108239D01*
X0056854Y0108239D02*
X0056854Y0112843D01*
X0055320Y0111308D01*
X0056224Y0115441D02*
X0053224Y0115441D01*
X0053018Y0112843D02*
X0051483Y0112843D01*
X0050716Y0112076D01*
X0050716Y0109006D01*
X0051483Y0108239D01*
X0053018Y0108239D01*
X0053785Y0109006D01*
X0053785Y0112076D02*
X0053018Y0112843D01*
X0050010Y0118337D02*
X0045406Y0118337D01*
X0045406Y0120639D01*
X0046174Y0121406D01*
X0047708Y0121406D01*
X0048476Y0120639D01*
X0048476Y0118337D01*
X0048476Y0119871D02*
X0050010Y0121406D01*
X0050010Y0122941D02*
X0046941Y0126010D01*
X0046174Y0126010D01*
X0045406Y0125243D01*
X0045406Y0123708D01*
X0046174Y0122941D01*
X0050010Y0122941D02*
X0050010Y0126010D01*
X0053224Y0120637D02*
X0056125Y0120637D01*
X0056364Y0135849D02*
X0059434Y0135849D01*
X0057899Y0135849D02*
X0057899Y0140453D01*
X0056364Y0138919D01*
X0054830Y0139686D02*
X0054830Y0138151D01*
X0054062Y0137384D01*
X0051761Y0137384D01*
X0051761Y0135849D02*
X0051761Y0140453D01*
X0054062Y0140453D01*
X0054830Y0139686D01*
X0053295Y0137384D02*
X0054830Y0135849D01*
X0080672Y0142493D02*
X0080672Y0144795D01*
X0081439Y0145563D01*
X0082974Y0145563D01*
X0083741Y0144795D01*
X0083741Y0142493D01*
X0083741Y0144028D02*
X0085276Y0145563D01*
X0084508Y0147097D02*
X0085276Y0147864D01*
X0085276Y0149399D01*
X0084508Y0150166D01*
X0083741Y0150166D01*
X0082974Y0149399D01*
X0082974Y0148632D01*
X0082974Y0149399D02*
X0082206Y0150166D01*
X0081439Y0150166D01*
X0080672Y0149399D01*
X0080672Y0147864D01*
X0081439Y0147097D01*
X0080672Y0142493D02*
X0085276Y0142493D01*
X0017282Y0051133D02*
X0017282Y0048063D01*
D13*
X0027082Y0046532D03*
X0027082Y0040832D03*
X0037409Y0039977D03*
X0037409Y0045677D03*
X0048333Y0045677D03*
X0048333Y0039977D03*
X0058553Y0039985D03*
X0058553Y0045685D03*
D14*
X0057547Y0118035D03*
X0051847Y0118035D03*
D15*
X0047353Y0141635D02*
X0047353Y0144785D01*
X0045559Y0145040D02*
X0045561Y0145068D01*
X0045567Y0145095D01*
X0045576Y0145121D01*
X0045589Y0145146D01*
X0045606Y0145169D01*
X0045625Y0145189D01*
X0045647Y0145206D01*
X0045671Y0145220D01*
X0045697Y0145230D01*
X0045724Y0145237D01*
X0045752Y0145240D01*
X0045780Y0145239D01*
X0045807Y0145234D01*
X0045834Y0145225D01*
X0045859Y0145213D01*
X0045882Y0145198D01*
X0045903Y0145179D01*
X0045921Y0145158D01*
X0045936Y0145134D01*
X0045947Y0145108D01*
X0045955Y0145082D01*
X0045959Y0145054D01*
X0045959Y0145026D01*
X0045955Y0144998D01*
X0045947Y0144972D01*
X0045936Y0144946D01*
X0045921Y0144922D01*
X0045903Y0144901D01*
X0045882Y0144882D01*
X0045859Y0144867D01*
X0045834Y0144855D01*
X0045807Y0144846D01*
X0045780Y0144841D01*
X0045752Y0144840D01*
X0045724Y0144843D01*
X0045697Y0144850D01*
X0045671Y0144860D01*
X0045647Y0144874D01*
X0045625Y0144891D01*
X0045606Y0144911D01*
X0045589Y0144934D01*
X0045576Y0144959D01*
X0045567Y0144985D01*
X0045561Y0145012D01*
X0045559Y0145040D01*
X0047353Y0150296D02*
X0047353Y0153446D01*
X0052865Y0147540D02*
X0052867Y0147579D01*
X0052873Y0147618D01*
X0052883Y0147656D01*
X0052896Y0147693D01*
X0052913Y0147728D01*
X0052933Y0147762D01*
X0052957Y0147793D01*
X0052984Y0147822D01*
X0053013Y0147848D01*
X0053045Y0147871D01*
X0053079Y0147891D01*
X0053115Y0147907D01*
X0053152Y0147919D01*
X0053191Y0147928D01*
X0053230Y0147933D01*
X0053269Y0147934D01*
X0053308Y0147931D01*
X0053347Y0147924D01*
X0053384Y0147913D01*
X0053421Y0147899D01*
X0053456Y0147881D01*
X0053489Y0147860D01*
X0053520Y0147835D01*
X0053548Y0147808D01*
X0053573Y0147778D01*
X0053595Y0147745D01*
X0053614Y0147711D01*
X0053629Y0147675D01*
X0053641Y0147637D01*
X0053649Y0147599D01*
X0053653Y0147560D01*
X0053653Y0147520D01*
X0053649Y0147481D01*
X0053641Y0147443D01*
X0053629Y0147405D01*
X0053614Y0147369D01*
X0053595Y0147335D01*
X0053573Y0147302D01*
X0053548Y0147272D01*
X0053520Y0147245D01*
X0053489Y0147220D01*
X0053456Y0147199D01*
X0053421Y0147181D01*
X0053384Y0147167D01*
X0053347Y0147156D01*
X0053308Y0147149D01*
X0053269Y0147146D01*
X0053230Y0147147D01*
X0053191Y0147152D01*
X0053152Y0147161D01*
X0053115Y0147173D01*
X0053079Y0147189D01*
X0053045Y0147209D01*
X0053013Y0147232D01*
X0052984Y0147258D01*
X0052957Y0147287D01*
X0052933Y0147318D01*
X0052913Y0147352D01*
X0052896Y0147387D01*
X0052883Y0147424D01*
X0052873Y0147462D01*
X0052867Y0147501D01*
X0052865Y0147540D01*
X0065968Y0135124D02*
X0064393Y0133549D01*
X0064393Y0129219D01*
X0065968Y0135124D02*
X0072267Y0135124D01*
X0073842Y0133549D01*
X0073842Y0129219D01*
X0073842Y0121345D02*
X0073842Y0115439D01*
X0064393Y0115439D01*
X0064393Y0121345D01*
X0067038Y0141635D02*
X0067038Y0144785D01*
X0067038Y0150296D02*
X0067038Y0153446D01*
X0067611Y0101480D02*
X0069186Y0099905D01*
X0069186Y0065259D01*
X0067611Y0063684D01*
X0032966Y0063684D01*
X0031391Y0065259D01*
X0031391Y0099905D01*
X0032966Y0101480D01*
X0067611Y0101480D01*
D16*
X0063380Y0115332D02*
X0062379Y0115332D01*
X0062129Y0115582D01*
X0062129Y0116082D01*
X0062379Y0116332D01*
X0062379Y0116805D02*
X0062129Y0117055D01*
X0062129Y0117555D01*
X0062379Y0117806D01*
X0062629Y0117806D01*
X0062880Y0117555D01*
X0063130Y0117806D01*
X0063380Y0117806D01*
X0063630Y0117555D01*
X0063630Y0117055D01*
X0063380Y0116805D01*
X0063380Y0116332D02*
X0063630Y0116082D01*
X0063630Y0115582D01*
X0063380Y0115332D01*
X0062880Y0117305D02*
X0062880Y0117555D01*
X0063050Y0137490D02*
X0062549Y0137490D01*
X0062299Y0137741D01*
X0062299Y0138992D01*
X0063300Y0138992D02*
X0063300Y0137741D01*
X0063050Y0137490D01*
X0063772Y0137490D02*
X0064773Y0138491D01*
X0064773Y0138742D01*
X0064523Y0138992D01*
X0064023Y0138992D01*
X0063772Y0138742D01*
X0063772Y0137490D02*
X0064773Y0137490D01*
D17*
X0055675Y0133149D02*
X0052446Y0133149D01*
X0052446Y0128149D02*
X0055675Y0128149D01*
X0042710Y0126459D02*
X0042710Y0123230D01*
X0037710Y0123230D02*
X0037710Y0126459D01*
X0032939Y0129479D02*
X0035439Y0131979D01*
X0035439Y0136979D01*
X0032939Y0139479D01*
X0035439Y0141979D01*
X0035439Y0146979D01*
X0032939Y0149479D01*
X0027939Y0149479D01*
X0025439Y0146979D01*
X0025439Y0141979D01*
X0027939Y0139479D01*
X0032939Y0139479D01*
X0027939Y0139479D02*
X0025439Y0136979D01*
X0025439Y0131979D01*
X0027939Y0129479D01*
X0032939Y0129479D01*
X0048400Y0054787D02*
X0050536Y0054787D01*
X0049468Y0054787D02*
X0049468Y0048382D01*
X0048400Y0048382D02*
X0050536Y0048382D01*
X0052697Y0049450D02*
X0052697Y0053720D01*
X0053765Y0054787D01*
X0055900Y0054787D01*
X0056968Y0053720D01*
X0056968Y0049450D02*
X0055900Y0048382D01*
X0053765Y0048382D01*
X0052697Y0049450D01*
X0059143Y0048382D02*
X0063413Y0048382D01*
X0061278Y0048382D02*
X0061278Y0054787D01*
X0059143Y0052652D01*
X0081850Y0095406D02*
X0079350Y0097906D01*
X0079350Y0102906D01*
X0081850Y0105406D01*
X0096850Y0105406D01*
X0099350Y0102906D01*
X0099350Y0097906D01*
X0096850Y0095406D01*
X0081850Y0095406D01*
X0081850Y0105406D02*
X0079350Y0107906D01*
X0079350Y0112906D01*
X0081850Y0115406D01*
X0096850Y0115406D01*
X0099350Y0112906D01*
X0099350Y0107906D01*
X0096850Y0105406D01*
X0096850Y0115406D02*
X0099350Y0117906D01*
X0099350Y0122906D01*
X0096850Y0125406D01*
X0081850Y0125406D01*
X0079350Y0122906D01*
X0079350Y0117906D01*
X0081850Y0115406D01*
X0083465Y0137088D02*
X0083465Y0162288D01*
X0098465Y0162288D01*
X0098465Y0137088D01*
X0083465Y0137088D01*
X0087965Y0141688D02*
X0087965Y0157688D01*
X0093965Y0157688D01*
X0093965Y0141688D01*
X0087965Y0141688D01*
X0077976Y0147387D02*
X0077976Y0150615D01*
X0072976Y0150615D02*
X0072976Y0147387D01*
D18*
X0072041Y0098330D03*
X0072041Y0082582D03*
X0072041Y0066834D03*
X0028536Y0066834D03*
X0028536Y0082582D03*
X0028536Y0098330D03*
D19*
X0028536Y0095180D03*
X0028536Y0092030D03*
X0028536Y0073134D03*
X0028536Y0069984D03*
X0072041Y0069984D03*
X0072041Y0073134D03*
X0072041Y0092030D03*
X0072041Y0095180D03*
D20*
X0072041Y0088881D03*
X0072041Y0085731D03*
X0072041Y0079433D03*
X0072041Y0076283D03*
X0028536Y0076283D03*
X0028536Y0079433D03*
X0028536Y0085731D03*
X0028536Y0088881D03*
D21*
X0034540Y0104334D03*
X0050288Y0104334D03*
X0066036Y0104334D03*
X0066036Y0060830D03*
X0050288Y0060830D03*
X0034540Y0060830D03*
D22*
X0037690Y0060830D03*
X0040840Y0060830D03*
X0040840Y0104334D03*
X0037690Y0104334D03*
X0059737Y0104334D03*
X0062887Y0104334D03*
X0062887Y0060830D03*
X0059737Y0060830D03*
D23*
X0056588Y0060830D03*
X0053438Y0060830D03*
X0047139Y0060830D03*
X0043989Y0060830D03*
X0043989Y0104334D03*
X0047139Y0104334D03*
X0053438Y0104334D03*
X0056588Y0104334D03*
D24*
X0047353Y0141635D02*
X0047353Y0153446D01*
X0067038Y0153446D01*
X0067038Y0141635D01*
X0047353Y0141635D01*
X0022989Y0141640D02*
X0022989Y0138637D01*
X0022989Y0140138D02*
X0018485Y0140138D01*
X0019987Y0138637D01*
X0020737Y0137036D02*
X0021488Y0136285D01*
X0021488Y0134033D01*
X0022989Y0134033D02*
X0018485Y0134033D01*
X0018485Y0136285D01*
X0019236Y0137036D01*
X0020737Y0137036D01*
X0018485Y0132432D02*
X0018485Y0130931D01*
X0018485Y0131681D02*
X0022239Y0131681D01*
X0022989Y0130931D01*
X0022989Y0130180D01*
X0022239Y0129429D01*
X0023559Y0038219D02*
X0023559Y0013219D01*
X0098559Y0013219D01*
X0098559Y0018219D01*
X0098419Y0018221D01*
X0098279Y0018227D01*
X0098139Y0018237D01*
X0097999Y0018250D01*
X0097860Y0018268D01*
X0097721Y0018290D01*
X0097584Y0018315D01*
X0097446Y0018344D01*
X0097310Y0018377D01*
X0097175Y0018414D01*
X0097041Y0018455D01*
X0096908Y0018500D01*
X0096776Y0018548D01*
X0096646Y0018600D01*
X0096517Y0018655D01*
X0096390Y0018714D01*
X0096264Y0018777D01*
X0096140Y0018843D01*
X0096019Y0018912D01*
X0095899Y0018985D01*
X0095781Y0019062D01*
X0095666Y0019141D01*
X0095552Y0019224D01*
X0095442Y0019310D01*
X0095333Y0019399D01*
X0095227Y0019491D01*
X0095124Y0019586D01*
X0095023Y0019683D01*
X0094926Y0019784D01*
X0094831Y0019887D01*
X0094739Y0019993D01*
X0094650Y0020102D01*
X0094564Y0020212D01*
X0094481Y0020326D01*
X0094402Y0020441D01*
X0094325Y0020559D01*
X0094252Y0020679D01*
X0094183Y0020800D01*
X0094117Y0020924D01*
X0094054Y0021050D01*
X0093995Y0021177D01*
X0093940Y0021306D01*
X0093888Y0021436D01*
X0093840Y0021568D01*
X0093795Y0021701D01*
X0093754Y0021835D01*
X0093717Y0021970D01*
X0093684Y0022106D01*
X0093655Y0022244D01*
X0093630Y0022381D01*
X0093608Y0022520D01*
X0093590Y0022659D01*
X0093577Y0022799D01*
X0093567Y0022939D01*
X0093561Y0023079D01*
X0093559Y0023219D01*
X0093559Y0028219D01*
X0093561Y0028359D01*
X0093567Y0028499D01*
X0093577Y0028639D01*
X0093590Y0028779D01*
X0093608Y0028918D01*
X0093630Y0029057D01*
X0093655Y0029194D01*
X0093684Y0029332D01*
X0093717Y0029468D01*
X0093754Y0029603D01*
X0093795Y0029737D01*
X0093840Y0029870D01*
X0093888Y0030002D01*
X0093940Y0030132D01*
X0093995Y0030261D01*
X0094054Y0030388D01*
X0094117Y0030514D01*
X0094183Y0030638D01*
X0094252Y0030759D01*
X0094325Y0030879D01*
X0094402Y0030997D01*
X0094481Y0031112D01*
X0094564Y0031226D01*
X0094650Y0031336D01*
X0094739Y0031445D01*
X0094831Y0031551D01*
X0094926Y0031654D01*
X0095023Y0031755D01*
X0095124Y0031852D01*
X0095227Y0031947D01*
X0095333Y0032039D01*
X0095442Y0032128D01*
X0095552Y0032214D01*
X0095666Y0032297D01*
X0095781Y0032376D01*
X0095899Y0032453D01*
X0096019Y0032526D01*
X0096140Y0032595D01*
X0096264Y0032661D01*
X0096390Y0032724D01*
X0096517Y0032783D01*
X0096646Y0032838D01*
X0096776Y0032890D01*
X0096908Y0032938D01*
X0097041Y0032983D01*
X0097175Y0033024D01*
X0097310Y0033061D01*
X0097446Y0033094D01*
X0097584Y0033123D01*
X0097721Y0033148D01*
X0097860Y0033170D01*
X0097999Y0033188D01*
X0098139Y0033201D01*
X0098279Y0033211D01*
X0098419Y0033217D01*
X0098559Y0033219D01*
X0098559Y0038219D01*
X0023559Y0038219D01*
X0077962Y0137438D02*
X0077211Y0138189D01*
X0077211Y0139690D01*
X0077962Y0140441D01*
X0079463Y0139690D02*
X0079463Y0138189D01*
X0078713Y0137438D01*
X0077962Y0137438D01*
X0079463Y0139690D02*
X0080214Y0140441D01*
X0080965Y0140441D01*
X0081715Y0139690D01*
X0081715Y0138189D01*
X0080965Y0137438D01*
X0081715Y0142042D02*
X0081715Y0145044D01*
X0081715Y0143543D02*
X0077211Y0143543D01*
X0078713Y0142042D01*
X0102096Y0123304D02*
X0104348Y0121052D01*
X0104348Y0124055D01*
X0106600Y0123304D02*
X0102096Y0123304D01*
X0102096Y0118700D02*
X0104348Y0116448D01*
X0104348Y0119451D01*
X0106600Y0118700D02*
X0102096Y0118700D01*
X0102096Y0114847D02*
X0102846Y0113345D01*
X0104348Y0111844D01*
X0104348Y0114096D01*
X0105098Y0114847D01*
X0105849Y0114847D01*
X0106600Y0114096D01*
X0106600Y0112595D01*
X0105849Y0111844D01*
X0104348Y0111844D01*
X0104348Y0110243D02*
X0102846Y0110243D01*
X0102096Y0109492D01*
X0102096Y0107240D01*
X0106600Y0107240D01*
X0105098Y0107240D02*
X0105098Y0109492D01*
X0104348Y0110243D01*
X0105098Y0105639D02*
X0104348Y0104888D01*
X0104348Y0103387D01*
X0103597Y0102636D01*
X0102846Y0102636D01*
X0102096Y0103387D01*
X0102096Y0104888D01*
X0102846Y0105639D01*
X0102846Y0101035D02*
X0102096Y0100284D01*
X0102096Y0098783D01*
X0102846Y0098032D01*
X0105849Y0098032D01*
X0106600Y0098783D01*
X0106600Y0100284D01*
X0105849Y0101035D01*
X0105849Y0102636D02*
X0106600Y0103387D01*
X0106600Y0104888D01*
X0105849Y0105639D01*
X0105098Y0105639D01*
X0106600Y0096464D02*
X0106600Y0094963D01*
X0106600Y0095714D02*
X0102096Y0095714D01*
X0102096Y0096464D02*
X0102096Y0094963D01*
D25*
X0094350Y0100406D03*
X0094350Y0110406D03*
X0094350Y0120406D03*
X0084350Y0120406D03*
X0084350Y0110406D03*
X0084350Y0100406D03*
X0030439Y0134479D03*
X0030439Y0144479D03*
D26*
X0051140Y0130655D03*
X0056940Y0130655D03*
D27*
X0040216Y0127765D03*
X0040216Y0121965D03*
X0075482Y0146122D03*
X0075482Y0151922D03*
D28*
X0090615Y0147307D02*
X0091850Y0148541D01*
X0091850Y0144838D01*
X0093084Y0144838D02*
X0090615Y0144838D01*
D29*
X0090965Y0154688D03*
D30*
X0090915Y0164088D03*
X0091015Y0135288D03*
D31*
X0090965Y0131388D03*
X0090965Y0167988D03*
M02*
