G75*
%MOIN*%
%OFA0B0*%
%FSLAX25Y25*%
%IPPOS*%
%LPD*%
%AMOC8*
5,1,8,0,0,1.08239X$1,22.5*
%
%ADD10R,0.23622X0.13780*%
%ADD11OC8,0.06000*%
%ADD12C,0.04756*%
%ADD13C,0.06000*%
%ADD14C,0.07400*%
%ADD15C,0.01400*%
%ADD16C,0.02800*%
%ADD17C,0.03100*%
D10*
X0053012Y0016800D03*
D11*
X0100406Y0015167D03*
X0110406Y0015167D03*
X0120406Y0015167D03*
X0120406Y0025167D03*
X0110406Y0025167D03*
X0100406Y0025167D03*
D12*
X0028471Y0020957D02*
X0023715Y0020957D01*
X0023715Y0025957D02*
X0028471Y0025957D01*
X0028471Y0030957D02*
X0023715Y0030957D01*
X0023715Y0035957D02*
X0028471Y0035957D01*
X0028471Y0040957D02*
X0023715Y0040957D01*
X0023715Y0045957D02*
X0028471Y0045957D01*
X0028471Y0050957D02*
X0023715Y0050957D01*
X0023715Y0055957D02*
X0028471Y0055957D01*
X0028471Y0060957D02*
X0023715Y0060957D01*
X0023715Y0065957D02*
X0028471Y0065957D01*
X0028471Y0070957D02*
X0023715Y0070957D01*
X0023715Y0075957D02*
X0028471Y0075957D01*
X0028471Y0080957D02*
X0023715Y0080957D01*
D13*
X0157579Y0078877D02*
X0157579Y0084877D01*
X0167579Y0084877D02*
X0167579Y0078877D01*
D14*
X0167076Y0069711D03*
X0167076Y0059711D03*
X0167076Y0049711D03*
D15*
X0166976Y0049811D02*
X0166976Y0049611D01*
X0161676Y0049611D01*
X0161676Y0049286D01*
X0161809Y0048446D01*
X0162072Y0047638D01*
X0162458Y0046881D01*
X0162957Y0046193D01*
X0163558Y0045592D01*
X0164246Y0045092D01*
X0165003Y0044706D01*
X0165811Y0044444D01*
X0166651Y0044311D01*
X0166976Y0044311D01*
X0166976Y0049611D01*
X0167176Y0049611D01*
X0167176Y0044311D01*
X0167501Y0044311D01*
X0168341Y0044444D01*
X0169149Y0044706D01*
X0169660Y0044967D01*
X0169660Y0012653D01*
X0123974Y0012653D01*
X0124706Y0013386D01*
X0124706Y0016948D01*
X0122187Y0019467D01*
X0118625Y0019467D01*
X0116106Y0016948D01*
X0116106Y0013386D01*
X0116838Y0012653D01*
X0113974Y0012653D01*
X0114706Y0013386D01*
X0114706Y0016948D01*
X0112187Y0019467D01*
X0108934Y0019467D01*
X0107119Y0021282D01*
X0105948Y0022453D01*
X0103774Y0022453D01*
X0104706Y0023386D01*
X0104706Y0026948D01*
X0103432Y0028222D01*
X0104522Y0028222D01*
X0106106Y0026638D01*
X0106106Y0023386D01*
X0108625Y0020867D01*
X0112187Y0020867D01*
X0114706Y0023386D01*
X0114706Y0026948D01*
X0112187Y0029467D01*
X0108934Y0029467D01*
X0107351Y0031050D01*
X0106179Y0032222D01*
X0077011Y0032222D01*
X0076594Y0032638D01*
X0075547Y0033072D01*
X0074413Y0033072D01*
X0073366Y0032638D01*
X0072950Y0032222D01*
X0063208Y0032222D01*
X0057473Y0037957D01*
X0031623Y0037957D01*
X0031589Y0038041D01*
X0031455Y0038174D01*
X0031581Y0038301D01*
X0031958Y0038820D01*
X0032250Y0039392D01*
X0032448Y0040002D01*
X0032549Y0040636D01*
X0032549Y0040957D01*
X0026093Y0040957D01*
X0026093Y0040957D01*
X0032549Y0040957D01*
X0032549Y0041278D01*
X0032448Y0041912D01*
X0032250Y0042523D01*
X0031958Y0043095D01*
X0031581Y0043614D01*
X0031455Y0043740D01*
X0031589Y0043874D01*
X0032149Y0045226D01*
X0032149Y0046689D01*
X0031589Y0048041D01*
X0031172Y0048457D01*
X0031589Y0048874D01*
X0032149Y0050226D01*
X0032149Y0051689D01*
X0031589Y0053041D01*
X0031172Y0053457D01*
X0031589Y0053874D01*
X0032149Y0055226D01*
X0032149Y0056689D01*
X0031589Y0058041D01*
X0031172Y0058457D01*
X0031589Y0058874D01*
X0032149Y0060226D01*
X0032149Y0061689D01*
X0031589Y0063041D01*
X0031172Y0063457D01*
X0031589Y0063874D01*
X0032149Y0065226D01*
X0032149Y0066689D01*
X0031589Y0068041D01*
X0031172Y0068457D01*
X0031589Y0068874D01*
X0032149Y0070226D01*
X0032149Y0071689D01*
X0031589Y0073041D01*
X0031172Y0073457D01*
X0031589Y0073874D01*
X0032149Y0075226D01*
X0032149Y0076689D01*
X0031769Y0077604D01*
X0033080Y0076293D01*
X0034252Y0075122D01*
X0038452Y0075122D01*
X0063730Y0049843D01*
X0063730Y0049255D01*
X0064164Y0048207D01*
X0064966Y0047406D01*
X0066013Y0046972D01*
X0067147Y0046972D01*
X0067930Y0047296D01*
X0067930Y0047000D01*
X0062356Y0041426D01*
X0062247Y0041472D01*
X0061113Y0041472D01*
X0060066Y0041038D01*
X0059264Y0040236D01*
X0058830Y0039189D01*
X0058830Y0038055D01*
X0059264Y0037007D01*
X0060066Y0036206D01*
X0061113Y0035772D01*
X0062247Y0035772D01*
X0063294Y0036206D01*
X0064096Y0037007D01*
X0064451Y0037864D01*
X0070758Y0044172D01*
X0071347Y0044172D01*
X0072334Y0044581D01*
X0072130Y0044089D01*
X0072130Y0042955D01*
X0072564Y0041907D01*
X0073366Y0041106D01*
X0074413Y0040672D01*
X0075547Y0040672D01*
X0076594Y0041106D01*
X0077011Y0041522D01*
X0098852Y0041522D01*
X0104430Y0035943D01*
X0104430Y0035355D01*
X0104864Y0034307D01*
X0105666Y0033506D01*
X0106713Y0033072D01*
X0107847Y0033072D01*
X0108894Y0033506D01*
X0109696Y0034307D01*
X0110130Y0035355D01*
X0110130Y0036489D01*
X0109696Y0037536D01*
X0108894Y0038338D01*
X0107847Y0038772D01*
X0107258Y0038772D01*
X0100977Y0045053D01*
X0112252Y0045053D01*
X0118406Y0038899D01*
X0118406Y0029248D01*
X0116106Y0026948D01*
X0116106Y0023386D01*
X0118625Y0020867D01*
X0122187Y0020867D01*
X0124706Y0023386D01*
X0124706Y0026948D01*
X0122406Y0029248D01*
X0122406Y0040556D01*
X0115080Y0047882D01*
X0113908Y0049053D01*
X0093783Y0049053D01*
X0093752Y0049022D01*
X0072811Y0049022D01*
X0072394Y0049438D01*
X0071347Y0049872D01*
X0070213Y0049872D01*
X0069430Y0049547D01*
X0069430Y0050389D01*
X0068996Y0051436D01*
X0068194Y0052238D01*
X0067147Y0052672D01*
X0066558Y0052672D01*
X0040108Y0079122D01*
X0035908Y0079122D01*
X0032073Y0082957D01*
X0031623Y0082957D01*
X0031589Y0083041D01*
X0030554Y0084075D01*
X0029202Y0084635D01*
X0022983Y0084635D01*
X0021631Y0084075D01*
X0021580Y0084024D01*
X0021580Y0085930D01*
X0110689Y0085930D01*
X0110466Y0085838D01*
X0109664Y0085036D01*
X0109230Y0083989D01*
X0109230Y0082855D01*
X0109664Y0081807D01*
X0110466Y0081006D01*
X0111323Y0080651D01*
X0118952Y0073022D01*
X0150937Y0073022D01*
X0162421Y0061538D01*
X0162076Y0060705D01*
X0162076Y0058716D01*
X0162837Y0056878D01*
X0164244Y0055472D01*
X0165602Y0054910D01*
X0165003Y0054715D01*
X0164246Y0054329D01*
X0163558Y0053830D01*
X0162957Y0053229D01*
X0162458Y0052541D01*
X0162072Y0051784D01*
X0161809Y0050975D01*
X0161676Y0050136D01*
X0161676Y0049811D01*
X0166976Y0049811D01*
X0166976Y0048510D02*
X0167176Y0048510D01*
X0167176Y0047112D02*
X0166976Y0047112D01*
X0166976Y0045713D02*
X0167176Y0045713D01*
X0167176Y0044315D02*
X0166976Y0044315D01*
X0166627Y0044315D02*
X0118647Y0044315D01*
X0117249Y0045713D02*
X0163437Y0045713D01*
X0162340Y0047112D02*
X0115850Y0047112D01*
X0114452Y0048510D02*
X0161799Y0048510D01*
X0161676Y0049909D02*
X0069430Y0049909D01*
X0069050Y0051307D02*
X0161917Y0051307D01*
X0162577Y0052706D02*
X0066525Y0052706D01*
X0065126Y0054104D02*
X0163936Y0054104D01*
X0164213Y0055503D02*
X0063728Y0055503D01*
X0062329Y0056901D02*
X0162828Y0056901D01*
X0162249Y0058300D02*
X0060931Y0058300D01*
X0059532Y0059698D02*
X0162076Y0059698D01*
X0162238Y0061097D02*
X0125985Y0061097D01*
X0125594Y0060706D02*
X0126396Y0061507D01*
X0126830Y0062555D01*
X0126830Y0063689D01*
X0126396Y0064736D01*
X0125594Y0065538D01*
X0124547Y0065972D01*
X0123413Y0065972D01*
X0122366Y0065538D01*
X0121950Y0065122D01*
X0114111Y0065122D01*
X0113694Y0065538D01*
X0112647Y0065972D01*
X0111513Y0065972D01*
X0110466Y0065538D01*
X0109664Y0064736D01*
X0109230Y0063689D01*
X0109230Y0062555D01*
X0109664Y0061507D01*
X0110466Y0060706D01*
X0111513Y0060272D01*
X0112647Y0060272D01*
X0113694Y0060706D01*
X0114111Y0061122D01*
X0121950Y0061122D01*
X0122366Y0060706D01*
X0123413Y0060272D01*
X0124547Y0060272D01*
X0125594Y0060706D01*
X0126805Y0062495D02*
X0161463Y0062495D01*
X0160065Y0063894D02*
X0126745Y0063894D01*
X0125840Y0065292D02*
X0158666Y0065292D01*
X0157268Y0066691D02*
X0052539Y0066691D01*
X0053938Y0065292D02*
X0110220Y0065292D01*
X0109315Y0063894D02*
X0055336Y0063894D01*
X0056735Y0062495D02*
X0109255Y0062495D01*
X0110075Y0061097D02*
X0058134Y0061097D01*
X0055274Y0058300D02*
X0031330Y0058300D01*
X0031930Y0059698D02*
X0053875Y0059698D01*
X0052477Y0061097D02*
X0032149Y0061097D01*
X0031814Y0062495D02*
X0051078Y0062495D01*
X0049680Y0063894D02*
X0031597Y0063894D01*
X0032149Y0065292D02*
X0048281Y0065292D01*
X0046883Y0066691D02*
X0032148Y0066691D01*
X0031540Y0068089D02*
X0045484Y0068089D01*
X0044086Y0069488D02*
X0031843Y0069488D01*
X0032149Y0070886D02*
X0042687Y0070886D01*
X0041289Y0072285D02*
X0031902Y0072285D01*
X0031398Y0073683D02*
X0039890Y0073683D01*
X0038492Y0075082D02*
X0032089Y0075082D01*
X0032149Y0076480D02*
X0032893Y0076480D01*
X0035080Y0077122D02*
X0039280Y0077122D01*
X0066580Y0049822D01*
X0064039Y0048510D02*
X0031225Y0048510D01*
X0031973Y0047112D02*
X0065676Y0047112D01*
X0066643Y0045713D02*
X0032149Y0045713D01*
X0031771Y0044315D02*
X0065244Y0044315D01*
X0063846Y0042916D02*
X0032049Y0042916D01*
X0032511Y0041518D02*
X0062447Y0041518D01*
X0062380Y0038622D02*
X0061680Y0038622D01*
X0062380Y0038622D02*
X0070780Y0047022D01*
X0094580Y0047022D01*
X0094612Y0047053D01*
X0113080Y0047053D01*
X0120406Y0039727D01*
X0120406Y0025167D01*
X0123259Y0021938D02*
X0169660Y0021938D01*
X0169660Y0023337D02*
X0124657Y0023337D01*
X0124706Y0024735D02*
X0169660Y0024735D01*
X0169660Y0026134D02*
X0124706Y0026134D01*
X0124121Y0027532D02*
X0169660Y0027532D01*
X0169660Y0028931D02*
X0122723Y0028931D01*
X0122406Y0030329D02*
X0169660Y0030329D01*
X0169660Y0031728D02*
X0122406Y0031728D01*
X0122406Y0033126D02*
X0169660Y0033126D01*
X0169660Y0034525D02*
X0122406Y0034525D01*
X0122406Y0035923D02*
X0169660Y0035923D01*
X0169660Y0037322D02*
X0122406Y0037322D01*
X0122406Y0038721D02*
X0169660Y0038721D01*
X0169660Y0040119D02*
X0122406Y0040119D01*
X0121444Y0041518D02*
X0169660Y0041518D01*
X0169660Y0042916D02*
X0120046Y0042916D01*
X0115787Y0041518D02*
X0104513Y0041518D01*
X0105911Y0040119D02*
X0117186Y0040119D01*
X0118406Y0038721D02*
X0107971Y0038721D01*
X0109785Y0037322D02*
X0118406Y0037322D01*
X0118406Y0035923D02*
X0110130Y0035923D01*
X0109786Y0034525D02*
X0118406Y0034525D01*
X0118406Y0033126D02*
X0107979Y0033126D01*
X0106581Y0033126D02*
X0062304Y0033126D01*
X0060905Y0034525D02*
X0104774Y0034525D01*
X0104430Y0035923D02*
X0062613Y0035923D01*
X0060747Y0035923D02*
X0059507Y0035923D01*
X0059134Y0037322D02*
X0058108Y0037322D01*
X0058830Y0038721D02*
X0031886Y0038721D01*
X0032467Y0040119D02*
X0059215Y0040119D01*
X0064226Y0037322D02*
X0103051Y0037322D01*
X0101653Y0038721D02*
X0065307Y0038721D01*
X0066706Y0040119D02*
X0100254Y0040119D01*
X0098856Y0041518D02*
X0077006Y0041518D01*
X0074980Y0043522D02*
X0099680Y0043522D01*
X0107280Y0035922D01*
X0106673Y0031728D02*
X0118406Y0031728D01*
X0118406Y0030329D02*
X0108072Y0030329D01*
X0107351Y0031050D02*
X0107351Y0031050D01*
X0105351Y0030222D02*
X0074980Y0030222D01*
X0062380Y0030222D01*
X0056645Y0035957D01*
X0026093Y0035957D01*
X0026093Y0030957D02*
X0052545Y0030957D01*
X0052580Y0030922D01*
X0066556Y0025957D02*
X0071304Y0021209D01*
X0093924Y0021209D01*
X0094680Y0020453D01*
X0105119Y0020453D01*
X0110406Y0015167D01*
X0114706Y0014946D02*
X0116106Y0014946D01*
X0116106Y0016344D02*
X0114706Y0016344D01*
X0113911Y0017743D02*
X0116901Y0017743D01*
X0118300Y0019141D02*
X0112512Y0019141D01*
X0113259Y0021938D02*
X0117553Y0021938D01*
X0116155Y0023337D02*
X0114657Y0023337D01*
X0114706Y0024735D02*
X0116106Y0024735D01*
X0116106Y0026134D02*
X0114706Y0026134D01*
X0114121Y0027532D02*
X0116691Y0027532D01*
X0118089Y0028931D02*
X0112723Y0028931D01*
X0110406Y0025167D02*
X0105351Y0030222D01*
X0105212Y0027532D02*
X0104121Y0027532D01*
X0104706Y0026134D02*
X0106106Y0026134D01*
X0106106Y0024735D02*
X0104706Y0024735D01*
X0104657Y0023337D02*
X0106155Y0023337D01*
X0106463Y0021938D02*
X0107553Y0021938D01*
X0107119Y0021282D02*
X0107119Y0021282D01*
X0107861Y0020540D02*
X0169660Y0020540D01*
X0169660Y0019141D02*
X0122512Y0019141D01*
X0123911Y0017743D02*
X0169660Y0017743D01*
X0169660Y0016344D02*
X0124706Y0016344D01*
X0124706Y0014946D02*
X0169660Y0014946D01*
X0169660Y0013547D02*
X0124706Y0013547D01*
X0116106Y0013547D02*
X0114706Y0013547D01*
X0106838Y0012653D02*
X0104539Y0012653D01*
X0105106Y0013220D01*
X0105106Y0014867D01*
X0100706Y0014867D01*
X0100706Y0015467D01*
X0105106Y0015467D01*
X0105106Y0017113D01*
X0103766Y0018453D01*
X0104291Y0018453D01*
X0106106Y0016638D01*
X0106106Y0013386D01*
X0106838Y0012653D01*
X0106106Y0013547D02*
X0105106Y0013547D01*
X0106106Y0014946D02*
X0100706Y0014946D01*
X0100106Y0014946D02*
X0066123Y0014946D01*
X0066123Y0016344D02*
X0095706Y0016344D01*
X0095706Y0017113D02*
X0095706Y0015467D01*
X0100106Y0015467D01*
X0100106Y0014867D01*
X0095706Y0014867D01*
X0095706Y0013220D01*
X0096273Y0012653D01*
X0066123Y0012653D01*
X0066123Y0023563D01*
X0068454Y0021231D01*
X0068454Y0020642D01*
X0068888Y0019595D01*
X0069690Y0018793D01*
X0070738Y0018359D01*
X0071871Y0018359D01*
X0072919Y0018793D01*
X0073335Y0019209D01*
X0093096Y0019209D01*
X0093852Y0018453D01*
X0097046Y0018453D01*
X0095706Y0017113D01*
X0096335Y0017743D02*
X0066123Y0017743D01*
X0066123Y0019141D02*
X0069342Y0019141D01*
X0068497Y0020540D02*
X0066123Y0020540D01*
X0066123Y0021938D02*
X0067747Y0021938D01*
X0066348Y0023337D02*
X0066123Y0023337D01*
X0066556Y0025957D02*
X0026093Y0025957D01*
X0032017Y0049909D02*
X0063665Y0049909D01*
X0062266Y0051307D02*
X0032149Y0051307D01*
X0031727Y0052706D02*
X0060868Y0052706D01*
X0059469Y0054104D02*
X0031684Y0054104D01*
X0032149Y0055503D02*
X0058071Y0055503D01*
X0056672Y0056901D02*
X0032061Y0056901D01*
X0051141Y0068089D02*
X0155869Y0068089D01*
X0154471Y0069488D02*
X0049742Y0069488D01*
X0048344Y0070886D02*
X0095137Y0070886D01*
X0095413Y0070772D02*
X0096547Y0070772D01*
X0097594Y0071206D01*
X0098011Y0071622D01*
X0098208Y0071622D01*
X0102958Y0076372D01*
X0103547Y0076372D01*
X0104594Y0076806D01*
X0105396Y0077607D01*
X0105830Y0078655D01*
X0105830Y0079789D01*
X0105396Y0080836D01*
X0104594Y0081638D01*
X0103547Y0082072D01*
X0102413Y0082072D01*
X0101366Y0081638D01*
X0100564Y0080836D01*
X0100130Y0079789D01*
X0100130Y0079200D01*
X0097151Y0076221D01*
X0096547Y0076472D01*
X0095413Y0076472D01*
X0094366Y0076038D01*
X0093564Y0075236D01*
X0093130Y0074189D01*
X0093130Y0073055D01*
X0093564Y0072007D01*
X0094366Y0071206D01*
X0095413Y0070772D01*
X0096823Y0070886D02*
X0153072Y0070886D01*
X0151674Y0072285D02*
X0098871Y0072285D01*
X0100270Y0073683D02*
X0118290Y0073683D01*
X0116892Y0075082D02*
X0101668Y0075082D01*
X0103809Y0076480D02*
X0115493Y0076480D01*
X0114095Y0077879D02*
X0105509Y0077879D01*
X0105830Y0079277D02*
X0112696Y0079277D01*
X0111262Y0080676D02*
X0105463Y0080676D01*
X0102980Y0079222D02*
X0097380Y0073622D01*
X0095980Y0073622D01*
X0093130Y0073683D02*
X0071210Y0073683D01*
X0071096Y0073407D02*
X0071530Y0074455D01*
X0071530Y0075589D01*
X0071096Y0076636D01*
X0070294Y0077438D01*
X0069247Y0077872D01*
X0068113Y0077872D01*
X0067509Y0077621D01*
X0063830Y0081300D01*
X0063830Y0081889D01*
X0063396Y0082936D01*
X0062594Y0083738D01*
X0061547Y0084172D01*
X0060413Y0084172D01*
X0059366Y0083738D01*
X0058564Y0082936D01*
X0058130Y0081889D01*
X0058130Y0080755D01*
X0058564Y0079707D01*
X0059366Y0078906D01*
X0060413Y0078472D01*
X0061002Y0078472D01*
X0065280Y0074193D01*
X0066452Y0073022D01*
X0066650Y0073022D01*
X0067066Y0072606D01*
X0068113Y0072172D01*
X0069247Y0072172D01*
X0070294Y0072606D01*
X0071096Y0073407D01*
X0071530Y0075082D02*
X0093500Y0075082D01*
X0093449Y0072285D02*
X0069520Y0072285D01*
X0067840Y0072285D02*
X0046945Y0072285D01*
X0045547Y0073683D02*
X0065790Y0073683D01*
X0064392Y0075082D02*
X0044148Y0075082D01*
X0042750Y0076480D02*
X0062993Y0076480D01*
X0061595Y0077879D02*
X0041351Y0077879D01*
X0035753Y0079277D02*
X0058994Y0079277D01*
X0058163Y0080676D02*
X0034354Y0080676D01*
X0032956Y0082074D02*
X0058207Y0082074D01*
X0059101Y0083473D02*
X0031156Y0083473D01*
X0031245Y0080957D02*
X0026093Y0080957D01*
X0031245Y0080957D02*
X0035080Y0077122D01*
X0021580Y0084871D02*
X0109596Y0084871D01*
X0109230Y0083473D02*
X0062859Y0083473D01*
X0063753Y0082074D02*
X0109553Y0082074D01*
X0112080Y0082722D02*
X0112080Y0083422D01*
X0112080Y0082722D02*
X0119780Y0075022D01*
X0151765Y0075022D01*
X0167076Y0059711D01*
X0165249Y0064366D02*
X0153765Y0075850D01*
X0152593Y0077022D01*
X0120608Y0077022D01*
X0114885Y0082745D01*
X0114930Y0082855D01*
X0114930Y0083989D01*
X0114496Y0085036D01*
X0113694Y0085838D01*
X0113471Y0085930D01*
X0153361Y0085930D01*
X0153279Y0085732D01*
X0153279Y0078022D01*
X0153934Y0076441D01*
X0155143Y0075232D01*
X0156724Y0074577D01*
X0158435Y0074577D01*
X0160015Y0075232D01*
X0161225Y0076441D01*
X0161879Y0078022D01*
X0161879Y0085732D01*
X0161797Y0085930D01*
X0162988Y0085930D01*
X0162879Y0085247D01*
X0162879Y0082177D01*
X0167279Y0082177D01*
X0167279Y0081577D01*
X0162879Y0081577D01*
X0162879Y0078507D01*
X0162995Y0077776D01*
X0163224Y0077073D01*
X0163559Y0076414D01*
X0163994Y0075815D01*
X0164517Y0075292D01*
X0165116Y0074857D01*
X0165707Y0074556D01*
X0164244Y0073950D01*
X0162837Y0072543D01*
X0162076Y0070705D01*
X0162076Y0068716D01*
X0162837Y0066878D01*
X0164244Y0065472D01*
X0166081Y0064711D01*
X0165249Y0064366D01*
X0166081Y0064711D02*
X0168071Y0064711D01*
X0169660Y0064052D01*
X0169660Y0065369D01*
X0168071Y0064711D01*
X0166081Y0064711D01*
X0164678Y0065292D02*
X0164323Y0065292D01*
X0163025Y0066691D02*
X0162924Y0066691D01*
X0162336Y0068089D02*
X0161526Y0068089D01*
X0162076Y0069488D02*
X0160127Y0069488D01*
X0158729Y0070886D02*
X0162151Y0070886D01*
X0162730Y0072285D02*
X0157330Y0072285D01*
X0155932Y0073683D02*
X0163977Y0073683D01*
X0164807Y0075082D02*
X0159654Y0075082D01*
X0161241Y0076480D02*
X0163525Y0076480D01*
X0162979Y0077879D02*
X0161820Y0077879D01*
X0161879Y0079277D02*
X0162879Y0079277D01*
X0162879Y0080676D02*
X0161879Y0080676D01*
X0161879Y0082074D02*
X0167279Y0082074D01*
X0162879Y0083473D02*
X0161879Y0083473D01*
X0161879Y0084871D02*
X0162879Y0084871D01*
X0153279Y0084871D02*
X0114564Y0084871D01*
X0114930Y0083473D02*
X0153279Y0083473D01*
X0153279Y0082074D02*
X0115556Y0082074D01*
X0116954Y0080676D02*
X0153279Y0080676D01*
X0153279Y0079277D02*
X0118353Y0079277D01*
X0119751Y0077879D02*
X0153338Y0077879D01*
X0153135Y0076480D02*
X0153918Y0076480D01*
X0154533Y0075082D02*
X0155505Y0075082D01*
X0169474Y0065292D02*
X0169660Y0065292D01*
X0169660Y0044315D02*
X0167525Y0044315D01*
X0123980Y0063122D02*
X0112080Y0063122D01*
X0114085Y0061097D02*
X0121975Y0061097D01*
X0122120Y0065292D02*
X0113940Y0065292D01*
X0097410Y0076480D02*
X0071161Y0076480D01*
X0068680Y0075022D02*
X0067280Y0075022D01*
X0060980Y0081322D01*
X0064454Y0080676D02*
X0100498Y0080676D01*
X0100130Y0079277D02*
X0065853Y0079277D01*
X0067251Y0077879D02*
X0098809Y0077879D01*
X0067930Y0047112D02*
X0067484Y0047112D01*
X0071692Y0044315D02*
X0072224Y0044315D01*
X0072146Y0042916D02*
X0069503Y0042916D01*
X0068104Y0041518D02*
X0072954Y0041518D01*
X0101716Y0044315D02*
X0112990Y0044315D01*
X0114389Y0042916D02*
X0103114Y0042916D01*
X0093163Y0019141D02*
X0073267Y0019141D01*
X0066123Y0013547D02*
X0095706Y0013547D01*
X0104477Y0017743D02*
X0105001Y0017743D01*
X0105106Y0016344D02*
X0106106Y0016344D01*
D16*
X0136580Y0047722D03*
X0137980Y0056822D03*
X0144280Y0072222D03*
X0145680Y0078522D03*
X0111380Y0053322D03*
X0099480Y0065922D03*
X0088280Y0066622D03*
X0033680Y0072222D03*
D17*
X0060980Y0081322D03*
X0068680Y0075022D03*
X0095980Y0073622D03*
X0102980Y0079222D03*
X0112080Y0083422D03*
X0112080Y0063122D03*
X0123980Y0063122D03*
X0107280Y0035922D03*
X0074980Y0030222D03*
X0071304Y0021209D03*
X0052580Y0030922D03*
X0061680Y0038622D03*
X0070780Y0047022D03*
X0066580Y0049822D03*
X0074980Y0043522D03*
M02*
