%
M48
M72
T01C0.01200
T02C0.01500
T03C0.02756
T04C0.03200
T05C0.04000
%
T01
X88280Y66622
X99480Y65922
X111380Y53322
X136580Y47722
X137980Y56822
X144280Y72222
X145680Y78522
X33680Y72222
T02
X60980Y81322
X68680Y75022
X95980Y73622
X102980Y79222
X112080Y83422
X112080Y63122
X123980Y63122
X107280Y35922
X74980Y30222
X71304Y21209
X52580Y30922
X61680Y38622
X70780Y47022
X66580Y49822
X74980Y43522
T03
X26093Y20957
X26093Y25957
X26093Y30957
X26093Y35957
X26093Y40957
X26093Y45957
X26093Y50957
X26093Y55957
X26093Y60957
X26093Y65957
X26093Y70957
X26093Y75957
X26093Y80957
T04
X167076Y69711
X167076Y59711
X167076Y49711
T05
X120406Y25167
X110406Y25167
X100406Y25167
X100406Y15167
X110406Y15167
X120406Y15167
X157579Y81877
X167579Y81877
M30
