G75*
%MOIN*%
%OFA0B0*%
%FSLAX25Y25*%
%IPPOS*%
%LPD*%
%AMOC8*
5,1,8,0,0,1.08239X$1,22.5*
%
%ADD10OC8,0.06800*%
%ADD11C,0.05556*%
%ADD12C,0.06800*%
%ADD13C,0.08200*%
%ADD14C,0.03600*%
%ADD15C,0.03900*%
D10*
X0100406Y0015167D03*
X0110406Y0015167D03*
X0120406Y0015167D03*
X0120406Y0025167D03*
X0110406Y0025167D03*
X0100406Y0025167D03*
D11*
X0028471Y0020957D02*
X0023715Y0020957D01*
X0023715Y0025957D02*
X0028471Y0025957D01*
X0028471Y0030957D02*
X0023715Y0030957D01*
X0023715Y0035957D02*
X0028471Y0035957D01*
X0028471Y0040957D02*
X0023715Y0040957D01*
X0023715Y0045957D02*
X0028471Y0045957D01*
X0028471Y0050957D02*
X0023715Y0050957D01*
X0023715Y0055957D02*
X0028471Y0055957D01*
X0028471Y0060957D02*
X0023715Y0060957D01*
X0023715Y0065957D02*
X0028471Y0065957D01*
X0028471Y0070957D02*
X0023715Y0070957D01*
X0023715Y0075957D02*
X0028471Y0075957D01*
X0028471Y0080957D02*
X0023715Y0080957D01*
D12*
X0157579Y0078877D02*
X0157579Y0084877D01*
X0167579Y0084877D02*
X0167579Y0078877D01*
D13*
X0167076Y0069711D03*
X0167076Y0059711D03*
X0167076Y0049711D03*
D14*
X0137980Y0056822D03*
X0136580Y0047722D03*
X0111380Y0053322D03*
X0099480Y0065922D03*
X0088280Y0066622D03*
X0033680Y0072222D03*
X0144280Y0072222D03*
X0145680Y0078522D03*
D15*
X0123980Y0063122D03*
X0112080Y0063122D03*
X0095980Y0073622D03*
X0102980Y0079222D03*
X0112080Y0083422D03*
X0068680Y0075022D03*
X0060980Y0081322D03*
X0066580Y0049822D03*
X0070780Y0047022D03*
X0074980Y0043522D03*
X0061680Y0038622D03*
X0052580Y0030922D03*
X0071304Y0021209D03*
X0074980Y0030222D03*
X0107280Y0035922D03*
M02*
