G75*
%MOIN*%
%OFA0B0*%
%FSLAX25Y25*%
%IPPOS*%
%LPD*%
%AMOC8*
5,1,8,0,0,1.08239X$1,22.5*
%
%ADD10C,0.00000*%
%ADD11R,0.23622X0.13780*%
%ADD12R,0.05118X0.05906*%
%ADD13R,0.05906X0.05118*%
%ADD14R,0.05512X0.06299*%
%ADD15R,0.01969X0.05906*%
%ADD16R,0.05906X0.01969*%
%ADD17OC8,0.06000*%
%ADD18R,0.04424X0.01969*%
%ADD19R,0.01969X0.04424*%
%ADD20C,0.04756*%
%ADD21C,0.06000*%
%ADD22C,0.07400*%
%ADD23R,0.07900X0.04300*%
%ADD24C,0.01400*%
%ADD25C,0.02800*%
%ADD26C,0.03100*%
%ADD27C,0.01200*%
D10*
X0016880Y0007953D02*
X0016880Y0090630D01*
X0174360Y0090630D01*
X0174360Y0007953D01*
X0016880Y0007953D01*
D11*
X0053012Y0016800D03*
D12*
X0046602Y0050968D03*
X0039122Y0050968D03*
X0039114Y0061187D03*
X0046594Y0061187D03*
X0046594Y0072111D03*
X0039114Y0072111D03*
X0039915Y0082430D03*
X0047396Y0082430D03*
X0121812Y0084130D03*
X0129293Y0084130D03*
X0128585Y0069306D03*
X0121104Y0069306D03*
X0145261Y0034040D03*
X0152741Y0034040D03*
D13*
X0130649Y0051715D03*
X0130649Y0059196D03*
X0118039Y0058533D03*
X0118039Y0051052D03*
D14*
X0119770Y0040399D03*
X0130793Y0040399D03*
D15*
X0098330Y0036393D03*
X0095180Y0036393D03*
X0092031Y0036393D03*
X0088881Y0036393D03*
X0085732Y0036393D03*
X0082582Y0036393D03*
X0079432Y0036393D03*
X0076283Y0036393D03*
X0073133Y0036393D03*
X0069984Y0036393D03*
X0066834Y0036393D03*
X0066834Y0082062D03*
X0069984Y0082062D03*
X0073133Y0082062D03*
X0076283Y0082062D03*
X0079432Y0082062D03*
X0082582Y0082062D03*
X0085732Y0082062D03*
X0088881Y0082062D03*
X0092031Y0082062D03*
X0095180Y0082062D03*
X0098330Y0082062D03*
D16*
X0105417Y0074976D03*
X0105417Y0071826D03*
X0105417Y0068677D03*
X0105417Y0065527D03*
X0105417Y0062377D03*
X0105417Y0059228D03*
X0105417Y0056078D03*
X0105417Y0052929D03*
X0105417Y0049779D03*
X0105417Y0046629D03*
X0105417Y0043480D03*
X0059747Y0043480D03*
X0059747Y0046629D03*
X0059747Y0049779D03*
X0059747Y0052929D03*
X0059747Y0056078D03*
X0059747Y0059228D03*
X0059747Y0062377D03*
X0059747Y0065527D03*
X0059747Y0068677D03*
X0059747Y0071826D03*
X0059747Y0074976D03*
D17*
X0100406Y0025167D03*
X0110406Y0025167D03*
X0120406Y0025167D03*
X0120406Y0015167D03*
X0110406Y0015167D03*
X0100406Y0015167D03*
D18*
X0143060Y0044447D03*
X0143060Y0047596D03*
X0143060Y0050746D03*
X0143060Y0053895D03*
X0143060Y0057045D03*
X0143060Y0060195D03*
X0152021Y0060195D03*
X0152021Y0057045D03*
X0152021Y0053895D03*
X0152021Y0050746D03*
X0152021Y0047596D03*
X0151991Y0044447D03*
D19*
X0147540Y0044053D03*
X0147540Y0060588D03*
D20*
X0028471Y0060957D02*
X0023715Y0060957D01*
X0023715Y0055957D02*
X0028471Y0055957D01*
X0028471Y0050957D02*
X0023715Y0050957D01*
X0023715Y0045957D02*
X0028471Y0045957D01*
X0028471Y0040957D02*
X0023715Y0040957D01*
X0023715Y0035957D02*
X0028471Y0035957D01*
X0028471Y0030957D02*
X0023715Y0030957D01*
X0023715Y0025957D02*
X0028471Y0025957D01*
X0028471Y0020957D02*
X0023715Y0020957D01*
X0023715Y0065957D02*
X0028471Y0065957D01*
X0028471Y0070957D02*
X0023715Y0070957D01*
X0023715Y0075957D02*
X0028471Y0075957D01*
X0028471Y0080957D02*
X0023715Y0080957D01*
D21*
X0157579Y0078877D02*
X0157579Y0084877D01*
X0167579Y0084877D02*
X0167579Y0078877D01*
D22*
X0167076Y0069711D03*
X0167076Y0059711D03*
X0167076Y0049711D03*
D23*
X0167388Y0018551D03*
X0131988Y0018551D03*
D24*
X0131988Y0027114D01*
X0133696Y0028822D01*
X0150580Y0028822D01*
X0152741Y0030983D01*
X0152741Y0034040D01*
X0156600Y0034525D02*
X0169660Y0034525D01*
X0169660Y0035923D02*
X0156600Y0035923D01*
X0156600Y0037322D02*
X0157708Y0037322D01*
X0159519Y0039133D01*
X0160691Y0040304D01*
X0160691Y0067711D01*
X0162492Y0067711D01*
X0162837Y0066878D01*
X0164244Y0065472D01*
X0166081Y0064711D01*
X0164244Y0063950D01*
X0162837Y0062543D01*
X0162076Y0060705D01*
X0162076Y0058716D01*
X0162837Y0056878D01*
X0164244Y0055472D01*
X0165602Y0054910D01*
X0165003Y0054715D01*
X0164246Y0054329D01*
X0163558Y0053830D01*
X0162957Y0053229D01*
X0162458Y0052541D01*
X0162072Y0051784D01*
X0161809Y0050975D01*
X0161676Y0050136D01*
X0161676Y0049811D01*
X0166976Y0049811D01*
X0166976Y0049611D01*
X0161676Y0049611D01*
X0161676Y0049286D01*
X0161809Y0048446D01*
X0162072Y0047638D01*
X0162458Y0046881D01*
X0162957Y0046193D01*
X0163558Y0045592D01*
X0164246Y0045092D01*
X0165003Y0044706D01*
X0165811Y0044444D01*
X0166651Y0044311D01*
X0166976Y0044311D01*
X0166976Y0049611D01*
X0167176Y0049611D01*
X0167176Y0044311D01*
X0167501Y0044311D01*
X0168341Y0044444D01*
X0169149Y0044706D01*
X0169660Y0044967D01*
X0169660Y0022401D01*
X0167763Y0022401D01*
X0167763Y0018926D01*
X0167013Y0018926D01*
X0167013Y0022401D01*
X0163214Y0022401D01*
X0162782Y0022285D01*
X0162394Y0022061D01*
X0162078Y0021745D01*
X0161854Y0021357D01*
X0161738Y0020925D01*
X0161738Y0018926D01*
X0167013Y0018926D01*
X0167013Y0018176D01*
X0161738Y0018176D01*
X0161738Y0016177D01*
X0161854Y0015745D01*
X0162078Y0015357D01*
X0162394Y0015041D01*
X0162782Y0014817D01*
X0163214Y0014701D01*
X0167013Y0014701D01*
X0167013Y0018176D01*
X0167763Y0018176D01*
X0167763Y0014701D01*
X0169660Y0014701D01*
X0169660Y0012653D01*
X0123974Y0012653D01*
X0124706Y0013386D01*
X0124706Y0016948D01*
X0122187Y0019467D01*
X0118934Y0019467D01*
X0117451Y0020950D01*
X0116279Y0022122D01*
X0113442Y0022122D01*
X0114706Y0023386D01*
X0114706Y0026948D01*
X0112187Y0029467D01*
X0108625Y0029467D01*
X0106106Y0026948D01*
X0106106Y0023386D01*
X0107370Y0022122D01*
X0103442Y0022122D01*
X0104706Y0023386D01*
X0104706Y0026638D01*
X0105680Y0027612D01*
X0105680Y0031493D01*
X0107258Y0033072D01*
X0107302Y0033072D01*
X0109352Y0031022D01*
X0125252Y0031022D01*
X0129988Y0026285D01*
X0129988Y0022001D01*
X0127500Y0022001D01*
X0126738Y0021239D01*
X0126738Y0015862D01*
X0127500Y0015101D01*
X0136476Y0015101D01*
X0137238Y0015862D01*
X0137238Y0021239D01*
X0136476Y0022001D01*
X0133988Y0022001D01*
X0133988Y0026285D01*
X0134524Y0026822D01*
X0151408Y0026822D01*
X0152580Y0027993D01*
X0154374Y0029788D01*
X0155839Y0029788D01*
X0156600Y0030549D01*
X0156600Y0037322D01*
X0157709Y0037322D02*
X0169660Y0037322D01*
X0169660Y0038721D02*
X0159107Y0038721D01*
X0160506Y0040119D02*
X0169660Y0040119D01*
X0169660Y0041518D02*
X0160691Y0041518D01*
X0158691Y0041133D02*
X0158691Y0069711D01*
X0167076Y0069711D01*
X0162492Y0071711D02*
X0162837Y0072543D01*
X0164244Y0073950D01*
X0165707Y0074556D01*
X0165116Y0074857D01*
X0164517Y0075292D01*
X0163994Y0075815D01*
X0163559Y0076414D01*
X0163224Y0077073D01*
X0162995Y0077776D01*
X0162879Y0078507D01*
X0162879Y0081577D01*
X0167279Y0081577D01*
X0167279Y0082177D01*
X0162879Y0082177D01*
X0162879Y0085247D01*
X0162988Y0085930D01*
X0161797Y0085930D01*
X0161879Y0085732D01*
X0161879Y0078022D01*
X0161225Y0076441D01*
X0160015Y0075232D01*
X0159579Y0075051D01*
X0159579Y0071711D01*
X0162492Y0071711D01*
X0162730Y0072285D02*
X0159579Y0072285D01*
X0159579Y0073683D02*
X0163977Y0073683D01*
X0164807Y0075082D02*
X0159654Y0075082D01*
X0161241Y0076480D02*
X0163525Y0076480D01*
X0162979Y0077879D02*
X0161820Y0077879D01*
X0161879Y0079277D02*
X0162879Y0079277D01*
X0162879Y0080676D02*
X0161879Y0080676D01*
X0161879Y0082074D02*
X0167279Y0082074D01*
X0162879Y0083473D02*
X0161879Y0083473D01*
X0161879Y0084871D02*
X0162879Y0084871D01*
X0157579Y0081877D02*
X0157579Y0070823D01*
X0158691Y0069711D01*
X0156691Y0068882D02*
X0156691Y0041961D01*
X0156052Y0041322D01*
X0149825Y0041322D01*
X0149825Y0042162D01*
X0154742Y0042162D01*
X0155503Y0042924D01*
X0155503Y0045969D01*
X0155466Y0046006D01*
X0155533Y0046073D01*
X0155533Y0049119D01*
X0155481Y0049171D01*
X0155533Y0049223D01*
X0155533Y0052269D01*
X0155481Y0052321D01*
X0155533Y0052373D01*
X0155533Y0054957D01*
X0155594Y0055017D01*
X0155818Y0055405D01*
X0155933Y0055837D01*
X0155933Y0057045D01*
X0152021Y0057045D01*
X0148109Y0057045D01*
X0148109Y0055837D01*
X0148225Y0055405D01*
X0148449Y0055017D01*
X0148509Y0054957D01*
X0148509Y0052373D01*
X0148561Y0052321D01*
X0148509Y0052269D01*
X0148509Y0049223D01*
X0148561Y0049171D01*
X0148509Y0049119D01*
X0148509Y0047565D01*
X0146972Y0047565D01*
X0146972Y0047596D01*
X0143060Y0047596D01*
X0143060Y0047596D01*
X0146972Y0047596D01*
X0146972Y0048804D01*
X0146874Y0049171D01*
X0146972Y0049538D01*
X0146972Y0050746D01*
X0146972Y0051954D01*
X0146856Y0052386D01*
X0146632Y0052774D01*
X0146572Y0052834D01*
X0146572Y0054957D01*
X0146632Y0055017D01*
X0146856Y0055405D01*
X0146972Y0055837D01*
X0146972Y0057045D01*
X0143060Y0057045D01*
X0143060Y0057045D01*
X0146972Y0057045D01*
X0146972Y0057076D01*
X0148109Y0057076D01*
X0148109Y0057045D01*
X0152021Y0057045D01*
X0152021Y0057045D01*
X0155933Y0057045D01*
X0155933Y0058253D01*
X0155818Y0058685D01*
X0155594Y0059073D01*
X0155533Y0059133D01*
X0155533Y0061717D01*
X0154772Y0062479D01*
X0153980Y0062479D01*
X0153980Y0066050D01*
X0152808Y0067222D01*
X0148724Y0071306D01*
X0132444Y0071306D01*
X0132444Y0072797D01*
X0131682Y0073559D01*
X0130585Y0073559D01*
X0130585Y0075445D01*
X0129480Y0076550D01*
X0128808Y0077222D01*
X0129008Y0077222D01*
X0130408Y0078622D01*
X0131580Y0079793D01*
X0131580Y0079877D01*
X0132390Y0079877D01*
X0133152Y0080639D01*
X0133152Y0082130D01*
X0153279Y0082130D01*
X0153279Y0078022D01*
X0153934Y0076441D01*
X0155143Y0075232D01*
X0155579Y0075051D01*
X0155579Y0069994D01*
X0156691Y0068882D01*
X0156691Y0068089D02*
X0151941Y0068089D01*
X0150542Y0069488D02*
X0156086Y0069488D01*
X0155579Y0070886D02*
X0149144Y0070886D01*
X0147896Y0069306D02*
X0151980Y0065222D01*
X0151980Y0060236D01*
X0152021Y0060195D01*
X0152021Y0057045D02*
X0152021Y0057045D01*
X0148109Y0056901D02*
X0146972Y0056901D01*
X0146882Y0055503D02*
X0148199Y0055503D01*
X0148509Y0054104D02*
X0146572Y0054104D01*
X0146672Y0052706D02*
X0148509Y0052706D01*
X0148509Y0051307D02*
X0146972Y0051307D01*
X0146972Y0050746D02*
X0143060Y0050746D01*
X0143060Y0050746D01*
X0146972Y0050746D01*
X0146972Y0049909D02*
X0148509Y0049909D01*
X0148509Y0048510D02*
X0146972Y0048510D01*
X0143060Y0047596D02*
X0143060Y0047596D01*
X0139148Y0047596D01*
X0139148Y0046447D01*
X0138076Y0046447D01*
X0134849Y0043219D01*
X0134849Y0044087D01*
X0134088Y0044849D01*
X0132793Y0044849D01*
X0132793Y0047856D01*
X0134141Y0047856D01*
X0134902Y0048618D01*
X0134902Y0052457D01*
X0135967Y0053522D01*
X0137080Y0054635D01*
X0137080Y0057435D01*
X0137367Y0057722D01*
X0138452Y0057722D01*
X0138552Y0057622D01*
X0139148Y0057622D01*
X0139148Y0057045D01*
X0139148Y0055837D01*
X0139263Y0055405D01*
X0139487Y0055017D01*
X0139548Y0054957D01*
X0139548Y0052834D01*
X0139487Y0052774D01*
X0139263Y0052386D01*
X0139148Y0051954D01*
X0139148Y0050746D01*
X0143060Y0050746D01*
X0143060Y0050746D01*
X0139148Y0050746D01*
X0139148Y0049538D01*
X0139246Y0049171D01*
X0139148Y0048804D01*
X0139148Y0047596D01*
X0143060Y0047596D01*
X0139148Y0047112D02*
X0132793Y0047112D01*
X0134794Y0048510D02*
X0139148Y0048510D01*
X0139148Y0049909D02*
X0134902Y0049909D01*
X0134902Y0051307D02*
X0139148Y0051307D01*
X0139448Y0052706D02*
X0135151Y0052706D01*
X0136549Y0054104D02*
X0139548Y0054104D01*
X0139237Y0055503D02*
X0137080Y0055503D01*
X0137080Y0056901D02*
X0139148Y0056901D01*
X0139148Y0057045D02*
X0143060Y0057045D01*
X0143060Y0057045D01*
X0139148Y0057045D01*
X0139380Y0059622D02*
X0142487Y0059622D01*
X0143060Y0060195D01*
X0146380Y0063122D02*
X0126723Y0063122D01*
X0123980Y0063122D01*
X0126723Y0063122D02*
X0130649Y0059196D01*
X0127480Y0051922D02*
X0120869Y0058533D01*
X0118039Y0058533D01*
X0118039Y0066241D01*
X0121104Y0069306D01*
X0128585Y0069306D02*
X0128585Y0074617D01*
X0127480Y0075722D01*
X0117680Y0075722D01*
X0110635Y0068677D01*
X0105417Y0068677D01*
X0105417Y0065527D02*
X0109675Y0065527D01*
X0112080Y0063122D01*
X0110055Y0061116D02*
X0110466Y0060706D01*
X0111513Y0060272D01*
X0112647Y0060272D01*
X0113694Y0060706D01*
X0113786Y0060798D01*
X0113786Y0055435D01*
X0114174Y0055048D01*
X0114042Y0054972D01*
X0113726Y0054655D01*
X0113502Y0054268D01*
X0113386Y0053835D01*
X0113386Y0051632D01*
X0117459Y0051632D01*
X0117459Y0050473D01*
X0113386Y0050473D01*
X0113386Y0048270D01*
X0113502Y0047837D01*
X0113726Y0047450D01*
X0114042Y0047133D01*
X0114430Y0046909D01*
X0114862Y0046793D01*
X0117460Y0046793D01*
X0117460Y0050473D01*
X0118619Y0050473D01*
X0118619Y0051632D01*
X0122692Y0051632D01*
X0122692Y0053835D01*
X0122675Y0053898D01*
X0125480Y0051093D01*
X0126397Y0050177D01*
X0126397Y0048618D01*
X0127158Y0047856D01*
X0128793Y0047856D01*
X0128793Y0044849D01*
X0127499Y0044849D01*
X0126737Y0044087D01*
X0126737Y0036711D01*
X0127499Y0035949D01*
X0134088Y0035949D01*
X0134849Y0036711D01*
X0134849Y0038399D01*
X0135686Y0038399D01*
X0136857Y0039571D01*
X0139733Y0042447D01*
X0140025Y0042447D01*
X0140309Y0042162D01*
X0142516Y0042162D01*
X0142625Y0042053D01*
X0145256Y0042053D01*
X0145256Y0041302D01*
X0145394Y0041164D01*
X0144380Y0040150D01*
X0143261Y0039031D01*
X0143261Y0038293D01*
X0142163Y0038293D01*
X0141402Y0037532D01*
X0141402Y0030822D01*
X0132868Y0030822D01*
X0131988Y0029942D01*
X0128080Y0033850D01*
X0128080Y0033850D01*
X0126908Y0035022D01*
X0111008Y0035022D01*
X0110130Y0035900D01*
X0110130Y0036489D01*
X0109696Y0037536D01*
X0108894Y0038338D01*
X0107847Y0038772D01*
X0106713Y0038772D01*
X0105666Y0038338D01*
X0104864Y0037536D01*
X0104430Y0036489D01*
X0104430Y0035900D01*
X0101680Y0033150D01*
X0101680Y0029467D01*
X0098625Y0029467D01*
X0096106Y0026948D01*
X0096106Y0023724D01*
X0094880Y0024950D01*
X0094880Y0026493D01*
X0096009Y0027622D01*
X0097180Y0028794D01*
X0097180Y0032140D01*
X0099853Y0032140D01*
X0100614Y0032902D01*
X0100614Y0039884D01*
X0099853Y0040646D01*
X0096807Y0040646D01*
X0096755Y0040594D01*
X0096703Y0040646D01*
X0093658Y0040646D01*
X0093606Y0040594D01*
X0093554Y0040646D01*
X0090508Y0040646D01*
X0090456Y0040594D01*
X0090404Y0040646D01*
X0087358Y0040646D01*
X0087306Y0040594D01*
X0087254Y0040646D01*
X0084670Y0040646D01*
X0084610Y0040706D01*
X0084222Y0040930D01*
X0083790Y0041046D01*
X0082582Y0041046D01*
X0081432Y0041046D01*
X0081432Y0058301D01*
X0083508Y0060377D01*
X0093980Y0060377D01*
X0093980Y0059493D01*
X0095074Y0058399D01*
X0096246Y0057228D01*
X0101164Y0057228D01*
X0101164Y0054555D01*
X0101216Y0054503D01*
X0101164Y0054451D01*
X0101164Y0051406D01*
X0101216Y0051354D01*
X0101164Y0051302D01*
X0101164Y0048256D01*
X0101216Y0048204D01*
X0101164Y0048152D01*
X0101164Y0045107D01*
X0101216Y0045055D01*
X0101164Y0045002D01*
X0101164Y0041957D01*
X0101925Y0041195D01*
X0108908Y0041195D01*
X0109669Y0041957D01*
X0109669Y0045002D01*
X0109617Y0045055D01*
X0109669Y0045107D01*
X0109669Y0048152D01*
X0109617Y0048204D01*
X0109669Y0048256D01*
X0109669Y0051302D01*
X0109617Y0051354D01*
X0109669Y0051406D01*
X0109669Y0054451D01*
X0109617Y0054503D01*
X0109669Y0054555D01*
X0109669Y0057601D01*
X0109617Y0057653D01*
X0109669Y0057705D01*
X0109669Y0060289D01*
X0109730Y0060349D01*
X0109954Y0060737D01*
X0110055Y0061116D01*
X0110050Y0061097D02*
X0110075Y0061097D01*
X0109669Y0059698D02*
X0113786Y0059698D01*
X0113786Y0058300D02*
X0109669Y0058300D01*
X0109669Y0056901D02*
X0113786Y0056901D01*
X0113786Y0055503D02*
X0109669Y0055503D01*
X0109669Y0054104D02*
X0113458Y0054104D01*
X0113386Y0052706D02*
X0109669Y0052706D01*
X0109664Y0051307D02*
X0117459Y0051307D01*
X0118619Y0051307D02*
X0125266Y0051307D01*
X0126397Y0049909D02*
X0122692Y0049909D01*
X0122692Y0050473D02*
X0122692Y0048270D01*
X0122576Y0047837D01*
X0122352Y0047450D01*
X0122036Y0047133D01*
X0121648Y0046909D01*
X0121216Y0046793D01*
X0118619Y0046793D01*
X0118619Y0050473D01*
X0122692Y0050473D01*
X0122692Y0048510D02*
X0126504Y0048510D01*
X0128793Y0047112D02*
X0121998Y0047112D01*
X0122749Y0045249D02*
X0120448Y0045249D01*
X0120448Y0041077D01*
X0124226Y0041077D01*
X0124226Y0043772D01*
X0124110Y0044205D01*
X0123886Y0044592D01*
X0123570Y0044909D01*
X0123182Y0045133D01*
X0122749Y0045249D01*
X0124046Y0044315D02*
X0126965Y0044315D01*
X0126737Y0042916D02*
X0124226Y0042916D01*
X0124226Y0041518D02*
X0126737Y0041518D01*
X0126737Y0040119D02*
X0120448Y0040119D01*
X0120448Y0039721D02*
X0120448Y0041077D01*
X0119092Y0041077D01*
X0119092Y0045249D01*
X0116790Y0045249D01*
X0116358Y0045133D01*
X0115970Y0044909D01*
X0115654Y0044592D01*
X0115430Y0044205D01*
X0115314Y0043772D01*
X0115314Y0041077D01*
X0119092Y0041077D01*
X0119092Y0039721D01*
X0120448Y0039721D01*
X0124226Y0039721D01*
X0124226Y0037026D01*
X0124110Y0036593D01*
X0123886Y0036206D01*
X0123570Y0035889D01*
X0123182Y0035665D01*
X0122749Y0035549D01*
X0120448Y0035549D01*
X0120448Y0039721D01*
X0120448Y0038721D02*
X0119092Y0038721D01*
X0119092Y0039721D02*
X0119092Y0035549D01*
X0116790Y0035549D01*
X0116358Y0035665D01*
X0115970Y0035889D01*
X0115654Y0036206D01*
X0115430Y0036593D01*
X0115314Y0037026D01*
X0115314Y0039721D01*
X0119092Y0039721D01*
X0119092Y0040119D02*
X0100380Y0040119D01*
X0100614Y0038721D02*
X0106589Y0038721D01*
X0107971Y0038721D02*
X0115314Y0038721D01*
X0115314Y0037322D02*
X0109785Y0037322D01*
X0110130Y0035923D02*
X0115936Y0035923D01*
X0119092Y0035923D02*
X0120448Y0035923D01*
X0120448Y0037322D02*
X0119092Y0037322D01*
X0123604Y0035923D02*
X0141402Y0035923D01*
X0141402Y0034525D02*
X0127405Y0034525D01*
X0128804Y0033126D02*
X0141402Y0033126D01*
X0141402Y0031728D02*
X0130202Y0031728D01*
X0131601Y0030329D02*
X0132375Y0030329D01*
X0128741Y0027532D02*
X0124121Y0027532D01*
X0124706Y0026948D02*
X0122187Y0029467D01*
X0118625Y0029467D01*
X0116106Y0026948D01*
X0116106Y0023386D01*
X0118625Y0020867D01*
X0122187Y0020867D01*
X0124706Y0023386D01*
X0124706Y0026948D01*
X0124706Y0026134D02*
X0129988Y0026134D01*
X0129988Y0024735D02*
X0124706Y0024735D01*
X0124657Y0023337D02*
X0129988Y0023337D01*
X0127437Y0021938D02*
X0123259Y0021938D01*
X0126738Y0020540D02*
X0117861Y0020540D01*
X0115451Y0020122D02*
X0096880Y0020122D01*
X0092880Y0024122D01*
X0092880Y0027322D01*
X0095180Y0029622D01*
X0095180Y0036393D01*
X0100614Y0035923D02*
X0104430Y0035923D01*
X0103055Y0034525D02*
X0100614Y0034525D01*
X0100614Y0033126D02*
X0101680Y0033126D01*
X0103680Y0032322D02*
X0107280Y0035922D01*
X0110180Y0033022D01*
X0126080Y0033022D01*
X0131988Y0027114D01*
X0133988Y0026134D02*
X0169660Y0026134D01*
X0169660Y0024735D02*
X0133988Y0024735D01*
X0133988Y0023337D02*
X0169660Y0023337D01*
X0167763Y0021938D02*
X0167013Y0021938D01*
X0167013Y0020540D02*
X0167763Y0020540D01*
X0167763Y0019141D02*
X0167013Y0019141D01*
X0167013Y0017743D02*
X0167763Y0017743D01*
X0167763Y0016344D02*
X0167013Y0016344D01*
X0167013Y0014946D02*
X0167763Y0014946D01*
X0169660Y0013547D02*
X0124706Y0013547D01*
X0124706Y0014946D02*
X0162558Y0014946D01*
X0161738Y0016344D02*
X0137238Y0016344D01*
X0137238Y0017743D02*
X0161738Y0017743D01*
X0161738Y0019141D02*
X0137238Y0019141D01*
X0137238Y0020540D02*
X0161738Y0020540D01*
X0162271Y0021938D02*
X0136539Y0021938D01*
X0126738Y0019141D02*
X0122512Y0019141D01*
X0123911Y0017743D02*
X0126738Y0017743D01*
X0126738Y0016344D02*
X0124706Y0016344D01*
X0120406Y0015167D02*
X0115451Y0020122D01*
X0116463Y0021938D02*
X0117553Y0021938D01*
X0116155Y0023337D02*
X0114657Y0023337D01*
X0114706Y0024735D02*
X0116106Y0024735D01*
X0116106Y0026134D02*
X0114706Y0026134D01*
X0114121Y0027532D02*
X0116691Y0027532D01*
X0118089Y0028931D02*
X0112723Y0028931D01*
X0108645Y0031728D02*
X0105915Y0031728D01*
X0105680Y0030329D02*
X0125944Y0030329D01*
X0127342Y0028931D02*
X0122723Y0028931D01*
X0124226Y0037322D02*
X0126737Y0037322D01*
X0126737Y0038721D02*
X0124226Y0038721D01*
X0120448Y0041518D02*
X0119092Y0041518D01*
X0119092Y0042916D02*
X0120448Y0042916D01*
X0120448Y0044315D02*
X0119092Y0044315D01*
X0115493Y0044315D02*
X0109669Y0044315D01*
X0109669Y0045713D02*
X0128793Y0045713D01*
X0132793Y0045713D02*
X0137343Y0045713D01*
X0135944Y0044315D02*
X0134622Y0044315D01*
X0134857Y0040399D02*
X0138905Y0044447D01*
X0143060Y0044447D01*
X0143453Y0044053D01*
X0147540Y0044053D01*
X0147540Y0040482D01*
X0146380Y0039322D01*
X0156880Y0039322D01*
X0158691Y0041133D01*
X0156247Y0041518D02*
X0149825Y0041518D01*
X0146380Y0039322D02*
X0145261Y0038203D01*
X0145261Y0034040D01*
X0141402Y0037322D02*
X0134849Y0037322D01*
X0136007Y0038721D02*
X0143261Y0038721D01*
X0144349Y0040119D02*
X0137406Y0040119D01*
X0138804Y0041518D02*
X0145256Y0041518D01*
X0155496Y0042916D02*
X0156691Y0042916D01*
X0156691Y0044315D02*
X0155503Y0044315D01*
X0155503Y0045713D02*
X0156691Y0045713D01*
X0156691Y0047112D02*
X0155533Y0047112D01*
X0155533Y0048510D02*
X0156691Y0048510D01*
X0156691Y0049909D02*
X0155533Y0049909D01*
X0155533Y0051307D02*
X0156691Y0051307D01*
X0156691Y0052706D02*
X0155533Y0052706D01*
X0155533Y0054104D02*
X0156691Y0054104D01*
X0156691Y0055503D02*
X0155844Y0055503D01*
X0155933Y0056901D02*
X0156691Y0056901D01*
X0156691Y0058300D02*
X0155921Y0058300D01*
X0155533Y0059698D02*
X0156691Y0059698D01*
X0156691Y0061097D02*
X0155533Y0061097D01*
X0156691Y0062495D02*
X0153980Y0062495D01*
X0153980Y0063894D02*
X0156691Y0063894D01*
X0156691Y0065292D02*
X0153980Y0065292D01*
X0153339Y0066691D02*
X0156691Y0066691D01*
X0160691Y0066691D02*
X0163025Y0066691D01*
X0164678Y0065292D02*
X0160691Y0065292D01*
X0160691Y0063894D02*
X0164188Y0063894D01*
X0162817Y0062495D02*
X0160691Y0062495D01*
X0160691Y0061097D02*
X0162238Y0061097D01*
X0162076Y0059698D02*
X0160691Y0059698D01*
X0160691Y0058300D02*
X0162249Y0058300D01*
X0162828Y0056901D02*
X0160691Y0056901D01*
X0160691Y0055503D02*
X0164213Y0055503D01*
X0163936Y0054104D02*
X0160691Y0054104D01*
X0160691Y0052706D02*
X0162577Y0052706D01*
X0161917Y0051307D02*
X0160691Y0051307D01*
X0160691Y0049909D02*
X0161676Y0049909D01*
X0161799Y0048510D02*
X0160691Y0048510D01*
X0160691Y0047112D02*
X0162340Y0047112D01*
X0163437Y0045713D02*
X0160691Y0045713D01*
X0160691Y0044315D02*
X0166627Y0044315D01*
X0166976Y0044315D02*
X0167176Y0044315D01*
X0167525Y0044315D02*
X0169660Y0044315D01*
X0169660Y0042916D02*
X0160691Y0042916D01*
X0166976Y0045713D02*
X0167176Y0045713D01*
X0167176Y0047112D02*
X0166976Y0047112D01*
X0166976Y0048510D02*
X0167176Y0048510D01*
X0147540Y0060588D02*
X0147540Y0061961D01*
X0146380Y0063122D01*
X0147896Y0069306D02*
X0128585Y0069306D01*
X0132444Y0072285D02*
X0155579Y0072285D01*
X0155579Y0073683D02*
X0130585Y0073683D01*
X0130585Y0075082D02*
X0155505Y0075082D01*
X0153918Y0076480D02*
X0129550Y0076480D01*
X0129666Y0077879D02*
X0153338Y0077879D01*
X0153279Y0079277D02*
X0131064Y0079277D01*
X0129580Y0080622D02*
X0129580Y0083843D01*
X0129293Y0084130D01*
X0155326Y0084130D01*
X0157579Y0081877D01*
X0153279Y0082074D02*
X0133152Y0082074D01*
X0133152Y0080676D02*
X0153279Y0080676D01*
X0166081Y0064711D02*
X0168071Y0064711D01*
X0166081Y0064711D01*
X0168071Y0064711D02*
X0169660Y0064052D01*
X0169660Y0065369D01*
X0168071Y0064711D01*
X0169474Y0065292D02*
X0169660Y0065292D01*
X0130793Y0051571D02*
X0130649Y0051715D01*
X0130443Y0051922D01*
X0127480Y0051922D01*
X0130793Y0051571D02*
X0130793Y0040399D01*
X0134857Y0040399D01*
X0118619Y0047112D02*
X0117460Y0047112D01*
X0117460Y0048510D02*
X0118619Y0048510D01*
X0118619Y0049909D02*
X0117460Y0049909D01*
X0114080Y0047112D02*
X0109669Y0047112D01*
X0109669Y0048510D02*
X0113386Y0048510D01*
X0113386Y0049909D02*
X0109669Y0049909D01*
X0101164Y0049909D02*
X0081432Y0049909D01*
X0081432Y0051307D02*
X0101169Y0051307D01*
X0101164Y0052706D02*
X0081432Y0052706D01*
X0081432Y0054104D02*
X0101164Y0054104D01*
X0101164Y0055503D02*
X0081432Y0055503D01*
X0081432Y0056901D02*
X0101164Y0056901D01*
X0097074Y0059228D02*
X0105417Y0059228D01*
X0105417Y0062377D02*
X0100764Y0062377D01*
X0100764Y0061228D01*
X0097980Y0061228D01*
X0097980Y0071591D01*
X0098396Y0072007D01*
X0098830Y0073055D01*
X0098830Y0074189D01*
X0098396Y0075236D01*
X0097594Y0076038D01*
X0096547Y0076472D01*
X0095413Y0076472D01*
X0094366Y0076038D01*
X0093950Y0075622D01*
X0089108Y0075622D01*
X0087732Y0076999D01*
X0087732Y0077810D01*
X0090404Y0077810D01*
X0090456Y0077862D01*
X0090508Y0077810D01*
X0093554Y0077810D01*
X0093606Y0077862D01*
X0093658Y0077810D01*
X0096703Y0077810D01*
X0096755Y0077862D01*
X0096807Y0077810D01*
X0099853Y0077810D01*
X0100296Y0078253D01*
X0100564Y0077607D01*
X0101366Y0076806D01*
X0101440Y0076775D01*
X0101164Y0076499D01*
X0101164Y0073453D01*
X0101216Y0073401D01*
X0101164Y0073349D01*
X0101164Y0070303D01*
X0101216Y0070251D01*
X0101164Y0070199D01*
X0101164Y0067154D01*
X0101216Y0067102D01*
X0101164Y0067050D01*
X0101164Y0064466D01*
X0101104Y0064405D01*
X0100880Y0064018D01*
X0100764Y0063585D01*
X0100764Y0062377D01*
X0105417Y0062377D01*
X0105417Y0062377D01*
X0100764Y0062495D02*
X0097980Y0062495D01*
X0097980Y0063894D02*
X0100847Y0063894D01*
X0101164Y0065292D02*
X0097980Y0065292D01*
X0097980Y0066691D02*
X0101164Y0066691D01*
X0101164Y0068089D02*
X0097980Y0068089D01*
X0097980Y0069488D02*
X0101164Y0069488D01*
X0101164Y0070886D02*
X0097980Y0070886D01*
X0098511Y0072285D02*
X0101164Y0072285D01*
X0101164Y0073683D02*
X0098830Y0073683D01*
X0098460Y0075082D02*
X0101164Y0075082D01*
X0101164Y0076480D02*
X0088250Y0076480D01*
X0085732Y0076170D02*
X0085732Y0082062D01*
X0082582Y0082062D02*
X0082582Y0077410D01*
X0083732Y0077410D01*
X0083732Y0075342D01*
X0084903Y0074170D01*
X0087452Y0071622D01*
X0093950Y0071622D01*
X0093980Y0071591D01*
X0093980Y0064377D01*
X0064000Y0064377D01*
X0064000Y0067050D01*
X0063948Y0067102D01*
X0064000Y0067154D01*
X0064000Y0070199D01*
X0063948Y0070251D01*
X0064000Y0070303D01*
X0064000Y0073349D01*
X0063948Y0073401D01*
X0064000Y0073453D01*
X0064000Y0076499D01*
X0063239Y0077260D01*
X0056256Y0077260D01*
X0055495Y0076499D01*
X0055495Y0073453D01*
X0055547Y0073401D01*
X0055495Y0073349D01*
X0055495Y0070303D01*
X0055547Y0070251D01*
X0055495Y0070199D01*
X0055495Y0067154D01*
X0055547Y0067102D01*
X0055495Y0067050D01*
X0055495Y0065836D01*
X0053880Y0067450D01*
X0052708Y0068622D01*
X0050769Y0068622D01*
X0050853Y0068935D01*
X0050853Y0071532D01*
X0047174Y0071532D01*
X0047174Y0072691D01*
X0050853Y0072691D01*
X0050853Y0075288D01*
X0050737Y0075720D01*
X0050513Y0076108D01*
X0050197Y0076424D01*
X0049809Y0076648D01*
X0049377Y0076764D01*
X0047173Y0076764D01*
X0047173Y0072691D01*
X0046014Y0072691D01*
X0046014Y0076764D01*
X0043811Y0076764D01*
X0043379Y0076648D01*
X0042991Y0076424D01*
X0042675Y0076108D01*
X0042599Y0075976D01*
X0042211Y0076364D01*
X0036016Y0076364D01*
X0035255Y0075602D01*
X0035255Y0068620D01*
X0036016Y0067859D01*
X0037114Y0067859D01*
X0037114Y0065440D01*
X0036016Y0065440D01*
X0035255Y0064678D01*
X0035255Y0057696D01*
X0036016Y0056934D01*
X0037122Y0056934D01*
X0037122Y0055221D01*
X0036024Y0055221D01*
X0035263Y0054459D01*
X0035263Y0049937D01*
X0033283Y0047957D01*
X0031623Y0047957D01*
X0031589Y0048041D01*
X0031172Y0048457D01*
X0031589Y0048874D01*
X0032149Y0050226D01*
X0032149Y0051689D01*
X0031589Y0053041D01*
X0031172Y0053457D01*
X0031589Y0053874D01*
X0032149Y0055226D01*
X0032149Y0056689D01*
X0031589Y0058041D01*
X0031172Y0058457D01*
X0031589Y0058874D01*
X0032149Y0060226D01*
X0032149Y0061689D01*
X0031589Y0063041D01*
X0031172Y0063457D01*
X0031589Y0063874D01*
X0032149Y0065226D01*
X0032149Y0066689D01*
X0031589Y0068041D01*
X0031172Y0068457D01*
X0031589Y0068874D01*
X0032149Y0070226D01*
X0032149Y0071689D01*
X0031589Y0073041D01*
X0031172Y0073457D01*
X0031589Y0073874D01*
X0032149Y0075226D01*
X0032149Y0076689D01*
X0031589Y0078041D01*
X0031172Y0078457D01*
X0031589Y0078874D01*
X0032149Y0080226D01*
X0032149Y0081689D01*
X0031589Y0083041D01*
X0030554Y0084075D01*
X0029202Y0084635D01*
X0022983Y0084635D01*
X0021631Y0084075D01*
X0021580Y0084024D01*
X0021580Y0085930D01*
X0035743Y0085930D01*
X0035656Y0085607D01*
X0035656Y0083010D01*
X0039336Y0083010D01*
X0039336Y0081851D01*
X0035656Y0081851D01*
X0035656Y0079253D01*
X0035772Y0078821D01*
X0035996Y0078433D01*
X0036313Y0078117D01*
X0036700Y0077893D01*
X0037133Y0077777D01*
X0039336Y0077777D01*
X0039336Y0081850D01*
X0040495Y0081850D01*
X0040495Y0077777D01*
X0042698Y0077777D01*
X0043131Y0077893D01*
X0043518Y0078117D01*
X0043835Y0078433D01*
X0043911Y0078565D01*
X0044298Y0078177D01*
X0050493Y0078177D01*
X0051255Y0078939D01*
X0051255Y0080430D01*
X0058265Y0080430D01*
X0058564Y0079707D01*
X0059366Y0078906D01*
X0060413Y0078472D01*
X0061547Y0078472D01*
X0062594Y0078906D01*
X0063396Y0079707D01*
X0063830Y0080755D01*
X0063830Y0081889D01*
X0063396Y0082936D01*
X0062594Y0083738D01*
X0061547Y0084172D01*
X0060958Y0084172D01*
X0060700Y0084430D01*
X0051255Y0084430D01*
X0051255Y0085921D01*
X0051246Y0085930D01*
X0064927Y0085930D01*
X0064550Y0085554D01*
X0064550Y0078571D01*
X0065311Y0077810D01*
X0067963Y0077810D01*
X0067066Y0077438D01*
X0066264Y0076636D01*
X0065830Y0075589D01*
X0065830Y0074455D01*
X0066264Y0073407D01*
X0067066Y0072606D01*
X0068113Y0072172D01*
X0069247Y0072172D01*
X0070294Y0072606D01*
X0070711Y0073022D01*
X0079308Y0073022D01*
X0080261Y0073974D01*
X0081432Y0075146D01*
X0081432Y0077410D01*
X0082582Y0077410D01*
X0082582Y0082062D01*
X0082582Y0082062D01*
X0082582Y0080676D02*
X0082582Y0080676D01*
X0082582Y0079277D02*
X0082582Y0079277D01*
X0082582Y0077879D02*
X0082582Y0077879D01*
X0081432Y0076480D02*
X0083732Y0076480D01*
X0083992Y0075082D02*
X0081368Y0075082D01*
X0079970Y0073683D02*
X0085390Y0073683D01*
X0086789Y0072285D02*
X0069520Y0072285D01*
X0067840Y0072285D02*
X0064000Y0072285D01*
X0064000Y0073683D02*
X0066150Y0073683D01*
X0065830Y0075082D02*
X0064000Y0075082D01*
X0064000Y0076480D02*
X0066199Y0076480D01*
X0068680Y0075022D02*
X0078480Y0075022D01*
X0079432Y0075974D01*
X0079432Y0082062D01*
X0085732Y0076170D02*
X0088280Y0073622D01*
X0095980Y0073622D01*
X0095980Y0062422D01*
X0095936Y0062377D01*
X0082680Y0062377D01*
X0079432Y0059130D01*
X0079432Y0036393D01*
X0076380Y0036490D02*
X0076283Y0036393D01*
X0076283Y0042219D01*
X0074980Y0043522D01*
X0076819Y0045713D02*
X0077432Y0045713D01*
X0077396Y0045136D02*
X0076594Y0045938D01*
X0075547Y0046372D01*
X0074413Y0046372D01*
X0073426Y0045963D01*
X0073630Y0046455D01*
X0073630Y0047589D01*
X0073196Y0048636D01*
X0072394Y0049438D01*
X0071347Y0049872D01*
X0070213Y0049872D01*
X0069430Y0049547D01*
X0069430Y0050389D01*
X0068996Y0051436D01*
X0068194Y0052238D01*
X0067147Y0052672D01*
X0066013Y0052672D01*
X0064966Y0052238D01*
X0064550Y0051822D01*
X0064000Y0051822D01*
X0064000Y0054451D01*
X0063948Y0054503D01*
X0064000Y0054555D01*
X0064000Y0057139D01*
X0064060Y0057200D01*
X0064284Y0057587D01*
X0064400Y0058020D01*
X0064400Y0059228D01*
X0064400Y0060377D01*
X0077852Y0060377D01*
X0077432Y0059958D01*
X0077432Y0045049D01*
X0077396Y0045136D01*
X0077432Y0047112D02*
X0073630Y0047112D01*
X0073248Y0048510D02*
X0077432Y0048510D01*
X0077432Y0049909D02*
X0069430Y0049909D01*
X0069050Y0051307D02*
X0077432Y0051307D01*
X0077432Y0052706D02*
X0064000Y0052706D01*
X0064000Y0054104D02*
X0077432Y0054104D01*
X0077432Y0055503D02*
X0064000Y0055503D01*
X0064000Y0056901D02*
X0077432Y0056901D01*
X0077432Y0058300D02*
X0064400Y0058300D01*
X0064400Y0059228D02*
X0059747Y0059228D01*
X0059747Y0059228D01*
X0055095Y0059228D01*
X0055095Y0060436D01*
X0055125Y0060549D01*
X0051052Y0064622D01*
X0050784Y0064622D01*
X0050853Y0064364D01*
X0050853Y0061767D01*
X0047174Y0061767D01*
X0047174Y0060608D01*
X0050853Y0060608D01*
X0050853Y0058011D01*
X0050737Y0057578D01*
X0050513Y0057191D01*
X0050197Y0056874D01*
X0049809Y0056650D01*
X0049377Y0056534D01*
X0047173Y0056534D01*
X0047173Y0060608D01*
X0046014Y0060608D01*
X0046014Y0056534D01*
X0043811Y0056534D01*
X0043379Y0056650D01*
X0042991Y0056874D01*
X0042675Y0057191D01*
X0042599Y0057322D01*
X0042211Y0056934D01*
X0041122Y0056934D01*
X0041122Y0055221D01*
X0042219Y0055221D01*
X0042607Y0054833D01*
X0042683Y0054965D01*
X0042999Y0055281D01*
X0043387Y0055505D01*
X0043819Y0055621D01*
X0046023Y0055621D01*
X0046023Y0051548D01*
X0047182Y0051548D01*
X0047182Y0055621D01*
X0049385Y0055621D01*
X0049817Y0055505D01*
X0050205Y0055281D01*
X0050522Y0054965D01*
X0050745Y0054577D01*
X0050861Y0054145D01*
X0050861Y0051548D01*
X0047182Y0051548D01*
X0047182Y0050389D01*
X0050861Y0050389D01*
X0050861Y0047791D01*
X0050745Y0047359D01*
X0050522Y0046971D01*
X0050205Y0046655D01*
X0049817Y0046431D01*
X0049385Y0046315D01*
X0047182Y0046315D01*
X0047182Y0050388D01*
X0046023Y0050388D01*
X0046023Y0046315D01*
X0043819Y0046315D01*
X0043387Y0046431D01*
X0042999Y0046655D01*
X0042683Y0046971D01*
X0042607Y0047103D01*
X0042219Y0046715D01*
X0037698Y0046715D01*
X0034939Y0043957D01*
X0031623Y0043957D01*
X0031589Y0043874D01*
X0031455Y0043740D01*
X0031581Y0043614D01*
X0031958Y0043095D01*
X0032250Y0042523D01*
X0032448Y0041912D01*
X0032549Y0041278D01*
X0032549Y0040957D01*
X0026093Y0040957D01*
X0026093Y0040957D01*
X0032549Y0040957D01*
X0032549Y0040636D01*
X0032448Y0040002D01*
X0032250Y0039392D01*
X0031958Y0038820D01*
X0031581Y0038301D01*
X0031455Y0038174D01*
X0031589Y0038041D01*
X0032149Y0036689D01*
X0032149Y0035226D01*
X0031589Y0033874D01*
X0031172Y0033457D01*
X0031589Y0033041D01*
X0032149Y0031689D01*
X0032149Y0030226D01*
X0031589Y0028874D01*
X0031172Y0028457D01*
X0031589Y0028041D01*
X0032149Y0026689D01*
X0032149Y0025226D01*
X0031589Y0023874D01*
X0031172Y0023457D01*
X0031589Y0023041D01*
X0031623Y0022957D01*
X0031987Y0022957D01*
X0051980Y0042950D01*
X0051980Y0052050D01*
X0053380Y0053450D01*
X0054552Y0054622D01*
X0055495Y0054622D01*
X0055495Y0057139D01*
X0055434Y0057200D01*
X0055210Y0057587D01*
X0055095Y0058020D01*
X0055095Y0059228D01*
X0059747Y0059228D01*
X0064400Y0059228D01*
X0064400Y0059698D02*
X0077432Y0059698D01*
X0081432Y0058300D02*
X0095174Y0058300D01*
X0093980Y0059698D02*
X0082829Y0059698D01*
X0082680Y0062377D02*
X0059747Y0062377D01*
X0056124Y0062377D01*
X0051880Y0066622D01*
X0042080Y0066622D01*
X0039114Y0069588D01*
X0039114Y0072111D01*
X0039114Y0061187D01*
X0039122Y0061179D01*
X0039122Y0050968D01*
X0034111Y0045957D01*
X0026093Y0045957D01*
X0031225Y0048510D02*
X0033836Y0048510D01*
X0035234Y0049909D02*
X0032017Y0049909D01*
X0032149Y0051307D02*
X0035263Y0051307D01*
X0035263Y0052706D02*
X0031727Y0052706D01*
X0031684Y0054104D02*
X0035263Y0054104D01*
X0037122Y0055503D02*
X0032149Y0055503D01*
X0032061Y0056901D02*
X0037122Y0056901D01*
X0035255Y0058300D02*
X0031330Y0058300D01*
X0031930Y0059698D02*
X0035255Y0059698D01*
X0035255Y0061097D02*
X0032149Y0061097D01*
X0031814Y0062495D02*
X0035255Y0062495D01*
X0035255Y0063894D02*
X0031597Y0063894D01*
X0032149Y0065292D02*
X0035868Y0065292D01*
X0037114Y0066691D02*
X0032148Y0066691D01*
X0031540Y0068089D02*
X0035785Y0068089D01*
X0035255Y0069488D02*
X0031843Y0069488D01*
X0032149Y0070886D02*
X0035255Y0070886D01*
X0035255Y0072285D02*
X0031902Y0072285D01*
X0031398Y0073683D02*
X0035255Y0073683D01*
X0035255Y0075082D02*
X0032089Y0075082D01*
X0032149Y0076480D02*
X0043088Y0076480D01*
X0046014Y0076480D02*
X0047173Y0076480D01*
X0047173Y0075082D02*
X0046014Y0075082D01*
X0046014Y0073683D02*
X0047173Y0073683D01*
X0047174Y0072285D02*
X0055495Y0072285D01*
X0055495Y0073683D02*
X0050853Y0073683D01*
X0050853Y0075082D02*
X0055495Y0075082D01*
X0055495Y0076480D02*
X0050100Y0076480D01*
X0051255Y0079277D02*
X0058994Y0079277D01*
X0060980Y0081322D02*
X0059872Y0082430D01*
X0047396Y0082430D01*
X0051255Y0084871D02*
X0064550Y0084871D01*
X0064550Y0083473D02*
X0062859Y0083473D01*
X0063753Y0082074D02*
X0064550Y0082074D01*
X0064550Y0080676D02*
X0063797Y0080676D01*
X0064550Y0079277D02*
X0062966Y0079277D01*
X0065242Y0077879D02*
X0043077Y0077879D01*
X0040495Y0077879D02*
X0039336Y0077879D01*
X0039336Y0079277D02*
X0040495Y0079277D01*
X0040495Y0080676D02*
X0039336Y0080676D01*
X0039336Y0082074D02*
X0031989Y0082074D01*
X0032149Y0080676D02*
X0035656Y0080676D01*
X0035656Y0079277D02*
X0031756Y0079277D01*
X0031656Y0077879D02*
X0036754Y0077879D01*
X0035656Y0083473D02*
X0031156Y0083473D01*
X0035656Y0084871D02*
X0021580Y0084871D01*
X0050853Y0070886D02*
X0055495Y0070886D01*
X0055495Y0069488D02*
X0050853Y0069488D01*
X0053241Y0068089D02*
X0055495Y0068089D01*
X0055495Y0066691D02*
X0054639Y0066691D01*
X0051780Y0063894D02*
X0050853Y0063894D01*
X0050853Y0062495D02*
X0053178Y0062495D01*
X0054577Y0061097D02*
X0047174Y0061097D01*
X0047173Y0059698D02*
X0046014Y0059698D01*
X0046014Y0058300D02*
X0047173Y0058300D01*
X0047173Y0056901D02*
X0046014Y0056901D01*
X0046023Y0055503D02*
X0047182Y0055503D01*
X0047182Y0054104D02*
X0046023Y0054104D01*
X0046023Y0052706D02*
X0047182Y0052706D01*
X0047182Y0051307D02*
X0051980Y0051307D01*
X0051980Y0049909D02*
X0050861Y0049909D01*
X0050861Y0048510D02*
X0051980Y0048510D01*
X0051980Y0047112D02*
X0050603Y0047112D01*
X0051980Y0045713D02*
X0036695Y0045713D01*
X0035297Y0044315D02*
X0051980Y0044315D01*
X0051946Y0042916D02*
X0032049Y0042916D01*
X0032511Y0041518D02*
X0050547Y0041518D01*
X0049149Y0040119D02*
X0032467Y0040119D01*
X0031886Y0038721D02*
X0047750Y0038721D01*
X0046352Y0037322D02*
X0031886Y0037322D01*
X0032149Y0035923D02*
X0044953Y0035923D01*
X0043555Y0034525D02*
X0031858Y0034525D01*
X0031503Y0033126D02*
X0042156Y0033126D01*
X0040758Y0031728D02*
X0032132Y0031728D01*
X0032149Y0030329D02*
X0039359Y0030329D01*
X0037961Y0028931D02*
X0031612Y0028931D01*
X0031799Y0027532D02*
X0036562Y0027532D01*
X0035164Y0026134D02*
X0032149Y0026134D01*
X0031945Y0024735D02*
X0033765Y0024735D01*
X0032367Y0023337D02*
X0031292Y0023337D01*
X0032815Y0020957D02*
X0053980Y0042122D01*
X0053980Y0051222D01*
X0055380Y0052622D01*
X0059441Y0052622D01*
X0059747Y0052929D01*
X0055495Y0055503D02*
X0049821Y0055503D01*
X0050224Y0056901D02*
X0055495Y0056901D01*
X0055095Y0058300D02*
X0050853Y0058300D01*
X0050853Y0059698D02*
X0055095Y0059698D01*
X0059747Y0059228D02*
X0059747Y0059228D01*
X0064000Y0065292D02*
X0093980Y0065292D01*
X0093980Y0066691D02*
X0064000Y0066691D01*
X0064000Y0068089D02*
X0093980Y0068089D01*
X0093980Y0069488D02*
X0064000Y0069488D01*
X0064000Y0070886D02*
X0093980Y0070886D01*
X0099922Y0077879D02*
X0100451Y0077879D01*
X0102980Y0079222D02*
X0128180Y0079222D01*
X0129580Y0080622D01*
X0121812Y0084130D02*
X0119021Y0086922D01*
X0109980Y0086922D01*
X0112080Y0084822D01*
X0112080Y0083422D01*
X0109980Y0086922D02*
X0070080Y0086922D01*
X0069984Y0086825D01*
X0069984Y0082062D01*
X0095980Y0062422D02*
X0095980Y0060322D01*
X0097074Y0059228D01*
X0101164Y0048510D02*
X0081432Y0048510D01*
X0081432Y0047112D02*
X0101164Y0047112D01*
X0101164Y0045713D02*
X0081432Y0045713D01*
X0081432Y0044315D02*
X0101164Y0044315D01*
X0101164Y0042916D02*
X0081432Y0042916D01*
X0081432Y0041518D02*
X0101603Y0041518D01*
X0100614Y0037322D02*
X0104775Y0037322D01*
X0109230Y0041518D02*
X0115314Y0041518D01*
X0115314Y0042916D02*
X0109669Y0042916D01*
X0122692Y0052706D02*
X0123868Y0052706D01*
X0103680Y0032322D02*
X0103680Y0028441D01*
X0100406Y0025167D01*
X0104706Y0024735D02*
X0106106Y0024735D01*
X0106106Y0026134D02*
X0104706Y0026134D01*
X0105600Y0027532D02*
X0106691Y0027532D01*
X0105680Y0028931D02*
X0108089Y0028931D01*
X0101680Y0030329D02*
X0097180Y0030329D01*
X0097180Y0028931D02*
X0098089Y0028931D01*
X0096691Y0027532D02*
X0095919Y0027532D01*
X0096106Y0026134D02*
X0094880Y0026134D01*
X0095095Y0024735D02*
X0096106Y0024735D01*
X0092235Y0021938D02*
X0074087Y0021938D01*
X0074154Y0021776D02*
X0073721Y0022824D01*
X0072919Y0023625D01*
X0071871Y0024059D01*
X0071283Y0024059D01*
X0068580Y0026762D01*
X0068580Y0032140D01*
X0071133Y0032140D01*
X0071133Y0031240D01*
X0072130Y0030243D01*
X0072130Y0029655D01*
X0072564Y0028607D01*
X0073366Y0027806D01*
X0074413Y0027372D01*
X0075547Y0027372D01*
X0076594Y0027806D01*
X0077396Y0028607D01*
X0077830Y0029655D01*
X0077830Y0030789D01*
X0077396Y0031836D01*
X0077092Y0032140D01*
X0077806Y0032140D01*
X0077858Y0032192D01*
X0077910Y0032140D01*
X0080494Y0032140D01*
X0080554Y0032080D01*
X0080942Y0031856D01*
X0081374Y0031740D01*
X0082582Y0031740D01*
X0083790Y0031740D01*
X0084222Y0031856D01*
X0084610Y0032080D01*
X0084670Y0032140D01*
X0087254Y0032140D01*
X0087306Y0032192D01*
X0087358Y0032140D01*
X0090404Y0032140D01*
X0090456Y0032192D01*
X0090508Y0032140D01*
X0093180Y0032140D01*
X0093180Y0030451D01*
X0090880Y0028150D01*
X0090880Y0023293D01*
X0092052Y0022122D01*
X0096052Y0018122D01*
X0096714Y0018122D01*
X0095706Y0017113D01*
X0095706Y0015467D01*
X0100106Y0015467D01*
X0100106Y0014867D01*
X0095706Y0014867D01*
X0095706Y0013220D01*
X0096273Y0012653D01*
X0066123Y0012653D01*
X0066123Y0023563D01*
X0068454Y0021231D01*
X0068454Y0020642D01*
X0068888Y0019595D01*
X0069690Y0018793D01*
X0070738Y0018359D01*
X0071871Y0018359D01*
X0072919Y0018793D01*
X0073721Y0019595D01*
X0074154Y0020642D01*
X0074154Y0021776D01*
X0074112Y0020540D02*
X0093633Y0020540D01*
X0095032Y0019141D02*
X0073267Y0019141D01*
X0071304Y0021209D02*
X0066580Y0025934D01*
X0066580Y0036139D01*
X0066834Y0036393D01*
X0069984Y0036393D02*
X0069984Y0046225D01*
X0070780Y0047022D01*
X0066580Y0049822D02*
X0059790Y0049822D01*
X0059747Y0049779D01*
X0054034Y0054104D02*
X0050861Y0054104D01*
X0050861Y0052706D02*
X0052635Y0052706D01*
X0047182Y0049909D02*
X0046023Y0049909D01*
X0046023Y0048510D02*
X0047182Y0048510D01*
X0047182Y0047112D02*
X0046023Y0047112D01*
X0043383Y0055503D02*
X0041122Y0055503D01*
X0041122Y0056901D02*
X0042964Y0056901D01*
X0061680Y0038622D02*
X0053980Y0030922D01*
X0052580Y0030922D01*
X0066123Y0023337D02*
X0066348Y0023337D01*
X0066123Y0021938D02*
X0067747Y0021938D01*
X0068497Y0020540D02*
X0066123Y0020540D01*
X0066123Y0019141D02*
X0069342Y0019141D01*
X0066123Y0017743D02*
X0096335Y0017743D01*
X0095706Y0016344D02*
X0066123Y0016344D01*
X0066123Y0014946D02*
X0100106Y0014946D01*
X0100706Y0014946D02*
X0106106Y0014946D01*
X0105106Y0014867D02*
X0100706Y0014867D01*
X0100706Y0015467D01*
X0105106Y0015467D01*
X0105106Y0017113D01*
X0104098Y0018122D01*
X0107280Y0018122D01*
X0106106Y0016948D01*
X0106106Y0013386D01*
X0106838Y0012653D01*
X0104539Y0012653D01*
X0105106Y0013220D01*
X0105106Y0014867D01*
X0105106Y0013547D02*
X0106106Y0013547D01*
X0106106Y0016344D02*
X0105106Y0016344D01*
X0104477Y0017743D02*
X0106901Y0017743D01*
X0106155Y0023337D02*
X0104657Y0023337D01*
X0093059Y0030329D02*
X0077830Y0030329D01*
X0077530Y0028931D02*
X0091661Y0028931D01*
X0090880Y0027532D02*
X0075935Y0027532D01*
X0074025Y0027532D02*
X0068580Y0027532D01*
X0068580Y0028931D02*
X0072430Y0028931D01*
X0072044Y0030329D02*
X0068580Y0030329D01*
X0068580Y0031728D02*
X0071133Y0031728D01*
X0073133Y0032069D02*
X0073133Y0036393D01*
X0073133Y0032069D02*
X0074980Y0030222D01*
X0077441Y0031728D02*
X0093180Y0031728D01*
X0097180Y0031728D02*
X0101680Y0031728D01*
X0090880Y0026134D02*
X0069208Y0026134D01*
X0070607Y0024735D02*
X0090880Y0024735D01*
X0090880Y0023337D02*
X0073207Y0023337D01*
X0082582Y0031740D02*
X0082582Y0036393D01*
X0082582Y0031740D01*
X0082582Y0033126D02*
X0082582Y0033126D01*
X0082582Y0034525D02*
X0082582Y0034525D01*
X0082582Y0035923D02*
X0082582Y0035923D01*
X0082582Y0036393D02*
X0082582Y0036393D01*
X0082582Y0041046D01*
X0082582Y0036393D01*
X0082582Y0036393D01*
X0082582Y0037322D02*
X0082582Y0037322D01*
X0082582Y0038721D02*
X0082582Y0038721D01*
X0082582Y0040119D02*
X0082582Y0040119D01*
X0095706Y0013547D02*
X0066123Y0013547D01*
X0032815Y0020957D02*
X0026093Y0020957D01*
X0152119Y0027532D02*
X0169660Y0027532D01*
X0169660Y0028931D02*
X0153518Y0028931D01*
X0156381Y0030329D02*
X0169660Y0030329D01*
X0169660Y0031728D02*
X0156600Y0031728D01*
X0156600Y0033126D02*
X0169660Y0033126D01*
D25*
X0136580Y0047722D03*
X0137980Y0056822D03*
X0144280Y0072222D03*
X0145680Y0078522D03*
X0111380Y0053322D03*
X0099480Y0065922D03*
X0088280Y0066622D03*
X0033680Y0072222D03*
D26*
X0060980Y0081322D03*
X0068680Y0075022D03*
X0095980Y0073622D03*
X0102980Y0079222D03*
X0112080Y0083422D03*
X0112080Y0063122D03*
X0123980Y0063122D03*
X0107280Y0035922D03*
X0074980Y0030222D03*
X0071304Y0021209D03*
X0052580Y0030922D03*
X0061680Y0038622D03*
X0070780Y0047022D03*
X0066580Y0049822D03*
X0074980Y0043522D03*
D27*
X0130649Y0051715D02*
X0131474Y0051715D01*
X0135180Y0055422D01*
X0135180Y0058222D01*
X0136580Y0059622D01*
X0139380Y0059622D01*
M02*
