G75*
%MOIN*%
%OFA0B0*%
%FSLAX25Y25*%
%IPPOS*%
%LPD*%
%AMOC8*
5,1,8,0,0,1.08239X$1,22.5*
%
%ADD10C,0.00300*%
D10*
X0041985Y0020719D02*
X0042712Y0020719D01*
X0043076Y0021083D01*
X0043076Y0021810D01*
X0042712Y0022174D01*
X0041985Y0022174D01*
X0041621Y0021810D01*
X0041621Y0021446D01*
X0043076Y0021446D01*
X0043888Y0022174D02*
X0044252Y0022174D01*
X0044979Y0021446D01*
X0044979Y0020719D02*
X0044979Y0022174D01*
X0045808Y0022174D02*
X0045808Y0020719D01*
X0046899Y0020719D01*
X0047263Y0021083D01*
X0047263Y0022174D01*
X0048058Y0022174D02*
X0048785Y0022174D01*
X0048422Y0022537D02*
X0048422Y0021083D01*
X0048058Y0020719D01*
X0049614Y0020719D02*
X0050705Y0020719D01*
X0051069Y0021083D01*
X0050705Y0021446D01*
X0049614Y0021446D01*
X0049614Y0021810D02*
X0049614Y0020719D01*
X0049614Y0021810D02*
X0049978Y0022174D01*
X0050705Y0022174D01*
X0051881Y0022174D02*
X0052245Y0022174D01*
X0052972Y0021446D01*
X0052972Y0020719D02*
X0052972Y0022174D01*
X0053801Y0021810D02*
X0053801Y0021446D01*
X0055256Y0021446D01*
X0055256Y0021083D02*
X0055256Y0021810D01*
X0054892Y0022174D01*
X0054165Y0022174D01*
X0053801Y0021810D01*
X0054165Y0020719D02*
X0054892Y0020719D01*
X0055256Y0021083D01*
X0056085Y0021083D02*
X0056449Y0020719D01*
X0057540Y0020719D01*
X0057540Y0019992D02*
X0057540Y0022174D01*
X0056449Y0022174D01*
X0056085Y0021810D01*
X0056085Y0021083D01*
X0058369Y0020719D02*
X0058369Y0021810D01*
X0058733Y0022174D01*
X0059096Y0021810D01*
X0059096Y0020719D01*
X0059824Y0020719D02*
X0059824Y0022174D01*
X0059460Y0022174D01*
X0059096Y0021810D01*
X0060653Y0021810D02*
X0061017Y0022174D01*
X0061744Y0022174D01*
X0062108Y0021810D01*
X0062108Y0021083D01*
X0061744Y0020719D01*
X0061017Y0020719D01*
X0060653Y0021446D02*
X0062108Y0021446D01*
X0060653Y0021446D02*
X0060653Y0021810D01*
X0062937Y0022901D02*
X0064391Y0022901D01*
X0063664Y0022901D02*
X0063664Y0020719D01*
X0059316Y0018537D02*
X0059316Y0018174D01*
X0058952Y0017810D01*
X0058225Y0017810D01*
X0057861Y0017446D01*
X0057861Y0017083D01*
X0058225Y0016719D01*
X0058952Y0016719D01*
X0059316Y0017083D01*
X0059316Y0018537D02*
X0058952Y0018901D01*
X0058225Y0018901D01*
X0057861Y0018537D01*
X0057032Y0017810D02*
X0056668Y0018174D01*
X0055941Y0018174D01*
X0055577Y0017810D01*
X0055577Y0017446D01*
X0057032Y0017446D01*
X0057032Y0017083D02*
X0057032Y0017810D01*
X0057032Y0017083D02*
X0056668Y0016719D01*
X0055941Y0016719D01*
X0054748Y0016719D02*
X0054748Y0018174D01*
X0053657Y0018174D01*
X0053293Y0017810D01*
X0053293Y0016719D01*
X0052464Y0016719D02*
X0051373Y0016719D01*
X0051010Y0017083D01*
X0051373Y0017446D01*
X0052101Y0017446D01*
X0052464Y0017810D01*
X0052101Y0018174D01*
X0051010Y0018174D01*
X0050181Y0017810D02*
X0050181Y0017083D01*
X0049817Y0016719D01*
X0049089Y0016719D01*
X0048726Y0017083D01*
X0048726Y0017810D01*
X0049089Y0018174D01*
X0049817Y0018174D01*
X0050181Y0017810D01*
X0047897Y0017446D02*
X0047169Y0018174D01*
X0046806Y0018174D01*
X0047897Y0018174D02*
X0047897Y0016719D01*
X0049507Y0013889D02*
X0049143Y0013526D01*
X0050598Y0012071D01*
X0050234Y0011707D01*
X0049507Y0011707D01*
X0049143Y0012071D01*
X0049143Y0013526D01*
X0049507Y0013889D02*
X0050234Y0013889D01*
X0050598Y0013526D01*
X0050598Y0012071D01*
X0051376Y0012071D02*
X0051376Y0011707D01*
X0051740Y0011707D01*
X0051740Y0012071D01*
X0051376Y0012071D01*
X0052569Y0011707D02*
X0054024Y0011707D01*
X0053296Y0011707D02*
X0053296Y0013889D01*
X0054024Y0013162D01*
X0057137Y0012435D02*
X0057137Y0013889D01*
X0057137Y0012435D02*
X0057864Y0011707D01*
X0058591Y0012435D01*
X0058591Y0013889D01*
M02*
