G75*
%MOIN*%
%OFA0B0*%
%FSLAX25Y25*%
%IPPOS*%
%LPD*%
%AMOC8*
5,1,8,0,0,1.08239X$1,22.5*
%
%ADD10OC8,0.06800*%
%ADD11C,0.05556*%
%ADD12C,0.06800*%
%ADD13R,0.08674X0.04737*%
%ADD14R,0.04737X0.08674*%
%ADD15R,0.05918X0.06706*%
%ADD16R,0.06706X0.05918*%
%ADD17R,0.05524X0.05524*%
%ADD18C,0.03700*%
%ADD19C,0.03900*%
D10*
X0084350Y0100406D03*
X0084350Y0110406D03*
X0084350Y0120406D03*
X0094350Y0120406D03*
X0094350Y0110406D03*
X0094350Y0100406D03*
D11*
X0088559Y0028471D02*
X0088559Y0023715D01*
X0083559Y0023715D02*
X0083559Y0028471D01*
X0078559Y0028471D02*
X0078559Y0023715D01*
X0073559Y0023715D02*
X0073559Y0028471D01*
X0068559Y0028471D02*
X0068559Y0023715D01*
X0063559Y0023715D02*
X0063559Y0028471D01*
X0058559Y0028471D02*
X0058559Y0023715D01*
X0053559Y0023715D02*
X0053559Y0028471D01*
X0048559Y0028471D02*
X0048559Y0023715D01*
X0043559Y0023715D02*
X0043559Y0028471D01*
X0038559Y0028471D02*
X0038559Y0023715D01*
X0033559Y0023715D02*
X0033559Y0028471D01*
X0028559Y0028471D02*
X0028559Y0023715D01*
D12*
X0027439Y0134479D02*
X0033439Y0134479D01*
X0033439Y0144479D02*
X0027439Y0144479D01*
D13*
X0039042Y0155391D03*
X0039042Y0161297D03*
X0039042Y0167202D03*
X0039042Y0173108D03*
X0039042Y0179013D03*
X0039042Y0184919D03*
X0039042Y0190824D03*
X0039042Y0196730D03*
X0039042Y0202635D03*
X0039042Y0208541D03*
X0039042Y0214446D03*
X0039042Y0220352D03*
X0039042Y0226257D03*
X0090448Y0226257D03*
X0090448Y0220352D03*
X0090448Y0214446D03*
X0090448Y0208541D03*
X0090448Y0202635D03*
X0090448Y0196730D03*
X0090448Y0190824D03*
X0090448Y0184919D03*
X0090448Y0179013D03*
X0090448Y0173108D03*
X0090448Y0167202D03*
X0090448Y0161297D03*
X0090448Y0155391D03*
D14*
X0085448Y0148344D03*
X0079542Y0148344D03*
X0073637Y0148344D03*
X0067731Y0148344D03*
X0061826Y0148344D03*
X0055920Y0148344D03*
X0050015Y0148344D03*
X0044161Y0148344D03*
D15*
X0086054Y0137365D03*
X0093535Y0137365D03*
D16*
X0028979Y0154540D03*
X0028979Y0162020D03*
X0028909Y0172040D03*
X0028909Y0179520D03*
D17*
X0028894Y0189146D03*
X0028894Y0197414D03*
D18*
X0049894Y0163080D03*
X0042794Y0034380D03*
D19*
X0024694Y0053980D03*
X0023994Y0060980D03*
X0034494Y0068680D03*
X0037294Y0081980D03*
X0035894Y0095980D03*
X0028194Y0105080D03*
X0044294Y0113480D03*
X0046394Y0123980D03*
X0056894Y0095980D03*
X0059694Y0088980D03*
X0063894Y0081280D03*
X0070894Y0061680D03*
X0078594Y0052580D03*
X0089094Y0066580D03*
X0083294Y0074580D03*
X0075794Y0106480D03*
X0064594Y0112080D03*
X0061094Y0137280D03*
X0069494Y0160380D03*
X0075794Y0136580D03*
X0049894Y0070780D03*
X0054094Y0214980D03*
X0069494Y0219880D03*
X0026094Y0219880D03*
M02*
