G75*
%MOIN*%
%OFA0B0*%
%FSLAX25Y25*%
%IPPOS*%
%LPD*%
%AMOC8*
5,1,8,0,0,1.08239X$1,22.5*
%
%ADD10R,0.05906X0.05118*%
%ADD11R,0.05118X0.05906*%
%ADD12R,0.06299X0.05512*%
%ADD13R,0.05906X0.01969*%
%ADD14R,0.01969X0.05906*%
%ADD15R,0.01969X0.04424*%
%ADD16R,0.04424X0.01969*%
%ADD17R,0.04300X0.07900*%
D10*
X0027086Y0039915D03*
X0027086Y0047396D03*
X0037405Y0046594D03*
X0037405Y0039114D03*
X0048329Y0039114D03*
X0048329Y0046594D03*
X0058548Y0046602D03*
X0058548Y0039122D03*
X0040210Y0121104D03*
X0040210Y0128585D03*
X0075476Y0145261D03*
X0075476Y0152741D03*
D11*
X0057801Y0130649D03*
X0058464Y0118039D03*
X0050983Y0118039D03*
X0050320Y0130649D03*
D12*
X0069117Y0130793D03*
X0069117Y0119770D03*
D13*
X0073123Y0098330D03*
X0073123Y0095180D03*
X0073123Y0092031D03*
X0073123Y0088881D03*
X0073123Y0085732D03*
X0073123Y0082582D03*
X0073123Y0079432D03*
X0073123Y0076283D03*
X0073123Y0073133D03*
X0073123Y0069984D03*
X0073123Y0066834D03*
X0027454Y0066834D03*
X0027454Y0069984D03*
X0027454Y0073133D03*
X0027454Y0076283D03*
X0027454Y0079432D03*
X0027454Y0082582D03*
X0027454Y0085732D03*
X0027454Y0088881D03*
X0027454Y0092031D03*
X0027454Y0095180D03*
X0027454Y0098330D03*
D14*
X0034540Y0105417D03*
X0037690Y0105417D03*
X0040840Y0105417D03*
X0043989Y0105417D03*
X0047139Y0105417D03*
X0050288Y0105417D03*
X0053438Y0105417D03*
X0056588Y0105417D03*
X0059737Y0105417D03*
X0062887Y0105417D03*
X0066036Y0105417D03*
X0066036Y0059747D03*
X0062887Y0059747D03*
X0059737Y0059747D03*
X0056588Y0059747D03*
X0053438Y0059747D03*
X0050288Y0059747D03*
X0047139Y0059747D03*
X0043989Y0059747D03*
X0040840Y0059747D03*
X0037690Y0059747D03*
X0034540Y0059747D03*
D15*
X0049322Y0143060D03*
X0052471Y0143060D03*
X0055621Y0143060D03*
X0058770Y0143060D03*
X0061920Y0143060D03*
X0065070Y0143060D03*
X0065070Y0151991D03*
X0061920Y0152021D03*
X0058770Y0152021D03*
X0055621Y0152021D03*
X0052471Y0152021D03*
X0049322Y0152021D03*
D16*
X0048928Y0147540D03*
X0065463Y0147540D03*
D17*
X0090965Y0131988D03*
X0090965Y0167388D03*
M02*
