G75*
%MOIN*%
%OFA0B0*%
%FSLAX25Y25*%
%IPPOS*%
%LPD*%
%AMOC8*
5,1,8,0,0,1.08239X$1,22.5*
%
%ADD10R,0.33600X0.17500*%
%ADD11OC8,0.06000*%
%ADD12C,0.04756*%
%ADD13C,0.06000*%
%ADD14R,0.07874X0.03937*%
%ADD15R,0.03937X0.07874*%
%ADD16R,0.05118X0.05906*%
%ADD17R,0.05906X0.05118*%
%ADD18R,0.04724X0.04724*%
%ADD19C,0.01400*%
%ADD20C,0.02900*%
%ADD21C,0.03100*%
D10*
X0065363Y0241730D03*
D11*
X0084350Y0120406D03*
X0084350Y0110406D03*
X0084350Y0100406D03*
X0094350Y0100406D03*
X0094350Y0110406D03*
X0094350Y0120406D03*
D12*
X0088559Y0028471D02*
X0088559Y0023715D01*
X0083559Y0023715D02*
X0083559Y0028471D01*
X0078559Y0028471D02*
X0078559Y0023715D01*
X0073559Y0023715D02*
X0073559Y0028471D01*
X0068559Y0028471D02*
X0068559Y0023715D01*
X0063559Y0023715D02*
X0063559Y0028471D01*
X0058559Y0028471D02*
X0058559Y0023715D01*
X0053559Y0023715D02*
X0053559Y0028471D01*
X0048559Y0028471D02*
X0048559Y0023715D01*
X0043559Y0023715D02*
X0043559Y0028471D01*
X0038559Y0028471D02*
X0038559Y0023715D01*
X0033559Y0023715D02*
X0033559Y0028471D01*
X0028559Y0028471D02*
X0028559Y0023715D01*
D13*
X0027439Y0134479D02*
X0033439Y0134479D01*
X0033439Y0144479D02*
X0027439Y0144479D01*
D14*
X0039042Y0155391D03*
X0039042Y0161297D03*
X0039042Y0167202D03*
X0039042Y0173108D03*
X0039042Y0179013D03*
X0039042Y0184919D03*
X0039042Y0190824D03*
X0039042Y0196730D03*
X0039042Y0202635D03*
X0039042Y0208541D03*
X0039042Y0214446D03*
X0039042Y0220352D03*
X0039042Y0226257D03*
X0090448Y0226257D03*
X0090448Y0220352D03*
X0090448Y0214446D03*
X0090448Y0208541D03*
X0090448Y0202635D03*
X0090448Y0196730D03*
X0090448Y0190824D03*
X0090448Y0184919D03*
X0090448Y0179013D03*
X0090448Y0173108D03*
X0090448Y0167202D03*
X0090448Y0161297D03*
X0090448Y0155391D03*
D15*
X0085448Y0148344D03*
X0079542Y0148344D03*
X0073637Y0148344D03*
X0067731Y0148344D03*
X0061826Y0148344D03*
X0055920Y0148344D03*
X0050015Y0148344D03*
X0044161Y0148344D03*
D16*
X0086054Y0137365D03*
X0093535Y0137365D03*
D17*
X0028979Y0154540D03*
X0028979Y0162020D03*
X0028909Y0172040D03*
X0028909Y0179520D03*
D18*
X0028894Y0189146D03*
X0028894Y0197414D03*
D19*
X0021617Y0059185D02*
X0021617Y0019612D01*
X0096863Y0019612D01*
X0096863Y0096273D01*
X0096296Y0095706D01*
X0094650Y0095706D01*
X0094650Y0100106D01*
X0094049Y0100106D01*
X0094049Y0095706D01*
X0092403Y0095706D01*
X0091194Y0096914D01*
X0091194Y0068652D01*
X0091595Y0068251D01*
X0092044Y0067167D01*
X0092044Y0065993D01*
X0091595Y0064909D01*
X0090765Y0064079D01*
X0089681Y0063630D01*
X0089114Y0063630D01*
X0085659Y0060175D01*
X0085659Y0031690D01*
X0085699Y0031673D01*
X0086059Y0031313D01*
X0086419Y0031673D01*
X0087807Y0032249D01*
X0089310Y0032249D01*
X0090699Y0031673D01*
X0091762Y0030611D01*
X0092337Y0029222D01*
X0092337Y0022963D01*
X0091762Y0021575D01*
X0090699Y0020512D01*
X0089310Y0019937D01*
X0087807Y0019937D01*
X0086419Y0020512D01*
X0086059Y0020872D01*
X0085699Y0020512D01*
X0084310Y0019937D01*
X0082807Y0019937D01*
X0081419Y0020512D01*
X0081059Y0020872D01*
X0080699Y0020512D01*
X0079310Y0019937D01*
X0077807Y0019937D01*
X0076419Y0020512D01*
X0076059Y0020872D01*
X0075699Y0020512D01*
X0074310Y0019937D01*
X0072807Y0019937D01*
X0071419Y0020512D01*
X0071271Y0020660D01*
X0071216Y0020604D01*
X0070696Y0020227D01*
X0070124Y0019935D01*
X0069514Y0019737D01*
X0068880Y0019637D01*
X0068559Y0019637D01*
X0068559Y0026092D01*
X0068559Y0026092D01*
X0068559Y0019637D01*
X0068238Y0019637D01*
X0067604Y0019737D01*
X0066994Y0019935D01*
X0066422Y0020227D01*
X0065902Y0020604D01*
X0065847Y0020660D01*
X0065699Y0020512D01*
X0064310Y0019937D01*
X0062807Y0019937D01*
X0061419Y0020512D01*
X0061059Y0020872D01*
X0060699Y0020512D01*
X0059310Y0019937D01*
X0057807Y0019937D01*
X0056419Y0020512D01*
X0056059Y0020872D01*
X0055699Y0020512D01*
X0054310Y0019937D01*
X0052807Y0019937D01*
X0051419Y0020512D01*
X0051059Y0020872D01*
X0050699Y0020512D01*
X0049310Y0019937D01*
X0047807Y0019937D01*
X0046419Y0020512D01*
X0046059Y0020872D01*
X0045699Y0020512D01*
X0044310Y0019937D01*
X0042807Y0019937D01*
X0041419Y0020512D01*
X0041059Y0020872D01*
X0040699Y0020512D01*
X0039310Y0019937D01*
X0037807Y0019937D01*
X0036419Y0020512D01*
X0036059Y0020872D01*
X0035699Y0020512D01*
X0034310Y0019937D01*
X0032807Y0019937D01*
X0031419Y0020512D01*
X0031059Y0020872D01*
X0030699Y0020512D01*
X0029310Y0019937D01*
X0027807Y0019937D01*
X0026419Y0020512D01*
X0025356Y0021575D01*
X0024781Y0022963D01*
X0024781Y0029222D01*
X0025356Y0030611D01*
X0026419Y0031673D01*
X0026459Y0031690D01*
X0026459Y0032114D01*
X0030294Y0035950D01*
X0030294Y0052050D01*
X0033625Y0055380D01*
X0047625Y0055380D01*
X0047794Y0055550D01*
X0047794Y0068708D01*
X0047394Y0069109D01*
X0046944Y0070193D01*
X0046944Y0071367D01*
X0047394Y0072451D01*
X0048223Y0073281D01*
X0049308Y0073730D01*
X0050481Y0073730D01*
X0051565Y0073281D01*
X0052395Y0072451D01*
X0052844Y0071367D01*
X0052844Y0070193D01*
X0052395Y0069109D01*
X0051994Y0068708D01*
X0051994Y0053810D01*
X0050594Y0052410D01*
X0049364Y0051180D01*
X0035364Y0051180D01*
X0034494Y0050310D01*
X0034494Y0034210D01*
X0033264Y0032980D01*
X0032338Y0032054D01*
X0032807Y0032249D01*
X0034310Y0032249D01*
X0035699Y0031673D01*
X0036059Y0031313D01*
X0036419Y0031673D01*
X0037807Y0032249D01*
X0039310Y0032249D01*
X0040699Y0031673D01*
X0041059Y0031313D01*
X0041419Y0031673D01*
X0042807Y0032249D01*
X0044310Y0032249D01*
X0045699Y0031673D01*
X0046059Y0031313D01*
X0046419Y0031673D01*
X0047807Y0032249D01*
X0049310Y0032249D01*
X0050699Y0031673D01*
X0051059Y0031313D01*
X0051419Y0031673D01*
X0052807Y0032249D01*
X0054310Y0032249D01*
X0055699Y0031673D01*
X0056059Y0031313D01*
X0056419Y0031673D01*
X0057807Y0032249D01*
X0059310Y0032249D01*
X0060699Y0031673D01*
X0061059Y0031313D01*
X0061419Y0031673D01*
X0062807Y0032249D01*
X0064310Y0032249D01*
X0065699Y0031673D01*
X0065847Y0031526D01*
X0065902Y0031581D01*
X0066422Y0031958D01*
X0066994Y0032250D01*
X0067604Y0032448D01*
X0068238Y0032549D01*
X0068559Y0032549D01*
X0068559Y0026093D01*
X0068559Y0026093D01*
X0068559Y0032549D01*
X0068880Y0032549D01*
X0069514Y0032448D01*
X0070124Y0032250D01*
X0070696Y0031958D01*
X0071216Y0031581D01*
X0071271Y0031526D01*
X0071419Y0031673D01*
X0071459Y0031690D01*
X0071459Y0057514D01*
X0081194Y0067250D01*
X0081194Y0072508D01*
X0080794Y0072909D01*
X0080344Y0073993D01*
X0080344Y0074560D01*
X0077194Y0077710D01*
X0077194Y0103867D01*
X0076894Y0103743D01*
X0076894Y0096110D01*
X0075664Y0094880D01*
X0065994Y0085210D01*
X0065994Y0083352D01*
X0066395Y0082951D01*
X0066844Y0081867D01*
X0066844Y0080693D01*
X0066395Y0079609D01*
X0065565Y0078779D01*
X0064481Y0078330D01*
X0063308Y0078330D01*
X0062223Y0078779D01*
X0061794Y0079208D01*
X0061794Y0077250D01*
X0071764Y0067280D01*
X0071764Y0067280D01*
X0072994Y0066050D01*
X0072994Y0063752D01*
X0073395Y0063351D01*
X0073844Y0062267D01*
X0073844Y0061093D01*
X0073395Y0060009D01*
X0072565Y0059179D01*
X0071481Y0058730D01*
X0070308Y0058730D01*
X0069223Y0059179D01*
X0068394Y0060009D01*
X0067944Y0061093D01*
X0067944Y0062267D01*
X0068394Y0063351D01*
X0068794Y0063752D01*
X0068794Y0064310D01*
X0058825Y0074280D01*
X0058825Y0074280D01*
X0057594Y0075510D01*
X0057594Y0086908D01*
X0057194Y0087309D01*
X0056744Y0088393D01*
X0056744Y0089567D01*
X0057194Y0090651D01*
X0057594Y0091052D01*
X0057594Y0092650D01*
X0058323Y0093379D01*
X0057481Y0093030D01*
X0056308Y0093030D01*
X0055223Y0093479D01*
X0054394Y0094309D01*
X0053944Y0095393D01*
X0053944Y0096567D01*
X0054394Y0097651D01*
X0054794Y0098052D01*
X0054794Y0098250D01*
X0073694Y0117150D01*
X0073694Y0134508D01*
X0073294Y0134909D01*
X0072844Y0135993D01*
X0072844Y0137167D01*
X0073294Y0138251D01*
X0074123Y0139081D01*
X0075208Y0139530D01*
X0076381Y0139530D01*
X0077465Y0139081D01*
X0078295Y0138251D01*
X0078744Y0137167D01*
X0078744Y0135993D01*
X0078295Y0134909D01*
X0077894Y0134508D01*
X0077894Y0116921D01*
X0079950Y0118976D01*
X0079950Y0122229D01*
X0082527Y0124806D01*
X0086172Y0124806D01*
X0088750Y0122229D01*
X0088750Y0118583D01*
X0086172Y0116006D01*
X0082919Y0116006D01*
X0076343Y0109430D01*
X0076381Y0109430D01*
X0077465Y0108981D01*
X0078295Y0108151D01*
X0078538Y0107565D01*
X0079950Y0108976D01*
X0079950Y0112229D01*
X0082527Y0114806D01*
X0086172Y0114806D01*
X0088750Y0112229D01*
X0088750Y0108583D01*
X0086172Y0106006D01*
X0082919Y0106006D01*
X0081394Y0104481D01*
X0081394Y0103673D01*
X0082527Y0104806D01*
X0086172Y0104806D01*
X0086994Y0103984D01*
X0086994Y0106021D01*
X0088225Y0107251D01*
X0089950Y0108976D01*
X0089950Y0112229D01*
X0092527Y0114806D01*
X0096172Y0114806D01*
X0096863Y0114115D01*
X0096863Y0116697D01*
X0096172Y0116006D01*
X0092527Y0116006D01*
X0089950Y0118583D01*
X0089950Y0122229D01*
X0092527Y0124806D01*
X0096172Y0124806D01*
X0096863Y0124115D01*
X0096863Y0133202D01*
X0096674Y0133012D01*
X0090396Y0133012D01*
X0089998Y0133410D01*
X0089974Y0133368D01*
X0089657Y0133052D01*
X0089269Y0132828D01*
X0088837Y0132712D01*
X0086634Y0132712D01*
X0086634Y0136785D01*
X0085475Y0136785D01*
X0085475Y0132712D01*
X0083271Y0132712D01*
X0082839Y0132828D01*
X0082451Y0133052D01*
X0082135Y0133368D01*
X0081911Y0133756D01*
X0081795Y0134188D01*
X0081795Y0136786D01*
X0085475Y0136786D01*
X0085475Y0137945D01*
X0085475Y0142018D01*
X0083271Y0142018D01*
X0082839Y0141902D01*
X0082451Y0141678D01*
X0082135Y0141362D01*
X0081911Y0140974D01*
X0081795Y0140542D01*
X0081795Y0137945D01*
X0085475Y0137945D01*
X0086634Y0137945D01*
X0086634Y0142018D01*
X0088837Y0142018D01*
X0089269Y0141902D01*
X0089657Y0141678D01*
X0089974Y0141362D01*
X0089998Y0141320D01*
X0090396Y0141718D01*
X0094917Y0141718D01*
X0095394Y0142195D01*
X0095394Y0152042D01*
X0095041Y0151838D01*
X0094609Y0151723D01*
X0090732Y0151723D01*
X0090732Y0155107D01*
X0090164Y0155107D01*
X0090164Y0151723D01*
X0088816Y0151723D01*
X0088816Y0143827D01*
X0087996Y0143007D01*
X0082900Y0143007D01*
X0082495Y0143411D01*
X0082091Y0143007D01*
X0076994Y0143007D01*
X0076590Y0143411D01*
X0076185Y0143007D01*
X0071089Y0143007D01*
X0070684Y0143411D01*
X0070280Y0143007D01*
X0065183Y0143007D01*
X0064779Y0143411D01*
X0064374Y0143007D01*
X0059277Y0143007D01*
X0058873Y0143411D01*
X0058469Y0143007D01*
X0053372Y0143007D01*
X0052968Y0143411D01*
X0052563Y0143007D01*
X0047466Y0143007D01*
X0047300Y0143173D01*
X0047173Y0143046D01*
X0046785Y0142823D01*
X0046353Y0142707D01*
X0044445Y0142707D01*
X0044445Y0148059D01*
X0043876Y0148059D01*
X0043876Y0142707D01*
X0042194Y0142707D01*
X0042194Y0128710D01*
X0040964Y0127480D01*
X0030294Y0116810D01*
X0030294Y0107152D01*
X0030695Y0106751D01*
X0031144Y0105667D01*
X0031144Y0105100D01*
X0037994Y0098250D01*
X0037994Y0098052D01*
X0038395Y0097651D01*
X0038844Y0096567D01*
X0038844Y0095393D01*
X0038395Y0094309D01*
X0037565Y0093479D01*
X0036481Y0093030D01*
X0035308Y0093030D01*
X0034223Y0093479D01*
X0033394Y0094309D01*
X0032944Y0095393D01*
X0032944Y0096567D01*
X0033177Y0097128D01*
X0028175Y0102130D01*
X0027608Y0102130D01*
X0026523Y0102579D01*
X0025694Y0103409D01*
X0025244Y0104493D01*
X0025244Y0105667D01*
X0025694Y0106751D01*
X0026094Y0107152D01*
X0026094Y0118550D01*
X0037994Y0130450D01*
X0037994Y0143289D01*
X0037795Y0142675D01*
X0037459Y0142016D01*
X0037024Y0141417D01*
X0036501Y0140894D01*
X0035903Y0140459D01*
X0035243Y0140124D01*
X0034540Y0139895D01*
X0033809Y0139779D01*
X0030739Y0139779D01*
X0030739Y0144179D01*
X0030139Y0144179D01*
X0030139Y0139779D01*
X0027069Y0139779D01*
X0026339Y0139895D01*
X0025635Y0140124D01*
X0024976Y0140459D01*
X0024694Y0140664D01*
X0024694Y0137957D01*
X0024947Y0138209D01*
X0026564Y0138879D01*
X0034314Y0138879D01*
X0035932Y0138209D01*
X0037169Y0136972D01*
X0037839Y0135354D01*
X0037839Y0133604D01*
X0037169Y0131987D01*
X0035932Y0130749D01*
X0034314Y0130079D01*
X0026564Y0130079D01*
X0024947Y0130749D01*
X0024694Y0131002D01*
X0024694Y0063883D01*
X0025665Y0063481D01*
X0026495Y0062651D01*
X0026944Y0061567D01*
X0026944Y0060393D01*
X0026495Y0059309D01*
X0025665Y0058479D01*
X0024581Y0058030D01*
X0023408Y0058030D01*
X0022323Y0058479D01*
X0021617Y0059185D01*
X0021617Y0058265D02*
X0022839Y0058265D01*
X0023955Y0056867D02*
X0021617Y0056867D01*
X0022194Y0055651D02*
X0021744Y0054567D01*
X0021744Y0053393D01*
X0022194Y0052309D01*
X0023023Y0051479D01*
X0024108Y0051030D01*
X0025281Y0051030D01*
X0026365Y0051479D01*
X0026766Y0051880D01*
X0029764Y0051880D01*
X0030994Y0053110D01*
X0033794Y0055910D01*
X0033794Y0062910D01*
X0036594Y0065710D01*
X0036594Y0066608D01*
X0036995Y0067009D01*
X0037444Y0068093D01*
X0037444Y0069267D01*
X0036995Y0070351D01*
X0036165Y0071181D01*
X0035081Y0071630D01*
X0033908Y0071630D01*
X0032823Y0071181D01*
X0031994Y0070351D01*
X0031544Y0069267D01*
X0031544Y0068093D01*
X0031982Y0067037D01*
X0030825Y0065880D01*
X0029594Y0064650D01*
X0029594Y0057650D01*
X0028025Y0056080D01*
X0026766Y0056080D01*
X0026365Y0056481D01*
X0025281Y0056930D01*
X0024108Y0056930D01*
X0023023Y0056481D01*
X0022194Y0055651D01*
X0022118Y0055468D02*
X0021617Y0055468D01*
X0021617Y0054070D02*
X0021744Y0054070D01*
X0021617Y0052671D02*
X0022043Y0052671D01*
X0021617Y0051273D02*
X0023521Y0051273D01*
X0024694Y0053980D02*
X0028894Y0053980D01*
X0031694Y0056780D01*
X0031694Y0063780D01*
X0034494Y0066580D01*
X0034494Y0068680D01*
X0036142Y0065258D02*
X0047794Y0065258D01*
X0047794Y0066656D02*
X0036643Y0066656D01*
X0037429Y0068055D02*
X0047794Y0068055D01*
X0047251Y0069453D02*
X0037367Y0069453D01*
X0036494Y0070852D02*
X0046944Y0070852D01*
X0047310Y0072250D02*
X0024694Y0072250D01*
X0024694Y0070852D02*
X0032494Y0070852D01*
X0031622Y0069453D02*
X0024694Y0069453D01*
X0024694Y0068055D02*
X0031560Y0068055D01*
X0031601Y0066656D02*
X0024694Y0066656D01*
X0024694Y0065258D02*
X0030202Y0065258D01*
X0029594Y0063859D02*
X0024752Y0063859D01*
X0022594Y0062380D02*
X0023994Y0060980D01*
X0022594Y0062380D02*
X0022594Y0215680D01*
X0026094Y0219880D01*
X0026370Y0216930D02*
X0026681Y0216930D01*
X0027765Y0217379D01*
X0028595Y0218209D01*
X0029044Y0219293D01*
X0029044Y0220467D01*
X0028595Y0221551D01*
X0027765Y0222381D01*
X0026681Y0222830D01*
X0025508Y0222830D01*
X0024423Y0222381D01*
X0023594Y0221551D01*
X0023144Y0220467D01*
X0023144Y0219620D01*
X0021617Y0217788D01*
X0021617Y0250369D01*
X0047163Y0250369D01*
X0047163Y0232400D01*
X0047983Y0231580D01*
X0082743Y0231580D01*
X0083563Y0232400D01*
X0083563Y0250369D01*
X0096863Y0250369D01*
X0096863Y0163397D01*
X0095785Y0163397D01*
X0095785Y0163845D01*
X0095381Y0164249D01*
X0095785Y0164654D01*
X0095785Y0169750D01*
X0095381Y0170155D01*
X0095785Y0170559D01*
X0095785Y0175656D01*
X0095381Y0176060D01*
X0095785Y0176465D01*
X0095785Y0181561D01*
X0095381Y0181966D01*
X0095785Y0182370D01*
X0095785Y0187467D01*
X0095381Y0187871D01*
X0095785Y0188276D01*
X0095785Y0193373D01*
X0095381Y0193777D01*
X0095785Y0194181D01*
X0095785Y0199278D01*
X0095381Y0199682D01*
X0095785Y0200087D01*
X0095785Y0205184D01*
X0095381Y0205588D01*
X0095785Y0205992D01*
X0095785Y0211089D01*
X0095381Y0211493D01*
X0095785Y0211898D01*
X0095785Y0216995D01*
X0095381Y0217399D01*
X0095785Y0217803D01*
X0095785Y0222900D01*
X0095381Y0223304D01*
X0095785Y0223709D01*
X0095785Y0228806D01*
X0094965Y0229626D01*
X0085931Y0229626D01*
X0085111Y0228806D01*
X0085111Y0228357D01*
X0058202Y0228357D01*
X0051994Y0222150D01*
X0051994Y0217052D01*
X0051594Y0216651D01*
X0051144Y0215567D01*
X0051144Y0214393D01*
X0051594Y0213309D01*
X0052423Y0212479D01*
X0053508Y0212030D01*
X0054681Y0212030D01*
X0055765Y0212479D01*
X0056595Y0213309D01*
X0057044Y0214393D01*
X0057044Y0215567D01*
X0056595Y0216651D01*
X0056194Y0217052D01*
X0056194Y0220410D01*
X0059941Y0224157D01*
X0085111Y0224157D01*
X0085111Y0223709D01*
X0085515Y0223304D01*
X0085111Y0222900D01*
X0085111Y0222452D01*
X0070995Y0222452D01*
X0070081Y0222830D01*
X0068908Y0222830D01*
X0067823Y0222381D01*
X0066994Y0221551D01*
X0066544Y0220467D01*
X0066544Y0219293D01*
X0066994Y0218209D01*
X0067823Y0217379D01*
X0068908Y0216930D01*
X0070081Y0216930D01*
X0071165Y0217379D01*
X0071995Y0218209D01*
X0072013Y0218252D01*
X0085111Y0218252D01*
X0085111Y0217803D01*
X0085515Y0217399D01*
X0085111Y0216995D01*
X0085111Y0211898D01*
X0085515Y0211493D01*
X0085111Y0211089D01*
X0085111Y0205992D01*
X0085515Y0205588D01*
X0085111Y0205184D01*
X0085111Y0200087D01*
X0085515Y0199682D01*
X0085111Y0199278D01*
X0085111Y0194181D01*
X0085515Y0193777D01*
X0085111Y0193373D01*
X0085111Y0188276D01*
X0085515Y0187871D01*
X0085111Y0187467D01*
X0085111Y0182370D01*
X0085515Y0181966D01*
X0085111Y0181561D01*
X0085111Y0176465D01*
X0085515Y0176060D01*
X0085111Y0175656D01*
X0085111Y0170559D01*
X0085515Y0170155D01*
X0085111Y0169750D01*
X0085111Y0164654D01*
X0085515Y0164249D01*
X0085111Y0163845D01*
X0085111Y0163397D01*
X0069541Y0163397D01*
X0069475Y0163330D01*
X0068908Y0163330D01*
X0067823Y0162881D01*
X0066994Y0162051D01*
X0066544Y0160967D01*
X0066544Y0159793D01*
X0066994Y0158709D01*
X0067823Y0157879D01*
X0068908Y0157430D01*
X0070081Y0157430D01*
X0071165Y0157879D01*
X0071995Y0158709D01*
X0072197Y0159197D01*
X0085111Y0159197D01*
X0085111Y0158748D01*
X0085303Y0158556D01*
X0085151Y0158403D01*
X0084927Y0158016D01*
X0084811Y0157583D01*
X0084811Y0155675D01*
X0090164Y0155675D01*
X0090164Y0155107D01*
X0084811Y0155107D01*
X0084811Y0153681D01*
X0082900Y0153681D01*
X0082495Y0153276D01*
X0082091Y0153681D01*
X0076994Y0153681D01*
X0076590Y0153276D01*
X0076185Y0153681D01*
X0071089Y0153681D01*
X0070684Y0153276D01*
X0070280Y0153681D01*
X0065183Y0153681D01*
X0064779Y0153276D01*
X0064374Y0153681D01*
X0059277Y0153681D01*
X0058873Y0153276D01*
X0058469Y0153681D01*
X0053372Y0153681D01*
X0052968Y0153276D01*
X0052563Y0153681D01*
X0047466Y0153681D01*
X0047300Y0153514D01*
X0047173Y0153641D01*
X0046785Y0153865D01*
X0046353Y0153981D01*
X0044679Y0153981D01*
X0044679Y0155107D01*
X0039327Y0155107D01*
X0039327Y0155675D01*
X0044679Y0155675D01*
X0044679Y0157583D01*
X0044564Y0158016D01*
X0044340Y0158403D01*
X0044187Y0158556D01*
X0044379Y0158748D01*
X0044379Y0163845D01*
X0043975Y0164249D01*
X0044379Y0164654D01*
X0044379Y0169750D01*
X0043975Y0170155D01*
X0044379Y0170559D01*
X0044379Y0175656D01*
X0043975Y0176060D01*
X0044379Y0176465D01*
X0044379Y0181561D01*
X0043975Y0181966D01*
X0044379Y0182370D01*
X0044379Y0187467D01*
X0043975Y0187871D01*
X0044379Y0188276D01*
X0044379Y0193373D01*
X0043975Y0193777D01*
X0044379Y0194181D01*
X0044379Y0199278D01*
X0043975Y0199682D01*
X0044379Y0200087D01*
X0044379Y0205184D01*
X0043975Y0205588D01*
X0044379Y0205992D01*
X0044379Y0211089D01*
X0043975Y0211493D01*
X0044379Y0211898D01*
X0044379Y0216995D01*
X0043975Y0217399D01*
X0044379Y0217803D01*
X0044379Y0222900D01*
X0043975Y0223304D01*
X0044379Y0223709D01*
X0044379Y0228806D01*
X0043559Y0229626D01*
X0034526Y0229626D01*
X0033705Y0228806D01*
X0033705Y0223709D01*
X0034110Y0223304D01*
X0033705Y0222900D01*
X0033705Y0217803D01*
X0034110Y0217399D01*
X0033705Y0216995D01*
X0033705Y0211898D01*
X0034110Y0211493D01*
X0033705Y0211089D01*
X0033705Y0205992D01*
X0034110Y0205588D01*
X0033705Y0205184D01*
X0033705Y0200087D01*
X0034110Y0199682D01*
X0033705Y0199278D01*
X0033705Y0194181D01*
X0034110Y0193777D01*
X0033705Y0193373D01*
X0033705Y0188276D01*
X0034110Y0187871D01*
X0033705Y0187467D01*
X0033705Y0182370D01*
X0034110Y0181966D01*
X0033705Y0181561D01*
X0033705Y0176465D01*
X0034110Y0176060D01*
X0033705Y0175656D01*
X0033705Y0170559D01*
X0034110Y0170155D01*
X0033937Y0169982D01*
X0033262Y0170657D01*
X0033262Y0175179D01*
X0032661Y0175780D01*
X0033262Y0176381D01*
X0033262Y0182659D01*
X0032442Y0183479D01*
X0031009Y0183479D01*
X0031009Y0185384D01*
X0031837Y0185384D01*
X0032657Y0186204D01*
X0032657Y0192088D01*
X0031837Y0192908D01*
X0025952Y0192908D01*
X0025132Y0192088D01*
X0025132Y0186204D01*
X0025952Y0185384D01*
X0026809Y0185384D01*
X0026809Y0183479D01*
X0025377Y0183479D01*
X0024694Y0182797D01*
X0024694Y0214920D01*
X0026370Y0216930D01*
X0025842Y0216297D02*
X0033705Y0216297D01*
X0033705Y0214899D02*
X0024694Y0214899D01*
X0024694Y0213500D02*
X0033705Y0213500D01*
X0033705Y0212102D02*
X0024694Y0212102D01*
X0024694Y0210703D02*
X0033705Y0210703D01*
X0033705Y0209305D02*
X0024694Y0209305D01*
X0024694Y0207906D02*
X0033705Y0207906D01*
X0033705Y0206508D02*
X0024694Y0206508D01*
X0024694Y0205109D02*
X0033705Y0205109D01*
X0033705Y0203711D02*
X0024694Y0203711D01*
X0024694Y0202312D02*
X0033705Y0202312D01*
X0033705Y0200914D02*
X0032523Y0200914D01*
X0032617Y0200820D02*
X0032300Y0201136D01*
X0031913Y0201360D01*
X0031480Y0201476D01*
X0029376Y0201476D01*
X0029376Y0197895D01*
X0032957Y0197895D01*
X0032957Y0200000D01*
X0032841Y0200432D01*
X0032617Y0200820D01*
X0032957Y0199515D02*
X0033942Y0199515D01*
X0033705Y0198116D02*
X0032957Y0198116D01*
X0032957Y0196933D02*
X0029376Y0196933D01*
X0029376Y0197895D01*
X0028413Y0197895D01*
X0028413Y0196933D01*
X0024832Y0196933D01*
X0024832Y0194828D01*
X0024948Y0194395D01*
X0025172Y0194008D01*
X0025488Y0193691D01*
X0025876Y0193468D01*
X0026308Y0193352D01*
X0028413Y0193352D01*
X0028413Y0196933D01*
X0029376Y0196933D01*
X0029376Y0193352D01*
X0031480Y0193352D01*
X0031913Y0193468D01*
X0032300Y0193691D01*
X0032617Y0194008D01*
X0032841Y0194395D01*
X0032957Y0194828D01*
X0032957Y0196933D01*
X0032957Y0196718D02*
X0033705Y0196718D01*
X0033705Y0195319D02*
X0032957Y0195319D01*
X0032530Y0193921D02*
X0033966Y0193921D01*
X0033705Y0192522D02*
X0032222Y0192522D01*
X0032657Y0191124D02*
X0033705Y0191124D01*
X0033705Y0189725D02*
X0032657Y0189725D01*
X0032657Y0188327D02*
X0033705Y0188327D01*
X0033705Y0186928D02*
X0032657Y0186928D01*
X0031982Y0185530D02*
X0033705Y0185530D01*
X0033705Y0184131D02*
X0031009Y0184131D01*
X0033188Y0182733D02*
X0033705Y0182733D01*
X0033705Y0181334D02*
X0033262Y0181334D01*
X0033262Y0179936D02*
X0033705Y0179936D01*
X0033705Y0178537D02*
X0033262Y0178537D01*
X0033262Y0177139D02*
X0033705Y0177139D01*
X0033790Y0175740D02*
X0032701Y0175740D01*
X0033262Y0174342D02*
X0033705Y0174342D01*
X0033705Y0172943D02*
X0033262Y0172943D01*
X0033262Y0171545D02*
X0033705Y0171545D01*
X0033773Y0170146D02*
X0034101Y0170146D01*
X0033747Y0167202D02*
X0028909Y0172040D01*
X0028909Y0179520D02*
X0028909Y0189131D01*
X0028894Y0189146D01*
X0028413Y0193921D02*
X0029376Y0193921D01*
X0029376Y0195319D02*
X0028413Y0195319D01*
X0028413Y0196718D02*
X0029376Y0196718D01*
X0029376Y0198116D02*
X0028413Y0198116D01*
X0028413Y0197895D02*
X0028413Y0201476D01*
X0026308Y0201476D01*
X0025876Y0201360D01*
X0025488Y0201136D01*
X0025172Y0200820D01*
X0024948Y0200432D01*
X0024832Y0200000D01*
X0024832Y0197895D01*
X0028413Y0197895D01*
X0028413Y0199515D02*
X0029376Y0199515D01*
X0029376Y0200914D02*
X0028413Y0200914D01*
X0025265Y0200914D02*
X0024694Y0200914D01*
X0024694Y0199515D02*
X0024832Y0199515D01*
X0024832Y0198116D02*
X0024694Y0198116D01*
X0024694Y0196718D02*
X0024832Y0196718D01*
X0024832Y0195319D02*
X0024694Y0195319D01*
X0024694Y0193921D02*
X0025259Y0193921D01*
X0025566Y0192522D02*
X0024694Y0192522D01*
X0024694Y0191124D02*
X0025132Y0191124D01*
X0025132Y0189725D02*
X0024694Y0189725D01*
X0024694Y0188327D02*
X0025132Y0188327D01*
X0025132Y0186928D02*
X0024694Y0186928D01*
X0024694Y0185530D02*
X0025806Y0185530D01*
X0026809Y0184131D02*
X0024694Y0184131D01*
X0033747Y0167202D02*
X0039042Y0167202D01*
X0039042Y0161297D02*
X0029703Y0161297D01*
X0028979Y0162020D01*
X0032731Y0158280D02*
X0033332Y0158881D01*
X0033332Y0159197D01*
X0033705Y0159197D01*
X0033705Y0158748D01*
X0033898Y0158556D01*
X0033745Y0158403D01*
X0033521Y0158016D01*
X0033405Y0157583D01*
X0033405Y0155675D01*
X0038758Y0155675D01*
X0038758Y0155107D01*
X0033405Y0155107D01*
X0033405Y0153199D01*
X0033448Y0153042D01*
X0033332Y0153157D01*
X0033332Y0157679D01*
X0032731Y0158280D01*
X0033332Y0158958D02*
X0033705Y0158958D01*
X0033405Y0157560D02*
X0033332Y0157560D01*
X0033332Y0156161D02*
X0033405Y0156161D01*
X0033405Y0154763D02*
X0033332Y0154763D01*
X0033332Y0153364D02*
X0033405Y0153364D01*
X0033639Y0149880D02*
X0028979Y0154540D01*
X0029969Y0150581D02*
X0031370Y0149179D01*
X0030739Y0149179D01*
X0030739Y0144779D01*
X0030139Y0144779D01*
X0030139Y0149179D01*
X0027069Y0149179D01*
X0026339Y0149063D01*
X0025635Y0148835D01*
X0024976Y0148499D01*
X0024694Y0148294D01*
X0024694Y0151333D01*
X0025447Y0150581D01*
X0029969Y0150581D01*
X0029982Y0150567D02*
X0024694Y0150567D01*
X0024694Y0149169D02*
X0027002Y0149169D01*
X0030139Y0149169D02*
X0030739Y0149169D01*
X0030739Y0147770D02*
X0030139Y0147770D01*
X0030139Y0146372D02*
X0030739Y0146372D01*
X0030739Y0144973D02*
X0030139Y0144973D01*
X0030139Y0143575D02*
X0030739Y0143575D01*
X0030739Y0142176D02*
X0030139Y0142176D01*
X0030139Y0140778D02*
X0030739Y0140778D01*
X0033639Y0149880D02*
X0037294Y0149880D01*
X0040094Y0147080D01*
X0040094Y0129580D01*
X0028194Y0117680D01*
X0028194Y0105080D01*
X0035894Y0097380D01*
X0035894Y0095980D01*
X0034829Y0093228D02*
X0024694Y0093228D01*
X0024694Y0091830D02*
X0057594Y0091830D01*
X0057959Y0093228D02*
X0058173Y0093228D01*
X0057102Y0090431D02*
X0024694Y0090431D01*
X0024694Y0089033D02*
X0056744Y0089033D01*
X0057059Y0087634D02*
X0024694Y0087634D01*
X0024694Y0086236D02*
X0057594Y0086236D01*
X0057594Y0084837D02*
X0024694Y0084837D01*
X0024694Y0083439D02*
X0057594Y0083439D01*
X0057594Y0082040D02*
X0024694Y0082040D01*
X0024694Y0080642D02*
X0057594Y0080642D01*
X0057594Y0079243D02*
X0024694Y0079243D01*
X0024694Y0077845D02*
X0057594Y0077845D01*
X0057594Y0076446D02*
X0024694Y0076446D01*
X0024694Y0075048D02*
X0058057Y0075048D01*
X0059456Y0073649D02*
X0050677Y0073649D01*
X0049112Y0073649D02*
X0024694Y0073649D01*
X0026574Y0062461D02*
X0029594Y0062461D01*
X0029594Y0061062D02*
X0026944Y0061062D01*
X0026642Y0059664D02*
X0029594Y0059664D01*
X0029594Y0058265D02*
X0025149Y0058265D01*
X0025434Y0056867D02*
X0028811Y0056867D01*
X0031954Y0054070D02*
X0032314Y0054070D01*
X0033353Y0055468D02*
X0047713Y0055468D01*
X0047794Y0056867D02*
X0033794Y0056867D01*
X0033794Y0058265D02*
X0047794Y0058265D01*
X0047794Y0059664D02*
X0033794Y0059664D01*
X0033794Y0061062D02*
X0047794Y0061062D01*
X0047794Y0062461D02*
X0033794Y0062461D01*
X0034744Y0063859D02*
X0047794Y0063859D01*
X0049894Y0070780D02*
X0049894Y0054680D01*
X0048494Y0053280D01*
X0034494Y0053280D01*
X0032394Y0051180D01*
X0032394Y0035080D01*
X0028559Y0031245D01*
X0028559Y0026093D01*
X0030684Y0020506D02*
X0031434Y0020506D01*
X0035684Y0020506D02*
X0036434Y0020506D01*
X0040684Y0020506D02*
X0041434Y0020506D01*
X0045684Y0020506D02*
X0046434Y0020506D01*
X0050684Y0020506D02*
X0051434Y0020506D01*
X0055684Y0020506D02*
X0056434Y0020506D01*
X0060684Y0020506D02*
X0061434Y0020506D01*
X0065684Y0020506D02*
X0066038Y0020506D01*
X0068559Y0020506D02*
X0068559Y0020506D01*
X0068559Y0021904D02*
X0068559Y0021904D01*
X0068559Y0023303D02*
X0068559Y0023303D01*
X0068559Y0024701D02*
X0068559Y0024701D01*
X0068559Y0026100D02*
X0068559Y0026100D01*
X0068559Y0027498D02*
X0068559Y0027498D01*
X0068559Y0028897D02*
X0068559Y0028897D01*
X0068559Y0030295D02*
X0068559Y0030295D01*
X0068559Y0031694D02*
X0068559Y0031694D01*
X0071061Y0031694D02*
X0071459Y0031694D01*
X0071459Y0033092D02*
X0033376Y0033092D01*
X0034494Y0034491D02*
X0071459Y0034491D01*
X0071459Y0035889D02*
X0034494Y0035889D01*
X0034494Y0037288D02*
X0071459Y0037288D01*
X0071459Y0038686D02*
X0034494Y0038686D01*
X0034494Y0040085D02*
X0071459Y0040085D01*
X0071459Y0041483D02*
X0034494Y0041483D01*
X0034494Y0042882D02*
X0071459Y0042882D01*
X0071459Y0044280D02*
X0034494Y0044280D01*
X0034494Y0045679D02*
X0071459Y0045679D01*
X0071459Y0047077D02*
X0034494Y0047077D01*
X0034494Y0048476D02*
X0071459Y0048476D01*
X0071459Y0049874D02*
X0034494Y0049874D01*
X0030294Y0049874D02*
X0021617Y0049874D01*
X0021617Y0048476D02*
X0030294Y0048476D01*
X0030294Y0047077D02*
X0021617Y0047077D01*
X0021617Y0045679D02*
X0030294Y0045679D01*
X0030294Y0044280D02*
X0021617Y0044280D01*
X0021617Y0042882D02*
X0030294Y0042882D01*
X0030294Y0041483D02*
X0021617Y0041483D01*
X0021617Y0040085D02*
X0030294Y0040085D01*
X0030294Y0038686D02*
X0021617Y0038686D01*
X0021617Y0037288D02*
X0030294Y0037288D01*
X0030234Y0035889D02*
X0021617Y0035889D01*
X0021617Y0034491D02*
X0028835Y0034491D01*
X0027437Y0033092D02*
X0021617Y0033092D01*
X0021617Y0031694D02*
X0026459Y0031694D01*
X0025226Y0030295D02*
X0021617Y0030295D01*
X0021617Y0028897D02*
X0024781Y0028897D01*
X0024781Y0027498D02*
X0021617Y0027498D01*
X0021617Y0026100D02*
X0024781Y0026100D01*
X0024781Y0024701D02*
X0021617Y0024701D01*
X0021617Y0023303D02*
X0024781Y0023303D01*
X0025220Y0021904D02*
X0021617Y0021904D01*
X0021617Y0020506D02*
X0026434Y0020506D01*
X0035650Y0031694D02*
X0036468Y0031694D01*
X0040650Y0031694D02*
X0041468Y0031694D01*
X0045650Y0031694D02*
X0046468Y0031694D01*
X0050650Y0031694D02*
X0051468Y0031694D01*
X0055650Y0031694D02*
X0056468Y0031694D01*
X0060650Y0031694D02*
X0061468Y0031694D01*
X0065650Y0031694D02*
X0066057Y0031694D01*
X0071080Y0020506D02*
X0071434Y0020506D01*
X0073559Y0026093D02*
X0073559Y0056645D01*
X0083294Y0066380D01*
X0083294Y0074580D01*
X0079294Y0078580D01*
X0079294Y0105351D01*
X0084350Y0110406D01*
X0086772Y0114206D02*
X0091927Y0114206D01*
X0091530Y0117003D02*
X0087169Y0117003D01*
X0088171Y0112807D02*
X0090528Y0112807D01*
X0089950Y0111409D02*
X0088750Y0111409D01*
X0088750Y0110010D02*
X0089950Y0110010D01*
X0089585Y0108612D02*
X0088750Y0108612D01*
X0088187Y0107213D02*
X0087379Y0107213D01*
X0086994Y0105815D02*
X0082728Y0105815D01*
X0082137Y0104416D02*
X0081394Y0104416D01*
X0079585Y0108612D02*
X0077835Y0108612D01*
X0076924Y0110010D02*
X0079950Y0110010D01*
X0079950Y0111409D02*
X0078322Y0111409D01*
X0079721Y0112807D02*
X0080528Y0112807D01*
X0081119Y0114206D02*
X0081927Y0114206D01*
X0082518Y0115604D02*
X0096863Y0115604D01*
X0096863Y0114206D02*
X0096772Y0114206D01*
X0094350Y0110406D02*
X0089094Y0105151D01*
X0089094Y0066580D01*
X0083559Y0061045D01*
X0083559Y0026093D01*
X0085684Y0020506D02*
X0086434Y0020506D01*
X0090684Y0020506D02*
X0096863Y0020506D01*
X0096863Y0021904D02*
X0091898Y0021904D01*
X0092337Y0023303D02*
X0096863Y0023303D01*
X0096863Y0024701D02*
X0092337Y0024701D01*
X0092337Y0026100D02*
X0096863Y0026100D01*
X0096863Y0027498D02*
X0092337Y0027498D01*
X0092337Y0028897D02*
X0096863Y0028897D01*
X0096863Y0030295D02*
X0091892Y0030295D01*
X0090650Y0031694D02*
X0096863Y0031694D01*
X0096863Y0033092D02*
X0085659Y0033092D01*
X0085659Y0031694D02*
X0086468Y0031694D01*
X0085659Y0034491D02*
X0096863Y0034491D01*
X0096863Y0035889D02*
X0085659Y0035889D01*
X0085659Y0037288D02*
X0096863Y0037288D01*
X0096863Y0038686D02*
X0085659Y0038686D01*
X0085659Y0040085D02*
X0096863Y0040085D01*
X0096863Y0041483D02*
X0085659Y0041483D01*
X0085659Y0042882D02*
X0096863Y0042882D01*
X0096863Y0044280D02*
X0085659Y0044280D01*
X0085659Y0045679D02*
X0096863Y0045679D01*
X0096863Y0047077D02*
X0085659Y0047077D01*
X0085659Y0048476D02*
X0096863Y0048476D01*
X0096863Y0049874D02*
X0085659Y0049874D01*
X0085659Y0051273D02*
X0096863Y0051273D01*
X0096863Y0052671D02*
X0085659Y0052671D01*
X0085659Y0054070D02*
X0096863Y0054070D01*
X0096863Y0055468D02*
X0085659Y0055468D01*
X0085659Y0056867D02*
X0096863Y0056867D01*
X0096863Y0058265D02*
X0085659Y0058265D01*
X0085659Y0059664D02*
X0096863Y0059664D01*
X0096863Y0061062D02*
X0086547Y0061062D01*
X0087945Y0062461D02*
X0096863Y0062461D01*
X0096863Y0063859D02*
X0090235Y0063859D01*
X0091740Y0065258D02*
X0096863Y0065258D01*
X0096863Y0066656D02*
X0092044Y0066656D01*
X0091677Y0068055D02*
X0096863Y0068055D01*
X0096863Y0069453D02*
X0091194Y0069453D01*
X0091194Y0070852D02*
X0096863Y0070852D01*
X0096863Y0072250D02*
X0091194Y0072250D01*
X0091194Y0073649D02*
X0096863Y0073649D01*
X0096863Y0075048D02*
X0091194Y0075048D01*
X0091194Y0076446D02*
X0096863Y0076446D01*
X0096863Y0077845D02*
X0091194Y0077845D01*
X0091194Y0079243D02*
X0096863Y0079243D01*
X0096863Y0080642D02*
X0091194Y0080642D01*
X0091194Y0082040D02*
X0096863Y0082040D01*
X0096863Y0083439D02*
X0091194Y0083439D01*
X0091194Y0084837D02*
X0096863Y0084837D01*
X0096863Y0086236D02*
X0091194Y0086236D01*
X0091194Y0087634D02*
X0096863Y0087634D01*
X0096863Y0089033D02*
X0091194Y0089033D01*
X0091194Y0090431D02*
X0096863Y0090431D01*
X0096863Y0091830D02*
X0091194Y0091830D01*
X0091194Y0093228D02*
X0096863Y0093228D01*
X0096863Y0094627D02*
X0091194Y0094627D01*
X0091194Y0096025D02*
X0092084Y0096025D01*
X0094049Y0096025D02*
X0094650Y0096025D01*
X0094650Y0097424D02*
X0094049Y0097424D01*
X0094049Y0098822D02*
X0094650Y0098822D01*
X0094650Y0100706D02*
X0094049Y0100706D01*
X0094049Y0105106D01*
X0092403Y0105106D01*
X0091194Y0103898D01*
X0091194Y0104281D01*
X0092919Y0106006D01*
X0096172Y0106006D01*
X0096863Y0106697D01*
X0096863Y0104539D01*
X0096296Y0105106D01*
X0094650Y0105106D01*
X0094650Y0100706D01*
X0094650Y0101619D02*
X0094049Y0101619D01*
X0094049Y0103018D02*
X0094650Y0103018D01*
X0094650Y0104416D02*
X0094049Y0104416D01*
X0092728Y0105815D02*
X0096863Y0105815D01*
X0091713Y0104416D02*
X0091330Y0104416D01*
X0086994Y0104416D02*
X0086562Y0104416D01*
X0088567Y0118401D02*
X0090132Y0118401D01*
X0089950Y0119800D02*
X0088750Y0119800D01*
X0088750Y0121198D02*
X0089950Y0121198D01*
X0090318Y0122597D02*
X0088381Y0122597D01*
X0086983Y0123995D02*
X0091716Y0123995D01*
X0096863Y0125394D02*
X0077894Y0125394D01*
X0077894Y0126792D02*
X0096863Y0126792D01*
X0096863Y0128191D02*
X0077894Y0128191D01*
X0077894Y0129589D02*
X0096863Y0129589D01*
X0096863Y0130988D02*
X0077894Y0130988D01*
X0077894Y0132386D02*
X0096863Y0132386D01*
X0093535Y0137365D02*
X0097494Y0141325D01*
X0097494Y0161080D01*
X0097278Y0161297D01*
X0090448Y0161297D01*
X0070411Y0161297D01*
X0069494Y0160380D01*
X0068482Y0163154D02*
X0044379Y0163154D01*
X0044379Y0161755D02*
X0066871Y0161755D01*
X0066544Y0160357D02*
X0044379Y0160357D01*
X0044379Y0158958D02*
X0066890Y0158958D01*
X0068595Y0157560D02*
X0044679Y0157560D01*
X0044679Y0156161D02*
X0084811Y0156161D01*
X0084811Y0154763D02*
X0044679Y0154763D01*
X0044445Y0147770D02*
X0043876Y0147770D01*
X0043876Y0146372D02*
X0044445Y0146372D01*
X0044445Y0144973D02*
X0043876Y0144973D01*
X0043876Y0143575D02*
X0044445Y0143575D01*
X0042194Y0142176D02*
X0095376Y0142176D01*
X0095394Y0143575D02*
X0088564Y0143575D01*
X0088816Y0144973D02*
X0095394Y0144973D01*
X0095394Y0146372D02*
X0088816Y0146372D01*
X0088816Y0147770D02*
X0095394Y0147770D01*
X0095394Y0149169D02*
X0088816Y0149169D01*
X0088816Y0150567D02*
X0095394Y0150567D01*
X0095394Y0151966D02*
X0095261Y0151966D01*
X0090732Y0151966D02*
X0090164Y0151966D01*
X0090164Y0153364D02*
X0090732Y0153364D01*
X0090732Y0154763D02*
X0090164Y0154763D01*
X0085111Y0158958D02*
X0072098Y0158958D01*
X0070394Y0157560D02*
X0084811Y0157560D01*
X0082583Y0153364D02*
X0082407Y0153364D01*
X0076677Y0153364D02*
X0076502Y0153364D01*
X0070772Y0153364D02*
X0070596Y0153364D01*
X0064866Y0153364D02*
X0064691Y0153364D01*
X0058961Y0153364D02*
X0058785Y0153364D01*
X0053055Y0153364D02*
X0052880Y0153364D01*
X0044278Y0164552D02*
X0085212Y0164552D01*
X0085111Y0165951D02*
X0044379Y0165951D01*
X0044379Y0167349D02*
X0085111Y0167349D01*
X0085111Y0168748D02*
X0044379Y0168748D01*
X0043984Y0170146D02*
X0085507Y0170146D01*
X0085111Y0171545D02*
X0044379Y0171545D01*
X0044379Y0172943D02*
X0085111Y0172943D01*
X0085111Y0174342D02*
X0044379Y0174342D01*
X0044295Y0175740D02*
X0085195Y0175740D01*
X0085111Y0177139D02*
X0044379Y0177139D01*
X0044379Y0178537D02*
X0085111Y0178537D01*
X0085111Y0179936D02*
X0044379Y0179936D01*
X0044379Y0181334D02*
X0085111Y0181334D01*
X0085111Y0182733D02*
X0044379Y0182733D01*
X0044379Y0184131D02*
X0085111Y0184131D01*
X0085111Y0185530D02*
X0044379Y0185530D01*
X0044379Y0186928D02*
X0085111Y0186928D01*
X0085111Y0188327D02*
X0044379Y0188327D01*
X0044379Y0189725D02*
X0085111Y0189725D01*
X0085111Y0191124D02*
X0044379Y0191124D01*
X0044379Y0192522D02*
X0085111Y0192522D01*
X0085371Y0193921D02*
X0044119Y0193921D01*
X0044379Y0195319D02*
X0085111Y0195319D01*
X0085111Y0196718D02*
X0044379Y0196718D01*
X0044379Y0198116D02*
X0085111Y0198116D01*
X0085348Y0199515D02*
X0044142Y0199515D01*
X0044379Y0200914D02*
X0085111Y0200914D01*
X0085111Y0202312D02*
X0044379Y0202312D01*
X0044379Y0203711D02*
X0085111Y0203711D01*
X0085111Y0205109D02*
X0044379Y0205109D01*
X0044379Y0206508D02*
X0085111Y0206508D01*
X0085111Y0207906D02*
X0044379Y0207906D01*
X0044379Y0209305D02*
X0085111Y0209305D01*
X0085111Y0210703D02*
X0044379Y0210703D01*
X0044379Y0212102D02*
X0053335Y0212102D01*
X0054854Y0212102D02*
X0085111Y0212102D01*
X0085111Y0213500D02*
X0056674Y0213500D01*
X0057044Y0214899D02*
X0085111Y0214899D01*
X0085111Y0216297D02*
X0056742Y0216297D01*
X0056194Y0217696D02*
X0067507Y0217696D01*
X0066627Y0219094D02*
X0056194Y0219094D01*
X0056277Y0220493D02*
X0066555Y0220493D01*
X0067334Y0221891D02*
X0057675Y0221891D01*
X0059074Y0223290D02*
X0085501Y0223290D01*
X0085219Y0217696D02*
X0071482Y0217696D01*
X0069494Y0219880D02*
X0069496Y0219921D01*
X0069501Y0219962D01*
X0069510Y0220002D01*
X0069522Y0220041D01*
X0069538Y0220079D01*
X0069557Y0220116D01*
X0069579Y0220151D01*
X0069604Y0220183D01*
X0069632Y0220214D01*
X0069663Y0220242D01*
X0069695Y0220267D01*
X0069730Y0220289D01*
X0069767Y0220308D01*
X0069805Y0220324D01*
X0069844Y0220336D01*
X0069884Y0220345D01*
X0069925Y0220350D01*
X0069966Y0220352D01*
X0090448Y0220352D01*
X0090448Y0226257D02*
X0059072Y0226257D01*
X0054094Y0221280D01*
X0054094Y0214980D01*
X0051144Y0214899D02*
X0044379Y0214899D01*
X0044379Y0216297D02*
X0051447Y0216297D01*
X0051994Y0217696D02*
X0044272Y0217696D01*
X0044379Y0219094D02*
X0051994Y0219094D01*
X0051994Y0220493D02*
X0044379Y0220493D01*
X0044379Y0221891D02*
X0051994Y0221891D01*
X0053134Y0223290D02*
X0043990Y0223290D01*
X0044379Y0224688D02*
X0054533Y0224688D01*
X0055931Y0226087D02*
X0044379Y0226087D01*
X0044379Y0227485D02*
X0057330Y0227485D01*
X0051514Y0213500D02*
X0044379Y0213500D01*
X0044301Y0228884D02*
X0085189Y0228884D01*
X0083563Y0233079D02*
X0096863Y0233079D01*
X0096863Y0231681D02*
X0082844Y0231681D01*
X0083563Y0234478D02*
X0096863Y0234478D01*
X0096863Y0235876D02*
X0083563Y0235876D01*
X0083563Y0237275D02*
X0096863Y0237275D01*
X0096863Y0238673D02*
X0083563Y0238673D01*
X0083563Y0240072D02*
X0096863Y0240072D01*
X0096863Y0241470D02*
X0083563Y0241470D01*
X0083563Y0242869D02*
X0096863Y0242869D01*
X0096863Y0244267D02*
X0083563Y0244267D01*
X0083563Y0245666D02*
X0096863Y0245666D01*
X0096863Y0247064D02*
X0083563Y0247064D01*
X0083563Y0248463D02*
X0096863Y0248463D01*
X0096863Y0249861D02*
X0083563Y0249861D01*
X0095707Y0228884D02*
X0096863Y0228884D01*
X0096863Y0230282D02*
X0021617Y0230282D01*
X0021617Y0228884D02*
X0033784Y0228884D01*
X0033705Y0227485D02*
X0021617Y0227485D01*
X0021617Y0226087D02*
X0033705Y0226087D01*
X0033705Y0224688D02*
X0021617Y0224688D01*
X0021617Y0223290D02*
X0034095Y0223290D01*
X0033705Y0221891D02*
X0028255Y0221891D01*
X0029034Y0220493D02*
X0033705Y0220493D01*
X0033705Y0219094D02*
X0028962Y0219094D01*
X0028082Y0217696D02*
X0033813Y0217696D01*
X0023934Y0221891D02*
X0021617Y0221891D01*
X0021617Y0220493D02*
X0023155Y0220493D01*
X0022706Y0219094D02*
X0021617Y0219094D01*
X0021617Y0231681D02*
X0047882Y0231681D01*
X0047163Y0233079D02*
X0021617Y0233079D01*
X0021617Y0234478D02*
X0047163Y0234478D01*
X0047163Y0235876D02*
X0021617Y0235876D01*
X0021617Y0237275D02*
X0047163Y0237275D01*
X0047163Y0238673D02*
X0021617Y0238673D01*
X0021617Y0240072D02*
X0047163Y0240072D01*
X0047163Y0241470D02*
X0021617Y0241470D01*
X0021617Y0242869D02*
X0047163Y0242869D01*
X0047163Y0244267D02*
X0021617Y0244267D01*
X0021617Y0245666D02*
X0047163Y0245666D01*
X0047163Y0247064D02*
X0021617Y0247064D01*
X0021617Y0248463D02*
X0047163Y0248463D01*
X0047163Y0249861D02*
X0021617Y0249861D01*
X0038758Y0155107D02*
X0039327Y0155107D01*
X0039327Y0151723D01*
X0040492Y0151723D01*
X0040492Y0149652D01*
X0039394Y0150750D01*
X0038422Y0151723D01*
X0038758Y0151723D01*
X0038758Y0155107D01*
X0038758Y0154763D02*
X0039327Y0154763D01*
X0039327Y0153364D02*
X0038758Y0153364D01*
X0038758Y0151966D02*
X0039327Y0151966D01*
X0039577Y0150567D02*
X0040492Y0150567D01*
X0037994Y0142176D02*
X0037541Y0142176D01*
X0037994Y0140778D02*
X0036340Y0140778D01*
X0036161Y0137981D02*
X0037994Y0137981D01*
X0037994Y0139379D02*
X0024694Y0139379D01*
X0024694Y0137981D02*
X0024718Y0137981D01*
X0024694Y0130988D02*
X0024708Y0130988D01*
X0024694Y0129589D02*
X0037134Y0129589D01*
X0037994Y0130988D02*
X0036171Y0130988D01*
X0037335Y0132386D02*
X0037994Y0132386D01*
X0037994Y0133785D02*
X0037839Y0133785D01*
X0037839Y0135183D02*
X0037994Y0135183D01*
X0037994Y0136582D02*
X0037331Y0136582D01*
X0035735Y0128191D02*
X0024694Y0128191D01*
X0024694Y0126792D02*
X0034337Y0126792D01*
X0032938Y0125394D02*
X0024694Y0125394D01*
X0024694Y0123995D02*
X0031540Y0123995D01*
X0030141Y0122597D02*
X0024694Y0122597D01*
X0024694Y0121198D02*
X0028743Y0121198D01*
X0027344Y0119800D02*
X0024694Y0119800D01*
X0024694Y0118401D02*
X0026094Y0118401D01*
X0026094Y0117003D02*
X0024694Y0117003D01*
X0024694Y0115604D02*
X0026094Y0115604D01*
X0026094Y0114206D02*
X0024694Y0114206D01*
X0024694Y0112807D02*
X0026094Y0112807D01*
X0026094Y0111409D02*
X0024694Y0111409D01*
X0024694Y0110010D02*
X0026094Y0110010D01*
X0026094Y0108612D02*
X0024694Y0108612D01*
X0024694Y0107213D02*
X0026094Y0107213D01*
X0025306Y0105815D02*
X0024694Y0105815D01*
X0024694Y0104416D02*
X0025276Y0104416D01*
X0024694Y0103018D02*
X0026085Y0103018D01*
X0024694Y0101619D02*
X0028685Y0101619D01*
X0030084Y0100221D02*
X0024694Y0100221D01*
X0024694Y0098822D02*
X0031482Y0098822D01*
X0032881Y0097424D02*
X0024694Y0097424D01*
X0024694Y0096025D02*
X0032944Y0096025D01*
X0033262Y0094627D02*
X0024694Y0094627D01*
X0030294Y0107213D02*
X0063758Y0107213D01*
X0062359Y0105815D02*
X0031083Y0105815D01*
X0031828Y0104416D02*
X0060961Y0104416D01*
X0059562Y0103018D02*
X0033227Y0103018D01*
X0034625Y0101619D02*
X0058164Y0101619D01*
X0056765Y0100221D02*
X0036024Y0100221D01*
X0037422Y0098822D02*
X0055367Y0098822D01*
X0054299Y0097424D02*
X0038489Y0097424D01*
X0038844Y0096025D02*
X0053944Y0096025D01*
X0054262Y0094627D02*
X0038527Y0094627D01*
X0036960Y0093228D02*
X0055829Y0093228D01*
X0056894Y0095980D02*
X0056894Y0097380D01*
X0075794Y0116280D01*
X0075794Y0136580D01*
X0074843Y0139379D02*
X0042194Y0139379D01*
X0042194Y0137981D02*
X0073181Y0137981D01*
X0072844Y0136582D02*
X0042194Y0136582D01*
X0042194Y0135183D02*
X0073180Y0135183D01*
X0073694Y0133785D02*
X0042194Y0133785D01*
X0042194Y0132386D02*
X0073694Y0132386D01*
X0073694Y0130988D02*
X0042194Y0130988D01*
X0042194Y0129589D02*
X0073694Y0129589D01*
X0073694Y0128191D02*
X0041675Y0128191D01*
X0040277Y0126792D02*
X0045475Y0126792D01*
X0045808Y0126930D02*
X0044723Y0126481D01*
X0043894Y0125651D01*
X0043444Y0124567D01*
X0043444Y0123393D01*
X0043894Y0122309D01*
X0044294Y0121908D01*
X0044294Y0119250D01*
X0042194Y0117150D01*
X0042194Y0115552D01*
X0041794Y0115151D01*
X0041344Y0114067D01*
X0041344Y0112893D01*
X0041794Y0111809D01*
X0042623Y0110979D01*
X0043708Y0110530D01*
X0044881Y0110530D01*
X0045965Y0110979D01*
X0046795Y0111809D01*
X0047244Y0112893D01*
X0047244Y0114067D01*
X0046795Y0115151D01*
X0046465Y0115481D01*
X0047264Y0116280D01*
X0048494Y0117510D01*
X0048494Y0121908D01*
X0048895Y0122309D01*
X0049344Y0123393D01*
X0049344Y0124567D01*
X0048895Y0125651D01*
X0048065Y0126481D01*
X0046981Y0126930D01*
X0045808Y0126930D01*
X0047313Y0126792D02*
X0073694Y0126792D01*
X0073694Y0125394D02*
X0049002Y0125394D01*
X0049344Y0123995D02*
X0073694Y0123995D01*
X0073694Y0122597D02*
X0049015Y0122597D01*
X0048494Y0121198D02*
X0073694Y0121198D01*
X0073694Y0119800D02*
X0048494Y0119800D01*
X0048494Y0118401D02*
X0073694Y0118401D01*
X0073547Y0117003D02*
X0047987Y0117003D01*
X0046589Y0115604D02*
X0072149Y0115604D01*
X0070750Y0114206D02*
X0047187Y0114206D01*
X0047209Y0112807D02*
X0069352Y0112807D01*
X0067953Y0111409D02*
X0046395Y0111409D01*
X0044294Y0113480D02*
X0044294Y0116280D01*
X0046394Y0118380D01*
X0046394Y0123980D01*
X0044294Y0121198D02*
X0034683Y0121198D01*
X0036081Y0122597D02*
X0043774Y0122597D01*
X0043444Y0123995D02*
X0037480Y0123995D01*
X0038878Y0125394D02*
X0043787Y0125394D01*
X0044294Y0119800D02*
X0033284Y0119800D01*
X0031886Y0118401D02*
X0043446Y0118401D01*
X0042194Y0117003D02*
X0030487Y0117003D01*
X0030294Y0115604D02*
X0042194Y0115604D01*
X0041402Y0114206D02*
X0030294Y0114206D01*
X0030294Y0112807D02*
X0041380Y0112807D01*
X0042194Y0111409D02*
X0030294Y0111409D01*
X0030294Y0110010D02*
X0066555Y0110010D01*
X0065156Y0108612D02*
X0030294Y0108612D01*
X0042194Y0140778D02*
X0081858Y0140778D01*
X0081795Y0139379D02*
X0076746Y0139379D01*
X0078407Y0137981D02*
X0081795Y0137981D01*
X0081795Y0136582D02*
X0078744Y0136582D01*
X0078409Y0135183D02*
X0081795Y0135183D01*
X0081903Y0133785D02*
X0077894Y0133785D01*
X0077894Y0123995D02*
X0081716Y0123995D01*
X0080318Y0122597D02*
X0077894Y0122597D01*
X0077894Y0121198D02*
X0079950Y0121198D01*
X0079950Y0119800D02*
X0077894Y0119800D01*
X0077894Y0118401D02*
X0079375Y0118401D01*
X0077977Y0117003D02*
X0077894Y0117003D01*
X0075794Y0106480D02*
X0074794Y0105480D01*
X0074794Y0096980D01*
X0063894Y0086080D01*
X0063894Y0081280D01*
X0066029Y0079243D02*
X0077194Y0079243D01*
X0077194Y0077845D02*
X0061794Y0077845D01*
X0062598Y0076446D02*
X0078459Y0076446D01*
X0079857Y0075048D02*
X0063997Y0075048D01*
X0065395Y0073649D02*
X0080487Y0073649D01*
X0081194Y0072250D02*
X0066794Y0072250D01*
X0068192Y0070852D02*
X0081194Y0070852D01*
X0081194Y0069453D02*
X0069591Y0069453D01*
X0070989Y0068055D02*
X0081194Y0068055D01*
X0080601Y0066656D02*
X0072388Y0066656D01*
X0072994Y0065258D02*
X0079202Y0065258D01*
X0077804Y0063859D02*
X0072994Y0063859D01*
X0073764Y0062461D02*
X0076405Y0062461D01*
X0075007Y0061062D02*
X0073832Y0061062D01*
X0073608Y0059664D02*
X0073050Y0059664D01*
X0072210Y0058265D02*
X0051994Y0058265D01*
X0051994Y0056867D02*
X0071459Y0056867D01*
X0071459Y0055468D02*
X0051994Y0055468D01*
X0051994Y0054070D02*
X0071459Y0054070D01*
X0071459Y0052671D02*
X0050856Y0052671D01*
X0049457Y0051273D02*
X0071459Y0051273D01*
X0068739Y0059664D02*
X0051994Y0059664D01*
X0051994Y0061062D02*
X0067957Y0061062D01*
X0068025Y0062461D02*
X0051994Y0062461D01*
X0051994Y0063859D02*
X0068794Y0063859D01*
X0067847Y0065258D02*
X0051994Y0065258D01*
X0051994Y0066656D02*
X0066448Y0066656D01*
X0065050Y0068055D02*
X0051994Y0068055D01*
X0052538Y0069453D02*
X0063651Y0069453D01*
X0062253Y0070852D02*
X0052844Y0070852D01*
X0052478Y0072250D02*
X0060854Y0072250D01*
X0059694Y0076380D02*
X0059694Y0088980D01*
X0059694Y0091780D01*
X0072294Y0104380D01*
X0072294Y0108351D01*
X0084350Y0120406D01*
X0085475Y0133785D02*
X0086634Y0133785D01*
X0086634Y0135183D02*
X0085475Y0135183D01*
X0085475Y0136582D02*
X0086634Y0136582D01*
X0086634Y0137981D02*
X0085475Y0137981D01*
X0085475Y0139379D02*
X0086634Y0139379D01*
X0086634Y0140778D02*
X0085475Y0140778D01*
X0095684Y0164552D02*
X0096863Y0164552D01*
X0096863Y0165951D02*
X0095785Y0165951D01*
X0095785Y0167349D02*
X0096863Y0167349D01*
X0096863Y0168748D02*
X0095785Y0168748D01*
X0095389Y0170146D02*
X0096863Y0170146D01*
X0096863Y0171545D02*
X0095785Y0171545D01*
X0095785Y0172943D02*
X0096863Y0172943D01*
X0096863Y0174342D02*
X0095785Y0174342D01*
X0095701Y0175740D02*
X0096863Y0175740D01*
X0096863Y0177139D02*
X0095785Y0177139D01*
X0095785Y0178537D02*
X0096863Y0178537D01*
X0096863Y0179936D02*
X0095785Y0179936D01*
X0095785Y0181334D02*
X0096863Y0181334D01*
X0096863Y0182733D02*
X0095785Y0182733D01*
X0095785Y0184131D02*
X0096863Y0184131D01*
X0096863Y0185530D02*
X0095785Y0185530D01*
X0095785Y0186928D02*
X0096863Y0186928D01*
X0096863Y0188327D02*
X0095785Y0188327D01*
X0095785Y0189725D02*
X0096863Y0189725D01*
X0096863Y0191124D02*
X0095785Y0191124D01*
X0095785Y0192522D02*
X0096863Y0192522D01*
X0096863Y0193921D02*
X0095525Y0193921D01*
X0095785Y0195319D02*
X0096863Y0195319D01*
X0096863Y0196718D02*
X0095785Y0196718D01*
X0095785Y0198116D02*
X0096863Y0198116D01*
X0096863Y0199515D02*
X0095548Y0199515D01*
X0095785Y0200914D02*
X0096863Y0200914D01*
X0096863Y0202312D02*
X0095785Y0202312D01*
X0095785Y0203711D02*
X0096863Y0203711D01*
X0096863Y0205109D02*
X0095785Y0205109D01*
X0095785Y0206508D02*
X0096863Y0206508D01*
X0096863Y0207906D02*
X0095785Y0207906D01*
X0095785Y0209305D02*
X0096863Y0209305D01*
X0096863Y0210703D02*
X0095785Y0210703D01*
X0095785Y0212102D02*
X0096863Y0212102D01*
X0096863Y0213500D02*
X0095785Y0213500D01*
X0095785Y0214899D02*
X0096863Y0214899D01*
X0096863Y0216297D02*
X0095785Y0216297D01*
X0095677Y0217696D02*
X0096863Y0217696D01*
X0096863Y0219094D02*
X0095785Y0219094D01*
X0095785Y0220493D02*
X0096863Y0220493D01*
X0096863Y0221891D02*
X0095785Y0221891D01*
X0095395Y0223290D02*
X0096863Y0223290D01*
X0096863Y0224688D02*
X0095785Y0224688D01*
X0095785Y0226087D02*
X0096863Y0226087D01*
X0096863Y0227485D02*
X0095785Y0227485D01*
X0077194Y0103018D02*
X0076894Y0103018D01*
X0076894Y0101619D02*
X0077194Y0101619D01*
X0077194Y0100221D02*
X0076894Y0100221D01*
X0076894Y0098822D02*
X0077194Y0098822D01*
X0077194Y0097424D02*
X0076894Y0097424D01*
X0076809Y0096025D02*
X0077194Y0096025D01*
X0077194Y0094627D02*
X0075411Y0094627D01*
X0074012Y0093228D02*
X0077194Y0093228D01*
X0077194Y0091830D02*
X0072614Y0091830D01*
X0071215Y0090431D02*
X0077194Y0090431D01*
X0077194Y0089033D02*
X0069817Y0089033D01*
X0068418Y0087634D02*
X0077194Y0087634D01*
X0077194Y0086236D02*
X0067020Y0086236D01*
X0065994Y0084837D02*
X0077194Y0084837D01*
X0077194Y0083439D02*
X0065994Y0083439D01*
X0066773Y0082040D02*
X0077194Y0082040D01*
X0077194Y0080642D02*
X0066823Y0080642D01*
X0059694Y0076380D02*
X0070894Y0065180D01*
X0070894Y0061680D01*
X0078594Y0052580D02*
X0078559Y0052545D01*
X0078559Y0026093D01*
X0080684Y0020506D02*
X0081434Y0020506D01*
X0076434Y0020506D02*
X0075684Y0020506D01*
X0096615Y0096025D02*
X0096863Y0096025D01*
X0030916Y0052671D02*
X0030556Y0052671D01*
X0030294Y0051273D02*
X0025867Y0051273D01*
D20*
X0042794Y0034380D03*
X0049894Y0163080D03*
D21*
X0061094Y0137280D03*
X0069494Y0160380D03*
X0075794Y0136580D03*
X0064594Y0112080D03*
X0056894Y0095980D03*
X0059694Y0088980D03*
X0063894Y0081280D03*
X0070894Y0061680D03*
X0078594Y0052580D03*
X0089094Y0066580D03*
X0083294Y0074580D03*
X0075794Y0106480D03*
X0049894Y0070780D03*
X0037294Y0081980D03*
X0035894Y0095980D03*
X0028194Y0105080D03*
X0044294Y0113480D03*
X0046394Y0123980D03*
X0034494Y0068680D03*
X0024694Y0053980D03*
X0023994Y0060980D03*
X0054094Y0214980D03*
X0069494Y0219880D03*
X0026094Y0219880D03*
M02*
