G75*
%MOIN*%
%OFA0B0*%
%FSLAX25Y25*%
%IPPOS*%
%LPD*%
%AMOC8*
5,1,8,0,0,1.08239X$1,22.5*
%
%ADD10R,0.05118X0.05906*%
%ADD11R,0.05906X0.05118*%
%ADD12R,0.05512X0.06299*%
%ADD13R,0.01969X0.05906*%
%ADD14R,0.05906X0.01969*%
%ADD15R,0.04424X0.01969*%
%ADD16R,0.01969X0.04424*%
%ADD17R,0.07900X0.04300*%
%ADD18R,0.03150X0.07874*%
%ADD19R,0.07874X0.03150*%
%ADD20R,0.04724X0.02756*%
%ADD21R,0.03543X0.03150*%
%ADD22R,0.04724X0.04724*%
%ADD23R,0.08661X0.03937*%
%ADD24R,0.05709X0.03937*%
D10*
X0039122Y0050968D03*
X0046602Y0050968D03*
X0046594Y0061187D03*
X0039114Y0061187D03*
X0039114Y0072111D03*
X0046594Y0072111D03*
X0052515Y0088030D03*
X0059996Y0088030D03*
X0121104Y0069306D03*
X0128585Y0069306D03*
X0145261Y0034040D03*
X0152741Y0034040D03*
X0240640Y0107922D03*
X0248120Y0107922D03*
D11*
X0189780Y0100462D03*
X0181380Y0100462D03*
X0172980Y0100462D03*
X0163180Y0100462D03*
X0153380Y0100462D03*
X0153380Y0092982D03*
X0163180Y0092982D03*
X0172980Y0092982D03*
X0181380Y0092982D03*
X0189780Y0092982D03*
X0130649Y0059196D03*
X0118039Y0058533D03*
X0118039Y0051052D03*
X0130649Y0051715D03*
X0176480Y0045162D03*
X0176480Y0037682D03*
D12*
X0130793Y0040399D03*
X0119770Y0040399D03*
D13*
X0066834Y0036393D03*
X0069984Y0036393D03*
X0073133Y0036393D03*
X0076283Y0036393D03*
X0079432Y0036393D03*
X0082582Y0036393D03*
X0085732Y0036393D03*
X0088881Y0036393D03*
X0092031Y0036393D03*
X0095180Y0036393D03*
X0098330Y0036393D03*
X0098330Y0082062D03*
X0095180Y0082062D03*
X0092031Y0082062D03*
X0088881Y0082062D03*
X0085732Y0082062D03*
X0082582Y0082062D03*
X0079432Y0082062D03*
X0076283Y0082062D03*
X0073133Y0082062D03*
X0069984Y0082062D03*
X0066834Y0082062D03*
D14*
X0059747Y0074976D03*
X0059747Y0071826D03*
X0059747Y0068677D03*
X0059747Y0065527D03*
X0059747Y0062377D03*
X0059747Y0059228D03*
X0059747Y0056078D03*
X0059747Y0052929D03*
X0059747Y0049779D03*
X0059747Y0046629D03*
X0059747Y0043480D03*
X0105417Y0043480D03*
X0105417Y0046629D03*
X0105417Y0049779D03*
X0105417Y0052929D03*
X0105417Y0056078D03*
X0105417Y0059228D03*
X0105417Y0062377D03*
X0105417Y0065527D03*
X0105417Y0068677D03*
X0105417Y0071826D03*
X0105417Y0074976D03*
D15*
X0143060Y0060195D03*
X0143060Y0057045D03*
X0143060Y0053895D03*
X0143060Y0050746D03*
X0143060Y0047596D03*
X0143060Y0044447D03*
X0151991Y0044447D03*
X0152021Y0047596D03*
X0152021Y0050746D03*
X0152021Y0053895D03*
X0152021Y0057045D03*
X0152021Y0060195D03*
D16*
X0147540Y0060588D03*
X0147540Y0044053D03*
D17*
X0131988Y0018551D03*
X0167388Y0018551D03*
D18*
X0210337Y0019749D03*
X0215337Y0019749D03*
X0220849Y0019749D03*
X0226361Y0019749D03*
X0231873Y0019749D03*
X0237385Y0019749D03*
X0242897Y0019749D03*
X0248408Y0019749D03*
X0253920Y0019749D03*
X0259432Y0019749D03*
X0264944Y0019749D03*
X0270456Y0019749D03*
X0270456Y0097701D03*
X0264944Y0097701D03*
X0259432Y0097701D03*
X0253920Y0097701D03*
X0248408Y0097701D03*
X0242897Y0097701D03*
X0237385Y0097701D03*
X0231873Y0097701D03*
X0226361Y0097701D03*
X0220849Y0097701D03*
X0215337Y0097701D03*
X0210337Y0097701D03*
D19*
X0195259Y0080772D03*
X0195259Y0075260D03*
X0195259Y0069749D03*
X0195023Y0064237D03*
X0195259Y0058725D03*
X0195259Y0053213D03*
X0195259Y0047701D03*
X0195259Y0042189D03*
X0195259Y0036678D03*
X0285023Y0036678D03*
X0285023Y0042189D03*
X0285023Y0047701D03*
X0285023Y0053213D03*
X0285023Y0058725D03*
X0285023Y0064237D03*
X0285023Y0069749D03*
X0285023Y0075260D03*
X0285023Y0080772D03*
D20*
X0287363Y0108622D03*
X0272797Y0108622D03*
D21*
X0171843Y0059862D03*
X0180111Y0056122D03*
X0171843Y0052382D03*
D22*
X0257046Y0108622D03*
X0265314Y0108622D03*
D23*
X0176240Y0080467D03*
X0176240Y0070034D03*
X0178580Y0024949D03*
X0178580Y0014516D03*
D24*
X0184092Y0019752D03*
X0181752Y0075270D03*
M02*
