G75*
%MOIN*%
%OFA0B0*%
%FSLAX25Y25*%
%IPPOS*%
%LPD*%
%AMOC8*
5,1,8,0,0,1.08239X$1,22.5*
%
%ADD10OC8,0.06800*%
%ADD11C,0.05556*%
%ADD12C,0.06800*%
%ADD13R,0.07493X0.05918*%
%ADD14R,0.06706X0.05918*%
%ADD15OC8,0.06000*%
%ADD16C,0.03700*%
%ADD17C,0.03900*%
%ADD18C,0.03581*%
%ADD19C,0.03850*%
D10*
X0100406Y0015167D03*
X0110406Y0015167D03*
X0120406Y0015167D03*
X0120406Y0025167D03*
X0110406Y0025167D03*
X0100406Y0025167D03*
D11*
X0028471Y0020957D02*
X0023715Y0020957D01*
X0023715Y0025957D02*
X0028471Y0025957D01*
X0028471Y0030957D02*
X0023715Y0030957D01*
X0023715Y0035957D02*
X0028471Y0035957D01*
X0028471Y0040957D02*
X0023715Y0040957D01*
X0023715Y0045957D02*
X0028471Y0045957D01*
X0028471Y0050957D02*
X0023715Y0050957D01*
X0023715Y0055957D02*
X0028471Y0055957D01*
X0028471Y0060957D02*
X0023715Y0060957D01*
X0023715Y0065957D02*
X0028471Y0065957D01*
X0028471Y0070957D02*
X0023715Y0070957D01*
X0023715Y0075957D02*
X0028471Y0075957D01*
X0028471Y0080957D02*
X0023715Y0080957D01*
D12*
X0116979Y0090077D02*
X0116979Y0096077D01*
X0126979Y0096077D02*
X0126979Y0090077D01*
D13*
X0174889Y0062808D03*
X0174889Y0052808D03*
X0174889Y0042808D03*
X0276071Y0042808D03*
X0276071Y0052808D03*
X0276071Y0062808D03*
D14*
X0254180Y0067782D03*
X0254180Y0075262D03*
D15*
X0186280Y0047122D03*
X0186280Y0037122D03*
D16*
X0137280Y0049122D03*
X0144980Y0092522D03*
X0168080Y0105822D03*
X0033680Y0072222D03*
D17*
X0060980Y0081322D03*
X0075680Y0073622D03*
X0095980Y0073622D03*
X0105080Y0081322D03*
X0081980Y0092522D03*
X0048122Y0094490D03*
X0113480Y0065222D03*
X0123980Y0063122D03*
X0096680Y0058922D03*
X0078780Y0062322D03*
X0070780Y0059622D03*
X0075280Y0046022D03*
X0061680Y0038622D03*
X0052580Y0030922D03*
X0066580Y0020422D03*
X0075480Y0026522D03*
X0087886Y0025593D03*
X0089067Y0015750D03*
X0052452Y0017325D03*
X0103680Y0035122D03*
X0111380Y0049122D03*
X0137492Y0033467D03*
X0160380Y0031622D03*
X0167380Y0054722D03*
X0186980Y0056122D03*
X0226880Y0068722D03*
X0214980Y0075022D03*
X0259780Y0057522D03*
X0268180Y0057522D03*
X0268180Y0049122D03*
X0234580Y0028822D03*
X0158280Y0084822D03*
X0138680Y0096722D03*
X0277280Y0086222D03*
X0288480Y0097422D03*
D18*
X0209287Y0084871D03*
X0198787Y0096071D03*
X0198787Y0106571D03*
X0186187Y0063871D03*
X0125287Y0045671D03*
X0111801Y0038878D03*
X0127649Y0025986D03*
D19*
X0084480Y0054622D03*
X0090980Y0056322D03*
X0086480Y0098322D03*
X0095980Y0098722D03*
X0091380Y0109522D03*
X0181180Y0107722D03*
M02*
