G75*
%MOIN*%
%OFA0B0*%
%FSLAX25Y25*%
%IPPOS*%
%LPD*%
%AMOC8*
5,1,8,0,0,1.08239X$1,22.5*
%
%ADD10C,0.00000*%
%ADD11R,0.23622X0.13780*%
%ADD12R,0.05118X0.05906*%
%ADD13R,0.05906X0.05118*%
%ADD14R,0.05512X0.06299*%
%ADD15R,0.01969X0.05906*%
%ADD16R,0.05906X0.01969*%
%ADD17OC8,0.06000*%
%ADD18R,0.04424X0.01969*%
%ADD19R,0.01969X0.04424*%
%ADD20C,0.04756*%
%ADD21C,0.06000*%
%ADD22R,0.07900X0.04300*%
%ADD23C,0.01181*%
%ADD24C,0.02756*%
%ADD25C,0.03543*%
%ADD26R,0.04724X0.02165*%
%ADD27R,0.00984X0.03937*%
%ADD28C,0.01400*%
%ADD29C,0.02800*%
%ADD30C,0.03100*%
%ADD31C,0.02900*%
%ADD32C,0.01000*%
%ADD33C,0.01200*%
D10*
X0014943Y0005516D02*
X0014943Y0094099D01*
X0219667Y0094099D01*
X0219667Y0005516D01*
X0014943Y0005516D01*
X0181008Y0019022D02*
X0181010Y0019106D01*
X0181016Y0019189D01*
X0181026Y0019272D01*
X0181040Y0019355D01*
X0181057Y0019437D01*
X0181079Y0019518D01*
X0181104Y0019597D01*
X0181133Y0019676D01*
X0181166Y0019753D01*
X0181202Y0019828D01*
X0181242Y0019902D01*
X0181285Y0019974D01*
X0181332Y0020043D01*
X0181382Y0020110D01*
X0181435Y0020175D01*
X0181491Y0020237D01*
X0181549Y0020297D01*
X0181611Y0020354D01*
X0181675Y0020407D01*
X0181742Y0020458D01*
X0181811Y0020505D01*
X0181882Y0020550D01*
X0181955Y0020590D01*
X0182030Y0020627D01*
X0182107Y0020661D01*
X0182185Y0020691D01*
X0182264Y0020717D01*
X0182345Y0020740D01*
X0182427Y0020758D01*
X0182509Y0020773D01*
X0182592Y0020784D01*
X0182675Y0020791D01*
X0182759Y0020794D01*
X0182843Y0020793D01*
X0182926Y0020788D01*
X0183010Y0020779D01*
X0183092Y0020766D01*
X0183174Y0020750D01*
X0183255Y0020729D01*
X0183336Y0020705D01*
X0183414Y0020677D01*
X0183492Y0020645D01*
X0183568Y0020609D01*
X0183642Y0020570D01*
X0183714Y0020528D01*
X0183784Y0020482D01*
X0183852Y0020433D01*
X0183917Y0020381D01*
X0183980Y0020326D01*
X0184040Y0020268D01*
X0184098Y0020207D01*
X0184152Y0020143D01*
X0184204Y0020077D01*
X0184252Y0020009D01*
X0184297Y0019938D01*
X0184338Y0019865D01*
X0184377Y0019791D01*
X0184411Y0019715D01*
X0184442Y0019637D01*
X0184469Y0019558D01*
X0184493Y0019477D01*
X0184512Y0019396D01*
X0184528Y0019314D01*
X0184540Y0019231D01*
X0184548Y0019147D01*
X0184552Y0019064D01*
X0184552Y0018980D01*
X0184548Y0018897D01*
X0184540Y0018813D01*
X0184528Y0018730D01*
X0184512Y0018648D01*
X0184493Y0018567D01*
X0184469Y0018486D01*
X0184442Y0018407D01*
X0184411Y0018329D01*
X0184377Y0018253D01*
X0184338Y0018179D01*
X0184297Y0018106D01*
X0184252Y0018035D01*
X0184204Y0017967D01*
X0184152Y0017901D01*
X0184098Y0017837D01*
X0184040Y0017776D01*
X0183980Y0017718D01*
X0183917Y0017663D01*
X0183852Y0017611D01*
X0183784Y0017562D01*
X0183714Y0017516D01*
X0183642Y0017474D01*
X0183568Y0017435D01*
X0183492Y0017399D01*
X0183414Y0017367D01*
X0183336Y0017339D01*
X0183255Y0017315D01*
X0183174Y0017294D01*
X0183092Y0017278D01*
X0183010Y0017265D01*
X0182926Y0017256D01*
X0182843Y0017251D01*
X0182759Y0017250D01*
X0182675Y0017253D01*
X0182592Y0017260D01*
X0182509Y0017271D01*
X0182427Y0017286D01*
X0182345Y0017304D01*
X0182264Y0017327D01*
X0182185Y0017353D01*
X0182107Y0017383D01*
X0182030Y0017417D01*
X0181955Y0017454D01*
X0181882Y0017494D01*
X0181811Y0017539D01*
X0181742Y0017586D01*
X0181675Y0017637D01*
X0181611Y0017690D01*
X0181549Y0017747D01*
X0181491Y0017807D01*
X0181435Y0017869D01*
X0181382Y0017934D01*
X0181332Y0018001D01*
X0181285Y0018070D01*
X0181242Y0018142D01*
X0181202Y0018216D01*
X0181166Y0018291D01*
X0181133Y0018368D01*
X0181104Y0018447D01*
X0181079Y0018526D01*
X0181057Y0018607D01*
X0181040Y0018689D01*
X0181026Y0018772D01*
X0181016Y0018855D01*
X0181010Y0018938D01*
X0181008Y0019022D01*
D11*
X0050866Y0015027D03*
D12*
X0046602Y0050968D03*
X0039122Y0050968D03*
X0039114Y0061187D03*
X0046594Y0061187D03*
X0046594Y0072111D03*
X0039114Y0072111D03*
X0039915Y0082430D03*
X0047396Y0082430D03*
X0121104Y0069306D03*
X0128585Y0069306D03*
X0151040Y0081322D03*
X0158520Y0081322D03*
X0184312Y0065350D03*
X0191792Y0065350D03*
X0202140Y0063822D03*
X0209620Y0063822D03*
X0209620Y0073622D03*
X0202140Y0073622D03*
X0202140Y0082722D03*
X0209620Y0082722D03*
X0208220Y0041422D03*
X0200740Y0041422D03*
X0200740Y0032322D03*
X0208220Y0032322D03*
X0192120Y0032322D03*
X0184640Y0032322D03*
X0176020Y0032322D03*
X0168540Y0032322D03*
X0152741Y0034040D03*
X0145261Y0034040D03*
X0202140Y0019022D03*
X0209620Y0019022D03*
D13*
X0186280Y0041882D03*
X0177180Y0041882D03*
X0168080Y0041882D03*
X0158971Y0047955D03*
X0168080Y0049362D03*
X0177180Y0049362D03*
X0186280Y0049362D03*
X0158971Y0055436D03*
X0158280Y0064282D03*
X0158280Y0071762D03*
X0184234Y0078046D03*
X0193256Y0078034D03*
X0193256Y0085515D03*
X0184234Y0085527D03*
X0130649Y0059196D03*
X0118039Y0058533D03*
X0130649Y0051715D03*
X0118039Y0051052D03*
D14*
X0119770Y0040399D03*
X0130793Y0040399D03*
D15*
X0098330Y0036393D03*
X0095180Y0036393D03*
X0092031Y0036393D03*
X0088881Y0036393D03*
X0085732Y0036393D03*
X0082582Y0036393D03*
X0079432Y0036393D03*
X0076283Y0036393D03*
X0073133Y0036393D03*
X0069984Y0036393D03*
X0066834Y0036393D03*
X0066834Y0082062D03*
X0069984Y0082062D03*
X0073133Y0082062D03*
X0076283Y0082062D03*
X0079432Y0082062D03*
X0082582Y0082062D03*
X0085732Y0082062D03*
X0088881Y0082062D03*
X0092031Y0082062D03*
X0095180Y0082062D03*
X0098330Y0082062D03*
D16*
X0105417Y0074976D03*
X0105417Y0071826D03*
X0105417Y0068677D03*
X0105417Y0065527D03*
X0105417Y0062377D03*
X0105417Y0059228D03*
X0105417Y0056078D03*
X0105417Y0052929D03*
X0105417Y0049779D03*
X0105417Y0046629D03*
X0105417Y0043480D03*
X0059747Y0043480D03*
X0059747Y0046629D03*
X0059747Y0049779D03*
X0059747Y0052929D03*
X0059747Y0056078D03*
X0059747Y0059228D03*
X0059747Y0062377D03*
X0059747Y0065527D03*
X0059747Y0068677D03*
X0059747Y0071826D03*
X0059747Y0074976D03*
D17*
X0100406Y0025167D03*
X0110406Y0025167D03*
X0120406Y0025167D03*
X0120406Y0015167D03*
X0110406Y0015167D03*
X0100406Y0015167D03*
D18*
X0141660Y0044447D03*
X0141660Y0047596D03*
X0141660Y0050746D03*
X0141660Y0053895D03*
X0141660Y0057045D03*
X0141660Y0060195D03*
X0150621Y0060195D03*
X0150621Y0057045D03*
X0150621Y0053895D03*
X0150621Y0050746D03*
X0150621Y0047596D03*
X0150591Y0044447D03*
D19*
X0146140Y0044053D03*
X0146140Y0060588D03*
D20*
X0028471Y0060957D02*
X0023715Y0060957D01*
X0023715Y0055957D02*
X0028471Y0055957D01*
X0028471Y0050957D02*
X0023715Y0050957D01*
X0023715Y0045957D02*
X0028471Y0045957D01*
X0028471Y0040957D02*
X0023715Y0040957D01*
X0023715Y0035957D02*
X0028471Y0035957D01*
X0028471Y0030957D02*
X0023715Y0030957D01*
X0023715Y0025957D02*
X0028471Y0025957D01*
X0028471Y0020957D02*
X0023715Y0020957D01*
X0023715Y0065957D02*
X0028471Y0065957D01*
X0028471Y0070957D02*
X0023715Y0070957D01*
X0023715Y0075957D02*
X0028471Y0075957D01*
X0028471Y0080957D02*
X0023715Y0080957D01*
D21*
X0130979Y0078177D02*
X0130979Y0084177D01*
X0140979Y0084177D02*
X0140979Y0078177D01*
D22*
X0131988Y0018551D03*
X0167388Y0018551D03*
D23*
X0180024Y0019022D02*
X0180026Y0019127D01*
X0180032Y0019232D01*
X0180042Y0019336D01*
X0180056Y0019440D01*
X0180074Y0019544D01*
X0180096Y0019646D01*
X0180121Y0019748D01*
X0180151Y0019849D01*
X0180184Y0019948D01*
X0180221Y0020046D01*
X0180262Y0020143D01*
X0180307Y0020238D01*
X0180355Y0020331D01*
X0180406Y0020423D01*
X0180462Y0020512D01*
X0180520Y0020599D01*
X0180582Y0020684D01*
X0180646Y0020767D01*
X0180714Y0020847D01*
X0180785Y0020924D01*
X0180859Y0020998D01*
X0180936Y0021070D01*
X0181015Y0021139D01*
X0181097Y0021204D01*
X0181181Y0021267D01*
X0181268Y0021326D01*
X0181357Y0021382D01*
X0181448Y0021435D01*
X0181541Y0021484D01*
X0181635Y0021529D01*
X0181731Y0021571D01*
X0181829Y0021609D01*
X0181928Y0021643D01*
X0182029Y0021674D01*
X0182130Y0021700D01*
X0182233Y0021723D01*
X0182336Y0021742D01*
X0182440Y0021757D01*
X0182544Y0021768D01*
X0182649Y0021775D01*
X0182754Y0021778D01*
X0182859Y0021777D01*
X0182964Y0021772D01*
X0183068Y0021763D01*
X0183172Y0021750D01*
X0183276Y0021733D01*
X0183379Y0021712D01*
X0183481Y0021687D01*
X0183582Y0021659D01*
X0183681Y0021626D01*
X0183780Y0021590D01*
X0183877Y0021550D01*
X0183972Y0021507D01*
X0184066Y0021459D01*
X0184158Y0021409D01*
X0184248Y0021355D01*
X0184336Y0021297D01*
X0184421Y0021236D01*
X0184504Y0021172D01*
X0184585Y0021105D01*
X0184663Y0021035D01*
X0184738Y0020961D01*
X0184810Y0020886D01*
X0184880Y0020807D01*
X0184946Y0020726D01*
X0185010Y0020642D01*
X0185070Y0020556D01*
X0185126Y0020468D01*
X0185180Y0020377D01*
X0185230Y0020285D01*
X0185276Y0020191D01*
X0185319Y0020095D01*
X0185358Y0019997D01*
X0185393Y0019899D01*
X0185424Y0019798D01*
X0185452Y0019697D01*
X0185476Y0019595D01*
X0185496Y0019492D01*
X0185512Y0019388D01*
X0185524Y0019284D01*
X0185532Y0019179D01*
X0185536Y0019074D01*
X0185536Y0018970D01*
X0185532Y0018865D01*
X0185524Y0018760D01*
X0185512Y0018656D01*
X0185496Y0018552D01*
X0185476Y0018449D01*
X0185452Y0018347D01*
X0185424Y0018246D01*
X0185393Y0018145D01*
X0185358Y0018047D01*
X0185319Y0017949D01*
X0185276Y0017853D01*
X0185230Y0017759D01*
X0185180Y0017667D01*
X0185126Y0017576D01*
X0185070Y0017488D01*
X0185010Y0017402D01*
X0184946Y0017318D01*
X0184880Y0017237D01*
X0184810Y0017158D01*
X0184738Y0017083D01*
X0184663Y0017009D01*
X0184585Y0016939D01*
X0184504Y0016872D01*
X0184421Y0016808D01*
X0184336Y0016747D01*
X0184248Y0016689D01*
X0184158Y0016635D01*
X0184066Y0016585D01*
X0183972Y0016537D01*
X0183877Y0016494D01*
X0183780Y0016454D01*
X0183681Y0016418D01*
X0183582Y0016385D01*
X0183481Y0016357D01*
X0183379Y0016332D01*
X0183276Y0016311D01*
X0183172Y0016294D01*
X0183068Y0016281D01*
X0182964Y0016272D01*
X0182859Y0016267D01*
X0182754Y0016266D01*
X0182649Y0016269D01*
X0182544Y0016276D01*
X0182440Y0016287D01*
X0182336Y0016302D01*
X0182233Y0016321D01*
X0182130Y0016344D01*
X0182029Y0016370D01*
X0181928Y0016401D01*
X0181829Y0016435D01*
X0181731Y0016473D01*
X0181635Y0016515D01*
X0181541Y0016560D01*
X0181448Y0016609D01*
X0181357Y0016662D01*
X0181268Y0016718D01*
X0181181Y0016777D01*
X0181097Y0016840D01*
X0181015Y0016905D01*
X0180936Y0016974D01*
X0180859Y0017046D01*
X0180785Y0017120D01*
X0180714Y0017197D01*
X0180646Y0017277D01*
X0180582Y0017360D01*
X0180520Y0017445D01*
X0180462Y0017532D01*
X0180406Y0017621D01*
X0180355Y0017713D01*
X0180307Y0017806D01*
X0180262Y0017901D01*
X0180221Y0017998D01*
X0180184Y0018096D01*
X0180151Y0018195D01*
X0180121Y0018296D01*
X0180096Y0018398D01*
X0180074Y0018500D01*
X0180056Y0018604D01*
X0180042Y0018708D01*
X0180032Y0018812D01*
X0180026Y0018917D01*
X0180024Y0019022D01*
D24*
X0179630Y0024140D03*
X0179630Y0013904D03*
D25*
X0193095Y0014297D03*
X0193095Y0019022D03*
X0193095Y0023746D03*
D26*
X0197962Y0048182D03*
X0197962Y0051922D03*
X0197962Y0055662D03*
X0208199Y0055662D03*
X0208199Y0048182D03*
D27*
X0176383Y0063543D03*
X0174415Y0063543D03*
X0172446Y0063543D03*
X0170478Y0063543D03*
X0168509Y0063543D03*
X0168509Y0080181D03*
X0170478Y0080181D03*
X0172446Y0080181D03*
X0174415Y0080181D03*
X0176383Y0080181D03*
D28*
X0178575Y0079637D02*
X0179581Y0079637D01*
X0179581Y0078239D02*
X0178575Y0078239D01*
X0178575Y0077509D02*
X0178575Y0082854D01*
X0178113Y0083316D01*
X0179581Y0083316D01*
X0179581Y0082263D01*
X0180058Y0081786D01*
X0179581Y0081309D01*
X0179581Y0074783D01*
X0180577Y0073787D01*
X0181912Y0073787D01*
X0181912Y0070003D01*
X0181048Y0070003D01*
X0180052Y0069007D01*
X0180052Y0062172D01*
X0180034Y0062172D01*
X0178839Y0061677D01*
X0178575Y0061413D01*
X0178575Y0066215D01*
X0177579Y0067211D01*
X0173218Y0067211D01*
X0173206Y0067199D01*
X0173162Y0067211D01*
X0172446Y0067211D01*
X0171730Y0067211D01*
X0171686Y0067199D01*
X0171674Y0067211D01*
X0167680Y0067211D01*
X0167680Y0067728D01*
X0168040Y0068087D01*
X0168715Y0068762D01*
X0169080Y0069644D01*
X0169080Y0072622D01*
X0170784Y0072622D01*
X0171139Y0072267D01*
X0172334Y0071772D01*
X0173626Y0071772D01*
X0174821Y0072267D01*
X0175735Y0073181D01*
X0176230Y0074375D01*
X0176230Y0075668D01*
X0175880Y0076513D01*
X0177579Y0076513D01*
X0178575Y0077509D01*
X0177907Y0076840D02*
X0179581Y0076840D01*
X0179581Y0075442D02*
X0176230Y0075442D01*
X0176092Y0074043D02*
X0180320Y0074043D01*
X0181912Y0072645D02*
X0175199Y0072645D01*
X0172980Y0075022D02*
X0168080Y0075022D01*
X0166680Y0073622D01*
X0166680Y0070122D01*
X0165280Y0068722D01*
X0165280Y0065922D01*
X0163640Y0064282D01*
X0158280Y0064282D01*
X0162933Y0061882D02*
X0164117Y0061882D01*
X0164999Y0062247D01*
X0166309Y0063557D01*
X0166309Y0055794D01*
X0165943Y0055428D01*
X0165943Y0053621D01*
X0164423Y0053621D01*
X0163623Y0052821D01*
X0163623Y0054856D01*
X0159550Y0054856D01*
X0159550Y0048535D01*
X0158391Y0048535D01*
X0158391Y0052214D01*
X0158391Y0054856D01*
X0154533Y0054856D01*
X0154533Y0055584D01*
X0154480Y0055637D01*
X0154533Y0055837D01*
X0154533Y0056015D01*
X0158391Y0056015D01*
X0158391Y0054856D01*
X0159550Y0054856D01*
X0159550Y0056015D01*
X0158391Y0056015D01*
X0158391Y0059695D01*
X0155794Y0059695D01*
X0155362Y0059579D01*
X0154974Y0059355D01*
X0154657Y0059038D01*
X0154533Y0058823D01*
X0154533Y0060112D01*
X0154623Y0060023D01*
X0161937Y0060023D01*
X0162933Y0061018D01*
X0162933Y0061882D01*
X0162933Y0061457D02*
X0166309Y0061457D01*
X0166309Y0062855D02*
X0165608Y0062855D01*
X0166309Y0060058D02*
X0161973Y0060058D01*
X0162147Y0059695D02*
X0159550Y0059695D01*
X0159550Y0056015D01*
X0163623Y0056015D01*
X0163623Y0058218D01*
X0163507Y0058651D01*
X0163284Y0059038D01*
X0162967Y0059355D01*
X0162580Y0059579D01*
X0162147Y0059695D01*
X0163502Y0058660D02*
X0166309Y0058660D01*
X0166309Y0057261D02*
X0163623Y0057261D01*
X0166309Y0055863D02*
X0159550Y0055863D01*
X0158971Y0055436D02*
X0156166Y0055436D01*
X0154780Y0056822D01*
X0150844Y0056822D01*
X0150621Y0057045D01*
X0148198Y0057045D01*
X0150621Y0057045D01*
X0150621Y0057045D01*
X0148703Y0057045D01*
X0146380Y0054722D01*
X0146380Y0051922D01*
X0145204Y0050746D01*
X0141660Y0050746D01*
X0141660Y0047596D01*
X0138561Y0047596D02*
X0137748Y0047596D01*
X0137748Y0046565D01*
X0137545Y0046481D01*
X0136870Y0045806D01*
X0135249Y0044185D01*
X0135249Y0044253D01*
X0134253Y0045249D01*
X0133193Y0045249D01*
X0133193Y0047456D01*
X0134306Y0047456D01*
X0135302Y0048452D01*
X0135302Y0049544D01*
X0135633Y0049681D01*
X0137748Y0051795D01*
X0137748Y0050746D01*
X0138562Y0050746D01*
X0138561Y0050746D01*
X0137748Y0050746D01*
X0137748Y0049538D01*
X0137840Y0049191D01*
X0137840Y0049151D01*
X0137748Y0048804D01*
X0137748Y0047596D01*
X0138561Y0047596D01*
X0138561Y0047596D01*
X0137748Y0047472D02*
X0134321Y0047472D01*
X0135302Y0048870D02*
X0137765Y0048870D01*
X0137748Y0050269D02*
X0136221Y0050269D01*
X0137619Y0051667D02*
X0137748Y0051667D01*
X0136580Y0054022D02*
X0134274Y0051715D01*
X0131474Y0051715D01*
X0130793Y0051571D02*
X0130649Y0051715D01*
X0130443Y0051922D01*
X0127480Y0051922D01*
X0120869Y0058533D01*
X0118039Y0058533D01*
X0118039Y0066241D01*
X0121104Y0069306D01*
X0124680Y0075722D02*
X0128585Y0071817D01*
X0128585Y0069306D01*
X0143580Y0069306D01*
X0144280Y0070006D01*
X0144280Y0073622D01*
X0151040Y0080382D01*
X0151040Y0081322D01*
X0146781Y0081036D02*
X0141279Y0081036D01*
X0141279Y0080877D02*
X0141279Y0081477D01*
X0140679Y0081477D01*
X0140679Y0080877D01*
X0136279Y0080877D01*
X0136279Y0077807D01*
X0136395Y0077076D01*
X0136624Y0076373D01*
X0136959Y0075714D01*
X0137394Y0075115D01*
X0137917Y0074592D01*
X0138516Y0074157D01*
X0139175Y0073821D01*
X0139879Y0073593D01*
X0140609Y0073477D01*
X0140679Y0073477D01*
X0140679Y0080877D01*
X0141279Y0080877D01*
X0141279Y0073477D01*
X0141349Y0073477D01*
X0141880Y0073561D01*
X0141880Y0071706D01*
X0132844Y0071706D01*
X0132844Y0072963D01*
X0132208Y0073599D01*
X0133642Y0074192D01*
X0134964Y0075515D01*
X0135679Y0077242D01*
X0135679Y0085112D01*
X0134964Y0086839D01*
X0133642Y0088161D01*
X0131914Y0088877D01*
X0130044Y0088877D01*
X0128317Y0088161D01*
X0126995Y0086839D01*
X0126279Y0085112D01*
X0126279Y0083577D01*
X0107421Y0083577D01*
X0106921Y0084077D01*
X0105726Y0084572D01*
X0104434Y0084572D01*
X0103239Y0084077D01*
X0102325Y0083163D01*
X0101830Y0081968D01*
X0101830Y0080675D01*
X0102325Y0079481D01*
X0103239Y0078567D01*
X0104434Y0078072D01*
X0105726Y0078072D01*
X0106921Y0078567D01*
X0107131Y0078777D01*
X0126279Y0078777D01*
X0126279Y0077517D01*
X0126040Y0077756D01*
X0125157Y0078122D01*
X0117203Y0078122D01*
X0116321Y0077756D01*
X0115645Y0077081D01*
X0110069Y0071505D01*
X0110069Y0076664D01*
X0109074Y0077660D01*
X0101760Y0077660D01*
X0100764Y0076664D01*
X0100764Y0063839D01*
X0100817Y0063785D01*
X0100764Y0063585D01*
X0100764Y0062377D01*
X0100764Y0061628D01*
X0098380Y0061628D01*
X0098380Y0071426D01*
X0098735Y0071781D01*
X0099230Y0072975D01*
X0099230Y0074268D01*
X0098735Y0075463D01*
X0097821Y0076377D01*
X0096626Y0076872D01*
X0095334Y0076872D01*
X0094139Y0076377D01*
X0093784Y0076022D01*
X0089274Y0076022D01*
X0088132Y0077164D01*
X0088132Y0077410D01*
X0100018Y0077410D01*
X0101014Y0078405D01*
X0101014Y0085719D01*
X0100018Y0086715D01*
X0084043Y0086715D01*
X0083990Y0086662D01*
X0083790Y0086715D01*
X0082582Y0086715D01*
X0081374Y0086715D01*
X0081174Y0086662D01*
X0081121Y0086715D01*
X0065146Y0086715D01*
X0064150Y0085719D01*
X0064150Y0082162D01*
X0063735Y0083163D01*
X0062821Y0084077D01*
X0061626Y0084572D01*
X0060973Y0084572D01*
X0060349Y0084830D01*
X0051655Y0084830D01*
X0051655Y0086087D01*
X0050659Y0087083D01*
X0044133Y0087083D01*
X0043656Y0086606D01*
X0043518Y0086743D01*
X0043131Y0086967D01*
X0042698Y0087083D01*
X0040495Y0087083D01*
X0040495Y0083010D01*
X0039336Y0083010D01*
X0039336Y0087083D01*
X0037133Y0087083D01*
X0036700Y0086967D01*
X0036313Y0086743D01*
X0035996Y0086427D01*
X0035772Y0086039D01*
X0035656Y0085607D01*
X0035656Y0083010D01*
X0039336Y0083010D01*
X0039336Y0081851D01*
X0035656Y0081851D01*
X0035656Y0079253D01*
X0035772Y0078821D01*
X0035996Y0078433D01*
X0036313Y0078117D01*
X0036700Y0077893D01*
X0037133Y0077777D01*
X0039336Y0077777D01*
X0039336Y0081850D01*
X0040495Y0081850D01*
X0040495Y0077777D01*
X0042698Y0077777D01*
X0043131Y0077893D01*
X0043518Y0078117D01*
X0043656Y0078254D01*
X0044133Y0077777D01*
X0050659Y0077777D01*
X0051655Y0078773D01*
X0051655Y0080030D01*
X0057997Y0080030D01*
X0058225Y0079481D01*
X0059139Y0078567D01*
X0060334Y0078072D01*
X0061626Y0078072D01*
X0062821Y0078567D01*
X0063735Y0079481D01*
X0064150Y0080482D01*
X0064150Y0078405D01*
X0065146Y0077410D01*
X0066472Y0077410D01*
X0065925Y0076863D01*
X0065430Y0075668D01*
X0065430Y0074375D01*
X0065925Y0073181D01*
X0066839Y0072267D01*
X0067752Y0071888D01*
X0064400Y0068536D01*
X0064400Y0076664D01*
X0063404Y0077660D01*
X0056090Y0077660D01*
X0055095Y0076664D01*
X0055095Y0066801D01*
X0053915Y0067981D01*
X0053240Y0068656D01*
X0052357Y0069022D01*
X0050853Y0069022D01*
X0050853Y0071532D01*
X0047174Y0071532D01*
X0047174Y0072691D01*
X0050853Y0072691D01*
X0050853Y0075288D01*
X0050737Y0075720D01*
X0050513Y0076108D01*
X0050197Y0076424D01*
X0049809Y0076648D01*
X0049377Y0076764D01*
X0047173Y0076764D01*
X0047173Y0072691D01*
X0046014Y0072691D01*
X0046014Y0076764D01*
X0043811Y0076764D01*
X0043379Y0076648D01*
X0042991Y0076424D01*
X0042854Y0076287D01*
X0042377Y0076764D01*
X0035850Y0076764D01*
X0034855Y0075768D01*
X0034855Y0068454D01*
X0035850Y0067459D01*
X0036714Y0067459D01*
X0036714Y0065840D01*
X0035850Y0065840D01*
X0034855Y0064844D01*
X0034855Y0057530D01*
X0035850Y0056534D01*
X0036722Y0056534D01*
X0036722Y0055621D01*
X0035859Y0055621D01*
X0034863Y0054625D01*
X0034863Y0050103D01*
X0033117Y0048357D01*
X0031838Y0048357D01*
X0031738Y0048457D01*
X0031928Y0048647D01*
X0032549Y0050146D01*
X0032549Y0051768D01*
X0031928Y0053267D01*
X0031738Y0053457D01*
X0031928Y0053647D01*
X0032549Y0055146D01*
X0032549Y0056768D01*
X0031928Y0058267D01*
X0031738Y0058457D01*
X0031928Y0058647D01*
X0032549Y0060146D01*
X0032549Y0061768D01*
X0031928Y0063267D01*
X0031738Y0063457D01*
X0031928Y0063647D01*
X0032549Y0065146D01*
X0032549Y0066768D01*
X0031928Y0068267D01*
X0031738Y0068457D01*
X0031928Y0068647D01*
X0032549Y0070146D01*
X0032549Y0071768D01*
X0031928Y0073267D01*
X0031738Y0073457D01*
X0031928Y0073647D01*
X0032549Y0075146D01*
X0032549Y0076768D01*
X0031928Y0078267D01*
X0031738Y0078457D01*
X0031928Y0078647D01*
X0032549Y0080146D01*
X0032549Y0081768D01*
X0031928Y0083267D01*
X0030781Y0084414D01*
X0029282Y0085035D01*
X0022904Y0085035D01*
X0021405Y0084414D01*
X0020258Y0083267D01*
X0019643Y0081784D01*
X0019643Y0089399D01*
X0148843Y0089399D01*
X0148843Y0085975D01*
X0147777Y0085975D01*
X0146781Y0084979D01*
X0146781Y0079517D01*
X0145679Y0078415D01*
X0145679Y0080877D01*
X0141279Y0080877D01*
X0141279Y0081477D02*
X0145679Y0081477D01*
X0145679Y0084547D01*
X0145563Y0085277D01*
X0145335Y0085981D01*
X0144999Y0086640D01*
X0144564Y0087239D01*
X0144041Y0087762D01*
X0143443Y0088197D01*
X0142783Y0088533D01*
X0142080Y0088761D01*
X0141349Y0088877D01*
X0141279Y0088877D01*
X0141279Y0081477D01*
X0140679Y0081477D02*
X0140679Y0088877D01*
X0140609Y0088877D01*
X0139879Y0088761D01*
X0139175Y0088533D01*
X0138516Y0088197D01*
X0137917Y0087762D01*
X0137394Y0087239D01*
X0136959Y0086640D01*
X0136624Y0085981D01*
X0136395Y0085277D01*
X0136279Y0084547D01*
X0136279Y0081477D01*
X0140679Y0081477D01*
X0140679Y0081036D02*
X0135679Y0081036D01*
X0135679Y0079637D02*
X0136279Y0079637D01*
X0136279Y0078239D02*
X0135679Y0078239D01*
X0135513Y0076840D02*
X0136472Y0076840D01*
X0140679Y0076840D02*
X0141279Y0076840D01*
X0141279Y0078239D02*
X0140679Y0078239D01*
X0140679Y0079637D02*
X0141279Y0079637D01*
X0145679Y0079637D02*
X0146781Y0079637D01*
X0146781Y0082434D02*
X0145679Y0082434D01*
X0145679Y0083833D02*
X0146781Y0083833D01*
X0147034Y0085231D02*
X0145571Y0085231D01*
X0145004Y0086630D02*
X0148843Y0086630D01*
X0148843Y0088028D02*
X0143674Y0088028D01*
X0141279Y0088028D02*
X0140679Y0088028D01*
X0140679Y0086630D02*
X0141279Y0086630D01*
X0141279Y0085231D02*
X0140679Y0085231D01*
X0140679Y0083833D02*
X0141279Y0083833D01*
X0141279Y0082434D02*
X0140679Y0082434D01*
X0136279Y0082434D02*
X0135679Y0082434D01*
X0135679Y0083833D02*
X0136279Y0083833D01*
X0136388Y0085231D02*
X0135630Y0085231D01*
X0135050Y0086630D02*
X0136954Y0086630D01*
X0138284Y0088028D02*
X0133774Y0088028D01*
X0128184Y0088028D02*
X0019643Y0088028D01*
X0019643Y0086630D02*
X0036199Y0086630D01*
X0039336Y0086630D02*
X0040495Y0086630D01*
X0043632Y0086630D02*
X0043680Y0086630D01*
X0040495Y0085231D02*
X0039336Y0085231D01*
X0039336Y0083833D02*
X0040495Y0083833D01*
X0039336Y0082434D02*
X0032273Y0082434D01*
X0031362Y0083833D02*
X0035656Y0083833D01*
X0035656Y0085231D02*
X0019643Y0085231D01*
X0019643Y0083833D02*
X0020823Y0083833D01*
X0019913Y0082434D02*
X0019643Y0082434D01*
X0032549Y0081036D02*
X0035656Y0081036D01*
X0035656Y0079637D02*
X0032338Y0079637D01*
X0031939Y0078239D02*
X0036191Y0078239D01*
X0039336Y0078239D02*
X0040495Y0078239D01*
X0040495Y0079637D02*
X0039336Y0079637D01*
X0039336Y0081036D02*
X0040495Y0081036D01*
X0043640Y0078239D02*
X0043671Y0078239D01*
X0046014Y0075442D02*
X0047173Y0075442D01*
X0047173Y0074043D02*
X0046014Y0074043D01*
X0047174Y0072645D02*
X0055095Y0072645D01*
X0055095Y0074043D02*
X0050853Y0074043D01*
X0050812Y0075442D02*
X0055095Y0075442D01*
X0055271Y0076840D02*
X0032519Y0076840D01*
X0032549Y0075442D02*
X0034855Y0075442D01*
X0034855Y0074043D02*
X0032092Y0074043D01*
X0032185Y0072645D02*
X0034855Y0072645D01*
X0034855Y0071246D02*
X0032549Y0071246D01*
X0032425Y0069848D02*
X0034855Y0069848D01*
X0034860Y0068449D02*
X0031746Y0068449D01*
X0032432Y0067051D02*
X0036714Y0067051D01*
X0035663Y0065652D02*
X0032549Y0065652D01*
X0032179Y0064254D02*
X0034855Y0064254D01*
X0034855Y0062855D02*
X0032098Y0062855D01*
X0032549Y0061457D02*
X0034855Y0061457D01*
X0034855Y0060058D02*
X0032512Y0060058D01*
X0031933Y0058660D02*
X0034855Y0058660D01*
X0035124Y0057261D02*
X0032344Y0057261D01*
X0032549Y0055863D02*
X0036722Y0055863D01*
X0034863Y0054464D02*
X0032266Y0054464D01*
X0032011Y0053066D02*
X0034863Y0053066D01*
X0034863Y0051667D02*
X0032549Y0051667D01*
X0032549Y0050269D02*
X0034863Y0050269D01*
X0033630Y0048870D02*
X0032020Y0048870D01*
X0035471Y0043923D02*
X0037863Y0046315D01*
X0042385Y0046315D01*
X0042862Y0046792D01*
X0042999Y0046655D01*
X0043387Y0046431D01*
X0043819Y0046315D01*
X0046023Y0046315D01*
X0046023Y0050388D01*
X0047182Y0050388D01*
X0047182Y0046315D01*
X0049385Y0046315D01*
X0049817Y0046431D01*
X0050205Y0046655D01*
X0050522Y0046971D01*
X0050745Y0047359D01*
X0050861Y0047791D01*
X0050861Y0050389D01*
X0047182Y0050389D01*
X0047182Y0051548D01*
X0046023Y0051548D01*
X0046023Y0055621D01*
X0043819Y0055621D01*
X0043387Y0055505D01*
X0042999Y0055281D01*
X0042862Y0055144D01*
X0042385Y0055621D01*
X0041522Y0055621D01*
X0041522Y0056534D01*
X0042377Y0056534D01*
X0042854Y0057011D01*
X0042991Y0056874D01*
X0043379Y0056650D01*
X0043811Y0056534D01*
X0046014Y0056534D01*
X0046014Y0060608D01*
X0047173Y0060608D01*
X0047173Y0056534D01*
X0049377Y0056534D01*
X0049809Y0056650D01*
X0050197Y0056874D01*
X0050513Y0057191D01*
X0050737Y0057578D01*
X0050853Y0058011D01*
X0050853Y0060608D01*
X0047174Y0060608D01*
X0047174Y0061767D01*
X0050853Y0061767D01*
X0050853Y0064222D01*
X0050886Y0064222D01*
X0054765Y0060343D01*
X0055095Y0060206D01*
X0055095Y0059228D01*
X0059747Y0059228D01*
X0059747Y0059228D01*
X0055095Y0059228D01*
X0055095Y0058020D01*
X0055148Y0057820D01*
X0055095Y0057767D01*
X0055095Y0055022D01*
X0054903Y0055022D01*
X0054021Y0054656D01*
X0053345Y0053981D01*
X0051945Y0052581D01*
X0051580Y0051699D01*
X0051580Y0043116D01*
X0031829Y0023365D01*
X0031738Y0023457D01*
X0031928Y0023647D01*
X0032549Y0025146D01*
X0032549Y0026768D01*
X0031928Y0028267D01*
X0031738Y0028457D01*
X0031928Y0028647D01*
X0032549Y0030146D01*
X0032549Y0031768D01*
X0031928Y0033267D01*
X0031738Y0033457D01*
X0031928Y0033647D01*
X0032549Y0035146D01*
X0032549Y0036768D01*
X0031928Y0038267D01*
X0031713Y0038482D01*
X0031958Y0038820D01*
X0032250Y0039392D01*
X0032448Y0040002D01*
X0032549Y0040636D01*
X0032549Y0040957D01*
X0026093Y0040957D01*
X0026093Y0040957D01*
X0032549Y0040957D01*
X0032549Y0041278D01*
X0032448Y0041912D01*
X0032250Y0042523D01*
X0031958Y0043095D01*
X0031713Y0043432D01*
X0031838Y0043557D01*
X0034588Y0043557D01*
X0035471Y0043923D01*
X0036223Y0044675D02*
X0051580Y0044675D01*
X0051580Y0043276D02*
X0031826Y0043276D01*
X0032454Y0041878D02*
X0050342Y0041878D01*
X0048943Y0040479D02*
X0032524Y0040479D01*
X0032091Y0039081D02*
X0047545Y0039081D01*
X0046146Y0037682D02*
X0032170Y0037682D01*
X0032549Y0036284D02*
X0044748Y0036284D01*
X0043349Y0034885D02*
X0032440Y0034885D01*
X0031767Y0033486D02*
X0041951Y0033486D01*
X0040552Y0032088D02*
X0032416Y0032088D01*
X0032549Y0030689D02*
X0039154Y0030689D01*
X0037755Y0029291D02*
X0032194Y0029291D01*
X0032083Y0027892D02*
X0036357Y0027892D01*
X0034958Y0026494D02*
X0032549Y0026494D01*
X0032528Y0025095D02*
X0033560Y0025095D01*
X0032161Y0023697D02*
X0031948Y0023697D01*
X0032815Y0020957D02*
X0053980Y0042122D01*
X0053980Y0051222D01*
X0055380Y0052622D01*
X0059441Y0052622D01*
X0059747Y0052929D01*
X0064400Y0053066D02*
X0066848Y0053066D01*
X0065949Y0052166D02*
X0064400Y0052166D01*
X0064400Y0054617D01*
X0064400Y0057767D01*
X0064347Y0057820D01*
X0064400Y0058020D01*
X0064400Y0059228D01*
X0064400Y0060022D01*
X0066357Y0060022D01*
X0067240Y0060387D01*
X0067820Y0060967D01*
X0067530Y0060268D01*
X0067530Y0058975D01*
X0068025Y0057781D01*
X0068380Y0057426D01*
X0068380Y0054597D01*
X0065949Y0052166D01*
X0066943Y0049766D02*
X0059760Y0049766D01*
X0059747Y0049779D01*
X0059790Y0049822D01*
X0066943Y0049766D02*
X0070780Y0053603D01*
X0070780Y0059622D01*
X0067661Y0058660D02*
X0064400Y0058660D01*
X0064400Y0059228D02*
X0059747Y0059228D01*
X0064400Y0059228D01*
X0066445Y0060058D02*
X0067530Y0060058D01*
X0065880Y0062422D02*
X0059792Y0062422D01*
X0059747Y0062377D01*
X0056124Y0062377D01*
X0051880Y0066622D01*
X0042080Y0066622D01*
X0039114Y0069588D01*
X0039114Y0072111D01*
X0039114Y0061187D01*
X0039122Y0061179D01*
X0039122Y0050968D01*
X0034111Y0045957D01*
X0026093Y0045957D01*
X0037621Y0046073D02*
X0051580Y0046073D01*
X0051580Y0047472D02*
X0050776Y0047472D01*
X0050861Y0048870D02*
X0051580Y0048870D01*
X0051580Y0050269D02*
X0050861Y0050269D01*
X0047182Y0050269D02*
X0046023Y0050269D01*
X0046023Y0048870D02*
X0047182Y0048870D01*
X0047182Y0047472D02*
X0046023Y0047472D01*
X0046023Y0051667D02*
X0047182Y0051667D01*
X0047182Y0051548D02*
X0047182Y0055621D01*
X0049385Y0055621D01*
X0049817Y0055505D01*
X0050205Y0055281D01*
X0050522Y0054965D01*
X0050745Y0054577D01*
X0050861Y0054145D01*
X0050861Y0051548D01*
X0047182Y0051548D01*
X0047182Y0053066D02*
X0046023Y0053066D01*
X0046023Y0054464D02*
X0047182Y0054464D01*
X0050776Y0054464D02*
X0053828Y0054464D01*
X0052430Y0053066D02*
X0050861Y0053066D01*
X0050861Y0051667D02*
X0051580Y0051667D01*
X0055095Y0055863D02*
X0041522Y0055863D01*
X0046014Y0057261D02*
X0047173Y0057261D01*
X0047173Y0058660D02*
X0046014Y0058660D01*
X0046014Y0060058D02*
X0047173Y0060058D01*
X0050853Y0060058D02*
X0055095Y0060058D01*
X0055095Y0058660D02*
X0050853Y0058660D01*
X0050554Y0057261D02*
X0055095Y0057261D01*
X0059747Y0059228D02*
X0059747Y0059228D01*
X0064400Y0057261D02*
X0068380Y0057261D01*
X0068380Y0055863D02*
X0064400Y0055863D01*
X0064400Y0054464D02*
X0068247Y0054464D01*
X0079880Y0049822D02*
X0088980Y0049822D01*
X0095980Y0052622D02*
X0095980Y0043522D01*
X0094580Y0042122D01*
X0081280Y0042122D01*
X0079432Y0040274D01*
X0079432Y0036393D01*
X0076380Y0036490D02*
X0076283Y0036393D01*
X0076283Y0040625D01*
X0081280Y0045622D01*
X0079880Y0049822D02*
X0069984Y0039925D01*
X0069984Y0036393D01*
X0073133Y0036393D02*
X0073133Y0027969D01*
X0074880Y0026222D01*
X0071829Y0025095D02*
X0068980Y0025095D01*
X0068980Y0023697D02*
X0072809Y0023697D01*
X0073039Y0023467D02*
X0074234Y0022972D01*
X0075526Y0022972D01*
X0076721Y0023467D01*
X0077635Y0024381D01*
X0078130Y0025575D01*
X0078130Y0026868D01*
X0077635Y0028063D01*
X0076721Y0028977D01*
X0075533Y0029469D01*
X0075533Y0031740D01*
X0081121Y0031740D01*
X0081174Y0031794D01*
X0081374Y0031740D01*
X0082582Y0031740D01*
X0083790Y0031740D01*
X0083990Y0031794D01*
X0084043Y0031740D01*
X0092780Y0031740D01*
X0092780Y0030116D01*
X0091945Y0029281D01*
X0091580Y0028399D01*
X0091580Y0023744D01*
X0091945Y0022862D01*
X0092621Y0022187D01*
X0096700Y0018108D01*
X0095706Y0017113D01*
X0095706Y0015467D01*
X0100106Y0015467D01*
X0100106Y0014867D01*
X0095706Y0014867D01*
X0095706Y0013220D01*
X0098459Y0010467D01*
X0100106Y0010467D01*
X0100106Y0014867D01*
X0100706Y0014867D01*
X0100706Y0015467D01*
X0105106Y0015467D01*
X0105106Y0017113D01*
X0104498Y0017722D01*
X0106314Y0017722D01*
X0105706Y0017113D01*
X0105706Y0013220D01*
X0108459Y0010467D01*
X0112353Y0010467D01*
X0115106Y0013220D01*
X0115106Y0017073D01*
X0115706Y0016473D01*
X0115706Y0013220D01*
X0118459Y0010467D01*
X0122353Y0010467D01*
X0125106Y0013220D01*
X0125106Y0017113D01*
X0122353Y0019867D01*
X0119100Y0019867D01*
X0118500Y0020467D01*
X0122353Y0020467D01*
X0125106Y0023220D01*
X0125106Y0027113D01*
X0122353Y0029867D01*
X0118459Y0029867D01*
X0115706Y0027113D01*
X0115706Y0023220D01*
X0116741Y0022185D01*
X0115928Y0022522D01*
X0114408Y0022522D01*
X0115106Y0023220D01*
X0115106Y0027113D01*
X0112353Y0029867D01*
X0108459Y0029867D01*
X0105744Y0027151D01*
X0106080Y0027963D01*
X0106080Y0031028D01*
X0106121Y0030987D01*
X0107003Y0030622D01*
X0125086Y0030622D01*
X0129588Y0026120D01*
X0129588Y0022401D01*
X0127334Y0022401D01*
X0126338Y0021405D01*
X0126338Y0015697D01*
X0127334Y0014701D01*
X0136642Y0014701D01*
X0137638Y0015697D01*
X0137638Y0021405D01*
X0136642Y0022401D01*
X0134388Y0022401D01*
X0134388Y0026120D01*
X0134690Y0026422D01*
X0151057Y0026422D01*
X0151940Y0026787D01*
X0152615Y0027462D01*
X0154540Y0029388D01*
X0156004Y0029388D01*
X0157000Y0030384D01*
X0157000Y0037697D01*
X0156004Y0038693D01*
X0149478Y0038693D01*
X0149001Y0038216D01*
X0148524Y0038693D01*
X0141998Y0038693D01*
X0141002Y0037697D01*
X0141002Y0036440D01*
X0139299Y0036440D01*
X0139299Y0038835D01*
X0138933Y0039717D01*
X0138251Y0040399D01*
X0139615Y0041762D01*
X0141312Y0041762D01*
X0141576Y0041653D01*
X0143456Y0041653D01*
X0143456Y0041137D01*
X0144452Y0040141D01*
X0147829Y0040141D01*
X0148825Y0041137D01*
X0148825Y0041762D01*
X0153508Y0041762D01*
X0154503Y0042758D01*
X0154503Y0044619D01*
X0154657Y0044352D01*
X0154974Y0044036D01*
X0155362Y0043812D01*
X0155794Y0043696D01*
X0158391Y0043696D01*
X0158391Y0047376D01*
X0159550Y0047376D01*
X0159550Y0043696D01*
X0162147Y0043696D01*
X0162580Y0043812D01*
X0162967Y0044036D01*
X0163284Y0044352D01*
X0163427Y0044601D01*
X0163427Y0042461D01*
X0167500Y0042461D01*
X0167500Y0041302D01*
X0163427Y0041302D01*
X0163427Y0039099D01*
X0163543Y0038666D01*
X0163767Y0038279D01*
X0164083Y0037962D01*
X0164471Y0037738D01*
X0164903Y0037623D01*
X0167500Y0037623D01*
X0167500Y0041302D01*
X0168660Y0041302D01*
X0168660Y0037623D01*
X0171257Y0037623D01*
X0171689Y0037738D01*
X0172077Y0037962D01*
X0172393Y0038279D01*
X0172567Y0038579D01*
X0173523Y0037623D01*
X0173620Y0037623D01*
X0173620Y0036975D01*
X0172757Y0036975D01*
X0172280Y0036498D01*
X0172143Y0036635D01*
X0171755Y0036859D01*
X0171323Y0036975D01*
X0169119Y0036975D01*
X0169119Y0032901D01*
X0167960Y0032901D01*
X0167960Y0031742D01*
X0164281Y0031742D01*
X0164281Y0029145D01*
X0164397Y0028713D01*
X0164620Y0028325D01*
X0164937Y0028009D01*
X0165325Y0027785D01*
X0165757Y0027669D01*
X0167960Y0027669D01*
X0167960Y0031742D01*
X0169119Y0031742D01*
X0169119Y0027669D01*
X0171144Y0027669D01*
X0170439Y0027377D01*
X0169525Y0026463D01*
X0169030Y0025268D01*
X0169030Y0023975D01*
X0169525Y0022781D01*
X0169905Y0022401D01*
X0167763Y0022401D01*
X0167763Y0018926D01*
X0167013Y0018926D01*
X0167013Y0022401D01*
X0163214Y0022401D01*
X0162782Y0022285D01*
X0162394Y0022061D01*
X0162078Y0021745D01*
X0161854Y0021357D01*
X0161738Y0020925D01*
X0161738Y0018926D01*
X0167013Y0018926D01*
X0167013Y0018176D01*
X0161738Y0018176D01*
X0161738Y0016177D01*
X0161854Y0015745D01*
X0162078Y0015357D01*
X0162394Y0015041D01*
X0162782Y0014817D01*
X0163214Y0014701D01*
X0167013Y0014701D01*
X0167013Y0018176D01*
X0167763Y0018176D01*
X0167763Y0018926D01*
X0173038Y0018926D01*
X0173038Y0020925D01*
X0172922Y0021357D01*
X0172914Y0021372D01*
X0172926Y0021372D01*
X0174121Y0021867D01*
X0175035Y0022781D01*
X0175530Y0023975D01*
X0175530Y0024478D01*
X0177380Y0026327D01*
X0178055Y0027002D01*
X0178331Y0027669D01*
X0179283Y0027669D01*
X0180279Y0028665D01*
X0180279Y0035979D01*
X0179283Y0036975D01*
X0178420Y0036975D01*
X0178420Y0037623D01*
X0180837Y0037623D01*
X0181730Y0038516D01*
X0182623Y0037623D01*
X0189937Y0037623D01*
X0190933Y0038618D01*
X0190933Y0039022D01*
X0196481Y0039022D01*
X0196481Y0037765D01*
X0197374Y0036872D01*
X0196481Y0035979D01*
X0196481Y0034722D01*
X0196379Y0034722D01*
X0196379Y0035979D01*
X0195383Y0036975D01*
X0188857Y0036975D01*
X0188380Y0036498D01*
X0187903Y0036975D01*
X0181377Y0036975D01*
X0180381Y0035979D01*
X0180381Y0028665D01*
X0181377Y0027669D01*
X0182329Y0027669D01*
X0182605Y0027002D01*
X0183280Y0026327D01*
X0184147Y0025460D01*
X0184067Y0025493D01*
X0182401Y0025493D01*
X0182358Y0025598D01*
X0182021Y0026102D01*
X0181592Y0026531D01*
X0181088Y0026868D01*
X0180528Y0027100D01*
X0179934Y0027218D01*
X0179630Y0027218D01*
X0179327Y0027218D01*
X0178733Y0027100D01*
X0178172Y0026868D01*
X0177668Y0026531D01*
X0177240Y0026102D01*
X0176903Y0025598D01*
X0176671Y0025038D01*
X0176552Y0024443D01*
X0176552Y0024140D01*
X0178746Y0024140D01*
X0178746Y0024140D01*
X0176552Y0024140D01*
X0176552Y0023837D01*
X0176671Y0023242D01*
X0176903Y0022682D01*
X0177143Y0022323D01*
X0176308Y0020309D01*
X0176308Y0017734D01*
X0177143Y0015721D01*
X0176903Y0015362D01*
X0176671Y0014801D01*
X0176552Y0014207D01*
X0176552Y0013904D01*
X0178746Y0013904D01*
X0178746Y0013904D01*
X0176552Y0013904D01*
X0176552Y0013601D01*
X0176671Y0013006D01*
X0176903Y0012446D01*
X0177240Y0011942D01*
X0177668Y0011513D01*
X0178172Y0011176D01*
X0178733Y0010944D01*
X0179327Y0010826D01*
X0179630Y0010826D01*
X0179630Y0013322D01*
X0179630Y0013321D01*
X0179630Y0010826D01*
X0179934Y0010826D01*
X0180528Y0010944D01*
X0181088Y0011176D01*
X0181592Y0011513D01*
X0182021Y0011942D01*
X0182358Y0012446D01*
X0182401Y0012550D01*
X0184067Y0012550D01*
X0186446Y0013535D01*
X0188266Y0015356D01*
X0189252Y0017734D01*
X0189252Y0020309D01*
X0188822Y0021346D01*
X0190510Y0021346D01*
X0190398Y0021235D01*
X0190018Y0020666D01*
X0189757Y0020034D01*
X0189623Y0019364D01*
X0189623Y0019208D01*
X0192909Y0019208D01*
X0192909Y0018836D01*
X0189623Y0018836D01*
X0189623Y0018680D01*
X0189757Y0018009D01*
X0190018Y0017377D01*
X0190398Y0016809D01*
X0190548Y0016660D01*
X0190152Y0016264D01*
X0189623Y0014988D01*
X0189623Y0013607D01*
X0190152Y0012331D01*
X0191128Y0011354D01*
X0192404Y0010826D01*
X0193786Y0010826D01*
X0194389Y0011076D01*
X0195249Y0010216D01*
X0064377Y0010216D01*
X0064377Y0018029D01*
X0064739Y0017667D01*
X0065934Y0017172D01*
X0067226Y0017172D01*
X0068421Y0017667D01*
X0069335Y0018581D01*
X0069830Y0019775D01*
X0069830Y0021068D01*
X0069335Y0022263D01*
X0068980Y0022618D01*
X0068980Y0031740D01*
X0070733Y0031740D01*
X0070733Y0027491D01*
X0071099Y0026609D01*
X0071630Y0026078D01*
X0071630Y0025575D01*
X0072125Y0024381D01*
X0073039Y0023467D01*
X0069300Y0022298D02*
X0092509Y0022298D01*
X0091600Y0023697D02*
X0076951Y0023697D01*
X0077931Y0025095D02*
X0091580Y0025095D01*
X0091580Y0026494D02*
X0078130Y0026494D01*
X0077706Y0027892D02*
X0091580Y0027892D01*
X0091955Y0029291D02*
X0075963Y0029291D01*
X0075533Y0030689D02*
X0092780Y0030689D01*
X0095180Y0029122D02*
X0095180Y0036393D01*
X0101014Y0036284D02*
X0102768Y0036284D01*
X0102925Y0036663D02*
X0102430Y0035468D01*
X0102430Y0034966D01*
X0101645Y0034181D01*
X0101280Y0033299D01*
X0101280Y0029867D01*
X0098459Y0029867D01*
X0097580Y0028988D01*
X0097580Y0031740D01*
X0100018Y0031740D01*
X0101014Y0032736D01*
X0101014Y0040050D01*
X0100018Y0041046D01*
X0096898Y0041046D01*
X0097339Y0041487D01*
X0097340Y0041487D01*
X0098015Y0042162D01*
X0098380Y0043044D01*
X0098380Y0050426D01*
X0098735Y0050781D01*
X0099230Y0051975D01*
X0099230Y0053268D01*
X0098735Y0054463D01*
X0098380Y0054818D01*
X0098380Y0056828D01*
X0100764Y0056828D01*
X0100764Y0041791D01*
X0101760Y0040795D01*
X0109074Y0040795D01*
X0110069Y0041791D01*
X0110069Y0060916D01*
X0110016Y0060970D01*
X0110069Y0061169D01*
X0110069Y0062377D01*
X0105417Y0062377D01*
X0105417Y0062377D01*
X0110069Y0062377D01*
X0110069Y0063127D01*
X0110979Y0063127D01*
X0111639Y0062467D01*
X0112834Y0061972D01*
X0113562Y0061972D01*
X0113386Y0061796D01*
X0113386Y0055270D01*
X0113863Y0054793D01*
X0113726Y0054655D01*
X0113502Y0054268D01*
X0113386Y0053835D01*
X0113386Y0051632D01*
X0117459Y0051632D01*
X0117459Y0050473D01*
X0113386Y0050473D01*
X0113386Y0048270D01*
X0113502Y0047837D01*
X0113726Y0047450D01*
X0114042Y0047133D01*
X0114430Y0046909D01*
X0114862Y0046793D01*
X0117460Y0046793D01*
X0117460Y0050473D01*
X0118619Y0050473D01*
X0118619Y0051632D01*
X0122692Y0051632D01*
X0122692Y0053316D01*
X0125445Y0050562D01*
X0125997Y0050011D01*
X0125997Y0048452D01*
X0126992Y0047456D01*
X0128393Y0047456D01*
X0128393Y0045249D01*
X0127333Y0045249D01*
X0126337Y0044253D01*
X0126337Y0036545D01*
X0127333Y0035549D01*
X0133819Y0035549D01*
X0133330Y0034368D01*
X0133330Y0033075D01*
X0133825Y0031881D01*
X0134484Y0031222D01*
X0133219Y0031222D01*
X0132336Y0030856D01*
X0131988Y0030508D01*
X0128115Y0034381D01*
X0127440Y0035056D01*
X0126557Y0035422D01*
X0108930Y0035422D01*
X0108930Y0035468D01*
X0108435Y0036663D01*
X0107521Y0037577D01*
X0106326Y0038072D01*
X0105034Y0038072D01*
X0103839Y0037577D01*
X0102925Y0036663D01*
X0104093Y0037682D02*
X0101014Y0037682D01*
X0101014Y0039081D02*
X0115314Y0039081D01*
X0115314Y0039721D02*
X0115314Y0037026D01*
X0115430Y0036593D01*
X0115654Y0036206D01*
X0115970Y0035889D01*
X0116358Y0035665D01*
X0116790Y0035549D01*
X0119092Y0035549D01*
X0119092Y0039721D01*
X0120448Y0039721D01*
X0120448Y0041077D01*
X0124226Y0041077D01*
X0124226Y0043772D01*
X0124110Y0044205D01*
X0123886Y0044592D01*
X0123570Y0044909D01*
X0123182Y0045133D01*
X0122749Y0045249D01*
X0120448Y0045249D01*
X0120448Y0041077D01*
X0119092Y0041077D01*
X0119092Y0045249D01*
X0116790Y0045249D01*
X0116358Y0045133D01*
X0115970Y0044909D01*
X0115654Y0044592D01*
X0115430Y0044205D01*
X0115314Y0043772D01*
X0115314Y0041077D01*
X0119092Y0041077D01*
X0119092Y0039721D01*
X0115314Y0039721D01*
X0115314Y0037682D02*
X0107267Y0037682D01*
X0108592Y0036284D02*
X0115608Y0036284D01*
X0119092Y0036284D02*
X0120448Y0036284D01*
X0120448Y0035549D02*
X0122749Y0035549D01*
X0123182Y0035665D01*
X0123570Y0035889D01*
X0123886Y0036206D01*
X0124110Y0036593D01*
X0124226Y0037026D01*
X0124226Y0039721D01*
X0120448Y0039721D01*
X0120448Y0035549D01*
X0120448Y0037682D02*
X0119092Y0037682D01*
X0119092Y0039081D02*
X0120448Y0039081D01*
X0120448Y0040479D02*
X0126337Y0040479D01*
X0126337Y0039081D02*
X0124226Y0039081D01*
X0124226Y0037682D02*
X0126337Y0037682D01*
X0126599Y0036284D02*
X0123931Y0036284D01*
X0127611Y0034885D02*
X0133544Y0034885D01*
X0133330Y0033486D02*
X0129009Y0033486D01*
X0128115Y0034381D02*
X0128115Y0034381D01*
X0126080Y0033022D02*
X0107480Y0033022D01*
X0105680Y0034822D01*
X0103680Y0032822D01*
X0103680Y0028441D01*
X0100406Y0025167D01*
X0098080Y0020122D02*
X0093980Y0024222D01*
X0093980Y0027922D01*
X0095180Y0029122D01*
X0097580Y0029291D02*
X0097884Y0029291D01*
X0097580Y0030689D02*
X0101280Y0030689D01*
X0101280Y0032088D02*
X0100366Y0032088D01*
X0101014Y0033486D02*
X0101358Y0033486D01*
X0101014Y0034885D02*
X0102349Y0034885D01*
X0106080Y0030689D02*
X0106839Y0030689D01*
X0106080Y0029291D02*
X0107884Y0029291D01*
X0106485Y0027892D02*
X0106051Y0027892D01*
X0112928Y0029291D02*
X0117884Y0029291D01*
X0116485Y0027892D02*
X0114327Y0027892D01*
X0115106Y0026494D02*
X0115706Y0026494D01*
X0115706Y0025095D02*
X0115106Y0025095D01*
X0115106Y0023697D02*
X0115706Y0023697D01*
X0116468Y0022298D02*
X0116627Y0022298D01*
X0115451Y0020122D02*
X0098080Y0020122D01*
X0095306Y0019501D02*
X0069717Y0019501D01*
X0068857Y0018103D02*
X0096695Y0018103D01*
X0095706Y0016704D02*
X0064377Y0016704D01*
X0064377Y0015306D02*
X0100106Y0015306D01*
X0100706Y0015306D02*
X0105706Y0015306D01*
X0105106Y0014867D02*
X0105106Y0013220D01*
X0102353Y0010467D01*
X0100706Y0010467D01*
X0100706Y0014867D01*
X0105106Y0014867D01*
X0105106Y0013907D02*
X0105706Y0013907D01*
X0106417Y0012509D02*
X0104395Y0012509D01*
X0102996Y0011110D02*
X0107816Y0011110D01*
X0112996Y0011110D02*
X0117816Y0011110D01*
X0116417Y0012509D02*
X0114395Y0012509D01*
X0115106Y0013907D02*
X0115706Y0013907D01*
X0115706Y0015306D02*
X0115106Y0015306D01*
X0115106Y0016704D02*
X0115474Y0016704D01*
X0115451Y0020122D02*
X0120406Y0015167D01*
X0125106Y0015306D02*
X0126729Y0015306D01*
X0125106Y0013907D02*
X0176552Y0013907D01*
X0176877Y0012509D02*
X0124395Y0012509D01*
X0122996Y0011110D02*
X0178331Y0011110D01*
X0179630Y0011110D02*
X0179630Y0011110D01*
X0180930Y0011110D02*
X0191717Y0011110D01*
X0190078Y0012509D02*
X0182384Y0012509D01*
X0179630Y0012509D02*
X0179630Y0012509D01*
X0179630Y0013904D02*
X0178098Y0013904D01*
X0175780Y0016222D01*
X0175780Y0020289D01*
X0179630Y0024140D01*
X0179630Y0024722D02*
X0179630Y0027218D01*
X0179630Y0024722D01*
X0179630Y0024722D01*
X0179630Y0025095D02*
X0179630Y0025095D01*
X0179630Y0026494D02*
X0179630Y0026494D01*
X0179507Y0027892D02*
X0181153Y0027892D01*
X0181629Y0026494D02*
X0183114Y0026494D01*
X0184640Y0028362D02*
X0184640Y0032322D01*
X0180381Y0032088D02*
X0180279Y0032088D01*
X0180279Y0033486D02*
X0180381Y0033486D01*
X0180381Y0034885D02*
X0180279Y0034885D01*
X0179974Y0036284D02*
X0180686Y0036284D01*
X0180896Y0037682D02*
X0182564Y0037682D01*
X0186740Y0041422D02*
X0193280Y0041422D01*
X0192580Y0042122D01*
X0192580Y0045622D01*
X0197962Y0048182D02*
X0208199Y0048182D01*
X0208220Y0048160D01*
X0208220Y0041422D01*
X0208220Y0032322D01*
X0209620Y0030922D01*
X0209620Y0019022D01*
X0202719Y0019601D02*
X0201560Y0019601D01*
X0201560Y0018442D01*
X0197881Y0018442D01*
X0197881Y0015845D01*
X0197997Y0015413D01*
X0198220Y0015025D01*
X0198537Y0014709D01*
X0198925Y0014485D01*
X0199357Y0014369D01*
X0201560Y0014369D01*
X0201560Y0018442D01*
X0202719Y0018442D01*
X0202719Y0014369D01*
X0204923Y0014369D01*
X0205355Y0014485D01*
X0205743Y0014709D01*
X0205880Y0014846D01*
X0206357Y0014369D01*
X0212883Y0014369D01*
X0213343Y0014829D01*
X0213343Y0013910D01*
X0212549Y0013116D01*
X0199137Y0013116D01*
X0196072Y0016181D01*
X0196038Y0016264D01*
X0195642Y0016660D01*
X0195792Y0016809D01*
X0196172Y0017377D01*
X0196433Y0018009D01*
X0196567Y0018680D01*
X0196567Y0018836D01*
X0193281Y0018836D01*
X0193281Y0019208D01*
X0196567Y0019208D01*
X0196567Y0019364D01*
X0196433Y0020034D01*
X0196172Y0020666D01*
X0195792Y0021235D01*
X0195642Y0021384D01*
X0196038Y0021780D01*
X0196567Y0023056D01*
X0196567Y0024437D01*
X0196038Y0025713D01*
X0195062Y0026689D01*
X0193786Y0027218D01*
X0192404Y0027218D01*
X0191128Y0026689D01*
X0190585Y0026146D01*
X0190250Y0026146D01*
X0188315Y0028081D01*
X0188380Y0028146D01*
X0188857Y0027669D01*
X0195383Y0027669D01*
X0196379Y0028665D01*
X0196379Y0029922D01*
X0196481Y0029922D01*
X0196481Y0028665D01*
X0197477Y0027669D01*
X0204003Y0027669D01*
X0204480Y0028146D01*
X0204957Y0027669D01*
X0207220Y0027669D01*
X0207220Y0023675D01*
X0206357Y0023675D01*
X0205880Y0023198D01*
X0205743Y0023335D01*
X0205355Y0023559D01*
X0204923Y0023675D01*
X0202719Y0023675D01*
X0202719Y0019601D01*
X0201560Y0019601D02*
X0201560Y0023675D01*
X0199357Y0023675D01*
X0198925Y0023559D01*
X0198537Y0023335D01*
X0198220Y0023018D01*
X0197997Y0022631D01*
X0197881Y0022198D01*
X0197881Y0019601D01*
X0201560Y0019601D01*
X0201560Y0019501D02*
X0196539Y0019501D01*
X0196452Y0018103D02*
X0197881Y0018103D01*
X0197881Y0016704D02*
X0195687Y0016704D01*
X0196948Y0015306D02*
X0198058Y0015306D01*
X0198346Y0013907D02*
X0213340Y0013907D01*
X0215743Y0012916D02*
X0215743Y0023859D01*
X0213580Y0026022D01*
X0207220Y0026494D02*
X0195257Y0026494D01*
X0195607Y0027892D02*
X0197253Y0027892D01*
X0196481Y0029291D02*
X0196379Y0029291D01*
X0190933Y0026494D02*
X0189902Y0026494D01*
X0188634Y0027892D02*
X0188503Y0027892D01*
X0184640Y0028362D02*
X0189256Y0023746D01*
X0193095Y0023746D01*
X0196294Y0025095D02*
X0207220Y0025095D01*
X0207220Y0023697D02*
X0196567Y0023697D01*
X0196253Y0022298D02*
X0197908Y0022298D01*
X0197881Y0020900D02*
X0196015Y0020900D01*
X0190175Y0020900D02*
X0189007Y0020900D01*
X0189252Y0019501D02*
X0189651Y0019501D01*
X0189738Y0018103D02*
X0189252Y0018103D01*
X0188825Y0016704D02*
X0190503Y0016704D01*
X0189755Y0015306D02*
X0188216Y0015306D01*
X0186818Y0013907D02*
X0189623Y0013907D01*
X0193095Y0014297D02*
X0194562Y0014297D01*
X0198143Y0010716D01*
X0213543Y0010716D01*
X0215743Y0012916D01*
X0202719Y0015306D02*
X0201560Y0015306D01*
X0201560Y0016704D02*
X0202719Y0016704D01*
X0202719Y0018103D02*
X0201560Y0018103D01*
X0201560Y0020900D02*
X0202719Y0020900D01*
X0202719Y0022298D02*
X0201560Y0022298D01*
X0204226Y0027892D02*
X0204734Y0027892D01*
X0200740Y0032322D02*
X0192120Y0032322D01*
X0196379Y0034885D02*
X0196481Y0034885D01*
X0196786Y0036284D02*
X0196074Y0036284D01*
X0196564Y0037682D02*
X0189996Y0037682D01*
X0186740Y0041422D02*
X0186280Y0041882D01*
X0177180Y0041882D01*
X0176020Y0040722D01*
X0176020Y0032322D01*
X0176020Y0028362D01*
X0172280Y0024622D01*
X0175415Y0023697D02*
X0176580Y0023697D01*
X0176695Y0025095D02*
X0176148Y0025095D01*
X0177546Y0026494D02*
X0177632Y0026494D01*
X0180279Y0029291D02*
X0180381Y0029291D01*
X0180381Y0030689D02*
X0180279Y0030689D01*
X0169119Y0030689D02*
X0167960Y0030689D01*
X0167960Y0032088D02*
X0157000Y0032088D01*
X0157000Y0033486D02*
X0164281Y0033486D01*
X0164281Y0032901D02*
X0167960Y0032901D01*
X0167960Y0036975D01*
X0165757Y0036975D01*
X0165325Y0036859D01*
X0164937Y0036635D01*
X0164620Y0036318D01*
X0164397Y0035931D01*
X0164281Y0035498D01*
X0164281Y0032901D01*
X0164281Y0034885D02*
X0157000Y0034885D01*
X0157000Y0036284D02*
X0164600Y0036284D01*
X0164682Y0037682D02*
X0157000Y0037682D01*
X0152741Y0034040D02*
X0152741Y0030983D01*
X0150580Y0028822D01*
X0133696Y0028822D01*
X0131988Y0027114D01*
X0126080Y0033022D01*
X0130408Y0032088D02*
X0133739Y0032088D01*
X0132170Y0030689D02*
X0131806Y0030689D01*
X0126417Y0029291D02*
X0122928Y0029291D01*
X0124327Y0027892D02*
X0127815Y0027892D01*
X0129214Y0026494D02*
X0125106Y0026494D01*
X0125106Y0025095D02*
X0129588Y0025095D01*
X0129588Y0023697D02*
X0125106Y0023697D01*
X0124185Y0022298D02*
X0127231Y0022298D01*
X0126338Y0020900D02*
X0122786Y0020900D01*
X0122718Y0019501D02*
X0126338Y0019501D01*
X0126338Y0018103D02*
X0124117Y0018103D01*
X0125106Y0016704D02*
X0126338Y0016704D01*
X0131988Y0018551D02*
X0131988Y0027114D01*
X0134388Y0025095D02*
X0169030Y0025095D01*
X0169145Y0023697D02*
X0134388Y0023697D01*
X0136745Y0022298D02*
X0162832Y0022298D01*
X0161738Y0020900D02*
X0137638Y0020900D01*
X0137638Y0019501D02*
X0161738Y0019501D01*
X0161738Y0018103D02*
X0137638Y0018103D01*
X0137638Y0016704D02*
X0161738Y0016704D01*
X0162129Y0015306D02*
X0137247Y0015306D01*
X0151232Y0026494D02*
X0169556Y0026494D01*
X0169119Y0027892D02*
X0167960Y0027892D01*
X0167960Y0029291D02*
X0169119Y0029291D01*
X0165138Y0027892D02*
X0153045Y0027892D01*
X0154443Y0029291D02*
X0164281Y0029291D01*
X0164281Y0030689D02*
X0157000Y0030689D01*
X0167960Y0033486D02*
X0169119Y0033486D01*
X0169119Y0034885D02*
X0167960Y0034885D01*
X0167960Y0036284D02*
X0169119Y0036284D01*
X0168660Y0037682D02*
X0167500Y0037682D01*
X0167500Y0039081D02*
X0168660Y0039081D01*
X0168660Y0040479D02*
X0167500Y0040479D01*
X0163427Y0040479D02*
X0148167Y0040479D01*
X0144114Y0040479D02*
X0138331Y0040479D01*
X0139197Y0039081D02*
X0163432Y0039081D01*
X0167500Y0041878D02*
X0153623Y0041878D01*
X0154503Y0043276D02*
X0163427Y0043276D01*
X0159550Y0044675D02*
X0158391Y0044675D01*
X0158391Y0046073D02*
X0159550Y0046073D01*
X0159550Y0048870D02*
X0158391Y0048870D01*
X0158391Y0050269D02*
X0159550Y0050269D01*
X0159550Y0051667D02*
X0158391Y0051667D01*
X0158391Y0053066D02*
X0159550Y0053066D01*
X0159550Y0054464D02*
X0158391Y0054464D01*
X0158391Y0055863D02*
X0154533Y0055863D01*
X0158391Y0057261D02*
X0159550Y0057261D01*
X0159550Y0058660D02*
X0158391Y0058660D01*
X0154587Y0060058D02*
X0154533Y0060058D01*
X0151980Y0060236D02*
X0150621Y0060195D01*
X0150621Y0066581D01*
X0147896Y0069306D01*
X0143580Y0069306D01*
X0141880Y0072645D02*
X0132844Y0072645D01*
X0133282Y0074043D02*
X0138739Y0074043D01*
X0140679Y0074043D02*
X0141279Y0074043D01*
X0141279Y0075442D02*
X0140679Y0075442D01*
X0137157Y0075442D02*
X0134891Y0075442D01*
X0126279Y0078239D02*
X0106130Y0078239D01*
X0104030Y0078239D02*
X0100848Y0078239D01*
X0100940Y0076840D02*
X0096702Y0076840D01*
X0095258Y0076840D02*
X0088456Y0076840D01*
X0085732Y0076170D02*
X0085732Y0082062D01*
X0082582Y0082063D02*
X0082582Y0082063D01*
X0082582Y0086715D01*
X0082582Y0082063D01*
X0082582Y0082062D02*
X0082582Y0077410D01*
X0081832Y0077410D01*
X0081832Y0075497D01*
X0081467Y0074615D01*
X0081335Y0074482D01*
X0082034Y0074772D01*
X0083326Y0074772D01*
X0084025Y0074482D01*
X0083697Y0074811D01*
X0083332Y0075693D01*
X0083332Y0077410D01*
X0082582Y0077410D01*
X0082582Y0082062D01*
X0082582Y0082062D01*
X0082582Y0082434D02*
X0082582Y0082434D01*
X0082582Y0083833D02*
X0082582Y0083833D01*
X0082582Y0085231D02*
X0082582Y0085231D01*
X0082582Y0086630D02*
X0082582Y0086630D01*
X0079432Y0082062D02*
X0079432Y0075974D01*
X0078480Y0075022D01*
X0068680Y0075022D01*
X0065568Y0074043D02*
X0064400Y0074043D01*
X0064400Y0072645D02*
X0066461Y0072645D01*
X0067110Y0071246D02*
X0064400Y0071246D01*
X0064400Y0069848D02*
X0065712Y0069848D01*
X0064785Y0065527D02*
X0070780Y0071522D01*
X0082680Y0071522D01*
X0083436Y0075442D02*
X0081810Y0075442D01*
X0081832Y0076840D02*
X0083332Y0076840D01*
X0082582Y0078239D02*
X0082582Y0078239D01*
X0082582Y0079637D02*
X0082582Y0079637D01*
X0082582Y0081036D02*
X0082582Y0081036D01*
X0085732Y0076170D02*
X0088280Y0073622D01*
X0095980Y0073622D01*
X0095980Y0066622D01*
X0094624Y0067977D01*
X0071436Y0067977D01*
X0065880Y0062422D01*
X0064785Y0065527D02*
X0059747Y0065527D01*
X0055095Y0067051D02*
X0054845Y0067051D01*
X0055095Y0068449D02*
X0053447Y0068449D01*
X0055095Y0069848D02*
X0050853Y0069848D01*
X0050853Y0071246D02*
X0055095Y0071246D01*
X0064400Y0075442D02*
X0065430Y0075442D01*
X0065916Y0076840D02*
X0064224Y0076840D01*
X0064316Y0078239D02*
X0062030Y0078239D01*
X0059930Y0078239D02*
X0051121Y0078239D01*
X0051655Y0079637D02*
X0058160Y0079637D01*
X0059872Y0082430D02*
X0060980Y0081322D01*
X0059872Y0082430D02*
X0047396Y0082430D01*
X0051655Y0085231D02*
X0064150Y0085231D01*
X0064150Y0083833D02*
X0063065Y0083833D01*
X0064037Y0082434D02*
X0064150Y0082434D01*
X0064150Y0079637D02*
X0063800Y0079637D01*
X0065060Y0086630D02*
X0051112Y0086630D01*
X0095980Y0066622D02*
X0095980Y0062422D01*
X0095936Y0062377D01*
X0095980Y0062422D02*
X0095980Y0060322D01*
X0097074Y0059228D01*
X0095980Y0058134D01*
X0095980Y0052622D01*
X0099102Y0051667D02*
X0100764Y0051667D01*
X0100764Y0053066D02*
X0099230Y0053066D01*
X0098734Y0054464D02*
X0100764Y0054464D01*
X0100764Y0055863D02*
X0098380Y0055863D01*
X0097074Y0059228D02*
X0105417Y0059228D01*
X0105417Y0062377D02*
X0100764Y0062377D01*
X0105417Y0062377D01*
X0109324Y0062377D01*
X0112780Y0058922D01*
X0112780Y0052622D01*
X0114180Y0051222D01*
X0117870Y0051222D01*
X0118039Y0051052D01*
X0118619Y0050473D02*
X0118619Y0046793D01*
X0121216Y0046793D01*
X0121648Y0046909D01*
X0122036Y0047133D01*
X0122352Y0047450D01*
X0122576Y0047837D01*
X0122692Y0048270D01*
X0122692Y0050473D01*
X0118619Y0050473D01*
X0118619Y0050269D02*
X0117460Y0050269D01*
X0117460Y0048870D02*
X0118619Y0048870D01*
X0118619Y0047472D02*
X0117460Y0047472D01*
X0113713Y0047472D02*
X0110069Y0047472D01*
X0110069Y0048870D02*
X0113386Y0048870D01*
X0113386Y0050269D02*
X0110069Y0050269D01*
X0110069Y0051667D02*
X0113386Y0051667D01*
X0113386Y0053066D02*
X0110069Y0053066D01*
X0110069Y0054464D02*
X0113616Y0054464D01*
X0113386Y0055863D02*
X0110069Y0055863D01*
X0110069Y0057261D02*
X0113386Y0057261D01*
X0113386Y0058660D02*
X0110069Y0058660D01*
X0110069Y0060058D02*
X0113386Y0060058D01*
X0113386Y0061457D02*
X0110069Y0061457D01*
X0110069Y0062855D02*
X0111250Y0062855D01*
X0113480Y0065222D02*
X0113175Y0065527D01*
X0105417Y0065527D01*
X0100764Y0065652D02*
X0098380Y0065652D01*
X0098380Y0064254D02*
X0100764Y0064254D01*
X0100764Y0062855D02*
X0098380Y0062855D01*
X0098380Y0067051D02*
X0100764Y0067051D01*
X0100764Y0068449D02*
X0098380Y0068449D01*
X0098380Y0069848D02*
X0100764Y0069848D01*
X0100764Y0071246D02*
X0098380Y0071246D01*
X0099093Y0072645D02*
X0100764Y0072645D01*
X0100764Y0074043D02*
X0099230Y0074043D01*
X0098744Y0075442D02*
X0100764Y0075442D01*
X0101014Y0079637D02*
X0102260Y0079637D01*
X0101830Y0081036D02*
X0101014Y0081036D01*
X0105080Y0081322D02*
X0105225Y0081177D01*
X0130979Y0081177D01*
X0126279Y0083833D02*
X0107165Y0083833D01*
X0102995Y0083833D02*
X0101014Y0083833D01*
X0101014Y0085231D02*
X0126329Y0085231D01*
X0126908Y0086630D02*
X0100104Y0086630D01*
X0101014Y0082434D02*
X0102023Y0082434D01*
X0109893Y0076840D02*
X0115404Y0076840D01*
X0117680Y0075722D02*
X0124680Y0075722D01*
X0117680Y0075722D02*
X0110635Y0068677D01*
X0105417Y0068677D01*
X0110069Y0072645D02*
X0111209Y0072645D01*
X0110069Y0074043D02*
X0112607Y0074043D01*
X0114006Y0075442D02*
X0110069Y0075442D01*
X0123980Y0063122D02*
X0126723Y0063122D01*
X0144980Y0063122D01*
X0146140Y0061961D01*
X0146140Y0060588D01*
X0141660Y0060195D02*
X0137853Y0060195D01*
X0136580Y0058922D01*
X0136580Y0054022D01*
X0141660Y0057045D02*
X0144057Y0057045D01*
X0146380Y0054722D01*
X0146709Y0054464D02*
X0145572Y0054464D01*
X0145572Y0055584D02*
X0145518Y0055637D01*
X0145572Y0055837D01*
X0145572Y0056676D01*
X0146709Y0056676D01*
X0146709Y0055837D01*
X0146762Y0055637D01*
X0146709Y0055584D01*
X0146709Y0047965D01*
X0145589Y0047965D01*
X0145940Y0048316D01*
X0145940Y0050025D01*
X0145572Y0050393D01*
X0145572Y0050746D01*
X0145572Y0051954D01*
X0145518Y0052154D01*
X0145572Y0052207D01*
X0145572Y0055584D01*
X0145572Y0055863D02*
X0146709Y0055863D01*
X0148198Y0057045D02*
X0148198Y0057045D01*
X0144083Y0057045D02*
X0141660Y0057045D01*
X0141660Y0057045D01*
X0144083Y0057045D01*
X0144083Y0057045D01*
X0145572Y0053066D02*
X0146709Y0053066D01*
X0146709Y0051667D02*
X0145572Y0051667D01*
X0145572Y0050746D02*
X0145219Y0050746D01*
X0145220Y0050746D01*
X0145572Y0050746D01*
X0145697Y0050269D02*
X0146709Y0050269D01*
X0146709Y0048870D02*
X0145940Y0048870D01*
X0146140Y0044053D02*
X0142053Y0044053D01*
X0141660Y0044447D01*
X0138905Y0044447D01*
X0134857Y0040399D01*
X0136899Y0038357D01*
X0136899Y0034040D01*
X0145261Y0034040D01*
X0141002Y0037682D02*
X0139299Y0037682D01*
X0134857Y0040399D02*
X0130793Y0040399D01*
X0130793Y0051571D01*
X0125739Y0050269D02*
X0122692Y0050269D01*
X0122692Y0048870D02*
X0125997Y0048870D01*
X0126977Y0047472D02*
X0122365Y0047472D01*
X0123804Y0044675D02*
X0126759Y0044675D01*
X0126337Y0043276D02*
X0124226Y0043276D01*
X0124226Y0041878D02*
X0126337Y0041878D01*
X0120448Y0041878D02*
X0119092Y0041878D01*
X0119092Y0043276D02*
X0120448Y0043276D01*
X0120448Y0044675D02*
X0119092Y0044675D01*
X0115736Y0044675D02*
X0110069Y0044675D01*
X0110069Y0043276D02*
X0115314Y0043276D01*
X0115314Y0041878D02*
X0110069Y0041878D01*
X0110069Y0046073D02*
X0128393Y0046073D01*
X0133193Y0046073D02*
X0137137Y0046073D01*
X0135739Y0044675D02*
X0134827Y0044675D01*
X0124341Y0051667D02*
X0122692Y0051667D01*
X0122692Y0053066D02*
X0122942Y0053066D01*
X0130649Y0059196D02*
X0126723Y0063122D01*
X0105417Y0062377D02*
X0105417Y0062377D01*
X0100764Y0050269D02*
X0098380Y0050269D01*
X0098380Y0048870D02*
X0100764Y0048870D01*
X0100764Y0047472D02*
X0098380Y0047472D01*
X0098380Y0046073D02*
X0100764Y0046073D01*
X0100764Y0044675D02*
X0098380Y0044675D01*
X0098380Y0043276D02*
X0100764Y0043276D01*
X0100764Y0041878D02*
X0097730Y0041878D01*
X0100585Y0040479D02*
X0119092Y0040479D01*
X0136580Y0033722D02*
X0136899Y0034040D01*
X0167013Y0022298D02*
X0167763Y0022298D01*
X0167763Y0020900D02*
X0167013Y0020900D01*
X0167013Y0019501D02*
X0167763Y0019501D01*
X0167763Y0018176D02*
X0173038Y0018176D01*
X0173038Y0016177D01*
X0172922Y0015745D01*
X0172698Y0015357D01*
X0172382Y0015041D01*
X0171994Y0014817D01*
X0171562Y0014701D01*
X0167763Y0014701D01*
X0167763Y0018176D01*
X0167763Y0018103D02*
X0167013Y0018103D01*
X0167013Y0016704D02*
X0167763Y0016704D01*
X0167763Y0015306D02*
X0167013Y0015306D01*
X0172647Y0015306D02*
X0176880Y0015306D01*
X0176735Y0016704D02*
X0173038Y0016704D01*
X0173038Y0018103D02*
X0176308Y0018103D01*
X0176308Y0019501D02*
X0173038Y0019501D01*
X0173038Y0020900D02*
X0176553Y0020900D01*
X0177132Y0022298D02*
X0174553Y0022298D01*
X0173464Y0037682D02*
X0171479Y0037682D01*
X0193280Y0041422D02*
X0200740Y0041422D01*
X0208199Y0048182D02*
X0212640Y0048182D01*
X0213580Y0049122D01*
X0213580Y0059862D01*
X0209620Y0063822D01*
X0209620Y0073622D01*
X0209620Y0082722D01*
X0213879Y0082434D02*
X0214967Y0082434D01*
X0214967Y0083833D02*
X0213879Y0083833D01*
X0213879Y0085231D02*
X0214967Y0085231D01*
X0213879Y0086379D02*
X0212883Y0087375D01*
X0206357Y0087375D01*
X0205880Y0086898D01*
X0205743Y0087035D01*
X0205355Y0087259D01*
X0204923Y0087375D01*
X0202719Y0087375D01*
X0202719Y0083301D01*
X0201560Y0083301D01*
X0201560Y0082142D01*
X0197881Y0082142D01*
X0197881Y0080920D01*
X0197793Y0081250D01*
X0197569Y0081637D01*
X0197431Y0081775D01*
X0197908Y0082251D01*
X0197908Y0083301D01*
X0201560Y0083301D01*
X0201560Y0087375D01*
X0199357Y0087375D01*
X0198925Y0087259D01*
X0198537Y0087035D01*
X0198220Y0086718D01*
X0197997Y0086331D01*
X0197908Y0086001D01*
X0197908Y0088778D01*
X0197287Y0089399D01*
X0214967Y0089399D01*
X0214967Y0061869D01*
X0214940Y0061897D01*
X0214939Y0061897D01*
X0213879Y0062957D01*
X0213879Y0067479D01*
X0212883Y0068475D01*
X0212020Y0068475D01*
X0212020Y0068969D01*
X0212883Y0068969D01*
X0213879Y0069965D01*
X0213879Y0077279D01*
X0212986Y0078172D01*
X0213879Y0079065D01*
X0213879Y0086379D01*
X0213628Y0086630D02*
X0214967Y0086630D01*
X0214967Y0088028D02*
X0197908Y0088028D01*
X0197908Y0086630D02*
X0198169Y0086630D01*
X0201560Y0086630D02*
X0202719Y0086630D01*
X0202719Y0085231D02*
X0201560Y0085231D01*
X0201560Y0083833D02*
X0202719Y0083833D01*
X0202140Y0082722D02*
X0200040Y0080622D01*
X0198180Y0080622D01*
X0195593Y0078034D01*
X0193256Y0078034D01*
X0193835Y0078239D02*
X0198831Y0078239D01*
X0198837Y0078235D02*
X0197908Y0077306D01*
X0197908Y0077455D01*
X0193835Y0077455D01*
X0193835Y0073775D01*
X0196432Y0073775D01*
X0196865Y0073891D01*
X0197252Y0074115D01*
X0197569Y0074431D01*
X0197793Y0074819D01*
X0197881Y0075149D01*
X0197881Y0069965D01*
X0198877Y0068969D01*
X0199740Y0068969D01*
X0199740Y0068475D01*
X0198877Y0068475D01*
X0197881Y0067479D01*
X0197881Y0062017D01*
X0195927Y0060063D01*
X0195562Y0059181D01*
X0195562Y0058445D01*
X0194895Y0058445D01*
X0194512Y0058062D01*
X0193730Y0058062D01*
X0193730Y0058868D01*
X0193235Y0060063D01*
X0192601Y0060697D01*
X0194575Y0060697D01*
X0195007Y0060813D01*
X0195395Y0061037D01*
X0195711Y0061354D01*
X0195935Y0061741D01*
X0196051Y0062174D01*
X0196051Y0064771D01*
X0192371Y0064771D01*
X0192371Y0065930D01*
X0191212Y0065930D01*
X0191212Y0070003D01*
X0189009Y0070003D01*
X0188577Y0069887D01*
X0188189Y0069663D01*
X0188052Y0069526D01*
X0187575Y0070003D01*
X0186712Y0070003D01*
X0186712Y0073787D01*
X0187890Y0073787D01*
X0188793Y0074690D01*
X0188943Y0074431D01*
X0189259Y0074115D01*
X0189647Y0073891D01*
X0190079Y0073775D01*
X0192676Y0073775D01*
X0192676Y0077455D01*
X0193835Y0077455D01*
X0193835Y0078614D01*
X0197908Y0078614D01*
X0197908Y0079442D01*
X0197997Y0079113D01*
X0198220Y0078725D01*
X0198537Y0078409D01*
X0198837Y0078235D01*
X0197881Y0081036D02*
X0197850Y0081036D01*
X0197908Y0082434D02*
X0201560Y0082434D01*
X0193835Y0076840D02*
X0192676Y0076840D01*
X0192676Y0075442D02*
X0193835Y0075442D01*
X0193835Y0074043D02*
X0192676Y0074043D01*
X0189383Y0074043D02*
X0188147Y0074043D01*
X0186712Y0072645D02*
X0197881Y0072645D01*
X0197881Y0074043D02*
X0197128Y0074043D01*
X0197881Y0071246D02*
X0186712Y0071246D01*
X0187730Y0069848D02*
X0188509Y0069848D01*
X0191212Y0069848D02*
X0192371Y0069848D01*
X0192371Y0070003D02*
X0192371Y0065930D01*
X0196051Y0065930D01*
X0196051Y0068527D01*
X0195935Y0068959D01*
X0195711Y0069347D01*
X0195395Y0069663D01*
X0195007Y0069887D01*
X0194575Y0070003D01*
X0192371Y0070003D01*
X0192371Y0068449D02*
X0191212Y0068449D01*
X0191212Y0067051D02*
X0192371Y0067051D01*
X0192371Y0065652D02*
X0197881Y0065652D01*
X0197881Y0064254D02*
X0196051Y0064254D01*
X0196051Y0062855D02*
X0197881Y0062855D01*
X0197321Y0061457D02*
X0195771Y0061457D01*
X0195925Y0060058D02*
X0193237Y0060058D01*
X0193730Y0058660D02*
X0195562Y0058660D01*
X0197962Y0058703D02*
X0202140Y0062882D01*
X0202140Y0063822D01*
X0202140Y0073622D01*
X0197998Y0069848D02*
X0195075Y0069848D01*
X0196051Y0068449D02*
X0198851Y0068449D01*
X0197881Y0067051D02*
X0196051Y0067051D01*
X0184312Y0065350D02*
X0184312Y0056230D01*
X0186280Y0054262D01*
X0186280Y0049362D01*
X0190933Y0048870D02*
X0191930Y0048870D01*
X0191934Y0048872D02*
X0190933Y0048457D01*
X0190933Y0052625D01*
X0189937Y0053621D01*
X0188680Y0053621D01*
X0188680Y0054739D01*
X0188315Y0055621D01*
X0187640Y0056297D01*
X0186712Y0057225D01*
X0186712Y0060697D01*
X0187575Y0060697D01*
X0188052Y0061174D01*
X0188189Y0061037D01*
X0188512Y0060850D01*
X0187725Y0060063D01*
X0187230Y0058868D01*
X0187230Y0057575D01*
X0187725Y0056381D01*
X0188305Y0055800D01*
X0188445Y0055462D01*
X0189605Y0054302D01*
X0190280Y0053627D01*
X0191162Y0053262D01*
X0193908Y0053262D01*
X0193899Y0053228D01*
X0193899Y0051922D01*
X0197961Y0051922D01*
X0197961Y0051922D01*
X0193899Y0051922D01*
X0193899Y0050615D01*
X0194015Y0050183D01*
X0194051Y0050120D01*
X0193899Y0049968D01*
X0193899Y0048593D01*
X0193226Y0048872D01*
X0191934Y0048872D01*
X0193230Y0048870D02*
X0193899Y0048870D01*
X0193992Y0050269D02*
X0190933Y0050269D01*
X0190933Y0051667D02*
X0193899Y0051667D01*
X0193899Y0053066D02*
X0190492Y0053066D01*
X0189444Y0054464D02*
X0188680Y0054464D01*
X0190480Y0056822D02*
X0191640Y0055662D01*
X0197962Y0055662D01*
X0197962Y0058703D01*
X0201062Y0058410D02*
X0201821Y0059169D01*
X0205403Y0059169D01*
X0205880Y0059646D01*
X0206357Y0059169D01*
X0210879Y0059169D01*
X0211180Y0058868D01*
X0211180Y0058445D01*
X0205132Y0058445D01*
X0204136Y0057449D01*
X0204136Y0053875D01*
X0205132Y0052879D01*
X0206259Y0052879D01*
X0206130Y0052568D01*
X0206130Y0051275D01*
X0206259Y0050964D01*
X0205132Y0050964D01*
X0204749Y0050582D01*
X0202015Y0050582D01*
X0202024Y0050615D01*
X0202024Y0051922D01*
X0202024Y0053228D01*
X0201908Y0053661D01*
X0201872Y0053723D01*
X0202024Y0053875D01*
X0202024Y0057449D01*
X0201062Y0058410D01*
X0201312Y0058660D02*
X0211180Y0058660D01*
X0208199Y0055662D02*
X0209380Y0054480D01*
X0209380Y0051922D01*
X0206130Y0051667D02*
X0202024Y0051667D01*
X0202024Y0051922D02*
X0197962Y0051922D01*
X0202024Y0051922D01*
X0202024Y0053066D02*
X0204946Y0053066D01*
X0204136Y0054464D02*
X0202024Y0054464D01*
X0202024Y0055863D02*
X0204136Y0055863D01*
X0204136Y0057261D02*
X0202024Y0057261D01*
X0197962Y0051922D02*
X0197962Y0051922D01*
X0190480Y0056822D02*
X0190480Y0058222D01*
X0188243Y0055863D02*
X0188073Y0055863D01*
X0187360Y0057261D02*
X0186712Y0057261D01*
X0186712Y0058660D02*
X0187230Y0058660D01*
X0187723Y0060058D02*
X0186712Y0060058D01*
X0180052Y0062855D02*
X0178575Y0062855D01*
X0178575Y0061457D02*
X0178619Y0061457D01*
X0178575Y0064254D02*
X0180052Y0064254D01*
X0180052Y0065652D02*
X0178575Y0065652D01*
X0177740Y0067051D02*
X0180052Y0067051D01*
X0180052Y0068449D02*
X0168402Y0068449D01*
X0169080Y0069848D02*
X0180893Y0069848D01*
X0181912Y0071246D02*
X0169080Y0071246D01*
X0172446Y0067211D02*
X0172446Y0066439D01*
X0172446Y0066439D01*
X0172446Y0066439D01*
X0172446Y0067211D01*
X0172446Y0067051D02*
X0172446Y0067051D01*
X0184312Y0065350D02*
X0184312Y0074468D01*
X0184234Y0078046D01*
X0179581Y0081036D02*
X0178575Y0081036D01*
X0178575Y0082434D02*
X0179581Y0082434D01*
X0184234Y0085527D02*
X0184245Y0085515D01*
X0158980Y0087622D02*
X0158980Y0081782D01*
X0158520Y0081322D01*
X0157120Y0072922D02*
X0150580Y0072922D01*
X0157120Y0072922D02*
X0158280Y0071762D01*
X0163623Y0054464D02*
X0165943Y0054464D01*
X0163868Y0053066D02*
X0163623Y0053066D01*
X0213981Y0062855D02*
X0214967Y0062855D01*
X0214967Y0064254D02*
X0213879Y0064254D01*
X0213879Y0065652D02*
X0214967Y0065652D01*
X0214967Y0067051D02*
X0213879Y0067051D01*
X0212909Y0068449D02*
X0214967Y0068449D01*
X0214967Y0069848D02*
X0213762Y0069848D01*
X0213879Y0071246D02*
X0214967Y0071246D01*
X0214967Y0072645D02*
X0213879Y0072645D01*
X0213879Y0074043D02*
X0214967Y0074043D01*
X0214967Y0075442D02*
X0213879Y0075442D01*
X0213879Y0076840D02*
X0214967Y0076840D01*
X0214967Y0078239D02*
X0213053Y0078239D01*
X0213879Y0079637D02*
X0214967Y0079637D01*
X0214967Y0081036D02*
X0213879Y0081036D01*
X0093908Y0020900D02*
X0069830Y0020900D01*
X0066580Y0020422D02*
X0066580Y0036139D01*
X0066834Y0036393D01*
X0061680Y0038622D02*
X0053980Y0030922D01*
X0052580Y0030922D01*
X0068980Y0030689D02*
X0070733Y0030689D01*
X0070733Y0029291D02*
X0068980Y0029291D01*
X0068980Y0027892D02*
X0070733Y0027892D01*
X0071214Y0026494D02*
X0068980Y0026494D01*
X0082582Y0031740D02*
X0082582Y0036393D01*
X0082582Y0031740D01*
X0082582Y0032088D02*
X0082582Y0032088D01*
X0082582Y0033486D02*
X0082582Y0033486D01*
X0082582Y0034885D02*
X0082582Y0034885D01*
X0082582Y0036284D02*
X0082582Y0036284D01*
X0082582Y0036393D02*
X0082582Y0036393D01*
X0105106Y0016704D02*
X0105706Y0016704D01*
X0100706Y0013907D02*
X0100106Y0013907D01*
X0100106Y0012509D02*
X0100706Y0012509D01*
X0100706Y0011110D02*
X0100106Y0011110D01*
X0097816Y0011110D02*
X0064377Y0011110D01*
X0064377Y0012509D02*
X0096417Y0012509D01*
X0095706Y0013907D02*
X0064377Y0013907D01*
X0032815Y0020957D02*
X0026093Y0020957D01*
X0047174Y0061457D02*
X0053651Y0061457D01*
X0052252Y0062855D02*
X0050853Y0062855D01*
D29*
X0033680Y0072222D03*
X0136580Y0048422D03*
D30*
X0123980Y0063122D03*
X0113480Y0065222D03*
X0095980Y0073622D03*
X0082680Y0071522D03*
X0068680Y0075022D03*
X0060980Y0081322D03*
X0105080Y0081322D03*
X0070780Y0059622D03*
X0088980Y0049822D03*
X0095980Y0052622D03*
X0081280Y0045622D03*
X0061680Y0038622D03*
X0052580Y0030922D03*
X0066580Y0020422D03*
X0074880Y0026222D03*
X0105680Y0034822D03*
X0136580Y0033722D03*
X0172280Y0024622D03*
X0200980Y0026022D03*
X0213580Y0026022D03*
X0192580Y0045622D03*
X0209380Y0051922D03*
X0203080Y0054022D03*
X0190480Y0058222D03*
X0180680Y0058922D03*
X0172280Y0069422D03*
X0172980Y0075022D03*
X0191880Y0071522D03*
X0158980Y0087622D03*
X0150580Y0072922D03*
D31*
X0112878Y0044359D03*
X0085778Y0013859D03*
D32*
X0168080Y0049362D02*
X0168143Y0049425D01*
X0168143Y0054516D01*
X0168509Y0054882D01*
X0168509Y0063543D01*
X0170478Y0063543D02*
X0170478Y0059782D01*
X0177143Y0053116D01*
X0177143Y0049399D01*
X0177180Y0049362D01*
X0175843Y0058916D02*
X0180675Y0058916D01*
X0180680Y0058922D01*
X0175843Y0058916D02*
X0174415Y0060345D01*
X0174415Y0063543D01*
X0172446Y0063543D02*
X0172446Y0069256D01*
X0172280Y0069422D01*
X0163943Y0073116D02*
X0162543Y0071716D01*
X0158326Y0071716D01*
X0158280Y0071762D01*
X0163943Y0073116D02*
X0163943Y0078616D01*
X0165508Y0080181D01*
X0168509Y0080181D01*
X0170478Y0080181D02*
X0170478Y0087682D01*
X0166643Y0091516D01*
X0152543Y0091516D01*
X0151043Y0090016D01*
X0151043Y0081325D01*
X0151040Y0081322D01*
X0172446Y0080181D02*
X0172446Y0084119D01*
X0173843Y0085516D01*
X0184223Y0085516D01*
X0184234Y0085527D01*
X0184245Y0085515D02*
X0193256Y0085515D01*
D33*
X0131474Y0051715D02*
X0130649Y0051715D01*
M02*
