%
M48
M72
T01C0.01200
T02C0.01300
T03C0.01500
T04C0.02756
T05C0.03543
T06C0.04000
%
T01
X136580Y48422
X33680Y72222
T02
X112878Y44359
X85778Y13859
T03
X66580Y20422
X74880Y26222
X52580Y30922
X61680Y38622
X81280Y45622
X88980Y49822
X95980Y52622
X113480Y65222
X123980Y63122
X150580Y72922
X172280Y69422
X172980Y75022
X191880Y71522
X190480Y58222
X180680Y58922
X203080Y54022
X209380Y51922
X192580Y45622
X200980Y26022
X213580Y26022
X172280Y24622
X136580Y33722
X105680Y34822
X70780Y59622
X82680Y71522
X95980Y73622
X105080Y81322
X68680Y75022
X60980Y81322
X158980Y87622
T04
X26093Y20957
X26093Y25957
X26093Y30957
X26093Y35957
X26093Y40957
X26093Y45957
X26093Y50957
X26093Y55957
X26093Y60957
X26093Y65957
X26093Y70957
X26093Y75957
X26093Y80957
T05
X182780Y19022
T06
X120406Y15167
X110406Y15167
X100406Y15167
X100406Y25167
X110406Y25167
X120406Y25167
X130979Y81177
X140979Y81177
M30
