G75*
%MOIN*%
%OFA0B0*%
%FSLAX25Y25*%
%IPPOS*%
%LPD*%
%AMOC8*
5,1,8,0,0,1.08239X$1,22.5*
%
%ADD10R,0.23622X0.13780*%
%ADD11OC8,0.06000*%
%ADD12C,0.04756*%
%ADD13C,0.06000*%
%ADD14C,0.01400*%
%ADD15C,0.02800*%
%ADD16C,0.03100*%
%ADD17C,0.02900*%
D10*
X0050866Y0015027D03*
D11*
X0100406Y0015167D03*
X0110406Y0015167D03*
X0120406Y0015167D03*
X0120406Y0025167D03*
X0110406Y0025167D03*
X0100406Y0025167D03*
D12*
X0028471Y0020957D02*
X0023715Y0020957D01*
X0023715Y0025957D02*
X0028471Y0025957D01*
X0028471Y0030957D02*
X0023715Y0030957D01*
X0023715Y0035957D02*
X0028471Y0035957D01*
X0028471Y0040957D02*
X0023715Y0040957D01*
X0023715Y0045957D02*
X0028471Y0045957D01*
X0028471Y0050957D02*
X0023715Y0050957D01*
X0023715Y0055957D02*
X0028471Y0055957D01*
X0028471Y0060957D02*
X0023715Y0060957D01*
X0023715Y0065957D02*
X0028471Y0065957D01*
X0028471Y0070957D02*
X0023715Y0070957D01*
X0023715Y0075957D02*
X0028471Y0075957D01*
X0028471Y0080957D02*
X0023715Y0080957D01*
D13*
X0130979Y0078177D02*
X0130979Y0084177D01*
X0140979Y0084177D02*
X0140979Y0078177D01*
D14*
X0140679Y0080877D02*
X0136279Y0080877D01*
X0136279Y0077807D01*
X0136395Y0077076D01*
X0136624Y0076373D01*
X0136959Y0075714D01*
X0137244Y0075322D01*
X0134771Y0075322D01*
X0134964Y0075515D01*
X0135679Y0077242D01*
X0135679Y0085112D01*
X0135054Y0086622D01*
X0136950Y0086622D01*
X0136624Y0085981D01*
X0136395Y0085277D01*
X0136279Y0084547D01*
X0136279Y0081477D01*
X0140679Y0081477D01*
X0140679Y0080877D01*
X0140679Y0081036D02*
X0135679Y0081036D01*
X0135679Y0079637D02*
X0136279Y0079637D01*
X0136279Y0078239D02*
X0135679Y0078239D01*
X0135513Y0076840D02*
X0136472Y0076840D01*
X0137157Y0075442D02*
X0134891Y0075442D01*
X0127188Y0075322D02*
X0120703Y0075322D01*
X0119821Y0074956D01*
X0119145Y0074281D01*
X0113336Y0068472D01*
X0112834Y0068472D01*
X0111639Y0067977D01*
X0110725Y0067063D01*
X0110230Y0065868D01*
X0110230Y0064575D01*
X0110725Y0063381D01*
X0111639Y0062467D01*
X0112834Y0061972D01*
X0114126Y0061972D01*
X0115321Y0062467D01*
X0115481Y0062627D01*
X0116345Y0061762D01*
X0117021Y0061087D01*
X0117903Y0060722D01*
X0121784Y0060722D01*
X0122139Y0060367D01*
X0123334Y0059872D01*
X0124626Y0059872D01*
X0125821Y0060367D01*
X0126735Y0061281D01*
X0127230Y0062475D01*
X0127230Y0063768D01*
X0126735Y0064963D01*
X0125821Y0065877D01*
X0124626Y0066372D01*
X0123334Y0066372D01*
X0122139Y0065877D01*
X0121784Y0065522D01*
X0119374Y0065522D01*
X0118274Y0066622D01*
X0122174Y0070522D01*
X0148384Y0070522D01*
X0148739Y0070167D01*
X0149934Y0069672D01*
X0151226Y0069672D01*
X0152421Y0070167D01*
X0153335Y0071081D01*
X0153830Y0072275D01*
X0153830Y0073568D01*
X0153335Y0074763D01*
X0152421Y0075677D01*
X0151226Y0076172D01*
X0149934Y0076172D01*
X0148739Y0075677D01*
X0148384Y0075322D01*
X0144714Y0075322D01*
X0144999Y0075714D01*
X0145335Y0076373D01*
X0145563Y0077076D01*
X0145679Y0077807D01*
X0145679Y0080877D01*
X0141279Y0080877D01*
X0141279Y0081477D01*
X0145679Y0081477D01*
X0145679Y0084547D01*
X0145563Y0085277D01*
X0145335Y0085981D01*
X0145008Y0086622D01*
X0155876Y0086622D01*
X0156225Y0085781D01*
X0157139Y0084867D01*
X0158334Y0084372D01*
X0159626Y0084372D01*
X0160821Y0084867D01*
X0161176Y0085222D01*
X0162180Y0085222D01*
X0162180Y0026944D01*
X0162545Y0026062D01*
X0165345Y0023262D01*
X0166021Y0022587D01*
X0166903Y0022222D01*
X0170084Y0022222D01*
X0170439Y0021867D01*
X0171634Y0021372D01*
X0172926Y0021372D01*
X0174121Y0021867D01*
X0175035Y0022781D01*
X0175530Y0023975D01*
X0175530Y0025268D01*
X0175035Y0026463D01*
X0174121Y0027377D01*
X0172926Y0027872D01*
X0171634Y0027872D01*
X0170439Y0027377D01*
X0170084Y0027022D01*
X0168374Y0027022D01*
X0166980Y0028416D01*
X0166980Y0072622D01*
X0170784Y0072622D01*
X0171139Y0072267D01*
X0172334Y0071772D01*
X0173626Y0071772D01*
X0174821Y0072267D01*
X0175735Y0073181D01*
X0176230Y0074375D01*
X0176230Y0075668D01*
X0175735Y0076863D01*
X0174821Y0077777D01*
X0173626Y0078272D01*
X0172334Y0078272D01*
X0171139Y0077777D01*
X0170784Y0077422D01*
X0166980Y0077422D01*
X0166980Y0086699D01*
X0166615Y0087581D01*
X0165940Y0088256D01*
X0165474Y0088722D01*
X0176880Y0088722D01*
X0176880Y0061944D01*
X0177245Y0061062D01*
X0177814Y0060494D01*
X0177430Y0059568D01*
X0177430Y0058275D01*
X0177925Y0057081D01*
X0178839Y0056167D01*
X0180034Y0055672D01*
X0181326Y0055672D01*
X0182521Y0056167D01*
X0182876Y0056522D01*
X0187666Y0056522D01*
X0187725Y0056381D01*
X0188639Y0055467D01*
X0189834Y0054972D01*
X0191126Y0054972D01*
X0192321Y0055467D01*
X0193235Y0056381D01*
X0193730Y0057575D01*
X0193730Y0058868D01*
X0193235Y0060063D01*
X0192321Y0060977D01*
X0191126Y0061472D01*
X0189834Y0061472D01*
X0189471Y0061322D01*
X0183080Y0061322D01*
X0183080Y0061499D01*
X0182715Y0062381D01*
X0181680Y0063416D01*
X0181680Y0089399D01*
X0214967Y0089399D01*
X0214967Y0053228D01*
X0214940Y0053256D01*
X0214240Y0053956D01*
X0213357Y0054322D01*
X0211576Y0054322D01*
X0211221Y0054677D01*
X0210026Y0055172D01*
X0208734Y0055172D01*
X0207539Y0054677D01*
X0206625Y0053763D01*
X0206130Y0052568D01*
X0206130Y0052066D01*
X0204886Y0050822D01*
X0194203Y0050822D01*
X0193321Y0050456D01*
X0191596Y0048732D01*
X0190739Y0048377D01*
X0189825Y0047463D01*
X0189330Y0046268D01*
X0189330Y0044975D01*
X0189825Y0043781D01*
X0190739Y0042867D01*
X0191934Y0042372D01*
X0193226Y0042372D01*
X0194421Y0042867D01*
X0195335Y0043781D01*
X0195830Y0044975D01*
X0195830Y0046022D01*
X0206357Y0046022D01*
X0207240Y0046387D01*
X0207915Y0047062D01*
X0209524Y0048672D01*
X0210026Y0048672D01*
X0211180Y0049150D01*
X0211180Y0028218D01*
X0210825Y0027863D01*
X0210330Y0026668D01*
X0210330Y0025375D01*
X0210825Y0024181D01*
X0211739Y0023267D01*
X0212934Y0022772D01*
X0214226Y0022772D01*
X0214967Y0023079D01*
X0214967Y0010216D01*
X0064377Y0010216D01*
X0064377Y0018029D01*
X0064739Y0017667D01*
X0065934Y0017172D01*
X0067226Y0017172D01*
X0068421Y0017667D01*
X0068776Y0018022D01*
X0096614Y0018022D01*
X0095706Y0017113D01*
X0095706Y0015467D01*
X0100106Y0015467D01*
X0100106Y0014867D01*
X0095706Y0014867D01*
X0095706Y0013220D01*
X0098459Y0010467D01*
X0100106Y0010467D01*
X0100106Y0014867D01*
X0100706Y0014867D01*
X0100706Y0015467D01*
X0105106Y0015467D01*
X0105106Y0017073D01*
X0105706Y0016473D01*
X0105706Y0013220D01*
X0108459Y0010467D01*
X0112353Y0010467D01*
X0115106Y0013220D01*
X0115106Y0017113D01*
X0112353Y0019867D01*
X0109100Y0019867D01*
X0108500Y0020467D01*
X0112353Y0020467D01*
X0115106Y0023220D01*
X0115106Y0027113D01*
X0112806Y0029413D01*
X0112806Y0030173D01*
X0112441Y0031055D01*
X0111315Y0032181D01*
X0110640Y0032856D01*
X0109757Y0033222D01*
X0108535Y0033222D01*
X0108930Y0034175D01*
X0108930Y0035468D01*
X0108640Y0036167D01*
X0116700Y0028108D01*
X0115706Y0027113D01*
X0115706Y0023220D01*
X0118459Y0020467D01*
X0122353Y0020467D01*
X0125106Y0023220D01*
X0125106Y0027113D01*
X0122353Y0029867D01*
X0121729Y0029867D01*
X0102915Y0048681D01*
X0102240Y0049356D01*
X0101357Y0049722D01*
X0097471Y0049722D01*
X0097821Y0049867D01*
X0098176Y0050222D01*
X0116686Y0050222D01*
X0133330Y0033578D01*
X0133330Y0033075D01*
X0133825Y0031881D01*
X0134739Y0030967D01*
X0135934Y0030472D01*
X0137226Y0030472D01*
X0138421Y0030967D01*
X0139335Y0031881D01*
X0139830Y0033075D01*
X0139830Y0034368D01*
X0139335Y0035563D01*
X0138421Y0036477D01*
X0137226Y0036972D01*
X0136724Y0036972D01*
X0119040Y0054656D01*
X0118157Y0055022D01*
X0098176Y0055022D01*
X0097821Y0055377D01*
X0096626Y0055872D01*
X0095334Y0055872D01*
X0094139Y0055377D01*
X0093225Y0054463D01*
X0092730Y0053268D01*
X0092730Y0051975D01*
X0093225Y0050781D01*
X0094139Y0049867D01*
X0094489Y0049722D01*
X0092474Y0049722D01*
X0092230Y0049966D01*
X0092230Y0050468D01*
X0091735Y0051663D01*
X0090821Y0052577D01*
X0089626Y0053072D01*
X0088334Y0053072D01*
X0087139Y0052577D01*
X0086784Y0052222D01*
X0075903Y0052222D01*
X0075021Y0051856D01*
X0074345Y0051181D01*
X0064186Y0041022D01*
X0063876Y0041022D01*
X0063521Y0041377D01*
X0062326Y0041872D01*
X0061034Y0041872D01*
X0059839Y0041377D01*
X0058925Y0040463D01*
X0058430Y0039268D01*
X0058430Y0037975D01*
X0058720Y0037276D01*
X0058004Y0037992D01*
X0057122Y0038357D01*
X0031838Y0038357D01*
X0031713Y0038482D01*
X0031958Y0038820D01*
X0032250Y0039392D01*
X0032448Y0040002D01*
X0032549Y0040636D01*
X0032549Y0040957D01*
X0026093Y0040957D01*
X0026093Y0040957D01*
X0032549Y0040957D01*
X0032549Y0041278D01*
X0032448Y0041912D01*
X0032250Y0042523D01*
X0031958Y0043095D01*
X0031713Y0043432D01*
X0031928Y0043647D01*
X0032549Y0045146D01*
X0032549Y0046768D01*
X0031928Y0048267D01*
X0031738Y0048457D01*
X0031928Y0048647D01*
X0032549Y0050146D01*
X0032549Y0051768D01*
X0031928Y0053267D01*
X0031738Y0053457D01*
X0031928Y0053647D01*
X0032549Y0055146D01*
X0032549Y0056768D01*
X0031928Y0058267D01*
X0031738Y0058457D01*
X0031928Y0058647D01*
X0032549Y0060146D01*
X0032549Y0061768D01*
X0031928Y0063267D01*
X0031738Y0063457D01*
X0031928Y0063647D01*
X0032549Y0065146D01*
X0032549Y0066768D01*
X0031928Y0068267D01*
X0031738Y0068457D01*
X0031928Y0068647D01*
X0032549Y0070146D01*
X0032549Y0071768D01*
X0031928Y0073267D01*
X0031738Y0073457D01*
X0031928Y0073647D01*
X0032549Y0075146D01*
X0032549Y0076259D01*
X0033045Y0075762D01*
X0033721Y0075087D01*
X0034603Y0074722D01*
X0057186Y0074722D01*
X0068380Y0063528D01*
X0068380Y0061818D01*
X0068025Y0061463D01*
X0067530Y0060268D01*
X0067530Y0058975D01*
X0068025Y0057781D01*
X0068939Y0056867D01*
X0070134Y0056372D01*
X0071426Y0056372D01*
X0072621Y0056867D01*
X0073535Y0057781D01*
X0074030Y0058975D01*
X0074030Y0060268D01*
X0073535Y0061463D01*
X0073180Y0061818D01*
X0073180Y0064999D01*
X0072815Y0065881D01*
X0072140Y0066556D01*
X0060624Y0078072D01*
X0060836Y0078072D01*
X0065245Y0073662D01*
X0065921Y0072987D01*
X0066258Y0072847D01*
X0066839Y0072267D01*
X0068034Y0071772D01*
X0069326Y0071772D01*
X0070521Y0072267D01*
X0071435Y0073181D01*
X0071930Y0074375D01*
X0071930Y0075668D01*
X0071435Y0076863D01*
X0070521Y0077777D01*
X0069326Y0078272D01*
X0068034Y0078272D01*
X0067603Y0078093D01*
X0064230Y0081466D01*
X0064230Y0081968D01*
X0063735Y0083163D01*
X0062821Y0084077D01*
X0061626Y0084572D01*
X0060334Y0084572D01*
X0059139Y0084077D01*
X0058225Y0083163D01*
X0057730Y0081968D01*
X0057730Y0080675D01*
X0058208Y0079522D01*
X0036074Y0079522D01*
X0033279Y0082317D01*
X0032604Y0082992D01*
X0031919Y0083275D01*
X0030781Y0084414D01*
X0029282Y0085035D01*
X0022904Y0085035D01*
X0021405Y0084414D01*
X0020258Y0083267D01*
X0019643Y0081784D01*
X0019643Y0089399D01*
X0080280Y0089399D01*
X0080280Y0073718D01*
X0079925Y0073363D01*
X0079430Y0072168D01*
X0079430Y0070875D01*
X0079925Y0069681D01*
X0080839Y0068767D01*
X0082034Y0068272D01*
X0083326Y0068272D01*
X0084521Y0068767D01*
X0085435Y0069681D01*
X0085930Y0070875D01*
X0085930Y0072168D01*
X0085435Y0073363D01*
X0085080Y0073718D01*
X0085080Y0088722D01*
X0128837Y0088722D01*
X0128665Y0088306D01*
X0128317Y0088161D01*
X0126995Y0086839D01*
X0126279Y0085112D01*
X0126279Y0077242D01*
X0126995Y0075515D01*
X0127188Y0075322D01*
X0127067Y0075442D02*
X0102594Y0075442D01*
X0101196Y0074043D02*
X0118907Y0074043D01*
X0117509Y0072645D02*
X0099797Y0072645D01*
X0098740Y0071587D02*
X0098402Y0071447D01*
X0097821Y0070867D01*
X0096626Y0070372D01*
X0095334Y0070372D01*
X0094139Y0070867D01*
X0093225Y0071781D01*
X0092730Y0072975D01*
X0092730Y0074268D01*
X0093225Y0075463D01*
X0094139Y0076377D01*
X0095334Y0076872D01*
X0096626Y0076872D01*
X0097057Y0076693D01*
X0101830Y0081466D01*
X0101830Y0081968D01*
X0102325Y0083163D01*
X0103239Y0084077D01*
X0104434Y0084572D01*
X0105726Y0084572D01*
X0106921Y0084077D01*
X0107835Y0083163D01*
X0108330Y0081968D01*
X0108330Y0080675D01*
X0107835Y0079481D01*
X0106921Y0078567D01*
X0105726Y0078072D01*
X0105224Y0078072D01*
X0098740Y0071587D01*
X0098201Y0071246D02*
X0116110Y0071246D01*
X0114712Y0069848D02*
X0085504Y0069848D01*
X0083755Y0068449D02*
X0112779Y0068449D01*
X0110720Y0067051D02*
X0071645Y0067051D01*
X0070247Y0068449D02*
X0081605Y0068449D01*
X0079856Y0069848D02*
X0068848Y0069848D01*
X0067450Y0071246D02*
X0079430Y0071246D01*
X0079627Y0072645D02*
X0070899Y0072645D01*
X0071792Y0074043D02*
X0080280Y0074043D01*
X0080280Y0075442D02*
X0071930Y0075442D01*
X0071445Y0076840D02*
X0080280Y0076840D01*
X0080280Y0078239D02*
X0069406Y0078239D01*
X0067954Y0078239D02*
X0067457Y0078239D01*
X0066059Y0079637D02*
X0080280Y0079637D01*
X0080280Y0081036D02*
X0064660Y0081036D01*
X0060980Y0081322D02*
X0067280Y0075022D01*
X0068680Y0075022D01*
X0066461Y0072645D02*
X0066051Y0072645D01*
X0064864Y0074043D02*
X0064653Y0074043D01*
X0063466Y0075442D02*
X0063254Y0075442D01*
X0062067Y0076840D02*
X0061856Y0076840D01*
X0058180Y0077122D02*
X0070780Y0064522D01*
X0070780Y0059622D01*
X0067661Y0058660D02*
X0031933Y0058660D01*
X0032344Y0057261D02*
X0068544Y0057261D01*
X0067530Y0060058D02*
X0032512Y0060058D01*
X0032549Y0061457D02*
X0068022Y0061457D01*
X0068380Y0062855D02*
X0032098Y0062855D01*
X0032179Y0064254D02*
X0067654Y0064254D01*
X0066255Y0065652D02*
X0032549Y0065652D01*
X0032432Y0067051D02*
X0064857Y0067051D01*
X0063458Y0068449D02*
X0031746Y0068449D01*
X0032425Y0069848D02*
X0062060Y0069848D01*
X0060661Y0071246D02*
X0032549Y0071246D01*
X0032185Y0072645D02*
X0059263Y0072645D01*
X0057864Y0074043D02*
X0032092Y0074043D01*
X0032549Y0075442D02*
X0033366Y0075442D01*
X0033045Y0075762D02*
X0033045Y0075762D01*
X0035080Y0077122D02*
X0058180Y0077122D01*
X0058160Y0079637D02*
X0035959Y0079637D01*
X0034560Y0081036D02*
X0057730Y0081036D01*
X0057923Y0082434D02*
X0033162Y0082434D01*
X0033279Y0082317D02*
X0033279Y0082317D01*
X0031362Y0083833D02*
X0058895Y0083833D01*
X0063065Y0083833D02*
X0080280Y0083833D01*
X0080280Y0085231D02*
X0019643Y0085231D01*
X0019643Y0083833D02*
X0020823Y0083833D01*
X0019913Y0082434D02*
X0019643Y0082434D01*
X0026093Y0080957D02*
X0031245Y0080957D01*
X0035080Y0077122D01*
X0019643Y0086630D02*
X0080280Y0086630D01*
X0080280Y0088028D02*
X0019643Y0088028D01*
X0064037Y0082434D02*
X0080280Y0082434D01*
X0085080Y0082434D02*
X0102023Y0082434D01*
X0102995Y0083833D02*
X0085080Y0083833D01*
X0085080Y0085231D02*
X0126329Y0085231D01*
X0126279Y0083833D02*
X0107165Y0083833D01*
X0108137Y0082434D02*
X0126279Y0082434D01*
X0126279Y0081036D02*
X0108330Y0081036D01*
X0107900Y0079637D02*
X0126279Y0079637D01*
X0126279Y0078239D02*
X0106130Y0078239D01*
X0103993Y0076840D02*
X0126446Y0076840D01*
X0130979Y0081177D02*
X0130979Y0087621D01*
X0132380Y0089022D01*
X0157580Y0089022D01*
X0158980Y0087622D01*
X0163180Y0087622D01*
X0164580Y0086222D01*
X0164580Y0076422D01*
X0165980Y0075022D01*
X0172980Y0075022D01*
X0176092Y0074043D02*
X0176880Y0074043D01*
X0176880Y0072645D02*
X0175199Y0072645D01*
X0176880Y0071246D02*
X0166980Y0071246D01*
X0166980Y0069848D02*
X0176880Y0069848D01*
X0176880Y0068449D02*
X0166980Y0068449D01*
X0166980Y0067051D02*
X0176880Y0067051D01*
X0176880Y0065652D02*
X0166980Y0065652D01*
X0166980Y0064254D02*
X0176880Y0064254D01*
X0176880Y0062855D02*
X0166980Y0062855D01*
X0166980Y0061457D02*
X0177082Y0061457D01*
X0179280Y0062422D02*
X0180680Y0061022D01*
X0180680Y0058922D01*
X0189780Y0058922D01*
X0190480Y0058222D01*
X0193600Y0057261D02*
X0214967Y0057261D01*
X0214967Y0055863D02*
X0192717Y0055863D01*
X0193730Y0058660D02*
X0214967Y0058660D01*
X0214967Y0060058D02*
X0193237Y0060058D01*
X0191163Y0061457D02*
X0214967Y0061457D01*
X0214967Y0062855D02*
X0182241Y0062855D01*
X0181680Y0064254D02*
X0214967Y0064254D01*
X0214967Y0065652D02*
X0181680Y0065652D01*
X0181680Y0067051D02*
X0214967Y0067051D01*
X0214967Y0068449D02*
X0181680Y0068449D01*
X0181680Y0069848D02*
X0214967Y0069848D01*
X0214967Y0071246D02*
X0181680Y0071246D01*
X0181680Y0072645D02*
X0214967Y0072645D01*
X0214967Y0074043D02*
X0181680Y0074043D01*
X0181680Y0075442D02*
X0214967Y0075442D01*
X0214967Y0076840D02*
X0181680Y0076840D01*
X0181680Y0078239D02*
X0214967Y0078239D01*
X0214967Y0079637D02*
X0181680Y0079637D01*
X0181680Y0081036D02*
X0214967Y0081036D01*
X0214967Y0082434D02*
X0181680Y0082434D01*
X0181680Y0083833D02*
X0214967Y0083833D01*
X0214967Y0085231D02*
X0181680Y0085231D01*
X0181680Y0086630D02*
X0214967Y0086630D01*
X0214967Y0088028D02*
X0181680Y0088028D01*
X0179280Y0089722D02*
X0177880Y0091122D01*
X0084080Y0091122D01*
X0082680Y0089722D01*
X0082680Y0071522D01*
X0085733Y0072645D02*
X0092867Y0072645D01*
X0092730Y0074043D02*
X0085080Y0074043D01*
X0085080Y0075442D02*
X0093216Y0075442D01*
X0095980Y0073622D02*
X0097380Y0073622D01*
X0105080Y0081322D01*
X0101400Y0081036D02*
X0085080Y0081036D01*
X0085080Y0079637D02*
X0100002Y0079637D01*
X0098603Y0078239D02*
X0085080Y0078239D01*
X0085080Y0076840D02*
X0095258Y0076840D01*
X0096702Y0076840D02*
X0097204Y0076840D01*
X0093759Y0071246D02*
X0085930Y0071246D01*
X0072909Y0065652D02*
X0110230Y0065652D01*
X0110363Y0064254D02*
X0073180Y0064254D01*
X0073180Y0062855D02*
X0111250Y0062855D01*
X0113480Y0065222D02*
X0121180Y0072922D01*
X0150580Y0072922D01*
X0153633Y0074043D02*
X0162180Y0074043D01*
X0162180Y0072645D02*
X0153830Y0072645D01*
X0153404Y0071246D02*
X0162180Y0071246D01*
X0162180Y0069848D02*
X0151651Y0069848D01*
X0149509Y0069848D02*
X0121500Y0069848D01*
X0120102Y0068449D02*
X0162180Y0068449D01*
X0162180Y0067051D02*
X0118703Y0067051D01*
X0119244Y0065652D02*
X0121914Y0065652D01*
X0123980Y0063122D02*
X0118380Y0063122D01*
X0116280Y0065222D01*
X0113480Y0065222D01*
X0116651Y0061457D02*
X0073538Y0061457D01*
X0074030Y0060058D02*
X0122883Y0060058D01*
X0125077Y0060058D02*
X0162180Y0060058D01*
X0162180Y0058660D02*
X0073899Y0058660D01*
X0073016Y0057261D02*
X0162180Y0057261D01*
X0162180Y0055863D02*
X0096648Y0055863D01*
X0095312Y0055863D02*
X0032549Y0055863D01*
X0032266Y0054464D02*
X0093226Y0054464D01*
X0092730Y0053066D02*
X0089641Y0053066D01*
X0088319Y0053066D02*
X0032011Y0053066D01*
X0032549Y0051667D02*
X0074831Y0051667D01*
X0073433Y0050269D02*
X0032549Y0050269D01*
X0032020Y0048870D02*
X0072034Y0048870D01*
X0070636Y0047472D02*
X0032257Y0047472D01*
X0032549Y0046073D02*
X0069237Y0046073D01*
X0067839Y0044675D02*
X0032353Y0044675D01*
X0031826Y0043276D02*
X0066440Y0043276D01*
X0065042Y0041878D02*
X0032454Y0041878D01*
X0032524Y0040479D02*
X0058941Y0040479D01*
X0058430Y0039081D02*
X0032091Y0039081D01*
X0026093Y0035957D02*
X0056645Y0035957D01*
X0062380Y0030222D01*
X0070880Y0030222D01*
X0074880Y0026222D01*
X0079480Y0030822D01*
X0109280Y0030822D01*
X0110406Y0029696D01*
X0110406Y0025167D01*
X0115106Y0025095D02*
X0115706Y0025095D01*
X0115706Y0023697D02*
X0115106Y0023697D01*
X0114185Y0022298D02*
X0116627Y0022298D01*
X0118026Y0020900D02*
X0112786Y0020900D01*
X0112718Y0019501D02*
X0118094Y0019501D01*
X0118459Y0019867D02*
X0115706Y0017113D01*
X0115706Y0013220D01*
X0118459Y0010467D01*
X0122353Y0010467D01*
X0125106Y0013220D01*
X0125106Y0017113D01*
X0122353Y0019867D01*
X0118459Y0019867D01*
X0116695Y0018103D02*
X0114117Y0018103D01*
X0115106Y0016704D02*
X0115706Y0016704D01*
X0115706Y0015306D02*
X0115106Y0015306D01*
X0115106Y0013907D02*
X0115706Y0013907D01*
X0116417Y0012509D02*
X0114395Y0012509D01*
X0112996Y0011110D02*
X0117816Y0011110D01*
X0122996Y0011110D02*
X0214967Y0011110D01*
X0214967Y0012509D02*
X0124395Y0012509D01*
X0125106Y0013907D02*
X0178742Y0013907D01*
X0179114Y0013535D02*
X0181493Y0012550D01*
X0184067Y0012550D01*
X0186446Y0013535D01*
X0188266Y0015356D01*
X0189252Y0017734D01*
X0189252Y0020309D01*
X0188266Y0022688D01*
X0186446Y0024508D01*
X0184067Y0025493D01*
X0181493Y0025493D01*
X0179114Y0024508D01*
X0177294Y0022688D01*
X0176308Y0020309D01*
X0176308Y0017734D01*
X0177294Y0015356D01*
X0179114Y0013535D01*
X0177344Y0015306D02*
X0125106Y0015306D01*
X0125106Y0016704D02*
X0176735Y0016704D01*
X0176308Y0018103D02*
X0124117Y0018103D01*
X0122718Y0019501D02*
X0176308Y0019501D01*
X0176553Y0020900D02*
X0122786Y0020900D01*
X0124185Y0022298D02*
X0166718Y0022298D01*
X0164911Y0023697D02*
X0125106Y0023697D01*
X0125106Y0025095D02*
X0163512Y0025095D01*
X0164580Y0027422D02*
X0167380Y0024622D01*
X0172280Y0024622D01*
X0175415Y0023697D02*
X0178303Y0023697D01*
X0177132Y0022298D02*
X0174553Y0022298D01*
X0175530Y0025095D02*
X0180532Y0025095D01*
X0185028Y0025095D02*
X0210446Y0025095D01*
X0211309Y0023697D02*
X0187257Y0023697D01*
X0188428Y0022298D02*
X0214967Y0022298D01*
X0214967Y0020900D02*
X0189007Y0020900D01*
X0189252Y0019501D02*
X0214967Y0019501D01*
X0214967Y0018103D02*
X0189252Y0018103D01*
X0188825Y0016704D02*
X0214967Y0016704D01*
X0214967Y0015306D02*
X0188216Y0015306D01*
X0186818Y0013907D02*
X0214967Y0013907D01*
X0213580Y0026022D02*
X0213580Y0051222D01*
X0212880Y0051922D01*
X0209380Y0051922D01*
X0205880Y0048422D01*
X0194680Y0048422D01*
X0192580Y0046322D01*
X0192580Y0045622D01*
X0195705Y0044675D02*
X0211180Y0044675D01*
X0211180Y0043276D02*
X0194830Y0043276D01*
X0190330Y0043276D02*
X0166980Y0043276D01*
X0166980Y0041878D02*
X0211180Y0041878D01*
X0211180Y0040479D02*
X0166980Y0040479D01*
X0166980Y0039081D02*
X0211180Y0039081D01*
X0211180Y0037682D02*
X0166980Y0037682D01*
X0166980Y0036284D02*
X0211180Y0036284D01*
X0211180Y0034885D02*
X0166980Y0034885D01*
X0166980Y0033486D02*
X0211180Y0033486D01*
X0211180Y0032088D02*
X0166980Y0032088D01*
X0166980Y0030689D02*
X0211180Y0030689D01*
X0211180Y0029291D02*
X0166980Y0029291D01*
X0167503Y0027892D02*
X0210855Y0027892D01*
X0210330Y0026494D02*
X0175004Y0026494D01*
X0164580Y0027422D02*
X0164580Y0076422D01*
X0162180Y0076840D02*
X0145487Y0076840D01*
X0145679Y0078239D02*
X0162180Y0078239D01*
X0162180Y0079637D02*
X0145679Y0079637D01*
X0141279Y0081036D02*
X0162180Y0081036D01*
X0162180Y0082434D02*
X0145679Y0082434D01*
X0145679Y0083833D02*
X0162180Y0083833D01*
X0166980Y0083833D02*
X0176880Y0083833D01*
X0176880Y0085231D02*
X0166980Y0085231D01*
X0166980Y0086630D02*
X0176880Y0086630D01*
X0176880Y0088028D02*
X0166167Y0088028D01*
X0156774Y0085231D02*
X0145571Y0085231D01*
X0136388Y0085231D02*
X0135630Y0085231D01*
X0135679Y0083833D02*
X0136279Y0083833D01*
X0136279Y0082434D02*
X0135679Y0082434D01*
X0126908Y0086630D02*
X0085080Y0086630D01*
X0085080Y0088028D02*
X0128184Y0088028D01*
X0144802Y0075442D02*
X0148504Y0075442D01*
X0152656Y0075442D02*
X0162180Y0075442D01*
X0166980Y0078239D02*
X0172254Y0078239D01*
X0173706Y0078239D02*
X0176880Y0078239D01*
X0176880Y0079637D02*
X0166980Y0079637D01*
X0166980Y0081036D02*
X0176880Y0081036D01*
X0176880Y0082434D02*
X0166980Y0082434D01*
X0175745Y0076840D02*
X0176880Y0076840D01*
X0176880Y0075442D02*
X0176230Y0075442D01*
X0162180Y0065652D02*
X0126046Y0065652D01*
X0127029Y0064254D02*
X0162180Y0064254D01*
X0162180Y0062855D02*
X0127230Y0062855D01*
X0126808Y0061457D02*
X0162180Y0061457D01*
X0166980Y0060058D02*
X0177633Y0060058D01*
X0177430Y0058660D02*
X0166980Y0058660D01*
X0166980Y0057261D02*
X0177850Y0057261D01*
X0179573Y0055863D02*
X0166980Y0055863D01*
X0166980Y0054464D02*
X0207326Y0054464D01*
X0206336Y0053066D02*
X0166980Y0053066D01*
X0166980Y0051667D02*
X0205731Y0051667D01*
X0210505Y0048870D02*
X0211180Y0048870D01*
X0211180Y0047472D02*
X0208324Y0047472D01*
X0206481Y0046073D02*
X0211180Y0046073D01*
X0211434Y0054464D02*
X0214967Y0054464D01*
X0193133Y0050269D02*
X0166980Y0050269D01*
X0166980Y0048870D02*
X0191734Y0048870D01*
X0189834Y0047472D02*
X0166980Y0047472D01*
X0166980Y0046073D02*
X0189330Y0046073D01*
X0189455Y0044675D02*
X0166980Y0044675D01*
X0162180Y0044675D02*
X0129021Y0044675D01*
X0130420Y0043276D02*
X0162180Y0043276D01*
X0162180Y0041878D02*
X0131818Y0041878D01*
X0133217Y0040479D02*
X0162180Y0040479D01*
X0162180Y0039081D02*
X0134615Y0039081D01*
X0136014Y0037682D02*
X0162180Y0037682D01*
X0162180Y0036284D02*
X0138614Y0036284D01*
X0139616Y0034885D02*
X0162180Y0034885D01*
X0162180Y0033486D02*
X0139830Y0033486D01*
X0139421Y0032088D02*
X0162180Y0032088D01*
X0162180Y0030689D02*
X0137752Y0030689D01*
X0135408Y0030689D02*
X0120906Y0030689D01*
X0119508Y0032088D02*
X0133739Y0032088D01*
X0133330Y0033486D02*
X0118109Y0033486D01*
X0116711Y0034885D02*
X0132023Y0034885D01*
X0130624Y0036284D02*
X0115312Y0036284D01*
X0113914Y0037682D02*
X0129226Y0037682D01*
X0127827Y0039081D02*
X0112515Y0039081D01*
X0111117Y0040479D02*
X0126429Y0040479D01*
X0125030Y0041878D02*
X0109718Y0041878D01*
X0108320Y0043276D02*
X0123632Y0043276D01*
X0122233Y0044675D02*
X0106921Y0044675D01*
X0105523Y0046073D02*
X0120835Y0046073D01*
X0119436Y0047472D02*
X0104124Y0047472D01*
X0102726Y0048870D02*
X0118038Y0048870D01*
X0122029Y0051667D02*
X0162180Y0051667D01*
X0162180Y0053066D02*
X0120630Y0053066D01*
X0119232Y0054464D02*
X0162180Y0054464D01*
X0162180Y0050269D02*
X0123427Y0050269D01*
X0124826Y0048870D02*
X0162180Y0048870D01*
X0162180Y0047472D02*
X0126224Y0047472D01*
X0127623Y0046073D02*
X0162180Y0046073D01*
X0181787Y0055863D02*
X0188243Y0055863D01*
X0189797Y0061457D02*
X0183080Y0061457D01*
X0179280Y0062422D02*
X0179280Y0089722D01*
X0136580Y0033722D02*
X0117680Y0052622D01*
X0095980Y0052622D01*
X0092858Y0051667D02*
X0091731Y0051667D01*
X0092230Y0050269D02*
X0093737Y0050269D01*
X0091480Y0047322D02*
X0088980Y0049822D01*
X0076380Y0049822D01*
X0065180Y0038622D01*
X0061680Y0038622D01*
X0058552Y0037682D02*
X0058314Y0037682D01*
X0052545Y0030957D02*
X0052580Y0030922D01*
X0052545Y0030957D02*
X0026093Y0030957D01*
X0026093Y0025957D02*
X0061045Y0025957D01*
X0066580Y0020422D01*
X0105151Y0020422D01*
X0110406Y0015167D01*
X0105706Y0015306D02*
X0100706Y0015306D01*
X0100706Y0014867D02*
X0105106Y0014867D01*
X0105106Y0013220D01*
X0102353Y0010467D01*
X0100706Y0010467D01*
X0100706Y0014867D01*
X0100106Y0015306D02*
X0064377Y0015306D01*
X0064377Y0013907D02*
X0095706Y0013907D01*
X0096417Y0012509D02*
X0064377Y0012509D01*
X0064377Y0011110D02*
X0097816Y0011110D01*
X0100106Y0011110D02*
X0100706Y0011110D01*
X0100706Y0012509D02*
X0100106Y0012509D01*
X0100106Y0013907D02*
X0100706Y0013907D01*
X0104395Y0012509D02*
X0106417Y0012509D01*
X0105706Y0013907D02*
X0105106Y0013907D01*
X0102996Y0011110D02*
X0107816Y0011110D01*
X0105474Y0016704D02*
X0105106Y0016704D01*
X0095706Y0016704D02*
X0064377Y0016704D01*
X0101080Y0039422D02*
X0105680Y0034822D01*
X0108930Y0034885D02*
X0109923Y0034885D01*
X0108645Y0033486D02*
X0111321Y0033486D01*
X0111408Y0032088D02*
X0112720Y0032088D01*
X0112592Y0030689D02*
X0114118Y0030689D01*
X0112928Y0029291D02*
X0115517Y0029291D01*
X0116485Y0027892D02*
X0114327Y0027892D01*
X0115106Y0026494D02*
X0115706Y0026494D01*
X0120406Y0027796D02*
X0120406Y0025167D01*
X0125106Y0026494D02*
X0162367Y0026494D01*
X0162180Y0027892D02*
X0124327Y0027892D01*
X0122928Y0029291D02*
X0162180Y0029291D01*
X0120406Y0027796D02*
X0100880Y0047322D01*
X0091480Y0047322D01*
X0081280Y0045622D02*
X0081280Y0042722D01*
X0084580Y0039422D01*
X0101080Y0039422D01*
D15*
X0136580Y0048422D03*
X0033680Y0072222D03*
D16*
X0060980Y0081322D03*
X0068680Y0075022D03*
X0082680Y0071522D03*
X0095980Y0073622D03*
X0105080Y0081322D03*
X0113480Y0065222D03*
X0123980Y0063122D03*
X0150580Y0072922D03*
X0172280Y0069422D03*
X0172980Y0075022D03*
X0191880Y0071522D03*
X0190480Y0058222D03*
X0180680Y0058922D03*
X0203080Y0054022D03*
X0209380Y0051922D03*
X0192580Y0045622D03*
X0200980Y0026022D03*
X0213580Y0026022D03*
X0172280Y0024622D03*
X0136580Y0033722D03*
X0105680Y0034822D03*
X0081280Y0045622D03*
X0088980Y0049822D03*
X0095980Y0052622D03*
X0070780Y0059622D03*
X0061680Y0038622D03*
X0052580Y0030922D03*
X0066580Y0020422D03*
X0074880Y0026222D03*
X0158980Y0087622D03*
D17*
X0112878Y0044359D03*
X0085778Y0013859D03*
M02*
