G75*
%MOIN*%
%OFA0B0*%
%FSLAX25Y25*%
%IPPOS*%
%LPD*%
%AMOC8*
5,1,8,0,0,1.08239X$1,22.5*
%
%ADD10R,0.05918X0.06706*%
%ADD11R,0.06706X0.05918*%
%ADD12R,0.06312X0.07099*%
%ADD13R,0.02769X0.06706*%
%ADD14R,0.06706X0.02769*%
%ADD15OC8,0.06800*%
%ADD16R,0.05224X0.02769*%
%ADD17R,0.02769X0.05224*%
%ADD18C,0.05556*%
%ADD19C,0.06800*%
%ADD20R,0.08700X0.05100*%
%ADD21C,0.01969*%
%ADD22C,0.03556*%
%ADD23C,0.04343*%
%ADD24R,0.05524X0.02965*%
%ADD25R,0.01784X0.04737*%
%ADD26C,0.03600*%
%ADD27C,0.03900*%
%ADD28C,0.03700*%
D10*
X0039122Y0050968D03*
X0046602Y0050968D03*
X0046594Y0061187D03*
X0039114Y0061187D03*
X0039114Y0072111D03*
X0046594Y0072111D03*
X0047396Y0082430D03*
X0039915Y0082430D03*
X0121104Y0069306D03*
X0128585Y0069306D03*
X0151040Y0081322D03*
X0158520Y0081322D03*
X0184312Y0065350D03*
X0191792Y0065350D03*
X0202140Y0063822D03*
X0209620Y0063822D03*
X0209620Y0073622D03*
X0202140Y0073622D03*
X0202140Y0082722D03*
X0209620Y0082722D03*
X0208220Y0041422D03*
X0200740Y0041422D03*
X0200740Y0032322D03*
X0208220Y0032322D03*
X0192120Y0032322D03*
X0184640Y0032322D03*
X0176020Y0032322D03*
X0168540Y0032322D03*
X0152741Y0034040D03*
X0145261Y0034040D03*
X0202140Y0019022D03*
X0209620Y0019022D03*
D11*
X0186280Y0041882D03*
X0177180Y0041882D03*
X0168080Y0041882D03*
X0158971Y0047955D03*
X0168080Y0049362D03*
X0177180Y0049362D03*
X0186280Y0049362D03*
X0158971Y0055436D03*
X0158280Y0064282D03*
X0158280Y0071762D03*
X0184234Y0078046D03*
X0193256Y0078034D03*
X0193256Y0085515D03*
X0184234Y0085527D03*
X0130649Y0059196D03*
X0118039Y0058533D03*
X0130649Y0051715D03*
X0118039Y0051052D03*
D12*
X0119770Y0040399D03*
X0130793Y0040399D03*
D13*
X0098330Y0036393D03*
X0095180Y0036393D03*
X0092031Y0036393D03*
X0088881Y0036393D03*
X0085732Y0036393D03*
X0082582Y0036393D03*
X0079432Y0036393D03*
X0076283Y0036393D03*
X0073133Y0036393D03*
X0069984Y0036393D03*
X0066834Y0036393D03*
X0066834Y0082062D03*
X0069984Y0082062D03*
X0073133Y0082062D03*
X0076283Y0082062D03*
X0079432Y0082062D03*
X0082582Y0082062D03*
X0085732Y0082062D03*
X0088881Y0082062D03*
X0092031Y0082062D03*
X0095180Y0082062D03*
X0098330Y0082062D03*
D14*
X0105417Y0074976D03*
X0105417Y0071826D03*
X0105417Y0068677D03*
X0105417Y0065527D03*
X0105417Y0062377D03*
X0105417Y0059228D03*
X0105417Y0056078D03*
X0105417Y0052929D03*
X0105417Y0049779D03*
X0105417Y0046629D03*
X0105417Y0043480D03*
X0059747Y0043480D03*
X0059747Y0046629D03*
X0059747Y0049779D03*
X0059747Y0052929D03*
X0059747Y0056078D03*
X0059747Y0059228D03*
X0059747Y0062377D03*
X0059747Y0065527D03*
X0059747Y0068677D03*
X0059747Y0071826D03*
X0059747Y0074976D03*
D15*
X0100406Y0025167D03*
X0110406Y0025167D03*
X0120406Y0025167D03*
X0120406Y0015167D03*
X0110406Y0015167D03*
X0100406Y0015167D03*
D16*
X0141660Y0044447D03*
X0141660Y0047596D03*
X0141660Y0050746D03*
X0141660Y0053895D03*
X0141660Y0057045D03*
X0141660Y0060195D03*
X0150621Y0060195D03*
X0150621Y0057045D03*
X0150621Y0053895D03*
X0150621Y0050746D03*
X0150621Y0047596D03*
X0150591Y0044447D03*
D17*
X0146140Y0044053D03*
X0146140Y0060588D03*
D18*
X0028471Y0020957D02*
X0023715Y0020957D01*
X0023715Y0025957D02*
X0028471Y0025957D01*
X0028471Y0030957D02*
X0023715Y0030957D01*
X0023715Y0035957D02*
X0028471Y0035957D01*
X0028471Y0040957D02*
X0023715Y0040957D01*
X0023715Y0045957D02*
X0028471Y0045957D01*
X0028471Y0050957D02*
X0023715Y0050957D01*
X0023715Y0055957D02*
X0028471Y0055957D01*
X0028471Y0060957D02*
X0023715Y0060957D01*
X0023715Y0065957D02*
X0028471Y0065957D01*
X0028471Y0070957D02*
X0023715Y0070957D01*
X0023715Y0075957D02*
X0028471Y0075957D01*
X0028471Y0080957D02*
X0023715Y0080957D01*
D19*
X0130979Y0078177D02*
X0130979Y0084177D01*
X0140979Y0084177D02*
X0140979Y0078177D01*
D20*
X0131988Y0018551D03*
X0167388Y0018551D03*
D21*
X0180024Y0019022D02*
X0180026Y0019127D01*
X0180032Y0019232D01*
X0180042Y0019336D01*
X0180056Y0019440D01*
X0180074Y0019544D01*
X0180096Y0019646D01*
X0180121Y0019748D01*
X0180151Y0019849D01*
X0180184Y0019948D01*
X0180221Y0020046D01*
X0180262Y0020143D01*
X0180307Y0020238D01*
X0180355Y0020331D01*
X0180406Y0020423D01*
X0180462Y0020512D01*
X0180520Y0020599D01*
X0180582Y0020684D01*
X0180646Y0020767D01*
X0180714Y0020847D01*
X0180785Y0020924D01*
X0180859Y0020998D01*
X0180936Y0021070D01*
X0181015Y0021139D01*
X0181097Y0021204D01*
X0181181Y0021267D01*
X0181268Y0021326D01*
X0181357Y0021382D01*
X0181448Y0021435D01*
X0181541Y0021484D01*
X0181635Y0021529D01*
X0181731Y0021571D01*
X0181829Y0021609D01*
X0181928Y0021643D01*
X0182029Y0021674D01*
X0182130Y0021700D01*
X0182233Y0021723D01*
X0182336Y0021742D01*
X0182440Y0021757D01*
X0182544Y0021768D01*
X0182649Y0021775D01*
X0182754Y0021778D01*
X0182859Y0021777D01*
X0182964Y0021772D01*
X0183068Y0021763D01*
X0183172Y0021750D01*
X0183276Y0021733D01*
X0183379Y0021712D01*
X0183481Y0021687D01*
X0183582Y0021659D01*
X0183681Y0021626D01*
X0183780Y0021590D01*
X0183877Y0021550D01*
X0183972Y0021507D01*
X0184066Y0021459D01*
X0184158Y0021409D01*
X0184248Y0021355D01*
X0184336Y0021297D01*
X0184421Y0021236D01*
X0184504Y0021172D01*
X0184585Y0021105D01*
X0184663Y0021035D01*
X0184738Y0020961D01*
X0184810Y0020886D01*
X0184880Y0020807D01*
X0184946Y0020726D01*
X0185010Y0020642D01*
X0185070Y0020556D01*
X0185126Y0020468D01*
X0185180Y0020377D01*
X0185230Y0020285D01*
X0185276Y0020191D01*
X0185319Y0020095D01*
X0185358Y0019997D01*
X0185393Y0019899D01*
X0185424Y0019798D01*
X0185452Y0019697D01*
X0185476Y0019595D01*
X0185496Y0019492D01*
X0185512Y0019388D01*
X0185524Y0019284D01*
X0185532Y0019179D01*
X0185536Y0019074D01*
X0185536Y0018970D01*
X0185532Y0018865D01*
X0185524Y0018760D01*
X0185512Y0018656D01*
X0185496Y0018552D01*
X0185476Y0018449D01*
X0185452Y0018347D01*
X0185424Y0018246D01*
X0185393Y0018145D01*
X0185358Y0018047D01*
X0185319Y0017949D01*
X0185276Y0017853D01*
X0185230Y0017759D01*
X0185180Y0017667D01*
X0185126Y0017576D01*
X0185070Y0017488D01*
X0185010Y0017402D01*
X0184946Y0017318D01*
X0184880Y0017237D01*
X0184810Y0017158D01*
X0184738Y0017083D01*
X0184663Y0017009D01*
X0184585Y0016939D01*
X0184504Y0016872D01*
X0184421Y0016808D01*
X0184336Y0016747D01*
X0184248Y0016689D01*
X0184158Y0016635D01*
X0184066Y0016585D01*
X0183972Y0016537D01*
X0183877Y0016494D01*
X0183780Y0016454D01*
X0183681Y0016418D01*
X0183582Y0016385D01*
X0183481Y0016357D01*
X0183379Y0016332D01*
X0183276Y0016311D01*
X0183172Y0016294D01*
X0183068Y0016281D01*
X0182964Y0016272D01*
X0182859Y0016267D01*
X0182754Y0016266D01*
X0182649Y0016269D01*
X0182544Y0016276D01*
X0182440Y0016287D01*
X0182336Y0016302D01*
X0182233Y0016321D01*
X0182130Y0016344D01*
X0182029Y0016370D01*
X0181928Y0016401D01*
X0181829Y0016435D01*
X0181731Y0016473D01*
X0181635Y0016515D01*
X0181541Y0016560D01*
X0181448Y0016609D01*
X0181357Y0016662D01*
X0181268Y0016718D01*
X0181181Y0016777D01*
X0181097Y0016840D01*
X0181015Y0016905D01*
X0180936Y0016974D01*
X0180859Y0017046D01*
X0180785Y0017120D01*
X0180714Y0017197D01*
X0180646Y0017277D01*
X0180582Y0017360D01*
X0180520Y0017445D01*
X0180462Y0017532D01*
X0180406Y0017621D01*
X0180355Y0017713D01*
X0180307Y0017806D01*
X0180262Y0017901D01*
X0180221Y0017998D01*
X0180184Y0018096D01*
X0180151Y0018195D01*
X0180121Y0018296D01*
X0180096Y0018398D01*
X0180074Y0018500D01*
X0180056Y0018604D01*
X0180042Y0018708D01*
X0180032Y0018812D01*
X0180026Y0018917D01*
X0180024Y0019022D01*
D22*
X0179630Y0024140D03*
X0179630Y0013904D03*
D23*
X0182780Y0019022D03*
X0193095Y0019022D03*
X0193095Y0023746D03*
X0193095Y0014297D03*
D24*
X0197962Y0048182D03*
X0197962Y0051922D03*
X0197962Y0055662D03*
X0208199Y0055662D03*
X0208199Y0048182D03*
D25*
X0176383Y0063543D03*
X0174415Y0063543D03*
X0172446Y0063543D03*
X0170478Y0063543D03*
X0168509Y0063543D03*
X0168509Y0080181D03*
X0170478Y0080181D03*
X0172446Y0080181D03*
X0174415Y0080181D03*
X0176383Y0080181D03*
D26*
X0136580Y0048422D03*
X0033680Y0072222D03*
D27*
X0060980Y0081322D03*
X0068680Y0075022D03*
X0082680Y0071522D03*
X0095980Y0073622D03*
X0105080Y0081322D03*
X0113480Y0065222D03*
X0123980Y0063122D03*
X0150580Y0072922D03*
X0172280Y0069422D03*
X0172980Y0075022D03*
X0191880Y0071522D03*
X0190480Y0058222D03*
X0180680Y0058922D03*
X0203080Y0054022D03*
X0209380Y0051922D03*
X0192580Y0045622D03*
X0200980Y0026022D03*
X0213580Y0026022D03*
X0172280Y0024622D03*
X0136580Y0033722D03*
X0105680Y0034822D03*
X0081280Y0045622D03*
X0088980Y0049822D03*
X0095980Y0052622D03*
X0070780Y0059622D03*
X0061680Y0038622D03*
X0052580Y0030922D03*
X0066580Y0020422D03*
X0074880Y0026222D03*
X0158980Y0087622D03*
D28*
X0112878Y0044359D03*
X0085778Y0013859D03*
M02*
