G75*
%MOIN*%
%OFA0B0*%
%FSLAX25Y25*%
%IPPOS*%
%LPD*%
%AMOC8*
5,1,8,0,0,1.08239X$1,22.5*
%
%ADD10R,0.05118X0.05906*%
%ADD11R,0.05906X0.05118*%
%ADD12R,0.05512X0.06299*%
%ADD13R,0.01969X0.05906*%
%ADD14R,0.05906X0.01969*%
%ADD15R,0.04424X0.01969*%
%ADD16R,0.01969X0.04424*%
%ADD17R,0.07900X0.04300*%
%ADD18C,0.00118*%
%ADD19C,0.02756*%
%ADD20C,0.03543*%
%ADD21R,0.04724X0.02165*%
%ADD22R,0.00984X0.03937*%
D10*
X0039122Y0050968D03*
X0046602Y0050968D03*
X0046594Y0061187D03*
X0039114Y0061187D03*
X0039114Y0072111D03*
X0046594Y0072111D03*
X0047396Y0082430D03*
X0039915Y0082430D03*
X0121104Y0069306D03*
X0128585Y0069306D03*
X0151040Y0081322D03*
X0158520Y0081322D03*
X0184312Y0065350D03*
X0191792Y0065350D03*
X0202140Y0063822D03*
X0209620Y0063822D03*
X0209620Y0073622D03*
X0202140Y0073622D03*
X0202140Y0082722D03*
X0209620Y0082722D03*
X0208220Y0041422D03*
X0200740Y0041422D03*
X0200740Y0032322D03*
X0208220Y0032322D03*
X0192120Y0032322D03*
X0184640Y0032322D03*
X0176020Y0032322D03*
X0168540Y0032322D03*
X0152741Y0034040D03*
X0145261Y0034040D03*
X0202140Y0019022D03*
X0209620Y0019022D03*
D11*
X0186280Y0041882D03*
X0177180Y0041882D03*
X0168080Y0041882D03*
X0158971Y0047955D03*
X0168080Y0049362D03*
X0177180Y0049362D03*
X0186280Y0049362D03*
X0158971Y0055436D03*
X0158280Y0064282D03*
X0158280Y0071762D03*
X0184234Y0078046D03*
X0193256Y0078034D03*
X0193256Y0085515D03*
X0184234Y0085527D03*
X0130649Y0059196D03*
X0118039Y0058533D03*
X0130649Y0051715D03*
X0118039Y0051052D03*
D12*
X0119770Y0040399D03*
X0130793Y0040399D03*
D13*
X0066834Y0036393D03*
X0069984Y0036393D03*
X0073133Y0036393D03*
X0076283Y0036393D03*
X0079432Y0036393D03*
X0082582Y0036393D03*
X0085732Y0036393D03*
X0088881Y0036393D03*
X0092031Y0036393D03*
X0095180Y0036393D03*
X0098330Y0036393D03*
X0098330Y0082062D03*
X0095180Y0082062D03*
X0092031Y0082062D03*
X0088881Y0082062D03*
X0085732Y0082062D03*
X0082582Y0082062D03*
X0079432Y0082062D03*
X0076283Y0082062D03*
X0073133Y0082062D03*
X0069984Y0082062D03*
X0066834Y0082062D03*
D14*
X0059747Y0074976D03*
X0059747Y0071826D03*
X0059747Y0068677D03*
X0059747Y0065527D03*
X0059747Y0062377D03*
X0059747Y0059228D03*
X0059747Y0056078D03*
X0059747Y0052929D03*
X0059747Y0049779D03*
X0059747Y0046629D03*
X0059747Y0043480D03*
X0105417Y0043480D03*
X0105417Y0046629D03*
X0105417Y0049779D03*
X0105417Y0052929D03*
X0105417Y0056078D03*
X0105417Y0059228D03*
X0105417Y0062377D03*
X0105417Y0065527D03*
X0105417Y0068677D03*
X0105417Y0071826D03*
X0105417Y0074976D03*
D15*
X0141660Y0060195D03*
X0141660Y0057045D03*
X0141660Y0053895D03*
X0141660Y0050746D03*
X0141660Y0047596D03*
X0141660Y0044447D03*
X0150591Y0044447D03*
X0150621Y0047596D03*
X0150621Y0050746D03*
X0150621Y0053895D03*
X0150621Y0057045D03*
X0150621Y0060195D03*
D16*
X0146140Y0060588D03*
X0146140Y0044053D03*
D17*
X0131988Y0018551D03*
X0167388Y0018551D03*
D18*
X0183717Y0015853D02*
X0183410Y0016871D01*
X0183411Y0016871D02*
X0183501Y0016903D01*
X0183591Y0016938D01*
X0183679Y0016977D01*
X0183765Y0017020D01*
X0183849Y0017067D01*
X0183931Y0017116D01*
X0184011Y0017170D01*
X0184089Y0017226D01*
X0184165Y0017285D01*
X0184238Y0017348D01*
X0184308Y0017414D01*
X0184376Y0017482D01*
X0184441Y0017553D01*
X0184503Y0017627D01*
X0184561Y0017703D01*
X0184617Y0017781D01*
X0184669Y0017862D01*
X0184718Y0017945D01*
X0184764Y0018029D01*
X0184806Y0018116D01*
X0184844Y0018204D01*
X0184879Y0018294D01*
X0184910Y0018385D01*
X0185930Y0018089D01*
X0185931Y0018088D01*
X0185896Y0017981D01*
X0185857Y0017875D01*
X0185815Y0017770D01*
X0185769Y0017667D01*
X0185720Y0017566D01*
X0185668Y0017466D01*
X0185612Y0017368D01*
X0185554Y0017272D01*
X0185492Y0017177D01*
X0185427Y0017085D01*
X0185359Y0016995D01*
X0185288Y0016908D01*
X0185214Y0016823D01*
X0185137Y0016740D01*
X0185058Y0016660D01*
X0184976Y0016582D01*
X0184892Y0016508D01*
X0184805Y0016436D01*
X0184715Y0016367D01*
X0184624Y0016301D01*
X0184530Y0016238D01*
X0184435Y0016178D01*
X0184337Y0016122D01*
X0184238Y0016068D01*
X0184137Y0016018D01*
X0184034Y0015972D01*
X0183930Y0015929D01*
X0183825Y0015889D01*
X0183718Y0015853D01*
X0183686Y0015959D01*
X0183793Y0015995D01*
X0183898Y0016035D01*
X0184002Y0016079D01*
X0184105Y0016126D01*
X0184206Y0016177D01*
X0184305Y0016231D01*
X0184402Y0016288D01*
X0184497Y0016349D01*
X0184590Y0016413D01*
X0184681Y0016480D01*
X0184769Y0016550D01*
X0184855Y0016623D01*
X0184938Y0016699D01*
X0185019Y0016778D01*
X0185097Y0016859D01*
X0185172Y0016943D01*
X0185244Y0017030D01*
X0185314Y0017119D01*
X0185380Y0017211D01*
X0185443Y0017304D01*
X0185502Y0017400D01*
X0185559Y0017498D01*
X0185612Y0017597D01*
X0185661Y0017699D01*
X0185707Y0017802D01*
X0185750Y0017906D01*
X0185789Y0018012D01*
X0185824Y0018119D01*
X0185718Y0018150D01*
X0185683Y0018047D01*
X0185646Y0017945D01*
X0185605Y0017844D01*
X0185560Y0017744D01*
X0185512Y0017647D01*
X0185461Y0017550D01*
X0185407Y0017456D01*
X0185349Y0017364D01*
X0185288Y0017273D01*
X0185224Y0017185D01*
X0185158Y0017099D01*
X0185088Y0017016D01*
X0185015Y0016934D01*
X0184940Y0016856D01*
X0184862Y0016780D01*
X0184782Y0016706D01*
X0184699Y0016636D01*
X0184614Y0016568D01*
X0184526Y0016503D01*
X0184436Y0016442D01*
X0184344Y0016383D01*
X0184251Y0016328D01*
X0184155Y0016276D01*
X0184058Y0016227D01*
X0183959Y0016181D01*
X0183859Y0016139D01*
X0183757Y0016100D01*
X0183654Y0016065D01*
X0183622Y0016172D01*
X0183725Y0016207D01*
X0183826Y0016246D01*
X0183926Y0016288D01*
X0184025Y0016334D01*
X0184122Y0016384D01*
X0184217Y0016436D01*
X0184310Y0016493D01*
X0184401Y0016552D01*
X0184490Y0016615D01*
X0184577Y0016680D01*
X0184662Y0016749D01*
X0184743Y0016821D01*
X0184823Y0016895D01*
X0184899Y0016973D01*
X0184973Y0017053D01*
X0185044Y0017135D01*
X0185112Y0017220D01*
X0185177Y0017308D01*
X0185238Y0017397D01*
X0185297Y0017489D01*
X0185352Y0017583D01*
X0185404Y0017679D01*
X0185452Y0017776D01*
X0185497Y0017875D01*
X0185539Y0017976D01*
X0185577Y0018078D01*
X0185611Y0018181D01*
X0185504Y0018212D01*
X0185470Y0018109D01*
X0185432Y0018007D01*
X0185390Y0017907D01*
X0185345Y0017808D01*
X0185296Y0017711D01*
X0185243Y0017616D01*
X0185187Y0017522D01*
X0185127Y0017431D01*
X0185065Y0017342D01*
X0184999Y0017256D01*
X0184930Y0017172D01*
X0184857Y0017091D01*
X0184782Y0017012D01*
X0184704Y0016936D01*
X0184624Y0016863D01*
X0184540Y0016793D01*
X0184455Y0016726D01*
X0184367Y0016663D01*
X0184276Y0016602D01*
X0184183Y0016545D01*
X0184089Y0016492D01*
X0183992Y0016442D01*
X0183894Y0016395D01*
X0183794Y0016352D01*
X0183692Y0016313D01*
X0183590Y0016278D01*
X0183558Y0016384D01*
X0183656Y0016418D01*
X0183754Y0016456D01*
X0183850Y0016497D01*
X0183944Y0016542D01*
X0184037Y0016590D01*
X0184128Y0016641D01*
X0184217Y0016696D01*
X0184304Y0016754D01*
X0184389Y0016815D01*
X0184471Y0016880D01*
X0184551Y0016947D01*
X0184629Y0017017D01*
X0184703Y0017090D01*
X0184776Y0017166D01*
X0184845Y0017244D01*
X0184911Y0017325D01*
X0184975Y0017408D01*
X0185035Y0017493D01*
X0185092Y0017580D01*
X0185146Y0017670D01*
X0185197Y0017761D01*
X0185244Y0017855D01*
X0185288Y0017950D01*
X0185328Y0018046D01*
X0185365Y0018144D01*
X0185398Y0018243D01*
X0185291Y0018274D01*
X0185258Y0018175D01*
X0185221Y0018078D01*
X0185180Y0017982D01*
X0185136Y0017887D01*
X0185089Y0017794D01*
X0185037Y0017704D01*
X0184983Y0017615D01*
X0184925Y0017528D01*
X0184863Y0017444D01*
X0184799Y0017362D01*
X0184731Y0017282D01*
X0184661Y0017205D01*
X0184588Y0017131D01*
X0184511Y0017060D01*
X0184433Y0016992D01*
X0184351Y0016927D01*
X0184268Y0016864D01*
X0184181Y0016806D01*
X0184093Y0016750D01*
X0184003Y0016698D01*
X0183911Y0016649D01*
X0183817Y0016604D01*
X0183721Y0016562D01*
X0183624Y0016525D01*
X0183525Y0016490D01*
X0183493Y0016597D01*
X0183588Y0016629D01*
X0183681Y0016666D01*
X0183772Y0016706D01*
X0183862Y0016749D01*
X0183951Y0016796D01*
X0184037Y0016846D01*
X0184121Y0016899D01*
X0184204Y0016955D01*
X0184284Y0017015D01*
X0184362Y0017077D01*
X0184437Y0017143D01*
X0184510Y0017211D01*
X0184580Y0017282D01*
X0184648Y0017356D01*
X0184713Y0017432D01*
X0184774Y0017510D01*
X0184833Y0017591D01*
X0184889Y0017674D01*
X0184941Y0017759D01*
X0184990Y0017846D01*
X0185036Y0017935D01*
X0185078Y0018025D01*
X0185117Y0018117D01*
X0185153Y0018210D01*
X0185184Y0018305D01*
X0185078Y0018336D01*
X0185046Y0018242D01*
X0185010Y0018149D01*
X0184971Y0018058D01*
X0184929Y0017968D01*
X0184882Y0017880D01*
X0184833Y0017794D01*
X0184779Y0017710D01*
X0184723Y0017628D01*
X0184664Y0017548D01*
X0184601Y0017471D01*
X0184535Y0017396D01*
X0184467Y0017324D01*
X0184395Y0017255D01*
X0184321Y0017189D01*
X0184245Y0017125D01*
X0184166Y0017065D01*
X0184085Y0017008D01*
X0184001Y0016954D01*
X0183915Y0016903D01*
X0183828Y0016856D01*
X0183739Y0016812D01*
X0183648Y0016772D01*
X0183555Y0016736D01*
X0183461Y0016703D01*
X0183429Y0016809D01*
X0183519Y0016841D01*
X0183607Y0016876D01*
X0183694Y0016914D01*
X0183779Y0016956D01*
X0183862Y0017001D01*
X0183944Y0017049D01*
X0184023Y0017100D01*
X0184101Y0017155D01*
X0184176Y0017212D01*
X0184249Y0017273D01*
X0184320Y0017336D01*
X0184388Y0017402D01*
X0184453Y0017471D01*
X0184516Y0017542D01*
X0184576Y0017616D01*
X0184632Y0017692D01*
X0184686Y0017770D01*
X0184737Y0017850D01*
X0184784Y0017932D01*
X0184828Y0018016D01*
X0184869Y0018102D01*
X0184907Y0018189D01*
X0184941Y0018277D01*
X0184971Y0018367D01*
X0181843Y0022190D02*
X0182150Y0021172D01*
X0182149Y0021172D02*
X0182059Y0021140D01*
X0181969Y0021105D01*
X0181881Y0021066D01*
X0181795Y0021023D01*
X0181711Y0020976D01*
X0181629Y0020927D01*
X0181549Y0020873D01*
X0181471Y0020817D01*
X0181395Y0020758D01*
X0181322Y0020695D01*
X0181252Y0020629D01*
X0181184Y0020561D01*
X0181119Y0020490D01*
X0181057Y0020416D01*
X0180999Y0020340D01*
X0180943Y0020262D01*
X0180891Y0020181D01*
X0180842Y0020098D01*
X0180796Y0020014D01*
X0180754Y0019927D01*
X0180716Y0019839D01*
X0180681Y0019749D01*
X0180650Y0019658D01*
X0179630Y0019954D01*
X0179629Y0019955D01*
X0179664Y0020062D01*
X0179703Y0020168D01*
X0179745Y0020273D01*
X0179791Y0020376D01*
X0179840Y0020477D01*
X0179892Y0020577D01*
X0179948Y0020675D01*
X0180006Y0020771D01*
X0180068Y0020866D01*
X0180133Y0020958D01*
X0180201Y0021048D01*
X0180272Y0021135D01*
X0180346Y0021220D01*
X0180423Y0021303D01*
X0180502Y0021383D01*
X0180584Y0021461D01*
X0180668Y0021535D01*
X0180755Y0021607D01*
X0180845Y0021676D01*
X0180936Y0021742D01*
X0181030Y0021805D01*
X0181125Y0021865D01*
X0181223Y0021921D01*
X0181322Y0021975D01*
X0181423Y0022025D01*
X0181526Y0022071D01*
X0181630Y0022114D01*
X0181735Y0022154D01*
X0181842Y0022190D01*
X0181874Y0022084D01*
X0181767Y0022048D01*
X0181662Y0022008D01*
X0181558Y0021964D01*
X0181455Y0021917D01*
X0181354Y0021866D01*
X0181255Y0021812D01*
X0181158Y0021755D01*
X0181063Y0021694D01*
X0180970Y0021630D01*
X0180879Y0021563D01*
X0180791Y0021493D01*
X0180705Y0021420D01*
X0180622Y0021344D01*
X0180541Y0021265D01*
X0180463Y0021184D01*
X0180388Y0021100D01*
X0180316Y0021013D01*
X0180246Y0020924D01*
X0180180Y0020832D01*
X0180117Y0020739D01*
X0180058Y0020643D01*
X0180001Y0020545D01*
X0179948Y0020446D01*
X0179899Y0020344D01*
X0179853Y0020241D01*
X0179810Y0020137D01*
X0179771Y0020031D01*
X0179736Y0019924D01*
X0179842Y0019893D01*
X0179877Y0019996D01*
X0179914Y0020098D01*
X0179955Y0020199D01*
X0180000Y0020299D01*
X0180048Y0020396D01*
X0180099Y0020493D01*
X0180153Y0020587D01*
X0180211Y0020679D01*
X0180272Y0020770D01*
X0180336Y0020858D01*
X0180402Y0020944D01*
X0180472Y0021027D01*
X0180545Y0021109D01*
X0180620Y0021187D01*
X0180698Y0021263D01*
X0180778Y0021337D01*
X0180861Y0021407D01*
X0180946Y0021475D01*
X0181034Y0021540D01*
X0181124Y0021601D01*
X0181216Y0021660D01*
X0181309Y0021715D01*
X0181405Y0021767D01*
X0181502Y0021816D01*
X0181601Y0021862D01*
X0181701Y0021904D01*
X0181803Y0021943D01*
X0181906Y0021978D01*
X0181938Y0021871D01*
X0181835Y0021836D01*
X0181734Y0021797D01*
X0181634Y0021755D01*
X0181535Y0021709D01*
X0181438Y0021659D01*
X0181343Y0021607D01*
X0181250Y0021550D01*
X0181159Y0021491D01*
X0181070Y0021428D01*
X0180983Y0021363D01*
X0180898Y0021294D01*
X0180817Y0021222D01*
X0180737Y0021148D01*
X0180661Y0021070D01*
X0180587Y0020990D01*
X0180516Y0020908D01*
X0180448Y0020823D01*
X0180383Y0020735D01*
X0180322Y0020646D01*
X0180263Y0020554D01*
X0180208Y0020460D01*
X0180156Y0020364D01*
X0180108Y0020267D01*
X0180063Y0020168D01*
X0180021Y0020067D01*
X0179983Y0019965D01*
X0179949Y0019862D01*
X0180056Y0019831D01*
X0180090Y0019934D01*
X0180128Y0020036D01*
X0180170Y0020136D01*
X0180215Y0020235D01*
X0180264Y0020332D01*
X0180317Y0020427D01*
X0180373Y0020521D01*
X0180433Y0020612D01*
X0180495Y0020701D01*
X0180561Y0020787D01*
X0180630Y0020871D01*
X0180703Y0020952D01*
X0180778Y0021031D01*
X0180856Y0021107D01*
X0180936Y0021180D01*
X0181020Y0021250D01*
X0181105Y0021317D01*
X0181193Y0021380D01*
X0181284Y0021441D01*
X0181377Y0021498D01*
X0181471Y0021551D01*
X0181568Y0021601D01*
X0181666Y0021648D01*
X0181766Y0021691D01*
X0181868Y0021730D01*
X0181970Y0021765D01*
X0182002Y0021659D01*
X0181904Y0021625D01*
X0181806Y0021587D01*
X0181710Y0021546D01*
X0181616Y0021501D01*
X0181523Y0021453D01*
X0181432Y0021402D01*
X0181343Y0021347D01*
X0181256Y0021289D01*
X0181171Y0021228D01*
X0181089Y0021163D01*
X0181009Y0021096D01*
X0180931Y0021026D01*
X0180857Y0020953D01*
X0180784Y0020877D01*
X0180715Y0020799D01*
X0180649Y0020718D01*
X0180585Y0020635D01*
X0180525Y0020550D01*
X0180468Y0020463D01*
X0180414Y0020373D01*
X0180363Y0020282D01*
X0180316Y0020188D01*
X0180272Y0020093D01*
X0180232Y0019997D01*
X0180195Y0019899D01*
X0180162Y0019800D01*
X0180269Y0019769D01*
X0180302Y0019868D01*
X0180339Y0019965D01*
X0180380Y0020061D01*
X0180424Y0020156D01*
X0180471Y0020249D01*
X0180523Y0020339D01*
X0180577Y0020428D01*
X0180635Y0020515D01*
X0180697Y0020599D01*
X0180761Y0020681D01*
X0180829Y0020761D01*
X0180899Y0020838D01*
X0180972Y0020912D01*
X0181049Y0020983D01*
X0181127Y0021051D01*
X0181209Y0021116D01*
X0181292Y0021179D01*
X0181379Y0021237D01*
X0181467Y0021293D01*
X0181557Y0021345D01*
X0181649Y0021394D01*
X0181743Y0021439D01*
X0181839Y0021481D01*
X0181936Y0021518D01*
X0182035Y0021553D01*
X0182067Y0021446D01*
X0181972Y0021414D01*
X0181879Y0021377D01*
X0181788Y0021337D01*
X0181698Y0021294D01*
X0181609Y0021247D01*
X0181523Y0021197D01*
X0181439Y0021144D01*
X0181356Y0021088D01*
X0181276Y0021028D01*
X0181198Y0020966D01*
X0181123Y0020900D01*
X0181050Y0020832D01*
X0180980Y0020761D01*
X0180912Y0020687D01*
X0180847Y0020611D01*
X0180786Y0020533D01*
X0180727Y0020452D01*
X0180671Y0020369D01*
X0180619Y0020284D01*
X0180570Y0020197D01*
X0180524Y0020108D01*
X0180482Y0020018D01*
X0180443Y0019926D01*
X0180407Y0019833D01*
X0180376Y0019738D01*
X0180482Y0019707D01*
X0180514Y0019801D01*
X0180550Y0019894D01*
X0180589Y0019985D01*
X0180631Y0020075D01*
X0180678Y0020163D01*
X0180727Y0020249D01*
X0180781Y0020333D01*
X0180837Y0020415D01*
X0180896Y0020495D01*
X0180959Y0020572D01*
X0181025Y0020647D01*
X0181093Y0020719D01*
X0181165Y0020788D01*
X0181239Y0020854D01*
X0181315Y0020918D01*
X0181394Y0020978D01*
X0181475Y0021035D01*
X0181559Y0021089D01*
X0181645Y0021140D01*
X0181732Y0021187D01*
X0181821Y0021231D01*
X0181912Y0021271D01*
X0182005Y0021307D01*
X0182099Y0021340D01*
X0182131Y0021234D01*
X0182041Y0021202D01*
X0181953Y0021167D01*
X0181866Y0021129D01*
X0181781Y0021087D01*
X0181698Y0021042D01*
X0181616Y0020994D01*
X0181537Y0020943D01*
X0181459Y0020888D01*
X0181384Y0020831D01*
X0181311Y0020770D01*
X0181240Y0020707D01*
X0181172Y0020641D01*
X0181107Y0020572D01*
X0181044Y0020501D01*
X0180984Y0020427D01*
X0180928Y0020351D01*
X0180874Y0020273D01*
X0180823Y0020193D01*
X0180776Y0020111D01*
X0180732Y0020027D01*
X0180691Y0019941D01*
X0180653Y0019854D01*
X0180619Y0019766D01*
X0180589Y0019676D01*
X0185948Y0019959D02*
X0184930Y0019652D01*
X0184930Y0019653D02*
X0184898Y0019743D01*
X0184863Y0019833D01*
X0184824Y0019921D01*
X0184781Y0020007D01*
X0184734Y0020091D01*
X0184685Y0020173D01*
X0184631Y0020253D01*
X0184575Y0020331D01*
X0184516Y0020407D01*
X0184453Y0020480D01*
X0184387Y0020550D01*
X0184319Y0020618D01*
X0184248Y0020683D01*
X0184174Y0020745D01*
X0184098Y0020803D01*
X0184020Y0020859D01*
X0183939Y0020911D01*
X0183856Y0020960D01*
X0183772Y0021006D01*
X0183685Y0021048D01*
X0183597Y0021086D01*
X0183507Y0021121D01*
X0183416Y0021152D01*
X0183712Y0022172D01*
X0183713Y0022173D01*
X0183820Y0022138D01*
X0183926Y0022099D01*
X0184031Y0022057D01*
X0184134Y0022011D01*
X0184235Y0021962D01*
X0184335Y0021910D01*
X0184433Y0021854D01*
X0184529Y0021796D01*
X0184624Y0021734D01*
X0184716Y0021669D01*
X0184806Y0021601D01*
X0184893Y0021530D01*
X0184978Y0021456D01*
X0185061Y0021379D01*
X0185141Y0021300D01*
X0185219Y0021218D01*
X0185293Y0021134D01*
X0185365Y0021047D01*
X0185434Y0020957D01*
X0185500Y0020866D01*
X0185563Y0020772D01*
X0185623Y0020677D01*
X0185679Y0020579D01*
X0185733Y0020480D01*
X0185783Y0020379D01*
X0185829Y0020276D01*
X0185872Y0020172D01*
X0185912Y0020067D01*
X0185948Y0019960D01*
X0185842Y0019928D01*
X0185806Y0020035D01*
X0185766Y0020140D01*
X0185722Y0020244D01*
X0185675Y0020347D01*
X0185624Y0020448D01*
X0185570Y0020547D01*
X0185513Y0020644D01*
X0185452Y0020739D01*
X0185388Y0020832D01*
X0185321Y0020923D01*
X0185251Y0021011D01*
X0185178Y0021097D01*
X0185102Y0021180D01*
X0185023Y0021261D01*
X0184942Y0021339D01*
X0184858Y0021414D01*
X0184771Y0021486D01*
X0184682Y0021556D01*
X0184590Y0021622D01*
X0184497Y0021685D01*
X0184401Y0021744D01*
X0184303Y0021801D01*
X0184204Y0021854D01*
X0184102Y0021903D01*
X0183999Y0021949D01*
X0183895Y0021992D01*
X0183789Y0022031D01*
X0183682Y0022066D01*
X0183651Y0021960D01*
X0183754Y0021925D01*
X0183856Y0021888D01*
X0183957Y0021847D01*
X0184057Y0021802D01*
X0184154Y0021754D01*
X0184251Y0021703D01*
X0184345Y0021649D01*
X0184437Y0021591D01*
X0184528Y0021530D01*
X0184616Y0021466D01*
X0184702Y0021400D01*
X0184785Y0021330D01*
X0184867Y0021257D01*
X0184945Y0021182D01*
X0185021Y0021104D01*
X0185095Y0021024D01*
X0185165Y0020941D01*
X0185233Y0020856D01*
X0185298Y0020768D01*
X0185359Y0020678D01*
X0185418Y0020586D01*
X0185473Y0020493D01*
X0185525Y0020397D01*
X0185574Y0020300D01*
X0185620Y0020201D01*
X0185662Y0020101D01*
X0185701Y0019999D01*
X0185736Y0019896D01*
X0185629Y0019864D01*
X0185594Y0019967D01*
X0185555Y0020068D01*
X0185513Y0020168D01*
X0185467Y0020267D01*
X0185417Y0020364D01*
X0185365Y0020459D01*
X0185308Y0020552D01*
X0185249Y0020643D01*
X0185186Y0020732D01*
X0185121Y0020819D01*
X0185052Y0020904D01*
X0184980Y0020985D01*
X0184906Y0021065D01*
X0184828Y0021141D01*
X0184748Y0021215D01*
X0184666Y0021286D01*
X0184581Y0021354D01*
X0184493Y0021419D01*
X0184404Y0021480D01*
X0184312Y0021539D01*
X0184218Y0021594D01*
X0184122Y0021646D01*
X0184025Y0021694D01*
X0183926Y0021739D01*
X0183825Y0021781D01*
X0183723Y0021819D01*
X0183620Y0021853D01*
X0183589Y0021746D01*
X0183692Y0021712D01*
X0183794Y0021674D01*
X0183894Y0021632D01*
X0183993Y0021587D01*
X0184090Y0021538D01*
X0184185Y0021485D01*
X0184279Y0021429D01*
X0184370Y0021369D01*
X0184459Y0021307D01*
X0184545Y0021241D01*
X0184629Y0021172D01*
X0184710Y0021099D01*
X0184789Y0021024D01*
X0184865Y0020946D01*
X0184938Y0020866D01*
X0185008Y0020782D01*
X0185075Y0020697D01*
X0185138Y0020609D01*
X0185199Y0020518D01*
X0185256Y0020425D01*
X0185309Y0020331D01*
X0185359Y0020234D01*
X0185406Y0020136D01*
X0185449Y0020036D01*
X0185488Y0019934D01*
X0185523Y0019832D01*
X0185417Y0019800D01*
X0185383Y0019898D01*
X0185345Y0019996D01*
X0185304Y0020092D01*
X0185259Y0020186D01*
X0185211Y0020279D01*
X0185160Y0020370D01*
X0185105Y0020459D01*
X0185047Y0020546D01*
X0184986Y0020631D01*
X0184921Y0020713D01*
X0184854Y0020793D01*
X0184784Y0020871D01*
X0184711Y0020945D01*
X0184635Y0021018D01*
X0184557Y0021087D01*
X0184476Y0021153D01*
X0184393Y0021217D01*
X0184308Y0021277D01*
X0184221Y0021334D01*
X0184131Y0021388D01*
X0184040Y0021439D01*
X0183946Y0021486D01*
X0183851Y0021530D01*
X0183755Y0021570D01*
X0183657Y0021607D01*
X0183558Y0021640D01*
X0183527Y0021533D01*
X0183626Y0021500D01*
X0183723Y0021463D01*
X0183819Y0021422D01*
X0183914Y0021378D01*
X0184007Y0021331D01*
X0184097Y0021279D01*
X0184186Y0021225D01*
X0184273Y0021167D01*
X0184357Y0021105D01*
X0184439Y0021041D01*
X0184519Y0020973D01*
X0184596Y0020903D01*
X0184670Y0020830D01*
X0184741Y0020753D01*
X0184809Y0020675D01*
X0184874Y0020593D01*
X0184937Y0020510D01*
X0184995Y0020423D01*
X0185051Y0020335D01*
X0185103Y0020245D01*
X0185152Y0020153D01*
X0185197Y0020059D01*
X0185239Y0019963D01*
X0185276Y0019866D01*
X0185311Y0019767D01*
X0185204Y0019735D01*
X0185172Y0019830D01*
X0185135Y0019923D01*
X0185095Y0020014D01*
X0185052Y0020104D01*
X0185005Y0020193D01*
X0184955Y0020279D01*
X0184902Y0020363D01*
X0184846Y0020446D01*
X0184786Y0020526D01*
X0184724Y0020604D01*
X0184658Y0020679D01*
X0184590Y0020752D01*
X0184519Y0020822D01*
X0184445Y0020890D01*
X0184369Y0020955D01*
X0184291Y0021016D01*
X0184210Y0021075D01*
X0184127Y0021131D01*
X0184042Y0021183D01*
X0183955Y0021232D01*
X0183866Y0021278D01*
X0183776Y0021320D01*
X0183684Y0021359D01*
X0183591Y0021395D01*
X0183496Y0021426D01*
X0183465Y0021320D01*
X0183559Y0021288D01*
X0183652Y0021252D01*
X0183743Y0021213D01*
X0183833Y0021171D01*
X0183921Y0021124D01*
X0184007Y0021075D01*
X0184091Y0021021D01*
X0184173Y0020965D01*
X0184253Y0020906D01*
X0184330Y0020843D01*
X0184405Y0020777D01*
X0184477Y0020709D01*
X0184546Y0020637D01*
X0184612Y0020563D01*
X0184676Y0020487D01*
X0184736Y0020408D01*
X0184793Y0020327D01*
X0184847Y0020243D01*
X0184898Y0020157D01*
X0184945Y0020070D01*
X0184989Y0019981D01*
X0185029Y0019890D01*
X0185065Y0019797D01*
X0185098Y0019703D01*
X0184992Y0019671D01*
X0184960Y0019761D01*
X0184925Y0019849D01*
X0184887Y0019936D01*
X0184845Y0020021D01*
X0184800Y0020104D01*
X0184752Y0020186D01*
X0184701Y0020265D01*
X0184646Y0020343D01*
X0184589Y0020418D01*
X0184528Y0020491D01*
X0184465Y0020562D01*
X0184399Y0020630D01*
X0184330Y0020695D01*
X0184259Y0020758D01*
X0184185Y0020818D01*
X0184109Y0020874D01*
X0184031Y0020928D01*
X0183951Y0020979D01*
X0183869Y0021026D01*
X0183785Y0021070D01*
X0183699Y0021111D01*
X0183612Y0021149D01*
X0183524Y0021183D01*
X0183434Y0021213D01*
X0179612Y0018084D02*
X0180630Y0018391D01*
X0180630Y0018390D02*
X0180662Y0018300D01*
X0180697Y0018210D01*
X0180736Y0018122D01*
X0180779Y0018036D01*
X0180826Y0017952D01*
X0180875Y0017870D01*
X0180929Y0017790D01*
X0180985Y0017712D01*
X0181044Y0017636D01*
X0181107Y0017563D01*
X0181173Y0017493D01*
X0181241Y0017425D01*
X0181312Y0017360D01*
X0181386Y0017298D01*
X0181462Y0017240D01*
X0181540Y0017184D01*
X0181621Y0017132D01*
X0181704Y0017083D01*
X0181788Y0017037D01*
X0181875Y0016995D01*
X0181963Y0016957D01*
X0182053Y0016922D01*
X0182144Y0016891D01*
X0181848Y0015871D01*
X0181847Y0015870D01*
X0181740Y0015905D01*
X0181634Y0015944D01*
X0181529Y0015986D01*
X0181426Y0016032D01*
X0181325Y0016081D01*
X0181225Y0016133D01*
X0181127Y0016189D01*
X0181031Y0016247D01*
X0180936Y0016309D01*
X0180844Y0016374D01*
X0180754Y0016442D01*
X0180667Y0016513D01*
X0180582Y0016587D01*
X0180499Y0016664D01*
X0180419Y0016743D01*
X0180341Y0016825D01*
X0180267Y0016909D01*
X0180195Y0016996D01*
X0180126Y0017086D01*
X0180060Y0017177D01*
X0179997Y0017271D01*
X0179937Y0017366D01*
X0179881Y0017464D01*
X0179827Y0017563D01*
X0179777Y0017664D01*
X0179731Y0017767D01*
X0179688Y0017871D01*
X0179648Y0017976D01*
X0179612Y0018083D01*
X0179718Y0018115D01*
X0179754Y0018008D01*
X0179794Y0017903D01*
X0179838Y0017799D01*
X0179885Y0017696D01*
X0179936Y0017595D01*
X0179990Y0017496D01*
X0180047Y0017399D01*
X0180108Y0017304D01*
X0180172Y0017211D01*
X0180239Y0017120D01*
X0180309Y0017032D01*
X0180382Y0016946D01*
X0180458Y0016863D01*
X0180537Y0016782D01*
X0180618Y0016704D01*
X0180702Y0016629D01*
X0180789Y0016557D01*
X0180878Y0016487D01*
X0180970Y0016421D01*
X0181063Y0016358D01*
X0181159Y0016299D01*
X0181257Y0016242D01*
X0181356Y0016189D01*
X0181458Y0016140D01*
X0181561Y0016094D01*
X0181665Y0016051D01*
X0181771Y0016012D01*
X0181878Y0015977D01*
X0181909Y0016083D01*
X0181806Y0016118D01*
X0181704Y0016155D01*
X0181603Y0016196D01*
X0181503Y0016241D01*
X0181406Y0016289D01*
X0181309Y0016340D01*
X0181215Y0016394D01*
X0181123Y0016452D01*
X0181032Y0016513D01*
X0180944Y0016577D01*
X0180858Y0016643D01*
X0180775Y0016713D01*
X0180693Y0016786D01*
X0180615Y0016861D01*
X0180539Y0016939D01*
X0180465Y0017019D01*
X0180395Y0017102D01*
X0180327Y0017187D01*
X0180262Y0017275D01*
X0180201Y0017365D01*
X0180142Y0017457D01*
X0180087Y0017550D01*
X0180035Y0017646D01*
X0179986Y0017743D01*
X0179940Y0017842D01*
X0179898Y0017942D01*
X0179859Y0018044D01*
X0179824Y0018147D01*
X0179931Y0018179D01*
X0179966Y0018076D01*
X0180005Y0017975D01*
X0180047Y0017875D01*
X0180093Y0017776D01*
X0180143Y0017679D01*
X0180195Y0017584D01*
X0180252Y0017491D01*
X0180311Y0017400D01*
X0180374Y0017311D01*
X0180439Y0017224D01*
X0180508Y0017139D01*
X0180580Y0017058D01*
X0180654Y0016978D01*
X0180732Y0016902D01*
X0180812Y0016828D01*
X0180894Y0016757D01*
X0180979Y0016689D01*
X0181067Y0016624D01*
X0181156Y0016563D01*
X0181248Y0016504D01*
X0181342Y0016449D01*
X0181438Y0016397D01*
X0181535Y0016349D01*
X0181634Y0016304D01*
X0181735Y0016262D01*
X0181837Y0016224D01*
X0181940Y0016190D01*
X0181971Y0016297D01*
X0181868Y0016331D01*
X0181766Y0016369D01*
X0181666Y0016411D01*
X0181567Y0016456D01*
X0181470Y0016505D01*
X0181375Y0016558D01*
X0181281Y0016614D01*
X0181190Y0016674D01*
X0181101Y0016736D01*
X0181015Y0016802D01*
X0180931Y0016871D01*
X0180850Y0016944D01*
X0180771Y0017019D01*
X0180695Y0017097D01*
X0180622Y0017177D01*
X0180552Y0017261D01*
X0180485Y0017346D01*
X0180422Y0017434D01*
X0180361Y0017525D01*
X0180304Y0017618D01*
X0180251Y0017712D01*
X0180201Y0017809D01*
X0180154Y0017907D01*
X0180111Y0018007D01*
X0180072Y0018109D01*
X0180037Y0018211D01*
X0180143Y0018243D01*
X0180177Y0018145D01*
X0180215Y0018047D01*
X0180256Y0017951D01*
X0180301Y0017857D01*
X0180349Y0017764D01*
X0180400Y0017673D01*
X0180455Y0017584D01*
X0180513Y0017497D01*
X0180574Y0017412D01*
X0180639Y0017330D01*
X0180706Y0017250D01*
X0180776Y0017172D01*
X0180849Y0017098D01*
X0180925Y0017025D01*
X0181003Y0016956D01*
X0181084Y0016890D01*
X0181167Y0016826D01*
X0181252Y0016766D01*
X0181339Y0016709D01*
X0181429Y0016655D01*
X0181520Y0016604D01*
X0181614Y0016557D01*
X0181709Y0016513D01*
X0181805Y0016473D01*
X0181903Y0016436D01*
X0182002Y0016403D01*
X0182033Y0016510D01*
X0181934Y0016543D01*
X0181837Y0016580D01*
X0181741Y0016621D01*
X0181646Y0016665D01*
X0181553Y0016712D01*
X0181463Y0016764D01*
X0181374Y0016818D01*
X0181287Y0016876D01*
X0181203Y0016938D01*
X0181121Y0017002D01*
X0181041Y0017070D01*
X0180964Y0017140D01*
X0180890Y0017213D01*
X0180819Y0017290D01*
X0180751Y0017368D01*
X0180686Y0017450D01*
X0180623Y0017533D01*
X0180565Y0017620D01*
X0180509Y0017708D01*
X0180457Y0017798D01*
X0180408Y0017890D01*
X0180363Y0017984D01*
X0180321Y0018080D01*
X0180284Y0018177D01*
X0180249Y0018276D01*
X0180356Y0018308D01*
X0180388Y0018213D01*
X0180425Y0018120D01*
X0180465Y0018029D01*
X0180508Y0017939D01*
X0180555Y0017850D01*
X0180605Y0017764D01*
X0180658Y0017680D01*
X0180714Y0017597D01*
X0180774Y0017517D01*
X0180836Y0017439D01*
X0180902Y0017364D01*
X0180970Y0017291D01*
X0181041Y0017221D01*
X0181115Y0017153D01*
X0181191Y0017088D01*
X0181269Y0017027D01*
X0181350Y0016968D01*
X0181433Y0016912D01*
X0181518Y0016860D01*
X0181605Y0016811D01*
X0181694Y0016765D01*
X0181784Y0016723D01*
X0181876Y0016684D01*
X0181969Y0016648D01*
X0182064Y0016617D01*
X0182095Y0016723D01*
X0182001Y0016755D01*
X0181908Y0016791D01*
X0181817Y0016830D01*
X0181727Y0016872D01*
X0181639Y0016919D01*
X0181553Y0016968D01*
X0181469Y0017022D01*
X0181387Y0017078D01*
X0181307Y0017137D01*
X0181230Y0017200D01*
X0181155Y0017266D01*
X0181083Y0017334D01*
X0181014Y0017406D01*
X0180948Y0017480D01*
X0180884Y0017556D01*
X0180824Y0017635D01*
X0180767Y0017716D01*
X0180713Y0017800D01*
X0180662Y0017886D01*
X0180615Y0017973D01*
X0180571Y0018062D01*
X0180531Y0018153D01*
X0180495Y0018246D01*
X0180462Y0018340D01*
X0180568Y0018372D01*
X0180600Y0018282D01*
X0180635Y0018194D01*
X0180673Y0018107D01*
X0180715Y0018022D01*
X0180760Y0017939D01*
X0180808Y0017857D01*
X0180859Y0017778D01*
X0180914Y0017700D01*
X0180971Y0017625D01*
X0181032Y0017552D01*
X0181095Y0017481D01*
X0181161Y0017413D01*
X0181230Y0017348D01*
X0181301Y0017285D01*
X0181375Y0017225D01*
X0181451Y0017169D01*
X0181529Y0017115D01*
X0181609Y0017064D01*
X0181691Y0017017D01*
X0181775Y0016973D01*
X0181861Y0016932D01*
X0181948Y0016894D01*
X0182036Y0016860D01*
X0182126Y0016830D01*
D19*
X0179630Y0013904D03*
X0179630Y0024140D03*
D20*
X0193095Y0023746D03*
X0193095Y0019022D03*
X0193095Y0014297D03*
D21*
X0197962Y0048182D03*
X0197962Y0051922D03*
X0197962Y0055662D03*
X0208199Y0055662D03*
X0208199Y0048182D03*
D22*
X0176383Y0063543D03*
X0174415Y0063543D03*
X0172446Y0063543D03*
X0170478Y0063543D03*
X0168509Y0063543D03*
X0168509Y0080181D03*
X0170478Y0080181D03*
X0172446Y0080181D03*
X0174415Y0080181D03*
X0176383Y0080181D03*
M02*
