G75*
%MOIN*%
%OFA0B0*%
%FSLAX25Y25*%
%IPPOS*%
%LPD*%
%AMOC8*
5,1,8,0,0,1.08239X$1,22.5*
%
%ADD10OC8,0.06800*%
%ADD11C,0.05556*%
%ADD12C,0.06800*%
%ADD13C,0.04343*%
%ADD14C,0.03600*%
%ADD15C,0.03900*%
%ADD16C,0.03700*%
D10*
X0100406Y0015167D03*
X0110406Y0015167D03*
X0120406Y0015167D03*
X0120406Y0025167D03*
X0110406Y0025167D03*
X0100406Y0025167D03*
D11*
X0028471Y0020957D02*
X0023715Y0020957D01*
X0023715Y0025957D02*
X0028471Y0025957D01*
X0028471Y0030957D02*
X0023715Y0030957D01*
X0023715Y0035957D02*
X0028471Y0035957D01*
X0028471Y0040957D02*
X0023715Y0040957D01*
X0023715Y0045957D02*
X0028471Y0045957D01*
X0028471Y0050957D02*
X0023715Y0050957D01*
X0023715Y0055957D02*
X0028471Y0055957D01*
X0028471Y0060957D02*
X0023715Y0060957D01*
X0023715Y0065957D02*
X0028471Y0065957D01*
X0028471Y0070957D02*
X0023715Y0070957D01*
X0023715Y0075957D02*
X0028471Y0075957D01*
X0028471Y0080957D02*
X0023715Y0080957D01*
D12*
X0130979Y0078177D02*
X0130979Y0084177D01*
X0140979Y0084177D02*
X0140979Y0078177D01*
D13*
X0182780Y0019022D03*
D14*
X0136580Y0048422D03*
X0033680Y0072222D03*
D15*
X0060980Y0081322D03*
X0068680Y0075022D03*
X0082680Y0071522D03*
X0095980Y0073622D03*
X0105080Y0081322D03*
X0113480Y0065222D03*
X0123980Y0063122D03*
X0150580Y0072922D03*
X0172280Y0069422D03*
X0172980Y0075022D03*
X0191880Y0071522D03*
X0190480Y0058222D03*
X0180680Y0058922D03*
X0203080Y0054022D03*
X0209380Y0051922D03*
X0192580Y0045622D03*
X0200980Y0026022D03*
X0213580Y0026022D03*
X0172280Y0024622D03*
X0136580Y0033722D03*
X0105680Y0034822D03*
X0081280Y0045622D03*
X0088980Y0049822D03*
X0095980Y0052622D03*
X0070780Y0059622D03*
X0061680Y0038622D03*
X0052580Y0030922D03*
X0066580Y0020422D03*
X0074880Y0026222D03*
X0158980Y0087622D03*
D16*
X0112878Y0044359D03*
X0085778Y0013859D03*
M02*
