%
M48
M72
T01C0.01300
T02C0.01500
T03C0.02000
T04C0.02550
T05C0.02700
T06C0.03100
T07C0.03543
T08C0.04000
T09C0.04050
T10C0.05512
T11C0.06100
T12C0.13000
%
T01
X181198Y97999
X147598Y114799
T02
X111898Y93099
X228098Y116199
X268698Y107799
X293898Y102199
X269398Y97299
X237898Y139299
T03
X228798Y107099
X291798Y93099
T04
X271498Y102199
T05
X272198Y128099
T06
X127998Y97299
X120998Y98699
T07
X102098Y94938
X102098Y112261
T08
X176998Y86099
X187498Y86099
X166498Y87299
X156498Y87299
X146298Y87499
X136298Y87499
X321972Y161688
X321972Y171688
T09
X146898Y130899
T10
X135461Y169399
X189398Y169399
T11
X247698Y135099
X210598Y107099
T12
X106198Y141699
X94398Y161399
X117998Y161399
M30
