G75*
%MOIN*%
%OFA0B0*%
%FSLAX25Y25*%
%IPPOS*%
%LPD*%
%AMOC8*
5,1,8,0,0,1.08239X$1,22.5*
%
%ADD10R,0.08800X0.03400*%
%ADD11OC8,0.06800*%
%ADD12C,0.06800*%
%ADD13R,0.03556X0.05918*%
%ADD14R,0.03753X0.01981*%
%ADD15R,0.06706X0.05918*%
%ADD16R,0.05918X0.06706*%
%ADD17R,0.02375X0.02965*%
%ADD18R,0.02965X0.02965*%
%ADD19OC8,0.19800*%
%ADD20R,0.09068X0.09068*%
%ADD21C,0.04343*%
%ADD22C,0.03900*%
%ADD23C,0.03700*%
%ADD24C,0.04400*%
%ADD25C,0.05100*%
%ADD26C,0.04950*%
%ADD27C,0.09950*%
%ADD28C,0.06875*%
%ADD29C,0.05500*%
D10*
X0236998Y0086099D03*
X0236998Y0091099D03*
X0236998Y0096099D03*
X0236998Y0101099D03*
X0236998Y0106099D03*
X0236998Y0111099D03*
X0236998Y0116099D03*
X0236998Y0121099D03*
X0261198Y0121099D03*
X0261198Y0116099D03*
X0261198Y0111099D03*
X0261198Y0106099D03*
X0261198Y0101099D03*
X0261198Y0096099D03*
X0261198Y0091099D03*
X0261198Y0086099D03*
D11*
X0187498Y0086099D03*
X0176998Y0086099D03*
D12*
X0156498Y0084299D02*
X0156498Y0090299D01*
X0146298Y0090499D02*
X0146298Y0084499D01*
X0136298Y0084499D02*
X0136298Y0090499D01*
X0166498Y0090299D02*
X0166498Y0084299D01*
X0318972Y0161688D02*
X0324972Y0161688D01*
X0324972Y0171688D02*
X0318972Y0171688D01*
D13*
X0149498Y0121426D03*
X0144498Y0121426D03*
X0139498Y0121426D03*
X0134498Y0121426D03*
X0134498Y0099772D03*
X0139498Y0099772D03*
X0144498Y0099772D03*
X0149498Y0099772D03*
D14*
X0150083Y0141761D03*
X0150083Y0144320D03*
X0150083Y0146879D03*
X0150083Y0149438D03*
X0173114Y0149438D03*
X0173114Y0146879D03*
X0173114Y0144320D03*
X0173114Y0141761D03*
D15*
X0127998Y0125539D03*
X0127998Y0118059D03*
X0127998Y0110839D03*
X0127998Y0103359D03*
X0156698Y0104059D03*
X0164398Y0104059D03*
X0164398Y0111539D03*
X0156698Y0111539D03*
D16*
X0157158Y0119699D03*
X0164638Y0119699D03*
X0135938Y0137899D03*
X0128458Y0137899D03*
X0152958Y0156099D03*
X0160438Y0156099D03*
D17*
X0160198Y0136827D03*
X0156458Y0136827D03*
X0163938Y0136827D03*
D18*
X0163938Y0127772D03*
X0160198Y0127772D03*
X0156458Y0127772D03*
D19*
X0106198Y0141699D03*
X0094398Y0161399D03*
X0117998Y0161399D03*
D20*
X0135461Y0169399D03*
X0189398Y0169399D03*
D21*
X0102098Y0112261D03*
X0102098Y0094938D03*
D22*
X0111898Y0093099D03*
X0228098Y0116199D03*
X0268698Y0107799D03*
X0293898Y0102199D03*
X0269398Y0097299D03*
X0237898Y0139299D03*
D23*
X0147598Y0114799D03*
X0181198Y0097999D03*
D24*
X0228798Y0107099D03*
X0291798Y0093099D03*
D25*
X0272198Y0128099D03*
D26*
X0271498Y0102199D03*
D27*
X0210598Y0107099D03*
X0247698Y0135099D03*
D28*
X0146898Y0130899D03*
D29*
X0127998Y0097299D03*
X0120998Y0098699D03*
M02*
