G75*
%MOIN*%
%OFA0B0*%
%FSLAX25Y25*%
%IPPOS*%
%LPD*%
%AMOC8*
5,1,8,0,0,1.08239X$1,22.5*
%
%ADD10R,0.22047X0.12598*%
%ADD11R,0.05118X0.05906*%
%ADD12R,0.05906X0.05118*%
%ADD13R,0.15000X0.08000*%
%ADD14R,0.33000X0.42000*%
%ADD15R,0.19685X0.11811*%
%ADD16R,0.11811X0.19685*%
%ADD17R,0.04724X0.04724*%
%ADD18R,0.09449X0.09449*%
%ADD19R,0.09843X0.01969*%
%ADD20R,0.09843X0.07874*%
D10*
X0210624Y0093370D03*
X0210624Y0120929D03*
D11*
X0245358Y0118999D03*
X0252838Y0118999D03*
X0252838Y0110599D03*
X0245358Y0110599D03*
X0246058Y0101499D03*
X0253538Y0101499D03*
X0253538Y0093099D03*
X0246058Y0093099D03*
D12*
X0234398Y0089359D03*
X0234398Y0096839D03*
X0262398Y0094739D03*
X0262398Y0101959D03*
X0262398Y0109439D03*
X0262398Y0087259D03*
X0120998Y0113159D03*
X0120998Y0120639D03*
D13*
X0248250Y0145448D03*
X0248250Y0165448D03*
D14*
X0287250Y0155448D03*
D15*
X0174898Y0149710D03*
X0174898Y0124714D03*
D16*
X0200213Y0146999D03*
X0225209Y0146999D03*
X0281531Y0119390D03*
X0306527Y0119390D03*
X0306331Y0093284D03*
X0281335Y0093284D03*
D17*
X0121698Y0083365D03*
X0128698Y0083365D03*
X0128698Y0091633D03*
X0121698Y0091633D03*
D18*
X0204037Y0169399D03*
X0221360Y0169399D03*
D19*
X0111941Y0109898D03*
X0111941Y0106749D03*
X0111941Y0103599D03*
X0111941Y0100450D03*
X0111941Y0097300D03*
D20*
X0111941Y0085883D03*
X0090287Y0085883D03*
X0090287Y0121316D03*
X0111941Y0121316D03*
M02*
