G75*
%MOIN*%
%OFA0B0*%
%FSLAX25Y25*%
%IPPOS*%
%LPD*%
%AMOC8*
5,1,8,0,0,1.08239X$1,22.5*
%
%ADD10R,0.22847X0.13398*%
%ADD11R,0.05918X0.06706*%
%ADD12R,0.06706X0.05918*%
%ADD13R,0.15800X0.08800*%
%ADD14R,0.33800X0.42800*%
%ADD15R,0.20485X0.12611*%
%ADD16R,0.12611X0.20485*%
%ADD17OC8,0.06800*%
%ADD18C,0.06800*%
%ADD19R,0.05524X0.05524*%
%ADD20R,0.10249X0.10249*%
%ADD21OC8,0.19800*%
%ADD22R,0.09068X0.09068*%
%ADD23R,0.10643X0.02769*%
%ADD24R,0.10643X0.08674*%
%ADD25C,0.04343*%
%ADD26C,0.03900*%
%ADD27C,0.03700*%
%ADD28C,0.04400*%
%ADD29C,0.05100*%
%ADD30C,0.04950*%
%ADD31C,0.09950*%
%ADD32C,0.06875*%
%ADD33C,0.05500*%
D10*
X0210624Y0093370D03*
X0210624Y0120929D03*
D11*
X0245358Y0118999D03*
X0252838Y0118999D03*
X0252838Y0110599D03*
X0245358Y0110599D03*
X0246058Y0101499D03*
X0253538Y0101499D03*
X0253538Y0093099D03*
X0246058Y0093099D03*
D12*
X0234398Y0089359D03*
X0234398Y0096839D03*
X0262398Y0094739D03*
X0262398Y0101959D03*
X0262398Y0109439D03*
X0262398Y0087259D03*
X0120998Y0113159D03*
X0120998Y0120639D03*
D13*
X0248250Y0145448D03*
X0248250Y0165448D03*
D14*
X0287250Y0155448D03*
D15*
X0174898Y0149710D03*
X0174898Y0124714D03*
D16*
X0200213Y0146999D03*
X0225209Y0146999D03*
X0281531Y0119390D03*
X0306527Y0119390D03*
X0306331Y0093284D03*
X0281335Y0093284D03*
D17*
X0187498Y0086099D03*
X0176998Y0086099D03*
D18*
X0166498Y0084299D02*
X0166498Y0090299D01*
X0156498Y0090299D02*
X0156498Y0084299D01*
X0146298Y0084499D02*
X0146298Y0090499D01*
X0136298Y0090499D02*
X0136298Y0084499D01*
X0318972Y0161688D02*
X0324972Y0161688D01*
X0324972Y0171688D02*
X0318972Y0171688D01*
D19*
X0121698Y0083365D03*
X0128698Y0083365D03*
X0128698Y0091633D03*
X0121698Y0091633D03*
D20*
X0204037Y0169399D03*
X0221360Y0169399D03*
D21*
X0117998Y0161399D03*
X0094398Y0161399D03*
X0106198Y0141699D03*
D22*
X0135461Y0169399D03*
X0189398Y0169399D03*
D23*
X0111941Y0109898D03*
X0111941Y0106749D03*
X0111941Y0103599D03*
X0111941Y0100450D03*
X0111941Y0097300D03*
D24*
X0111941Y0085883D03*
X0090287Y0085883D03*
X0090287Y0121316D03*
X0111941Y0121316D03*
D25*
X0102098Y0112261D03*
X0102098Y0094938D03*
D26*
X0111898Y0093099D03*
X0228098Y0116199D03*
X0268698Y0107799D03*
X0293898Y0102199D03*
X0269398Y0097299D03*
X0237898Y0139299D03*
D27*
X0147598Y0114799D03*
X0181198Y0097999D03*
D28*
X0228798Y0107099D03*
X0291798Y0093099D03*
D29*
X0272198Y0128099D03*
D30*
X0271498Y0102199D03*
D31*
X0210598Y0107099D03*
X0247698Y0135099D03*
D32*
X0146898Y0130899D03*
D33*
X0127998Y0097299D03*
X0120998Y0098699D03*
M02*
