G75*
%MOIN*%
%OFA0B0*%
%FSLAX25Y25*%
%IPPOS*%
%LPD*%
%AMOC8*
5,1,8,0,0,1.08239X$1,22.5*
%
%ADD10C,0.00000*%
%ADD11C,0.00600*%
%ADD12C,0.00512*%
%ADD13C,0.01600*%
%ADD14R,0.10500X0.56700*%
%ADD15R,0.22047X0.12598*%
%ADD16R,0.05118X0.05906*%
%ADD17R,0.05906X0.05118*%
%ADD18R,0.15000X0.08000*%
%ADD19R,0.33000X0.42000*%
%ADD20R,0.19685X0.11811*%
%ADD21R,0.11811X0.19685*%
%ADD22OC8,0.06000*%
%ADD23C,0.06000*%
%ADD24R,0.04724X0.04724*%
%ADD25R,0.09449X0.09449*%
%ADD26OC8,0.19000*%
%ADD27R,0.08268X0.08268*%
%ADD28R,0.09843X0.01969*%
%ADD29R,0.09843X0.07874*%
%ADD30C,0.01400*%
%ADD31C,0.03100*%
%ADD32C,0.02900*%
%ADD33C,0.05000*%
%ADD34C,0.03600*%
%ADD35C,0.01800*%
%ADD36C,0.02500*%
%ADD37C,0.04300*%
%ADD38C,0.04150*%
%ADD39C,0.09150*%
%ADD40C,0.04000*%
%ADD41C,0.06075*%
%ADD42C,0.03000*%
%ADD43C,0.04700*%
D10*
X0078998Y0079799D02*
X0078998Y0178176D01*
X0329358Y0178176D01*
X0329358Y0079799D01*
X0078998Y0079799D01*
X0100326Y0094938D02*
X0100328Y0095022D01*
X0100334Y0095105D01*
X0100344Y0095188D01*
X0100358Y0095271D01*
X0100375Y0095353D01*
X0100397Y0095434D01*
X0100422Y0095513D01*
X0100451Y0095592D01*
X0100484Y0095669D01*
X0100520Y0095744D01*
X0100560Y0095818D01*
X0100603Y0095890D01*
X0100650Y0095959D01*
X0100700Y0096026D01*
X0100753Y0096091D01*
X0100809Y0096153D01*
X0100867Y0096213D01*
X0100929Y0096270D01*
X0100993Y0096323D01*
X0101060Y0096374D01*
X0101129Y0096421D01*
X0101200Y0096466D01*
X0101273Y0096506D01*
X0101348Y0096543D01*
X0101425Y0096577D01*
X0101503Y0096607D01*
X0101582Y0096633D01*
X0101663Y0096656D01*
X0101745Y0096674D01*
X0101827Y0096689D01*
X0101910Y0096700D01*
X0101993Y0096707D01*
X0102077Y0096710D01*
X0102161Y0096709D01*
X0102244Y0096704D01*
X0102328Y0096695D01*
X0102410Y0096682D01*
X0102492Y0096666D01*
X0102573Y0096645D01*
X0102654Y0096621D01*
X0102732Y0096593D01*
X0102810Y0096561D01*
X0102886Y0096525D01*
X0102960Y0096486D01*
X0103032Y0096444D01*
X0103102Y0096398D01*
X0103170Y0096349D01*
X0103235Y0096297D01*
X0103298Y0096242D01*
X0103358Y0096184D01*
X0103416Y0096123D01*
X0103470Y0096059D01*
X0103522Y0095993D01*
X0103570Y0095925D01*
X0103615Y0095854D01*
X0103656Y0095781D01*
X0103695Y0095707D01*
X0103729Y0095631D01*
X0103760Y0095553D01*
X0103787Y0095474D01*
X0103811Y0095393D01*
X0103830Y0095312D01*
X0103846Y0095230D01*
X0103858Y0095147D01*
X0103866Y0095063D01*
X0103870Y0094980D01*
X0103870Y0094896D01*
X0103866Y0094813D01*
X0103858Y0094729D01*
X0103846Y0094646D01*
X0103830Y0094564D01*
X0103811Y0094483D01*
X0103787Y0094402D01*
X0103760Y0094323D01*
X0103729Y0094245D01*
X0103695Y0094169D01*
X0103656Y0094095D01*
X0103615Y0094022D01*
X0103570Y0093951D01*
X0103522Y0093883D01*
X0103470Y0093817D01*
X0103416Y0093753D01*
X0103358Y0093692D01*
X0103298Y0093634D01*
X0103235Y0093579D01*
X0103170Y0093527D01*
X0103102Y0093478D01*
X0103032Y0093432D01*
X0102960Y0093390D01*
X0102886Y0093351D01*
X0102810Y0093315D01*
X0102732Y0093283D01*
X0102654Y0093255D01*
X0102573Y0093231D01*
X0102492Y0093210D01*
X0102410Y0093194D01*
X0102328Y0093181D01*
X0102244Y0093172D01*
X0102161Y0093167D01*
X0102077Y0093166D01*
X0101993Y0093169D01*
X0101910Y0093176D01*
X0101827Y0093187D01*
X0101745Y0093202D01*
X0101663Y0093220D01*
X0101582Y0093243D01*
X0101503Y0093269D01*
X0101425Y0093299D01*
X0101348Y0093333D01*
X0101273Y0093370D01*
X0101200Y0093410D01*
X0101129Y0093455D01*
X0101060Y0093502D01*
X0100993Y0093553D01*
X0100929Y0093606D01*
X0100867Y0093663D01*
X0100809Y0093723D01*
X0100753Y0093785D01*
X0100700Y0093850D01*
X0100650Y0093917D01*
X0100603Y0093986D01*
X0100560Y0094058D01*
X0100520Y0094132D01*
X0100484Y0094207D01*
X0100451Y0094284D01*
X0100422Y0094363D01*
X0100397Y0094442D01*
X0100375Y0094523D01*
X0100358Y0094605D01*
X0100344Y0094688D01*
X0100334Y0094771D01*
X0100328Y0094854D01*
X0100326Y0094938D01*
X0100326Y0112261D02*
X0100328Y0112345D01*
X0100334Y0112428D01*
X0100344Y0112511D01*
X0100358Y0112594D01*
X0100375Y0112676D01*
X0100397Y0112757D01*
X0100422Y0112836D01*
X0100451Y0112915D01*
X0100484Y0112992D01*
X0100520Y0113067D01*
X0100560Y0113141D01*
X0100603Y0113213D01*
X0100650Y0113282D01*
X0100700Y0113349D01*
X0100753Y0113414D01*
X0100809Y0113476D01*
X0100867Y0113536D01*
X0100929Y0113593D01*
X0100993Y0113646D01*
X0101060Y0113697D01*
X0101129Y0113744D01*
X0101200Y0113789D01*
X0101273Y0113829D01*
X0101348Y0113866D01*
X0101425Y0113900D01*
X0101503Y0113930D01*
X0101582Y0113956D01*
X0101663Y0113979D01*
X0101745Y0113997D01*
X0101827Y0114012D01*
X0101910Y0114023D01*
X0101993Y0114030D01*
X0102077Y0114033D01*
X0102161Y0114032D01*
X0102244Y0114027D01*
X0102328Y0114018D01*
X0102410Y0114005D01*
X0102492Y0113989D01*
X0102573Y0113968D01*
X0102654Y0113944D01*
X0102732Y0113916D01*
X0102810Y0113884D01*
X0102886Y0113848D01*
X0102960Y0113809D01*
X0103032Y0113767D01*
X0103102Y0113721D01*
X0103170Y0113672D01*
X0103235Y0113620D01*
X0103298Y0113565D01*
X0103358Y0113507D01*
X0103416Y0113446D01*
X0103470Y0113382D01*
X0103522Y0113316D01*
X0103570Y0113248D01*
X0103615Y0113177D01*
X0103656Y0113104D01*
X0103695Y0113030D01*
X0103729Y0112954D01*
X0103760Y0112876D01*
X0103787Y0112797D01*
X0103811Y0112716D01*
X0103830Y0112635D01*
X0103846Y0112553D01*
X0103858Y0112470D01*
X0103866Y0112386D01*
X0103870Y0112303D01*
X0103870Y0112219D01*
X0103866Y0112136D01*
X0103858Y0112052D01*
X0103846Y0111969D01*
X0103830Y0111887D01*
X0103811Y0111806D01*
X0103787Y0111725D01*
X0103760Y0111646D01*
X0103729Y0111568D01*
X0103695Y0111492D01*
X0103656Y0111418D01*
X0103615Y0111345D01*
X0103570Y0111274D01*
X0103522Y0111206D01*
X0103470Y0111140D01*
X0103416Y0111076D01*
X0103358Y0111015D01*
X0103298Y0110957D01*
X0103235Y0110902D01*
X0103170Y0110850D01*
X0103102Y0110801D01*
X0103032Y0110755D01*
X0102960Y0110713D01*
X0102886Y0110674D01*
X0102810Y0110638D01*
X0102732Y0110606D01*
X0102654Y0110578D01*
X0102573Y0110554D01*
X0102492Y0110533D01*
X0102410Y0110517D01*
X0102328Y0110504D01*
X0102244Y0110495D01*
X0102161Y0110490D01*
X0102077Y0110489D01*
X0101993Y0110492D01*
X0101910Y0110499D01*
X0101827Y0110510D01*
X0101745Y0110525D01*
X0101663Y0110543D01*
X0101582Y0110566D01*
X0101503Y0110592D01*
X0101425Y0110622D01*
X0101348Y0110656D01*
X0101273Y0110693D01*
X0101200Y0110733D01*
X0101129Y0110778D01*
X0101060Y0110825D01*
X0100993Y0110876D01*
X0100929Y0110929D01*
X0100867Y0110986D01*
X0100809Y0111046D01*
X0100753Y0111108D01*
X0100700Y0111173D01*
X0100650Y0111240D01*
X0100603Y0111309D01*
X0100560Y0111381D01*
X0100520Y0111455D01*
X0100484Y0111530D01*
X0100451Y0111607D01*
X0100422Y0111686D01*
X0100397Y0111765D01*
X0100375Y0111846D01*
X0100358Y0111928D01*
X0100344Y0112011D01*
X0100334Y0112094D01*
X0100328Y0112177D01*
X0100326Y0112261D01*
D11*
X0010033Y0116837D02*
X0005763Y0121107D01*
X0004695Y0121107D01*
X0003628Y0120039D01*
X0003628Y0117904D01*
X0004695Y0116837D01*
X0010033Y0116837D02*
X0010033Y0121107D01*
X0008966Y0123282D02*
X0010033Y0124350D01*
X0010033Y0126485D01*
X0008966Y0127552D01*
X0006831Y0127552D01*
X0005763Y0126485D01*
X0005763Y0125417D01*
X0006831Y0123282D01*
X0003628Y0123282D01*
X0003628Y0127552D01*
X0008966Y0129728D02*
X0008966Y0130795D01*
X0010033Y0130795D01*
X0010033Y0129728D01*
X0008966Y0129728D01*
X0008966Y0132950D02*
X0004695Y0132950D01*
X0003628Y0134018D01*
X0003628Y0136153D01*
X0004695Y0137221D01*
X0008966Y0132950D01*
X0010033Y0134018D01*
X0010033Y0136153D01*
X0008966Y0137221D01*
X0004695Y0137221D01*
X0004695Y0139396D02*
X0003628Y0140463D01*
X0003628Y0142599D01*
X0004695Y0143666D01*
X0008966Y0139396D01*
X0010033Y0140463D01*
X0010033Y0142599D01*
X0008966Y0143666D01*
X0004695Y0143666D01*
X0004695Y0139396D02*
X0008966Y0139396D01*
X0079298Y0160099D02*
X0083569Y0164370D01*
X0083569Y0165437D01*
X0082501Y0166505D01*
X0080366Y0166505D01*
X0079298Y0165437D01*
X0085744Y0163302D02*
X0085744Y0161167D01*
X0086811Y0160099D01*
X0090014Y0160099D01*
X0092189Y0160099D02*
X0092189Y0164370D01*
X0093257Y0164370D01*
X0094324Y0163302D01*
X0095392Y0164370D01*
X0096460Y0163302D01*
X0096460Y0160099D01*
X0094324Y0160099D02*
X0094324Y0163302D01*
X0090014Y0164370D02*
X0086811Y0164370D01*
X0085744Y0163302D01*
X0083569Y0160099D02*
X0079298Y0160099D01*
X0192974Y0016833D02*
X0190839Y0014698D01*
X0194042Y0014698D01*
X0195109Y0013630D01*
X0195109Y0012562D01*
X0194042Y0011495D01*
X0191906Y0011495D01*
X0190839Y0012562D01*
X0190839Y0014698D01*
X0192974Y0016833D02*
X0195109Y0017900D01*
X0197284Y0016833D02*
X0198352Y0017900D01*
X0200487Y0017900D01*
X0201555Y0016833D01*
X0201555Y0015765D01*
X0200487Y0014698D01*
X0201555Y0013630D01*
X0201555Y0012562D01*
X0200487Y0011495D01*
X0198352Y0011495D01*
X0197284Y0012562D01*
X0199420Y0014698D02*
X0200487Y0014698D01*
X0203730Y0012562D02*
X0204797Y0012562D01*
X0204797Y0011495D01*
X0203730Y0011495D01*
X0203730Y0012562D01*
X0206953Y0012562D02*
X0208020Y0011495D01*
X0210155Y0011495D01*
X0211223Y0012562D01*
X0211223Y0016833D01*
X0206953Y0012562D01*
X0206953Y0016833D01*
X0208020Y0017900D01*
X0210155Y0017900D01*
X0211223Y0016833D01*
X0213398Y0016833D02*
X0214466Y0017900D01*
X0216601Y0017900D01*
X0217668Y0016833D01*
X0213398Y0012562D01*
X0214466Y0011495D01*
X0216601Y0011495D01*
X0217668Y0012562D01*
X0217668Y0016833D01*
X0213398Y0016833D02*
X0213398Y0012562D01*
D12*
X0078998Y0001256D02*
X0078998Y0079799D01*
X0004918Y0079799D01*
X0012595Y0080055D02*
X0013619Y0090035D01*
X0013852Y0090035D02*
X0012595Y0080055D01*
X0011572Y0090035D01*
X0011338Y0090035D02*
X0013852Y0090035D01*
X0013107Y0090035D02*
X0012595Y0080055D01*
X0012083Y0090035D01*
X0011338Y0090035D02*
X0012595Y0080055D01*
X0012595Y0177969D01*
X0013619Y0167988D01*
X0013852Y0167988D02*
X0012595Y0177969D01*
X0011572Y0167988D01*
X0011338Y0167988D02*
X0013852Y0167988D01*
X0013107Y0167988D02*
X0012595Y0177969D01*
X0012083Y0167988D01*
X0011338Y0167988D02*
X0012595Y0177969D01*
X0004918Y0178224D02*
X0078998Y0178224D01*
X0327030Y0079799D02*
X0327030Y0001256D01*
X0326774Y0008933D02*
X0316794Y0007909D01*
X0316794Y0007676D02*
X0326774Y0008933D01*
X0316794Y0009957D01*
X0316794Y0010190D02*
X0316794Y0007676D01*
X0316794Y0008421D02*
X0326774Y0008933D01*
X0316794Y0009445D01*
X0316794Y0010190D02*
X0326774Y0008933D01*
X0079254Y0008933D01*
X0089235Y0007909D01*
X0089235Y0007676D02*
X0079254Y0008933D01*
X0089235Y0009957D01*
X0089235Y0010190D02*
X0089235Y0007676D01*
X0089235Y0008421D02*
X0079254Y0008933D01*
X0089235Y0009445D01*
X0089235Y0010190D02*
X0079254Y0008933D01*
D13*
X0582298Y0076999D02*
X0582298Y0178499D01*
D14*
X0322248Y0109549D03*
D15*
X0210624Y0120929D03*
X0210624Y0093370D03*
D16*
X0246058Y0093099D03*
X0253538Y0093099D03*
X0253538Y0101499D03*
X0246058Y0101499D03*
X0245358Y0110599D03*
X0252838Y0110599D03*
X0252838Y0118999D03*
X0245358Y0118999D03*
D17*
X0262398Y0109439D03*
X0262398Y0101959D03*
X0262398Y0094739D03*
X0262398Y0087259D03*
X0234398Y0089359D03*
X0234398Y0096839D03*
X0120998Y0113159D03*
X0120998Y0120639D03*
D18*
X0248250Y0145448D03*
X0248250Y0165448D03*
D19*
X0287250Y0155448D03*
D20*
X0174898Y0149710D03*
X0174898Y0124714D03*
D21*
X0200213Y0146999D03*
X0225209Y0146999D03*
X0281531Y0119390D03*
X0306527Y0119390D03*
X0306331Y0093284D03*
X0281335Y0093284D03*
D22*
X0187498Y0086099D03*
X0176998Y0086099D03*
D23*
X0166498Y0087299D02*
X0166498Y0090999D01*
X0174898Y0099399D01*
X0174898Y0124714D01*
X0206839Y0124714D01*
X0200213Y0131340D01*
X0200213Y0146999D01*
X0248250Y0145448D02*
X0248250Y0135651D01*
X0247698Y0135099D01*
X0248250Y0145448D02*
X0248250Y0165448D01*
X0287250Y0155448D02*
X0303490Y0171688D01*
X0321972Y0171688D01*
X0318972Y0171688D02*
X0324972Y0171688D01*
X0324972Y0161688D02*
X0318972Y0161688D01*
X0251198Y0145300D02*
X0248250Y0145448D01*
X0210624Y0120929D02*
X0206839Y0124714D01*
X0210598Y0107099D02*
X0210598Y0093396D01*
X0210624Y0093370D01*
X0166498Y0090299D02*
X0166498Y0084299D01*
X0156498Y0084299D02*
X0156498Y0090299D01*
X0146298Y0090499D02*
X0146298Y0084499D01*
X0136298Y0084499D02*
X0136298Y0090499D01*
X0189398Y0169399D02*
X0204037Y0169399D01*
D24*
X0128698Y0091633D03*
X0121698Y0091633D03*
X0121698Y0083365D03*
X0128698Y0083365D03*
D25*
X0204037Y0169399D03*
X0221360Y0169399D03*
D26*
X0117998Y0161399D03*
X0094398Y0161399D03*
X0106198Y0141699D03*
D27*
X0135461Y0169399D03*
X0189398Y0169399D03*
D28*
X0111941Y0109898D03*
X0111941Y0106749D03*
X0111941Y0103599D03*
X0111941Y0100450D03*
X0111941Y0097300D03*
D29*
X0111941Y0085883D03*
X0090287Y0085883D03*
X0090287Y0121316D03*
X0111941Y0121316D03*
D30*
X0105620Y0121755D02*
X0096609Y0121755D01*
X0096609Y0123153D02*
X0105620Y0123153D01*
X0105620Y0124552D02*
X0096609Y0124552D01*
X0096609Y0125833D02*
X0095788Y0126653D01*
X0084786Y0126653D01*
X0083966Y0125833D01*
X0083966Y0116799D01*
X0084786Y0115979D01*
X0095788Y0115979D01*
X0096609Y0116799D01*
X0096609Y0125833D01*
X0096491Y0125950D02*
X0105737Y0125950D01*
X0105620Y0125833D02*
X0105620Y0117807D01*
X0103386Y0118732D01*
X0100811Y0118732D01*
X0098432Y0117747D01*
X0096612Y0115927D01*
X0095627Y0113548D01*
X0095627Y0110973D01*
X0096612Y0108595D01*
X0098432Y0106774D01*
X0100811Y0105789D01*
X0103386Y0105789D01*
X0105620Y0106714D01*
X0105620Y0105185D01*
X0105630Y0105174D01*
X0105620Y0105163D01*
X0105620Y0102035D01*
X0105630Y0102024D01*
X0105620Y0102014D01*
X0105620Y0100484D01*
X0103386Y0101409D01*
X0100811Y0101409D01*
X0098432Y0100424D01*
X0096612Y0098604D01*
X0095627Y0096225D01*
X0095627Y0093650D01*
X0096612Y0091272D01*
X0098432Y0089451D01*
X0100811Y0088466D01*
X0103386Y0088466D01*
X0105620Y0089391D01*
X0105620Y0084499D01*
X0096609Y0084499D01*
X0096609Y0090400D01*
X0095788Y0091220D01*
X0084786Y0091220D01*
X0083966Y0090400D01*
X0083966Y0084499D01*
X0083698Y0084499D01*
X0083698Y0155099D01*
X0084563Y0155099D01*
X0084772Y0155186D01*
X0089759Y0150199D01*
X0093698Y0150199D01*
X0093698Y0155099D01*
X0095098Y0155099D01*
X0095098Y0150199D01*
X0098859Y0150199D01*
X0094998Y0146338D01*
X0094998Y0142399D01*
X0105498Y0142399D01*
X0105498Y0140999D01*
X0094998Y0140999D01*
X0094998Y0137060D01*
X0101559Y0130499D01*
X0105498Y0130499D01*
X0105498Y0140999D01*
X0106898Y0140999D01*
X0106898Y0130499D01*
X0110837Y0130499D01*
X0117398Y0137060D01*
X0117398Y0140999D01*
X0106898Y0140999D01*
X0106898Y0142399D01*
X0105498Y0142399D01*
X0105498Y0152899D01*
X0101737Y0152899D01*
X0105598Y0156760D01*
X0105598Y0160699D01*
X0101460Y0160699D01*
X0101460Y0162099D01*
X0105598Y0162099D01*
X0105598Y0166038D01*
X0099037Y0172599D01*
X0095098Y0172599D01*
X0095098Y0169370D01*
X0094397Y0169370D01*
X0094324Y0169339D01*
X0094251Y0169370D01*
X0093698Y0169370D01*
X0093698Y0172599D01*
X0089759Y0172599D01*
X0086618Y0169458D01*
X0086551Y0169525D01*
X0086401Y0169676D01*
X0086401Y0169676D01*
X0085352Y0170724D01*
X0085333Y0170743D01*
X0084450Y0171109D01*
X0083698Y0171421D01*
X0083698Y0173476D01*
X0129927Y0173476D01*
X0129927Y0164685D01*
X0130748Y0163865D01*
X0140175Y0163865D01*
X0140995Y0164685D01*
X0140995Y0173476D01*
X0183864Y0173476D01*
X0183864Y0164685D01*
X0184151Y0164399D01*
X0156722Y0164399D01*
X0155472Y0163882D01*
X0154516Y0162925D01*
X0144972Y0153382D01*
X0144016Y0152425D01*
X0143498Y0151176D01*
X0143498Y0133775D01*
X0143136Y0133413D01*
X0142461Y0131782D01*
X0142461Y0131270D01*
X0133416Y0122225D01*
X0132898Y0120976D01*
X0132898Y0119623D01*
X0132898Y0116450D01*
X0132634Y0116559D01*
X0125090Y0116559D01*
X0124953Y0116696D01*
X0124995Y0116720D01*
X0125311Y0117036D01*
X0125535Y0117424D01*
X0125651Y0117856D01*
X0125651Y0120060D01*
X0121578Y0120060D01*
X0121578Y0121219D01*
X0125651Y0121219D01*
X0125651Y0123422D01*
X0125535Y0123855D01*
X0125311Y0124242D01*
X0124995Y0124559D01*
X0124607Y0124783D01*
X0124175Y0124898D01*
X0121578Y0124898D01*
X0121578Y0121219D01*
X0120419Y0121219D01*
X0120419Y0124898D01*
X0118262Y0124898D01*
X0118262Y0125833D01*
X0117442Y0126653D01*
X0106440Y0126653D01*
X0105620Y0125833D01*
X0105498Y0131544D02*
X0106898Y0131544D01*
X0106898Y0132943D02*
X0105498Y0132943D01*
X0105498Y0134341D02*
X0106898Y0134341D01*
X0106898Y0135740D02*
X0105498Y0135740D01*
X0105498Y0137138D02*
X0106898Y0137138D01*
X0106898Y0138537D02*
X0105498Y0138537D01*
X0105498Y0139935D02*
X0106898Y0139935D01*
X0106898Y0141334D02*
X0143498Y0141334D01*
X0143498Y0142732D02*
X0117398Y0142732D01*
X0117398Y0142399D02*
X0117398Y0146338D01*
X0110837Y0152899D01*
X0106898Y0152899D01*
X0106898Y0142399D01*
X0117398Y0142399D01*
X0117398Y0144131D02*
X0143498Y0144131D01*
X0143498Y0145529D02*
X0117398Y0145529D01*
X0116809Y0146928D02*
X0143498Y0146928D01*
X0143498Y0148326D02*
X0115410Y0148326D01*
X0114012Y0149725D02*
X0143498Y0149725D01*
X0143498Y0151123D02*
X0123137Y0151123D01*
X0122513Y0150499D02*
X0128898Y0156884D01*
X0128898Y0165914D01*
X0122513Y0172299D01*
X0113483Y0172299D01*
X0107098Y0165914D01*
X0107098Y0156884D01*
X0113483Y0150499D01*
X0122513Y0150499D01*
X0124536Y0152522D02*
X0144113Y0152522D01*
X0145511Y0153920D02*
X0125934Y0153920D01*
X0127333Y0155319D02*
X0146910Y0155319D01*
X0148308Y0156717D02*
X0128731Y0156717D01*
X0128898Y0158116D02*
X0149707Y0158116D01*
X0151105Y0159514D02*
X0128898Y0159514D01*
X0128898Y0160913D02*
X0152504Y0160913D01*
X0153902Y0162311D02*
X0128898Y0162311D01*
X0128898Y0163710D02*
X0155301Y0163710D01*
X0140995Y0165108D02*
X0183864Y0165108D01*
X0183864Y0166507D02*
X0140995Y0166507D01*
X0140995Y0167905D02*
X0183864Y0167905D01*
X0183864Y0169304D02*
X0140995Y0169304D01*
X0140995Y0170702D02*
X0183864Y0170702D01*
X0183864Y0172101D02*
X0140995Y0172101D01*
X0129927Y0172101D02*
X0122711Y0172101D01*
X0124110Y0170702D02*
X0129927Y0170702D01*
X0129927Y0169304D02*
X0125508Y0169304D01*
X0126907Y0167905D02*
X0129927Y0167905D01*
X0129927Y0166507D02*
X0128305Y0166507D01*
X0128898Y0165108D02*
X0129927Y0165108D01*
X0113285Y0172101D02*
X0099536Y0172101D01*
X0100934Y0170702D02*
X0111887Y0170702D01*
X0110488Y0169304D02*
X0102333Y0169304D01*
X0103731Y0167905D02*
X0109090Y0167905D01*
X0107691Y0166507D02*
X0105130Y0166507D01*
X0105598Y0165108D02*
X0107098Y0165108D01*
X0107098Y0163710D02*
X0105598Y0163710D01*
X0105598Y0162311D02*
X0107098Y0162311D01*
X0107098Y0160913D02*
X0101460Y0160913D01*
X0105598Y0159514D02*
X0107098Y0159514D01*
X0107098Y0158116D02*
X0105598Y0158116D01*
X0105556Y0156717D02*
X0107265Y0156717D01*
X0108664Y0155319D02*
X0104157Y0155319D01*
X0102759Y0153920D02*
X0110062Y0153920D01*
X0111215Y0152522D02*
X0111461Y0152522D01*
X0112613Y0151123D02*
X0112859Y0151123D01*
X0106898Y0151123D02*
X0105498Y0151123D01*
X0105498Y0149725D02*
X0106898Y0149725D01*
X0106898Y0148326D02*
X0105498Y0148326D01*
X0105498Y0146928D02*
X0106898Y0146928D01*
X0106898Y0145529D02*
X0105498Y0145529D01*
X0105498Y0144131D02*
X0106898Y0144131D01*
X0106898Y0142732D02*
X0105498Y0142732D01*
X0105498Y0141334D02*
X0083698Y0141334D01*
X0083698Y0142732D02*
X0094998Y0142732D01*
X0094998Y0144131D02*
X0083698Y0144131D01*
X0083698Y0145529D02*
X0094998Y0145529D01*
X0095588Y0146928D02*
X0083698Y0146928D01*
X0083698Y0148326D02*
X0096986Y0148326D01*
X0098385Y0149725D02*
X0083698Y0149725D01*
X0083698Y0151123D02*
X0088835Y0151123D01*
X0087437Y0152522D02*
X0083698Y0152522D01*
X0083698Y0153920D02*
X0086038Y0153920D01*
X0093698Y0153920D02*
X0095098Y0153920D01*
X0095098Y0152522D02*
X0093698Y0152522D01*
X0093698Y0151123D02*
X0095098Y0151123D01*
X0105498Y0152522D02*
X0106898Y0152522D01*
X0117398Y0139935D02*
X0143498Y0139935D01*
X0143498Y0138537D02*
X0117398Y0138537D01*
X0117398Y0137138D02*
X0143498Y0137138D01*
X0143498Y0135740D02*
X0116078Y0135740D01*
X0114679Y0134341D02*
X0143498Y0134341D01*
X0142942Y0132943D02*
X0113281Y0132943D01*
X0111882Y0131544D02*
X0142461Y0131544D01*
X0141336Y0130146D02*
X0083698Y0130146D01*
X0083698Y0131544D02*
X0100514Y0131544D01*
X0099116Y0132943D02*
X0083698Y0132943D01*
X0083698Y0134341D02*
X0097717Y0134341D01*
X0096319Y0135740D02*
X0083698Y0135740D01*
X0083698Y0137138D02*
X0094998Y0137138D01*
X0094998Y0138537D02*
X0083698Y0138537D01*
X0083698Y0139935D02*
X0094998Y0139935D01*
X0083698Y0128747D02*
X0139938Y0128747D01*
X0138539Y0127349D02*
X0083698Y0127349D01*
X0083698Y0125950D02*
X0084083Y0125950D01*
X0083966Y0124552D02*
X0083698Y0124552D01*
X0083698Y0123153D02*
X0083966Y0123153D01*
X0083966Y0121755D02*
X0083698Y0121755D01*
X0083698Y0120356D02*
X0083966Y0120356D01*
X0083966Y0118958D02*
X0083698Y0118958D01*
X0083698Y0117559D02*
X0083966Y0117559D01*
X0083698Y0116161D02*
X0084604Y0116161D01*
X0083698Y0114762D02*
X0096130Y0114762D01*
X0095970Y0116161D02*
X0096846Y0116161D01*
X0096609Y0117559D02*
X0098244Y0117559D01*
X0096609Y0118958D02*
X0105620Y0118958D01*
X0105620Y0120356D02*
X0096609Y0120356D01*
X0095627Y0113363D02*
X0083698Y0113363D01*
X0083698Y0111965D02*
X0095627Y0111965D01*
X0095795Y0110566D02*
X0083698Y0110566D01*
X0083698Y0109168D02*
X0096374Y0109168D01*
X0097437Y0107769D02*
X0083698Y0107769D01*
X0083698Y0106371D02*
X0099406Y0106371D01*
X0104791Y0106371D02*
X0105620Y0106371D01*
X0105620Y0104972D02*
X0083698Y0104972D01*
X0083698Y0103574D02*
X0105620Y0103574D01*
X0105620Y0102175D02*
X0083698Y0102175D01*
X0083698Y0100777D02*
X0099284Y0100777D01*
X0097387Y0099378D02*
X0083698Y0099378D01*
X0083698Y0097980D02*
X0096353Y0097980D01*
X0095774Y0096581D02*
X0083698Y0096581D01*
X0083698Y0095183D02*
X0095627Y0095183D01*
X0095627Y0093784D02*
X0083698Y0093784D01*
X0083698Y0092386D02*
X0096150Y0092386D01*
X0096021Y0090987D02*
X0096896Y0090987D01*
X0096609Y0089589D02*
X0098295Y0089589D01*
X0096609Y0088190D02*
X0105620Y0088190D01*
X0105620Y0086792D02*
X0096609Y0086792D01*
X0096609Y0085393D02*
X0105620Y0085393D01*
X0107532Y0091220D02*
X0107585Y0091272D01*
X0108570Y0093650D01*
X0108570Y0094616D01*
X0111941Y0094616D01*
X0117086Y0094616D01*
X0117518Y0094732D01*
X0117906Y0094955D01*
X0118222Y0095272D01*
X0118446Y0095660D01*
X0118507Y0095887D01*
X0118798Y0095596D01*
X0118798Y0095395D01*
X0118756Y0095395D01*
X0117936Y0094575D01*
X0117936Y0090726D01*
X0117442Y0091220D01*
X0107532Y0091220D01*
X0108046Y0092386D02*
X0117936Y0092386D01*
X0117936Y0093784D02*
X0108570Y0093784D01*
X0111941Y0094616D02*
X0111941Y0097300D01*
X0111941Y0094616D01*
X0111941Y0095183D02*
X0111941Y0095183D01*
X0111941Y0096581D02*
X0111941Y0096581D01*
X0111941Y0097300D02*
X0111941Y0097300D01*
X0118133Y0095183D02*
X0118544Y0095183D01*
X0117936Y0090987D02*
X0117674Y0090987D01*
X0139698Y0093322D02*
X0139698Y0118891D01*
X0147269Y0126462D01*
X0147781Y0126462D01*
X0149412Y0127137D01*
X0150660Y0128386D01*
X0151336Y0130017D01*
X0151336Y0131782D01*
X0150660Y0133413D01*
X0150298Y0133775D01*
X0150298Y0149091D01*
X0158807Y0157599D01*
X0193085Y0157599D01*
X0192908Y0157422D01*
X0192908Y0136577D01*
X0193728Y0135757D01*
X0195813Y0135757D01*
X0195813Y0130465D01*
X0196373Y0129114D01*
X0186141Y0129114D01*
X0186141Y0131200D01*
X0185321Y0132020D01*
X0164476Y0132020D01*
X0163656Y0131200D01*
X0163656Y0118229D01*
X0164476Y0117409D01*
X0170498Y0117409D01*
X0170498Y0101222D01*
X0164006Y0094729D01*
X0162768Y0093492D01*
X0162098Y0091874D01*
X0162098Y0084499D01*
X0160898Y0084499D01*
X0160898Y0091174D01*
X0160228Y0092792D01*
X0158991Y0094029D01*
X0157373Y0094699D01*
X0155623Y0094699D01*
X0154006Y0094029D01*
X0152768Y0092792D01*
X0152098Y0091174D01*
X0152098Y0084499D01*
X0150998Y0084499D01*
X0150998Y0087199D01*
X0146598Y0087199D01*
X0146598Y0087799D01*
X0145998Y0087799D01*
X0145998Y0087199D01*
X0141598Y0087199D01*
X0141598Y0084499D01*
X0140698Y0084499D01*
X0140698Y0091374D01*
X0140028Y0092992D01*
X0139698Y0093322D01*
X0139698Y0093784D02*
X0142937Y0093784D01*
X0142713Y0093561D02*
X0142278Y0092963D01*
X0141943Y0092303D01*
X0141714Y0091600D01*
X0141598Y0090869D01*
X0141598Y0087799D01*
X0145998Y0087799D01*
X0145998Y0095199D01*
X0145928Y0095199D01*
X0145198Y0095083D01*
X0144494Y0094855D01*
X0143835Y0094519D01*
X0143236Y0094084D01*
X0142713Y0093561D01*
X0141985Y0092386D02*
X0140279Y0092386D01*
X0140698Y0090987D02*
X0141617Y0090987D01*
X0141598Y0089589D02*
X0140698Y0089589D01*
X0140698Y0088190D02*
X0141598Y0088190D01*
X0141598Y0086792D02*
X0140698Y0086792D01*
X0140698Y0085393D02*
X0141598Y0085393D01*
X0145998Y0088190D02*
X0146598Y0088190D01*
X0146598Y0087799D02*
X0146598Y0095199D01*
X0146668Y0095199D01*
X0147399Y0095083D01*
X0148102Y0094855D01*
X0148762Y0094519D01*
X0149360Y0094084D01*
X0149883Y0093561D01*
X0150318Y0092963D01*
X0150654Y0092303D01*
X0150883Y0091600D01*
X0150998Y0090869D01*
X0150998Y0087799D01*
X0146598Y0087799D01*
X0146598Y0089589D02*
X0145998Y0089589D01*
X0145998Y0090987D02*
X0146598Y0090987D01*
X0146598Y0092386D02*
X0145998Y0092386D01*
X0145998Y0093784D02*
X0146598Y0093784D01*
X0146598Y0095183D02*
X0145998Y0095183D01*
X0145825Y0095183D02*
X0139698Y0095183D01*
X0139698Y0096581D02*
X0165858Y0096581D01*
X0164459Y0095183D02*
X0146772Y0095183D01*
X0149660Y0093784D02*
X0153761Y0093784D01*
X0152600Y0092386D02*
X0150612Y0092386D01*
X0150980Y0090987D02*
X0152098Y0090987D01*
X0152098Y0089589D02*
X0150998Y0089589D01*
X0150998Y0088190D02*
X0152098Y0088190D01*
X0152098Y0086792D02*
X0150998Y0086792D01*
X0150998Y0085393D02*
X0152098Y0085393D01*
X0160898Y0085393D02*
X0162098Y0085393D01*
X0162098Y0086792D02*
X0160898Y0086792D01*
X0160898Y0088190D02*
X0162098Y0088190D01*
X0162098Y0089589D02*
X0160898Y0089589D01*
X0160898Y0090987D02*
X0162098Y0090987D01*
X0162310Y0092386D02*
X0160397Y0092386D01*
X0159236Y0093784D02*
X0163061Y0093784D01*
X0167256Y0097980D02*
X0139698Y0097980D01*
X0139698Y0099378D02*
X0168655Y0099378D01*
X0170053Y0100777D02*
X0139698Y0100777D01*
X0139698Y0102175D02*
X0170498Y0102175D01*
X0170498Y0103574D02*
X0139698Y0103574D01*
X0139698Y0104972D02*
X0170498Y0104972D01*
X0170498Y0106371D02*
X0139698Y0106371D01*
X0139698Y0107769D02*
X0170498Y0107769D01*
X0170498Y0109168D02*
X0139698Y0109168D01*
X0139698Y0110566D02*
X0170498Y0110566D01*
X0170498Y0111965D02*
X0139698Y0111965D01*
X0139698Y0113363D02*
X0170498Y0113363D01*
X0170498Y0114762D02*
X0139698Y0114762D01*
X0139698Y0116161D02*
X0170498Y0116161D01*
X0164326Y0117559D02*
X0139698Y0117559D01*
X0139765Y0118958D02*
X0163656Y0118958D01*
X0163656Y0120356D02*
X0141163Y0120356D01*
X0142562Y0121755D02*
X0163656Y0121755D01*
X0163656Y0123153D02*
X0143960Y0123153D01*
X0145359Y0124552D02*
X0163656Y0124552D01*
X0163656Y0125950D02*
X0146757Y0125950D01*
X0149623Y0127349D02*
X0163656Y0127349D01*
X0163656Y0128747D02*
X0150810Y0128747D01*
X0151336Y0130146D02*
X0163656Y0130146D01*
X0164000Y0131544D02*
X0151336Y0131544D01*
X0150855Y0132943D02*
X0195813Y0132943D01*
X0195813Y0134341D02*
X0150298Y0134341D01*
X0150298Y0135740D02*
X0195813Y0135740D01*
X0192908Y0137138D02*
X0150298Y0137138D01*
X0150298Y0138537D02*
X0192908Y0138537D01*
X0192908Y0139935D02*
X0150298Y0139935D01*
X0150298Y0141334D02*
X0192908Y0141334D01*
X0192908Y0142732D02*
X0186072Y0142732D01*
X0186101Y0142761D02*
X0186325Y0143149D01*
X0186441Y0143581D01*
X0186441Y0149010D01*
X0175598Y0149010D01*
X0175598Y0142105D01*
X0184965Y0142105D01*
X0185397Y0142221D01*
X0185785Y0142444D01*
X0186101Y0142761D01*
X0186441Y0144131D02*
X0192908Y0144131D01*
X0192908Y0145529D02*
X0186441Y0145529D01*
X0186441Y0146928D02*
X0192908Y0146928D01*
X0192908Y0148326D02*
X0186441Y0148326D01*
X0186441Y0150410D02*
X0175598Y0150410D01*
X0174198Y0150410D01*
X0174198Y0149010D01*
X0163356Y0149010D01*
X0163356Y0143581D01*
X0163472Y0143149D01*
X0163695Y0142761D01*
X0164012Y0142444D01*
X0164400Y0142221D01*
X0164832Y0142105D01*
X0174198Y0142105D01*
X0174198Y0149010D01*
X0175598Y0149010D01*
X0175598Y0150410D01*
X0175598Y0157316D01*
X0184965Y0157316D01*
X0185397Y0157200D01*
X0185785Y0156976D01*
X0186101Y0156660D01*
X0186325Y0156272D01*
X0186441Y0155840D01*
X0186441Y0150410D01*
X0186441Y0151123D02*
X0192908Y0151123D01*
X0192908Y0149725D02*
X0175598Y0149725D01*
X0175598Y0151123D02*
X0174198Y0151123D01*
X0174198Y0150410D02*
X0174198Y0157316D01*
X0164832Y0157316D01*
X0164400Y0157200D01*
X0164012Y0156976D01*
X0163695Y0156660D01*
X0163472Y0156272D01*
X0163356Y0155840D01*
X0163356Y0150410D01*
X0174198Y0150410D01*
X0174198Y0149725D02*
X0150932Y0149725D01*
X0150298Y0148326D02*
X0163356Y0148326D01*
X0163356Y0146928D02*
X0150298Y0146928D01*
X0150298Y0145529D02*
X0163356Y0145529D01*
X0163356Y0144131D02*
X0150298Y0144131D01*
X0150298Y0142732D02*
X0163724Y0142732D01*
X0174198Y0142732D02*
X0175598Y0142732D01*
X0175598Y0144131D02*
X0174198Y0144131D01*
X0174198Y0145529D02*
X0175598Y0145529D01*
X0175598Y0146928D02*
X0174198Y0146928D01*
X0174198Y0148326D02*
X0175598Y0148326D01*
X0175598Y0152522D02*
X0174198Y0152522D01*
X0174198Y0153920D02*
X0175598Y0153920D01*
X0175598Y0155319D02*
X0174198Y0155319D01*
X0174198Y0156717D02*
X0175598Y0156717D01*
X0186043Y0156717D02*
X0192908Y0156717D01*
X0192908Y0155319D02*
X0186441Y0155319D01*
X0186441Y0153920D02*
X0192908Y0153920D01*
X0192908Y0152522D02*
X0186441Y0152522D01*
X0163753Y0156717D02*
X0157925Y0156717D01*
X0156526Y0155319D02*
X0163356Y0155319D01*
X0163356Y0153920D02*
X0155128Y0153920D01*
X0153729Y0152522D02*
X0163356Y0152522D01*
X0163356Y0151123D02*
X0152331Y0151123D01*
X0204613Y0135757D02*
X0204613Y0133163D01*
X0209148Y0128628D01*
X0222228Y0128628D01*
X0223048Y0127808D01*
X0223048Y0114119D01*
X0223728Y0114799D01*
X0225148Y0116219D01*
X0225148Y0116786D01*
X0225597Y0117870D01*
X0226427Y0118700D01*
X0227511Y0119149D01*
X0228685Y0119149D01*
X0229769Y0118700D01*
X0230599Y0117870D01*
X0231048Y0116786D01*
X0231048Y0115612D01*
X0230599Y0114528D01*
X0229769Y0113698D01*
X0228685Y0113249D01*
X0228118Y0113249D01*
X0226698Y0111829D01*
X0226698Y0109525D01*
X0226986Y0109812D01*
X0228162Y0110299D01*
X0229435Y0110299D01*
X0230611Y0109812D01*
X0231024Y0109399D01*
X0241399Y0109399D01*
X0241399Y0114132D01*
X0242066Y0114799D01*
X0241399Y0115467D01*
X0241399Y0122532D01*
X0242219Y0123352D01*
X0242942Y0123352D01*
X0243112Y0123760D01*
X0245452Y0126100D01*
X0246197Y0126846D01*
X0247171Y0127249D01*
X0249401Y0127249D01*
X0251752Y0129600D01*
X0252497Y0130346D01*
X0253471Y0130749D01*
X0269828Y0130749D01*
X0270187Y0131109D01*
X0271492Y0131649D01*
X0272904Y0131649D01*
X0274209Y0131109D01*
X0274866Y0130452D01*
X0275046Y0130632D01*
X0277631Y0130632D01*
X0277631Y0133048D01*
X0270170Y0133048D01*
X0269350Y0133868D01*
X0269350Y0173476D01*
X0227484Y0173476D01*
X0227484Y0164095D01*
X0226664Y0163275D01*
X0224760Y0163275D01*
X0224760Y0162684D01*
X0224242Y0161435D01*
X0223286Y0160478D01*
X0221349Y0158542D01*
X0224509Y0158542D01*
X0224509Y0147699D01*
X0224509Y0146299D01*
X0217604Y0146299D01*
X0217604Y0136933D01*
X0217720Y0136501D01*
X0217943Y0136113D01*
X0218260Y0135796D01*
X0218648Y0135573D01*
X0219080Y0135457D01*
X0224509Y0135457D01*
X0224509Y0146299D01*
X0225909Y0146299D01*
X0225909Y0135457D01*
X0231339Y0135457D01*
X0231771Y0135573D01*
X0232159Y0135796D01*
X0232475Y0136113D01*
X0232699Y0136501D01*
X0232815Y0136933D01*
X0232815Y0146299D01*
X0225909Y0146299D01*
X0225909Y0147699D01*
X0224509Y0147699D01*
X0217604Y0147699D01*
X0217604Y0157066D01*
X0217720Y0157498D01*
X0217778Y0157599D01*
X0207341Y0157599D01*
X0207519Y0157422D01*
X0207519Y0136577D01*
X0206699Y0135757D01*
X0204613Y0135757D01*
X0204613Y0135740D02*
X0218358Y0135740D01*
X0217604Y0137138D02*
X0207519Y0137138D01*
X0207519Y0138537D02*
X0217604Y0138537D01*
X0217604Y0139935D02*
X0207519Y0139935D01*
X0207519Y0141334D02*
X0217604Y0141334D01*
X0217604Y0142732D02*
X0207519Y0142732D01*
X0207519Y0144131D02*
X0217604Y0144131D01*
X0217604Y0145529D02*
X0207519Y0145529D01*
X0207519Y0146928D02*
X0224509Y0146928D01*
X0224509Y0148326D02*
X0225909Y0148326D01*
X0225909Y0147699D02*
X0225909Y0158542D01*
X0231339Y0158542D01*
X0231771Y0158426D01*
X0232159Y0158202D01*
X0232475Y0157886D01*
X0232699Y0157498D01*
X0232815Y0157066D01*
X0232815Y0147699D01*
X0225909Y0147699D01*
X0225909Y0146928D02*
X0239350Y0146928D01*
X0239350Y0148326D02*
X0232815Y0148326D01*
X0232815Y0149725D02*
X0239350Y0149725D01*
X0239350Y0150028D02*
X0239350Y0140868D01*
X0240170Y0140048D01*
X0243850Y0140048D01*
X0243850Y0139701D01*
X0242633Y0138484D01*
X0241723Y0136288D01*
X0241723Y0133911D01*
X0242633Y0131715D01*
X0244314Y0130034D01*
X0246510Y0129124D01*
X0248887Y0129124D01*
X0251083Y0130034D01*
X0252764Y0131715D01*
X0253673Y0133911D01*
X0253673Y0136288D01*
X0252764Y0138484D01*
X0252650Y0138597D01*
X0252650Y0140048D01*
X0256330Y0140048D01*
X0257150Y0140868D01*
X0257150Y0150028D01*
X0256330Y0150848D01*
X0252650Y0150848D01*
X0252650Y0160048D01*
X0256330Y0160048D01*
X0257150Y0160868D01*
X0257150Y0170028D01*
X0256330Y0170848D01*
X0240170Y0170848D01*
X0239350Y0170028D01*
X0239350Y0160868D01*
X0240170Y0160048D01*
X0243850Y0160048D01*
X0243850Y0150848D01*
X0240170Y0150848D01*
X0239350Y0150028D01*
X0243850Y0151123D02*
X0232815Y0151123D01*
X0232815Y0152522D02*
X0243850Y0152522D01*
X0243850Y0153920D02*
X0232815Y0153920D01*
X0232815Y0155319D02*
X0243850Y0155319D01*
X0243850Y0156717D02*
X0232815Y0156717D01*
X0232245Y0158116D02*
X0243850Y0158116D01*
X0243850Y0159514D02*
X0222322Y0159514D01*
X0223720Y0160913D02*
X0239350Y0160913D01*
X0239350Y0162311D02*
X0224605Y0162311D01*
X0227099Y0163710D02*
X0239350Y0163710D01*
X0239350Y0165108D02*
X0227484Y0165108D01*
X0227484Y0166507D02*
X0239350Y0166507D01*
X0239350Y0167905D02*
X0227484Y0167905D01*
X0227484Y0169304D02*
X0239350Y0169304D01*
X0240025Y0170702D02*
X0227484Y0170702D01*
X0227484Y0172101D02*
X0269350Y0172101D01*
X0269350Y0170702D02*
X0256476Y0170702D01*
X0257150Y0169304D02*
X0269350Y0169304D01*
X0269350Y0167905D02*
X0257150Y0167905D01*
X0257150Y0166507D02*
X0269350Y0166507D01*
X0269350Y0165108D02*
X0257150Y0165108D01*
X0257150Y0163710D02*
X0269350Y0163710D01*
X0269350Y0162311D02*
X0257150Y0162311D01*
X0257150Y0160913D02*
X0269350Y0160913D01*
X0269350Y0159514D02*
X0252650Y0159514D01*
X0252650Y0158116D02*
X0269350Y0158116D01*
X0269350Y0156717D02*
X0252650Y0156717D01*
X0252650Y0155319D02*
X0269350Y0155319D01*
X0269350Y0153920D02*
X0252650Y0153920D01*
X0252650Y0152522D02*
X0269350Y0152522D01*
X0269350Y0151123D02*
X0252650Y0151123D01*
X0257150Y0149725D02*
X0269350Y0149725D01*
X0269350Y0148326D02*
X0257150Y0148326D01*
X0257150Y0146928D02*
X0269350Y0146928D01*
X0269350Y0145529D02*
X0257150Y0145529D01*
X0257150Y0144131D02*
X0269350Y0144131D01*
X0269350Y0142732D02*
X0257150Y0142732D01*
X0257150Y0141334D02*
X0269350Y0141334D01*
X0269350Y0139935D02*
X0252650Y0139935D01*
X0252711Y0138537D02*
X0269350Y0138537D01*
X0269350Y0137138D02*
X0253321Y0137138D01*
X0253673Y0135740D02*
X0269350Y0135740D01*
X0269350Y0134341D02*
X0253673Y0134341D01*
X0253272Y0132943D02*
X0277631Y0132943D01*
X0277631Y0131544D02*
X0273158Y0131544D01*
X0271238Y0131544D02*
X0252593Y0131544D01*
X0252297Y0130146D02*
X0251195Y0130146D01*
X0250899Y0128747D02*
X0209029Y0128747D01*
X0207630Y0130146D02*
X0244202Y0130146D01*
X0242803Y0131544D02*
X0206232Y0131544D01*
X0204833Y0132943D02*
X0242124Y0132943D01*
X0241723Y0134341D02*
X0204613Y0134341D01*
X0195813Y0131544D02*
X0185796Y0131544D01*
X0186141Y0130146D02*
X0195946Y0130146D01*
X0198201Y0120314D02*
X0186141Y0120314D01*
X0186141Y0118229D01*
X0185321Y0117409D01*
X0179298Y0117409D01*
X0179298Y0098524D01*
X0178628Y0096907D01*
X0170898Y0089177D01*
X0170898Y0084499D01*
X0172598Y0084499D01*
X0172598Y0087922D01*
X0175176Y0090499D01*
X0178821Y0090499D01*
X0181398Y0087922D01*
X0181398Y0084499D01*
X0183098Y0084499D01*
X0183098Y0087922D01*
X0185676Y0090499D01*
X0189321Y0090499D01*
X0191898Y0087922D01*
X0191898Y0084499D01*
X0258046Y0084499D01*
X0258046Y0090398D01*
X0258647Y0090999D01*
X0258046Y0091600D01*
X0258046Y0097878D01*
X0258516Y0098349D01*
X0258046Y0098820D01*
X0258046Y0105098D01*
X0258443Y0105496D01*
X0258402Y0105520D01*
X0258085Y0105836D01*
X0257861Y0106224D01*
X0257746Y0106656D01*
X0257746Y0108860D01*
X0261819Y0108860D01*
X0261819Y0110019D01*
X0261819Y0113698D01*
X0259222Y0113698D01*
X0258789Y0113583D01*
X0258402Y0113359D01*
X0258085Y0113042D01*
X0257861Y0112655D01*
X0257746Y0112222D01*
X0257746Y0110019D01*
X0261819Y0110019D01*
X0262978Y0110019D01*
X0267051Y0110019D01*
X0267051Y0112222D01*
X0266935Y0112655D01*
X0266711Y0113042D01*
X0266395Y0113359D01*
X0266007Y0113583D01*
X0265575Y0113698D01*
X0262978Y0113698D01*
X0262978Y0110019D01*
X0262978Y0108860D01*
X0267051Y0108860D01*
X0267051Y0106656D01*
X0266935Y0106224D01*
X0266711Y0105836D01*
X0266395Y0105520D01*
X0266353Y0105496D01*
X0266751Y0105098D01*
X0266751Y0104609D01*
X0268994Y0104609D01*
X0269530Y0105145D01*
X0270807Y0105674D01*
X0272190Y0105674D01*
X0273467Y0105145D01*
X0274444Y0104168D01*
X0274458Y0104135D01*
X0274849Y0104527D01*
X0277435Y0104527D01*
X0277435Y0108147D01*
X0275046Y0108147D01*
X0274226Y0108967D01*
X0274226Y0115099D01*
X0256430Y0115099D01*
X0256316Y0114985D01*
X0256441Y0114912D01*
X0256758Y0114596D01*
X0256982Y0114208D01*
X0257097Y0113776D01*
X0257097Y0111179D01*
X0253418Y0111179D01*
X0253418Y0110020D01*
X0257097Y0110020D01*
X0257097Y0107423D01*
X0256982Y0106990D01*
X0256758Y0106603D01*
X0256441Y0106286D01*
X0256209Y0106152D01*
X0256321Y0106152D01*
X0256754Y0106036D01*
X0257141Y0105812D01*
X0257458Y0105496D01*
X0257682Y0105108D01*
X0257797Y0104676D01*
X0257797Y0102079D01*
X0254118Y0102079D01*
X0252959Y0102079D01*
X0252959Y0106152D01*
X0252259Y0106152D01*
X0252259Y0110020D01*
X0253418Y0110020D01*
X0253418Y0105946D01*
X0254118Y0105946D01*
X0254118Y0102079D01*
X0254118Y0100920D01*
X0257797Y0100920D01*
X0257797Y0098323D01*
X0257682Y0097890D01*
X0257458Y0097503D01*
X0257254Y0097299D01*
X0257458Y0097096D01*
X0257682Y0096708D01*
X0257797Y0096276D01*
X0257797Y0093679D01*
X0254118Y0093679D01*
X0252959Y0093679D01*
X0252959Y0100920D01*
X0254118Y0100920D01*
X0254118Y0096846D01*
X0254118Y0093679D01*
X0254118Y0092520D01*
X0257797Y0092520D01*
X0257797Y0089923D01*
X0257682Y0089490D01*
X0257458Y0089103D01*
X0257141Y0088786D01*
X0256754Y0088562D01*
X0256321Y0088446D01*
X0254118Y0088446D01*
X0254118Y0092520D01*
X0252959Y0092520D01*
X0252959Y0088446D01*
X0250756Y0088446D01*
X0250323Y0088562D01*
X0249936Y0088786D01*
X0249619Y0089103D01*
X0249595Y0089144D01*
X0249197Y0088746D01*
X0242919Y0088746D01*
X0242099Y0089567D01*
X0242099Y0096632D01*
X0242766Y0097299D01*
X0242099Y0097967D01*
X0242099Y0102206D01*
X0239505Y0104799D01*
X0231024Y0104799D01*
X0230611Y0104386D01*
X0229435Y0103899D01*
X0228162Y0103899D01*
X0226986Y0104386D01*
X0226698Y0104674D01*
X0226698Y0100969D01*
X0228668Y0098999D01*
X0230046Y0098999D01*
X0230046Y0099978D01*
X0230866Y0100798D01*
X0237931Y0100798D01*
X0238751Y0099978D01*
X0238751Y0093700D01*
X0238353Y0093303D01*
X0238395Y0093278D01*
X0238711Y0092962D01*
X0238935Y0092574D01*
X0239051Y0092142D01*
X0239051Y0089939D01*
X0234978Y0089939D01*
X0234978Y0088780D01*
X0239051Y0088780D01*
X0239051Y0086576D01*
X0238935Y0086144D01*
X0238711Y0085756D01*
X0238395Y0085440D01*
X0238007Y0085216D01*
X0237575Y0085100D01*
X0234978Y0085100D01*
X0234978Y0088779D01*
X0233819Y0088779D01*
X0233819Y0085100D01*
X0231222Y0085100D01*
X0230789Y0085216D01*
X0230402Y0085440D01*
X0230085Y0085756D01*
X0229861Y0086144D01*
X0229746Y0086576D01*
X0229746Y0088780D01*
X0233819Y0088780D01*
X0233819Y0089939D01*
X0229746Y0089939D01*
X0229746Y0092142D01*
X0229861Y0092574D01*
X0230085Y0092962D01*
X0230402Y0093278D01*
X0230443Y0093303D01*
X0230046Y0093700D01*
X0230046Y0094799D01*
X0226928Y0094799D01*
X0225698Y0096029D01*
X0223048Y0098680D01*
X0223048Y0086491D01*
X0222228Y0085671D01*
X0199021Y0085671D01*
X0198201Y0086491D01*
X0198201Y0100249D01*
X0199021Y0101069D01*
X0206198Y0101069D01*
X0206198Y0103049D01*
X0205533Y0103715D01*
X0204623Y0105911D01*
X0204623Y0108288D01*
X0205533Y0110484D01*
X0207214Y0112165D01*
X0209410Y0113074D01*
X0211787Y0113074D01*
X0213983Y0112165D01*
X0215664Y0110484D01*
X0216573Y0108288D01*
X0216573Y0105911D01*
X0215664Y0103715D01*
X0214998Y0103049D01*
X0214998Y0101069D01*
X0222228Y0101069D01*
X0222498Y0100799D01*
X0222498Y0113500D01*
X0222228Y0113230D01*
X0199021Y0113230D01*
X0198201Y0114050D01*
X0198201Y0120314D01*
X0198201Y0118958D02*
X0186141Y0118958D01*
X0185471Y0117559D02*
X0198201Y0117559D01*
X0198201Y0116161D02*
X0179298Y0116161D01*
X0179298Y0114762D02*
X0198201Y0114762D01*
X0198887Y0113363D02*
X0179298Y0113363D01*
X0179298Y0111965D02*
X0207014Y0111965D01*
X0205616Y0110566D02*
X0179298Y0110566D01*
X0179298Y0109168D02*
X0204988Y0109168D01*
X0204623Y0107769D02*
X0179298Y0107769D01*
X0179298Y0106371D02*
X0204623Y0106371D01*
X0205012Y0104972D02*
X0179298Y0104972D01*
X0179298Y0103574D02*
X0205674Y0103574D01*
X0206198Y0102175D02*
X0179298Y0102175D01*
X0179298Y0100777D02*
X0198728Y0100777D01*
X0198201Y0099378D02*
X0179298Y0099378D01*
X0179073Y0097980D02*
X0198201Y0097980D01*
X0198201Y0096581D02*
X0178303Y0096581D01*
X0176904Y0095183D02*
X0198201Y0095183D01*
X0198201Y0093784D02*
X0175506Y0093784D01*
X0174107Y0092386D02*
X0198201Y0092386D01*
X0198201Y0090987D02*
X0172709Y0090987D01*
X0171310Y0089589D02*
X0174265Y0089589D01*
X0172867Y0088190D02*
X0170898Y0088190D01*
X0170898Y0086792D02*
X0172598Y0086792D01*
X0172598Y0085393D02*
X0170898Y0085393D01*
X0179731Y0089589D02*
X0184765Y0089589D01*
X0183367Y0088190D02*
X0181130Y0088190D01*
X0181398Y0086792D02*
X0183098Y0086792D01*
X0183098Y0085393D02*
X0181398Y0085393D01*
X0191898Y0085393D02*
X0230482Y0085393D01*
X0229746Y0086792D02*
X0223048Y0086792D01*
X0223048Y0088190D02*
X0229746Y0088190D01*
X0233819Y0088190D02*
X0234978Y0088190D01*
X0234978Y0086792D02*
X0233819Y0086792D01*
X0233819Y0085393D02*
X0234978Y0085393D01*
X0238314Y0085393D02*
X0258046Y0085393D01*
X0258046Y0086792D02*
X0239051Y0086792D01*
X0239051Y0088190D02*
X0258046Y0088190D01*
X0258046Y0089589D02*
X0257708Y0089589D01*
X0257797Y0090987D02*
X0258635Y0090987D01*
X0258046Y0092386D02*
X0257797Y0092386D01*
X0257797Y0093784D02*
X0258046Y0093784D01*
X0258046Y0095183D02*
X0257797Y0095183D01*
X0257716Y0096581D02*
X0258046Y0096581D01*
X0258147Y0097980D02*
X0257706Y0097980D01*
X0257797Y0099378D02*
X0258046Y0099378D01*
X0258046Y0100777D02*
X0257797Y0100777D01*
X0257797Y0102175D02*
X0258046Y0102175D01*
X0258046Y0103574D02*
X0257797Y0103574D01*
X0257718Y0104972D02*
X0258046Y0104972D01*
X0257822Y0106371D02*
X0256526Y0106371D01*
X0257097Y0107769D02*
X0257746Y0107769D01*
X0257097Y0109168D02*
X0261819Y0109168D01*
X0262978Y0109168D02*
X0274226Y0109168D01*
X0274226Y0110566D02*
X0267051Y0110566D01*
X0267051Y0111965D02*
X0274226Y0111965D01*
X0274226Y0113363D02*
X0266387Y0113363D01*
X0262978Y0113363D02*
X0261819Y0113363D01*
X0261819Y0111965D02*
X0262978Y0111965D01*
X0262978Y0110566D02*
X0261819Y0110566D01*
X0257746Y0110566D02*
X0253418Y0110566D01*
X0253418Y0109168D02*
X0252259Y0109168D01*
X0252259Y0107769D02*
X0253418Y0107769D01*
X0253418Y0106371D02*
X0252259Y0106371D01*
X0252959Y0104972D02*
X0254118Y0104972D01*
X0254118Y0103574D02*
X0252959Y0103574D01*
X0252959Y0102175D02*
X0254118Y0102175D01*
X0254118Y0100777D02*
X0252959Y0100777D01*
X0252959Y0099378D02*
X0254118Y0099378D01*
X0254118Y0097980D02*
X0252959Y0097980D01*
X0252959Y0096581D02*
X0254118Y0096581D01*
X0254118Y0095183D02*
X0252959Y0095183D01*
X0252959Y0093784D02*
X0254118Y0093784D01*
X0254118Y0092386D02*
X0252959Y0092386D01*
X0252959Y0090987D02*
X0254118Y0090987D01*
X0254118Y0089589D02*
X0252959Y0089589D01*
X0242099Y0089589D02*
X0234978Y0089589D01*
X0233819Y0089589D02*
X0223048Y0089589D01*
X0223048Y0090987D02*
X0229746Y0090987D01*
X0229811Y0092386D02*
X0223048Y0092386D01*
X0223048Y0093784D02*
X0230046Y0093784D01*
X0226545Y0095183D02*
X0223048Y0095183D01*
X0223048Y0096581D02*
X0225146Y0096581D01*
X0223748Y0097980D02*
X0223048Y0097980D01*
X0224598Y0100099D02*
X0227798Y0096899D01*
X0234338Y0096899D01*
X0234398Y0096839D01*
X0238751Y0096581D02*
X0242099Y0096581D01*
X0242099Y0095183D02*
X0238751Y0095183D01*
X0238751Y0093784D02*
X0242099Y0093784D01*
X0242099Y0092386D02*
X0238986Y0092386D01*
X0239051Y0090987D02*
X0242099Y0090987D01*
X0242099Y0097980D02*
X0238751Y0097980D01*
X0238751Y0099378D02*
X0242099Y0099378D01*
X0242099Y0100777D02*
X0237952Y0100777D01*
X0242099Y0102175D02*
X0226698Y0102175D01*
X0226698Y0103574D02*
X0240731Y0103574D01*
X0230844Y0100777D02*
X0226890Y0100777D01*
X0228289Y0099378D02*
X0230046Y0099378D01*
X0224598Y0100099D02*
X0224598Y0112699D01*
X0228098Y0116199D01*
X0231048Y0116161D02*
X0241399Y0116161D01*
X0241399Y0117559D02*
X0230728Y0117559D01*
X0229148Y0118958D02*
X0241399Y0118958D01*
X0241399Y0120356D02*
X0223048Y0120356D01*
X0223048Y0118958D02*
X0227049Y0118958D01*
X0225468Y0117559D02*
X0223048Y0117559D01*
X0223048Y0116161D02*
X0225090Y0116161D01*
X0223691Y0114762D02*
X0223048Y0114762D01*
X0222498Y0113363D02*
X0222361Y0113363D01*
X0222498Y0111965D02*
X0214182Y0111965D01*
X0215581Y0110566D02*
X0222498Y0110566D01*
X0222498Y0109168D02*
X0216209Y0109168D01*
X0216573Y0107769D02*
X0222498Y0107769D01*
X0222498Y0106371D02*
X0216573Y0106371D01*
X0216185Y0104972D02*
X0222498Y0104972D01*
X0222498Y0103574D02*
X0215523Y0103574D01*
X0214998Y0102175D02*
X0222498Y0102175D01*
X0226698Y0110566D02*
X0241399Y0110566D01*
X0241399Y0111965D02*
X0226834Y0111965D01*
X0228961Y0113363D02*
X0241399Y0113363D01*
X0242029Y0114762D02*
X0230696Y0114762D01*
X0223048Y0121755D02*
X0241399Y0121755D01*
X0242020Y0123153D02*
X0223048Y0123153D01*
X0223048Y0124552D02*
X0243903Y0124552D01*
X0245302Y0125950D02*
X0223048Y0125950D01*
X0223048Y0127349D02*
X0249500Y0127349D01*
X0241723Y0135740D02*
X0232060Y0135740D01*
X0232815Y0137138D02*
X0242076Y0137138D01*
X0242686Y0138537D02*
X0232815Y0138537D01*
X0232815Y0139935D02*
X0243850Y0139935D01*
X0239350Y0141334D02*
X0232815Y0141334D01*
X0232815Y0142732D02*
X0239350Y0142732D01*
X0239350Y0144131D02*
X0232815Y0144131D01*
X0232815Y0145529D02*
X0239350Y0145529D01*
X0225909Y0145529D02*
X0224509Y0145529D01*
X0224509Y0144131D02*
X0225909Y0144131D01*
X0225909Y0142732D02*
X0224509Y0142732D01*
X0224509Y0141334D02*
X0225909Y0141334D01*
X0225909Y0139935D02*
X0224509Y0139935D01*
X0224509Y0138537D02*
X0225909Y0138537D01*
X0225909Y0137138D02*
X0224509Y0137138D01*
X0224509Y0135740D02*
X0225909Y0135740D01*
X0225909Y0149725D02*
X0224509Y0149725D01*
X0224509Y0151123D02*
X0225909Y0151123D01*
X0225909Y0152522D02*
X0224509Y0152522D01*
X0224509Y0153920D02*
X0225909Y0153920D01*
X0225909Y0155319D02*
X0224509Y0155319D01*
X0224509Y0156717D02*
X0225909Y0156717D01*
X0225909Y0158116D02*
X0224509Y0158116D01*
X0217604Y0156717D02*
X0207519Y0156717D01*
X0207519Y0155319D02*
X0217604Y0155319D01*
X0217604Y0153920D02*
X0207519Y0153920D01*
X0207519Y0152522D02*
X0217604Y0152522D01*
X0217604Y0151123D02*
X0207519Y0151123D01*
X0207519Y0149725D02*
X0217604Y0149725D01*
X0217604Y0148326D02*
X0207519Y0148326D01*
X0137141Y0125950D02*
X0118145Y0125950D01*
X0120419Y0124552D02*
X0121578Y0124552D01*
X0121578Y0123153D02*
X0120419Y0123153D01*
X0120419Y0121755D02*
X0121578Y0121755D01*
X0121578Y0120356D02*
X0132898Y0120356D01*
X0132898Y0118958D02*
X0125651Y0118958D01*
X0125571Y0117559D02*
X0132898Y0117559D01*
X0133221Y0121755D02*
X0125651Y0121755D01*
X0125651Y0123153D02*
X0134344Y0123153D01*
X0135742Y0124552D02*
X0125002Y0124552D01*
X0105620Y0100777D02*
X0104913Y0100777D01*
X0084554Y0090987D02*
X0083698Y0090987D01*
X0083698Y0089589D02*
X0083966Y0089589D01*
X0083966Y0088190D02*
X0083698Y0088190D01*
X0083698Y0086792D02*
X0083966Y0086792D01*
X0083966Y0085393D02*
X0083698Y0085393D01*
X0190231Y0089589D02*
X0198201Y0089589D01*
X0198201Y0088190D02*
X0191630Y0088190D01*
X0191898Y0086792D02*
X0198201Y0086792D01*
X0257097Y0111965D02*
X0257746Y0111965D01*
X0257097Y0113363D02*
X0258410Y0113363D01*
X0256592Y0114762D02*
X0274226Y0114762D01*
X0277435Y0107769D02*
X0267051Y0107769D01*
X0266975Y0106371D02*
X0277435Y0106371D01*
X0277435Y0104972D02*
X0273639Y0104972D01*
X0269357Y0104972D02*
X0266751Y0104972D01*
X0266751Y0099309D02*
X0269474Y0099309D01*
X0269530Y0099253D01*
X0270807Y0098724D01*
X0272190Y0098724D01*
X0273467Y0099253D01*
X0274029Y0099816D01*
X0274029Y0091494D01*
X0273694Y0091159D01*
X0266310Y0091159D01*
X0266751Y0091600D01*
X0266751Y0097878D01*
X0266280Y0098349D01*
X0266751Y0098820D01*
X0266751Y0099309D01*
X0266649Y0097980D02*
X0274029Y0097980D01*
X0274029Y0099378D02*
X0273592Y0099378D01*
X0274029Y0096581D02*
X0266751Y0096581D01*
X0266751Y0095183D02*
X0274029Y0095183D01*
X0274029Y0093784D02*
X0266751Y0093784D01*
X0266751Y0092386D02*
X0274029Y0092386D01*
X0288640Y0090984D02*
X0288640Y0084499D01*
X0298725Y0084499D01*
X0298725Y0092584D01*
X0305631Y0092584D01*
X0305631Y0093984D01*
X0305631Y0104827D01*
X0300201Y0104827D01*
X0299769Y0104711D01*
X0299381Y0104487D01*
X0299065Y0104171D01*
X0298841Y0103783D01*
X0298725Y0103351D01*
X0298725Y0093984D01*
X0305631Y0093984D01*
X0307031Y0093984D01*
X0313936Y0093984D01*
X0313936Y0103351D01*
X0313820Y0103783D01*
X0313596Y0104171D01*
X0313280Y0104487D01*
X0312892Y0104711D01*
X0312460Y0104827D01*
X0307031Y0104827D01*
X0307031Y0093984D01*
X0307031Y0092584D01*
X0313936Y0092584D01*
X0313936Y0084499D01*
X0315598Y0084499D01*
X0315598Y0138479D01*
X0316418Y0139299D01*
X0324658Y0139299D01*
X0324658Y0156988D01*
X0322272Y0156988D01*
X0322272Y0161388D01*
X0321672Y0161388D01*
X0314272Y0161388D01*
X0314272Y0161318D01*
X0314388Y0160588D01*
X0314617Y0159884D01*
X0314952Y0159225D01*
X0315387Y0158626D01*
X0315910Y0158103D01*
X0316509Y0157668D01*
X0317168Y0157333D01*
X0317872Y0157104D01*
X0318602Y0156988D01*
X0321672Y0156988D01*
X0321672Y0161388D01*
X0321672Y0161988D01*
X0314272Y0161988D01*
X0314272Y0162058D01*
X0314388Y0162789D01*
X0314617Y0163492D01*
X0314952Y0164152D01*
X0315387Y0164750D01*
X0315910Y0165273D01*
X0316509Y0165708D01*
X0317168Y0166044D01*
X0317872Y0166272D01*
X0318602Y0166388D01*
X0321672Y0166388D01*
X0321672Y0161988D01*
X0322272Y0161988D01*
X0322272Y0166388D01*
X0324658Y0166388D01*
X0324658Y0167288D01*
X0305313Y0167288D01*
X0305150Y0167125D01*
X0305150Y0133868D01*
X0304330Y0133048D01*
X0285431Y0133048D01*
X0285431Y0130632D01*
X0288017Y0130632D01*
X0288837Y0129812D01*
X0288837Y0108967D01*
X0288017Y0108147D01*
X0285234Y0108147D01*
X0285234Y0104527D01*
X0287820Y0104527D01*
X0288640Y0103707D01*
X0288640Y0095584D01*
X0289758Y0095584D01*
X0289986Y0095812D01*
X0291162Y0096299D01*
X0292435Y0096299D01*
X0293611Y0095812D01*
X0294511Y0094912D01*
X0294998Y0093736D01*
X0294998Y0092463D01*
X0294511Y0091287D01*
X0293611Y0090386D01*
X0292435Y0089899D01*
X0291162Y0089899D01*
X0289986Y0090386D01*
X0289388Y0090984D01*
X0288640Y0090984D01*
X0288640Y0089589D02*
X0298725Y0089589D01*
X0298725Y0090987D02*
X0294212Y0090987D01*
X0294966Y0092386D02*
X0298725Y0092386D01*
X0294978Y0093784D02*
X0305631Y0093784D01*
X0305631Y0095183D02*
X0307031Y0095183D01*
X0307031Y0096581D02*
X0305631Y0096581D01*
X0305631Y0097980D02*
X0307031Y0097980D01*
X0307031Y0099378D02*
X0305631Y0099378D01*
X0305631Y0100777D02*
X0307031Y0100777D01*
X0307031Y0102175D02*
X0305631Y0102175D01*
X0305631Y0103574D02*
X0307031Y0103574D01*
X0313876Y0103574D02*
X0315598Y0103574D01*
X0315598Y0104972D02*
X0285234Y0104972D01*
X0285234Y0106371D02*
X0315598Y0106371D01*
X0315598Y0107769D02*
X0285234Y0107769D01*
X0288837Y0109168D02*
X0298964Y0109168D01*
X0298922Y0109323D02*
X0299038Y0108891D01*
X0299262Y0108503D01*
X0299578Y0108187D01*
X0299966Y0107963D01*
X0300398Y0107847D01*
X0305827Y0107847D01*
X0305827Y0118690D01*
X0298922Y0118690D01*
X0298922Y0109323D01*
X0298922Y0110566D02*
X0288837Y0110566D01*
X0288837Y0111965D02*
X0298922Y0111965D01*
X0298922Y0113363D02*
X0288837Y0113363D01*
X0288837Y0114762D02*
X0298922Y0114762D01*
X0298922Y0116161D02*
X0288837Y0116161D01*
X0288837Y0117559D02*
X0298922Y0117559D01*
X0298922Y0120090D02*
X0305827Y0120090D01*
X0305827Y0118690D01*
X0307227Y0118690D01*
X0307227Y0107847D01*
X0312657Y0107847D01*
X0313089Y0107963D01*
X0313477Y0108187D01*
X0313793Y0108503D01*
X0314017Y0108891D01*
X0314133Y0109323D01*
X0314133Y0118690D01*
X0307227Y0118690D01*
X0307227Y0120090D01*
X0305827Y0120090D01*
X0305827Y0130932D01*
X0300398Y0130932D01*
X0299966Y0130816D01*
X0299578Y0130593D01*
X0299262Y0130276D01*
X0299038Y0129888D01*
X0298922Y0129456D01*
X0298922Y0120090D01*
X0298922Y0120356D02*
X0288837Y0120356D01*
X0288837Y0118958D02*
X0305827Y0118958D01*
X0305827Y0120356D02*
X0307227Y0120356D01*
X0307227Y0120090D02*
X0307227Y0130932D01*
X0312657Y0130932D01*
X0313089Y0130816D01*
X0313477Y0130593D01*
X0313793Y0130276D01*
X0314017Y0129888D01*
X0314133Y0129456D01*
X0314133Y0120090D01*
X0307227Y0120090D01*
X0307227Y0118958D02*
X0315598Y0118958D01*
X0315598Y0120356D02*
X0314133Y0120356D01*
X0314133Y0121755D02*
X0315598Y0121755D01*
X0315598Y0123153D02*
X0314133Y0123153D01*
X0314133Y0124552D02*
X0315598Y0124552D01*
X0315598Y0125950D02*
X0314133Y0125950D01*
X0314133Y0127349D02*
X0315598Y0127349D01*
X0315598Y0128747D02*
X0314133Y0128747D01*
X0313869Y0130146D02*
X0315598Y0130146D01*
X0315598Y0131544D02*
X0285431Y0131544D01*
X0285431Y0132943D02*
X0315598Y0132943D01*
X0315598Y0134341D02*
X0305150Y0134341D01*
X0305150Y0135740D02*
X0315598Y0135740D01*
X0315598Y0137138D02*
X0305150Y0137138D01*
X0305150Y0138537D02*
X0315656Y0138537D01*
X0324658Y0139935D02*
X0305150Y0139935D01*
X0305150Y0141334D02*
X0324658Y0141334D01*
X0324658Y0142732D02*
X0305150Y0142732D01*
X0305150Y0144131D02*
X0324658Y0144131D01*
X0324658Y0145529D02*
X0305150Y0145529D01*
X0305150Y0146928D02*
X0324658Y0146928D01*
X0324658Y0148326D02*
X0305150Y0148326D01*
X0305150Y0149725D02*
X0324658Y0149725D01*
X0324658Y0151123D02*
X0305150Y0151123D01*
X0305150Y0152522D02*
X0324658Y0152522D01*
X0324658Y0153920D02*
X0305150Y0153920D01*
X0305150Y0155319D02*
X0324658Y0155319D01*
X0324658Y0156717D02*
X0305150Y0156717D01*
X0305150Y0158116D02*
X0315898Y0158116D01*
X0314805Y0159514D02*
X0305150Y0159514D01*
X0305150Y0160913D02*
X0314337Y0160913D01*
X0314312Y0162311D02*
X0305150Y0162311D01*
X0305150Y0163710D02*
X0314727Y0163710D01*
X0315746Y0165108D02*
X0305150Y0165108D01*
X0305150Y0166507D02*
X0324658Y0166507D01*
X0322272Y0165108D02*
X0321672Y0165108D01*
X0321672Y0163710D02*
X0322272Y0163710D01*
X0322272Y0162311D02*
X0321672Y0162311D01*
X0321672Y0160913D02*
X0322272Y0160913D01*
X0322272Y0159514D02*
X0321672Y0159514D01*
X0321672Y0158116D02*
X0322272Y0158116D01*
X0307227Y0130146D02*
X0305827Y0130146D01*
X0305827Y0128747D02*
X0307227Y0128747D01*
X0307227Y0127349D02*
X0305827Y0127349D01*
X0305827Y0125950D02*
X0307227Y0125950D01*
X0307227Y0124552D02*
X0305827Y0124552D01*
X0305827Y0123153D02*
X0307227Y0123153D01*
X0307227Y0121755D02*
X0305827Y0121755D01*
X0298922Y0121755D02*
X0288837Y0121755D01*
X0288837Y0123153D02*
X0298922Y0123153D01*
X0298922Y0124552D02*
X0288837Y0124552D01*
X0288837Y0125950D02*
X0298922Y0125950D01*
X0298922Y0127349D02*
X0288837Y0127349D01*
X0288837Y0128747D02*
X0298922Y0128747D01*
X0299186Y0130146D02*
X0288503Y0130146D01*
X0305827Y0117559D02*
X0307227Y0117559D01*
X0307227Y0116161D02*
X0305827Y0116161D01*
X0305827Y0114762D02*
X0307227Y0114762D01*
X0307227Y0113363D02*
X0305827Y0113363D01*
X0305827Y0111965D02*
X0307227Y0111965D01*
X0307227Y0110566D02*
X0305827Y0110566D01*
X0305827Y0109168D02*
X0307227Y0109168D01*
X0314091Y0109168D02*
X0315598Y0109168D01*
X0315598Y0110566D02*
X0314133Y0110566D01*
X0314133Y0111965D02*
X0315598Y0111965D01*
X0315598Y0113363D02*
X0314133Y0113363D01*
X0314133Y0114762D02*
X0315598Y0114762D01*
X0315598Y0116161D02*
X0314133Y0116161D01*
X0314133Y0117559D02*
X0315598Y0117559D01*
X0298785Y0103574D02*
X0288640Y0103574D01*
X0288640Y0102175D02*
X0298725Y0102175D01*
X0298725Y0100777D02*
X0288640Y0100777D01*
X0288640Y0099378D02*
X0298725Y0099378D01*
X0298725Y0097980D02*
X0288640Y0097980D01*
X0288640Y0096581D02*
X0298725Y0096581D01*
X0298725Y0095183D02*
X0294240Y0095183D01*
X0307031Y0093784D02*
X0315598Y0093784D01*
X0315598Y0092386D02*
X0313936Y0092386D01*
X0313936Y0090987D02*
X0315598Y0090987D01*
X0315598Y0089589D02*
X0313936Y0089589D01*
X0313936Y0088190D02*
X0315598Y0088190D01*
X0315598Y0086792D02*
X0313936Y0086792D01*
X0313936Y0085393D02*
X0315598Y0085393D01*
X0298725Y0085393D02*
X0288640Y0085393D01*
X0288640Y0086792D02*
X0298725Y0086792D01*
X0298725Y0088190D02*
X0288640Y0088190D01*
X0313936Y0095183D02*
X0315598Y0095183D01*
X0315598Y0096581D02*
X0313936Y0096581D01*
X0313936Y0097980D02*
X0315598Y0097980D01*
X0315598Y0099378D02*
X0313936Y0099378D01*
X0313936Y0100777D02*
X0315598Y0100777D01*
X0315598Y0102175D02*
X0313936Y0102175D01*
X0095098Y0170702D02*
X0093698Y0170702D01*
X0093698Y0172101D02*
X0095098Y0172101D01*
X0089261Y0172101D02*
X0083698Y0172101D01*
X0085333Y0170743D02*
X0085333Y0170743D01*
X0085374Y0170702D02*
X0087862Y0170702D01*
D31*
X0237898Y0139299D03*
X0228098Y0116199D03*
X0268698Y0107799D03*
X0293898Y0102199D03*
X0269398Y0097299D03*
X0111898Y0093099D03*
D32*
X0147598Y0114799D03*
X0181198Y0097999D03*
D33*
X0252838Y0118999D02*
X0277331Y0118999D01*
X0281531Y0123199D01*
X0281531Y0146929D01*
X0287250Y0155448D01*
X0281531Y0123199D02*
X0281531Y0119390D01*
X0281335Y0119193D01*
X0281335Y0093284D01*
X0275309Y0087259D01*
X0262398Y0087259D01*
D34*
X0291798Y0093099D03*
X0228798Y0107099D03*
D35*
X0240458Y0107099D01*
X0246058Y0101499D01*
X0246058Y0093099D01*
X0281335Y0093284D02*
X0291613Y0093284D01*
X0291798Y0093099D01*
D36*
X0271498Y0102199D02*
X0271258Y0101959D01*
X0262398Y0101959D01*
X0262398Y0094739D01*
X0245358Y0110599D02*
X0245358Y0118999D01*
X0245358Y0122259D01*
X0247698Y0124599D01*
X0250498Y0124599D01*
X0253998Y0128099D01*
X0272198Y0128099D01*
X0127098Y0117699D02*
X0126998Y0107699D01*
X0119112Y0107736D01*
X0119112Y0108350D01*
X0120969Y0108350D01*
X0120969Y0113129D01*
X0121028Y0113129D01*
X0121028Y0108350D01*
X0124247Y0108350D01*
X0124820Y0108503D01*
X0125333Y0108800D01*
X0125751Y0109218D01*
X0126048Y0109732D01*
X0126201Y0110304D01*
X0126201Y0113130D01*
X0121028Y0113130D01*
X0121028Y0113189D01*
X0126201Y0113189D01*
X0126201Y0116014D01*
X0126048Y0116587D01*
X0125898Y0116846D01*
X0126201Y0117148D01*
X0126201Y0117703D01*
X0127098Y0117699D01*
X0127094Y0117277D02*
X0126201Y0117277D01*
X0126201Y0114778D02*
X0127069Y0114778D01*
X0127044Y0112280D02*
X0126201Y0112280D01*
X0126061Y0109781D02*
X0127019Y0109781D01*
X0121028Y0109781D02*
X0120969Y0109781D01*
X0120969Y0112280D02*
X0121028Y0112280D01*
X0120969Y0113130D02*
X0117170Y0113130D01*
X0117158Y0113133D01*
X0111941Y0113133D01*
X0111941Y0109983D01*
X0111941Y0109983D01*
X0111941Y0113133D01*
X0109120Y0113133D01*
X0109120Y0113657D01*
X0108510Y0115129D01*
X0115796Y0115129D01*
X0115796Y0113189D01*
X0120969Y0113189D01*
X0120969Y0113130D01*
X0115796Y0114778D02*
X0108656Y0114778D01*
X0111941Y0112280D02*
X0111941Y0112280D01*
D37*
X0272198Y0128099D03*
D38*
X0271498Y0102199D03*
D39*
X0210598Y0107099D03*
X0247698Y0135099D03*
D40*
X0221360Y0163361D02*
X0218998Y0160999D01*
X0157398Y0160999D01*
X0146898Y0150499D01*
X0146898Y0130899D01*
X0136298Y0120299D01*
X0136298Y0108819D01*
X0136298Y0087499D01*
X0132164Y0083365D01*
X0128698Y0083365D01*
X0121698Y0083365D01*
X0136298Y0108819D02*
X0131958Y0113159D01*
X0120998Y0113159D01*
X0221360Y0163361D02*
X0221360Y0169399D01*
D41*
X0146898Y0130899D03*
D42*
X0127998Y0097299D02*
X0128698Y0096599D01*
X0128698Y0091633D01*
X0121698Y0091633D02*
X0121698Y0097999D01*
X0120998Y0098699D01*
D43*
X0120998Y0098699D03*
X0127998Y0097299D03*
M02*
