G75*
%MOIN*%
%OFA0B0*%
%FSLAX25Y25*%
%IPPOS*%
%LPD*%
%AMOC8*
5,1,8,0,0,1.08239X$1,22.5*
%
%ADD10C,0.00600*%
%ADD11C,0.00200*%
%ADD12C,0.00500*%
%ADD13R,0.04500X0.02000*%
%ADD14R,0.13386X0.09449*%
%ADD15C,0.01761*%
%ADD16C,0.00400*%
%ADD17C,0.00800*%
%ADD18C,0.02559*%
%ADD19R,0.03937X0.00984*%
%ADD20R,0.05512X0.02559*%
%ADD21R,0.02559X0.05512*%
%ADD22C,0.00787*%
%ADD23R,0.01969X0.02362*%
%ADD24R,0.02953X0.05709*%
%ADD25R,0.05709X0.02953*%
D10*
X0241398Y0085099D02*
X0241398Y0122099D01*
X0241400Y0122175D01*
X0241406Y0122251D01*
X0241415Y0122326D01*
X0241429Y0122401D01*
X0241446Y0122475D01*
X0241467Y0122548D01*
X0241491Y0122620D01*
X0241520Y0122691D01*
X0241551Y0122760D01*
X0241586Y0122827D01*
X0241625Y0122892D01*
X0241667Y0122956D01*
X0241712Y0123017D01*
X0241760Y0123076D01*
X0241811Y0123132D01*
X0241865Y0123186D01*
X0241921Y0123237D01*
X0241980Y0123285D01*
X0242041Y0123330D01*
X0242105Y0123372D01*
X0242170Y0123411D01*
X0242237Y0123446D01*
X0242306Y0123477D01*
X0242377Y0123506D01*
X0242449Y0123530D01*
X0242522Y0123551D01*
X0242596Y0123568D01*
X0242671Y0123582D01*
X0242746Y0123591D01*
X0242822Y0123597D01*
X0242898Y0123599D01*
X0255298Y0123599D01*
X0255374Y0123597D01*
X0255450Y0123591D01*
X0255525Y0123582D01*
X0255600Y0123568D01*
X0255674Y0123551D01*
X0255747Y0123530D01*
X0255819Y0123506D01*
X0255890Y0123477D01*
X0255959Y0123446D01*
X0256026Y0123411D01*
X0256091Y0123372D01*
X0256155Y0123330D01*
X0256216Y0123285D01*
X0256275Y0123237D01*
X0256331Y0123186D01*
X0256385Y0123132D01*
X0256436Y0123076D01*
X0256484Y0123017D01*
X0256529Y0122956D01*
X0256571Y0122892D01*
X0256610Y0122827D01*
X0256645Y0122760D01*
X0256676Y0122691D01*
X0256705Y0122620D01*
X0256729Y0122548D01*
X0256750Y0122475D01*
X0256767Y0122401D01*
X0256781Y0122326D01*
X0256790Y0122251D01*
X0256796Y0122175D01*
X0256798Y0122099D01*
X0256798Y0085099D01*
X0256796Y0085023D01*
X0256790Y0084947D01*
X0256781Y0084872D01*
X0256767Y0084797D01*
X0256750Y0084723D01*
X0256729Y0084650D01*
X0256705Y0084578D01*
X0256676Y0084507D01*
X0256645Y0084438D01*
X0256610Y0084371D01*
X0256571Y0084306D01*
X0256529Y0084242D01*
X0256484Y0084181D01*
X0256436Y0084122D01*
X0256385Y0084066D01*
X0256331Y0084012D01*
X0256275Y0083961D01*
X0256216Y0083913D01*
X0256155Y0083868D01*
X0256091Y0083826D01*
X0256026Y0083787D01*
X0255959Y0083752D01*
X0255890Y0083721D01*
X0255819Y0083692D01*
X0255747Y0083668D01*
X0255674Y0083647D01*
X0255600Y0083630D01*
X0255525Y0083616D01*
X0255450Y0083607D01*
X0255374Y0083601D01*
X0255298Y0083599D01*
X0251098Y0083599D01*
X0247098Y0083599D01*
X0242898Y0083599D01*
X0242822Y0083601D01*
X0242746Y0083607D01*
X0242671Y0083616D01*
X0242596Y0083630D01*
X0242522Y0083647D01*
X0242449Y0083668D01*
X0242377Y0083692D01*
X0242306Y0083721D01*
X0242237Y0083752D01*
X0242170Y0083787D01*
X0242105Y0083826D01*
X0242041Y0083868D01*
X0241980Y0083913D01*
X0241921Y0083961D01*
X0241865Y0084012D01*
X0241811Y0084066D01*
X0241760Y0084122D01*
X0241712Y0084181D01*
X0241667Y0084242D01*
X0241625Y0084306D01*
X0241586Y0084371D01*
X0241551Y0084438D01*
X0241520Y0084507D01*
X0241491Y0084578D01*
X0241467Y0084650D01*
X0241446Y0084723D01*
X0241429Y0084797D01*
X0241415Y0084872D01*
X0241406Y0084947D01*
X0241400Y0085023D01*
X0241398Y0085099D01*
X0247098Y0083599D02*
X0247100Y0083687D01*
X0247106Y0083776D01*
X0247116Y0083864D01*
X0247129Y0083951D01*
X0247147Y0084038D01*
X0247168Y0084124D01*
X0247193Y0084209D01*
X0247222Y0084292D01*
X0247255Y0084375D01*
X0247291Y0084455D01*
X0247330Y0084534D01*
X0247373Y0084612D01*
X0247420Y0084687D01*
X0247470Y0084760D01*
X0247523Y0084831D01*
X0247579Y0084900D01*
X0247638Y0084966D01*
X0247700Y0085029D01*
X0247764Y0085089D01*
X0247831Y0085147D01*
X0247901Y0085201D01*
X0247973Y0085253D01*
X0248047Y0085301D01*
X0248124Y0085346D01*
X0248202Y0085387D01*
X0248282Y0085425D01*
X0248363Y0085459D01*
X0248446Y0085490D01*
X0248531Y0085517D01*
X0248616Y0085540D01*
X0248702Y0085559D01*
X0248790Y0085575D01*
X0248877Y0085587D01*
X0248965Y0085595D01*
X0249054Y0085599D01*
X0249142Y0085599D01*
X0249231Y0085595D01*
X0249319Y0085587D01*
X0249406Y0085575D01*
X0249494Y0085559D01*
X0249580Y0085540D01*
X0249665Y0085517D01*
X0249750Y0085490D01*
X0249833Y0085459D01*
X0249914Y0085425D01*
X0249994Y0085387D01*
X0250072Y0085346D01*
X0250149Y0085301D01*
X0250223Y0085253D01*
X0250295Y0085201D01*
X0250365Y0085147D01*
X0250432Y0085089D01*
X0250496Y0085029D01*
X0250558Y0084966D01*
X0250617Y0084900D01*
X0250673Y0084831D01*
X0250726Y0084760D01*
X0250776Y0084687D01*
X0250823Y0084612D01*
X0250866Y0084534D01*
X0250905Y0084455D01*
X0250941Y0084375D01*
X0250974Y0084292D01*
X0251003Y0084209D01*
X0251028Y0084124D01*
X0251049Y0084038D01*
X0251067Y0083951D01*
X0251080Y0083864D01*
X0251090Y0083776D01*
X0251096Y0083687D01*
X0251098Y0083599D01*
X0159198Y0106185D02*
X0159198Y0109413D01*
X0154198Y0109413D02*
X0154198Y0106185D01*
X0130498Y0105485D02*
X0130498Y0108713D01*
X0125498Y0108713D02*
X0125498Y0105485D01*
X0125498Y0120185D02*
X0125498Y0123413D01*
X0130498Y0123413D02*
X0130498Y0120185D01*
X0154596Y0129224D02*
X0165797Y0129224D01*
X0165797Y0135374D01*
X0154596Y0135374D01*
X0154596Y0129224D01*
X0133812Y0135399D02*
X0130584Y0135399D01*
X0130584Y0140399D02*
X0133812Y0140399D01*
X0155084Y0153599D02*
X0158312Y0153599D01*
X0158312Y0158599D02*
X0155084Y0158599D01*
D11*
X0148931Y0159969D02*
X0148931Y0152229D01*
X0164466Y0152229D01*
X0164466Y0159969D01*
X0148931Y0159969D01*
X0139966Y0141769D02*
X0124431Y0141769D01*
X0124431Y0134029D01*
X0139966Y0134029D01*
X0139966Y0141769D01*
X0131868Y0129567D02*
X0124128Y0129567D01*
X0124128Y0114031D01*
X0131868Y0114031D01*
X0131868Y0129567D01*
X0153131Y0123569D02*
X0153131Y0115829D01*
X0168666Y0115829D01*
X0168666Y0123569D01*
X0153131Y0123569D01*
X0152828Y0115567D02*
X0152828Y0100031D01*
X0160568Y0100031D01*
X0160568Y0115567D01*
X0152828Y0115567D01*
X0160528Y0115567D02*
X0168268Y0115567D01*
X0168268Y0100031D01*
X0160528Y0100031D01*
X0160528Y0115567D01*
X0131868Y0114867D02*
X0124128Y0114867D01*
X0124128Y0099331D01*
X0131868Y0099331D01*
X0131868Y0114867D01*
X0242798Y0123599D02*
X0242798Y0083599D01*
D12*
X0243951Y0081853D02*
X0243951Y0077349D01*
X0245452Y0077349D02*
X0242450Y0077349D01*
X0247054Y0077349D02*
X0250056Y0081853D01*
X0251658Y0080352D02*
X0251658Y0077349D01*
X0250056Y0077349D02*
X0247054Y0081853D01*
X0245452Y0080352D02*
X0243951Y0081853D01*
X0251658Y0080352D02*
X0253159Y0081853D01*
X0254660Y0080352D01*
X0254660Y0077349D01*
X0256261Y0077349D02*
X0256261Y0081853D01*
X0257763Y0080352D01*
X0259264Y0081853D01*
X0259264Y0077349D01*
X0254660Y0079601D02*
X0251658Y0079601D01*
X0150660Y0102331D02*
X0133337Y0102331D01*
X0133337Y0118867D01*
X0150660Y0118867D01*
X0150660Y0102331D01*
D13*
X0239148Y0086099D03*
X0239148Y0091099D03*
X0239248Y0096099D03*
X0239148Y0101099D03*
X0239148Y0106099D03*
X0239148Y0111099D03*
X0239148Y0116099D03*
X0239148Y0121099D03*
X0259048Y0121099D03*
X0259048Y0116099D03*
X0259048Y0111099D03*
X0259048Y0106099D03*
X0259048Y0101099D03*
X0259048Y0096099D03*
X0259048Y0091099D03*
X0259048Y0086099D03*
D14*
X0141998Y0110599D03*
D15*
X0135305Y0116898D03*
D16*
X0131802Y0117359D02*
X0131035Y0116591D01*
X0127966Y0116591D01*
X0127198Y0117359D01*
X0127198Y0118893D01*
X0127966Y0119661D01*
X0129500Y0121195D02*
X0131802Y0123497D01*
X0127198Y0123497D01*
X0129500Y0124265D02*
X0129500Y0121195D01*
X0131035Y0119661D02*
X0131802Y0118893D01*
X0131802Y0117359D01*
X0122802Y0117593D02*
X0122802Y0115291D01*
X0118198Y0115291D01*
X0119733Y0115291D02*
X0119733Y0117593D01*
X0120500Y0118361D01*
X0122035Y0118361D01*
X0122802Y0117593D01*
X0122035Y0119895D02*
X0122802Y0120663D01*
X0122802Y0122197D01*
X0122035Y0122965D01*
X0121268Y0122965D01*
X0120500Y0122197D01*
X0119733Y0122965D01*
X0118966Y0122965D01*
X0118198Y0122197D01*
X0118198Y0120663D01*
X0118966Y0119895D01*
X0118198Y0118361D02*
X0119733Y0116826D01*
X0127198Y0115057D02*
X0127198Y0113522D01*
X0127198Y0114289D02*
X0131802Y0114289D01*
X0131802Y0113522D02*
X0131802Y0115057D01*
X0133198Y0111705D02*
X0137802Y0111705D01*
X0135500Y0109403D01*
X0135500Y0112472D01*
X0135500Y0107868D02*
X0134733Y0107101D01*
X0134733Y0104799D01*
X0133198Y0104799D02*
X0137802Y0104799D01*
X0137802Y0107101D01*
X0137035Y0107868D01*
X0135500Y0107868D01*
X0134733Y0106334D02*
X0133198Y0107868D01*
X0154598Y0109163D02*
X0155366Y0108395D01*
X0154598Y0109163D02*
X0154598Y0110697D01*
X0155366Y0111465D01*
X0156133Y0111465D01*
X0156900Y0110697D01*
X0156900Y0109930D01*
X0157233Y0109899D02*
X0160302Y0109899D01*
X0157233Y0112968D01*
X0157233Y0113736D01*
X0158000Y0114503D01*
X0159535Y0114503D01*
X0160302Y0113736D01*
X0161837Y0113736D02*
X0162604Y0114503D01*
X0164139Y0114503D01*
X0164906Y0113736D01*
X0164906Y0110667D01*
X0164139Y0109899D01*
X0162604Y0109899D01*
X0161837Y0110667D01*
X0161898Y0110103D02*
X0162666Y0110103D01*
X0165735Y0113172D01*
X0166502Y0113172D01*
X0166502Y0110103D01*
X0166997Y0109201D02*
X0166997Y0106299D01*
X0166502Y0105499D02*
X0166502Y0107801D01*
X0165735Y0108568D01*
X0164200Y0108568D01*
X0163433Y0107801D01*
X0163433Y0105499D01*
X0161898Y0105499D02*
X0166502Y0105499D01*
X0163433Y0107034D02*
X0161898Y0108568D01*
X0161800Y0109299D02*
X0161800Y0106299D01*
X0159202Y0106093D02*
X0159202Y0104559D01*
X0158435Y0103791D01*
X0155366Y0103791D01*
X0154598Y0104559D01*
X0154598Y0106093D01*
X0155366Y0106861D01*
X0158435Y0106861D02*
X0159202Y0106093D01*
X0158435Y0108395D02*
X0159202Y0109163D01*
X0159202Y0110697D01*
X0158435Y0111465D01*
X0157668Y0111465D01*
X0156900Y0110697D01*
X0159398Y0117101D02*
X0162398Y0117101D01*
X0160664Y0121198D02*
X0160664Y0126002D01*
X0161264Y0125402D02*
X0160063Y0125402D01*
X0159463Y0124801D01*
X0158181Y0124801D02*
X0158181Y0124200D01*
X0157581Y0123600D01*
X0156380Y0123600D01*
X0155779Y0122999D01*
X0155779Y0122399D01*
X0156380Y0121798D01*
X0157581Y0121798D01*
X0158181Y0122399D01*
X0158181Y0122999D01*
X0157581Y0123600D01*
X0156380Y0123600D02*
X0155779Y0124200D01*
X0155779Y0124801D01*
X0156380Y0125402D01*
X0157581Y0125402D01*
X0158181Y0124801D01*
X0159463Y0122999D02*
X0160063Y0123600D01*
X0161264Y0123600D01*
X0161865Y0124200D01*
X0161865Y0124801D01*
X0161264Y0125402D01*
X0163146Y0125402D02*
X0163146Y0122399D01*
X0163746Y0121798D01*
X0164947Y0121798D01*
X0165548Y0122399D01*
X0165548Y0125402D01*
X0162398Y0122298D02*
X0159497Y0122298D01*
X0159463Y0122399D02*
X0159463Y0122999D01*
X0159463Y0122399D02*
X0160063Y0121798D01*
X0161264Y0121798D01*
X0161865Y0122399D01*
X0157556Y0134402D02*
X0157556Y0139005D01*
X0159090Y0139005D02*
X0156021Y0139005D01*
X0154486Y0138238D02*
X0153719Y0139005D01*
X0152185Y0139005D01*
X0151417Y0138238D01*
X0151417Y0137471D01*
X0154486Y0134402D01*
X0151417Y0134402D01*
X0134498Y0143099D02*
X0134498Y0147703D01*
X0132196Y0147703D01*
X0131429Y0146936D01*
X0131429Y0145401D01*
X0132196Y0144634D01*
X0134498Y0144634D01*
X0132964Y0144634D02*
X0131429Y0143099D01*
X0129894Y0143867D02*
X0129127Y0143099D01*
X0127592Y0143099D01*
X0126825Y0143867D01*
X0126825Y0145401D01*
X0127592Y0146168D01*
X0128360Y0146168D01*
X0129894Y0145401D01*
X0129894Y0147703D01*
X0126825Y0147703D01*
X0151325Y0162067D02*
X0151325Y0162834D01*
X0152092Y0163601D01*
X0154394Y0163601D01*
X0154394Y0162067D01*
X0153627Y0161299D01*
X0152092Y0161299D01*
X0151325Y0162067D01*
X0152860Y0165136D02*
X0154394Y0163601D01*
X0155929Y0163601D02*
X0156696Y0162834D01*
X0158998Y0162834D01*
X0157464Y0162834D02*
X0155929Y0161299D01*
X0155929Y0163601D02*
X0155929Y0165136D01*
X0156696Y0165903D01*
X0158998Y0165903D01*
X0158998Y0161299D01*
X0152860Y0165136D02*
X0151325Y0165903D01*
X0120500Y0122197D02*
X0120500Y0121430D01*
D17*
X0153134Y0140087D02*
X0153134Y0151111D01*
X0170063Y0151111D01*
X0170063Y0140087D01*
X0153134Y0140087D01*
D18*
X0155201Y0143040D03*
D19*
X0150968Y0141761D03*
X0150968Y0144320D03*
X0150968Y0146879D03*
X0150968Y0149438D03*
X0172228Y0149438D03*
X0172228Y0146879D03*
X0172228Y0144320D03*
X0172228Y0141761D03*
D20*
X0127992Y0124720D03*
X0127992Y0118920D03*
X0128004Y0109979D03*
X0128004Y0104179D03*
X0156704Y0104879D03*
X0156704Y0110679D03*
D21*
X0135119Y0137905D03*
X0129319Y0137905D03*
X0153819Y0156105D03*
X0159619Y0156105D03*
D22*
X0155671Y0134268D03*
D23*
X0156458Y0136630D03*
X0160198Y0136630D03*
X0163938Y0136630D03*
X0163938Y0127969D03*
X0160198Y0127969D03*
X0156458Y0127969D03*
D24*
X0158075Y0119695D03*
X0163775Y0119695D03*
D25*
X0164394Y0110623D03*
X0164394Y0104923D03*
M02*
