%
M48
M72
T01C0.01200
T02C0.01300
T03C0.01500
T04C0.02756
T05C0.04000
%
T01
X136580Y48422
X155480Y65222
X33680Y72222
T02
X148412Y12972
T03
X163180Y31622
X136580Y33722
X112080Y44922
X95980Y52622
X88980Y49822
X81280Y45622
X61680Y38622
X52580Y30922
X67680Y25122
X74980Y30222
X104380Y34722
X91780Y58922
X81980Y58922
X70780Y59622
X95980Y73622
X105080Y81322
X113480Y65222
X123980Y63122
X155480Y72922
X163880Y69422
X222680Y45622
X68680Y75022
X60980Y81322
T04
X26093Y20957
X26093Y25957
X26093Y30957
X26093Y35957
X26093Y40957
X26093Y45957
X26093Y50957
X26093Y55957
X26093Y60957
X26093Y65957
X26093Y70957
X26093Y75957
X26093Y80957
T05
X131679Y81177
X141679Y81177
X151780Y79922
X161780Y79922
X226880Y83722
X226880Y73722
X226880Y63722
X226880Y53722
X120406Y25167
X110406Y25167
X100406Y25167
X100406Y15167
X110406Y15167
X120406Y15167
M30
