G75*
%MOIN*%
%OFA0B0*%
%FSLAX25Y25*%
%IPPOS*%
%LPD*%
%AMOC8*
5,1,8,0,0,1.08239X$1,22.5*
%
%ADD10C,0.00000*%
%ADD11R,0.23622X0.13780*%
%ADD12R,0.05118X0.05906*%
%ADD13R,0.05906X0.05118*%
%ADD14R,0.05512X0.06299*%
%ADD15R,0.01969X0.05906*%
%ADD16R,0.05906X0.01969*%
%ADD17OC8,0.06000*%
%ADD18R,0.04424X0.01969*%
%ADD19R,0.01969X0.04424*%
%ADD20C,0.04756*%
%ADD21C,0.06000*%
%ADD22R,0.07900X0.04300*%
%ADD23R,0.04724X0.02362*%
%ADD24R,0.03150X0.03543*%
%ADD25C,0.07400*%
%ADD26R,0.03150X0.04724*%
%ADD27C,0.01400*%
%ADD28C,0.02800*%
%ADD29C,0.03100*%
%ADD30C,0.01000*%
%ADD31C,0.02900*%
%ADD32C,0.01200*%
D10*
X0014912Y0006772D02*
X0014912Y0091418D01*
X0235384Y0091418D01*
X0235384Y0006772D01*
X0014912Y0006772D01*
D11*
X0051828Y0016882D03*
D12*
X0046602Y0050968D03*
X0039122Y0050968D03*
X0039114Y0061187D03*
X0046594Y0061187D03*
X0046594Y0072111D03*
X0039114Y0072111D03*
X0039915Y0082430D03*
X0047396Y0082430D03*
X0121104Y0069306D03*
X0128585Y0069306D03*
X0199990Y0036143D03*
X0207470Y0036143D03*
X0152741Y0034040D03*
X0145261Y0034040D03*
X0208002Y0067628D03*
X0215482Y0067628D03*
X0215575Y0075761D03*
X0208094Y0075761D03*
X0208440Y0083422D03*
X0215920Y0083422D03*
D13*
X0200280Y0084362D03*
X0200280Y0076882D03*
X0162480Y0063362D03*
X0162480Y0055882D03*
X0162325Y0048430D03*
X0162325Y0040949D03*
X0130649Y0051715D03*
X0118039Y0051052D03*
X0118039Y0058533D03*
X0130649Y0059196D03*
X0207849Y0059468D03*
X0215812Y0059556D03*
X0215812Y0052075D03*
X0207849Y0051988D03*
X0215680Y0043762D03*
X0215680Y0036282D03*
X0191880Y0024162D03*
X0184180Y0024162D03*
X0176480Y0024162D03*
X0176480Y0016682D03*
X0184180Y0016682D03*
X0191880Y0016682D03*
D14*
X0130793Y0040399D03*
X0119770Y0040399D03*
D15*
X0098330Y0036393D03*
X0095180Y0036393D03*
X0092031Y0036393D03*
X0088881Y0036393D03*
X0085732Y0036393D03*
X0082582Y0036393D03*
X0079432Y0036393D03*
X0076283Y0036393D03*
X0073133Y0036393D03*
X0069984Y0036393D03*
X0066834Y0036393D03*
X0066834Y0082062D03*
X0069984Y0082062D03*
X0073133Y0082062D03*
X0076283Y0082062D03*
X0079432Y0082062D03*
X0082582Y0082062D03*
X0085732Y0082062D03*
X0088881Y0082062D03*
X0092031Y0082062D03*
X0095180Y0082062D03*
X0098330Y0082062D03*
D16*
X0105417Y0074976D03*
X0105417Y0071826D03*
X0105417Y0068677D03*
X0105417Y0065527D03*
X0105417Y0062377D03*
X0105417Y0059228D03*
X0105417Y0056078D03*
X0105417Y0052929D03*
X0105417Y0049779D03*
X0105417Y0046629D03*
X0105417Y0043480D03*
X0059747Y0043480D03*
X0059747Y0046629D03*
X0059747Y0049779D03*
X0059747Y0052929D03*
X0059747Y0056078D03*
X0059747Y0059228D03*
X0059747Y0062377D03*
X0059747Y0065527D03*
X0059747Y0068677D03*
X0059747Y0071826D03*
X0059747Y0074976D03*
D17*
X0100406Y0025167D03*
X0110406Y0025167D03*
X0120406Y0025167D03*
X0120406Y0015167D03*
X0110406Y0015167D03*
X0100406Y0015167D03*
D18*
X0143060Y0044447D03*
X0143060Y0047596D03*
X0143060Y0050746D03*
X0143060Y0053895D03*
X0143060Y0057045D03*
X0143060Y0060195D03*
X0152021Y0060195D03*
X0152021Y0057045D03*
X0152021Y0053895D03*
X0152021Y0050746D03*
X0152021Y0047596D03*
X0151991Y0044447D03*
D19*
X0147540Y0044053D03*
X0147540Y0060588D03*
D20*
X0028471Y0060957D02*
X0023715Y0060957D01*
X0023715Y0055957D02*
X0028471Y0055957D01*
X0028471Y0050957D02*
X0023715Y0050957D01*
X0023715Y0045957D02*
X0028471Y0045957D01*
X0028471Y0040957D02*
X0023715Y0040957D01*
X0023715Y0035957D02*
X0028471Y0035957D01*
X0028471Y0030957D02*
X0023715Y0030957D01*
X0023715Y0025957D02*
X0028471Y0025957D01*
X0028471Y0020957D02*
X0023715Y0020957D01*
X0023715Y0065957D02*
X0028471Y0065957D01*
X0028471Y0070957D02*
X0023715Y0070957D01*
X0023715Y0075957D02*
X0028471Y0075957D01*
X0028471Y0080957D02*
X0023715Y0080957D01*
D21*
X0131679Y0078177D02*
X0131679Y0084177D01*
X0141679Y0084177D02*
X0141679Y0078177D01*
X0223880Y0073722D02*
X0229880Y0073722D01*
X0229880Y0083722D02*
X0223880Y0083722D01*
X0223880Y0063722D02*
X0229880Y0063722D01*
X0229880Y0053722D02*
X0223880Y0053722D01*
D22*
X0167388Y0018551D03*
X0131988Y0018551D03*
D23*
X0170356Y0049822D03*
X0170356Y0054822D03*
X0170356Y0059822D03*
X0170356Y0064822D03*
X0170356Y0069822D03*
X0170356Y0074822D03*
X0170356Y0079822D03*
X0170356Y0084822D03*
X0192404Y0084822D03*
X0192404Y0079822D03*
X0192404Y0074822D03*
X0192404Y0069822D03*
X0192404Y0064822D03*
X0192404Y0059822D03*
X0192404Y0054822D03*
X0192404Y0049822D03*
D24*
X0187920Y0039759D03*
X0180440Y0039759D03*
X0184180Y0031491D03*
D25*
X0161780Y0079922D03*
X0151780Y0079922D03*
D26*
X0200656Y0044178D03*
X0207743Y0044178D03*
D27*
X0207743Y0036416D01*
X0207470Y0036143D01*
X0215542Y0036143D01*
X0215680Y0036282D01*
X0220340Y0036282D01*
X0226880Y0042822D01*
X0226880Y0053722D01*
X0221444Y0057367D02*
X0220235Y0056158D01*
X0220062Y0055741D01*
X0219808Y0055995D01*
X0219677Y0056071D01*
X0220064Y0056458D01*
X0220064Y0060978D01*
X0220295Y0060660D01*
X0220818Y0060137D01*
X0221417Y0059702D01*
X0222076Y0059366D01*
X0222779Y0059137D01*
X0223510Y0059022D01*
X0226580Y0059022D01*
X0226580Y0063422D01*
X0227180Y0063422D01*
X0227180Y0059022D01*
X0230250Y0059022D01*
X0230684Y0059091D01*
X0230684Y0058022D01*
X0223025Y0058022D01*
X0221444Y0057367D01*
X0221196Y0057119D02*
X0220064Y0057119D01*
X0220064Y0058517D02*
X0230684Y0058517D01*
X0227180Y0059916D02*
X0226580Y0059916D01*
X0226580Y0061314D02*
X0227180Y0061314D01*
X0227180Y0062713D02*
X0226580Y0062713D01*
X0226580Y0064022D02*
X0226580Y0068422D01*
X0223510Y0068422D01*
X0222779Y0068306D01*
X0222076Y0068077D01*
X0221417Y0067742D01*
X0220818Y0067307D01*
X0220295Y0066784D01*
X0219860Y0066185D01*
X0219741Y0065952D01*
X0219741Y0067049D01*
X0216062Y0067049D01*
X0216062Y0068208D01*
X0219741Y0068208D01*
X0219741Y0070805D01*
X0219626Y0071237D01*
X0219402Y0071625D01*
X0219095Y0071931D01*
X0219434Y0072270D01*
X0219434Y0073761D01*
X0219580Y0073761D01*
X0219580Y0072866D01*
X0220235Y0071286D01*
X0221444Y0070076D01*
X0223025Y0069422D01*
X0230684Y0069422D01*
X0230684Y0068353D01*
X0230250Y0068422D01*
X0227180Y0068422D01*
X0227180Y0064022D01*
X0226580Y0064022D01*
X0226580Y0064111D02*
X0227180Y0064111D01*
X0227180Y0065510D02*
X0226580Y0065510D01*
X0226580Y0066908D02*
X0227180Y0066908D01*
X0227180Y0068307D02*
X0226580Y0068307D01*
X0222783Y0068307D02*
X0219741Y0068307D01*
X0219741Y0069705D02*
X0222340Y0069705D01*
X0220417Y0071104D02*
X0219661Y0071104D01*
X0219731Y0072502D02*
X0219434Y0072502D01*
X0215575Y0075761D02*
X0224841Y0075761D01*
X0226880Y0073722D01*
X0220420Y0066908D02*
X0219741Y0066908D01*
X0208002Y0067628D02*
X0200674Y0067628D01*
X0193480Y0074822D01*
X0192404Y0074822D01*
X0188741Y0075299D02*
X0174019Y0075299D01*
X0174019Y0076541D02*
X0173257Y0077303D01*
X0167456Y0077303D01*
X0166975Y0076822D01*
X0165751Y0076822D01*
X0166019Y0077089D01*
X0166364Y0077922D01*
X0166875Y0077922D01*
X0167456Y0077341D01*
X0173257Y0077341D01*
X0174019Y0078102D01*
X0174019Y0081541D01*
X0173257Y0082303D01*
X0167456Y0082303D01*
X0167075Y0081922D01*
X0166364Y0081922D01*
X0166019Y0082754D01*
X0164612Y0084161D01*
X0164464Y0084222D01*
X0166694Y0084222D01*
X0166694Y0083102D01*
X0167456Y0082341D01*
X0173257Y0082341D01*
X0174019Y0083102D01*
X0174019Y0086541D01*
X0173842Y0086718D01*
X0188918Y0086718D01*
X0188741Y0086541D01*
X0188741Y0083102D01*
X0189503Y0082341D01*
X0195304Y0082341D01*
X0195785Y0082822D01*
X0196027Y0082822D01*
X0196027Y0081580D01*
X0195304Y0082303D01*
X0189503Y0082303D01*
X0188741Y0081541D01*
X0188741Y0078102D01*
X0189503Y0077341D01*
X0193733Y0077341D01*
X0193771Y0077303D01*
X0189503Y0077303D01*
X0188741Y0076541D01*
X0188741Y0073102D01*
X0189304Y0072540D01*
X0188998Y0072363D01*
X0188681Y0072047D01*
X0188457Y0071659D01*
X0188341Y0071227D01*
X0188341Y0069822D01*
X0192404Y0069822D01*
X0192404Y0069822D01*
X0188341Y0069822D01*
X0188341Y0068417D01*
X0188457Y0067984D01*
X0188681Y0067597D01*
X0188998Y0067280D01*
X0189304Y0067104D01*
X0188741Y0066541D01*
X0188741Y0063102D01*
X0189503Y0062341D01*
X0195304Y0062341D01*
X0195785Y0062822D01*
X0197752Y0062822D01*
X0198752Y0061822D01*
X0195785Y0061822D01*
X0195304Y0062303D01*
X0189503Y0062303D01*
X0188741Y0061541D01*
X0188741Y0058102D01*
X0189503Y0057341D01*
X0195304Y0057341D01*
X0195785Y0057822D01*
X0198280Y0057822D01*
X0198280Y0055350D01*
X0198080Y0055550D01*
X0196908Y0056722D01*
X0195885Y0056722D01*
X0195304Y0057303D01*
X0189503Y0057303D01*
X0188741Y0056541D01*
X0188741Y0053102D01*
X0189503Y0052341D01*
X0195304Y0052341D01*
X0195469Y0052505D01*
X0195480Y0052493D01*
X0195480Y0052127D01*
X0195304Y0052303D01*
X0189503Y0052303D01*
X0188741Y0051541D01*
X0188741Y0048102D01*
X0189222Y0047622D01*
X0181952Y0047622D01*
X0179852Y0045522D01*
X0178680Y0044350D01*
X0178680Y0042830D01*
X0178327Y0042830D01*
X0177565Y0042069D01*
X0177565Y0042022D01*
X0172356Y0042022D01*
X0172356Y0047341D01*
X0173257Y0047341D01*
X0174019Y0048102D01*
X0174019Y0051541D01*
X0173257Y0052303D01*
X0167456Y0052303D01*
X0166694Y0051541D01*
X0166694Y0048102D01*
X0167456Y0047341D01*
X0168356Y0047341D01*
X0168356Y0042949D01*
X0166577Y0042949D01*
X0166577Y0044047D01*
X0165935Y0044689D01*
X0166577Y0045332D01*
X0166577Y0051527D01*
X0166026Y0052078D01*
X0166733Y0052784D01*
X0166733Y0053064D01*
X0167456Y0052341D01*
X0173257Y0052341D01*
X0174019Y0053102D01*
X0174019Y0056541D01*
X0173456Y0057104D01*
X0173762Y0057280D01*
X0174079Y0057597D01*
X0174303Y0057984D01*
X0174419Y0058417D01*
X0174419Y0059822D01*
X0174419Y0061227D01*
X0174303Y0061659D01*
X0174079Y0062047D01*
X0173762Y0062363D01*
X0173456Y0062540D01*
X0174019Y0063102D01*
X0174019Y0066541D01*
X0173257Y0067303D01*
X0167456Y0067303D01*
X0166912Y0066759D01*
X0166793Y0066965D01*
X0166477Y0067281D01*
X0166233Y0067422D01*
X0167375Y0067422D01*
X0167456Y0067341D01*
X0173257Y0067341D01*
X0174019Y0068102D01*
X0174019Y0071541D01*
X0173257Y0072303D01*
X0167456Y0072303D01*
X0166694Y0071541D01*
X0166694Y0071422D01*
X0165911Y0071422D01*
X0165909Y0071423D01*
X0166580Y0072093D01*
X0167142Y0072655D01*
X0167456Y0072341D01*
X0173257Y0072341D01*
X0174019Y0073102D01*
X0174019Y0076541D01*
X0173862Y0076698D02*
X0188898Y0076698D01*
X0188747Y0078096D02*
X0174013Y0078096D01*
X0174019Y0079495D02*
X0188741Y0079495D01*
X0188741Y0080893D02*
X0174019Y0080893D01*
X0170356Y0079822D02*
X0170256Y0079922D01*
X0161780Y0079922D01*
X0157124Y0078096D02*
X0156436Y0078096D01*
X0156780Y0078927D02*
X0156019Y0077089D01*
X0154612Y0075683D01*
X0152775Y0074922D01*
X0150785Y0074922D01*
X0148948Y0075683D01*
X0147541Y0077089D01*
X0146780Y0078927D01*
X0146780Y0080916D01*
X0147541Y0082754D01*
X0148948Y0084161D01*
X0150785Y0084922D01*
X0152775Y0084922D01*
X0153607Y0084577D01*
X0155748Y0086718D01*
X0145643Y0086718D01*
X0145699Y0086640D01*
X0146035Y0085981D01*
X0146263Y0085277D01*
X0146379Y0084547D01*
X0146379Y0081477D01*
X0141979Y0081477D01*
X0141979Y0080877D01*
X0141979Y0073477D01*
X0142049Y0073477D01*
X0142780Y0073593D01*
X0143483Y0073821D01*
X0144143Y0074157D01*
X0144741Y0074592D01*
X0145264Y0075115D01*
X0145699Y0075714D01*
X0146035Y0076373D01*
X0146263Y0077076D01*
X0146379Y0077807D01*
X0146379Y0080877D01*
X0141979Y0080877D01*
X0141379Y0080877D01*
X0136979Y0080877D01*
X0136979Y0077807D01*
X0137095Y0077076D01*
X0137324Y0076373D01*
X0137659Y0075714D01*
X0138094Y0075115D01*
X0138617Y0074592D01*
X0139216Y0074157D01*
X0139875Y0073821D01*
X0140579Y0073593D01*
X0141309Y0073477D01*
X0141379Y0073477D01*
X0141379Y0080877D01*
X0141379Y0081477D01*
X0136979Y0081477D01*
X0136979Y0084547D01*
X0137095Y0085277D01*
X0137324Y0085981D01*
X0137659Y0086640D01*
X0137716Y0086718D01*
X0135219Y0086718D01*
X0135325Y0086613D01*
X0135979Y0085032D01*
X0135979Y0077322D01*
X0135325Y0075741D01*
X0134115Y0074532D01*
X0132535Y0073877D01*
X0130824Y0073877D01*
X0129243Y0074532D01*
X0128034Y0075741D01*
X0127379Y0077322D01*
X0127379Y0079177D01*
X0106966Y0079177D01*
X0106694Y0078906D01*
X0105647Y0078472D01*
X0104513Y0078472D01*
X0103466Y0078906D01*
X0102664Y0079707D01*
X0102230Y0080755D01*
X0102230Y0081889D01*
X0102664Y0082936D01*
X0103466Y0083738D01*
X0104513Y0084172D01*
X0105647Y0084172D01*
X0106694Y0083738D01*
X0107255Y0083177D01*
X0127379Y0083177D01*
X0127379Y0085032D01*
X0128034Y0086613D01*
X0128139Y0086718D01*
X0043544Y0086718D01*
X0043835Y0086427D01*
X0043911Y0086295D01*
X0044298Y0086683D01*
X0050493Y0086683D01*
X0051255Y0085921D01*
X0051255Y0084430D01*
X0060700Y0084430D01*
X0060958Y0084172D01*
X0061547Y0084172D01*
X0062594Y0083738D01*
X0063396Y0082936D01*
X0063830Y0081889D01*
X0063830Y0080755D01*
X0063396Y0079707D01*
X0062594Y0078906D01*
X0061547Y0078472D01*
X0060413Y0078472D01*
X0059366Y0078906D01*
X0058564Y0079707D01*
X0058265Y0080430D01*
X0051255Y0080430D01*
X0051255Y0078939D01*
X0050493Y0078177D01*
X0044298Y0078177D01*
X0043911Y0078565D01*
X0043835Y0078433D01*
X0043518Y0078117D01*
X0043131Y0077893D01*
X0042698Y0077777D01*
X0040495Y0077777D01*
X0040495Y0081850D01*
X0039336Y0081850D01*
X0039336Y0077777D01*
X0037133Y0077777D01*
X0036700Y0077893D01*
X0036313Y0078117D01*
X0035996Y0078433D01*
X0035772Y0078821D01*
X0035656Y0079253D01*
X0035656Y0081851D01*
X0039336Y0081851D01*
X0039336Y0083010D01*
X0035656Y0083010D01*
X0035656Y0085607D01*
X0035772Y0086039D01*
X0035996Y0086427D01*
X0036287Y0086718D01*
X0019612Y0086718D01*
X0019612Y0011472D01*
X0038717Y0011472D01*
X0038717Y0024030D01*
X0033644Y0018957D01*
X0031623Y0018957D01*
X0031589Y0018874D01*
X0030554Y0017839D01*
X0029202Y0017279D01*
X0022983Y0017279D01*
X0021631Y0017839D01*
X0020597Y0018874D01*
X0020037Y0020226D01*
X0020037Y0021689D01*
X0020597Y0023041D01*
X0021013Y0023457D01*
X0020597Y0023874D01*
X0020037Y0025226D01*
X0020037Y0026689D01*
X0020597Y0028041D01*
X0021013Y0028457D01*
X0020597Y0028874D01*
X0020037Y0030226D01*
X0020037Y0031689D01*
X0020597Y0033041D01*
X0021013Y0033457D01*
X0020597Y0033874D01*
X0020037Y0035226D01*
X0020037Y0036689D01*
X0020597Y0038041D01*
X0020730Y0038174D01*
X0020604Y0038301D01*
X0020227Y0038820D01*
X0019935Y0039392D01*
X0019737Y0040002D01*
X0019637Y0040636D01*
X0019637Y0040957D01*
X0026092Y0040957D01*
X0026092Y0040957D01*
X0019637Y0040957D01*
X0019637Y0041278D01*
X0019737Y0041912D01*
X0019935Y0042523D01*
X0020227Y0043095D01*
X0020604Y0043614D01*
X0020730Y0043740D01*
X0020597Y0043874D01*
X0020037Y0045226D01*
X0020037Y0046689D01*
X0020597Y0048041D01*
X0021013Y0048457D01*
X0020597Y0048874D01*
X0020037Y0050226D01*
X0020037Y0051689D01*
X0020597Y0053041D01*
X0021013Y0053457D01*
X0020597Y0053874D01*
X0020037Y0055226D01*
X0020037Y0056689D01*
X0020597Y0058041D01*
X0021013Y0058457D01*
X0020597Y0058874D01*
X0020037Y0060226D01*
X0020037Y0061689D01*
X0020597Y0063041D01*
X0021013Y0063457D01*
X0020597Y0063874D01*
X0020037Y0065226D01*
X0020037Y0066689D01*
X0020597Y0068041D01*
X0021013Y0068457D01*
X0020597Y0068874D01*
X0020037Y0070226D01*
X0020037Y0071689D01*
X0020597Y0073041D01*
X0021013Y0073457D01*
X0020597Y0073874D01*
X0020037Y0075226D01*
X0020037Y0076689D01*
X0020597Y0078041D01*
X0021013Y0078457D01*
X0020597Y0078874D01*
X0020037Y0080226D01*
X0020037Y0081689D01*
X0020597Y0083041D01*
X0021631Y0084075D01*
X0022983Y0084635D01*
X0029202Y0084635D01*
X0030554Y0084075D01*
X0031589Y0083041D01*
X0032149Y0081689D01*
X0032149Y0080226D01*
X0031589Y0078874D01*
X0031172Y0078457D01*
X0031589Y0078041D01*
X0032149Y0076689D01*
X0032149Y0075226D01*
X0031589Y0073874D01*
X0031172Y0073457D01*
X0031589Y0073041D01*
X0032149Y0071689D01*
X0032149Y0070226D01*
X0031589Y0068874D01*
X0031172Y0068457D01*
X0031589Y0068041D01*
X0032149Y0066689D01*
X0032149Y0065226D01*
X0031589Y0063874D01*
X0031172Y0063457D01*
X0031589Y0063041D01*
X0032149Y0061689D01*
X0032149Y0060226D01*
X0031589Y0058874D01*
X0031172Y0058457D01*
X0031589Y0058041D01*
X0032149Y0056689D01*
X0032149Y0055226D01*
X0031589Y0053874D01*
X0031172Y0053457D01*
X0031589Y0053041D01*
X0032149Y0051689D01*
X0032149Y0050226D01*
X0031589Y0048874D01*
X0031172Y0048457D01*
X0031589Y0048041D01*
X0031623Y0047957D01*
X0033283Y0047957D01*
X0035263Y0049937D01*
X0035263Y0054459D01*
X0036024Y0055221D01*
X0037122Y0055221D01*
X0037122Y0056934D01*
X0036016Y0056934D01*
X0035255Y0057696D01*
X0035255Y0064678D01*
X0036016Y0065440D01*
X0037114Y0065440D01*
X0037114Y0067859D01*
X0036016Y0067859D01*
X0035255Y0068620D01*
X0035255Y0075602D01*
X0036016Y0076364D01*
X0042211Y0076364D01*
X0042599Y0075976D01*
X0042675Y0076108D01*
X0042991Y0076424D01*
X0043379Y0076648D01*
X0043811Y0076764D01*
X0046014Y0076764D01*
X0046014Y0072691D01*
X0047173Y0072691D01*
X0047173Y0076764D01*
X0049377Y0076764D01*
X0049809Y0076648D01*
X0050197Y0076424D01*
X0050513Y0076108D01*
X0050737Y0075720D01*
X0050853Y0075288D01*
X0050853Y0072691D01*
X0047174Y0072691D01*
X0047174Y0071532D01*
X0050853Y0071532D01*
X0050853Y0068935D01*
X0050769Y0068622D01*
X0052708Y0068622D01*
X0053880Y0067450D01*
X0055495Y0065836D01*
X0055495Y0067050D01*
X0055547Y0067102D01*
X0055495Y0067154D01*
X0055495Y0070199D01*
X0055547Y0070251D01*
X0055495Y0070303D01*
X0055495Y0073349D01*
X0055547Y0073401D01*
X0055495Y0073453D01*
X0055495Y0076499D01*
X0056256Y0077260D01*
X0063239Y0077260D01*
X0064000Y0076499D01*
X0064000Y0073453D01*
X0063948Y0073401D01*
X0064000Y0073349D01*
X0064000Y0070303D01*
X0063948Y0070251D01*
X0064000Y0070199D01*
X0064000Y0067154D01*
X0063948Y0067102D01*
X0064000Y0067050D01*
X0064000Y0064422D01*
X0065052Y0064422D01*
X0070607Y0069977D01*
X0093980Y0069977D01*
X0093980Y0071591D01*
X0093950Y0071622D01*
X0087452Y0071622D01*
X0084903Y0074170D01*
X0083732Y0075342D01*
X0083732Y0077410D01*
X0082582Y0077410D01*
X0082582Y0082062D01*
X0082582Y0082062D01*
X0082582Y0077410D01*
X0081432Y0077410D01*
X0081432Y0075146D01*
X0080261Y0073974D01*
X0079308Y0073022D01*
X0070711Y0073022D01*
X0070294Y0072606D01*
X0069247Y0072172D01*
X0068113Y0072172D01*
X0067066Y0072606D01*
X0066264Y0073407D01*
X0065830Y0074455D01*
X0065830Y0075589D01*
X0066264Y0076636D01*
X0067066Y0077438D01*
X0067963Y0077810D01*
X0065311Y0077810D01*
X0064550Y0078571D01*
X0064550Y0085554D01*
X0065311Y0086315D01*
X0068357Y0086315D01*
X0068409Y0086263D01*
X0068461Y0086315D01*
X0071506Y0086315D01*
X0071558Y0086263D01*
X0071610Y0086315D01*
X0074656Y0086315D01*
X0074708Y0086263D01*
X0074760Y0086315D01*
X0077806Y0086315D01*
X0077858Y0086263D01*
X0077910Y0086315D01*
X0080494Y0086315D01*
X0080554Y0086376D01*
X0080942Y0086599D01*
X0081374Y0086715D01*
X0082582Y0086715D01*
X0082582Y0082063D01*
X0082582Y0082063D01*
X0082582Y0086715D01*
X0083790Y0086715D01*
X0084222Y0086599D01*
X0084610Y0086376D01*
X0084670Y0086315D01*
X0087254Y0086315D01*
X0087306Y0086263D01*
X0087358Y0086315D01*
X0090404Y0086315D01*
X0090456Y0086263D01*
X0090508Y0086315D01*
X0093554Y0086315D01*
X0093606Y0086263D01*
X0093658Y0086315D01*
X0096703Y0086315D01*
X0096755Y0086263D01*
X0096807Y0086315D01*
X0099853Y0086315D01*
X0100614Y0085554D01*
X0100614Y0078571D01*
X0099853Y0077810D01*
X0096807Y0077810D01*
X0096755Y0077862D01*
X0096703Y0077810D01*
X0093658Y0077810D01*
X0093606Y0077862D01*
X0093554Y0077810D01*
X0090508Y0077810D01*
X0090456Y0077862D01*
X0090404Y0077810D01*
X0087732Y0077810D01*
X0087732Y0076999D01*
X0089108Y0075622D01*
X0093950Y0075622D01*
X0094366Y0076038D01*
X0095413Y0076472D01*
X0096547Y0076472D01*
X0097594Y0076038D01*
X0098396Y0075236D01*
X0098830Y0074189D01*
X0098830Y0073055D01*
X0098396Y0072007D01*
X0097980Y0071591D01*
X0097980Y0061228D01*
X0100764Y0061228D01*
X0100764Y0062377D01*
X0105417Y0062377D01*
X0105417Y0062377D01*
X0110069Y0062377D01*
X0110069Y0061169D01*
X0109954Y0060737D01*
X0109730Y0060349D01*
X0109669Y0060289D01*
X0109669Y0057705D01*
X0109617Y0057653D01*
X0109669Y0057601D01*
X0109669Y0054555D01*
X0109617Y0054503D01*
X0109669Y0054451D01*
X0109669Y0051406D01*
X0109617Y0051354D01*
X0109669Y0051302D01*
X0109669Y0048256D01*
X0109617Y0048204D01*
X0109669Y0048152D01*
X0109669Y0045107D01*
X0109617Y0045055D01*
X0109669Y0045002D01*
X0109669Y0041957D01*
X0108908Y0041195D01*
X0101925Y0041195D01*
X0101164Y0041957D01*
X0101164Y0045002D01*
X0101216Y0045055D01*
X0101164Y0045107D01*
X0101164Y0048152D01*
X0101216Y0048204D01*
X0101164Y0048256D01*
X0101164Y0051302D01*
X0101216Y0051354D01*
X0101164Y0051406D01*
X0101164Y0054451D01*
X0101216Y0054503D01*
X0101164Y0054555D01*
X0101164Y0057228D01*
X0097980Y0057228D01*
X0097980Y0054652D01*
X0098396Y0054236D01*
X0098830Y0053189D01*
X0098830Y0052055D01*
X0098396Y0051007D01*
X0097980Y0050591D01*
X0097980Y0042693D01*
X0096808Y0041522D01*
X0096808Y0041522D01*
X0095933Y0040646D01*
X0096703Y0040646D01*
X0096755Y0040594D01*
X0096807Y0040646D01*
X0099853Y0040646D01*
X0100614Y0039884D01*
X0100614Y0032902D01*
X0099853Y0032140D01*
X0097180Y0032140D01*
X0097180Y0030194D01*
X0096009Y0029022D01*
X0096009Y0029022D01*
X0094980Y0027993D01*
X0094980Y0026150D01*
X0096106Y0025024D01*
X0096106Y0026948D01*
X0098625Y0029467D01*
X0101878Y0029467D01*
X0102380Y0029969D01*
X0102380Y0032691D01*
X0101964Y0033107D01*
X0101530Y0034155D01*
X0101530Y0035289D01*
X0101964Y0036336D01*
X0102766Y0037138D01*
X0103813Y0037572D01*
X0104947Y0037572D01*
X0105994Y0037138D01*
X0106411Y0036722D01*
X0115395Y0036722D01*
X0115314Y0037026D01*
X0115314Y0039721D01*
X0119092Y0039721D01*
X0119092Y0041077D01*
X0119092Y0045249D01*
X0116790Y0045249D01*
X0116358Y0045133D01*
X0115970Y0044909D01*
X0115654Y0044592D01*
X0115430Y0044205D01*
X0115314Y0043772D01*
X0115314Y0041077D01*
X0119092Y0041077D01*
X0120448Y0041077D01*
X0124226Y0041077D01*
X0124226Y0043772D01*
X0124110Y0044205D01*
X0123886Y0044592D01*
X0123570Y0044909D01*
X0123182Y0045133D01*
X0122749Y0045249D01*
X0120448Y0045249D01*
X0120448Y0041077D01*
X0120448Y0039721D01*
X0124226Y0039721D01*
X0124226Y0037026D01*
X0124144Y0036722D01*
X0125208Y0036722D01*
X0131988Y0029942D01*
X0132868Y0030822D01*
X0141402Y0030822D01*
X0141402Y0032040D01*
X0138929Y0032040D01*
X0138194Y0031306D01*
X0137147Y0030872D01*
X0136013Y0030872D01*
X0134966Y0031306D01*
X0134164Y0032107D01*
X0133730Y0033155D01*
X0133730Y0034289D01*
X0134164Y0035336D01*
X0134966Y0036138D01*
X0136013Y0036572D01*
X0137147Y0036572D01*
X0138194Y0036138D01*
X0138292Y0036040D01*
X0141402Y0036040D01*
X0141402Y0037532D01*
X0142163Y0038293D01*
X0145323Y0038293D01*
X0146352Y0039322D01*
X0145540Y0040133D01*
X0145540Y0041018D01*
X0145256Y0041302D01*
X0145256Y0042053D01*
X0142625Y0042053D01*
X0142516Y0042162D01*
X0140309Y0042162D01*
X0140025Y0042447D01*
X0139733Y0042447D01*
X0136857Y0039571D01*
X0135686Y0038399D01*
X0134849Y0038399D01*
X0134849Y0036711D01*
X0134088Y0035949D01*
X0127499Y0035949D01*
X0126737Y0036711D01*
X0126737Y0044087D01*
X0127499Y0044849D01*
X0128793Y0044849D01*
X0128793Y0047856D01*
X0127158Y0047856D01*
X0126397Y0048618D01*
X0126397Y0050177D01*
X0125480Y0051093D01*
X0122675Y0053898D01*
X0122692Y0053835D01*
X0122692Y0051632D01*
X0118619Y0051632D01*
X0118619Y0050473D01*
X0122692Y0050473D01*
X0122692Y0048270D01*
X0122576Y0047837D01*
X0122352Y0047450D01*
X0122036Y0047133D01*
X0121648Y0046909D01*
X0121216Y0046793D01*
X0118619Y0046793D01*
X0118619Y0050473D01*
X0117460Y0050473D01*
X0117460Y0046793D01*
X0114862Y0046793D01*
X0114430Y0046909D01*
X0114042Y0047133D01*
X0113726Y0047450D01*
X0113502Y0047837D01*
X0113386Y0048270D01*
X0113386Y0050473D01*
X0117459Y0050473D01*
X0117459Y0051632D01*
X0113386Y0051632D01*
X0113386Y0053835D01*
X0113502Y0054268D01*
X0113726Y0054655D01*
X0114042Y0054972D01*
X0114174Y0055048D01*
X0113786Y0055435D01*
X0113786Y0061630D01*
X0114548Y0062392D01*
X0116039Y0062392D01*
X0116039Y0063953D01*
X0115896Y0063607D01*
X0115094Y0062806D01*
X0114047Y0062372D01*
X0112913Y0062372D01*
X0111866Y0062806D01*
X0111144Y0063527D01*
X0110069Y0063527D01*
X0110069Y0062377D01*
X0105417Y0062377D01*
X0109324Y0062377D01*
X0112780Y0058922D01*
X0112780Y0052622D01*
X0114180Y0051222D01*
X0117870Y0051222D01*
X0118039Y0051052D01*
X0117459Y0051525D02*
X0109669Y0051525D01*
X0109669Y0052923D02*
X0113386Y0052923D01*
X0113533Y0054322D02*
X0109669Y0054322D01*
X0109669Y0055720D02*
X0113786Y0055720D01*
X0113786Y0057119D02*
X0109669Y0057119D01*
X0109669Y0058517D02*
X0113786Y0058517D01*
X0113786Y0059916D02*
X0109669Y0059916D01*
X0110069Y0061314D02*
X0113786Y0061314D01*
X0114870Y0062713D02*
X0116039Y0062713D01*
X0113480Y0065222D02*
X0113175Y0065527D01*
X0105417Y0065527D01*
X0101164Y0065510D02*
X0097980Y0065510D01*
X0097980Y0064111D02*
X0100934Y0064111D01*
X0100880Y0064018D02*
X0100764Y0063585D01*
X0100764Y0062377D01*
X0105417Y0062377D01*
X0105417Y0062377D01*
X0105417Y0059228D02*
X0097074Y0059228D01*
X0095980Y0058134D01*
X0095980Y0052622D01*
X0095980Y0043522D01*
X0094580Y0042122D01*
X0081280Y0042122D01*
X0079432Y0040274D01*
X0079432Y0036393D01*
X0076380Y0036490D02*
X0076283Y0036393D01*
X0076283Y0040625D01*
X0081280Y0045622D01*
X0079880Y0049822D02*
X0088980Y0049822D01*
X0083380Y0053322D02*
X0088980Y0058922D01*
X0091780Y0058922D01*
X0087145Y0059916D02*
X0084653Y0059916D01*
X0084830Y0059489D02*
X0084396Y0060536D01*
X0083594Y0061338D01*
X0082547Y0061772D01*
X0081413Y0061772D01*
X0080366Y0061338D01*
X0079950Y0060922D01*
X0078352Y0060922D01*
X0072780Y0055350D01*
X0072780Y0056650D01*
X0072780Y0057591D01*
X0073196Y0058007D01*
X0073630Y0059055D01*
X0073630Y0060189D01*
X0073196Y0061236D01*
X0072394Y0062038D01*
X0071347Y0062472D01*
X0070213Y0062472D01*
X0069166Y0062038D01*
X0068364Y0061236D01*
X0067930Y0060189D01*
X0067930Y0059055D01*
X0068364Y0058007D01*
X0068780Y0057591D01*
X0068780Y0056650D01*
X0064000Y0051870D01*
X0064000Y0054451D01*
X0063948Y0054503D01*
X0064000Y0054555D01*
X0064000Y0057139D01*
X0064060Y0057200D01*
X0064284Y0057587D01*
X0064400Y0058020D01*
X0064400Y0059228D01*
X0064400Y0060422D01*
X0066708Y0060422D01*
X0067880Y0061593D01*
X0072264Y0065977D01*
X0093796Y0065977D01*
X0093980Y0065793D01*
X0093980Y0063250D01*
X0093936Y0063206D01*
X0093936Y0061549D01*
X0093980Y0061505D01*
X0093980Y0060752D01*
X0093394Y0061338D01*
X0092347Y0061772D01*
X0091213Y0061772D01*
X0090166Y0061338D01*
X0089750Y0060922D01*
X0088152Y0060922D01*
X0082552Y0055322D01*
X0078408Y0055322D01*
X0079979Y0056892D01*
X0080366Y0056506D01*
X0081413Y0056072D01*
X0082547Y0056072D01*
X0083594Y0056506D01*
X0084396Y0057307D01*
X0084830Y0058355D01*
X0084830Y0059489D01*
X0084830Y0058517D02*
X0085747Y0058517D01*
X0084348Y0057119D02*
X0084207Y0057119D01*
X0081980Y0058922D02*
X0079180Y0058922D01*
X0066888Y0046629D01*
X0059747Y0046629D01*
X0059747Y0043480D02*
X0067938Y0043480D01*
X0077780Y0053322D01*
X0083380Y0053322D01*
X0082950Y0055720D02*
X0078807Y0055720D01*
X0074548Y0057119D02*
X0072780Y0057119D01*
X0073407Y0058517D02*
X0075947Y0058517D01*
X0077345Y0059916D02*
X0073630Y0059916D01*
X0073118Y0061314D02*
X0080342Y0061314D01*
X0083618Y0061314D02*
X0090142Y0061314D01*
X0093418Y0061314D02*
X0093980Y0061314D01*
X0095936Y0062377D02*
X0095980Y0062422D01*
X0095980Y0060322D01*
X0097074Y0059228D01*
X0097980Y0061314D02*
X0100764Y0061314D01*
X0100764Y0062713D02*
X0097980Y0062713D01*
X0095980Y0062422D02*
X0095980Y0066622D01*
X0094624Y0067977D01*
X0071436Y0067977D01*
X0065880Y0062422D01*
X0059792Y0062422D01*
X0059747Y0062377D01*
X0056124Y0062377D01*
X0051880Y0066622D01*
X0042080Y0066622D01*
X0039114Y0069588D01*
X0039114Y0072111D01*
X0039114Y0061187D01*
X0039122Y0061179D01*
X0039122Y0050968D01*
X0034111Y0045957D01*
X0026093Y0045957D01*
X0020324Y0044532D02*
X0019612Y0044532D01*
X0019612Y0045930D02*
X0020037Y0045930D01*
X0020302Y0047329D02*
X0019612Y0047329D01*
X0019612Y0048728D02*
X0020743Y0048728D01*
X0020078Y0050126D02*
X0019612Y0050126D01*
X0019612Y0051525D02*
X0020037Y0051525D01*
X0019612Y0052923D02*
X0020548Y0052923D01*
X0020411Y0054322D02*
X0019612Y0054322D01*
X0019612Y0055720D02*
X0020037Y0055720D01*
X0020215Y0057119D02*
X0019612Y0057119D01*
X0019612Y0058517D02*
X0020953Y0058517D01*
X0020165Y0059916D02*
X0019612Y0059916D01*
X0019612Y0061314D02*
X0020037Y0061314D01*
X0020461Y0062713D02*
X0019612Y0062713D01*
X0019612Y0064111D02*
X0020498Y0064111D01*
X0020037Y0065510D02*
X0019612Y0065510D01*
X0019612Y0066908D02*
X0020128Y0066908D01*
X0019612Y0068307D02*
X0020863Y0068307D01*
X0020252Y0069705D02*
X0019612Y0069705D01*
X0019612Y0071104D02*
X0020037Y0071104D01*
X0020374Y0072502D02*
X0019612Y0072502D01*
X0019612Y0073901D02*
X0020585Y0073901D01*
X0020037Y0075299D02*
X0019612Y0075299D01*
X0019612Y0076698D02*
X0020040Y0076698D01*
X0019612Y0078096D02*
X0020652Y0078096D01*
X0020339Y0079495D02*
X0019612Y0079495D01*
X0019612Y0080893D02*
X0020037Y0080893D01*
X0020286Y0082292D02*
X0019612Y0082292D01*
X0019612Y0083690D02*
X0021246Y0083690D01*
X0019612Y0085089D02*
X0035656Y0085089D01*
X0035656Y0083690D02*
X0030939Y0083690D01*
X0031899Y0082292D02*
X0039336Y0082292D01*
X0039336Y0080893D02*
X0040495Y0080893D01*
X0040495Y0079495D02*
X0039336Y0079495D01*
X0039336Y0078096D02*
X0040495Y0078096D01*
X0043482Y0078096D02*
X0065025Y0078096D01*
X0064550Y0079495D02*
X0063184Y0079495D01*
X0063830Y0080893D02*
X0064550Y0080893D01*
X0060980Y0081322D02*
X0059872Y0082430D01*
X0047396Y0082430D01*
X0051255Y0085089D02*
X0064550Y0085089D01*
X0064550Y0083690D02*
X0062642Y0083690D01*
X0063663Y0082292D02*
X0064550Y0082292D01*
X0058777Y0079495D02*
X0051255Y0079495D01*
X0049624Y0076698D02*
X0055694Y0076698D01*
X0055495Y0075299D02*
X0050850Y0075299D01*
X0050853Y0073901D02*
X0055495Y0073901D01*
X0055495Y0072502D02*
X0047174Y0072502D01*
X0047173Y0073901D02*
X0046014Y0073901D01*
X0046014Y0075299D02*
X0047173Y0075299D01*
X0047173Y0076698D02*
X0046014Y0076698D01*
X0043564Y0076698D02*
X0032145Y0076698D01*
X0031533Y0078096D02*
X0036348Y0078096D01*
X0035656Y0079495D02*
X0031846Y0079495D01*
X0032149Y0080893D02*
X0035656Y0080893D01*
X0035255Y0075299D02*
X0032149Y0075299D01*
X0031600Y0073901D02*
X0035255Y0073901D01*
X0035255Y0072502D02*
X0031812Y0072502D01*
X0032149Y0071104D02*
X0035255Y0071104D01*
X0035255Y0069705D02*
X0031933Y0069705D01*
X0031323Y0068307D02*
X0035568Y0068307D01*
X0037114Y0066908D02*
X0032058Y0066908D01*
X0032149Y0065510D02*
X0037114Y0065510D01*
X0035255Y0064111D02*
X0031687Y0064111D01*
X0031724Y0062713D02*
X0035255Y0062713D01*
X0035255Y0061314D02*
X0032149Y0061314D01*
X0032020Y0059916D02*
X0035255Y0059916D01*
X0035255Y0058517D02*
X0031232Y0058517D01*
X0031970Y0057119D02*
X0035832Y0057119D01*
X0037122Y0055720D02*
X0032149Y0055720D01*
X0031774Y0054322D02*
X0035263Y0054322D01*
X0035263Y0052923D02*
X0031637Y0052923D01*
X0032149Y0051525D02*
X0035263Y0051525D01*
X0035263Y0050126D02*
X0032107Y0050126D01*
X0031442Y0048728D02*
X0034053Y0048728D01*
X0037698Y0046715D02*
X0042219Y0046715D01*
X0042607Y0047103D01*
X0042683Y0046971D01*
X0042999Y0046655D01*
X0043387Y0046431D01*
X0043819Y0046315D01*
X0046023Y0046315D01*
X0046023Y0050388D01*
X0047182Y0050388D01*
X0047182Y0046315D01*
X0049385Y0046315D01*
X0049817Y0046431D01*
X0050205Y0046655D01*
X0050522Y0046971D01*
X0050745Y0047359D01*
X0050861Y0047791D01*
X0050861Y0050389D01*
X0047182Y0050389D01*
X0047182Y0051548D01*
X0046023Y0051548D01*
X0046023Y0055621D01*
X0043819Y0055621D01*
X0043387Y0055505D01*
X0042999Y0055281D01*
X0042683Y0054965D01*
X0042607Y0054833D01*
X0042219Y0055221D01*
X0041122Y0055221D01*
X0041122Y0056934D01*
X0042211Y0056934D01*
X0042599Y0057322D01*
X0042675Y0057191D01*
X0042991Y0056874D01*
X0043379Y0056650D01*
X0043811Y0056534D01*
X0046014Y0056534D01*
X0046014Y0060608D01*
X0047173Y0060608D01*
X0047173Y0056534D01*
X0049377Y0056534D01*
X0049809Y0056650D01*
X0050197Y0056874D01*
X0050513Y0057191D01*
X0050737Y0057578D01*
X0050853Y0058011D01*
X0050853Y0060608D01*
X0047174Y0060608D01*
X0047174Y0061767D01*
X0050853Y0061767D01*
X0050853Y0064364D01*
X0050784Y0064622D01*
X0051052Y0064622D01*
X0055125Y0060549D01*
X0055095Y0060436D01*
X0055095Y0059228D01*
X0059747Y0059228D01*
X0059747Y0059228D01*
X0055095Y0059228D01*
X0055095Y0058020D01*
X0055210Y0057587D01*
X0055434Y0057200D01*
X0055495Y0057139D01*
X0055495Y0054622D01*
X0054552Y0054622D01*
X0053380Y0053450D01*
X0051980Y0052050D01*
X0051980Y0042950D01*
X0031987Y0022957D01*
X0031623Y0022957D01*
X0031589Y0023041D01*
X0031172Y0023457D01*
X0031589Y0023874D01*
X0032149Y0025226D01*
X0032149Y0026689D01*
X0031589Y0028041D01*
X0031172Y0028457D01*
X0031589Y0028874D01*
X0032149Y0030226D01*
X0032149Y0031689D01*
X0031589Y0033041D01*
X0031172Y0033457D01*
X0031589Y0033874D01*
X0032149Y0035226D01*
X0032149Y0036689D01*
X0031589Y0038041D01*
X0031455Y0038174D01*
X0031581Y0038301D01*
X0031958Y0038820D01*
X0032250Y0039392D01*
X0032448Y0040002D01*
X0032549Y0040636D01*
X0032549Y0040957D01*
X0026093Y0040957D01*
X0026093Y0040957D01*
X0032549Y0040957D01*
X0032549Y0041278D01*
X0032448Y0041912D01*
X0032250Y0042523D01*
X0031958Y0043095D01*
X0031581Y0043614D01*
X0031455Y0043740D01*
X0031589Y0043874D01*
X0031623Y0043957D01*
X0034939Y0043957D01*
X0037698Y0046715D01*
X0036913Y0045930D02*
X0051980Y0045930D01*
X0051980Y0044532D02*
X0035514Y0044532D01*
X0031930Y0043133D02*
X0051980Y0043133D01*
X0050765Y0041735D02*
X0032476Y0041735D01*
X0032501Y0040336D02*
X0049366Y0040336D01*
X0047968Y0038938D02*
X0032018Y0038938D01*
X0031796Y0037539D02*
X0046569Y0037539D01*
X0045171Y0036141D02*
X0032149Y0036141D01*
X0031948Y0034742D02*
X0043772Y0034742D01*
X0042374Y0033344D02*
X0031285Y0033344D01*
X0032042Y0031945D02*
X0040975Y0031945D01*
X0039577Y0030547D02*
X0032149Y0030547D01*
X0031702Y0029148D02*
X0038178Y0029148D01*
X0036780Y0027750D02*
X0031709Y0027750D01*
X0032149Y0026351D02*
X0035381Y0026351D01*
X0033983Y0024953D02*
X0032036Y0024953D01*
X0032584Y0023554D02*
X0031269Y0023554D01*
X0032815Y0020957D02*
X0026093Y0020957D01*
X0020916Y0023554D02*
X0019612Y0023554D01*
X0019612Y0022156D02*
X0020230Y0022156D01*
X0020037Y0020757D02*
X0019612Y0020757D01*
X0019612Y0019359D02*
X0020396Y0019359D01*
X0019612Y0017960D02*
X0021510Y0017960D01*
X0019612Y0016562D02*
X0038717Y0016562D01*
X0038717Y0017960D02*
X0030675Y0017960D01*
X0034045Y0019359D02*
X0038717Y0019359D01*
X0038717Y0020757D02*
X0035444Y0020757D01*
X0032815Y0020957D02*
X0053980Y0042122D01*
X0053980Y0051222D01*
X0055380Y0052622D01*
X0059441Y0052622D01*
X0059747Y0052929D01*
X0064000Y0052923D02*
X0065053Y0052923D01*
X0064000Y0054322D02*
X0066451Y0054322D01*
X0067850Y0055720D02*
X0064000Y0055720D01*
X0064000Y0057119D02*
X0068780Y0057119D01*
X0068153Y0058517D02*
X0064400Y0058517D01*
X0064400Y0059228D02*
X0059747Y0059228D01*
X0064400Y0059228D01*
X0064400Y0059916D02*
X0067930Y0059916D01*
X0067601Y0061314D02*
X0068442Y0061314D01*
X0070780Y0059622D02*
X0070780Y0055822D01*
X0064780Y0049822D01*
X0059790Y0049822D01*
X0059747Y0049779D01*
X0052853Y0052923D02*
X0050861Y0052923D01*
X0050861Y0054145D02*
X0050745Y0054577D01*
X0050522Y0054965D01*
X0050205Y0055281D01*
X0049817Y0055505D01*
X0049385Y0055621D01*
X0047182Y0055621D01*
X0047182Y0051548D01*
X0050861Y0051548D01*
X0050861Y0054145D01*
X0050814Y0054322D02*
X0054251Y0054322D01*
X0055495Y0055720D02*
X0041122Y0055720D01*
X0042395Y0057119D02*
X0042747Y0057119D01*
X0046014Y0057119D02*
X0047173Y0057119D01*
X0047173Y0058517D02*
X0046014Y0058517D01*
X0046014Y0059916D02*
X0047173Y0059916D01*
X0047174Y0061314D02*
X0054359Y0061314D01*
X0055095Y0059916D02*
X0050853Y0059916D01*
X0050853Y0058517D02*
X0055095Y0058517D01*
X0055495Y0057119D02*
X0050441Y0057119D01*
X0047182Y0054322D02*
X0046023Y0054322D01*
X0046023Y0052923D02*
X0047182Y0052923D01*
X0047182Y0051525D02*
X0051980Y0051525D01*
X0051980Y0050126D02*
X0050861Y0050126D01*
X0050861Y0048728D02*
X0051980Y0048728D01*
X0051980Y0047329D02*
X0050728Y0047329D01*
X0047182Y0047329D02*
X0046023Y0047329D01*
X0046023Y0048728D02*
X0047182Y0048728D01*
X0047182Y0050126D02*
X0046023Y0050126D01*
X0059747Y0059228D02*
X0059747Y0059228D01*
X0052961Y0062713D02*
X0050853Y0062713D01*
X0050853Y0064111D02*
X0051562Y0064111D01*
X0054422Y0066908D02*
X0055495Y0066908D01*
X0055495Y0068307D02*
X0053024Y0068307D01*
X0050853Y0069705D02*
X0055495Y0069705D01*
X0055495Y0071104D02*
X0050853Y0071104D01*
X0064000Y0071104D02*
X0093980Y0071104D01*
X0097980Y0071104D02*
X0101164Y0071104D01*
X0101164Y0070303D02*
X0101216Y0070251D01*
X0101164Y0070199D01*
X0101164Y0067154D01*
X0101216Y0067102D01*
X0101164Y0067050D01*
X0101164Y0064466D01*
X0101104Y0064405D01*
X0100880Y0064018D01*
X0095980Y0066622D02*
X0095980Y0073622D01*
X0088280Y0073622D01*
X0085732Y0076170D01*
X0085732Y0082062D01*
X0082582Y0082292D02*
X0082582Y0082292D01*
X0082582Y0083690D02*
X0082582Y0083690D01*
X0082582Y0085089D02*
X0082582Y0085089D01*
X0082582Y0086487D02*
X0082582Y0086487D01*
X0080748Y0086487D02*
X0050689Y0086487D01*
X0044103Y0086487D02*
X0043774Y0086487D01*
X0036057Y0086487D02*
X0019612Y0086487D01*
X0063801Y0076698D02*
X0066325Y0076698D01*
X0065830Y0075299D02*
X0064000Y0075299D01*
X0064000Y0073901D02*
X0066060Y0073901D01*
X0067315Y0072502D02*
X0064000Y0072502D01*
X0068680Y0075022D02*
X0078480Y0075022D01*
X0079432Y0075974D01*
X0079432Y0082062D01*
X0082582Y0080893D02*
X0082582Y0080893D01*
X0082582Y0079495D02*
X0082582Y0079495D01*
X0082582Y0078096D02*
X0082582Y0078096D01*
X0081432Y0076698D02*
X0083732Y0076698D01*
X0083774Y0075299D02*
X0081432Y0075299D01*
X0080187Y0073901D02*
X0085173Y0073901D01*
X0086571Y0072502D02*
X0070045Y0072502D01*
X0070335Y0069705D02*
X0064000Y0069705D01*
X0064000Y0068307D02*
X0068936Y0068307D01*
X0067538Y0066908D02*
X0064000Y0066908D01*
X0064000Y0065510D02*
X0066139Y0065510D01*
X0068999Y0062713D02*
X0093936Y0062713D01*
X0093980Y0064111D02*
X0070398Y0064111D01*
X0071796Y0065510D02*
X0093980Y0065510D01*
X0097980Y0066908D02*
X0101164Y0066908D01*
X0101164Y0068307D02*
X0097980Y0068307D01*
X0097980Y0069705D02*
X0101164Y0069705D01*
X0101164Y0070303D02*
X0101164Y0073349D01*
X0101216Y0073401D01*
X0101164Y0073453D01*
X0101164Y0076499D01*
X0101925Y0077260D01*
X0108908Y0077260D01*
X0109669Y0076499D01*
X0109669Y0073453D01*
X0109617Y0073401D01*
X0109669Y0073349D01*
X0109669Y0070677D01*
X0109806Y0070677D01*
X0116852Y0077722D01*
X0125508Y0077722D01*
X0129413Y0073817D01*
X0129671Y0073559D01*
X0131682Y0073559D01*
X0132444Y0072797D01*
X0132444Y0071306D01*
X0148724Y0071306D01*
X0152808Y0067222D01*
X0153980Y0066050D01*
X0153980Y0062479D01*
X0154772Y0062479D01*
X0155533Y0061717D01*
X0155533Y0059133D01*
X0155594Y0059073D01*
X0155818Y0058685D01*
X0155933Y0058253D01*
X0155933Y0057045D01*
X0152021Y0057045D01*
X0148109Y0057045D01*
X0148109Y0055837D01*
X0148225Y0055405D01*
X0148449Y0055017D01*
X0148509Y0054957D01*
X0148509Y0052373D01*
X0148561Y0052321D01*
X0148509Y0052269D01*
X0148509Y0049223D01*
X0148561Y0049171D01*
X0148509Y0049119D01*
X0148509Y0047565D01*
X0146972Y0047565D01*
X0146972Y0047596D01*
X0143060Y0047596D01*
X0143060Y0047596D01*
X0146972Y0047596D01*
X0146972Y0048804D01*
X0146874Y0049171D01*
X0146972Y0049538D01*
X0146972Y0050746D01*
X0146972Y0051954D01*
X0146856Y0052386D01*
X0146632Y0052774D01*
X0146572Y0052834D01*
X0146572Y0054957D01*
X0146632Y0055017D01*
X0146856Y0055405D01*
X0146972Y0055837D01*
X0146972Y0057045D01*
X0143060Y0057045D01*
X0143060Y0057045D01*
X0146972Y0057045D01*
X0146972Y0057076D01*
X0148109Y0057076D01*
X0148109Y0057045D01*
X0152021Y0057045D01*
X0152021Y0057045D01*
X0155933Y0057045D01*
X0155933Y0055837D01*
X0155818Y0055405D01*
X0155594Y0055017D01*
X0155533Y0054957D01*
X0155533Y0052373D01*
X0155481Y0052321D01*
X0155533Y0052269D01*
X0155533Y0049223D01*
X0155481Y0049171D01*
X0155533Y0049119D01*
X0155533Y0046073D01*
X0155466Y0046006D01*
X0155503Y0045969D01*
X0155503Y0042924D01*
X0154742Y0042162D01*
X0149825Y0042162D01*
X0149825Y0041505D01*
X0150008Y0041322D01*
X0158072Y0041322D01*
X0158072Y0044047D01*
X0158714Y0044689D01*
X0158072Y0045332D01*
X0158072Y0051527D01*
X0158778Y0052233D01*
X0158227Y0052784D01*
X0158227Y0058979D01*
X0158615Y0059367D01*
X0158483Y0059443D01*
X0158167Y0059759D01*
X0157943Y0060147D01*
X0157827Y0060579D01*
X0157827Y0062782D01*
X0161900Y0062782D01*
X0161900Y0063941D01*
X0157827Y0063941D01*
X0157827Y0066145D01*
X0157943Y0066577D01*
X0158167Y0066965D01*
X0158483Y0067281D01*
X0158871Y0067505D01*
X0159303Y0067621D01*
X0161650Y0067621D01*
X0161464Y0067807D01*
X0161030Y0068855D01*
X0161030Y0069989D01*
X0161417Y0070922D01*
X0157511Y0070922D01*
X0157094Y0070506D01*
X0156047Y0070072D01*
X0154913Y0070072D01*
X0153866Y0070506D01*
X0153064Y0071307D01*
X0152630Y0072355D01*
X0152630Y0073489D01*
X0153064Y0074536D01*
X0153866Y0075338D01*
X0154913Y0075772D01*
X0156047Y0075772D01*
X0157094Y0075338D01*
X0157511Y0074922D01*
X0163752Y0074922D01*
X0164442Y0075613D01*
X0162775Y0074922D01*
X0160785Y0074922D01*
X0158948Y0075683D01*
X0157541Y0077089D01*
X0156780Y0078927D01*
X0156780Y0080916D01*
X0156435Y0081749D01*
X0158908Y0084222D01*
X0159096Y0084222D01*
X0158948Y0084161D01*
X0157541Y0082754D01*
X0156780Y0080916D01*
X0156780Y0078927D01*
X0156780Y0079495D02*
X0156780Y0079495D01*
X0156780Y0080893D02*
X0156780Y0080893D01*
X0156978Y0082292D02*
X0157350Y0082292D01*
X0158377Y0083690D02*
X0158477Y0083690D01*
X0158080Y0086222D02*
X0168956Y0086222D01*
X0170356Y0084822D01*
X0174019Y0085089D02*
X0188741Y0085089D01*
X0188741Y0086487D02*
X0174019Y0086487D01*
X0174019Y0083690D02*
X0188741Y0083690D01*
X0189492Y0082292D02*
X0173268Y0082292D01*
X0167445Y0082292D02*
X0166210Y0082292D01*
X0166694Y0083690D02*
X0165083Y0083690D01*
X0158080Y0086222D02*
X0151780Y0079922D01*
X0147124Y0078096D02*
X0146379Y0078096D01*
X0146379Y0079495D02*
X0146780Y0079495D01*
X0146780Y0080893D02*
X0141979Y0080893D01*
X0141379Y0080893D02*
X0135979Y0080893D01*
X0135979Y0079495D02*
X0136979Y0079495D01*
X0136979Y0078096D02*
X0135979Y0078096D01*
X0135721Y0076698D02*
X0137218Y0076698D01*
X0137960Y0075299D02*
X0134883Y0075299D01*
X0132592Y0073901D02*
X0139719Y0073901D01*
X0141379Y0073901D02*
X0141979Y0073901D01*
X0141979Y0075299D02*
X0141379Y0075299D01*
X0143639Y0073901D02*
X0152801Y0073901D01*
X0152630Y0072502D02*
X0132444Y0072502D01*
X0130766Y0073901D02*
X0129329Y0073901D01*
X0128476Y0075299D02*
X0127931Y0075299D01*
X0124680Y0075722D02*
X0128585Y0071817D01*
X0128585Y0069306D01*
X0147896Y0069306D01*
X0151980Y0065222D01*
X0151980Y0060236D01*
X0152021Y0060195D01*
X0147540Y0060588D02*
X0147540Y0061961D01*
X0146380Y0063122D01*
X0126723Y0063122D01*
X0123980Y0063122D01*
X0126723Y0063122D02*
X0130649Y0059196D01*
X0137080Y0057435D02*
X0137367Y0057722D01*
X0138452Y0057722D01*
X0138552Y0057622D01*
X0139148Y0057622D01*
X0139148Y0057045D01*
X0139148Y0055837D01*
X0139263Y0055405D01*
X0139487Y0055017D01*
X0139548Y0054957D01*
X0139548Y0052834D01*
X0139487Y0052774D01*
X0139263Y0052386D01*
X0139148Y0051954D01*
X0139148Y0050746D01*
X0143060Y0050746D01*
X0146972Y0050746D01*
X0143060Y0050746D01*
X0143060Y0050746D01*
X0143060Y0050746D01*
X0139148Y0050746D01*
X0139148Y0049538D01*
X0139246Y0049171D01*
X0139148Y0048804D01*
X0139148Y0047596D01*
X0139148Y0046447D01*
X0138076Y0046447D01*
X0134849Y0043219D01*
X0134849Y0044087D01*
X0134088Y0044849D01*
X0132793Y0044849D01*
X0132793Y0047856D01*
X0134141Y0047856D01*
X0134902Y0048618D01*
X0134902Y0052457D01*
X0135967Y0053522D01*
X0137080Y0054635D01*
X0137080Y0057435D01*
X0137080Y0057119D02*
X0139148Y0057119D01*
X0139148Y0057045D02*
X0143060Y0057045D01*
X0139148Y0057045D01*
X0139179Y0055720D02*
X0137080Y0055720D01*
X0136767Y0054322D02*
X0139548Y0054322D01*
X0139548Y0052923D02*
X0135368Y0052923D01*
X0134902Y0051525D02*
X0139148Y0051525D01*
X0139148Y0050126D02*
X0134902Y0050126D01*
X0134902Y0048728D02*
X0139148Y0048728D01*
X0139148Y0047596D02*
X0143060Y0047596D01*
X0139148Y0047596D01*
X0139148Y0047329D02*
X0132793Y0047329D01*
X0128793Y0047329D02*
X0122232Y0047329D01*
X0122692Y0048728D02*
X0126397Y0048728D01*
X0126397Y0050126D02*
X0122692Y0050126D01*
X0118619Y0050126D02*
X0117460Y0050126D01*
X0117460Y0048728D02*
X0118619Y0048728D01*
X0118619Y0047329D02*
X0117460Y0047329D01*
X0113847Y0047329D02*
X0109669Y0047329D01*
X0109669Y0048728D02*
X0113386Y0048728D01*
X0113386Y0050126D02*
X0109669Y0050126D01*
X0109669Y0045930D02*
X0128793Y0045930D01*
X0127182Y0044532D02*
X0123921Y0044532D01*
X0124226Y0043133D02*
X0126737Y0043133D01*
X0126737Y0041735D02*
X0124226Y0041735D01*
X0126737Y0040336D02*
X0120448Y0040336D01*
X0119092Y0040336D02*
X0100162Y0040336D01*
X0100614Y0038938D02*
X0115314Y0038938D01*
X0115314Y0037539D02*
X0105025Y0037539D01*
X0103735Y0037539D02*
X0100614Y0037539D01*
X0100614Y0036141D02*
X0101883Y0036141D01*
X0101530Y0034742D02*
X0100614Y0034742D01*
X0100614Y0033344D02*
X0101866Y0033344D01*
X0102380Y0031945D02*
X0097180Y0031945D01*
X0095180Y0031022D02*
X0095180Y0036393D01*
X0093180Y0032140D02*
X0090508Y0032140D01*
X0090456Y0032192D01*
X0090404Y0032140D01*
X0087358Y0032140D01*
X0087306Y0032192D01*
X0087254Y0032140D01*
X0084670Y0032140D01*
X0084610Y0032080D01*
X0084222Y0031856D01*
X0083790Y0031740D01*
X0082582Y0031740D01*
X0082582Y0036393D01*
X0082582Y0036393D01*
X0082582Y0031740D01*
X0081374Y0031740D01*
X0080942Y0031856D01*
X0080554Y0032080D01*
X0080494Y0032140D01*
X0077910Y0032140D01*
X0077858Y0032192D01*
X0077806Y0032140D01*
X0077092Y0032140D01*
X0077396Y0031836D01*
X0077830Y0030789D01*
X0077830Y0029655D01*
X0077396Y0028607D01*
X0076594Y0027806D01*
X0075547Y0027372D01*
X0074413Y0027372D01*
X0073366Y0027806D01*
X0072564Y0028607D01*
X0072130Y0029655D01*
X0072130Y0030243D01*
X0071133Y0031240D01*
X0071133Y0032140D01*
X0068580Y0032140D01*
X0068580Y0027834D01*
X0069294Y0027538D01*
X0070096Y0026736D01*
X0070530Y0025689D01*
X0070530Y0024555D01*
X0070096Y0023507D01*
X0069294Y0022706D01*
X0068247Y0022272D01*
X0067113Y0022272D01*
X0066066Y0022706D01*
X0065264Y0023507D01*
X0064939Y0024292D01*
X0064939Y0011472D01*
X0097454Y0011472D01*
X0095706Y0013220D01*
X0095706Y0014867D01*
X0100106Y0014867D01*
X0100106Y0015467D01*
X0095706Y0015467D01*
X0095706Y0017113D01*
X0097033Y0018440D01*
X0092152Y0023322D01*
X0090980Y0024493D01*
X0090980Y0029650D01*
X0092152Y0030822D01*
X0092152Y0030822D01*
X0093180Y0031851D01*
X0093180Y0032140D01*
X0093180Y0031945D02*
X0084377Y0031945D01*
X0082582Y0031945D02*
X0082582Y0031945D01*
X0082582Y0033344D02*
X0082582Y0033344D01*
X0082582Y0034742D02*
X0082582Y0034742D01*
X0082582Y0036141D02*
X0082582Y0036141D01*
X0080787Y0031945D02*
X0077287Y0031945D01*
X0074980Y0030222D02*
X0073133Y0032069D01*
X0073133Y0036393D01*
X0069984Y0036393D02*
X0069984Y0039925D01*
X0079880Y0049822D01*
X0073150Y0055720D02*
X0072780Y0055720D01*
X0097980Y0055720D02*
X0101164Y0055720D01*
X0101164Y0054322D02*
X0098311Y0054322D01*
X0098830Y0052923D02*
X0101164Y0052923D01*
X0101164Y0051525D02*
X0098610Y0051525D01*
X0097980Y0050126D02*
X0101164Y0050126D01*
X0101164Y0048728D02*
X0097980Y0048728D01*
X0097980Y0047329D02*
X0101164Y0047329D01*
X0101164Y0045930D02*
X0097980Y0045930D01*
X0097980Y0044532D02*
X0101164Y0044532D01*
X0101164Y0043133D02*
X0097980Y0043133D01*
X0097022Y0041735D02*
X0101386Y0041735D01*
X0109447Y0041735D02*
X0115314Y0041735D01*
X0115314Y0043133D02*
X0109669Y0043133D01*
X0109669Y0044532D02*
X0115619Y0044532D01*
X0119092Y0044532D02*
X0120448Y0044532D01*
X0120448Y0043133D02*
X0119092Y0043133D01*
X0119092Y0041735D02*
X0120448Y0041735D01*
X0124226Y0038938D02*
X0126737Y0038938D01*
X0126737Y0037539D02*
X0124226Y0037539D01*
X0125789Y0036141D02*
X0127307Y0036141D01*
X0127188Y0034742D02*
X0133918Y0034742D01*
X0133730Y0033344D02*
X0128586Y0033344D01*
X0129985Y0031945D02*
X0134326Y0031945D01*
X0136580Y0033722D02*
X0136899Y0034040D01*
X0145261Y0034040D01*
X0145261Y0035403D01*
X0149180Y0039322D01*
X0147540Y0040961D01*
X0147540Y0044053D01*
X0143453Y0044053D01*
X0143060Y0044447D01*
X0138905Y0044447D01*
X0134857Y0040399D01*
X0130793Y0040399D01*
X0130793Y0051571D01*
X0130649Y0051715D01*
X0130443Y0051922D01*
X0127480Y0051922D01*
X0120869Y0058533D01*
X0118039Y0058533D01*
X0118039Y0066241D01*
X0121104Y0069306D01*
X0113031Y0073901D02*
X0109669Y0073901D01*
X0109669Y0075299D02*
X0114429Y0075299D01*
X0117680Y0075722D02*
X0124680Y0075722D01*
X0126532Y0076698D02*
X0127638Y0076698D01*
X0127379Y0078096D02*
X0100139Y0078096D01*
X0100614Y0079495D02*
X0102877Y0079495D01*
X0102230Y0080893D02*
X0100614Y0080893D01*
X0100614Y0082292D02*
X0102397Y0082292D01*
X0103418Y0083690D02*
X0100614Y0083690D01*
X0100614Y0085089D02*
X0127403Y0085089D01*
X0127379Y0083690D02*
X0106742Y0083690D01*
X0105080Y0081322D02*
X0105225Y0081177D01*
X0131679Y0081177D01*
X0135979Y0082292D02*
X0136979Y0082292D01*
X0136979Y0083690D02*
X0135979Y0083690D01*
X0135956Y0085089D02*
X0137065Y0085089D01*
X0137582Y0086487D02*
X0135377Y0086487D01*
X0127982Y0086487D02*
X0084416Y0086487D01*
X0088032Y0076698D02*
X0101363Y0076698D01*
X0101164Y0075299D02*
X0098333Y0075299D01*
X0098830Y0073901D02*
X0101164Y0073901D01*
X0101164Y0072502D02*
X0098601Y0072502D01*
X0105417Y0068677D02*
X0110635Y0068677D01*
X0117680Y0075722D01*
X0115828Y0076698D02*
X0109470Y0076698D01*
X0109669Y0072502D02*
X0111632Y0072502D01*
X0110234Y0071104D02*
X0109669Y0071104D01*
X0110069Y0062713D02*
X0112090Y0062713D01*
X0101164Y0057119D02*
X0097980Y0057119D01*
X0118619Y0051525D02*
X0125049Y0051525D01*
X0123650Y0052923D02*
X0122692Y0052923D01*
X0132793Y0045930D02*
X0137560Y0045930D01*
X0136162Y0044532D02*
X0134404Y0044532D01*
X0139022Y0041735D02*
X0145256Y0041735D01*
X0149825Y0041735D02*
X0158072Y0041735D01*
X0158072Y0043133D02*
X0155503Y0043133D01*
X0155503Y0044532D02*
X0158557Y0044532D01*
X0158072Y0045930D02*
X0155503Y0045930D01*
X0155533Y0047329D02*
X0158072Y0047329D01*
X0158072Y0048728D02*
X0155533Y0048728D01*
X0155533Y0050126D02*
X0158072Y0050126D01*
X0158072Y0051525D02*
X0155533Y0051525D01*
X0155533Y0052923D02*
X0158227Y0052923D01*
X0158227Y0054322D02*
X0155533Y0054322D01*
X0155902Y0055720D02*
X0158227Y0055720D01*
X0160925Y0055726D02*
X0162480Y0055882D01*
X0169297Y0055882D01*
X0170356Y0054822D01*
X0174019Y0054322D02*
X0188741Y0054322D01*
X0188741Y0055720D02*
X0174019Y0055720D01*
X0173482Y0057119D02*
X0189319Y0057119D01*
X0188741Y0058517D02*
X0174419Y0058517D01*
X0174419Y0059822D02*
X0170357Y0059822D01*
X0174419Y0059822D01*
X0174419Y0059916D02*
X0188741Y0059916D01*
X0188741Y0061314D02*
X0174395Y0061314D01*
X0173629Y0062713D02*
X0189131Y0062713D01*
X0188741Y0064111D02*
X0174019Y0064111D01*
X0174019Y0065510D02*
X0188741Y0065510D01*
X0192404Y0064822D02*
X0198580Y0064822D01*
X0203780Y0059622D01*
X0207695Y0059622D01*
X0207849Y0059468D01*
X0215724Y0059468D01*
X0215812Y0059556D01*
X0220064Y0059916D02*
X0221123Y0059916D01*
X0216391Y0051496D02*
X0216391Y0048021D01*
X0216260Y0048021D01*
X0216260Y0044342D01*
X0216260Y0044341D02*
X0220333Y0044341D01*
X0220333Y0046545D01*
X0220217Y0046977D01*
X0219993Y0047365D01*
X0219677Y0047681D01*
X0219299Y0047899D01*
X0219420Y0047932D01*
X0219808Y0048156D01*
X0220125Y0048472D01*
X0220348Y0048860D01*
X0220464Y0049292D01*
X0220464Y0051056D01*
X0221444Y0050076D01*
X0223025Y0049422D01*
X0224880Y0049422D01*
X0224880Y0043650D01*
X0219933Y0038703D01*
X0219933Y0039379D01*
X0219545Y0039767D01*
X0219677Y0039843D01*
X0219993Y0040159D01*
X0220217Y0040547D01*
X0220333Y0040979D01*
X0220333Y0043182D01*
X0216260Y0043182D01*
X0216260Y0044341D01*
X0216260Y0044342D02*
X0215100Y0044342D01*
X0215100Y0047816D01*
X0215232Y0047816D01*
X0215232Y0051496D01*
X0216391Y0051496D01*
X0216391Y0050126D02*
X0215232Y0050126D01*
X0215232Y0048728D02*
X0216391Y0048728D01*
X0216260Y0047329D02*
X0215100Y0047329D01*
X0212193Y0047938D02*
X0212071Y0047905D01*
X0211683Y0047681D01*
X0211367Y0047365D01*
X0211143Y0046977D01*
X0211027Y0046545D01*
X0211027Y0044341D01*
X0215100Y0044341D01*
X0215100Y0043182D01*
X0211027Y0043182D01*
X0211027Y0040979D01*
X0211143Y0040547D01*
X0211367Y0040159D01*
X0211683Y0039843D01*
X0211815Y0039767D01*
X0211427Y0039379D01*
X0211427Y0038143D01*
X0211329Y0038143D01*
X0211329Y0039635D01*
X0210568Y0040396D01*
X0209743Y0040396D01*
X0209743Y0040516D01*
X0209856Y0040516D01*
X0210618Y0041278D01*
X0210618Y0047079D01*
X0209856Y0047841D01*
X0205629Y0047841D01*
X0204868Y0047079D01*
X0204868Y0041278D01*
X0205629Y0040516D01*
X0205743Y0040516D01*
X0205743Y0040396D01*
X0204373Y0040396D01*
X0203985Y0040009D01*
X0203909Y0040140D01*
X0203593Y0040457D01*
X0203205Y0040680D01*
X0202991Y0040738D01*
X0203531Y0041278D01*
X0203531Y0047079D01*
X0202769Y0047841D01*
X0202280Y0047841D01*
X0202280Y0049988D01*
X0203596Y0049988D01*
X0203596Y0048890D01*
X0204357Y0048129D01*
X0211340Y0048129D01*
X0211591Y0048380D01*
X0211815Y0048156D01*
X0212193Y0047938D01*
X0211346Y0047329D02*
X0210368Y0047329D01*
X0210618Y0045930D02*
X0211027Y0045930D01*
X0211027Y0044532D02*
X0210618Y0044532D01*
X0210618Y0043133D02*
X0211027Y0043133D01*
X0211027Y0041735D02*
X0210618Y0041735D01*
X0210627Y0040336D02*
X0211264Y0040336D01*
X0211329Y0038938D02*
X0211427Y0038938D01*
X0204868Y0041735D02*
X0203531Y0041735D01*
X0203531Y0043133D02*
X0204868Y0043133D01*
X0204868Y0044532D02*
X0203531Y0044532D01*
X0203531Y0045930D02*
X0204868Y0045930D01*
X0200656Y0044178D02*
X0198137Y0044178D01*
X0191880Y0037922D01*
X0191880Y0033022D01*
X0190349Y0031491D01*
X0184180Y0031491D01*
X0181305Y0031945D02*
X0172356Y0031945D01*
X0172356Y0033344D02*
X0181305Y0033344D01*
X0181305Y0033801D02*
X0181305Y0029181D01*
X0182067Y0028419D01*
X0186293Y0028419D01*
X0187055Y0029181D01*
X0187055Y0029491D01*
X0191178Y0029491D01*
X0193880Y0032193D01*
X0193880Y0037093D01*
X0195731Y0038944D01*
X0195731Y0036723D01*
X0199410Y0036723D01*
X0199410Y0035564D01*
X0195731Y0035564D01*
X0195731Y0032967D01*
X0195847Y0032535D01*
X0196070Y0032147D01*
X0196387Y0031830D01*
X0196775Y0031607D01*
X0197207Y0031491D01*
X0199410Y0031491D01*
X0199410Y0035564D01*
X0200569Y0035564D01*
X0200569Y0031491D01*
X0202773Y0031491D01*
X0203205Y0031607D01*
X0203593Y0031830D01*
X0203909Y0032147D01*
X0203985Y0032278D01*
X0204373Y0031891D01*
X0210568Y0031891D01*
X0211329Y0032652D01*
X0211329Y0034143D01*
X0211427Y0034143D01*
X0211427Y0033184D01*
X0212189Y0032423D01*
X0219171Y0032423D01*
X0219933Y0033184D01*
X0219933Y0034282D01*
X0221168Y0034282D01*
X0227708Y0040822D01*
X0228880Y0041993D01*
X0228880Y0049422D01*
X0230684Y0049422D01*
X0230684Y0011472D01*
X0122793Y0011472D01*
X0124706Y0013386D01*
X0124706Y0016948D01*
X0122187Y0019467D01*
X0118934Y0019467D01*
X0117351Y0021050D01*
X0116179Y0022222D01*
X0113542Y0022222D01*
X0114706Y0023386D01*
X0114706Y0026948D01*
X0112187Y0029467D01*
X0108625Y0029467D01*
X0106106Y0026948D01*
X0106106Y0023386D01*
X0107270Y0022222D01*
X0103542Y0022222D01*
X0104706Y0023386D01*
X0104706Y0026638D01*
X0105208Y0027141D01*
X0106380Y0028312D01*
X0106380Y0032691D01*
X0106411Y0032722D01*
X0123552Y0032722D01*
X0129988Y0026285D01*
X0129988Y0022001D01*
X0127500Y0022001D01*
X0126738Y0021239D01*
X0126738Y0015862D01*
X0127500Y0015101D01*
X0136476Y0015101D01*
X0137238Y0015862D01*
X0137238Y0021239D01*
X0136476Y0022001D01*
X0133988Y0022001D01*
X0133988Y0026285D01*
X0134524Y0026822D01*
X0151408Y0026822D01*
X0152580Y0027993D01*
X0154374Y0029788D01*
X0155839Y0029788D01*
X0156600Y0030549D01*
X0156600Y0037322D01*
X0158602Y0037322D01*
X0158833Y0037090D01*
X0165816Y0037090D01*
X0166577Y0037852D01*
X0166577Y0038949D01*
X0167901Y0038949D01*
X0168356Y0038493D01*
X0168356Y0025017D01*
X0169528Y0023845D01*
X0170280Y0023093D01*
X0170972Y0022401D01*
X0167763Y0022401D01*
X0167763Y0018926D01*
X0167013Y0018926D01*
X0167013Y0022401D01*
X0163214Y0022401D01*
X0162782Y0022285D01*
X0162394Y0022061D01*
X0162078Y0021745D01*
X0161854Y0021357D01*
X0161738Y0020925D01*
X0161738Y0018926D01*
X0167013Y0018926D01*
X0167013Y0018176D01*
X0161738Y0018176D01*
X0161738Y0016177D01*
X0161854Y0015745D01*
X0162078Y0015357D01*
X0162394Y0015041D01*
X0162782Y0014817D01*
X0163214Y0014701D01*
X0167013Y0014701D01*
X0167013Y0018176D01*
X0167763Y0018176D01*
X0167763Y0014701D01*
X0171562Y0014701D01*
X0171827Y0014772D01*
X0171827Y0013899D01*
X0171943Y0013466D01*
X0172167Y0013079D01*
X0172483Y0012762D01*
X0172871Y0012538D01*
X0173303Y0012423D01*
X0175900Y0012423D01*
X0175900Y0016102D01*
X0177060Y0016102D01*
X0177060Y0017261D01*
X0181133Y0017261D01*
X0183600Y0017261D01*
X0183600Y0016102D01*
X0177060Y0016102D01*
X0177060Y0012423D01*
X0179657Y0012423D01*
X0180089Y0012538D01*
X0180330Y0012678D01*
X0180571Y0012538D01*
X0181003Y0012423D01*
X0183600Y0012423D01*
X0183600Y0016102D01*
X0184760Y0016102D01*
X0184760Y0017261D01*
X0191300Y0017261D01*
X0191300Y0016102D01*
X0187227Y0016102D01*
X0184760Y0016102D01*
X0184760Y0012423D01*
X0187357Y0012423D01*
X0187789Y0012538D01*
X0188030Y0012678D01*
X0188271Y0012538D01*
X0188703Y0012423D01*
X0191300Y0012423D01*
X0191300Y0016102D01*
X0192460Y0016102D01*
X0192460Y0017261D01*
X0196533Y0017261D01*
X0196533Y0019464D01*
X0196417Y0019897D01*
X0196193Y0020284D01*
X0195877Y0020601D01*
X0195745Y0020677D01*
X0196133Y0021064D01*
X0196133Y0027259D01*
X0195371Y0028021D01*
X0188389Y0028021D01*
X0188030Y0027662D01*
X0187671Y0028021D01*
X0180689Y0028021D01*
X0180330Y0027662D01*
X0179971Y0028021D01*
X0172989Y0028021D01*
X0172356Y0027389D01*
X0172356Y0038022D01*
X0177565Y0038022D01*
X0177565Y0037449D01*
X0178327Y0036687D01*
X0182553Y0036687D01*
X0183315Y0037449D01*
X0183315Y0042069D01*
X0182685Y0042698D01*
X0183608Y0043622D01*
X0190552Y0043622D01*
X0189760Y0042830D01*
X0185807Y0042830D01*
X0185045Y0042069D01*
X0185045Y0037449D01*
X0185807Y0036687D01*
X0189880Y0036687D01*
X0189880Y0033850D01*
X0189521Y0033491D01*
X0187055Y0033491D01*
X0187055Y0033801D01*
X0186293Y0034563D01*
X0182067Y0034563D01*
X0181305Y0033801D01*
X0181305Y0030547D02*
X0172356Y0030547D01*
X0172356Y0029148D02*
X0181338Y0029148D01*
X0180418Y0027750D02*
X0180242Y0027750D01*
X0176480Y0024162D02*
X0184180Y0024162D01*
X0191880Y0024162D01*
X0196133Y0023554D02*
X0230684Y0023554D01*
X0230684Y0022156D02*
X0196133Y0022156D01*
X0195826Y0020757D02*
X0230684Y0020757D01*
X0230684Y0019359D02*
X0196533Y0019359D01*
X0196533Y0017960D02*
X0230684Y0017960D01*
X0230684Y0016562D02*
X0192460Y0016562D01*
X0192460Y0016102D02*
X0196533Y0016102D01*
X0196533Y0013899D01*
X0196417Y0013466D01*
X0196193Y0013079D01*
X0195877Y0012762D01*
X0195489Y0012538D01*
X0195057Y0012423D01*
X0192460Y0012423D01*
X0192460Y0016102D01*
X0192460Y0015163D02*
X0191300Y0015163D01*
X0191300Y0013765D02*
X0192460Y0013765D01*
X0196497Y0013765D02*
X0230684Y0013765D01*
X0230684Y0015163D02*
X0196533Y0015163D01*
X0191300Y0016562D02*
X0184760Y0016562D01*
X0183600Y0016562D02*
X0177060Y0016562D01*
X0176480Y0016682D02*
X0174611Y0018551D01*
X0167388Y0018551D01*
X0167013Y0017960D02*
X0167763Y0017960D01*
X0167763Y0016562D02*
X0167013Y0016562D01*
X0167013Y0015163D02*
X0167763Y0015163D01*
X0171863Y0013765D02*
X0124706Y0013765D01*
X0124706Y0015163D02*
X0127437Y0015163D01*
X0126738Y0016562D02*
X0124706Y0016562D01*
X0123693Y0017960D02*
X0126738Y0017960D01*
X0126738Y0019359D02*
X0122295Y0019359D01*
X0122187Y0020867D02*
X0118625Y0020867D01*
X0116106Y0023386D01*
X0116106Y0026948D01*
X0118625Y0029467D01*
X0122187Y0029467D01*
X0124706Y0026948D01*
X0124706Y0023386D01*
X0122187Y0020867D01*
X0123476Y0022156D02*
X0129988Y0022156D01*
X0129988Y0023554D02*
X0124706Y0023554D01*
X0124706Y0024953D02*
X0129988Y0024953D01*
X0129922Y0026351D02*
X0124706Y0026351D01*
X0123904Y0027750D02*
X0128524Y0027750D01*
X0127125Y0029148D02*
X0122505Y0029148D01*
X0125727Y0030547D02*
X0106380Y0030547D01*
X0106380Y0029148D02*
X0108307Y0029148D01*
X0106908Y0027750D02*
X0105818Y0027750D01*
X0106106Y0026351D02*
X0104706Y0026351D01*
X0104706Y0024953D02*
X0106106Y0024953D01*
X0106106Y0023554D02*
X0104706Y0023554D01*
X0100406Y0025167D02*
X0104380Y0029141D01*
X0104380Y0034722D01*
X0124380Y0034722D01*
X0131988Y0027114D01*
X0133696Y0028822D01*
X0150580Y0028822D01*
X0152741Y0030983D01*
X0152741Y0034040D01*
X0156600Y0033344D02*
X0160872Y0033344D01*
X0160764Y0033236D02*
X0160330Y0032189D01*
X0160330Y0031055D01*
X0160764Y0030007D01*
X0161566Y0029206D01*
X0162613Y0028772D01*
X0163747Y0028772D01*
X0164794Y0029206D01*
X0165596Y0030007D01*
X0166030Y0031055D01*
X0166030Y0032189D01*
X0165596Y0033236D01*
X0164794Y0034038D01*
X0163747Y0034472D01*
X0162613Y0034472D01*
X0161566Y0034038D01*
X0160764Y0033236D01*
X0160330Y0031945D02*
X0156600Y0031945D01*
X0156598Y0030547D02*
X0160540Y0030547D01*
X0161704Y0029148D02*
X0153735Y0029148D01*
X0152337Y0027750D02*
X0168356Y0027750D01*
X0168356Y0029148D02*
X0164656Y0029148D01*
X0165820Y0030547D02*
X0168356Y0030547D01*
X0168356Y0031945D02*
X0166030Y0031945D01*
X0165488Y0033344D02*
X0168356Y0033344D01*
X0168356Y0034742D02*
X0156600Y0034742D01*
X0156600Y0036141D02*
X0168356Y0036141D01*
X0168356Y0037539D02*
X0166265Y0037539D01*
X0166577Y0038938D02*
X0167912Y0038938D01*
X0168729Y0040949D02*
X0170356Y0039322D01*
X0171056Y0040022D01*
X0180177Y0040022D01*
X0180440Y0039759D01*
X0180680Y0039999D01*
X0180680Y0043522D01*
X0182780Y0045622D01*
X0190480Y0045622D01*
X0192404Y0047545D01*
X0192404Y0049822D01*
X0188741Y0050126D02*
X0174019Y0050126D01*
X0174019Y0048728D02*
X0188741Y0048728D01*
X0188741Y0051525D02*
X0174019Y0051525D01*
X0173839Y0052923D02*
X0188921Y0052923D01*
X0192404Y0054822D02*
X0192504Y0054722D01*
X0196080Y0054722D01*
X0197480Y0053322D01*
X0197480Y0047722D01*
X0189517Y0039759D01*
X0187920Y0039759D01*
X0185045Y0040336D02*
X0183315Y0040336D01*
X0183315Y0038938D02*
X0185045Y0038938D01*
X0185045Y0037539D02*
X0183315Y0037539D01*
X0177565Y0037539D02*
X0172356Y0037539D01*
X0172356Y0036141D02*
X0189880Y0036141D01*
X0189880Y0034742D02*
X0172356Y0034742D01*
X0170356Y0039322D02*
X0170356Y0049822D01*
X0168356Y0047329D02*
X0166577Y0047329D01*
X0166577Y0048728D02*
X0166694Y0048728D01*
X0166694Y0050126D02*
X0166577Y0050126D01*
X0162325Y0048430D02*
X0162325Y0055726D01*
X0162480Y0055882D01*
X0158227Y0057119D02*
X0155933Y0057119D01*
X0155863Y0058517D02*
X0158227Y0058517D01*
X0158077Y0059916D02*
X0155533Y0059916D01*
X0155533Y0061314D02*
X0157827Y0061314D01*
X0157827Y0062713D02*
X0153980Y0062713D01*
X0153980Y0064111D02*
X0157827Y0064111D01*
X0157827Y0065510D02*
X0153980Y0065510D01*
X0153122Y0066908D02*
X0158134Y0066908D01*
X0161257Y0068307D02*
X0151724Y0068307D01*
X0150325Y0069705D02*
X0161030Y0069705D01*
X0163880Y0069422D02*
X0169956Y0069422D01*
X0170356Y0069822D01*
X0174019Y0069705D02*
X0188341Y0069705D01*
X0188371Y0068307D02*
X0174019Y0068307D01*
X0173652Y0066908D02*
X0189108Y0066908D01*
X0188341Y0071104D02*
X0174019Y0071104D01*
X0173419Y0072502D02*
X0189238Y0072502D01*
X0188741Y0073901D02*
X0174019Y0073901D01*
X0170356Y0074822D02*
X0166480Y0074822D01*
X0164580Y0072922D01*
X0155480Y0072922D01*
X0153268Y0071104D02*
X0148927Y0071104D01*
X0149874Y0075299D02*
X0145398Y0075299D01*
X0146140Y0076698D02*
X0147933Y0076698D01*
X0153686Y0075299D02*
X0153827Y0075299D01*
X0157133Y0075299D02*
X0159874Y0075299D01*
X0163686Y0075299D02*
X0164129Y0075299D01*
X0166989Y0072502D02*
X0167294Y0072502D01*
X0157933Y0076698D02*
X0155627Y0076698D01*
X0147350Y0082292D02*
X0146379Y0082292D01*
X0146379Y0083690D02*
X0148477Y0083690D01*
X0146293Y0085089D02*
X0154119Y0085089D01*
X0155517Y0086487D02*
X0145777Y0086487D01*
X0141979Y0079495D02*
X0141379Y0079495D01*
X0141379Y0078096D02*
X0141979Y0078096D01*
X0141979Y0076698D02*
X0141379Y0076698D01*
X0166826Y0066908D02*
X0167061Y0066908D01*
X0166694Y0063941D02*
X0163060Y0063941D01*
X0163060Y0062782D01*
X0167014Y0062782D01*
X0166694Y0063102D01*
X0166694Y0063941D01*
X0164340Y0063362D02*
X0167380Y0060322D01*
X0169856Y0060322D01*
X0170356Y0059822D01*
X0170357Y0059822D02*
X0170357Y0059822D01*
X0164340Y0063362D02*
X0162480Y0063362D01*
X0152021Y0057045D02*
X0152021Y0057045D01*
X0148140Y0055720D02*
X0146941Y0055720D01*
X0146572Y0054322D02*
X0148509Y0054322D01*
X0148509Y0052923D02*
X0146572Y0052923D01*
X0146972Y0051525D02*
X0148509Y0051525D01*
X0148509Y0050126D02*
X0146972Y0050126D01*
X0146972Y0048728D02*
X0148509Y0048728D01*
X0143060Y0047596D02*
X0143060Y0047596D01*
X0145540Y0040336D02*
X0137623Y0040336D01*
X0136225Y0038938D02*
X0145968Y0038938D01*
X0149180Y0039322D02*
X0159297Y0039322D01*
X0162325Y0040949D01*
X0168729Y0040949D01*
X0168356Y0043133D02*
X0166577Y0043133D01*
X0166092Y0044532D02*
X0168356Y0044532D01*
X0168356Y0045930D02*
X0166577Y0045930D01*
X0172356Y0045930D02*
X0180260Y0045930D01*
X0178862Y0044532D02*
X0172356Y0044532D01*
X0172356Y0043133D02*
X0178680Y0043133D01*
X0183120Y0043133D02*
X0190063Y0043133D01*
X0185045Y0041735D02*
X0183315Y0041735D01*
X0181659Y0047329D02*
X0172356Y0047329D01*
X0166694Y0051525D02*
X0166577Y0051525D01*
X0166733Y0052923D02*
X0166873Y0052923D01*
X0143060Y0057045D02*
X0143060Y0057045D01*
X0142487Y0059622D02*
X0139380Y0059622D01*
X0142487Y0059622D02*
X0143060Y0060195D01*
X0168680Y0079822D02*
X0170356Y0079822D01*
X0192404Y0079822D02*
X0194080Y0079822D01*
X0196780Y0077122D01*
X0200040Y0077122D01*
X0200280Y0076882D01*
X0206974Y0076882D01*
X0208094Y0075761D01*
X0196027Y0082292D02*
X0195315Y0082292D01*
X0192404Y0084822D02*
X0199820Y0084822D01*
X0200280Y0084362D01*
X0207500Y0084362D01*
X0208440Y0083422D01*
X0215920Y0083422D02*
X0226580Y0083422D01*
X0226880Y0083722D01*
X0197861Y0062713D02*
X0195676Y0062713D01*
X0192404Y0059822D02*
X0199380Y0059822D01*
X0200280Y0058922D01*
X0200280Y0054022D01*
X0202314Y0051988D01*
X0207849Y0051988D01*
X0203759Y0048728D02*
X0202280Y0048728D01*
X0203281Y0047329D02*
X0205118Y0047329D01*
X0200656Y0044178D02*
X0200280Y0044554D01*
X0200280Y0054022D01*
X0198280Y0055720D02*
X0197910Y0055720D01*
X0198280Y0057119D02*
X0195489Y0057119D01*
X0215100Y0045930D02*
X0216260Y0045930D01*
X0216260Y0044532D02*
X0215100Y0044532D01*
X0220333Y0044532D02*
X0224880Y0044532D01*
X0224880Y0045930D02*
X0220333Y0045930D01*
X0220014Y0047329D02*
X0224880Y0047329D01*
X0224880Y0048728D02*
X0220272Y0048728D01*
X0220464Y0050126D02*
X0221395Y0050126D01*
X0228880Y0048728D02*
X0230684Y0048728D01*
X0230684Y0047329D02*
X0228880Y0047329D01*
X0228880Y0045930D02*
X0230684Y0045930D01*
X0230684Y0044532D02*
X0228880Y0044532D01*
X0228880Y0043133D02*
X0230684Y0043133D01*
X0230684Y0041735D02*
X0228622Y0041735D01*
X0227223Y0040336D02*
X0230684Y0040336D01*
X0230684Y0038938D02*
X0225825Y0038938D01*
X0224426Y0037539D02*
X0230684Y0037539D01*
X0230684Y0036141D02*
X0223028Y0036141D01*
X0221629Y0034742D02*
X0230684Y0034742D01*
X0230684Y0033344D02*
X0219933Y0033344D01*
X0211427Y0033344D02*
X0211329Y0033344D01*
X0210622Y0031945D02*
X0230684Y0031945D01*
X0230684Y0030547D02*
X0192234Y0030547D01*
X0193632Y0031945D02*
X0196272Y0031945D01*
X0195731Y0033344D02*
X0193880Y0033344D01*
X0193880Y0034742D02*
X0195731Y0034742D01*
X0193880Y0036141D02*
X0199410Y0036141D01*
X0199410Y0034742D02*
X0200569Y0034742D01*
X0200569Y0033344D02*
X0199410Y0033344D01*
X0199410Y0031945D02*
X0200569Y0031945D01*
X0203708Y0031945D02*
X0204318Y0031945D01*
X0195642Y0027750D02*
X0230684Y0027750D01*
X0230684Y0029148D02*
X0187022Y0029148D01*
X0187942Y0027750D02*
X0188118Y0027750D01*
X0196133Y0026351D02*
X0230684Y0026351D01*
X0230684Y0024953D02*
X0196133Y0024953D01*
X0176480Y0024162D02*
X0176240Y0023922D01*
X0172280Y0023922D01*
X0170356Y0025845D01*
X0170356Y0039322D01*
X0172356Y0027750D02*
X0172718Y0027750D01*
X0168356Y0026351D02*
X0134054Y0026351D01*
X0131988Y0027114D02*
X0131988Y0018551D01*
X0137238Y0017960D02*
X0161738Y0017960D01*
X0161738Y0016562D02*
X0137238Y0016562D01*
X0136539Y0015163D02*
X0162271Y0015163D01*
X0161738Y0019359D02*
X0137238Y0019359D01*
X0137238Y0020757D02*
X0161738Y0020757D01*
X0162558Y0022156D02*
X0133988Y0022156D01*
X0133988Y0023554D02*
X0169819Y0023554D01*
X0169528Y0023845D02*
X0169528Y0023845D01*
X0168421Y0024953D02*
X0133988Y0024953D01*
X0126738Y0020757D02*
X0117644Y0020757D01*
X0115351Y0020222D02*
X0098080Y0020222D01*
X0092980Y0025322D01*
X0092980Y0028822D01*
X0095180Y0031022D01*
X0097180Y0030547D02*
X0102380Y0030547D01*
X0106380Y0031945D02*
X0124328Y0031945D01*
X0118307Y0029148D02*
X0112505Y0029148D01*
X0113904Y0027750D02*
X0116908Y0027750D01*
X0116106Y0026351D02*
X0114706Y0026351D01*
X0114706Y0024953D02*
X0116106Y0024953D01*
X0116106Y0023554D02*
X0114706Y0023554D01*
X0116245Y0022156D02*
X0117336Y0022156D01*
X0115351Y0020222D02*
X0120406Y0015167D01*
X0123687Y0012366D02*
X0230684Y0012366D01*
X0184760Y0013765D02*
X0183600Y0013765D01*
X0183600Y0015163D02*
X0184760Y0015163D01*
X0177060Y0015163D02*
X0175900Y0015163D01*
X0175900Y0013765D02*
X0177060Y0013765D01*
X0167763Y0019359D02*
X0167013Y0019359D01*
X0167013Y0020757D02*
X0167763Y0020757D01*
X0167763Y0022156D02*
X0167013Y0022156D01*
X0141402Y0031945D02*
X0138834Y0031945D01*
X0132593Y0030547D02*
X0131383Y0030547D01*
X0134279Y0036141D02*
X0134973Y0036141D01*
X0134849Y0037539D02*
X0141410Y0037539D01*
X0141402Y0036141D02*
X0138187Y0036141D01*
X0107380Y0018222D02*
X0103998Y0018222D01*
X0105106Y0017113D01*
X0105106Y0015467D01*
X0100706Y0015467D01*
X0100706Y0014867D01*
X0105106Y0014867D01*
X0105106Y0013220D01*
X0103358Y0011472D01*
X0108019Y0011472D01*
X0106106Y0013386D01*
X0106106Y0016948D01*
X0107380Y0018222D01*
X0107119Y0017960D02*
X0104259Y0017960D01*
X0105106Y0016562D02*
X0106106Y0016562D01*
X0106106Y0015163D02*
X0100706Y0015163D01*
X0100106Y0015163D02*
X0064939Y0015163D01*
X0064939Y0013765D02*
X0095706Y0013765D01*
X0096560Y0012366D02*
X0064939Y0012366D01*
X0064939Y0016562D02*
X0095706Y0016562D01*
X0096553Y0017960D02*
X0064939Y0017960D01*
X0064939Y0019359D02*
X0096115Y0019359D01*
X0094716Y0020757D02*
X0064939Y0020757D01*
X0064939Y0022156D02*
X0093318Y0022156D01*
X0091919Y0023554D02*
X0070116Y0023554D01*
X0070530Y0024953D02*
X0090980Y0024953D01*
X0090980Y0026351D02*
X0070256Y0026351D01*
X0068783Y0027750D02*
X0073500Y0027750D01*
X0072340Y0029148D02*
X0068580Y0029148D01*
X0068580Y0030547D02*
X0071827Y0030547D01*
X0071133Y0031945D02*
X0068580Y0031945D01*
X0066580Y0036139D02*
X0066580Y0026222D01*
X0067680Y0025122D01*
X0065244Y0023554D02*
X0064939Y0023554D01*
X0076460Y0027750D02*
X0090980Y0027750D01*
X0090980Y0029148D02*
X0077620Y0029148D01*
X0077830Y0030547D02*
X0091877Y0030547D01*
X0096135Y0029148D02*
X0098307Y0029148D01*
X0096908Y0027750D02*
X0094980Y0027750D01*
X0094980Y0026351D02*
X0096106Y0026351D01*
X0105106Y0013765D02*
X0106106Y0013765D01*
X0107125Y0012366D02*
X0104252Y0012366D01*
X0066834Y0036393D02*
X0066580Y0036139D01*
X0061680Y0038622D02*
X0053980Y0030922D01*
X0052580Y0030922D01*
X0038717Y0023554D02*
X0038241Y0023554D01*
X0038717Y0022156D02*
X0036842Y0022156D01*
X0038717Y0015163D02*
X0019612Y0015163D01*
X0019612Y0013765D02*
X0038717Y0013765D01*
X0038717Y0012366D02*
X0019612Y0012366D01*
X0019612Y0024953D02*
X0020150Y0024953D01*
X0020037Y0026351D02*
X0019612Y0026351D01*
X0019612Y0027750D02*
X0020476Y0027750D01*
X0020483Y0029148D02*
X0019612Y0029148D01*
X0019612Y0030547D02*
X0020037Y0030547D01*
X0020143Y0031945D02*
X0019612Y0031945D01*
X0019612Y0033344D02*
X0020900Y0033344D01*
X0020237Y0034742D02*
X0019612Y0034742D01*
X0019612Y0036141D02*
X0020037Y0036141D01*
X0020389Y0037539D02*
X0019612Y0037539D01*
X0019612Y0038938D02*
X0020167Y0038938D01*
X0019684Y0040336D02*
X0019612Y0040336D01*
X0019612Y0041735D02*
X0019709Y0041735D01*
X0019612Y0043133D02*
X0020255Y0043133D01*
X0194326Y0037539D02*
X0195731Y0037539D01*
X0195725Y0038938D02*
X0195731Y0038938D01*
X0203713Y0040336D02*
X0204313Y0040336D01*
X0219933Y0038938D02*
X0220168Y0038938D01*
X0220096Y0040336D02*
X0221566Y0040336D01*
X0220333Y0041735D02*
X0222965Y0041735D01*
X0224363Y0043133D02*
X0220333Y0043133D01*
D28*
X0155480Y0065222D03*
X0136580Y0048422D03*
X0033680Y0072222D03*
D29*
X0060980Y0081322D03*
X0068680Y0075022D03*
X0095980Y0073622D03*
X0105080Y0081322D03*
X0113480Y0065222D03*
X0123980Y0063122D03*
X0095980Y0052622D03*
X0088980Y0049822D03*
X0081280Y0045622D03*
X0061680Y0038622D03*
X0052580Y0030922D03*
X0067680Y0025122D03*
X0074980Y0030222D03*
X0104380Y0034722D03*
X0112080Y0044922D03*
X0136580Y0033722D03*
X0163180Y0031622D03*
X0222680Y0045622D03*
X0163880Y0069422D03*
X0155480Y0072922D03*
X0091780Y0058922D03*
X0081980Y0058922D03*
X0070780Y0059622D03*
D30*
X0082582Y0036393D02*
X0082582Y0021002D01*
X0093712Y0009872D01*
X0145312Y0009872D01*
X0148412Y0012972D01*
D31*
X0148412Y0012972D03*
D32*
X0131474Y0051715D02*
X0135180Y0055422D01*
X0135180Y0058222D01*
X0136580Y0059622D01*
X0139380Y0059622D01*
X0131474Y0051715D02*
X0130649Y0051715D01*
M02*
