G75*
%MOIN*%
%OFA0B0*%
%FSLAX25Y25*%
%IPPOS*%
%LPD*%
%AMOC8*
5,1,8,0,0,1.08239X$1,22.5*
%
%ADD10R,0.23622X0.13780*%
%ADD11OC8,0.06000*%
%ADD12C,0.04756*%
%ADD13C,0.06000*%
%ADD14C,0.07400*%
%ADD15C,0.01400*%
%ADD16C,0.02800*%
%ADD17C,0.03100*%
%ADD18C,0.02900*%
%ADD19C,0.01000*%
D10*
X0051828Y0016882D03*
D11*
X0100406Y0015167D03*
X0110406Y0015167D03*
X0120406Y0015167D03*
X0120406Y0025167D03*
X0110406Y0025167D03*
X0100406Y0025167D03*
D12*
X0028471Y0025957D02*
X0023715Y0025957D01*
X0023715Y0020957D02*
X0028471Y0020957D01*
X0028471Y0030957D02*
X0023715Y0030957D01*
X0023715Y0035957D02*
X0028471Y0035957D01*
X0028471Y0040957D02*
X0023715Y0040957D01*
X0023715Y0045957D02*
X0028471Y0045957D01*
X0028471Y0050957D02*
X0023715Y0050957D01*
X0023715Y0055957D02*
X0028471Y0055957D01*
X0028471Y0060957D02*
X0023715Y0060957D01*
X0023715Y0065957D02*
X0028471Y0065957D01*
X0028471Y0070957D02*
X0023715Y0070957D01*
X0023715Y0075957D02*
X0028471Y0075957D01*
X0028471Y0080957D02*
X0023715Y0080957D01*
D13*
X0131679Y0078177D02*
X0131679Y0084177D01*
X0141679Y0084177D02*
X0141679Y0078177D01*
X0223880Y0073722D02*
X0229880Y0073722D01*
X0229880Y0083722D02*
X0223880Y0083722D01*
X0223880Y0063722D02*
X0229880Y0063722D01*
X0229880Y0053722D02*
X0223880Y0053722D01*
D14*
X0161780Y0079922D03*
X0151780Y0079922D03*
D15*
X0019612Y0086718D02*
X0019612Y0011472D01*
X0038717Y0011472D01*
X0038717Y0023957D01*
X0031623Y0023957D01*
X0031589Y0023874D01*
X0031172Y0023457D01*
X0031589Y0023041D01*
X0032149Y0021689D01*
X0032149Y0020226D01*
X0031589Y0018874D01*
X0030554Y0017839D01*
X0029202Y0017279D01*
X0022983Y0017279D01*
X0021631Y0017839D01*
X0020597Y0018874D01*
X0020037Y0020226D01*
X0020037Y0021689D01*
X0020597Y0023041D01*
X0021013Y0023457D01*
X0020597Y0023874D01*
X0020037Y0025226D01*
X0020037Y0026689D01*
X0020597Y0028041D01*
X0021013Y0028457D01*
X0020597Y0028874D01*
X0020037Y0030226D01*
X0020037Y0031689D01*
X0020597Y0033041D01*
X0021013Y0033457D01*
X0020597Y0033874D01*
X0020037Y0035226D01*
X0020037Y0036689D01*
X0020597Y0038041D01*
X0020730Y0038174D01*
X0020604Y0038301D01*
X0020227Y0038820D01*
X0019935Y0039392D01*
X0019737Y0040002D01*
X0019637Y0040636D01*
X0019637Y0040957D01*
X0026092Y0040957D01*
X0026092Y0040957D01*
X0019637Y0040957D01*
X0019637Y0041278D01*
X0019737Y0041912D01*
X0019935Y0042523D01*
X0020227Y0043095D01*
X0020604Y0043614D01*
X0020730Y0043740D01*
X0020597Y0043874D01*
X0020037Y0045226D01*
X0020037Y0046689D01*
X0020597Y0048041D01*
X0021013Y0048457D01*
X0020597Y0048874D01*
X0020037Y0050226D01*
X0020037Y0051689D01*
X0020597Y0053041D01*
X0021013Y0053457D01*
X0020597Y0053874D01*
X0020037Y0055226D01*
X0020037Y0056689D01*
X0020597Y0058041D01*
X0021013Y0058457D01*
X0020597Y0058874D01*
X0020037Y0060226D01*
X0020037Y0061689D01*
X0020597Y0063041D01*
X0021013Y0063457D01*
X0020597Y0063874D01*
X0020037Y0065226D01*
X0020037Y0066689D01*
X0020597Y0068041D01*
X0021013Y0068457D01*
X0020597Y0068874D01*
X0020037Y0070226D01*
X0020037Y0071689D01*
X0020597Y0073041D01*
X0021013Y0073457D01*
X0020597Y0073874D01*
X0020037Y0075226D01*
X0020037Y0076689D01*
X0020597Y0078041D01*
X0021013Y0078457D01*
X0020597Y0078874D01*
X0020037Y0080226D01*
X0020037Y0081689D01*
X0020597Y0083041D01*
X0021631Y0084075D01*
X0022983Y0084635D01*
X0029202Y0084635D01*
X0030554Y0084075D01*
X0031589Y0083041D01*
X0031623Y0082957D01*
X0032073Y0082957D01*
X0035908Y0079122D01*
X0059008Y0079122D01*
X0071608Y0066522D01*
X0072780Y0065350D01*
X0072780Y0061652D01*
X0073196Y0061236D01*
X0073630Y0060189D01*
X0073630Y0059055D01*
X0073196Y0058007D01*
X0072394Y0057206D01*
X0071347Y0056772D01*
X0070213Y0056772D01*
X0069166Y0057206D01*
X0068364Y0058007D01*
X0067930Y0059055D01*
X0067930Y0060189D01*
X0068364Y0061236D01*
X0068780Y0061652D01*
X0068780Y0063693D01*
X0057352Y0075122D01*
X0034252Y0075122D01*
X0033080Y0076293D01*
X0031769Y0077604D01*
X0032149Y0076689D01*
X0032149Y0075226D01*
X0031589Y0073874D01*
X0031172Y0073457D01*
X0031589Y0073041D01*
X0032149Y0071689D01*
X0032149Y0070226D01*
X0031589Y0068874D01*
X0031172Y0068457D01*
X0031589Y0068041D01*
X0032149Y0066689D01*
X0032149Y0065226D01*
X0031589Y0063874D01*
X0031172Y0063457D01*
X0031589Y0063041D01*
X0032149Y0061689D01*
X0032149Y0060226D01*
X0031589Y0058874D01*
X0031172Y0058457D01*
X0031589Y0058041D01*
X0032149Y0056689D01*
X0032149Y0055226D01*
X0031589Y0053874D01*
X0031172Y0053457D01*
X0031589Y0053041D01*
X0032149Y0051689D01*
X0032149Y0050226D01*
X0031589Y0048874D01*
X0031172Y0048457D01*
X0031589Y0048041D01*
X0032149Y0046689D01*
X0032149Y0045226D01*
X0031589Y0043874D01*
X0031455Y0043740D01*
X0031581Y0043614D01*
X0031958Y0043095D01*
X0032250Y0042523D01*
X0032448Y0041912D01*
X0032549Y0041278D01*
X0032549Y0040957D01*
X0026093Y0040957D01*
X0026093Y0040957D01*
X0032549Y0040957D01*
X0032549Y0040636D01*
X0032448Y0040002D01*
X0032250Y0039392D01*
X0031958Y0038820D01*
X0031581Y0038301D01*
X0031455Y0038174D01*
X0031589Y0038041D01*
X0031623Y0037957D01*
X0057473Y0037957D01*
X0063208Y0032222D01*
X0072950Y0032222D01*
X0073366Y0032638D01*
X0074413Y0033072D01*
X0075547Y0033072D01*
X0076594Y0032638D01*
X0077011Y0032222D01*
X0088152Y0032222D01*
X0088752Y0032822D01*
X0098352Y0032822D01*
X0097280Y0033893D01*
X0096280Y0034893D01*
X0096280Y0037593D01*
X0090252Y0043622D01*
X0083311Y0043622D01*
X0082894Y0043206D01*
X0081847Y0042772D01*
X0080713Y0042772D01*
X0079666Y0043206D01*
X0078864Y0044007D01*
X0078430Y0045055D01*
X0078430Y0046189D01*
X0078864Y0047236D01*
X0079450Y0047822D01*
X0077208Y0047822D01*
X0066008Y0036622D01*
X0063711Y0036622D01*
X0063294Y0036206D01*
X0062247Y0035772D01*
X0061113Y0035772D01*
X0060066Y0036206D01*
X0059264Y0037007D01*
X0058830Y0038055D01*
X0058830Y0039189D01*
X0059264Y0040236D01*
X0060066Y0041038D01*
X0061113Y0041472D01*
X0062247Y0041472D01*
X0063294Y0041038D01*
X0063711Y0040622D01*
X0064352Y0040622D01*
X0074380Y0050650D01*
X0075552Y0051822D01*
X0086950Y0051822D01*
X0087366Y0052238D01*
X0088413Y0052672D01*
X0089547Y0052672D01*
X0090594Y0052238D01*
X0091011Y0051822D01*
X0092608Y0051822D01*
X0098308Y0046122D01*
X0101052Y0046122D01*
X0097151Y0050022D01*
X0096547Y0049772D01*
X0095413Y0049772D01*
X0094366Y0050206D01*
X0093564Y0051007D01*
X0093130Y0052055D01*
X0093130Y0053189D01*
X0093564Y0054236D01*
X0094366Y0055038D01*
X0095413Y0055472D01*
X0096547Y0055472D01*
X0097594Y0055038D01*
X0098011Y0054622D01*
X0098208Y0054622D01*
X0117108Y0035722D01*
X0134550Y0035722D01*
X0134966Y0036138D01*
X0136013Y0036572D01*
X0137147Y0036572D01*
X0138194Y0036138D01*
X0138996Y0035336D01*
X0139430Y0034289D01*
X0139430Y0033155D01*
X0138996Y0032107D01*
X0138194Y0031306D01*
X0137147Y0030872D01*
X0136013Y0030872D01*
X0134966Y0031306D01*
X0134550Y0031722D01*
X0116908Y0031722D01*
X0119164Y0029467D01*
X0122187Y0029467D01*
X0124706Y0026948D01*
X0124706Y0023386D01*
X0122187Y0020867D01*
X0118625Y0020867D01*
X0116106Y0023386D01*
X0116106Y0026867D01*
X0106908Y0036065D01*
X0107230Y0035289D01*
X0107230Y0034155D01*
X0106796Y0033107D01*
X0106045Y0032356D01*
X0106751Y0031650D01*
X0108934Y0029467D01*
X0112187Y0029467D01*
X0114706Y0026948D01*
X0114706Y0023386D01*
X0112187Y0020867D01*
X0108625Y0020867D01*
X0106106Y0023386D01*
X0106106Y0026638D01*
X0103922Y0028822D01*
X0102832Y0028822D01*
X0104706Y0026948D01*
X0104706Y0023386D01*
X0103742Y0022422D01*
X0105979Y0022422D01*
X0107151Y0021250D01*
X0108934Y0019467D01*
X0112187Y0019467D01*
X0114706Y0016948D01*
X0114706Y0013386D01*
X0112793Y0011472D01*
X0118019Y0011472D01*
X0116106Y0013386D01*
X0116106Y0016948D01*
X0118625Y0019467D01*
X0122187Y0019467D01*
X0124706Y0016948D01*
X0124706Y0013386D01*
X0122793Y0011472D01*
X0230684Y0011472D01*
X0230684Y0049422D01*
X0223025Y0049422D01*
X0221444Y0050076D01*
X0220235Y0051286D01*
X0219580Y0052866D01*
X0219580Y0054577D01*
X0220235Y0056158D01*
X0221444Y0057367D01*
X0223025Y0058022D01*
X0230684Y0058022D01*
X0230684Y0059091D01*
X0230250Y0059022D01*
X0227180Y0059022D01*
X0227180Y0063422D01*
X0226580Y0063422D01*
X0219180Y0063422D01*
X0219180Y0063352D01*
X0219296Y0062621D01*
X0219524Y0061918D01*
X0219860Y0061258D01*
X0220295Y0060660D01*
X0220818Y0060137D01*
X0221417Y0059702D01*
X0222076Y0059366D01*
X0222779Y0059137D01*
X0223510Y0059022D01*
X0226580Y0059022D01*
X0226580Y0063422D01*
X0226580Y0064022D01*
X0226580Y0068422D01*
X0223510Y0068422D01*
X0222779Y0068306D01*
X0222076Y0068077D01*
X0221417Y0067742D01*
X0220818Y0067307D01*
X0220295Y0066784D01*
X0219860Y0066185D01*
X0219524Y0065526D01*
X0219296Y0064822D01*
X0219180Y0064092D01*
X0219180Y0064022D01*
X0226580Y0064022D01*
X0227180Y0064022D01*
X0227180Y0068422D01*
X0230250Y0068422D01*
X0230684Y0068353D01*
X0230684Y0069422D01*
X0223025Y0069422D01*
X0221444Y0070076D01*
X0220235Y0071286D01*
X0219580Y0072866D01*
X0219580Y0074577D01*
X0220235Y0076158D01*
X0221444Y0077367D01*
X0223025Y0078022D01*
X0230684Y0078022D01*
X0230684Y0079422D01*
X0223025Y0079422D01*
X0221444Y0080076D01*
X0220235Y0081286D01*
X0219580Y0082866D01*
X0219580Y0084577D01*
X0220235Y0086158D01*
X0220795Y0086718D01*
X0145643Y0086718D01*
X0145699Y0086640D01*
X0146035Y0085981D01*
X0146263Y0085277D01*
X0146379Y0084547D01*
X0146379Y0081477D01*
X0141979Y0081477D01*
X0141979Y0080877D01*
X0146379Y0080877D01*
X0146379Y0077807D01*
X0146263Y0077076D01*
X0146035Y0076373D01*
X0145699Y0075714D01*
X0145264Y0075115D01*
X0145071Y0074922D01*
X0153450Y0074922D01*
X0153866Y0075338D01*
X0154913Y0075772D01*
X0156047Y0075772D01*
X0157094Y0075338D01*
X0157896Y0074536D01*
X0158330Y0073489D01*
X0158330Y0072355D01*
X0157943Y0071422D01*
X0161850Y0071422D01*
X0162266Y0071838D01*
X0163313Y0072272D01*
X0164447Y0072272D01*
X0165494Y0071838D01*
X0166296Y0071036D01*
X0166730Y0069989D01*
X0166730Y0068855D01*
X0166296Y0067807D01*
X0165494Y0067006D01*
X0164447Y0066572D01*
X0163313Y0066572D01*
X0162266Y0067006D01*
X0161850Y0067422D01*
X0115310Y0067422D01*
X0115511Y0067222D01*
X0117108Y0067222D01*
X0119208Y0065122D01*
X0121950Y0065122D01*
X0122366Y0065538D01*
X0123413Y0065972D01*
X0124547Y0065972D01*
X0125594Y0065538D01*
X0126396Y0064736D01*
X0126830Y0063689D01*
X0126830Y0062555D01*
X0126396Y0061507D01*
X0125594Y0060706D01*
X0124547Y0060272D01*
X0123413Y0060272D01*
X0122366Y0060706D01*
X0121950Y0061122D01*
X0117552Y0061122D01*
X0116380Y0062293D01*
X0115481Y0063192D01*
X0115094Y0062806D01*
X0114047Y0062372D01*
X0112913Y0062372D01*
X0111866Y0062806D01*
X0111064Y0063607D01*
X0110630Y0064655D01*
X0110630Y0065789D01*
X0111064Y0066836D01*
X0111650Y0067422D01*
X0110108Y0067422D01*
X0100780Y0058093D01*
X0099608Y0056922D01*
X0093811Y0056922D01*
X0093394Y0056506D01*
X0092347Y0056072D01*
X0091213Y0056072D01*
X0090166Y0056506D01*
X0089364Y0057307D01*
X0088930Y0058355D01*
X0088930Y0059489D01*
X0089364Y0060536D01*
X0090166Y0061338D01*
X0091213Y0061772D01*
X0092347Y0061772D01*
X0093394Y0061338D01*
X0093811Y0060922D01*
X0097952Y0060922D01*
X0107952Y0070922D01*
X0102408Y0070922D01*
X0094480Y0062993D01*
X0093308Y0061822D01*
X0087708Y0061822D01*
X0084830Y0058943D01*
X0084830Y0058355D01*
X0084396Y0057307D01*
X0083594Y0056506D01*
X0082547Y0056072D01*
X0081413Y0056072D01*
X0080366Y0056506D01*
X0079564Y0057307D01*
X0079130Y0058355D01*
X0079130Y0059489D01*
X0079564Y0060536D01*
X0080366Y0061338D01*
X0081413Y0061772D01*
X0082002Y0061772D01*
X0086052Y0065822D01*
X0091652Y0065822D01*
X0096640Y0070810D01*
X0096547Y0070772D01*
X0095413Y0070772D01*
X0094366Y0071206D01*
X0093564Y0072007D01*
X0093130Y0073055D01*
X0093130Y0074189D01*
X0093564Y0075236D01*
X0094366Y0076038D01*
X0095413Y0076472D01*
X0096547Y0076472D01*
X0097151Y0076221D01*
X0102230Y0081300D01*
X0102230Y0081889D01*
X0102664Y0082936D01*
X0103466Y0083738D01*
X0104513Y0084172D01*
X0105647Y0084172D01*
X0106694Y0083738D01*
X0107496Y0082936D01*
X0107930Y0081889D01*
X0107930Y0080755D01*
X0107496Y0079707D01*
X0106694Y0078906D01*
X0105647Y0078472D01*
X0105058Y0078472D01*
X0101508Y0074922D01*
X0128853Y0074922D01*
X0128034Y0075741D01*
X0127379Y0077322D01*
X0127379Y0085032D01*
X0128034Y0086613D01*
X0128139Y0086718D01*
X0019612Y0086718D01*
X0019612Y0086487D02*
X0127982Y0086487D01*
X0127403Y0085089D02*
X0019612Y0085089D01*
X0019612Y0083690D02*
X0021246Y0083690D01*
X0020286Y0082292D02*
X0019612Y0082292D01*
X0019612Y0080893D02*
X0020037Y0080893D01*
X0020339Y0079495D02*
X0019612Y0079495D01*
X0019612Y0078096D02*
X0020652Y0078096D01*
X0020040Y0076698D02*
X0019612Y0076698D01*
X0019612Y0075299D02*
X0020037Y0075299D01*
X0019612Y0073901D02*
X0020585Y0073901D01*
X0020374Y0072502D02*
X0019612Y0072502D01*
X0019612Y0071104D02*
X0020037Y0071104D01*
X0020252Y0069705D02*
X0019612Y0069705D01*
X0019612Y0068307D02*
X0020863Y0068307D01*
X0020128Y0066908D02*
X0019612Y0066908D01*
X0019612Y0065510D02*
X0020037Y0065510D01*
X0019612Y0064111D02*
X0020498Y0064111D01*
X0020461Y0062713D02*
X0019612Y0062713D01*
X0019612Y0061314D02*
X0020037Y0061314D01*
X0020165Y0059916D02*
X0019612Y0059916D01*
X0019612Y0058517D02*
X0020953Y0058517D01*
X0020215Y0057119D02*
X0019612Y0057119D01*
X0019612Y0055720D02*
X0020037Y0055720D01*
X0020411Y0054322D02*
X0019612Y0054322D01*
X0019612Y0052923D02*
X0020548Y0052923D01*
X0020037Y0051525D02*
X0019612Y0051525D01*
X0019612Y0050126D02*
X0020078Y0050126D01*
X0019612Y0048728D02*
X0020743Y0048728D01*
X0020302Y0047329D02*
X0019612Y0047329D01*
X0019612Y0045930D02*
X0020037Y0045930D01*
X0020324Y0044532D02*
X0019612Y0044532D01*
X0019612Y0043133D02*
X0020255Y0043133D01*
X0019709Y0041735D02*
X0019612Y0041735D01*
X0019612Y0040336D02*
X0019684Y0040336D01*
X0019612Y0038938D02*
X0020167Y0038938D01*
X0020389Y0037539D02*
X0019612Y0037539D01*
X0019612Y0036141D02*
X0020037Y0036141D01*
X0020237Y0034742D02*
X0019612Y0034742D01*
X0019612Y0033344D02*
X0020900Y0033344D01*
X0020143Y0031945D02*
X0019612Y0031945D01*
X0019612Y0030547D02*
X0020037Y0030547D01*
X0019612Y0029148D02*
X0020483Y0029148D01*
X0020476Y0027750D02*
X0019612Y0027750D01*
X0019612Y0026351D02*
X0020037Y0026351D01*
X0020150Y0024953D02*
X0019612Y0024953D01*
X0019612Y0023554D02*
X0020916Y0023554D01*
X0020230Y0022156D02*
X0019612Y0022156D01*
X0019612Y0020757D02*
X0020037Y0020757D01*
X0020396Y0019359D02*
X0019612Y0019359D01*
X0019612Y0017960D02*
X0021510Y0017960D01*
X0019612Y0016562D02*
X0038717Y0016562D01*
X0038717Y0017960D02*
X0030675Y0017960D01*
X0031789Y0019359D02*
X0038717Y0019359D01*
X0038717Y0020757D02*
X0032149Y0020757D01*
X0031955Y0022156D02*
X0038717Y0022156D01*
X0038717Y0023554D02*
X0031269Y0023554D01*
X0026093Y0025957D02*
X0066845Y0025957D01*
X0067680Y0025122D01*
X0072380Y0020422D01*
X0105151Y0020422D01*
X0110406Y0015167D01*
X0114706Y0015163D02*
X0116106Y0015163D01*
X0116106Y0013765D02*
X0114706Y0013765D01*
X0113687Y0012366D02*
X0117125Y0012366D01*
X0123687Y0012366D02*
X0230684Y0012366D01*
X0230684Y0013765D02*
X0124706Y0013765D01*
X0124706Y0015163D02*
X0230684Y0015163D01*
X0230684Y0016562D02*
X0124706Y0016562D01*
X0123693Y0017960D02*
X0230684Y0017960D01*
X0230684Y0019359D02*
X0122295Y0019359D01*
X0118517Y0019359D02*
X0112295Y0019359D01*
X0113693Y0017960D02*
X0117119Y0017960D01*
X0116106Y0016562D02*
X0114706Y0016562D01*
X0107644Y0020757D02*
X0230684Y0020757D01*
X0230684Y0022156D02*
X0123476Y0022156D01*
X0124706Y0023554D02*
X0230684Y0023554D01*
X0230684Y0024953D02*
X0124706Y0024953D01*
X0124706Y0026351D02*
X0230684Y0026351D01*
X0230684Y0027750D02*
X0123904Y0027750D01*
X0122505Y0029148D02*
X0161704Y0029148D01*
X0161566Y0029206D02*
X0162613Y0028772D01*
X0163747Y0028772D01*
X0164794Y0029206D01*
X0165596Y0030007D01*
X0166030Y0031055D01*
X0166030Y0032189D01*
X0165596Y0033236D01*
X0164794Y0034038D01*
X0163747Y0034472D01*
X0162613Y0034472D01*
X0161566Y0034038D01*
X0160764Y0033236D01*
X0160330Y0032189D01*
X0160330Y0031055D01*
X0160764Y0030007D01*
X0161566Y0029206D01*
X0160540Y0030547D02*
X0118083Y0030547D01*
X0113825Y0029148D02*
X0112505Y0029148D01*
X0112427Y0030547D02*
X0107854Y0030547D01*
X0104751Y0030822D02*
X0089580Y0030822D01*
X0088980Y0030222D01*
X0074980Y0030222D01*
X0062380Y0030222D01*
X0056645Y0035957D01*
X0026093Y0035957D01*
X0032018Y0038938D02*
X0058830Y0038938D01*
X0059044Y0037539D02*
X0057891Y0037539D01*
X0059289Y0036141D02*
X0060222Y0036141D01*
X0060688Y0034742D02*
X0096431Y0034742D01*
X0097829Y0033344D02*
X0062086Y0033344D01*
X0063138Y0036141D02*
X0096280Y0036141D01*
X0096280Y0037539D02*
X0066926Y0037539D01*
X0068325Y0038938D02*
X0094935Y0038938D01*
X0093537Y0040336D02*
X0069723Y0040336D01*
X0071122Y0041735D02*
X0092138Y0041735D01*
X0090740Y0043133D02*
X0082720Y0043133D01*
X0079840Y0043133D02*
X0072520Y0043133D01*
X0073919Y0044532D02*
X0078647Y0044532D01*
X0078430Y0045930D02*
X0075317Y0045930D01*
X0076716Y0047329D02*
X0078957Y0047329D01*
X0081280Y0045622D02*
X0091080Y0045622D01*
X0098280Y0038422D01*
X0098280Y0035722D01*
X0099280Y0034722D01*
X0104380Y0034722D01*
X0107230Y0034742D02*
X0108231Y0034742D01*
X0106894Y0033344D02*
X0109629Y0033344D01*
X0111028Y0031945D02*
X0106456Y0031945D01*
X0104751Y0030822D02*
X0110406Y0025167D01*
X0113476Y0022156D02*
X0117336Y0022156D01*
X0116106Y0023554D02*
X0114706Y0023554D01*
X0114706Y0024953D02*
X0116106Y0024953D01*
X0120406Y0025167D02*
X0120406Y0025396D01*
X0107480Y0038322D01*
X0106780Y0038322D01*
X0100980Y0044122D01*
X0097480Y0044122D01*
X0091780Y0049822D01*
X0088980Y0049822D01*
X0076380Y0049822D01*
X0065180Y0038622D01*
X0061680Y0038622D01*
X0059364Y0040336D02*
X0032501Y0040336D01*
X0032476Y0041735D02*
X0065465Y0041735D01*
X0066863Y0043133D02*
X0031930Y0043133D01*
X0031861Y0044532D02*
X0068262Y0044532D01*
X0069660Y0045930D02*
X0032149Y0045930D01*
X0031883Y0047329D02*
X0071059Y0047329D01*
X0072457Y0048728D02*
X0031442Y0048728D01*
X0032107Y0050126D02*
X0073856Y0050126D01*
X0075254Y0051525D02*
X0032149Y0051525D01*
X0031637Y0052923D02*
X0093130Y0052923D01*
X0092906Y0051525D02*
X0093350Y0051525D01*
X0095980Y0052622D02*
X0097380Y0052622D01*
X0116280Y0033722D01*
X0136580Y0033722D01*
X0139242Y0034742D02*
X0230684Y0034742D01*
X0230684Y0033344D02*
X0165488Y0033344D01*
X0166030Y0031945D02*
X0230684Y0031945D01*
X0230684Y0030547D02*
X0165820Y0030547D01*
X0164656Y0029148D02*
X0230684Y0029148D01*
X0230684Y0036141D02*
X0138187Y0036141D01*
X0134973Y0036141D02*
X0116689Y0036141D01*
X0115291Y0037539D02*
X0230684Y0037539D01*
X0230684Y0038938D02*
X0113892Y0038938D01*
X0112494Y0040336D02*
X0230684Y0040336D01*
X0230684Y0041735D02*
X0111095Y0041735D01*
X0109697Y0043133D02*
X0230684Y0043133D01*
X0230684Y0044532D02*
X0108298Y0044532D01*
X0106900Y0045930D02*
X0230684Y0045930D01*
X0230684Y0047329D02*
X0105501Y0047329D01*
X0104103Y0048728D02*
X0230684Y0048728D01*
X0221395Y0050126D02*
X0102704Y0050126D01*
X0101306Y0051525D02*
X0220136Y0051525D01*
X0219580Y0052923D02*
X0099907Y0052923D01*
X0098509Y0054322D02*
X0219580Y0054322D01*
X0220053Y0055720D02*
X0032149Y0055720D01*
X0031774Y0054322D02*
X0093649Y0054322D01*
X0089553Y0057119D02*
X0084207Y0057119D01*
X0084830Y0058517D02*
X0088930Y0058517D01*
X0089107Y0059916D02*
X0085802Y0059916D01*
X0087201Y0061314D02*
X0090142Y0061314D01*
X0093418Y0061314D02*
X0098344Y0061314D01*
X0099742Y0062713D02*
X0094199Y0062713D01*
X0095598Y0064111D02*
X0101141Y0064111D01*
X0102539Y0065510D02*
X0096996Y0065510D01*
X0098395Y0066908D02*
X0103938Y0066908D01*
X0105337Y0068307D02*
X0099793Y0068307D01*
X0101192Y0069705D02*
X0106735Y0069705D01*
X0109280Y0069422D02*
X0098780Y0058922D01*
X0091780Y0058922D01*
X0086880Y0063822D02*
X0081980Y0058922D01*
X0079307Y0059916D02*
X0073630Y0059916D01*
X0073407Y0058517D02*
X0079130Y0058517D01*
X0079753Y0057119D02*
X0072184Y0057119D01*
X0069376Y0057119D02*
X0031970Y0057119D01*
X0031232Y0058517D02*
X0068153Y0058517D01*
X0067930Y0059916D02*
X0032020Y0059916D01*
X0032149Y0061314D02*
X0068442Y0061314D01*
X0070780Y0059622D02*
X0070780Y0064522D01*
X0058180Y0077122D01*
X0035080Y0077122D01*
X0031245Y0080957D01*
X0026093Y0080957D01*
X0030939Y0083690D02*
X0059318Y0083690D01*
X0059366Y0083738D02*
X0058564Y0082936D01*
X0058130Y0081889D01*
X0058130Y0080755D01*
X0058564Y0079707D01*
X0059366Y0078906D01*
X0060413Y0078472D01*
X0061002Y0078472D01*
X0065280Y0074193D01*
X0066452Y0073022D01*
X0066650Y0073022D01*
X0067066Y0072606D01*
X0068113Y0072172D01*
X0069247Y0072172D01*
X0070294Y0072606D01*
X0071096Y0073407D01*
X0071530Y0074455D01*
X0071530Y0075589D01*
X0071096Y0076636D01*
X0070294Y0077438D01*
X0069247Y0077872D01*
X0068113Y0077872D01*
X0067509Y0077621D01*
X0063830Y0081300D01*
X0063830Y0081889D01*
X0063396Y0082936D01*
X0062594Y0083738D01*
X0061547Y0084172D01*
X0060413Y0084172D01*
X0059366Y0083738D01*
X0058297Y0082292D02*
X0032738Y0082292D01*
X0034137Y0080893D02*
X0058130Y0080893D01*
X0058777Y0079495D02*
X0035535Y0079495D01*
X0032676Y0076698D02*
X0032145Y0076698D01*
X0032149Y0075299D02*
X0034074Y0075299D01*
X0031600Y0073901D02*
X0058573Y0073901D01*
X0059971Y0072502D02*
X0031812Y0072502D01*
X0032149Y0071104D02*
X0061370Y0071104D01*
X0062768Y0069705D02*
X0031933Y0069705D01*
X0031323Y0068307D02*
X0064167Y0068307D01*
X0065565Y0066908D02*
X0032058Y0066908D01*
X0032149Y0065510D02*
X0066964Y0065510D01*
X0068362Y0064111D02*
X0031687Y0064111D01*
X0031724Y0062713D02*
X0068780Y0062713D01*
X0072780Y0062713D02*
X0082942Y0062713D01*
X0084341Y0064111D02*
X0072780Y0064111D01*
X0072621Y0065510D02*
X0085739Y0065510D01*
X0086880Y0063822D02*
X0092480Y0063822D01*
X0101580Y0072922D01*
X0155480Y0072922D01*
X0158159Y0073901D02*
X0219580Y0073901D01*
X0219731Y0072502D02*
X0158330Y0072502D01*
X0157133Y0075299D02*
X0159874Y0075299D01*
X0160785Y0074922D02*
X0162775Y0074922D01*
X0164612Y0075683D01*
X0166019Y0077089D01*
X0166780Y0078927D01*
X0166780Y0080916D01*
X0166019Y0082754D01*
X0164612Y0084161D01*
X0162775Y0084922D01*
X0160785Y0084922D01*
X0158948Y0084161D01*
X0157541Y0082754D01*
X0156780Y0080916D01*
X0156780Y0078927D01*
X0157541Y0077089D01*
X0158948Y0075683D01*
X0160785Y0074922D01*
X0163686Y0075299D02*
X0219879Y0075299D01*
X0220775Y0076698D02*
X0165627Y0076698D01*
X0166436Y0078096D02*
X0230684Y0078096D01*
X0222848Y0079495D02*
X0166780Y0079495D01*
X0166780Y0080893D02*
X0220627Y0080893D01*
X0219818Y0082292D02*
X0166210Y0082292D01*
X0165083Y0083690D02*
X0219580Y0083690D01*
X0219792Y0085089D02*
X0146293Y0085089D01*
X0146379Y0083690D02*
X0148477Y0083690D01*
X0148948Y0084161D02*
X0147541Y0082754D01*
X0146780Y0080916D01*
X0146780Y0078927D01*
X0147541Y0077089D01*
X0148948Y0075683D01*
X0150785Y0074922D01*
X0152775Y0074922D01*
X0154612Y0075683D01*
X0156019Y0077089D01*
X0156780Y0078927D01*
X0156780Y0080916D01*
X0156019Y0082754D01*
X0154612Y0084161D01*
X0152775Y0084922D01*
X0150785Y0084922D01*
X0148948Y0084161D01*
X0147350Y0082292D02*
X0146379Y0082292D01*
X0146780Y0080893D02*
X0141979Y0080893D01*
X0141379Y0080893D02*
X0135979Y0080893D01*
X0136979Y0080877D02*
X0136979Y0077807D01*
X0137095Y0077076D01*
X0137324Y0076373D01*
X0137659Y0075714D01*
X0138094Y0075115D01*
X0138288Y0074922D01*
X0134505Y0074922D01*
X0135325Y0075741D01*
X0135979Y0077322D01*
X0135979Y0085032D01*
X0135325Y0086613D01*
X0135219Y0086718D01*
X0137716Y0086718D01*
X0137659Y0086640D01*
X0137324Y0085981D01*
X0137095Y0085277D01*
X0136979Y0084547D01*
X0136979Y0081477D01*
X0141379Y0081477D01*
X0141379Y0080877D01*
X0136979Y0080877D01*
X0136979Y0079495D02*
X0135979Y0079495D01*
X0135979Y0078096D02*
X0136979Y0078096D01*
X0137218Y0076698D02*
X0135721Y0076698D01*
X0134883Y0075299D02*
X0137960Y0075299D01*
X0145398Y0075299D02*
X0149874Y0075299D01*
X0147933Y0076698D02*
X0146140Y0076698D01*
X0146379Y0078096D02*
X0147124Y0078096D01*
X0146780Y0079495D02*
X0146379Y0079495D01*
X0153686Y0075299D02*
X0153827Y0075299D01*
X0155627Y0076698D02*
X0157933Y0076698D01*
X0157124Y0078096D02*
X0156436Y0078096D01*
X0156780Y0079495D02*
X0156780Y0079495D01*
X0156780Y0080893D02*
X0156780Y0080893D01*
X0156210Y0082292D02*
X0157350Y0082292D01*
X0158477Y0083690D02*
X0155083Y0083690D01*
X0145777Y0086487D02*
X0220564Y0086487D01*
X0220417Y0071104D02*
X0166229Y0071104D01*
X0166730Y0069705D02*
X0222340Y0069705D01*
X0222783Y0068307D02*
X0166503Y0068307D01*
X0165259Y0066908D02*
X0220420Y0066908D01*
X0219519Y0065510D02*
X0125623Y0065510D01*
X0126655Y0064111D02*
X0219183Y0064111D01*
X0219281Y0062713D02*
X0126830Y0062713D01*
X0123980Y0063122D02*
X0118380Y0063122D01*
X0116280Y0065222D01*
X0113480Y0065222D01*
X0110855Y0064111D02*
X0106798Y0064111D01*
X0108196Y0065510D02*
X0110630Y0065510D01*
X0111136Y0066908D02*
X0109595Y0066908D01*
X0109280Y0069422D02*
X0163880Y0069422D01*
X0162501Y0066908D02*
X0117422Y0066908D01*
X0118821Y0065510D02*
X0122337Y0065510D01*
X0115961Y0062713D02*
X0114870Y0062713D01*
X0112090Y0062713D02*
X0105399Y0062713D01*
X0104001Y0061314D02*
X0117359Y0061314D01*
X0126203Y0061314D02*
X0219832Y0061314D01*
X0221123Y0059916D02*
X0102602Y0059916D01*
X0101204Y0058517D02*
X0230684Y0058517D01*
X0227180Y0059916D02*
X0226580Y0059916D01*
X0226580Y0061314D02*
X0227180Y0061314D01*
X0227180Y0062713D02*
X0226580Y0062713D01*
X0226580Y0064111D02*
X0227180Y0064111D01*
X0227180Y0065510D02*
X0226580Y0065510D01*
X0226580Y0066908D02*
X0227180Y0066908D01*
X0227180Y0068307D02*
X0226580Y0068307D01*
X0221196Y0057119D02*
X0099805Y0057119D01*
X0094558Y0050126D02*
X0094304Y0050126D01*
X0095703Y0048728D02*
X0098446Y0048728D01*
X0097101Y0047329D02*
X0099844Y0047329D01*
X0080342Y0061314D02*
X0073118Y0061314D01*
X0071222Y0066908D02*
X0092738Y0066908D01*
X0094137Y0068307D02*
X0069824Y0068307D01*
X0068425Y0069705D02*
X0095535Y0069705D01*
X0094612Y0071104D02*
X0067027Y0071104D01*
X0067315Y0072502D02*
X0065628Y0072502D01*
X0065573Y0073901D02*
X0064229Y0073901D01*
X0064174Y0075299D02*
X0062831Y0075299D01*
X0062776Y0076698D02*
X0061432Y0076698D01*
X0061377Y0078096D02*
X0060034Y0078096D01*
X0064237Y0080893D02*
X0101823Y0080893D01*
X0100425Y0079495D02*
X0065635Y0079495D01*
X0067034Y0078096D02*
X0099026Y0078096D01*
X0097628Y0076698D02*
X0071035Y0076698D01*
X0071530Y0075299D02*
X0093627Y0075299D01*
X0093130Y0073901D02*
X0071300Y0073901D01*
X0070045Y0072502D02*
X0093359Y0072502D01*
X0095980Y0073622D02*
X0097380Y0073622D01*
X0105080Y0081322D01*
X0102397Y0082292D02*
X0063663Y0082292D01*
X0062642Y0083690D02*
X0103418Y0083690D01*
X0106742Y0083690D02*
X0127379Y0083690D01*
X0127379Y0082292D02*
X0107763Y0082292D01*
X0107930Y0080893D02*
X0127379Y0080893D01*
X0127379Y0079495D02*
X0107284Y0079495D01*
X0104683Y0078096D02*
X0127379Y0078096D01*
X0127638Y0076698D02*
X0103284Y0076698D01*
X0101886Y0075299D02*
X0128476Y0075299D01*
X0135979Y0082292D02*
X0136979Y0082292D01*
X0136979Y0083690D02*
X0135979Y0083690D01*
X0135956Y0085089D02*
X0137065Y0085089D01*
X0137582Y0086487D02*
X0135377Y0086487D01*
X0068680Y0075022D02*
X0067280Y0075022D01*
X0060980Y0081322D01*
X0139430Y0033344D02*
X0160872Y0033344D01*
X0160330Y0031945D02*
X0138834Y0031945D01*
X0116106Y0026351D02*
X0114706Y0026351D01*
X0115224Y0027750D02*
X0113904Y0027750D01*
X0106106Y0026351D02*
X0104706Y0026351D01*
X0104994Y0027750D02*
X0103904Y0027750D01*
X0104706Y0024953D02*
X0106106Y0024953D01*
X0106106Y0023554D02*
X0104706Y0023554D01*
X0106245Y0022156D02*
X0107336Y0022156D01*
X0104322Y0018422D02*
X0103798Y0018422D01*
X0105106Y0017113D01*
X0105106Y0015467D01*
X0100706Y0015467D01*
X0100706Y0014867D01*
X0105106Y0014867D01*
X0105106Y0013220D01*
X0103358Y0011472D01*
X0108019Y0011472D01*
X0106106Y0013386D01*
X0106106Y0016638D01*
X0104322Y0018422D01*
X0104259Y0017960D02*
X0104784Y0017960D01*
X0105106Y0016562D02*
X0106106Y0016562D01*
X0106106Y0015163D02*
X0100706Y0015163D01*
X0100106Y0015163D02*
X0064939Y0015163D01*
X0064939Y0013765D02*
X0095706Y0013765D01*
X0095706Y0013220D02*
X0097454Y0011472D01*
X0064939Y0011472D01*
X0064939Y0023957D01*
X0065078Y0023957D01*
X0065264Y0023507D01*
X0066066Y0022706D01*
X0067113Y0022272D01*
X0067702Y0022272D01*
X0071552Y0018422D01*
X0073208Y0018422D01*
X0097014Y0018422D01*
X0095706Y0017113D01*
X0095706Y0015467D01*
X0100106Y0015467D01*
X0100106Y0014867D01*
X0095706Y0014867D01*
X0095706Y0013220D01*
X0096560Y0012366D02*
X0064939Y0012366D01*
X0064939Y0016562D02*
X0095706Y0016562D01*
X0096553Y0017960D02*
X0064939Y0017960D01*
X0064939Y0019359D02*
X0070615Y0019359D01*
X0069216Y0020757D02*
X0064939Y0020757D01*
X0064939Y0022156D02*
X0067818Y0022156D01*
X0065244Y0023554D02*
X0064939Y0023554D01*
X0052580Y0030922D02*
X0052545Y0030957D01*
X0026093Y0030957D01*
X0019612Y0015163D02*
X0038717Y0015163D01*
X0038717Y0013765D02*
X0019612Y0013765D01*
X0019612Y0012366D02*
X0038717Y0012366D01*
X0104252Y0012366D02*
X0107125Y0012366D01*
X0106106Y0013765D02*
X0105106Y0013765D01*
D16*
X0136580Y0048422D03*
X0155480Y0065222D03*
X0033680Y0072222D03*
D17*
X0060980Y0081322D03*
X0068680Y0075022D03*
X0095980Y0073622D03*
X0105080Y0081322D03*
X0113480Y0065222D03*
X0123980Y0063122D03*
X0095980Y0052622D03*
X0088980Y0049822D03*
X0081280Y0045622D03*
X0061680Y0038622D03*
X0052580Y0030922D03*
X0067680Y0025122D03*
X0074980Y0030222D03*
X0104380Y0034722D03*
X0112080Y0044922D03*
X0136580Y0033722D03*
X0163180Y0031622D03*
X0222680Y0045622D03*
X0163880Y0069422D03*
X0155480Y0072922D03*
X0091780Y0058922D03*
X0081980Y0058922D03*
X0070780Y0059622D03*
D18*
X0148412Y0012972D03*
D19*
X0148412Y0030472D01*
X0137812Y0041072D01*
X0115930Y0041072D01*
X0112080Y0044922D01*
M02*
