G75*
%MOIN*%
%OFA0B0*%
%FSLAX25Y25*%
%IPPOS*%
%LPD*%
%AMOC8*
5,1,8,0,0,1.08239X$1,22.5*
%
%ADD10C,0.00700*%
%ADD11C,0.00200*%
%ADD12C,0.00400*%
%ADD13R,0.02953X0.05709*%
%ADD14R,0.05709X0.02953*%
%ADD15C,0.00800*%
%ADD16C,0.00100*%
%ADD17C,0.01000*%
%ADD18C,0.00600*%
%ADD19R,0.01574X0.04528*%
%ADD20R,0.01575X0.04528*%
%ADD21R,0.01575X0.04528*%
%ADD22R,0.04528X0.01574*%
%ADD23R,0.04528X0.01575*%
%ADD24R,0.04528X0.01575*%
%ADD25C,0.00500*%
%ADD26R,0.02000X0.02000*%
%ADD27R,0.05512X0.02559*%
%ADD28R,0.02559X0.05512*%
%ADD29C,0.00300*%
%ADD30R,0.06000X0.06000*%
%ADD31R,0.03600X0.05900*%
%ADD32R,0.04200X0.02400*%
%ADD33R,0.04500X0.02000*%
D10*
X0041573Y0018595D02*
X0042915Y0018595D01*
X0042244Y0018595D02*
X0042244Y0022623D01*
X0041573Y0022623D02*
X0042915Y0022623D01*
X0046648Y0022623D02*
X0046648Y0019938D01*
X0047990Y0018595D01*
X0049333Y0019938D01*
X0049333Y0022623D01*
X0053173Y0021952D02*
X0053173Y0019267D01*
X0053844Y0018595D01*
X0055187Y0018595D01*
X0055858Y0019267D01*
X0057523Y0019267D02*
X0058195Y0019267D01*
X0058195Y0018595D01*
X0057523Y0018595D01*
X0057523Y0019267D01*
X0059698Y0019267D02*
X0060370Y0018595D01*
X0061712Y0018595D01*
X0062384Y0019267D01*
X0062384Y0019938D01*
X0061712Y0020609D01*
X0060370Y0020609D01*
X0059698Y0021281D01*
X0059698Y0021952D01*
X0060370Y0022623D01*
X0061712Y0022623D01*
X0062384Y0021952D01*
X0055858Y0021952D02*
X0055187Y0022623D01*
X0053844Y0022623D01*
X0053173Y0021952D01*
X0051669Y0019267D02*
X0051669Y0018595D01*
X0050998Y0018595D01*
X0050998Y0019267D01*
X0051669Y0019267D01*
X0051868Y0016191D02*
X0050525Y0016191D01*
X0049854Y0015520D01*
X0049854Y0012834D01*
X0050525Y0012163D01*
X0051868Y0012163D01*
X0052539Y0012834D01*
X0054204Y0012163D02*
X0055547Y0013506D01*
X0055547Y0014848D01*
X0054204Y0016191D01*
X0052539Y0015520D02*
X0051868Y0016191D01*
X0048296Y0016191D02*
X0046954Y0014848D01*
X0046954Y0013506D01*
X0048296Y0012163D01*
X0045144Y0018595D02*
X0044473Y0018595D01*
X0044473Y0019267D01*
X0045144Y0019267D01*
X0045144Y0018595D01*
D11*
X0050630Y0047098D02*
X0035094Y0047098D01*
X0035094Y0054838D01*
X0050630Y0054838D01*
X0050630Y0047098D01*
X0050621Y0057317D02*
X0035086Y0057317D01*
X0035086Y0065057D01*
X0050621Y0065057D01*
X0050621Y0057317D01*
X0050621Y0068241D02*
X0035086Y0068241D01*
X0035086Y0075981D01*
X0050621Y0075981D01*
X0050621Y0068241D01*
X0051423Y0078560D02*
X0035888Y0078560D01*
X0035888Y0086300D01*
X0051423Y0086300D01*
X0051423Y0078560D01*
X0114169Y0062560D02*
X0121909Y0062560D01*
X0121909Y0047025D01*
X0114169Y0047025D01*
X0114169Y0062560D01*
X0117077Y0065436D02*
X0117077Y0073176D01*
X0132612Y0073176D01*
X0132612Y0065436D01*
X0117077Y0065436D01*
X0126779Y0063223D02*
X0134519Y0063223D01*
X0134519Y0047688D01*
X0126779Y0047688D01*
X0126779Y0063223D01*
X0145940Y0052588D02*
X0146106Y0052588D01*
X0146774Y0051921D01*
X0146940Y0051921D01*
X0146940Y0052588D01*
X0147440Y0052588D02*
X0148440Y0051921D01*
X0148440Y0052588D02*
X0147440Y0051921D01*
X0147440Y0051088D02*
X0147606Y0051088D01*
X0147940Y0050754D01*
X0148440Y0050754D01*
X0147940Y0050754D02*
X0147606Y0050421D01*
X0147440Y0050421D01*
X0147040Y0050821D02*
X0146040Y0050821D01*
X0146540Y0051321D01*
X0146040Y0050821D02*
X0146540Y0050321D01*
X0145940Y0051921D02*
X0145940Y0052588D01*
X0146440Y0053321D02*
X0146442Y0053341D01*
X0146448Y0053359D01*
X0146457Y0053377D01*
X0146469Y0053392D01*
X0146484Y0053404D01*
X0146502Y0053413D01*
X0146520Y0053419D01*
X0146540Y0053421D01*
X0146560Y0053419D01*
X0146578Y0053413D01*
X0146596Y0053404D01*
X0146611Y0053392D01*
X0146623Y0053377D01*
X0146632Y0053359D01*
X0146638Y0053341D01*
X0146640Y0053321D01*
X0146638Y0053301D01*
X0146632Y0053283D01*
X0146623Y0053265D01*
X0146611Y0053250D01*
X0146596Y0053238D01*
X0146578Y0053229D01*
X0146560Y0053223D01*
X0146540Y0053221D01*
X0146520Y0053223D01*
X0146502Y0053229D01*
X0146484Y0053238D01*
X0146469Y0053250D01*
X0146457Y0053265D01*
X0146448Y0053283D01*
X0146442Y0053301D01*
X0146440Y0053321D01*
X0146040Y0053321D02*
X0146042Y0053365D01*
X0146048Y0053409D01*
X0146058Y0053452D01*
X0146071Y0053494D01*
X0146088Y0053535D01*
X0146109Y0053574D01*
X0146133Y0053611D01*
X0146160Y0053646D01*
X0146190Y0053678D01*
X0146223Y0053708D01*
X0146259Y0053734D01*
X0146296Y0053758D01*
X0146336Y0053777D01*
X0146377Y0053794D01*
X0146420Y0053806D01*
X0146463Y0053815D01*
X0146507Y0053820D01*
X0146551Y0053821D01*
X0146595Y0053818D01*
X0146639Y0053811D01*
X0146682Y0053800D01*
X0146724Y0053786D01*
X0146764Y0053768D01*
X0146803Y0053746D01*
X0146839Y0053722D01*
X0146873Y0053694D01*
X0146905Y0053663D01*
X0146934Y0053629D01*
X0146960Y0053593D01*
X0146982Y0053555D01*
X0147001Y0053515D01*
X0147016Y0053473D01*
X0147028Y0053431D01*
X0147036Y0053387D01*
X0147040Y0053343D01*
X0147040Y0053299D01*
X0147036Y0053255D01*
X0147028Y0053211D01*
X0147016Y0053169D01*
X0147001Y0053127D01*
X0146982Y0053087D01*
X0146960Y0053049D01*
X0146934Y0053013D01*
X0146905Y0052979D01*
X0146873Y0052948D01*
X0146839Y0052920D01*
X0146803Y0052896D01*
X0146764Y0052874D01*
X0146724Y0052856D01*
X0146682Y0052842D01*
X0146639Y0052831D01*
X0146595Y0052824D01*
X0146551Y0052821D01*
X0146507Y0052822D01*
X0146463Y0052827D01*
X0146420Y0052836D01*
X0146377Y0052848D01*
X0146336Y0052865D01*
X0146296Y0052884D01*
X0146259Y0052908D01*
X0146223Y0052934D01*
X0146190Y0052964D01*
X0146160Y0052996D01*
X0146133Y0053031D01*
X0146109Y0053068D01*
X0146088Y0053107D01*
X0146071Y0053148D01*
X0146058Y0053190D01*
X0146048Y0053233D01*
X0146042Y0053277D01*
X0146040Y0053321D01*
X0147540Y0053821D02*
X0148040Y0054321D01*
X0148540Y0053821D01*
X0148040Y0053321D02*
X0148040Y0054321D01*
X0158454Y0052457D02*
X0166195Y0052457D01*
X0166195Y0036922D01*
X0158454Y0036922D01*
X0158454Y0052457D01*
X0158610Y0051854D02*
X0158610Y0067389D01*
X0166350Y0067389D01*
X0166350Y0051854D01*
X0158610Y0051854D01*
X0156769Y0037911D02*
X0141233Y0037911D01*
X0141233Y0030170D01*
X0156769Y0030170D01*
X0156769Y0037911D01*
X0172610Y0028189D02*
X0180350Y0028189D01*
X0180350Y0012654D01*
X0172610Y0012654D01*
X0172610Y0028189D01*
X0180310Y0028189D02*
X0188050Y0028189D01*
X0188050Y0012654D01*
X0180310Y0012654D01*
X0180310Y0028189D01*
X0188010Y0028189D02*
X0195750Y0028189D01*
X0195750Y0012654D01*
X0188010Y0012654D01*
X0188010Y0028189D01*
X0195962Y0032273D02*
X0195962Y0040014D01*
X0211498Y0040014D01*
X0211498Y0032273D01*
X0195962Y0032273D01*
X0211810Y0032254D02*
X0219550Y0032254D01*
X0219550Y0047789D01*
X0211810Y0047789D01*
X0211810Y0032254D01*
X0211719Y0047960D02*
X0203978Y0047960D01*
X0203978Y0063496D01*
X0211719Y0063496D01*
X0211719Y0047960D01*
X0211941Y0048048D02*
X0219682Y0048048D01*
X0219682Y0063583D01*
X0211941Y0063583D01*
X0211941Y0048048D01*
X0219510Y0063758D02*
X0203975Y0063758D01*
X0203975Y0071498D01*
X0219510Y0071498D01*
X0219510Y0063758D01*
X0219602Y0071891D02*
X0204067Y0071891D01*
X0204067Y0079631D01*
X0219602Y0079631D01*
X0219602Y0071891D01*
X0204150Y0072854D02*
X0196410Y0072854D01*
X0196410Y0088389D01*
X0204150Y0088389D01*
X0204150Y0072854D01*
X0204412Y0079552D02*
X0204412Y0087292D01*
X0219948Y0087292D01*
X0219948Y0079552D01*
X0204412Y0079552D01*
D12*
X0205476Y0078916D02*
X0205476Y0077381D01*
X0206243Y0076614D01*
X0209313Y0076614D01*
X0210080Y0077381D01*
X0210080Y0078916D01*
X0209313Y0079683D01*
X0209534Y0080961D02*
X0209534Y0085565D01*
X0211836Y0085565D01*
X0212604Y0084798D01*
X0212604Y0083263D01*
X0211836Y0082496D01*
X0209534Y0082496D01*
X0210080Y0081218D02*
X0207011Y0084287D01*
X0206243Y0084287D01*
X0205476Y0083520D01*
X0205476Y0081985D01*
X0206243Y0081218D01*
X0210080Y0081218D02*
X0210080Y0084287D01*
X0211069Y0082496D02*
X0212604Y0080961D01*
X0214138Y0081728D02*
X0214906Y0080961D01*
X0216440Y0080961D01*
X0217208Y0081728D01*
X0217208Y0082496D01*
X0216440Y0083263D01*
X0214138Y0083263D01*
X0214138Y0081728D01*
X0214138Y0083263D02*
X0215673Y0084798D01*
X0217208Y0085565D01*
X0214484Y0088622D02*
X0214484Y0089389D01*
X0217553Y0092458D01*
X0217553Y0093226D01*
X0214484Y0093226D01*
X0212949Y0092458D02*
X0212949Y0090924D01*
X0212182Y0090156D01*
X0209880Y0090156D01*
X0211415Y0090156D02*
X0212949Y0088622D01*
X0209880Y0088622D02*
X0209880Y0093226D01*
X0212182Y0093226D01*
X0212949Y0092458D01*
X0202878Y0082122D02*
X0202878Y0079122D01*
X0205476Y0078916D02*
X0206243Y0079683D01*
X0207710Y0077432D02*
X0206942Y0076665D01*
X0206942Y0073595D01*
X0207710Y0072828D01*
X0209244Y0072828D01*
X0210012Y0073595D01*
X0211546Y0075130D02*
X0214615Y0075130D01*
X0213848Y0077432D02*
X0211546Y0075130D01*
X0210012Y0076665D02*
X0209244Y0077432D01*
X0207710Y0077432D01*
X0213848Y0077432D02*
X0213848Y0072828D01*
X0213242Y0070227D02*
X0210242Y0070227D01*
X0210341Y0065030D02*
X0213242Y0065030D01*
X0209844Y0061189D02*
X0210612Y0060421D01*
X0210612Y0058887D01*
X0209844Y0058119D01*
X0208310Y0058119D02*
X0207542Y0059654D01*
X0207542Y0060421D01*
X0208310Y0061189D01*
X0209844Y0061189D01*
X0206008Y0061189D02*
X0206008Y0058119D01*
X0208310Y0058119D01*
X0208310Y0056585D02*
X0206775Y0056585D01*
X0206008Y0055817D01*
X0206008Y0053515D01*
X0210612Y0053515D01*
X0209077Y0053515D02*
X0209077Y0055817D01*
X0208310Y0056585D01*
X0209077Y0055050D02*
X0210612Y0056585D01*
X0213045Y0056126D02*
X0215347Y0053824D01*
X0215347Y0056893D01*
X0217649Y0056126D02*
X0213045Y0056126D01*
X0213812Y0052289D02*
X0215347Y0052289D01*
X0216114Y0051522D01*
X0216114Y0049220D01*
X0217649Y0049220D02*
X0213045Y0049220D01*
X0213045Y0051522D01*
X0213812Y0052289D01*
X0216114Y0050755D02*
X0217649Y0052289D01*
X0209713Y0042895D02*
X0210480Y0042128D01*
X0210480Y0040593D01*
X0209713Y0039826D01*
X0208178Y0039826D02*
X0207411Y0041360D01*
X0207411Y0042128D01*
X0208178Y0042895D01*
X0209713Y0042895D01*
X0205876Y0042895D02*
X0205876Y0039826D01*
X0208178Y0039826D01*
X0206643Y0038291D02*
X0205876Y0037524D01*
X0205876Y0035989D01*
X0206643Y0035222D01*
X0209713Y0035222D01*
X0210480Y0035989D01*
X0210480Y0037524D01*
X0209713Y0038291D01*
X0213082Y0038522D02*
X0213082Y0041522D01*
X0218278Y0041522D02*
X0218278Y0038620D01*
X0205131Y0038742D02*
X0202230Y0038742D01*
X0202230Y0033545D02*
X0205230Y0033545D01*
X0205861Y0030947D02*
X0205861Y0026343D01*
X0207395Y0026343D02*
X0204326Y0026343D01*
X0202791Y0026343D02*
X0199722Y0026343D01*
X0201257Y0026343D02*
X0201257Y0030947D01*
X0199722Y0029413D01*
X0198187Y0030180D02*
X0197420Y0030947D01*
X0195885Y0030947D01*
X0195118Y0030180D01*
X0195118Y0027111D01*
X0195885Y0026343D01*
X0197420Y0026343D01*
X0198187Y0027111D01*
X0197843Y0024087D02*
X0200913Y0021018D01*
X0201680Y0021018D01*
X0200913Y0019483D02*
X0201680Y0018716D01*
X0201680Y0017181D01*
X0200913Y0016414D01*
X0197843Y0016414D01*
X0197076Y0017181D01*
X0197076Y0018716D01*
X0197843Y0019483D01*
X0194478Y0018922D02*
X0194478Y0021922D01*
X0193980Y0021785D02*
X0193213Y0021018D01*
X0191678Y0021018D01*
X0191678Y0023320D01*
X0192445Y0024087D01*
X0193213Y0024087D01*
X0193980Y0023320D01*
X0193980Y0021785D01*
X0191678Y0021018D02*
X0190143Y0022552D01*
X0189376Y0024087D01*
X0186280Y0023320D02*
X0186280Y0021785D01*
X0185513Y0021018D01*
X0182443Y0024087D01*
X0185513Y0024087D01*
X0186280Y0023320D01*
X0186778Y0021922D02*
X0186778Y0018922D01*
X0186280Y0019483D02*
X0186280Y0016414D01*
X0185513Y0014879D02*
X0186280Y0014112D01*
X0186280Y0012577D01*
X0185513Y0011810D01*
X0182443Y0011810D01*
X0181676Y0012577D01*
X0181676Y0014112D01*
X0182443Y0014879D01*
X0183211Y0016414D02*
X0181676Y0017949D01*
X0186280Y0017949D01*
X0189282Y0018922D02*
X0189282Y0021823D01*
X0190143Y0019483D02*
X0189376Y0018716D01*
X0189376Y0017181D01*
X0190143Y0016414D01*
X0193213Y0016414D01*
X0193980Y0017181D01*
X0193980Y0018716D01*
X0193213Y0019483D01*
X0197076Y0021018D02*
X0197076Y0024087D01*
X0197843Y0024087D01*
X0204326Y0029413D02*
X0205861Y0030947D01*
X0185513Y0021018D02*
X0182443Y0021018D01*
X0181676Y0021785D01*
X0181676Y0023320D01*
X0182443Y0024087D01*
X0179078Y0021922D02*
X0179078Y0018922D01*
X0181582Y0018922D02*
X0181582Y0021823D01*
X0173882Y0021823D02*
X0173882Y0018922D01*
X0150166Y0025008D02*
X0149399Y0024240D01*
X0147864Y0024240D01*
X0147097Y0025008D01*
X0145563Y0024240D02*
X0144028Y0025775D01*
X0144795Y0025775D02*
X0142493Y0025775D01*
X0142493Y0024240D02*
X0142493Y0028844D01*
X0144795Y0028844D01*
X0145563Y0028077D01*
X0145563Y0026542D01*
X0144795Y0025775D01*
X0147097Y0028077D02*
X0147864Y0028844D01*
X0149399Y0028844D01*
X0150166Y0028077D01*
X0150166Y0027310D01*
X0149399Y0026542D01*
X0150166Y0025775D01*
X0150166Y0025008D01*
X0149399Y0026542D02*
X0148632Y0026542D01*
X0167521Y0038182D02*
X0167521Y0040483D01*
X0168288Y0041251D01*
X0169823Y0041251D01*
X0170590Y0040483D01*
X0170590Y0038182D01*
X0172125Y0038182D02*
X0167521Y0038182D01*
X0170590Y0039716D02*
X0172125Y0041251D01*
X0171357Y0042785D02*
X0170590Y0042785D01*
X0169823Y0043553D01*
X0169823Y0045087D01*
X0170590Y0045855D01*
X0171357Y0045855D01*
X0172125Y0045087D01*
X0172125Y0043553D01*
X0171357Y0042785D01*
X0169823Y0043553D02*
X0169055Y0042785D01*
X0168288Y0042785D01*
X0167521Y0043553D01*
X0167521Y0045087D01*
X0168288Y0045855D01*
X0169055Y0045855D01*
X0169823Y0045087D01*
X0170745Y0053114D02*
X0170745Y0055416D01*
X0169978Y0056183D01*
X0168443Y0056183D01*
X0167676Y0055416D01*
X0167676Y0053114D01*
X0172280Y0053114D01*
X0170745Y0054649D02*
X0172280Y0056183D01*
X0171513Y0057718D02*
X0172280Y0058485D01*
X0172280Y0060020D01*
X0171513Y0060787D01*
X0168443Y0060787D01*
X0167676Y0060020D01*
X0167676Y0058485D01*
X0168443Y0057718D01*
X0169211Y0057718D01*
X0169978Y0058485D01*
X0169978Y0060787D01*
X0140449Y0056621D02*
X0140449Y0053552D01*
X0140449Y0052017D02*
X0138915Y0050482D01*
X0138915Y0051250D02*
X0138915Y0048948D01*
X0140449Y0048948D02*
X0135845Y0048948D01*
X0135845Y0051250D01*
X0136613Y0052017D01*
X0138147Y0052017D01*
X0138915Y0051250D01*
X0137380Y0053552D02*
X0135845Y0055086D01*
X0140449Y0055086D01*
X0126010Y0059506D02*
X0122941Y0059506D01*
X0126010Y0062575D01*
X0126010Y0063343D01*
X0125243Y0064110D01*
X0123708Y0064110D01*
X0122941Y0063343D01*
X0121406Y0063343D02*
X0121406Y0061808D01*
X0120639Y0061041D01*
X0118337Y0061041D01*
X0119871Y0061041D02*
X0121406Y0059506D01*
X0118337Y0059506D02*
X0118337Y0064110D01*
X0120639Y0064110D01*
X0121406Y0063343D01*
X0112839Y0057666D02*
X0112839Y0054597D01*
X0112072Y0053062D02*
X0112839Y0052295D01*
X0112839Y0050760D01*
X0112072Y0049993D01*
X0109002Y0049993D01*
X0108235Y0050760D01*
X0108235Y0052295D01*
X0109002Y0053062D01*
X0109770Y0054597D02*
X0108235Y0056131D01*
X0112839Y0056131D01*
X0115441Y0056293D02*
X0115441Y0053293D01*
X0120637Y0053391D02*
X0120637Y0056293D01*
X0052667Y0087630D02*
X0052667Y0092234D01*
X0055737Y0092234D01*
X0054202Y0089932D02*
X0052667Y0089932D01*
X0049598Y0089932D02*
X0048063Y0089932D01*
X0046529Y0089932D02*
X0045761Y0089165D01*
X0043460Y0089165D01*
X0044994Y0089165D02*
X0046529Y0087630D01*
X0048063Y0087630D02*
X0051133Y0087630D01*
X0048063Y0087630D02*
X0048063Y0092234D01*
X0051133Y0092234D01*
X0046529Y0091467D02*
X0046529Y0089932D01*
X0046529Y0091467D02*
X0045761Y0092234D01*
X0043460Y0092234D01*
X0043460Y0087630D01*
X0041925Y0087630D02*
X0041925Y0090699D01*
X0040390Y0092234D01*
X0038856Y0090699D01*
X0038856Y0087630D01*
X0038856Y0089932D02*
X0041925Y0089932D01*
X0036629Y0092751D02*
X0035094Y0092751D01*
X0033559Y0093518D02*
X0032792Y0092751D01*
X0031258Y0092751D01*
X0030490Y0093518D01*
X0030490Y0094285D01*
X0031258Y0095052D01*
X0032792Y0095052D01*
X0033559Y0094285D01*
X0033559Y0093518D01*
X0032792Y0092751D02*
X0033559Y0091983D01*
X0033559Y0091216D01*
X0032792Y0090449D01*
X0031258Y0090449D01*
X0030490Y0091216D01*
X0030490Y0091983D01*
X0031258Y0092751D01*
X0028956Y0094285D02*
X0025886Y0091216D01*
X0025886Y0090449D01*
X0024352Y0090449D02*
X0021282Y0090449D01*
X0024352Y0093518D01*
X0024352Y0094285D01*
X0023584Y0095052D01*
X0022050Y0095052D01*
X0021282Y0094285D01*
X0018213Y0095052D02*
X0018213Y0090449D01*
X0016678Y0090449D02*
X0019748Y0090449D01*
X0016678Y0093518D02*
X0018213Y0095052D01*
X0015144Y0095052D02*
X0012075Y0095052D01*
X0012075Y0090449D01*
X0010540Y0090449D02*
X0009005Y0091983D01*
X0009773Y0091983D02*
X0007471Y0091983D01*
X0007471Y0090449D02*
X0007471Y0095052D01*
X0009773Y0095052D01*
X0010540Y0094285D01*
X0010540Y0092751D01*
X0009773Y0091983D01*
X0012075Y0092751D02*
X0013609Y0092751D01*
X0005936Y0094285D02*
X0005936Y0091216D01*
X0005169Y0090449D01*
X0002867Y0090449D01*
X0002867Y0095052D01*
X0005169Y0095052D01*
X0005936Y0094285D01*
X0025886Y0095052D02*
X0028956Y0095052D01*
X0028956Y0094285D01*
X0035094Y0095052D02*
X0038163Y0095052D01*
X0035094Y0095052D02*
X0035094Y0090449D01*
X0042156Y0085028D02*
X0045156Y0085028D01*
X0045156Y0079832D02*
X0042254Y0079832D01*
X0041354Y0074710D02*
X0044255Y0074710D01*
X0044354Y0069513D02*
X0041354Y0069513D01*
X0041148Y0066915D02*
X0039613Y0066915D01*
X0038846Y0066148D01*
X0038846Y0063079D01*
X0039613Y0062311D01*
X0041148Y0062311D01*
X0041915Y0063079D01*
X0041354Y0063786D02*
X0044255Y0063786D01*
X0043450Y0063846D02*
X0044217Y0064613D01*
X0045752Y0064613D01*
X0046519Y0063846D01*
X0046519Y0063079D01*
X0045752Y0062311D01*
X0044217Y0062311D01*
X0043450Y0063079D01*
X0043450Y0063846D01*
X0044217Y0064613D02*
X0043450Y0065381D01*
X0043450Y0066148D01*
X0044217Y0066915D01*
X0045752Y0066915D01*
X0046519Y0066148D01*
X0046519Y0065381D01*
X0045752Y0064613D01*
X0041915Y0066148D02*
X0041148Y0066915D01*
X0041354Y0058589D02*
X0044354Y0058589D01*
X0044217Y0055991D02*
X0043450Y0055224D01*
X0043450Y0054457D01*
X0044217Y0053689D01*
X0046519Y0053689D01*
X0046519Y0052155D02*
X0046519Y0055224D01*
X0045752Y0055991D01*
X0044217Y0055991D01*
X0041915Y0055224D02*
X0041148Y0055991D01*
X0039613Y0055991D01*
X0038846Y0055224D01*
X0038846Y0052155D01*
X0039613Y0051387D01*
X0041148Y0051387D01*
X0041915Y0052155D01*
X0041362Y0053566D02*
X0044264Y0053566D01*
X0043450Y0052155D02*
X0044217Y0051387D01*
X0045752Y0051387D01*
X0046519Y0052155D01*
X0044362Y0048370D02*
X0041362Y0048370D01*
X0044225Y0045772D02*
X0043458Y0045005D01*
X0043458Y0041935D01*
X0044225Y0041168D01*
X0045760Y0041168D01*
X0046527Y0041935D01*
X0046527Y0045005D02*
X0045760Y0045772D01*
X0044225Y0045772D01*
X0197682Y0079122D02*
X0197682Y0082023D01*
D13*
X0208919Y0067633D03*
X0214619Y0067633D03*
X0206553Y0036139D03*
X0200853Y0036139D03*
X0046532Y0082435D03*
X0040832Y0082435D03*
X0039977Y0072107D03*
X0045677Y0072107D03*
X0045677Y0061183D03*
X0039977Y0061183D03*
X0039985Y0050964D03*
X0045685Y0050964D03*
D14*
X0118035Y0051969D03*
X0118035Y0057669D03*
X0176485Y0023245D03*
X0184185Y0023245D03*
X0191885Y0023245D03*
X0191885Y0017545D03*
X0184185Y0017545D03*
X0176485Y0017545D03*
X0215675Y0037198D03*
X0215675Y0042898D03*
X0200285Y0077745D03*
X0200285Y0083445D03*
D15*
X0189080Y0085822D02*
X0189080Y0048822D01*
X0189078Y0048746D01*
X0189072Y0048670D01*
X0189063Y0048595D01*
X0189049Y0048520D01*
X0189032Y0048446D01*
X0189011Y0048373D01*
X0188987Y0048301D01*
X0188958Y0048230D01*
X0188927Y0048161D01*
X0188892Y0048094D01*
X0188853Y0048029D01*
X0188811Y0047965D01*
X0188766Y0047904D01*
X0188718Y0047845D01*
X0188667Y0047789D01*
X0188613Y0047735D01*
X0188557Y0047684D01*
X0188498Y0047636D01*
X0188437Y0047591D01*
X0188373Y0047549D01*
X0188308Y0047510D01*
X0188241Y0047475D01*
X0188172Y0047444D01*
X0188101Y0047415D01*
X0188029Y0047391D01*
X0187956Y0047370D01*
X0187882Y0047353D01*
X0187807Y0047339D01*
X0187732Y0047330D01*
X0187656Y0047324D01*
X0187580Y0047322D01*
X0183380Y0047322D01*
X0179380Y0047322D01*
X0175180Y0047322D01*
X0175104Y0047324D01*
X0175028Y0047330D01*
X0174953Y0047339D01*
X0174878Y0047353D01*
X0174804Y0047370D01*
X0174731Y0047391D01*
X0174659Y0047415D01*
X0174588Y0047444D01*
X0174519Y0047475D01*
X0174452Y0047510D01*
X0174387Y0047549D01*
X0174323Y0047591D01*
X0174262Y0047636D01*
X0174203Y0047684D01*
X0174147Y0047735D01*
X0174093Y0047789D01*
X0174042Y0047845D01*
X0173994Y0047904D01*
X0173949Y0047965D01*
X0173907Y0048029D01*
X0173868Y0048094D01*
X0173833Y0048161D01*
X0173802Y0048230D01*
X0173773Y0048301D01*
X0173749Y0048373D01*
X0173728Y0048446D01*
X0173711Y0048520D01*
X0173697Y0048595D01*
X0173688Y0048670D01*
X0173682Y0048746D01*
X0173680Y0048822D01*
X0173680Y0085822D01*
X0173682Y0085898D01*
X0173688Y0085974D01*
X0173697Y0086049D01*
X0173711Y0086124D01*
X0173728Y0086198D01*
X0173749Y0086271D01*
X0173773Y0086343D01*
X0173802Y0086414D01*
X0173833Y0086483D01*
X0173868Y0086550D01*
X0173907Y0086615D01*
X0173949Y0086679D01*
X0173994Y0086740D01*
X0174042Y0086799D01*
X0174093Y0086855D01*
X0174147Y0086909D01*
X0174203Y0086960D01*
X0174262Y0087008D01*
X0174323Y0087053D01*
X0174387Y0087095D01*
X0174452Y0087134D01*
X0174519Y0087169D01*
X0174588Y0087200D01*
X0174659Y0087229D01*
X0174731Y0087253D01*
X0174804Y0087274D01*
X0174878Y0087291D01*
X0174953Y0087305D01*
X0175028Y0087314D01*
X0175104Y0087320D01*
X0175180Y0087322D01*
X0187580Y0087322D01*
X0187680Y0087322D02*
X0187680Y0047322D01*
X0183380Y0047322D02*
X0183378Y0047410D01*
X0183372Y0047499D01*
X0183362Y0047587D01*
X0183349Y0047674D01*
X0183331Y0047761D01*
X0183310Y0047847D01*
X0183285Y0047932D01*
X0183256Y0048015D01*
X0183223Y0048098D01*
X0183187Y0048178D01*
X0183148Y0048257D01*
X0183105Y0048335D01*
X0183058Y0048410D01*
X0183008Y0048483D01*
X0182955Y0048554D01*
X0182899Y0048623D01*
X0182840Y0048689D01*
X0182778Y0048752D01*
X0182714Y0048812D01*
X0182647Y0048870D01*
X0182577Y0048924D01*
X0182505Y0048976D01*
X0182431Y0049024D01*
X0182354Y0049069D01*
X0182276Y0049110D01*
X0182196Y0049148D01*
X0182115Y0049182D01*
X0182032Y0049213D01*
X0181947Y0049240D01*
X0181862Y0049263D01*
X0181776Y0049282D01*
X0181688Y0049298D01*
X0181601Y0049310D01*
X0181513Y0049318D01*
X0181424Y0049322D01*
X0181336Y0049322D01*
X0181247Y0049318D01*
X0181159Y0049310D01*
X0181072Y0049298D01*
X0180984Y0049282D01*
X0180898Y0049263D01*
X0180813Y0049240D01*
X0180728Y0049213D01*
X0180645Y0049182D01*
X0180564Y0049148D01*
X0180484Y0049110D01*
X0180406Y0049069D01*
X0180329Y0049024D01*
X0180255Y0048976D01*
X0180183Y0048924D01*
X0180113Y0048870D01*
X0180046Y0048812D01*
X0179982Y0048752D01*
X0179920Y0048689D01*
X0179861Y0048623D01*
X0179805Y0048554D01*
X0179752Y0048483D01*
X0179702Y0048410D01*
X0179655Y0048335D01*
X0179612Y0048257D01*
X0179573Y0048178D01*
X0179537Y0048098D01*
X0179504Y0048015D01*
X0179475Y0047932D01*
X0179450Y0047847D01*
X0179429Y0047761D01*
X0179411Y0047674D01*
X0179398Y0047587D01*
X0179388Y0047499D01*
X0179382Y0047410D01*
X0179380Y0047322D01*
X0178668Y0036215D02*
X0178668Y0033066D01*
X0181030Y0033066D01*
X0187330Y0033066D02*
X0189692Y0033066D01*
X0189692Y0036215D01*
X0153446Y0042478D02*
X0150296Y0042478D01*
X0144785Y0042478D02*
X0141635Y0042478D01*
X0135124Y0043549D02*
X0133549Y0045123D01*
X0129219Y0045123D01*
X0135124Y0043549D02*
X0135124Y0037249D01*
X0133549Y0035675D01*
X0129219Y0035675D01*
X0121345Y0035675D02*
X0115439Y0035675D01*
X0115439Y0045123D01*
X0121345Y0045123D01*
X0101480Y0041905D02*
X0099905Y0040330D01*
X0065259Y0040330D01*
X0063684Y0041905D01*
X0063684Y0076551D01*
X0065259Y0078125D01*
X0099905Y0078125D01*
X0101480Y0076551D01*
X0101480Y0041905D01*
X0141635Y0062163D02*
X0144785Y0062163D01*
X0144840Y0063758D02*
X0144842Y0063786D01*
X0144848Y0063813D01*
X0144857Y0063839D01*
X0144870Y0063864D01*
X0144887Y0063887D01*
X0144906Y0063907D01*
X0144928Y0063924D01*
X0144952Y0063938D01*
X0144978Y0063948D01*
X0145005Y0063955D01*
X0145033Y0063958D01*
X0145061Y0063957D01*
X0145088Y0063952D01*
X0145115Y0063943D01*
X0145140Y0063931D01*
X0145163Y0063916D01*
X0145184Y0063897D01*
X0145202Y0063876D01*
X0145217Y0063852D01*
X0145228Y0063826D01*
X0145236Y0063800D01*
X0145240Y0063772D01*
X0145240Y0063744D01*
X0145236Y0063716D01*
X0145228Y0063690D01*
X0145217Y0063664D01*
X0145202Y0063640D01*
X0145184Y0063619D01*
X0145163Y0063600D01*
X0145140Y0063585D01*
X0145115Y0063573D01*
X0145088Y0063564D01*
X0145061Y0063559D01*
X0145033Y0063558D01*
X0145005Y0063561D01*
X0144978Y0063568D01*
X0144952Y0063578D01*
X0144928Y0063592D01*
X0144906Y0063609D01*
X0144887Y0063629D01*
X0144870Y0063652D01*
X0144857Y0063677D01*
X0144848Y0063703D01*
X0144842Y0063730D01*
X0144840Y0063758D01*
X0150296Y0062163D02*
X0153446Y0062163D01*
X0147146Y0056258D02*
X0147148Y0056297D01*
X0147154Y0056336D01*
X0147164Y0056374D01*
X0147177Y0056411D01*
X0147194Y0056446D01*
X0147214Y0056480D01*
X0147238Y0056511D01*
X0147265Y0056540D01*
X0147294Y0056566D01*
X0147326Y0056589D01*
X0147360Y0056609D01*
X0147396Y0056625D01*
X0147433Y0056637D01*
X0147472Y0056646D01*
X0147511Y0056651D01*
X0147550Y0056652D01*
X0147589Y0056649D01*
X0147628Y0056642D01*
X0147665Y0056631D01*
X0147702Y0056617D01*
X0147737Y0056599D01*
X0147770Y0056578D01*
X0147801Y0056553D01*
X0147829Y0056526D01*
X0147854Y0056496D01*
X0147876Y0056463D01*
X0147895Y0056429D01*
X0147910Y0056393D01*
X0147922Y0056355D01*
X0147930Y0056317D01*
X0147934Y0056278D01*
X0147934Y0056238D01*
X0147930Y0056199D01*
X0147922Y0056161D01*
X0147910Y0056123D01*
X0147895Y0056087D01*
X0147876Y0056053D01*
X0147854Y0056020D01*
X0147829Y0055990D01*
X0147801Y0055963D01*
X0147770Y0055938D01*
X0147737Y0055917D01*
X0147702Y0055899D01*
X0147665Y0055885D01*
X0147628Y0055874D01*
X0147589Y0055867D01*
X0147550Y0055864D01*
X0147511Y0055865D01*
X0147472Y0055870D01*
X0147433Y0055879D01*
X0147396Y0055891D01*
X0147360Y0055907D01*
X0147326Y0055927D01*
X0147294Y0055950D01*
X0147265Y0055976D01*
X0147238Y0056005D01*
X0147214Y0056036D01*
X0147194Y0056070D01*
X0147177Y0056105D01*
X0147164Y0056142D01*
X0147154Y0056180D01*
X0147148Y0056219D01*
X0147146Y0056258D01*
X0149280Y0074922D02*
X0146780Y0077422D01*
X0146780Y0082422D01*
X0149280Y0084922D01*
X0154280Y0084922D01*
X0156780Y0082422D01*
X0159280Y0084922D01*
X0164280Y0084922D01*
X0166780Y0082422D01*
X0166780Y0077422D01*
X0164280Y0074922D01*
X0159280Y0074922D01*
X0156780Y0077422D01*
X0154280Y0074922D01*
X0149280Y0074922D01*
X0187580Y0087322D02*
X0187656Y0087320D01*
X0187732Y0087314D01*
X0187807Y0087305D01*
X0187882Y0087291D01*
X0187956Y0087274D01*
X0188029Y0087253D01*
X0188101Y0087229D01*
X0188172Y0087200D01*
X0188241Y0087169D01*
X0188308Y0087134D01*
X0188373Y0087095D01*
X0188437Y0087053D01*
X0188498Y0087008D01*
X0188557Y0086960D01*
X0188613Y0086909D01*
X0188667Y0086855D01*
X0188718Y0086799D01*
X0188766Y0086740D01*
X0188811Y0086679D01*
X0188853Y0086615D01*
X0188892Y0086550D01*
X0188927Y0086483D01*
X0188958Y0086414D01*
X0188987Y0086343D01*
X0189011Y0086271D01*
X0189032Y0086198D01*
X0189049Y0086124D01*
X0189063Y0086049D01*
X0189072Y0085974D01*
X0189078Y0085898D01*
X0189080Y0085822D01*
D16*
X0117806Y0047137D02*
X0117806Y0046887D01*
X0117555Y0046637D01*
X0117806Y0046386D01*
X0117806Y0046136D01*
X0117555Y0045886D01*
X0117055Y0045886D01*
X0116805Y0046136D01*
X0116332Y0046136D02*
X0116082Y0045886D01*
X0115582Y0045886D01*
X0115332Y0046136D01*
X0115332Y0047137D01*
X0115582Y0047387D01*
X0116082Y0047387D01*
X0116332Y0047137D01*
X0116805Y0047137D02*
X0117055Y0047387D01*
X0117555Y0047387D01*
X0117806Y0047137D01*
X0117555Y0046637D02*
X0117305Y0046637D01*
X0137489Y0046595D02*
X0137489Y0046094D01*
X0137739Y0045844D01*
X0137489Y0045371D02*
X0138740Y0045371D01*
X0138990Y0045121D01*
X0138990Y0044621D01*
X0138740Y0044371D01*
X0137489Y0044371D01*
X0138990Y0045844D02*
X0137990Y0046845D01*
X0137739Y0046845D01*
X0137489Y0046595D01*
X0138990Y0046845D02*
X0138990Y0045844D01*
X0184534Y0028523D02*
X0184534Y0027522D01*
X0184784Y0027272D01*
X0185284Y0027272D01*
X0185534Y0027522D01*
X0185534Y0028523D01*
X0185284Y0028773D01*
X0184784Y0028773D01*
X0184534Y0028523D01*
X0185034Y0027772D02*
X0185534Y0027272D01*
X0186007Y0027272D02*
X0187008Y0027272D01*
X0186507Y0027272D02*
X0186507Y0028773D01*
X0186007Y0028273D01*
X0204303Y0039378D02*
X0205304Y0039378D01*
X0205776Y0039378D02*
X0206777Y0039378D01*
X0206277Y0039378D02*
X0206277Y0040880D01*
X0205776Y0040379D01*
X0204303Y0040880D02*
X0204303Y0039378D01*
D17*
X0065721Y0043480D02*
X0065723Y0043547D01*
X0065729Y0043613D01*
X0065739Y0043679D01*
X0065753Y0043744D01*
X0065770Y0043808D01*
X0065792Y0043871D01*
X0065817Y0043933D01*
X0065846Y0043993D01*
X0065879Y0044051D01*
X0065914Y0044107D01*
X0065954Y0044161D01*
X0065996Y0044212D01*
X0066041Y0044261D01*
X0066089Y0044307D01*
X0066140Y0044350D01*
X0066193Y0044390D01*
X0066249Y0044427D01*
X0066307Y0044460D01*
X0066366Y0044490D01*
X0066427Y0044516D01*
X0066490Y0044539D01*
X0066554Y0044557D01*
X0066619Y0044572D01*
X0066685Y0044583D01*
X0066751Y0044590D01*
X0066817Y0044593D01*
X0066884Y0044592D01*
X0066950Y0044587D01*
X0067016Y0044578D01*
X0067082Y0044565D01*
X0067146Y0044548D01*
X0067209Y0044528D01*
X0067271Y0044503D01*
X0067332Y0044475D01*
X0067391Y0044444D01*
X0067447Y0044409D01*
X0067502Y0044371D01*
X0067554Y0044329D01*
X0067603Y0044284D01*
X0067650Y0044237D01*
X0067694Y0044187D01*
X0067734Y0044134D01*
X0067772Y0044079D01*
X0067806Y0044022D01*
X0067837Y0043963D01*
X0067864Y0043902D01*
X0067887Y0043840D01*
X0067907Y0043776D01*
X0067923Y0043711D01*
X0067935Y0043646D01*
X0067943Y0043580D01*
X0067947Y0043513D01*
X0067947Y0043447D01*
X0067943Y0043380D01*
X0067935Y0043314D01*
X0067923Y0043249D01*
X0067907Y0043184D01*
X0067887Y0043120D01*
X0067864Y0043058D01*
X0067837Y0042997D01*
X0067806Y0042938D01*
X0067772Y0042881D01*
X0067734Y0042826D01*
X0067694Y0042773D01*
X0067650Y0042723D01*
X0067603Y0042676D01*
X0067554Y0042631D01*
X0067502Y0042589D01*
X0067447Y0042551D01*
X0067390Y0042516D01*
X0067332Y0042485D01*
X0067271Y0042457D01*
X0067209Y0042432D01*
X0067146Y0042412D01*
X0067082Y0042395D01*
X0067016Y0042382D01*
X0066950Y0042373D01*
X0066884Y0042368D01*
X0066817Y0042367D01*
X0066751Y0042370D01*
X0066685Y0042377D01*
X0066619Y0042388D01*
X0066554Y0042403D01*
X0066490Y0042421D01*
X0066427Y0042444D01*
X0066366Y0042470D01*
X0066307Y0042500D01*
X0066249Y0042533D01*
X0066193Y0042570D01*
X0066140Y0042610D01*
X0066089Y0042653D01*
X0066041Y0042699D01*
X0065996Y0042748D01*
X0065954Y0042799D01*
X0065914Y0042853D01*
X0065879Y0042909D01*
X0065846Y0042967D01*
X0065817Y0043027D01*
X0065792Y0043089D01*
X0065770Y0043152D01*
X0065753Y0043216D01*
X0065739Y0043281D01*
X0065729Y0043347D01*
X0065723Y0043413D01*
X0065721Y0043480D01*
D18*
X0054782Y0044528D02*
X0054782Y0046663D01*
X0054782Y0045595D02*
X0048377Y0045595D01*
X0048377Y0044528D02*
X0048377Y0046663D01*
X0049444Y0048825D02*
X0053714Y0048825D01*
X0054782Y0049892D01*
X0054782Y0052027D01*
X0053714Y0053095D01*
X0054782Y0055270D02*
X0054782Y0059541D01*
X0054782Y0057405D02*
X0048377Y0057405D01*
X0050512Y0055270D01*
X0049444Y0053095D02*
X0048377Y0052027D01*
X0048377Y0049892D01*
X0049444Y0048825D01*
X0095406Y0027667D02*
X0095406Y0012667D01*
X0097906Y0010167D01*
X0102906Y0010167D01*
X0105406Y0012667D01*
X0105406Y0027667D01*
X0102906Y0030167D01*
X0097906Y0030167D01*
X0095406Y0027667D01*
X0105406Y0027667D02*
X0107906Y0030167D01*
X0112906Y0030167D01*
X0115406Y0027667D01*
X0115406Y0012667D01*
X0112906Y0010167D01*
X0107906Y0010167D01*
X0105406Y0012667D01*
X0115406Y0012667D02*
X0117906Y0010167D01*
X0122906Y0010167D01*
X0125406Y0012667D01*
X0125406Y0027667D01*
X0122906Y0030167D01*
X0117906Y0030167D01*
X0115406Y0027667D01*
X0137088Y0026051D02*
X0162288Y0026051D01*
X0162288Y0011051D01*
X0137088Y0011051D01*
X0137088Y0026051D01*
X0141688Y0021551D02*
X0157688Y0021551D01*
X0157688Y0015551D01*
X0141688Y0015551D01*
X0141688Y0021551D01*
X0147387Y0031540D02*
X0150615Y0031540D01*
X0150615Y0036540D02*
X0147387Y0036540D01*
X0159825Y0043075D02*
X0159825Y0046304D01*
X0164825Y0046304D02*
X0164825Y0043075D01*
X0178580Y0038422D02*
X0189780Y0038422D01*
X0189780Y0033222D01*
X0178580Y0033222D01*
X0178580Y0038422D01*
X0203018Y0041816D02*
X0205381Y0041816D01*
X0205381Y0046541D02*
X0203018Y0046541D01*
X0205349Y0054114D02*
X0205349Y0057342D01*
X0210349Y0057342D02*
X0210349Y0054114D01*
X0213312Y0054201D02*
X0213312Y0057430D01*
X0218312Y0057430D02*
X0218312Y0054201D01*
X0221880Y0056222D02*
X0221880Y0051222D01*
X0224380Y0048722D01*
X0229380Y0048722D01*
X0231880Y0051222D01*
X0231880Y0056222D01*
X0229380Y0058722D01*
X0224380Y0058722D01*
X0221880Y0056222D01*
X0224380Y0058722D02*
X0221880Y0061222D01*
X0221880Y0066222D01*
X0224380Y0068722D01*
X0221880Y0071222D01*
X0221880Y0076222D01*
X0224380Y0078722D01*
X0221880Y0081222D01*
X0221880Y0086222D01*
X0224380Y0088722D01*
X0229380Y0088722D01*
X0231880Y0086222D01*
X0231880Y0081222D01*
X0229380Y0078722D01*
X0231880Y0076222D01*
X0231880Y0071222D01*
X0229380Y0068722D01*
X0224380Y0068722D01*
X0229380Y0068722D02*
X0231880Y0066222D01*
X0231880Y0061222D01*
X0229380Y0058722D01*
X0213449Y0073261D02*
X0210220Y0073261D01*
X0210220Y0078261D02*
X0213449Y0078261D01*
X0213794Y0080922D02*
X0210566Y0080922D01*
X0210566Y0085922D02*
X0213794Y0085922D01*
X0224380Y0078722D02*
X0229380Y0078722D01*
X0164980Y0061236D02*
X0164980Y0058008D01*
X0159980Y0058008D02*
X0159980Y0061236D01*
X0133149Y0057070D02*
X0133149Y0053841D01*
X0128149Y0053841D02*
X0128149Y0057070D01*
X0126459Y0066806D02*
X0123230Y0066806D01*
X0123230Y0071806D02*
X0126459Y0071806D01*
X0129179Y0076177D02*
X0134179Y0076177D01*
X0136679Y0078677D01*
X0139179Y0076177D01*
X0144179Y0076177D01*
X0146679Y0078677D01*
X0146679Y0083677D01*
X0144179Y0086177D01*
X0139179Y0086177D01*
X0136679Y0083677D01*
X0136679Y0078677D01*
X0129179Y0076177D02*
X0126679Y0078677D01*
X0126679Y0083677D01*
X0129179Y0086177D01*
X0134179Y0086177D01*
X0136679Y0083677D01*
D19*
X0098330Y0080980D03*
X0082582Y0080980D03*
X0066834Y0080980D03*
X0066834Y0037476D03*
X0082582Y0037476D03*
X0098330Y0037476D03*
D20*
X0095180Y0037476D03*
X0092030Y0037476D03*
X0073134Y0037476D03*
X0069984Y0037476D03*
X0069984Y0080980D03*
X0073134Y0080980D03*
X0092030Y0080980D03*
X0095180Y0080980D03*
D21*
X0088881Y0080980D03*
X0085731Y0080980D03*
X0079433Y0080980D03*
X0076283Y0080980D03*
X0076283Y0037476D03*
X0079433Y0037476D03*
X0085731Y0037476D03*
X0088881Y0037476D03*
D22*
X0104334Y0043480D03*
X0104334Y0059228D03*
X0104334Y0074976D03*
X0060830Y0074976D03*
X0060830Y0059228D03*
X0060830Y0043480D03*
D23*
X0060830Y0046629D03*
X0060830Y0049779D03*
X0060830Y0068676D03*
X0060830Y0071826D03*
X0104334Y0071826D03*
X0104334Y0068676D03*
X0104334Y0049779D03*
X0104334Y0046629D03*
D24*
X0104334Y0052928D03*
X0104334Y0056078D03*
X0104334Y0062377D03*
X0104334Y0065527D03*
X0060830Y0065527D03*
X0060830Y0062377D03*
X0060830Y0056078D03*
X0060830Y0052928D03*
D25*
X0018219Y0010957D02*
X0013219Y0010957D01*
X0013219Y0085957D01*
X0038219Y0085957D01*
X0038219Y0010957D01*
X0033219Y0010957D01*
X0033217Y0011097D01*
X0033211Y0011237D01*
X0033201Y0011377D01*
X0033188Y0011517D01*
X0033170Y0011656D01*
X0033148Y0011795D01*
X0033123Y0011932D01*
X0033094Y0012070D01*
X0033061Y0012206D01*
X0033024Y0012341D01*
X0032983Y0012475D01*
X0032938Y0012608D01*
X0032890Y0012740D01*
X0032838Y0012870D01*
X0032783Y0012999D01*
X0032724Y0013126D01*
X0032661Y0013252D01*
X0032595Y0013376D01*
X0032526Y0013497D01*
X0032453Y0013617D01*
X0032376Y0013735D01*
X0032297Y0013850D01*
X0032214Y0013964D01*
X0032128Y0014074D01*
X0032039Y0014183D01*
X0031947Y0014289D01*
X0031852Y0014392D01*
X0031755Y0014493D01*
X0031654Y0014590D01*
X0031551Y0014685D01*
X0031445Y0014777D01*
X0031336Y0014866D01*
X0031226Y0014952D01*
X0031112Y0015035D01*
X0030997Y0015114D01*
X0030879Y0015191D01*
X0030759Y0015264D01*
X0030638Y0015333D01*
X0030514Y0015399D01*
X0030388Y0015462D01*
X0030261Y0015521D01*
X0030132Y0015576D01*
X0030002Y0015628D01*
X0029870Y0015676D01*
X0029737Y0015721D01*
X0029603Y0015762D01*
X0029468Y0015799D01*
X0029332Y0015832D01*
X0029194Y0015861D01*
X0029057Y0015886D01*
X0028918Y0015908D01*
X0028779Y0015926D01*
X0028639Y0015939D01*
X0028499Y0015949D01*
X0028359Y0015955D01*
X0028219Y0015957D01*
X0023219Y0015957D01*
X0023079Y0015955D01*
X0022939Y0015949D01*
X0022799Y0015939D01*
X0022659Y0015926D01*
X0022520Y0015908D01*
X0022381Y0015886D01*
X0022244Y0015861D01*
X0022106Y0015832D01*
X0021970Y0015799D01*
X0021835Y0015762D01*
X0021701Y0015721D01*
X0021568Y0015676D01*
X0021436Y0015628D01*
X0021306Y0015576D01*
X0021177Y0015521D01*
X0021050Y0015462D01*
X0020924Y0015399D01*
X0020800Y0015333D01*
X0020679Y0015264D01*
X0020559Y0015191D01*
X0020441Y0015114D01*
X0020326Y0015035D01*
X0020212Y0014952D01*
X0020102Y0014866D01*
X0019993Y0014777D01*
X0019887Y0014685D01*
X0019784Y0014590D01*
X0019683Y0014493D01*
X0019586Y0014392D01*
X0019491Y0014289D01*
X0019399Y0014183D01*
X0019310Y0014074D01*
X0019224Y0013964D01*
X0019141Y0013850D01*
X0019062Y0013735D01*
X0018985Y0013617D01*
X0018912Y0013497D01*
X0018843Y0013376D01*
X0018777Y0013252D01*
X0018714Y0013126D01*
X0018655Y0012999D01*
X0018600Y0012870D01*
X0018548Y0012740D01*
X0018500Y0012608D01*
X0018455Y0012475D01*
X0018414Y0012341D01*
X0018377Y0012206D01*
X0018344Y0012070D01*
X0018315Y0011932D01*
X0018290Y0011795D01*
X0018268Y0011656D01*
X0018250Y0011517D01*
X0018237Y0011377D01*
X0018227Y0011237D01*
X0018221Y0011097D01*
X0018219Y0010957D01*
X0094963Y0007420D02*
X0096464Y0007420D01*
X0095714Y0007420D02*
X0095714Y0002917D01*
X0096464Y0002917D02*
X0094963Y0002917D01*
X0098032Y0003667D02*
X0098783Y0002917D01*
X0100284Y0002917D01*
X0101035Y0003667D01*
X0102636Y0003667D02*
X0103387Y0002917D01*
X0104888Y0002917D01*
X0105639Y0003667D01*
X0105639Y0004418D01*
X0104888Y0005169D01*
X0103387Y0005169D01*
X0102636Y0005919D01*
X0102636Y0006670D01*
X0103387Y0007420D01*
X0104888Y0007420D01*
X0105639Y0006670D01*
X0107240Y0007420D02*
X0109492Y0007420D01*
X0110243Y0006670D01*
X0110243Y0005169D01*
X0109492Y0004418D01*
X0107240Y0004418D01*
X0107240Y0002917D02*
X0107240Y0007420D01*
X0111844Y0005169D02*
X0114096Y0005169D01*
X0114847Y0004418D01*
X0114847Y0003667D01*
X0114096Y0002917D01*
X0112595Y0002917D01*
X0111844Y0003667D01*
X0111844Y0005169D01*
X0113345Y0006670D01*
X0114847Y0007420D01*
X0116448Y0005169D02*
X0119451Y0005169D01*
X0121052Y0005169D02*
X0124055Y0005169D01*
X0123304Y0007420D02*
X0121052Y0005169D01*
X0123304Y0002917D02*
X0123304Y0007420D01*
X0118700Y0007420D02*
X0116448Y0005169D01*
X0118700Y0002917D02*
X0118700Y0007420D01*
X0101035Y0006670D02*
X0100284Y0007420D01*
X0098783Y0007420D01*
X0098032Y0006670D01*
X0098032Y0003667D01*
X0137438Y0028552D02*
X0138189Y0027801D01*
X0139690Y0027801D01*
X0140441Y0028552D01*
X0140441Y0029302D01*
X0139690Y0030053D01*
X0138189Y0030053D01*
X0137438Y0030803D01*
X0137438Y0031554D01*
X0138189Y0032305D01*
X0139690Y0032305D01*
X0140441Y0031554D01*
X0142042Y0030803D02*
X0143543Y0032305D01*
X0143543Y0027801D01*
X0142042Y0027801D02*
X0145044Y0027801D01*
X0141635Y0042478D02*
X0153446Y0042478D01*
X0153446Y0062163D01*
X0141635Y0062163D01*
X0141635Y0042478D01*
X0179422Y0041822D02*
X0180173Y0041072D01*
X0181674Y0041072D01*
X0182425Y0041822D01*
X0182425Y0045576D01*
X0184026Y0044074D02*
X0185527Y0045576D01*
X0185527Y0041072D01*
X0184026Y0041072D02*
X0187029Y0041072D01*
X0179422Y0041822D02*
X0179422Y0045576D01*
X0165729Y0067972D02*
X0162726Y0067972D01*
X0165729Y0070974D01*
X0165729Y0071725D01*
X0164978Y0072476D01*
X0163477Y0072476D01*
X0162726Y0071725D01*
X0161125Y0071725D02*
X0161125Y0070224D01*
X0160374Y0069473D01*
X0158122Y0069473D01*
X0158122Y0067972D02*
X0158122Y0072476D01*
X0160374Y0072476D01*
X0161125Y0071725D01*
X0156521Y0072476D02*
X0155020Y0072476D01*
X0155770Y0072476D02*
X0155770Y0068722D01*
X0155020Y0067972D01*
X0154269Y0067972D01*
X0153518Y0068722D01*
X0138840Y0088627D02*
X0135837Y0088627D01*
X0137338Y0088627D02*
X0137338Y0093131D01*
X0135837Y0091629D01*
X0134236Y0090879D02*
X0133485Y0090128D01*
X0131233Y0090128D01*
X0128881Y0089378D02*
X0128881Y0093131D01*
X0128131Y0093131D02*
X0129632Y0093131D01*
X0131233Y0093131D02*
X0133485Y0093131D01*
X0134236Y0092380D01*
X0134236Y0090879D01*
X0131233Y0088627D02*
X0131233Y0093131D01*
X0128881Y0089378D02*
X0128131Y0088627D01*
X0127380Y0088627D01*
X0126629Y0089378D01*
X0234326Y0086920D02*
X0234326Y0085418D01*
X0235077Y0084668D01*
X0236578Y0086169D02*
X0236578Y0086920D01*
X0237329Y0087670D01*
X0238079Y0087670D01*
X0238830Y0086920D01*
X0238830Y0085418D01*
X0238079Y0084668D01*
X0236578Y0083066D02*
X0237329Y0082316D01*
X0237329Y0080064D01*
X0238830Y0080064D02*
X0234326Y0080064D01*
X0234326Y0082316D01*
X0235077Y0083066D01*
X0236578Y0083066D01*
X0236578Y0086920D02*
X0235827Y0087670D01*
X0235077Y0087670D01*
X0234326Y0086920D01*
X0234326Y0078463D02*
X0234326Y0076961D01*
X0234326Y0077712D02*
X0238079Y0077712D01*
X0238830Y0076961D01*
X0238830Y0076211D01*
X0238079Y0075460D01*
D26*
X0226880Y0073722D03*
X0226880Y0083722D03*
X0226880Y0063722D03*
X0226880Y0053722D03*
X0161780Y0079922D03*
X0151780Y0079922D03*
X0141679Y0081177D03*
X0131679Y0081177D03*
X0120406Y0025167D03*
X0110406Y0025167D03*
X0100406Y0025167D03*
X0100406Y0015167D03*
X0110406Y0015167D03*
X0120406Y0015167D03*
D27*
X0162330Y0041810D03*
X0162330Y0047610D03*
X0162486Y0056742D03*
X0162486Y0062542D03*
X0130655Y0058376D03*
X0130655Y0052576D03*
X0207854Y0052849D03*
X0215806Y0052895D03*
X0215806Y0058695D03*
X0207854Y0058649D03*
D28*
X0208914Y0075767D03*
X0214714Y0075767D03*
X0215060Y0083428D03*
X0209260Y0083428D03*
X0127765Y0069300D03*
X0121965Y0069300D03*
X0146122Y0034035D03*
X0151922Y0034035D03*
D29*
X0148538Y0017987D02*
X0148538Y0015518D01*
X0148538Y0016752D02*
X0144835Y0016752D01*
X0146069Y0015518D01*
D30*
X0154688Y0018551D03*
D31*
X0164088Y0018601D03*
X0135288Y0018501D03*
D32*
X0131388Y0018551D03*
X0167988Y0018551D03*
D33*
X0171430Y0049822D03*
X0171430Y0054822D03*
X0171430Y0059822D03*
X0171430Y0064822D03*
X0171430Y0069822D03*
X0171430Y0074822D03*
X0171430Y0079822D03*
X0171430Y0084822D03*
X0191330Y0084822D03*
X0191330Y0079822D03*
X0191330Y0074822D03*
X0191330Y0069822D03*
X0191330Y0064822D03*
X0191230Y0059822D03*
X0191330Y0054822D03*
X0191330Y0049822D03*
M02*
