G75*
%MOIN*%
%OFA0B0*%
%FSLAX25Y25*%
%IPPOS*%
%LPD*%
%AMOC8*
5,1,8,0,0,1.08239X$1,22.5*
%
%ADD10OC8,0.06800*%
%ADD11C,0.05556*%
%ADD12C,0.06800*%
%ADD13C,0.08200*%
%ADD14C,0.03600*%
%ADD15C,0.03900*%
%ADD16C,0.03700*%
D10*
X0100406Y0015167D03*
X0110406Y0015167D03*
X0120406Y0015167D03*
X0120406Y0025167D03*
X0110406Y0025167D03*
X0100406Y0025167D03*
D11*
X0028471Y0020957D02*
X0023715Y0020957D01*
X0023715Y0025957D02*
X0028471Y0025957D01*
X0028471Y0030957D02*
X0023715Y0030957D01*
X0023715Y0035957D02*
X0028471Y0035957D01*
X0028471Y0040957D02*
X0023715Y0040957D01*
X0023715Y0045957D02*
X0028471Y0045957D01*
X0028471Y0050957D02*
X0023715Y0050957D01*
X0023715Y0055957D02*
X0028471Y0055957D01*
X0028471Y0060957D02*
X0023715Y0060957D01*
X0023715Y0065957D02*
X0028471Y0065957D01*
X0028471Y0070957D02*
X0023715Y0070957D01*
X0023715Y0075957D02*
X0028471Y0075957D01*
X0028471Y0080957D02*
X0023715Y0080957D01*
D12*
X0131679Y0078177D02*
X0131679Y0084177D01*
X0141679Y0084177D02*
X0141679Y0078177D01*
X0223880Y0073722D02*
X0229880Y0073722D01*
X0229880Y0083722D02*
X0223880Y0083722D01*
X0223880Y0063722D02*
X0229880Y0063722D01*
X0229880Y0053722D02*
X0223880Y0053722D01*
D13*
X0161780Y0079922D03*
X0151780Y0079922D03*
D14*
X0155480Y0065222D03*
X0136580Y0048422D03*
X0033680Y0072222D03*
D15*
X0060980Y0081322D03*
X0068680Y0075022D03*
X0095980Y0073622D03*
X0105080Y0081322D03*
X0113480Y0065222D03*
X0123980Y0063122D03*
X0095980Y0052622D03*
X0088980Y0049822D03*
X0081280Y0045622D03*
X0061680Y0038622D03*
X0052580Y0030922D03*
X0067680Y0025122D03*
X0074980Y0030222D03*
X0104380Y0034722D03*
X0112080Y0044922D03*
X0136580Y0033722D03*
X0163180Y0031622D03*
X0222680Y0045622D03*
X0163880Y0069422D03*
X0155480Y0072922D03*
X0091780Y0058922D03*
X0081980Y0058922D03*
X0070780Y0059622D03*
D16*
X0148412Y0012972D03*
M02*
