G75*
%MOIN*%
%OFA0B0*%
%FSLAX25Y25*%
%IPPOS*%
%LPD*%
%AMOC8*
5,1,8,0,0,1.08239X$1,22.5*
%
%ADD10R,0.05918X0.06706*%
%ADD11R,0.06706X0.05918*%
%ADD12R,0.06312X0.07099*%
%ADD13R,0.02769X0.06706*%
%ADD14R,0.06706X0.02769*%
%ADD15OC8,0.06800*%
%ADD16R,0.05224X0.02769*%
%ADD17R,0.02769X0.05224*%
%ADD18C,0.05556*%
%ADD19C,0.06800*%
%ADD20R,0.08700X0.05100*%
%ADD21R,0.01784X0.04737*%
%ADD22R,0.03200X0.09500*%
%ADD23C,0.13800*%
%ADD24C,0.03600*%
%ADD25C,0.03900*%
%ADD26C,0.03700*%
D10*
X0039122Y0050968D03*
X0046602Y0050968D03*
X0046594Y0061187D03*
X0039114Y0061187D03*
X0039114Y0072111D03*
X0046594Y0072111D03*
X0047396Y0082430D03*
X0039915Y0082430D03*
X0121104Y0069306D03*
X0128585Y0069306D03*
X0151040Y0081322D03*
X0158520Y0081322D03*
X0184312Y0068150D03*
X0191792Y0068150D03*
X0201440Y0068722D03*
X0208920Y0068722D03*
X0208920Y0078522D03*
X0201440Y0078522D03*
X0152741Y0034040D03*
X0145261Y0034040D03*
D11*
X0168080Y0041882D03*
X0177180Y0041882D03*
X0186280Y0041882D03*
X0195067Y0041799D03*
X0195067Y0049279D03*
X0186280Y0049362D03*
X0177180Y0049362D03*
X0168080Y0049362D03*
X0158971Y0047955D03*
X0158971Y0055436D03*
X0158280Y0064282D03*
X0158280Y0071762D03*
X0184234Y0078046D03*
X0193256Y0078034D03*
X0193256Y0085515D03*
X0184234Y0085527D03*
X0218480Y0086462D03*
X0218480Y0078982D03*
X0130649Y0059196D03*
X0118039Y0058533D03*
X0130649Y0051715D03*
X0118039Y0051052D03*
D12*
X0119770Y0040399D03*
X0130793Y0040399D03*
D13*
X0098330Y0036393D03*
X0095180Y0036393D03*
X0092031Y0036393D03*
X0088881Y0036393D03*
X0085732Y0036393D03*
X0082582Y0036393D03*
X0079432Y0036393D03*
X0076283Y0036393D03*
X0073133Y0036393D03*
X0069984Y0036393D03*
X0066834Y0036393D03*
X0066834Y0082062D03*
X0069984Y0082062D03*
X0073133Y0082062D03*
X0076283Y0082062D03*
X0079432Y0082062D03*
X0082582Y0082062D03*
X0085732Y0082062D03*
X0088881Y0082062D03*
X0092031Y0082062D03*
X0095180Y0082062D03*
X0098330Y0082062D03*
D14*
X0105417Y0074976D03*
X0105417Y0071826D03*
X0105417Y0068677D03*
X0105417Y0065527D03*
X0105417Y0062377D03*
X0105417Y0059228D03*
X0105417Y0056078D03*
X0105417Y0052929D03*
X0105417Y0049779D03*
X0105417Y0046629D03*
X0105417Y0043480D03*
X0059747Y0043480D03*
X0059747Y0046629D03*
X0059747Y0049779D03*
X0059747Y0052929D03*
X0059747Y0056078D03*
X0059747Y0059228D03*
X0059747Y0062377D03*
X0059747Y0065527D03*
X0059747Y0068677D03*
X0059747Y0071826D03*
X0059747Y0074976D03*
D15*
X0100406Y0025167D03*
X0110406Y0025167D03*
X0120406Y0025167D03*
X0120406Y0015167D03*
X0110406Y0015167D03*
X0100406Y0015167D03*
D16*
X0141660Y0044447D03*
X0141660Y0047596D03*
X0141660Y0050746D03*
X0141660Y0053895D03*
X0141660Y0057045D03*
X0141660Y0060195D03*
X0150621Y0060195D03*
X0150621Y0057045D03*
X0150621Y0053895D03*
X0150621Y0050746D03*
X0150621Y0047596D03*
X0150591Y0044447D03*
D17*
X0146140Y0044053D03*
X0146140Y0060588D03*
D18*
X0028471Y0020957D02*
X0023715Y0020957D01*
X0023715Y0025957D02*
X0028471Y0025957D01*
X0028471Y0030957D02*
X0023715Y0030957D01*
X0023715Y0035957D02*
X0028471Y0035957D01*
X0028471Y0040957D02*
X0023715Y0040957D01*
X0023715Y0045957D02*
X0028471Y0045957D01*
X0028471Y0050957D02*
X0023715Y0050957D01*
X0023715Y0055957D02*
X0028471Y0055957D01*
X0028471Y0060957D02*
X0023715Y0060957D01*
X0023715Y0065957D02*
X0028471Y0065957D01*
X0028471Y0070957D02*
X0023715Y0070957D01*
X0023715Y0075957D02*
X0028471Y0075957D01*
X0028471Y0080957D02*
X0023715Y0080957D01*
D19*
X0130979Y0078177D02*
X0130979Y0084177D01*
X0140979Y0084177D02*
X0140979Y0078177D01*
D20*
X0131988Y0018551D03*
X0167388Y0018551D03*
D21*
X0168509Y0063543D03*
X0170478Y0063543D03*
X0172446Y0063543D03*
X0174415Y0063543D03*
X0176383Y0063543D03*
X0176383Y0080181D03*
X0174415Y0080181D03*
X0172446Y0080181D03*
X0170478Y0080181D03*
X0168509Y0080181D03*
D22*
X0206002Y0056160D03*
X0211002Y0056160D03*
X0216002Y0056160D03*
X0221002Y0056160D03*
X0221002Y0035560D03*
X0216002Y0035560D03*
X0211002Y0035560D03*
X0206002Y0035560D03*
D23*
X0203186Y0020801D03*
X0185555Y0020807D03*
D24*
X0136580Y0048422D03*
X0033680Y0072222D03*
D25*
X0060980Y0081322D03*
X0068680Y0075022D03*
X0082680Y0071522D03*
X0095980Y0073622D03*
X0113480Y0065222D03*
X0123980Y0063122D03*
X0137980Y0069422D03*
X0150580Y0072922D03*
X0171580Y0069422D03*
X0172980Y0075022D03*
X0158980Y0087622D03*
X0147080Y0087622D03*
X0115580Y0082722D03*
X0103680Y0085522D03*
X0070780Y0059622D03*
X0088980Y0049822D03*
X0095980Y0052622D03*
X0081280Y0045622D03*
X0061680Y0038622D03*
X0052580Y0030922D03*
X0075380Y0026722D03*
X0066580Y0020422D03*
X0106580Y0033622D03*
X0136580Y0033722D03*
X0166680Y0030922D03*
X0171580Y0035122D03*
X0180680Y0058922D03*
X0201680Y0061722D03*
X0207980Y0086222D03*
X0200980Y0089722D03*
D26*
X0188912Y0058785D03*
X0085180Y0026322D03*
M02*
