%
M48
M72
T01C0.01200
T02C0.01300
T03C0.01500
T04C0.02756
T05C0.04000
T06C0.07874
%
T01
X136580Y48422
X33680Y72222
T02
X85180Y26322
X188912Y58785
T03
X180680Y58922
X201680Y61722
X171580Y69422
X172980Y75022
X150580Y72922
X137980Y69422
X123980Y63122
X113480Y65222
X95980Y73622
X82680Y71522
X68680Y75022
X60980Y81322
X103680Y85522
X115580Y82722
X147080Y87622
X158980Y87622
X200980Y89722
X207980Y86222
X171580Y35122
X166680Y30922
X136580Y33722
X106580Y33622
X81280Y45622
X88980Y49822
X95980Y52622
X70780Y59622
X61680Y38622
X52580Y30922
X75380Y26722
X66580Y20422
T04
X26093Y20957
X26093Y25957
X26093Y30957
X26093Y35957
X26093Y40957
X26093Y45957
X26093Y50957
X26093Y55957
X26093Y60957
X26093Y65957
X26093Y70957
X26093Y75957
X26093Y80957
T05
X130979Y81177
X140979Y81177
X120406Y25167
X110406Y25167
X100406Y25167
X100406Y15167
X110406Y15167
X120406Y15167
T06
X185555Y20807
X203186Y20801
M30
