G75*
%MOIN*%
%OFA0B0*%
%FSLAX25Y25*%
%IPPOS*%
%LPD*%
%AMOC8*
5,1,8,0,0,1.08239X$1,22.5*
%
%ADD10C,0.00400*%
%ADD11C,0.00600*%
%ADD12R,0.02559X0.01969*%
D10*
X0044397Y0008838D02*
X0044855Y0008379D01*
X0045773Y0008379D01*
X0046231Y0008838D01*
X0044397Y0010673D01*
X0044397Y0008838D01*
X0046231Y0008838D02*
X0046231Y0010673D01*
X0045773Y0011131D01*
X0044855Y0011131D01*
X0044397Y0010673D01*
X0047223Y0008838D02*
X0047223Y0008379D01*
X0047681Y0008379D01*
X0047681Y0008838D01*
X0047223Y0008838D01*
X0048747Y0008379D02*
X0050581Y0008379D01*
X0049664Y0008379D02*
X0049664Y0011131D01*
X0050581Y0010214D01*
X0054547Y0009297D02*
X0054547Y0011131D01*
X0056382Y0011131D02*
X0056382Y0009297D01*
X0055464Y0008379D01*
X0054547Y0009297D01*
X0055217Y0014678D02*
X0056135Y0014678D01*
X0056593Y0015137D01*
X0056593Y0016054D01*
X0056135Y0016513D01*
X0055217Y0016513D01*
X0054759Y0016054D01*
X0054759Y0015596D01*
X0056593Y0015596D01*
X0057659Y0015596D02*
X0057659Y0015137D01*
X0058117Y0014678D01*
X0059035Y0014678D01*
X0059493Y0015137D01*
X0059035Y0016054D02*
X0058117Y0016054D01*
X0057659Y0015596D01*
X0057659Y0016972D02*
X0058117Y0017430D01*
X0059035Y0017430D01*
X0059493Y0016972D01*
X0059493Y0016513D01*
X0059035Y0016054D01*
X0059035Y0018278D02*
X0058117Y0018278D01*
X0057659Y0018737D01*
X0056593Y0018737D02*
X0056135Y0018278D01*
X0054759Y0018278D01*
X0054759Y0020113D01*
X0053693Y0020113D02*
X0053693Y0018278D01*
X0053693Y0019196D02*
X0052776Y0020113D01*
X0052317Y0020113D01*
X0051276Y0020113D02*
X0051276Y0018278D01*
X0051276Y0019196D02*
X0050359Y0020113D01*
X0049901Y0020113D01*
X0048860Y0019654D02*
X0048401Y0020113D01*
X0047484Y0020113D01*
X0047025Y0019654D01*
X0047025Y0019196D01*
X0048860Y0019196D01*
X0048860Y0019654D02*
X0048860Y0018737D01*
X0048401Y0018278D01*
X0047484Y0018278D01*
X0045960Y0018278D02*
X0045960Y0020113D01*
X0044584Y0020113D01*
X0044125Y0019654D01*
X0044125Y0018278D01*
X0042601Y0018737D02*
X0042142Y0018278D01*
X0042601Y0018737D02*
X0042601Y0020572D01*
X0043059Y0020113D02*
X0042142Y0020113D01*
X0043617Y0016513D02*
X0044076Y0016513D01*
X0044993Y0015596D01*
X0044993Y0016513D02*
X0044993Y0014678D01*
X0046058Y0015137D02*
X0046058Y0016054D01*
X0046517Y0016513D01*
X0047434Y0016513D01*
X0047893Y0016054D01*
X0047893Y0015137D01*
X0047434Y0014678D01*
X0046517Y0014678D01*
X0046058Y0015137D01*
X0048958Y0015137D02*
X0049417Y0015596D01*
X0050334Y0015596D01*
X0050793Y0016054D01*
X0050334Y0016513D01*
X0048958Y0016513D01*
X0048958Y0015137D02*
X0049417Y0014678D01*
X0050793Y0014678D01*
X0051859Y0014678D02*
X0051859Y0016054D01*
X0052317Y0016513D01*
X0053693Y0016513D01*
X0053693Y0014678D01*
X0059035Y0018278D02*
X0059493Y0018737D01*
X0059493Y0020572D01*
X0059035Y0021030D01*
X0058117Y0021030D01*
X0057659Y0020572D01*
X0056593Y0020113D02*
X0056593Y0018737D01*
X0104492Y0081501D02*
X0103725Y0082268D01*
X0103725Y0083802D01*
X0104492Y0084570D01*
X0108329Y0084570D01*
X0108329Y0086104D02*
X0106027Y0086104D01*
X0106794Y0087639D01*
X0106794Y0088406D01*
X0106027Y0089174D01*
X0104492Y0089174D01*
X0103725Y0088406D01*
X0103725Y0086872D01*
X0104492Y0086104D01*
X0108329Y0086104D02*
X0108329Y0089174D01*
X0108329Y0081501D02*
X0104492Y0081501D01*
D11*
X0112836Y0080953D02*
X0112836Y0085064D01*
X0112836Y0088237D02*
X0112836Y0088607D01*
X0112836Y0077410D01*
X0112836Y0077780D01*
X0112836Y0077410D02*
X0119214Y0077410D01*
X0119214Y0077780D01*
X0119214Y0077410D02*
X0119214Y0088607D01*
X0119214Y0088237D01*
X0119214Y0088607D02*
X0112836Y0088607D01*
X0119214Y0085064D02*
X0119214Y0084693D01*
X0119214Y0081323D02*
X0119214Y0080953D01*
D12*
X0120651Y0079268D03*
X0120651Y0083008D03*
X0111399Y0079268D03*
X0111399Y0086749D03*
X0120651Y0086749D03*
M02*
