G75*
%MOIN*%
%OFA0B0*%
%FSLAX25Y25*%
%IPPOS*%
%LPD*%
%AMOC8*
5,1,8,0,0,1.08239X$1,22.5*
%
%ADD10R,0.23622X0.13780*%
%ADD11OC8,0.06000*%
%ADD12C,0.04756*%
%ADD13C,0.06000*%
%ADD14C,0.13000*%
%ADD15R,0.04724X0.02165*%
%ADD16C,0.01400*%
%ADD17C,0.02800*%
%ADD18C,0.03100*%
%ADD19C,0.02000*%
%ADD20C,0.02900*%
D10*
X0050652Y0014522D03*
D11*
X0100406Y0015167D03*
X0110406Y0015167D03*
X0120406Y0015167D03*
X0120406Y0025167D03*
X0110406Y0025167D03*
X0100406Y0025167D03*
D12*
X0028471Y0025957D02*
X0023715Y0025957D01*
X0023715Y0020957D02*
X0028471Y0020957D01*
X0028471Y0030957D02*
X0023715Y0030957D01*
X0023715Y0035957D02*
X0028471Y0035957D01*
X0028471Y0040957D02*
X0023715Y0040957D01*
X0023715Y0045957D02*
X0028471Y0045957D01*
X0028471Y0050957D02*
X0023715Y0050957D01*
X0023715Y0055957D02*
X0028471Y0055957D01*
X0028471Y0060957D02*
X0023715Y0060957D01*
X0023715Y0065957D02*
X0028471Y0065957D01*
X0028471Y0070957D02*
X0023715Y0070957D01*
X0023715Y0075957D02*
X0028471Y0075957D01*
X0028471Y0080957D02*
X0023715Y0080957D01*
D13*
X0130979Y0078177D02*
X0130979Y0084177D01*
X0140979Y0084177D02*
X0140979Y0078177D01*
D14*
X0185555Y0020807D03*
X0203186Y0020801D03*
D15*
X0121143Y0079268D03*
X0121143Y0083008D03*
X0121143Y0086749D03*
X0110907Y0086749D03*
X0110907Y0079268D03*
D16*
X0019612Y0093804D02*
X0019612Y0010685D01*
X0037141Y0010685D01*
X0037141Y0022116D01*
X0038136Y0023112D01*
X0060496Y0023112D01*
X0060050Y0023557D01*
X0031838Y0023557D01*
X0031738Y0023457D01*
X0031928Y0023267D01*
X0032549Y0021768D01*
X0032549Y0020146D01*
X0031928Y0018647D01*
X0030781Y0017500D01*
X0029282Y0016879D01*
X0022904Y0016879D01*
X0021405Y0017500D01*
X0020258Y0018647D01*
X0019637Y0020146D01*
X0019637Y0021768D01*
X0020258Y0023267D01*
X0020448Y0023457D01*
X0020258Y0023647D01*
X0019637Y0025146D01*
X0019637Y0026768D01*
X0020258Y0028267D01*
X0020448Y0028457D01*
X0020258Y0028647D01*
X0019637Y0030146D01*
X0019637Y0031768D01*
X0020258Y0033267D01*
X0020448Y0033457D01*
X0020258Y0033647D01*
X0019637Y0035146D01*
X0019637Y0036768D01*
X0020258Y0038267D01*
X0020472Y0038482D01*
X0020227Y0038820D01*
X0019935Y0039392D01*
X0019737Y0040002D01*
X0019637Y0040636D01*
X0019637Y0040957D01*
X0026092Y0040957D01*
X0026092Y0040957D01*
X0019637Y0040957D01*
X0019637Y0041278D01*
X0019737Y0041912D01*
X0019935Y0042523D01*
X0020227Y0043095D01*
X0020472Y0043432D01*
X0020258Y0043647D01*
X0019637Y0045146D01*
X0019637Y0046768D01*
X0020258Y0048267D01*
X0020448Y0048457D01*
X0020258Y0048647D01*
X0019637Y0050146D01*
X0019637Y0051768D01*
X0020258Y0053267D01*
X0020448Y0053457D01*
X0020258Y0053647D01*
X0019637Y0055146D01*
X0019637Y0056768D01*
X0020258Y0058267D01*
X0020448Y0058457D01*
X0020258Y0058647D01*
X0019637Y0060146D01*
X0019637Y0061768D01*
X0020258Y0063267D01*
X0020448Y0063457D01*
X0020258Y0063647D01*
X0019637Y0065146D01*
X0019637Y0066768D01*
X0020258Y0068267D01*
X0020448Y0068457D01*
X0020258Y0068647D01*
X0019637Y0070146D01*
X0019637Y0071768D01*
X0020258Y0073267D01*
X0020448Y0073457D01*
X0020258Y0073647D01*
X0019637Y0075146D01*
X0019637Y0076768D01*
X0020258Y0078267D01*
X0020448Y0078457D01*
X0020258Y0078647D01*
X0019637Y0080146D01*
X0019637Y0081768D01*
X0020258Y0083267D01*
X0021405Y0084414D01*
X0022904Y0085035D01*
X0029282Y0085035D01*
X0030781Y0084414D01*
X0031919Y0083275D01*
X0032604Y0082992D01*
X0036074Y0079522D01*
X0058208Y0079522D01*
X0057730Y0080675D01*
X0057730Y0081968D01*
X0058225Y0083163D01*
X0059139Y0084077D01*
X0060334Y0084572D01*
X0061626Y0084572D01*
X0062821Y0084077D01*
X0063735Y0083163D01*
X0064230Y0081968D01*
X0064230Y0081466D01*
X0067603Y0078093D01*
X0068034Y0078272D01*
X0069326Y0078272D01*
X0070521Y0077777D01*
X0071435Y0076863D01*
X0071930Y0075668D01*
X0071930Y0074375D01*
X0071435Y0073181D01*
X0070521Y0072267D01*
X0069326Y0071772D01*
X0068034Y0071772D01*
X0066839Y0072267D01*
X0066258Y0072847D01*
X0065921Y0072987D01*
X0065245Y0073662D01*
X0060836Y0078072D01*
X0060624Y0078072D01*
X0072140Y0066556D01*
X0072815Y0065881D01*
X0073180Y0064999D01*
X0073180Y0061818D01*
X0073535Y0061463D01*
X0074030Y0060268D01*
X0074030Y0058975D01*
X0073535Y0057781D01*
X0072621Y0056867D01*
X0071426Y0056372D01*
X0070134Y0056372D01*
X0068939Y0056867D01*
X0068025Y0057781D01*
X0067530Y0058975D01*
X0067530Y0060268D01*
X0068025Y0061463D01*
X0068380Y0061818D01*
X0068380Y0063528D01*
X0057186Y0074722D01*
X0034603Y0074722D01*
X0033721Y0075087D01*
X0033045Y0075762D01*
X0033045Y0075762D01*
X0032549Y0076259D01*
X0032549Y0075146D01*
X0031928Y0073647D01*
X0031738Y0073457D01*
X0031928Y0073267D01*
X0032549Y0071768D01*
X0032549Y0070146D01*
X0031928Y0068647D01*
X0031738Y0068457D01*
X0031928Y0068267D01*
X0032549Y0066768D01*
X0032549Y0065146D01*
X0031928Y0063647D01*
X0031738Y0063457D01*
X0031928Y0063267D01*
X0032549Y0061768D01*
X0032549Y0060146D01*
X0031928Y0058647D01*
X0031738Y0058457D01*
X0031928Y0058267D01*
X0032549Y0056768D01*
X0032549Y0055146D01*
X0031928Y0053647D01*
X0031738Y0053457D01*
X0031928Y0053267D01*
X0032549Y0051768D01*
X0032549Y0050146D01*
X0031928Y0048647D01*
X0031738Y0048457D01*
X0031928Y0048267D01*
X0032549Y0046768D01*
X0032549Y0045146D01*
X0031928Y0043647D01*
X0031713Y0043432D01*
X0031958Y0043095D01*
X0032250Y0042523D01*
X0032448Y0041912D01*
X0032549Y0041278D01*
X0032549Y0040957D01*
X0026093Y0040957D01*
X0026093Y0040957D01*
X0032549Y0040957D01*
X0032549Y0040636D01*
X0032448Y0040002D01*
X0032250Y0039392D01*
X0031958Y0038820D01*
X0031713Y0038482D01*
X0031838Y0038357D01*
X0057122Y0038357D01*
X0058004Y0037992D01*
X0058720Y0037276D01*
X0058430Y0037975D01*
X0058430Y0039268D01*
X0058925Y0040463D01*
X0059839Y0041377D01*
X0061034Y0041872D01*
X0062326Y0041872D01*
X0063521Y0041377D01*
X0063876Y0041022D01*
X0064186Y0041022D01*
X0074345Y0051181D01*
X0074345Y0051181D01*
X0075021Y0051856D01*
X0075903Y0052222D01*
X0086784Y0052222D01*
X0087139Y0052577D01*
X0088334Y0053072D01*
X0089626Y0053072D01*
X0090821Y0052577D01*
X0091176Y0052222D01*
X0092457Y0052222D01*
X0092730Y0052109D01*
X0092730Y0053268D01*
X0093225Y0054463D01*
X0094139Y0055377D01*
X0095334Y0055872D01*
X0096626Y0055872D01*
X0097821Y0055377D01*
X0098402Y0054796D01*
X0098740Y0054656D01*
X0117274Y0036122D01*
X0134384Y0036122D01*
X0134739Y0036477D01*
X0135934Y0036972D01*
X0137226Y0036972D01*
X0138421Y0036477D01*
X0139080Y0035818D01*
X0139080Y0064928D01*
X0137836Y0066172D01*
X0137334Y0066172D01*
X0136139Y0066667D01*
X0135225Y0067581D01*
X0134730Y0068775D01*
X0134730Y0070068D01*
X0134918Y0070522D01*
X0122174Y0070522D01*
X0118274Y0066622D01*
X0119374Y0065522D01*
X0121784Y0065522D01*
X0122139Y0065877D01*
X0123334Y0066372D01*
X0124626Y0066372D01*
X0125821Y0065877D01*
X0126735Y0064963D01*
X0127230Y0063768D01*
X0127230Y0062475D01*
X0126735Y0061281D01*
X0125821Y0060367D01*
X0124626Y0059872D01*
X0123334Y0059872D01*
X0122139Y0060367D01*
X0121784Y0060722D01*
X0117903Y0060722D01*
X0117021Y0061087D01*
X0116345Y0061762D01*
X0115481Y0062627D01*
X0115321Y0062467D01*
X0114126Y0061972D01*
X0112834Y0061972D01*
X0111639Y0062467D01*
X0110725Y0063381D01*
X0110230Y0064575D01*
X0110230Y0065868D01*
X0110725Y0067063D01*
X0111639Y0067977D01*
X0112834Y0068472D01*
X0113336Y0068472D01*
X0119145Y0074281D01*
X0119821Y0074956D01*
X0120703Y0075322D01*
X0127188Y0075322D01*
X0126995Y0075515D01*
X0126558Y0076568D01*
X0124292Y0076568D01*
X0124209Y0076486D01*
X0118077Y0076486D01*
X0117081Y0077481D01*
X0117081Y0081055D01*
X0117233Y0081207D01*
X0117197Y0081270D01*
X0117081Y0081702D01*
X0117081Y0083008D01*
X0121143Y0083008D01*
X0121143Y0083008D01*
X0121143Y0083008D01*
X0125205Y0083008D01*
X0125205Y0081968D01*
X0126279Y0081968D01*
X0126279Y0084049D01*
X0125205Y0084049D01*
X0125205Y0083008D01*
X0121143Y0083008D01*
X0120856Y0082722D01*
X0115580Y0082722D01*
X0117081Y0082903D02*
X0110055Y0082903D01*
X0109203Y0082051D02*
X0111118Y0083966D01*
X0113973Y0083966D01*
X0114969Y0084962D01*
X0114969Y0088535D01*
X0113973Y0089531D01*
X0107840Y0089531D01*
X0106845Y0088535D01*
X0106845Y0086480D01*
X0106814Y0086449D01*
X0106435Y0087363D01*
X0105521Y0088277D01*
X0104326Y0088772D01*
X0103034Y0088772D01*
X0101839Y0088277D01*
X0100925Y0087363D01*
X0100430Y0086168D01*
X0100430Y0084875D01*
X0100925Y0083681D01*
X0101839Y0082767D01*
X0102752Y0082388D01*
X0097057Y0076693D01*
X0096626Y0076872D01*
X0095334Y0076872D01*
X0094139Y0076377D01*
X0093225Y0075463D01*
X0092730Y0074268D01*
X0092730Y0072975D01*
X0093225Y0071781D01*
X0094139Y0070867D01*
X0095334Y0070372D01*
X0096626Y0070372D01*
X0097821Y0070867D01*
X0098402Y0071447D01*
X0098740Y0071587D01*
X0106845Y0079692D01*
X0106845Y0077481D01*
X0107840Y0076486D01*
X0113973Y0076486D01*
X0114969Y0077481D01*
X0114969Y0081055D01*
X0113973Y0082051D01*
X0109203Y0082051D01*
X0105780Y0082022D02*
X0105780Y0083422D01*
X0103680Y0085522D01*
X0100430Y0085700D02*
X0085080Y0085700D01*
X0085080Y0087098D02*
X0100815Y0087098D01*
X0102370Y0088497D02*
X0085080Y0088497D01*
X0085080Y0089895D02*
X0144758Y0089895D01*
X0144984Y0090122D02*
X0144325Y0089463D01*
X0143830Y0088268D01*
X0143830Y0087915D01*
X0143443Y0088197D01*
X0142783Y0088533D01*
X0142080Y0088761D01*
X0141349Y0088877D01*
X0141279Y0088877D01*
X0141279Y0081477D01*
X0140679Y0081477D01*
X0140679Y0080877D01*
X0136279Y0080877D01*
X0136279Y0077807D01*
X0136395Y0077076D01*
X0136624Y0076373D01*
X0136959Y0075714D01*
X0137244Y0075322D01*
X0134771Y0075322D01*
X0134964Y0075515D01*
X0135679Y0077242D01*
X0135679Y0085112D01*
X0134964Y0086839D01*
X0133642Y0088161D01*
X0131914Y0088877D01*
X0130044Y0088877D01*
X0129549Y0088672D01*
X0129183Y0089037D01*
X0128190Y0089449D01*
X0124292Y0089449D01*
X0124209Y0089531D01*
X0118077Y0089531D01*
X0117081Y0088535D01*
X0117081Y0084962D01*
X0117233Y0084810D01*
X0117197Y0084747D01*
X0117081Y0084315D01*
X0117081Y0083008D01*
X0121143Y0083008D01*
X0125205Y0082903D02*
X0126279Y0082903D01*
X0135679Y0082903D02*
X0136279Y0082903D01*
X0136279Y0084301D02*
X0135679Y0084301D01*
X0136279Y0084547D02*
X0136279Y0081477D01*
X0140679Y0081477D01*
X0140679Y0088877D01*
X0140609Y0088877D01*
X0139879Y0088761D01*
X0139175Y0088533D01*
X0138516Y0088197D01*
X0137917Y0087762D01*
X0137394Y0087239D01*
X0136959Y0086640D01*
X0136624Y0085981D01*
X0136395Y0085277D01*
X0136279Y0084547D01*
X0136532Y0085700D02*
X0135436Y0085700D01*
X0134704Y0087098D02*
X0137292Y0087098D01*
X0139105Y0088497D02*
X0132831Y0088497D01*
X0140679Y0088497D02*
X0141279Y0088497D01*
X0141279Y0087098D02*
X0140679Y0087098D01*
X0140679Y0085700D02*
X0141279Y0085700D01*
X0145656Y0084694D02*
X0146434Y0084372D01*
X0147726Y0084372D01*
X0148921Y0084867D01*
X0149276Y0085222D01*
X0156784Y0085222D01*
X0157139Y0084867D01*
X0158334Y0084372D01*
X0159626Y0084372D01*
X0160821Y0084867D01*
X0161176Y0085222D01*
X0162180Y0085222D01*
X0162180Y0032544D01*
X0162545Y0031662D01*
X0163430Y0030778D01*
X0163430Y0030275D01*
X0163618Y0029822D01*
X0145974Y0029822D01*
X0143880Y0031916D01*
X0143880Y0066399D01*
X0143515Y0067281D01*
X0141230Y0069566D01*
X0141230Y0070068D01*
X0141042Y0070522D01*
X0148384Y0070522D01*
X0148739Y0070167D01*
X0149934Y0069672D01*
X0151226Y0069672D01*
X0152421Y0070167D01*
X0153335Y0071081D01*
X0153830Y0072275D01*
X0153830Y0073568D01*
X0153335Y0074763D01*
X0152421Y0075677D01*
X0151226Y0076172D01*
X0149934Y0076172D01*
X0148739Y0075677D01*
X0148384Y0075322D01*
X0144714Y0075322D01*
X0144999Y0075714D01*
X0145335Y0076373D01*
X0145563Y0077076D01*
X0145679Y0077807D01*
X0145679Y0080877D01*
X0141279Y0080877D01*
X0141279Y0081477D01*
X0145679Y0081477D01*
X0145679Y0084547D01*
X0145656Y0084694D01*
X0145679Y0084301D02*
X0162180Y0084301D01*
X0162180Y0082903D02*
X0145679Y0082903D01*
X0145679Y0081504D02*
X0162180Y0081504D01*
X0162180Y0080106D02*
X0145679Y0080106D01*
X0145679Y0078707D02*
X0162180Y0078707D01*
X0162180Y0077309D02*
X0145600Y0077309D01*
X0145099Y0075910D02*
X0149302Y0075910D01*
X0151858Y0075910D02*
X0162180Y0075910D01*
X0162180Y0074512D02*
X0153439Y0074512D01*
X0153830Y0073113D02*
X0162180Y0073113D01*
X0162180Y0071715D02*
X0153598Y0071715D01*
X0152571Y0070316D02*
X0162180Y0070316D01*
X0162180Y0068918D02*
X0141878Y0068918D01*
X0143277Y0067519D02*
X0162180Y0067519D01*
X0162180Y0066121D02*
X0143880Y0066121D01*
X0143880Y0064722D02*
X0162180Y0064722D01*
X0162180Y0063324D02*
X0143880Y0063324D01*
X0143880Y0061925D02*
X0162180Y0061925D01*
X0162180Y0060527D02*
X0143880Y0060527D01*
X0143880Y0059128D02*
X0162180Y0059128D01*
X0162180Y0057730D02*
X0143880Y0057730D01*
X0143880Y0056331D02*
X0162180Y0056331D01*
X0162180Y0054933D02*
X0143880Y0054933D01*
X0143880Y0053534D02*
X0162180Y0053534D01*
X0162180Y0052136D02*
X0143880Y0052136D01*
X0143880Y0050737D02*
X0162180Y0050737D01*
X0162180Y0049339D02*
X0143880Y0049339D01*
X0143880Y0047940D02*
X0162180Y0047940D01*
X0162180Y0046542D02*
X0143880Y0046542D01*
X0143880Y0045143D02*
X0162180Y0045143D01*
X0162180Y0043745D02*
X0143880Y0043745D01*
X0143880Y0042346D02*
X0162180Y0042346D01*
X0162180Y0040948D02*
X0143880Y0040948D01*
X0143880Y0039549D02*
X0162180Y0039549D01*
X0162180Y0038151D02*
X0143880Y0038151D01*
X0143880Y0036752D02*
X0162180Y0036752D01*
X0162180Y0035354D02*
X0143880Y0035354D01*
X0143880Y0033955D02*
X0162180Y0033955D01*
X0164580Y0033022D02*
X0166680Y0030922D01*
X0169742Y0029822D02*
X0169930Y0030275D01*
X0169930Y0031568D01*
X0169435Y0032763D01*
X0168521Y0033677D01*
X0167326Y0034172D01*
X0166980Y0034172D01*
X0166980Y0072622D01*
X0170784Y0072622D01*
X0171139Y0072267D01*
X0172334Y0071772D01*
X0173626Y0071772D01*
X0174821Y0072267D01*
X0175735Y0073181D01*
X0176230Y0074375D01*
X0176230Y0075668D01*
X0175735Y0076863D01*
X0174821Y0077777D01*
X0173626Y0078272D01*
X0172334Y0078272D01*
X0171139Y0077777D01*
X0170784Y0077422D01*
X0166980Y0077422D01*
X0166980Y0086699D01*
X0166615Y0087581D01*
X0165940Y0088256D01*
X0165215Y0088981D01*
X0164540Y0089656D01*
X0163657Y0090022D01*
X0161176Y0090022D01*
X0161076Y0090122D01*
X0176880Y0090122D01*
X0176880Y0061944D01*
X0177245Y0061062D01*
X0177814Y0060494D01*
X0177430Y0059568D01*
X0177430Y0058275D01*
X0177925Y0057081D01*
X0178839Y0056167D01*
X0180034Y0055672D01*
X0181326Y0055672D01*
X0182521Y0056167D01*
X0183435Y0057081D01*
X0183930Y0058275D01*
X0183930Y0059568D01*
X0183435Y0060763D01*
X0183080Y0061118D01*
X0183080Y0061499D01*
X0182715Y0062381D01*
X0181680Y0063416D01*
X0181680Y0088722D01*
X0197876Y0088722D01*
X0198225Y0087881D01*
X0199139Y0086967D01*
X0200334Y0086472D01*
X0201626Y0086472D01*
X0202821Y0086967D01*
X0203735Y0087881D01*
X0204230Y0089075D01*
X0204230Y0090368D01*
X0203735Y0091563D01*
X0202821Y0092477D01*
X0201964Y0092832D01*
X0201640Y0093156D01*
X0200757Y0093522D01*
X0180274Y0093522D01*
X0179991Y0093804D01*
X0222810Y0093804D01*
X0222810Y0010685D01*
X0122571Y0010685D01*
X0125106Y0013220D01*
X0125106Y0017113D01*
X0122353Y0019867D01*
X0118459Y0019867D01*
X0115706Y0017113D01*
X0115706Y0013220D01*
X0118241Y0010685D01*
X0112571Y0010685D01*
X0115106Y0013220D01*
X0115106Y0017113D01*
X0112353Y0019867D01*
X0109100Y0019867D01*
X0108500Y0020467D01*
X0112353Y0020467D01*
X0115106Y0023220D01*
X0115106Y0027073D01*
X0115706Y0026473D01*
X0115706Y0023220D01*
X0118459Y0020467D01*
X0122353Y0020467D01*
X0125106Y0023220D01*
X0125106Y0027113D01*
X0122353Y0029867D01*
X0119100Y0029867D01*
X0117645Y0031322D01*
X0134384Y0031322D01*
X0134739Y0030967D01*
X0135934Y0030472D01*
X0137226Y0030472D01*
X0138421Y0030967D01*
X0139080Y0031626D01*
X0139080Y0030444D01*
X0139445Y0029562D01*
X0143621Y0025387D01*
X0144503Y0025022D01*
X0177657Y0025022D01*
X0178540Y0025387D01*
X0178603Y0025450D01*
X0177355Y0022438D01*
X0177355Y0019176D01*
X0178603Y0016162D01*
X0180910Y0013855D01*
X0183924Y0012607D01*
X0187186Y0012607D01*
X0190200Y0013855D01*
X0192506Y0016162D01*
X0193755Y0019176D01*
X0193755Y0022438D01*
X0192506Y0025452D01*
X0190200Y0027758D01*
X0187186Y0029007D01*
X0183924Y0029007D01*
X0180911Y0027759D01*
X0184474Y0031322D01*
X0189557Y0031322D01*
X0190440Y0031687D01*
X0191115Y0032362D01*
X0191115Y0032362D01*
X0191839Y0033087D01*
X0191840Y0033087D01*
X0192515Y0033762D01*
X0192880Y0034644D01*
X0192880Y0057694D01*
X0192515Y0058576D01*
X0192062Y0059029D01*
X0192062Y0059411D01*
X0191582Y0060569D01*
X0190696Y0061455D01*
X0189538Y0061935D01*
X0188285Y0061935D01*
X0187127Y0061455D01*
X0186241Y0060569D01*
X0185762Y0059411D01*
X0185762Y0058158D01*
X0186241Y0057000D01*
X0187127Y0056114D01*
X0188080Y0055720D01*
X0188080Y0036122D01*
X0183003Y0036122D01*
X0182121Y0035756D01*
X0181445Y0035081D01*
X0176186Y0029822D01*
X0169742Y0029822D01*
X0169930Y0031158D02*
X0177522Y0031158D01*
X0178921Y0032556D02*
X0169521Y0032556D01*
X0167850Y0033955D02*
X0180319Y0033955D01*
X0181718Y0035354D02*
X0166980Y0035354D01*
X0166980Y0036752D02*
X0188080Y0036752D01*
X0188080Y0038151D02*
X0166980Y0038151D01*
X0166980Y0039549D02*
X0188080Y0039549D01*
X0188080Y0040948D02*
X0166980Y0040948D01*
X0166980Y0042346D02*
X0188080Y0042346D01*
X0188080Y0043745D02*
X0166980Y0043745D01*
X0166980Y0045143D02*
X0188080Y0045143D01*
X0188080Y0046542D02*
X0166980Y0046542D01*
X0166980Y0047940D02*
X0188080Y0047940D01*
X0188080Y0049339D02*
X0166980Y0049339D01*
X0166980Y0050737D02*
X0188080Y0050737D01*
X0188080Y0052136D02*
X0166980Y0052136D01*
X0166980Y0053534D02*
X0188080Y0053534D01*
X0188080Y0054933D02*
X0166980Y0054933D01*
X0166980Y0056331D02*
X0178674Y0056331D01*
X0177656Y0057730D02*
X0166980Y0057730D01*
X0166980Y0059128D02*
X0177430Y0059128D01*
X0177781Y0060527D02*
X0166980Y0060527D01*
X0166980Y0061925D02*
X0176888Y0061925D01*
X0176880Y0063324D02*
X0166980Y0063324D01*
X0166980Y0064722D02*
X0176880Y0064722D01*
X0176880Y0066121D02*
X0166980Y0066121D01*
X0166980Y0067519D02*
X0176880Y0067519D01*
X0176880Y0068918D02*
X0166980Y0068918D01*
X0166980Y0070316D02*
X0176880Y0070316D01*
X0176880Y0071715D02*
X0166980Y0071715D01*
X0171580Y0069422D02*
X0171580Y0035122D01*
X0164580Y0033022D02*
X0164580Y0076422D01*
X0165980Y0075022D01*
X0172980Y0075022D01*
X0176130Y0075910D02*
X0176880Y0075910D01*
X0176880Y0074512D02*
X0176230Y0074512D01*
X0175668Y0073113D02*
X0176880Y0073113D01*
X0181680Y0073113D02*
X0222810Y0073113D01*
X0222810Y0071715D02*
X0181680Y0071715D01*
X0181680Y0070316D02*
X0222810Y0070316D01*
X0222810Y0068918D02*
X0181680Y0068918D01*
X0181680Y0067519D02*
X0222810Y0067519D01*
X0222810Y0066121D02*
X0181680Y0066121D01*
X0181680Y0064722D02*
X0222810Y0064722D01*
X0222810Y0063324D02*
X0181772Y0063324D01*
X0182904Y0061925D02*
X0188262Y0061925D01*
X0189561Y0061925D02*
X0222810Y0061925D01*
X0222810Y0060527D02*
X0191600Y0060527D01*
X0192062Y0059128D02*
X0222810Y0059128D01*
X0222810Y0057730D02*
X0192865Y0057730D01*
X0192880Y0056331D02*
X0222810Y0056331D01*
X0222810Y0054933D02*
X0192880Y0054933D01*
X0192880Y0053534D02*
X0222810Y0053534D01*
X0222810Y0052136D02*
X0192880Y0052136D01*
X0192880Y0050737D02*
X0222810Y0050737D01*
X0222810Y0049339D02*
X0192880Y0049339D01*
X0192880Y0047940D02*
X0222810Y0047940D01*
X0222810Y0046542D02*
X0192880Y0046542D01*
X0192880Y0045143D02*
X0222810Y0045143D01*
X0222810Y0043745D02*
X0192880Y0043745D01*
X0192880Y0042346D02*
X0222810Y0042346D01*
X0222810Y0040948D02*
X0192880Y0040948D01*
X0192880Y0039549D02*
X0222810Y0039549D01*
X0222810Y0038151D02*
X0192880Y0038151D01*
X0192880Y0036752D02*
X0222810Y0036752D01*
X0222810Y0035354D02*
X0192880Y0035354D01*
X0192594Y0033955D02*
X0222810Y0033955D01*
X0222810Y0032556D02*
X0191309Y0032556D01*
X0189080Y0033722D02*
X0183480Y0033722D01*
X0177180Y0027422D01*
X0144980Y0027422D01*
X0141480Y0030922D01*
X0141480Y0065922D01*
X0137980Y0069422D01*
X0134833Y0070316D02*
X0121969Y0070316D01*
X0120570Y0068918D02*
X0134730Y0068918D01*
X0135286Y0067519D02*
X0119172Y0067519D01*
X0118775Y0066121D02*
X0122728Y0066121D01*
X0125232Y0066121D02*
X0137887Y0066121D01*
X0139080Y0064722D02*
X0126835Y0064722D01*
X0127230Y0063324D02*
X0139080Y0063324D01*
X0139080Y0061925D02*
X0127002Y0061925D01*
X0125981Y0060527D02*
X0139080Y0060527D01*
X0139080Y0059128D02*
X0074030Y0059128D01*
X0073484Y0057730D02*
X0139080Y0057730D01*
X0139080Y0056331D02*
X0032549Y0056331D01*
X0032460Y0054933D02*
X0093695Y0054933D01*
X0092840Y0053534D02*
X0031815Y0053534D01*
X0032396Y0052136D02*
X0075695Y0052136D01*
X0073901Y0050737D02*
X0032549Y0050737D01*
X0032214Y0049339D02*
X0072503Y0049339D01*
X0076380Y0049822D02*
X0088980Y0049822D01*
X0091980Y0049822D01*
X0094480Y0047322D01*
X0098251Y0047322D01*
X0120406Y0025167D01*
X0125106Y0025564D02*
X0143444Y0025564D01*
X0142045Y0026962D02*
X0125106Y0026962D01*
X0123858Y0028361D02*
X0140647Y0028361D01*
X0139364Y0029759D02*
X0122460Y0029759D01*
X0117809Y0031158D02*
X0134548Y0031158D01*
X0136580Y0033722D02*
X0116280Y0033722D01*
X0097380Y0052622D01*
X0095980Y0052622D01*
X0092730Y0052136D02*
X0092665Y0052136D01*
X0098265Y0054933D02*
X0139080Y0054933D01*
X0139080Y0053534D02*
X0099862Y0053534D01*
X0101260Y0052136D02*
X0139080Y0052136D01*
X0139080Y0050737D02*
X0102659Y0050737D01*
X0104057Y0049339D02*
X0139080Y0049339D01*
X0139080Y0047940D02*
X0105456Y0047940D01*
X0106854Y0046542D02*
X0139080Y0046542D01*
X0139080Y0045143D02*
X0108253Y0045143D01*
X0109651Y0043745D02*
X0139080Y0043745D01*
X0139080Y0042346D02*
X0111050Y0042346D01*
X0112448Y0040948D02*
X0139080Y0040948D01*
X0139080Y0039549D02*
X0113847Y0039549D01*
X0115245Y0038151D02*
X0139080Y0038151D01*
X0139080Y0036752D02*
X0137757Y0036752D01*
X0135403Y0036752D02*
X0116644Y0036752D01*
X0106580Y0034022D02*
X0106580Y0033622D01*
X0106580Y0034022D02*
X0097380Y0043222D01*
X0093480Y0043222D01*
X0091080Y0045622D01*
X0081280Y0045622D01*
X0076380Y0049822D02*
X0065180Y0038622D01*
X0061680Y0038622D01*
X0058546Y0039549D02*
X0032301Y0039549D01*
X0032549Y0040948D02*
X0059410Y0040948D01*
X0065510Y0042346D02*
X0032307Y0042346D01*
X0031968Y0043745D02*
X0066909Y0043745D01*
X0068307Y0045143D02*
X0032547Y0045143D01*
X0032549Y0046542D02*
X0069706Y0046542D01*
X0071104Y0047940D02*
X0032063Y0047940D01*
X0020122Y0047940D02*
X0019612Y0047940D01*
X0019612Y0046542D02*
X0019637Y0046542D01*
X0019612Y0045143D02*
X0019638Y0045143D01*
X0019612Y0043745D02*
X0020217Y0043745D01*
X0019878Y0042346D02*
X0019612Y0042346D01*
X0019612Y0040948D02*
X0019637Y0040948D01*
X0019612Y0039549D02*
X0019884Y0039549D01*
X0019612Y0038151D02*
X0020209Y0038151D01*
X0019637Y0036752D02*
X0019612Y0036752D01*
X0019612Y0035354D02*
X0019637Y0035354D01*
X0019612Y0033955D02*
X0020130Y0033955D01*
X0019963Y0032556D02*
X0019612Y0032556D01*
X0019612Y0031158D02*
X0019637Y0031158D01*
X0019612Y0029759D02*
X0019797Y0029759D01*
X0019612Y0028361D02*
X0020351Y0028361D01*
X0019717Y0026962D02*
X0019612Y0026962D01*
X0019612Y0025564D02*
X0019637Y0025564D01*
X0019612Y0024165D02*
X0020043Y0024165D01*
X0020050Y0022767D02*
X0019612Y0022767D01*
X0019612Y0021368D02*
X0019637Y0021368D01*
X0019612Y0019970D02*
X0019710Y0019970D01*
X0019612Y0018571D02*
X0020333Y0018571D01*
X0019612Y0017173D02*
X0022195Y0017173D01*
X0019612Y0015774D02*
X0037141Y0015774D01*
X0037141Y0014376D02*
X0019612Y0014376D01*
X0019612Y0012977D02*
X0037141Y0012977D01*
X0037141Y0011579D02*
X0019612Y0011579D01*
X0029991Y0017173D02*
X0037141Y0017173D01*
X0037141Y0018571D02*
X0031852Y0018571D01*
X0032476Y0019970D02*
X0037141Y0019970D01*
X0037141Y0021368D02*
X0032549Y0021368D01*
X0032135Y0022767D02*
X0037792Y0022767D01*
X0026093Y0025957D02*
X0061045Y0025957D01*
X0066580Y0020422D01*
X0105151Y0020422D01*
X0110406Y0015167D01*
X0115106Y0015774D02*
X0115706Y0015774D01*
X0115706Y0014376D02*
X0115106Y0014376D01*
X0114863Y0012977D02*
X0115949Y0012977D01*
X0117347Y0011579D02*
X0113465Y0011579D01*
X0108241Y0010685D02*
X0102571Y0010685D01*
X0105106Y0013220D01*
X0105106Y0014867D01*
X0100706Y0014867D01*
X0100706Y0015467D01*
X0105106Y0015467D01*
X0105106Y0017073D01*
X0105706Y0016473D01*
X0105706Y0013220D01*
X0108241Y0010685D01*
X0107347Y0011579D02*
X0103465Y0011579D01*
X0104863Y0012977D02*
X0105949Y0012977D01*
X0105706Y0014376D02*
X0105106Y0014376D01*
X0105106Y0015774D02*
X0105706Y0015774D01*
X0100106Y0015467D02*
X0100106Y0014867D01*
X0095706Y0014867D01*
X0095706Y0013220D01*
X0098241Y0010685D01*
X0064163Y0010685D01*
X0064163Y0018243D01*
X0064739Y0017667D01*
X0065934Y0017172D01*
X0067226Y0017172D01*
X0068421Y0017667D01*
X0068776Y0018022D01*
X0096614Y0018022D01*
X0095706Y0017113D01*
X0095706Y0015467D01*
X0100106Y0015467D01*
X0095706Y0015774D02*
X0064163Y0015774D01*
X0064163Y0014376D02*
X0095706Y0014376D01*
X0095949Y0012977D02*
X0064163Y0012977D01*
X0064163Y0011579D02*
X0097347Y0011579D01*
X0095765Y0017173D02*
X0067229Y0017173D01*
X0065931Y0017173D02*
X0064163Y0017173D01*
X0075380Y0026722D02*
X0071880Y0030222D01*
X0062380Y0030222D01*
X0056645Y0035957D01*
X0026093Y0035957D01*
X0026093Y0030957D02*
X0052545Y0030957D01*
X0052580Y0030922D01*
X0057621Y0038151D02*
X0058430Y0038151D01*
X0075380Y0026722D02*
X0080280Y0031622D01*
X0101280Y0031622D01*
X0103880Y0029022D01*
X0106551Y0029022D01*
X0110406Y0025167D01*
X0115106Y0025564D02*
X0115706Y0025564D01*
X0115706Y0024165D02*
X0115106Y0024165D01*
X0114653Y0022767D02*
X0116159Y0022767D01*
X0117557Y0021368D02*
X0113255Y0021368D01*
X0108997Y0019970D02*
X0177355Y0019970D01*
X0177355Y0021368D02*
X0123255Y0021368D01*
X0124653Y0022767D02*
X0177491Y0022767D01*
X0178070Y0024165D02*
X0125106Y0024165D01*
X0115216Y0026962D02*
X0115106Y0026962D01*
X0113648Y0018571D02*
X0117164Y0018571D01*
X0115765Y0017173D02*
X0115047Y0017173D01*
X0123648Y0018571D02*
X0177605Y0018571D01*
X0178184Y0017173D02*
X0125047Y0017173D01*
X0125106Y0015774D02*
X0178991Y0015774D01*
X0180389Y0014376D02*
X0125106Y0014376D01*
X0124863Y0012977D02*
X0183029Y0012977D01*
X0188080Y0012977D02*
X0200647Y0012977D01*
X0201555Y0012601D02*
X0204817Y0012601D01*
X0207831Y0013850D01*
X0210138Y0016156D01*
X0211386Y0019170D01*
X0211386Y0022432D01*
X0210138Y0025446D01*
X0207831Y0027753D01*
X0204817Y0029001D01*
X0201555Y0029001D01*
X0198541Y0027753D01*
X0196235Y0025446D01*
X0194986Y0022432D01*
X0194986Y0019170D01*
X0196235Y0016156D01*
X0198541Y0013850D01*
X0201555Y0012601D01*
X0198015Y0014376D02*
X0190720Y0014376D01*
X0192119Y0015774D02*
X0196617Y0015774D01*
X0195814Y0017173D02*
X0192925Y0017173D01*
X0193504Y0018571D02*
X0195234Y0018571D01*
X0194986Y0019970D02*
X0193755Y0019970D01*
X0193755Y0021368D02*
X0194986Y0021368D01*
X0195125Y0022767D02*
X0193619Y0022767D01*
X0193039Y0024165D02*
X0195704Y0024165D01*
X0196352Y0025564D02*
X0192394Y0025564D01*
X0190996Y0026962D02*
X0197751Y0026962D01*
X0200009Y0028361D02*
X0188745Y0028361D01*
X0182912Y0029759D02*
X0222810Y0029759D01*
X0222810Y0031158D02*
X0184310Y0031158D01*
X0189080Y0033722D02*
X0190480Y0035122D01*
X0190480Y0057216D01*
X0188912Y0058785D01*
X0185939Y0057730D02*
X0183704Y0057730D01*
X0183930Y0059128D02*
X0185762Y0059128D01*
X0186224Y0060527D02*
X0183533Y0060527D01*
X0180680Y0061022D02*
X0179280Y0062422D01*
X0179280Y0089722D01*
X0179280Y0091122D01*
X0177880Y0092522D01*
X0084080Y0092522D01*
X0082680Y0091122D01*
X0082680Y0071522D01*
X0079662Y0070316D02*
X0068380Y0070316D01*
X0066981Y0071715D02*
X0079430Y0071715D01*
X0079430Y0072168D02*
X0079430Y0070875D01*
X0079925Y0069681D01*
X0080839Y0068767D01*
X0082034Y0068272D01*
X0083326Y0068272D01*
X0084521Y0068767D01*
X0085435Y0069681D01*
X0085930Y0070875D01*
X0085930Y0072168D01*
X0085435Y0073363D01*
X0085080Y0073718D01*
X0085080Y0090122D01*
X0144984Y0090122D01*
X0143925Y0088497D02*
X0142853Y0088497D01*
X0147080Y0087622D02*
X0158980Y0087622D01*
X0163180Y0087622D01*
X0164580Y0086222D01*
X0164580Y0076422D01*
X0166980Y0078707D02*
X0176880Y0078707D01*
X0176880Y0077309D02*
X0175289Y0077309D01*
X0176880Y0080106D02*
X0166980Y0080106D01*
X0166980Y0081504D02*
X0176880Y0081504D01*
X0176880Y0082903D02*
X0166980Y0082903D01*
X0166980Y0084301D02*
X0176880Y0084301D01*
X0176880Y0085700D02*
X0166980Y0085700D01*
X0166815Y0087098D02*
X0176880Y0087098D01*
X0176880Y0088497D02*
X0165699Y0088497D01*
X0163962Y0089895D02*
X0176880Y0089895D01*
X0179280Y0089722D02*
X0180680Y0091122D01*
X0200280Y0091122D01*
X0200980Y0090422D01*
X0200980Y0089722D01*
X0197970Y0088497D02*
X0181680Y0088497D01*
X0181680Y0087098D02*
X0199007Y0087098D01*
X0202953Y0087098D02*
X0222810Y0087098D01*
X0222810Y0085700D02*
X0181680Y0085700D01*
X0181680Y0084301D02*
X0222810Y0084301D01*
X0222810Y0082903D02*
X0181680Y0082903D01*
X0181680Y0081504D02*
X0222810Y0081504D01*
X0222810Y0080106D02*
X0181680Y0080106D01*
X0181680Y0078707D02*
X0222810Y0078707D01*
X0222810Y0077309D02*
X0181680Y0077309D01*
X0181680Y0075910D02*
X0222810Y0075910D01*
X0222810Y0074512D02*
X0181680Y0074512D01*
X0201680Y0079922D02*
X0207980Y0086222D01*
X0203990Y0088497D02*
X0222810Y0088497D01*
X0222810Y0089895D02*
X0204230Y0089895D01*
X0203847Y0091294D02*
X0222810Y0091294D01*
X0222810Y0092692D02*
X0202301Y0092692D01*
X0201680Y0079922D02*
X0201680Y0061722D01*
X0186910Y0056331D02*
X0182686Y0056331D01*
X0180680Y0058922D02*
X0180680Y0061022D01*
X0150580Y0072922D02*
X0121180Y0072922D01*
X0113480Y0065222D01*
X0116280Y0065222D01*
X0118380Y0063122D01*
X0123980Y0063122D01*
X0121979Y0060527D02*
X0073923Y0060527D01*
X0073180Y0061925D02*
X0116182Y0061925D01*
X0110782Y0063324D02*
X0073180Y0063324D01*
X0070780Y0064522D02*
X0070780Y0059622D01*
X0067637Y0060527D02*
X0032549Y0060527D01*
X0032484Y0061925D02*
X0068380Y0061925D01*
X0068380Y0063324D02*
X0031871Y0063324D01*
X0032373Y0064722D02*
X0067185Y0064722D01*
X0065787Y0066121D02*
X0032549Y0066121D01*
X0032237Y0067519D02*
X0064388Y0067519D01*
X0062990Y0068918D02*
X0032040Y0068918D01*
X0032549Y0070316D02*
X0061591Y0070316D01*
X0060193Y0071715D02*
X0032549Y0071715D01*
X0031991Y0073113D02*
X0058794Y0073113D01*
X0057396Y0074512D02*
X0032286Y0074512D01*
X0032549Y0075910D02*
X0032897Y0075910D01*
X0035080Y0077122D02*
X0058180Y0077122D01*
X0070780Y0064522D01*
X0073180Y0064722D02*
X0110230Y0064722D01*
X0110335Y0066121D02*
X0072575Y0066121D01*
X0071177Y0067519D02*
X0111181Y0067519D01*
X0113782Y0068918D02*
X0084672Y0068918D01*
X0085698Y0070316D02*
X0115180Y0070316D01*
X0116579Y0071715D02*
X0098867Y0071715D01*
X0100266Y0073113D02*
X0117977Y0073113D01*
X0119376Y0074512D02*
X0101664Y0074512D01*
X0103063Y0075910D02*
X0126831Y0075910D01*
X0135128Y0075910D02*
X0136859Y0075910D01*
X0136358Y0077309D02*
X0135679Y0077309D01*
X0135679Y0078707D02*
X0136279Y0078707D01*
X0136279Y0080106D02*
X0135679Y0080106D01*
X0135679Y0081504D02*
X0136279Y0081504D01*
X0140679Y0081504D02*
X0141279Y0081504D01*
X0141279Y0082903D02*
X0140679Y0082903D01*
X0140679Y0084301D02*
X0141279Y0084301D01*
X0117081Y0084301D02*
X0114309Y0084301D01*
X0114969Y0085700D02*
X0117081Y0085700D01*
X0117081Y0087098D02*
X0114969Y0087098D01*
X0114969Y0088497D02*
X0117081Y0088497D01*
X0110907Y0086749D02*
X0110507Y0086749D01*
X0105780Y0082022D01*
X0097380Y0073622D01*
X0095980Y0073622D01*
X0092831Y0074512D02*
X0085080Y0074512D01*
X0085080Y0075910D02*
X0093672Y0075910D01*
X0097673Y0077309D02*
X0085080Y0077309D01*
X0085080Y0078707D02*
X0099072Y0078707D01*
X0100470Y0080106D02*
X0085080Y0080106D01*
X0085080Y0081504D02*
X0101869Y0081504D01*
X0101703Y0082903D02*
X0085080Y0082903D01*
X0085080Y0084301D02*
X0100668Y0084301D01*
X0106545Y0087098D02*
X0106845Y0087098D01*
X0106845Y0088497D02*
X0104990Y0088497D01*
X0114520Y0081504D02*
X0117134Y0081504D01*
X0117081Y0080106D02*
X0114969Y0080106D01*
X0114969Y0078707D02*
X0117081Y0078707D01*
X0117253Y0077309D02*
X0114796Y0077309D01*
X0107017Y0077309D02*
X0104461Y0077309D01*
X0105860Y0078707D02*
X0106845Y0078707D01*
X0092730Y0073113D02*
X0085539Y0073113D01*
X0085930Y0071715D02*
X0093291Y0071715D01*
X0080688Y0068918D02*
X0069778Y0068918D01*
X0071368Y0073113D02*
X0079821Y0073113D01*
X0079925Y0073363D02*
X0079430Y0072168D01*
X0079925Y0073363D02*
X0080280Y0073718D01*
X0080280Y0091599D01*
X0080645Y0092481D01*
X0081969Y0093804D01*
X0019612Y0093804D01*
X0019612Y0092692D02*
X0080857Y0092692D01*
X0080280Y0091294D02*
X0019612Y0091294D01*
X0019612Y0089895D02*
X0080280Y0089895D01*
X0080280Y0088497D02*
X0019612Y0088497D01*
X0019612Y0087098D02*
X0080280Y0087098D01*
X0080280Y0085700D02*
X0019612Y0085700D01*
X0019612Y0084301D02*
X0021292Y0084301D01*
X0020107Y0082903D02*
X0019612Y0082903D01*
X0019612Y0081504D02*
X0019637Y0081504D01*
X0019612Y0080106D02*
X0019653Y0080106D01*
X0019612Y0078707D02*
X0020233Y0078707D01*
X0019861Y0077309D02*
X0019612Y0077309D01*
X0019612Y0075910D02*
X0019637Y0075910D01*
X0019612Y0074512D02*
X0019899Y0074512D01*
X0019612Y0073113D02*
X0020194Y0073113D01*
X0019637Y0071715D02*
X0019612Y0071715D01*
X0019612Y0070316D02*
X0019637Y0070316D01*
X0019612Y0068918D02*
X0020145Y0068918D01*
X0019948Y0067519D02*
X0019612Y0067519D01*
X0019612Y0066121D02*
X0019637Y0066121D01*
X0019612Y0064722D02*
X0019812Y0064722D01*
X0019612Y0063324D02*
X0020314Y0063324D01*
X0019702Y0061925D02*
X0019612Y0061925D01*
X0019612Y0060527D02*
X0019637Y0060527D01*
X0019612Y0059128D02*
X0020058Y0059128D01*
X0020035Y0057730D02*
X0019612Y0057730D01*
X0019612Y0056331D02*
X0019637Y0056331D01*
X0019612Y0054933D02*
X0019725Y0054933D01*
X0019612Y0053534D02*
X0020371Y0053534D01*
X0019789Y0052136D02*
X0019612Y0052136D01*
X0019612Y0050737D02*
X0019637Y0050737D01*
X0019612Y0049339D02*
X0019971Y0049339D01*
X0032150Y0057730D02*
X0068076Y0057730D01*
X0067530Y0059128D02*
X0032127Y0059128D01*
X0065583Y0073113D02*
X0065794Y0073113D01*
X0064396Y0074512D02*
X0064184Y0074512D01*
X0062997Y0075910D02*
X0062786Y0075910D01*
X0061599Y0077309D02*
X0061387Y0077309D01*
X0060980Y0081322D02*
X0067280Y0075022D01*
X0068680Y0075022D01*
X0070989Y0077309D02*
X0080280Y0077309D01*
X0080280Y0078707D02*
X0066989Y0078707D01*
X0065590Y0080106D02*
X0080280Y0080106D01*
X0080280Y0081504D02*
X0064230Y0081504D01*
X0063843Y0082903D02*
X0080280Y0082903D01*
X0080280Y0084301D02*
X0062279Y0084301D01*
X0059681Y0084301D02*
X0030893Y0084301D01*
X0032693Y0082903D02*
X0058117Y0082903D01*
X0057730Y0081504D02*
X0034092Y0081504D01*
X0035490Y0080106D02*
X0057966Y0080106D01*
X0071830Y0075910D02*
X0080280Y0075910D01*
X0080280Y0074512D02*
X0071930Y0074512D01*
X0035080Y0077122D02*
X0031245Y0080957D01*
X0026093Y0080957D01*
X0138612Y0031158D02*
X0139080Y0031158D01*
X0143880Y0032556D02*
X0162180Y0032556D01*
X0163050Y0031158D02*
X0144638Y0031158D01*
X0181513Y0028361D02*
X0182365Y0028361D01*
X0206363Y0028361D02*
X0222810Y0028361D01*
X0222810Y0026962D02*
X0208622Y0026962D01*
X0210020Y0025564D02*
X0222810Y0025564D01*
X0222810Y0024165D02*
X0210668Y0024165D01*
X0211248Y0022767D02*
X0222810Y0022767D01*
X0222810Y0021368D02*
X0211386Y0021368D01*
X0211386Y0019970D02*
X0222810Y0019970D01*
X0222810Y0018571D02*
X0211138Y0018571D01*
X0210559Y0017173D02*
X0222810Y0017173D01*
X0222810Y0015774D02*
X0209756Y0015774D01*
X0208357Y0014376D02*
X0222810Y0014376D01*
X0222810Y0012977D02*
X0205725Y0012977D01*
X0222810Y0011579D02*
X0123465Y0011579D01*
X0141127Y0070316D02*
X0148589Y0070316D01*
D17*
X0136580Y0048422D03*
X0033680Y0072222D03*
D18*
X0060980Y0081322D03*
X0068680Y0075022D03*
X0082680Y0071522D03*
X0095980Y0073622D03*
X0113480Y0065222D03*
X0123980Y0063122D03*
X0137980Y0069422D03*
X0150580Y0072922D03*
X0171580Y0069422D03*
X0172980Y0075022D03*
X0158980Y0087622D03*
X0147080Y0087622D03*
X0115580Y0082722D03*
X0103680Y0085522D03*
X0070780Y0059622D03*
X0088980Y0049822D03*
X0095980Y0052622D03*
X0081280Y0045622D03*
X0061680Y0038622D03*
X0052580Y0030922D03*
X0075380Y0026722D03*
X0066580Y0020422D03*
X0106580Y0033622D03*
X0136580Y0033722D03*
X0166680Y0030922D03*
X0171580Y0035122D03*
X0180680Y0058922D03*
X0201680Y0061722D03*
X0207980Y0086222D03*
X0200980Y0089722D03*
D19*
X0130979Y0083423D02*
X0130979Y0081177D01*
X0129071Y0079268D01*
X0121143Y0079268D01*
X0127653Y0086749D02*
X0130979Y0083423D01*
X0127653Y0086749D02*
X0121143Y0086749D01*
D20*
X0188912Y0058785D03*
X0085180Y0026322D03*
M02*
