G75*
%MOIN*%
%OFA0B0*%
%FSLAX25Y25*%
%IPPOS*%
%LPD*%
%AMOC8*
5,1,8,0,0,1.08239X$1,22.5*
%
%ADD10R,0.23622X0.13780*%
%ADD11OC8,0.06000*%
%ADD12C,0.04756*%
%ADD13C,0.06000*%
%ADD14R,0.04724X0.11811*%
%ADD15C,0.07400*%
%ADD16C,0.01400*%
%ADD17C,0.02800*%
%ADD18C,0.03100*%
D10*
X0053210Y0016232D03*
D11*
X0100406Y0015167D03*
X0110406Y0015167D03*
X0120406Y0015167D03*
X0120406Y0025167D03*
X0110406Y0025167D03*
X0100406Y0025167D03*
D12*
X0028471Y0025957D02*
X0023715Y0025957D01*
X0023715Y0020957D02*
X0028471Y0020957D01*
X0028471Y0030957D02*
X0023715Y0030957D01*
X0023715Y0035957D02*
X0028471Y0035957D01*
X0028471Y0040957D02*
X0023715Y0040957D01*
X0023715Y0045957D02*
X0028471Y0045957D01*
X0028471Y0050957D02*
X0023715Y0050957D01*
X0023715Y0055957D02*
X0028471Y0055957D01*
X0028471Y0060957D02*
X0023715Y0060957D01*
X0023715Y0065957D02*
X0028471Y0065957D01*
X0028471Y0070957D02*
X0023715Y0070957D01*
X0023715Y0075957D02*
X0028471Y0075957D01*
X0028471Y0080957D02*
X0023715Y0080957D01*
D13*
X0105779Y0083777D02*
X0105779Y0089777D01*
X0115779Y0089777D02*
X0115779Y0083777D01*
X0126280Y0083922D02*
X0126280Y0089922D01*
X0136280Y0089922D02*
X0136280Y0083922D01*
X0146280Y0083922D02*
X0146280Y0089922D01*
X0156280Y0089922D02*
X0156280Y0083922D01*
X0166280Y0083922D02*
X0166280Y0089922D01*
X0176280Y0089922D02*
X0176280Y0083922D01*
D14*
X0185497Y0085212D03*
X0193371Y0085212D03*
X0201245Y0085212D03*
X0209119Y0085212D03*
X0216993Y0085212D03*
X0224867Y0085212D03*
X0232741Y0085212D03*
X0240615Y0085212D03*
X0240615Y0020645D03*
X0232741Y0020645D03*
X0224867Y0020645D03*
X0216993Y0020645D03*
X0209119Y0020645D03*
X0201245Y0020645D03*
X0193371Y0020645D03*
X0185497Y0020645D03*
D15*
X0168080Y0044022D03*
X0168080Y0054022D03*
X0168080Y0064022D03*
D16*
X0019612Y0097741D02*
X0019612Y0010685D01*
X0040099Y0010685D01*
X0040099Y0023660D01*
X0040396Y0023957D01*
X0031623Y0023957D01*
X0031589Y0023874D01*
X0031172Y0023457D01*
X0031589Y0023041D01*
X0032149Y0021689D01*
X0032149Y0020226D01*
X0031589Y0018874D01*
X0030554Y0017839D01*
X0029202Y0017279D01*
X0022983Y0017279D01*
X0021631Y0017839D01*
X0020597Y0018874D01*
X0020037Y0020226D01*
X0020037Y0021689D01*
X0020597Y0023041D01*
X0021013Y0023457D01*
X0020597Y0023874D01*
X0020037Y0025226D01*
X0020037Y0026689D01*
X0020597Y0028041D01*
X0021013Y0028457D01*
X0020597Y0028874D01*
X0020037Y0030226D01*
X0020037Y0031689D01*
X0020597Y0033041D01*
X0021013Y0033457D01*
X0020597Y0033874D01*
X0020037Y0035226D01*
X0020037Y0036689D01*
X0020597Y0038041D01*
X0020730Y0038174D01*
X0020604Y0038301D01*
X0020227Y0038820D01*
X0019935Y0039392D01*
X0019737Y0040002D01*
X0019637Y0040636D01*
X0019637Y0040957D01*
X0026092Y0040957D01*
X0026092Y0040957D01*
X0019637Y0040957D01*
X0019637Y0041278D01*
X0019737Y0041912D01*
X0019935Y0042523D01*
X0020227Y0043095D01*
X0020604Y0043614D01*
X0020730Y0043740D01*
X0020597Y0043874D01*
X0020037Y0045226D01*
X0020037Y0046689D01*
X0020597Y0048041D01*
X0021013Y0048457D01*
X0020597Y0048874D01*
X0020037Y0050226D01*
X0020037Y0051689D01*
X0020597Y0053041D01*
X0021013Y0053457D01*
X0020597Y0053874D01*
X0020037Y0055226D01*
X0020037Y0056689D01*
X0020597Y0058041D01*
X0021013Y0058457D01*
X0020597Y0058874D01*
X0020037Y0060226D01*
X0020037Y0061689D01*
X0020597Y0063041D01*
X0021013Y0063457D01*
X0020597Y0063874D01*
X0020037Y0065226D01*
X0020037Y0066689D01*
X0020597Y0068041D01*
X0021013Y0068457D01*
X0020597Y0068874D01*
X0020037Y0070226D01*
X0020037Y0071689D01*
X0020597Y0073041D01*
X0021013Y0073457D01*
X0020597Y0073874D01*
X0020037Y0075226D01*
X0020037Y0076689D01*
X0020597Y0078041D01*
X0021013Y0078457D01*
X0020597Y0078874D01*
X0020037Y0080226D01*
X0020037Y0081689D01*
X0020597Y0083041D01*
X0021631Y0084075D01*
X0022983Y0084635D01*
X0029202Y0084635D01*
X0030554Y0084075D01*
X0031589Y0083041D01*
X0031623Y0082957D01*
X0032073Y0082957D01*
X0035908Y0079122D01*
X0059008Y0079122D01*
X0071608Y0066522D01*
X0072780Y0065350D01*
X0072780Y0061652D01*
X0073196Y0061236D01*
X0073630Y0060189D01*
X0073630Y0059055D01*
X0073196Y0058007D01*
X0072394Y0057206D01*
X0071347Y0056772D01*
X0070213Y0056772D01*
X0069166Y0057206D01*
X0068364Y0058007D01*
X0067930Y0059055D01*
X0067930Y0060189D01*
X0068364Y0061236D01*
X0068780Y0061652D01*
X0068780Y0063693D01*
X0057352Y0075122D01*
X0034252Y0075122D01*
X0033080Y0076293D01*
X0031769Y0077604D01*
X0032149Y0076689D01*
X0032149Y0075226D01*
X0031589Y0073874D01*
X0031172Y0073457D01*
X0031589Y0073041D01*
X0032149Y0071689D01*
X0032149Y0070226D01*
X0031589Y0068874D01*
X0031172Y0068457D01*
X0031589Y0068041D01*
X0032149Y0066689D01*
X0032149Y0065226D01*
X0031589Y0063874D01*
X0031172Y0063457D01*
X0031589Y0063041D01*
X0032149Y0061689D01*
X0032149Y0060226D01*
X0031589Y0058874D01*
X0031172Y0058457D01*
X0031589Y0058041D01*
X0032149Y0056689D01*
X0032149Y0055226D01*
X0031589Y0053874D01*
X0031172Y0053457D01*
X0031589Y0053041D01*
X0032149Y0051689D01*
X0032149Y0050226D01*
X0031589Y0048874D01*
X0031172Y0048457D01*
X0031589Y0048041D01*
X0032149Y0046689D01*
X0032149Y0045226D01*
X0031589Y0043874D01*
X0031455Y0043740D01*
X0031581Y0043614D01*
X0031958Y0043095D01*
X0032250Y0042523D01*
X0032448Y0041912D01*
X0032549Y0041278D01*
X0032549Y0040957D01*
X0026093Y0040957D01*
X0026093Y0040957D01*
X0032549Y0040957D01*
X0032549Y0040636D01*
X0032448Y0040002D01*
X0032250Y0039392D01*
X0031958Y0038820D01*
X0031581Y0038301D01*
X0031455Y0038174D01*
X0031589Y0038041D01*
X0031623Y0037957D01*
X0057473Y0037957D01*
X0063208Y0032222D01*
X0074808Y0032222D01*
X0076558Y0030472D01*
X0077147Y0030472D01*
X0078194Y0030038D01*
X0078611Y0029622D01*
X0082752Y0029622D01*
X0085452Y0032322D01*
X0100980Y0032322D01*
X0100980Y0032793D01*
X0100909Y0032964D01*
X0090252Y0043622D01*
X0083311Y0043622D01*
X0082894Y0043206D01*
X0081847Y0042772D01*
X0080713Y0042772D01*
X0079666Y0043206D01*
X0078864Y0044007D01*
X0078430Y0045055D01*
X0078430Y0046189D01*
X0078864Y0047236D01*
X0079450Y0047822D01*
X0077208Y0047822D01*
X0066008Y0036622D01*
X0063711Y0036622D01*
X0063294Y0036206D01*
X0062247Y0035772D01*
X0061113Y0035772D01*
X0060066Y0036206D01*
X0059264Y0037007D01*
X0058830Y0038055D01*
X0058830Y0039189D01*
X0059264Y0040236D01*
X0060066Y0041038D01*
X0061113Y0041472D01*
X0062247Y0041472D01*
X0063294Y0041038D01*
X0063711Y0040622D01*
X0064352Y0040622D01*
X0074380Y0050650D01*
X0075552Y0051822D01*
X0086950Y0051822D01*
X0087366Y0052238D01*
X0088413Y0052672D01*
X0089547Y0052672D01*
X0090594Y0052238D01*
X0091011Y0051822D01*
X0091152Y0051822D01*
X0085502Y0057472D01*
X0084913Y0057472D01*
X0083866Y0057906D01*
X0083064Y0058707D01*
X0082630Y0059755D01*
X0082630Y0060889D01*
X0083064Y0061936D01*
X0083866Y0062738D01*
X0084913Y0063172D01*
X0086047Y0063172D01*
X0087094Y0062738D01*
X0087896Y0061936D01*
X0088330Y0060889D01*
X0088330Y0060300D01*
X0106608Y0042022D01*
X0110808Y0042022D01*
X0111980Y0040850D01*
X0117108Y0035722D01*
X0134550Y0035722D01*
X0134966Y0036138D01*
X0136013Y0036572D01*
X0137147Y0036572D01*
X0138194Y0036138D01*
X0138996Y0035336D01*
X0139430Y0034289D01*
X0139430Y0033155D01*
X0138996Y0032107D01*
X0138194Y0031306D01*
X0137147Y0030872D01*
X0136013Y0030872D01*
X0134966Y0031306D01*
X0134550Y0031722D01*
X0116679Y0031722D01*
X0118934Y0029467D01*
X0122187Y0029467D01*
X0124706Y0026948D01*
X0124706Y0023386D01*
X0122187Y0020867D01*
X0118625Y0020867D01*
X0116106Y0023386D01*
X0116106Y0026638D01*
X0107522Y0035222D01*
X0106143Y0035222D01*
X0106530Y0034289D01*
X0106530Y0033155D01*
X0106154Y0032247D01*
X0107251Y0031150D01*
X0107251Y0031150D01*
X0108934Y0029467D01*
X0112187Y0029467D01*
X0114706Y0026948D01*
X0114706Y0023386D01*
X0112187Y0020867D01*
X0108625Y0020867D01*
X0106106Y0023386D01*
X0106106Y0026638D01*
X0104422Y0028322D01*
X0103332Y0028322D01*
X0104706Y0026948D01*
X0104706Y0023386D01*
X0103742Y0022422D01*
X0105979Y0022422D01*
X0107151Y0021250D01*
X0108934Y0019467D01*
X0112187Y0019467D01*
X0114706Y0016948D01*
X0114706Y0013386D01*
X0112187Y0010867D01*
X0108625Y0010867D01*
X0106106Y0013386D01*
X0106106Y0016638D01*
X0104322Y0018422D01*
X0103798Y0018422D01*
X0105106Y0017113D01*
X0105106Y0015467D01*
X0100706Y0015467D01*
X0100706Y0014867D01*
X0105106Y0014867D01*
X0105106Y0013220D01*
X0102571Y0010685D01*
X0179889Y0010685D01*
X0177052Y0013522D01*
X0175880Y0014693D01*
X0175880Y0042191D01*
X0175464Y0042607D01*
X0175030Y0043655D01*
X0175030Y0044789D01*
X0175464Y0045836D01*
X0176266Y0046638D01*
X0177313Y0047072D01*
X0178447Y0047072D01*
X0179494Y0046638D01*
X0180296Y0045836D01*
X0180730Y0044789D01*
X0180730Y0043655D01*
X0180296Y0042607D01*
X0179880Y0042191D01*
X0179880Y0016350D01*
X0181834Y0014396D01*
X0181834Y0027089D01*
X0182596Y0027850D01*
X0183497Y0027850D01*
X0183497Y0029567D01*
X0184668Y0030738D01*
X0191130Y0037200D01*
X0191130Y0037789D01*
X0191564Y0038836D01*
X0192366Y0039638D01*
X0193413Y0040072D01*
X0194547Y0040072D01*
X0195594Y0039638D01*
X0196011Y0039222D01*
X0222108Y0039222D01*
X0223280Y0038050D01*
X0226867Y0034464D01*
X0226867Y0027850D01*
X0227767Y0027850D01*
X0228529Y0027089D01*
X0228529Y0014201D01*
X0227767Y0013439D01*
X0221966Y0013439D01*
X0221204Y0014201D01*
X0221204Y0027089D01*
X0221966Y0027850D01*
X0222867Y0027850D01*
X0222867Y0032807D01*
X0220452Y0035222D01*
X0196011Y0035222D01*
X0195594Y0034806D01*
X0194547Y0034372D01*
X0193958Y0034372D01*
X0187497Y0027910D01*
X0187497Y0027850D01*
X0188397Y0027850D01*
X0189159Y0027089D01*
X0189159Y0014201D01*
X0188980Y0014022D01*
X0189887Y0014022D01*
X0189708Y0014201D01*
X0189708Y0027089D01*
X0190470Y0027850D01*
X0196271Y0027850D01*
X0197033Y0027089D01*
X0197033Y0014201D01*
X0196854Y0014022D01*
X0197761Y0014022D01*
X0197582Y0014201D01*
X0197582Y0027089D01*
X0198344Y0027850D01*
X0204145Y0027850D01*
X0204907Y0027089D01*
X0204907Y0014201D01*
X0204728Y0014022D01*
X0205635Y0014022D01*
X0205456Y0014201D01*
X0205456Y0027089D01*
X0206218Y0027850D01*
X0212019Y0027850D01*
X0212781Y0027089D01*
X0212781Y0014201D01*
X0212602Y0014022D01*
X0213509Y0014022D01*
X0213330Y0014201D01*
X0213330Y0027089D01*
X0214092Y0027850D01*
X0219893Y0027850D01*
X0220655Y0027089D01*
X0220655Y0014201D01*
X0219893Y0013439D01*
X0218993Y0013439D01*
X0218993Y0012506D01*
X0217821Y0011334D01*
X0217171Y0010685D01*
X0270054Y0010685D01*
X0270054Y0097741D01*
X0019612Y0097741D01*
X0019612Y0096888D02*
X0270054Y0096888D01*
X0270054Y0095489D02*
X0224641Y0095489D01*
X0225695Y0094435D02*
X0223508Y0096622D01*
X0100752Y0096622D01*
X0096780Y0092650D01*
X0096780Y0091752D01*
X0096364Y0091336D01*
X0095930Y0090289D01*
X0095930Y0089155D01*
X0096364Y0088107D01*
X0097166Y0087306D01*
X0098213Y0086872D01*
X0099347Y0086872D01*
X0100394Y0087306D01*
X0101196Y0088107D01*
X0101479Y0088791D01*
X0101479Y0082922D01*
X0102134Y0081341D01*
X0103343Y0080132D01*
X0104700Y0079570D01*
X0097952Y0072822D01*
X0096780Y0071650D01*
X0096780Y0056752D01*
X0096364Y0056336D01*
X0095930Y0055289D01*
X0095930Y0054155D01*
X0096364Y0053107D01*
X0097166Y0052306D01*
X0098213Y0051872D01*
X0099347Y0051872D01*
X0100394Y0052306D01*
X0101196Y0053107D01*
X0101630Y0054155D01*
X0101630Y0055289D01*
X0101196Y0056336D01*
X0100780Y0056752D01*
X0100780Y0069993D01*
X0107308Y0076522D01*
X0107950Y0076522D01*
X0108366Y0076106D01*
X0109413Y0075672D01*
X0110080Y0075672D01*
X0110080Y0047652D01*
X0109664Y0047236D01*
X0109230Y0046189D01*
X0109230Y0045055D01*
X0109664Y0044007D01*
X0110466Y0043206D01*
X0111513Y0042772D01*
X0112647Y0042772D01*
X0113694Y0043206D01*
X0114496Y0044007D01*
X0114930Y0045055D01*
X0114930Y0046189D01*
X0114496Y0047236D01*
X0114080Y0047652D01*
X0114080Y0066991D01*
X0114666Y0066406D01*
X0115713Y0065972D01*
X0116302Y0065972D01*
X0121152Y0061122D01*
X0121950Y0061122D01*
X0122366Y0060706D01*
X0123413Y0060272D01*
X0124547Y0060272D01*
X0125594Y0060706D01*
X0126396Y0061507D01*
X0126830Y0062555D01*
X0126830Y0063689D01*
X0126396Y0064736D01*
X0125594Y0065538D01*
X0124547Y0065972D01*
X0123413Y0065972D01*
X0122384Y0065546D01*
X0119130Y0068800D01*
X0119130Y0069389D01*
X0118696Y0070436D01*
X0117894Y0071238D01*
X0116847Y0071672D01*
X0115713Y0071672D01*
X0114666Y0071238D01*
X0114080Y0070652D01*
X0114080Y0075593D01*
X0115008Y0076522D01*
X0154908Y0076522D01*
X0157108Y0078722D01*
X0158280Y0079893D01*
X0158280Y0080096D01*
X0158716Y0080276D01*
X0159925Y0081486D01*
X0160580Y0083066D01*
X0160580Y0090777D01*
X0159925Y0092358D01*
X0159661Y0092622D01*
X0162899Y0092622D01*
X0162635Y0092358D01*
X0161980Y0090777D01*
X0161980Y0083066D01*
X0162635Y0081486D01*
X0163844Y0080276D01*
X0165425Y0079622D01*
X0167135Y0079622D01*
X0168716Y0080276D01*
X0169925Y0081486D01*
X0170580Y0083066D01*
X0170580Y0090777D01*
X0169925Y0092358D01*
X0169661Y0092622D01*
X0172899Y0092622D01*
X0172635Y0092358D01*
X0171980Y0090777D01*
X0171980Y0083066D01*
X0172635Y0081486D01*
X0173844Y0080276D01*
X0175425Y0079622D01*
X0177135Y0079622D01*
X0178716Y0080276D01*
X0179925Y0081486D01*
X0180580Y0083066D01*
X0180580Y0090777D01*
X0179925Y0092358D01*
X0179661Y0092622D01*
X0182341Y0092622D01*
X0182091Y0092477D01*
X0181774Y0092161D01*
X0181550Y0091773D01*
X0181434Y0091341D01*
X0181434Y0085693D01*
X0185015Y0085693D01*
X0185015Y0084730D01*
X0185978Y0084730D01*
X0185978Y0085693D01*
X0189559Y0085693D01*
X0189559Y0091341D01*
X0189443Y0091773D01*
X0189219Y0092161D01*
X0188903Y0092477D01*
X0188652Y0092622D01*
X0221852Y0092622D01*
X0222056Y0092417D01*
X0221966Y0092417D01*
X0221204Y0091656D01*
X0221204Y0078768D01*
X0221966Y0078006D01*
X0227767Y0078006D01*
X0228529Y0078768D01*
X0228529Y0091656D01*
X0227767Y0092417D01*
X0226867Y0092417D01*
X0226867Y0093264D01*
X0225695Y0094435D01*
X0226039Y0094091D02*
X0270054Y0094091D01*
X0270054Y0092692D02*
X0226867Y0092692D01*
X0224867Y0092435D02*
X0224867Y0085212D01*
X0228529Y0085700D02*
X0229078Y0085700D01*
X0229078Y0087098D02*
X0228529Y0087098D01*
X0228529Y0088497D02*
X0229078Y0088497D01*
X0229078Y0089895D02*
X0228529Y0089895D01*
X0228529Y0091294D02*
X0229078Y0091294D01*
X0229078Y0091656D02*
X0229078Y0078768D01*
X0229840Y0078006D01*
X0230480Y0078006D01*
X0230480Y0069352D01*
X0230064Y0068936D01*
X0229630Y0067889D01*
X0229630Y0066755D01*
X0230064Y0065707D01*
X0230866Y0064906D01*
X0231913Y0064472D01*
X0233047Y0064472D01*
X0234094Y0064906D01*
X0234896Y0065707D01*
X0235330Y0066755D01*
X0235330Y0067889D01*
X0234896Y0068936D01*
X0234480Y0069352D01*
X0234480Y0078006D01*
X0235641Y0078006D01*
X0236403Y0078768D01*
X0236403Y0091656D01*
X0235641Y0092417D01*
X0229840Y0092417D01*
X0229078Y0091656D01*
X0224867Y0092435D02*
X0222680Y0094622D01*
X0101580Y0094622D01*
X0098780Y0091822D01*
X0098780Y0089722D01*
X0096203Y0088497D02*
X0019612Y0088497D01*
X0019612Y0087098D02*
X0097666Y0087098D01*
X0099894Y0087098D02*
X0101479Y0087098D01*
X0101479Y0085700D02*
X0019612Y0085700D01*
X0019612Y0084301D02*
X0022177Y0084301D01*
X0020540Y0082903D02*
X0019612Y0082903D01*
X0019612Y0081504D02*
X0020037Y0081504D01*
X0020086Y0080106D02*
X0019612Y0080106D01*
X0019612Y0078707D02*
X0020763Y0078707D01*
X0020294Y0077309D02*
X0019612Y0077309D01*
X0019612Y0075910D02*
X0020037Y0075910D01*
X0020332Y0074512D02*
X0019612Y0074512D01*
X0019612Y0073113D02*
X0020669Y0073113D01*
X0020047Y0071715D02*
X0019612Y0071715D01*
X0019612Y0070316D02*
X0020037Y0070316D01*
X0019612Y0068918D02*
X0020578Y0068918D01*
X0020381Y0067519D02*
X0019612Y0067519D01*
X0019612Y0066121D02*
X0020037Y0066121D01*
X0020245Y0064722D02*
X0019612Y0064722D01*
X0019612Y0063324D02*
X0020880Y0063324D01*
X0020135Y0061925D02*
X0019612Y0061925D01*
X0019612Y0060527D02*
X0020037Y0060527D01*
X0019612Y0059128D02*
X0020491Y0059128D01*
X0020468Y0057730D02*
X0019612Y0057730D01*
X0019612Y0056331D02*
X0020037Y0056331D01*
X0020158Y0054933D02*
X0019612Y0054933D01*
X0019612Y0053534D02*
X0020936Y0053534D01*
X0020222Y0052136D02*
X0019612Y0052136D01*
X0019612Y0050737D02*
X0020037Y0050737D01*
X0020404Y0049339D02*
X0019612Y0049339D01*
X0019612Y0047940D02*
X0020555Y0047940D01*
X0020037Y0046542D02*
X0019612Y0046542D01*
X0019612Y0045143D02*
X0020071Y0045143D01*
X0019612Y0043745D02*
X0020726Y0043745D01*
X0019878Y0042346D02*
X0019612Y0042346D01*
X0019612Y0040948D02*
X0019637Y0040948D01*
X0019612Y0039549D02*
X0019884Y0039549D01*
X0019612Y0038151D02*
X0020707Y0038151D01*
X0020063Y0036752D02*
X0019612Y0036752D01*
X0019612Y0035354D02*
X0020037Y0035354D01*
X0019612Y0033955D02*
X0020563Y0033955D01*
X0020396Y0032556D02*
X0019612Y0032556D01*
X0019612Y0031158D02*
X0020037Y0031158D01*
X0020230Y0029759D02*
X0019612Y0029759D01*
X0019612Y0028361D02*
X0020917Y0028361D01*
X0020150Y0026962D02*
X0019612Y0026962D01*
X0019612Y0025564D02*
X0020037Y0025564D01*
X0019612Y0024165D02*
X0020476Y0024165D01*
X0020483Y0022767D02*
X0019612Y0022767D01*
X0019612Y0021368D02*
X0020037Y0021368D01*
X0020143Y0019970D02*
X0019612Y0019970D01*
X0019612Y0018571D02*
X0020899Y0018571D01*
X0019612Y0017173D02*
X0040099Y0017173D01*
X0040099Y0018571D02*
X0031286Y0018571D01*
X0032043Y0019970D02*
X0040099Y0019970D01*
X0040099Y0021368D02*
X0032149Y0021368D01*
X0031702Y0022767D02*
X0040099Y0022767D01*
X0026093Y0025957D02*
X0067645Y0025957D01*
X0069780Y0023822D01*
X0073180Y0020422D01*
X0105151Y0020422D01*
X0110406Y0015167D01*
X0106106Y0015774D02*
X0105106Y0015774D01*
X0105106Y0014376D02*
X0106106Y0014376D01*
X0106514Y0012977D02*
X0104863Y0012977D01*
X0103465Y0011579D02*
X0107913Y0011579D01*
X0112899Y0011579D02*
X0117913Y0011579D01*
X0118625Y0010867D02*
X0122187Y0010867D01*
X0124706Y0013386D01*
X0124706Y0016948D01*
X0122187Y0019467D01*
X0118625Y0019467D01*
X0116106Y0016948D01*
X0116106Y0013386D01*
X0118625Y0010867D01*
X0116514Y0012977D02*
X0114298Y0012977D01*
X0114706Y0014376D02*
X0116106Y0014376D01*
X0116106Y0015774D02*
X0114706Y0015774D01*
X0114481Y0017173D02*
X0116331Y0017173D01*
X0117730Y0018571D02*
X0113082Y0018571D01*
X0108431Y0019970D02*
X0175880Y0019970D01*
X0175880Y0021368D02*
X0122689Y0021368D01*
X0124087Y0022767D02*
X0175880Y0022767D01*
X0179880Y0022767D02*
X0181834Y0022767D01*
X0181834Y0021368D02*
X0179880Y0021368D01*
X0179880Y0019970D02*
X0181834Y0019970D01*
X0185497Y0020645D02*
X0185497Y0028738D01*
X0193980Y0037222D01*
X0221280Y0037222D01*
X0224867Y0033635D01*
X0224867Y0020645D01*
X0228529Y0019970D02*
X0229078Y0019970D01*
X0229078Y0021368D02*
X0228529Y0021368D01*
X0228529Y0022767D02*
X0229078Y0022767D01*
X0229078Y0024165D02*
X0228529Y0024165D01*
X0228529Y0025564D02*
X0229078Y0025564D01*
X0229078Y0026962D02*
X0228529Y0026962D01*
X0229078Y0027089D02*
X0229840Y0027850D01*
X0235641Y0027850D01*
X0236403Y0027089D01*
X0236403Y0014201D01*
X0235641Y0013439D01*
X0229840Y0013439D01*
X0229078Y0014201D01*
X0229078Y0027089D01*
X0226867Y0028361D02*
X0238615Y0028361D01*
X0238615Y0027850D02*
X0237714Y0027850D01*
X0236952Y0027089D01*
X0236952Y0014201D01*
X0237714Y0013439D01*
X0243515Y0013439D01*
X0244277Y0014201D01*
X0244277Y0027089D01*
X0243515Y0027850D01*
X0242615Y0027850D01*
X0242615Y0032716D01*
X0228408Y0046922D01*
X0193408Y0046922D01*
X0184308Y0056022D01*
X0172664Y0056022D01*
X0172319Y0056854D01*
X0170912Y0058261D01*
X0169075Y0059022D01*
X0170912Y0059783D01*
X0172319Y0061189D01*
X0173080Y0063027D01*
X0173080Y0065016D01*
X0172319Y0066854D01*
X0170912Y0068261D01*
X0169075Y0069022D01*
X0167085Y0069022D01*
X0165248Y0068261D01*
X0163841Y0066854D01*
X0163080Y0065016D01*
X0163080Y0063027D01*
X0163841Y0061189D01*
X0165248Y0059783D01*
X0167085Y0059022D01*
X0169075Y0059022D01*
X0167085Y0059022D01*
X0165248Y0058261D01*
X0163841Y0056854D01*
X0163080Y0055016D01*
X0163080Y0053027D01*
X0163841Y0051189D01*
X0165248Y0049783D01*
X0166606Y0049221D01*
X0166007Y0049026D01*
X0165250Y0048640D01*
X0164562Y0048141D01*
X0163961Y0047540D01*
X0163462Y0046852D01*
X0163076Y0046095D01*
X0162813Y0045286D01*
X0162680Y0044447D01*
X0162680Y0044322D01*
X0167780Y0044322D01*
X0167780Y0043722D01*
X0162680Y0043722D01*
X0162680Y0043597D01*
X0162813Y0042757D01*
X0163076Y0041949D01*
X0163462Y0041192D01*
X0163961Y0040504D01*
X0164562Y0039903D01*
X0165250Y0039403D01*
X0166007Y0039017D01*
X0166816Y0038755D01*
X0167655Y0038622D01*
X0167780Y0038622D01*
X0167780Y0043722D01*
X0168380Y0043722D01*
X0168380Y0044322D01*
X0173480Y0044322D01*
X0173480Y0044447D01*
X0173347Y0045286D01*
X0173084Y0046095D01*
X0172698Y0046852D01*
X0172199Y0047540D01*
X0171598Y0048141D01*
X0170910Y0048640D01*
X0170153Y0049026D01*
X0169555Y0049221D01*
X0170912Y0049783D01*
X0172319Y0051189D01*
X0172664Y0052022D01*
X0182652Y0052022D01*
X0190580Y0044093D01*
X0191752Y0042922D01*
X0226752Y0042922D01*
X0238615Y0031059D01*
X0238615Y0027850D01*
X0236952Y0026962D02*
X0236403Y0026962D01*
X0236403Y0025564D02*
X0236952Y0025564D01*
X0236952Y0024165D02*
X0236403Y0024165D01*
X0236403Y0022767D02*
X0236952Y0022767D01*
X0236952Y0021368D02*
X0236403Y0021368D01*
X0236403Y0019970D02*
X0236952Y0019970D01*
X0236952Y0018571D02*
X0236403Y0018571D01*
X0236403Y0017173D02*
X0236952Y0017173D01*
X0236952Y0015774D02*
X0236403Y0015774D01*
X0236403Y0014376D02*
X0236952Y0014376D01*
X0229078Y0014376D02*
X0228529Y0014376D01*
X0228529Y0015774D02*
X0229078Y0015774D01*
X0229078Y0017173D02*
X0228529Y0017173D01*
X0228529Y0018571D02*
X0229078Y0018571D01*
X0221204Y0018571D02*
X0220655Y0018571D01*
X0220655Y0017173D02*
X0221204Y0017173D01*
X0221204Y0015774D02*
X0220655Y0015774D01*
X0220655Y0014376D02*
X0221204Y0014376D01*
X0218993Y0012977D02*
X0270054Y0012977D01*
X0270054Y0011579D02*
X0218065Y0011579D01*
X0216993Y0013334D02*
X0215680Y0012022D01*
X0181380Y0012022D01*
X0177880Y0015522D01*
X0177880Y0044222D01*
X0175177Y0045143D02*
X0173370Y0045143D01*
X0172857Y0046542D02*
X0176169Y0046542D01*
X0179591Y0046542D02*
X0188132Y0046542D01*
X0186733Y0047940D02*
X0171798Y0047940D01*
X0169839Y0049339D02*
X0185335Y0049339D01*
X0183936Y0050737D02*
X0171866Y0050737D01*
X0166321Y0049339D02*
X0114080Y0049339D01*
X0114080Y0050737D02*
X0164294Y0050737D01*
X0163449Y0052136D02*
X0114080Y0052136D01*
X0114080Y0053534D02*
X0163080Y0053534D01*
X0168080Y0054022D02*
X0183480Y0054022D01*
X0192580Y0044922D01*
X0227580Y0044922D01*
X0240615Y0031887D01*
X0240615Y0020645D01*
X0244277Y0019970D02*
X0270054Y0019970D01*
X0270054Y0021368D02*
X0244277Y0021368D01*
X0244277Y0022767D02*
X0270054Y0022767D01*
X0270054Y0024165D02*
X0244277Y0024165D01*
X0244277Y0025564D02*
X0270054Y0025564D01*
X0270054Y0026962D02*
X0244277Y0026962D01*
X0242615Y0028361D02*
X0270054Y0028361D01*
X0270054Y0029759D02*
X0242615Y0029759D01*
X0242615Y0031158D02*
X0270054Y0031158D01*
X0270054Y0032556D02*
X0242615Y0032556D01*
X0238515Y0031158D02*
X0226867Y0031158D01*
X0226867Y0032556D02*
X0237117Y0032556D01*
X0235718Y0033955D02*
X0226867Y0033955D01*
X0225977Y0035354D02*
X0234320Y0035354D01*
X0232921Y0036752D02*
X0224578Y0036752D01*
X0223180Y0038151D02*
X0231523Y0038151D01*
X0230124Y0039549D02*
X0195683Y0039549D01*
X0192277Y0039549D02*
X0179880Y0039549D01*
X0179880Y0040948D02*
X0228726Y0040948D01*
X0227327Y0042346D02*
X0180035Y0042346D01*
X0180730Y0043745D02*
X0190929Y0043745D01*
X0189530Y0045143D02*
X0180583Y0045143D01*
X0175030Y0043745D02*
X0168380Y0043745D01*
X0168380Y0043722D02*
X0173480Y0043722D01*
X0173480Y0043597D01*
X0173347Y0042757D01*
X0173084Y0041949D01*
X0172698Y0041192D01*
X0172199Y0040504D01*
X0171598Y0039903D01*
X0170910Y0039403D01*
X0170153Y0039017D01*
X0169345Y0038755D01*
X0168505Y0038622D01*
X0168380Y0038622D01*
X0168380Y0043722D01*
X0167780Y0043745D02*
X0114233Y0043745D01*
X0109927Y0043745D02*
X0104886Y0043745D01*
X0106284Y0042346D02*
X0162947Y0042346D01*
X0163639Y0040948D02*
X0111883Y0040948D01*
X0113281Y0039549D02*
X0165049Y0039549D01*
X0167780Y0039549D02*
X0168380Y0039549D01*
X0168380Y0040948D02*
X0167780Y0040948D01*
X0167780Y0042346D02*
X0168380Y0042346D01*
X0171111Y0039549D02*
X0175880Y0039549D01*
X0175880Y0040948D02*
X0172521Y0040948D01*
X0173213Y0042346D02*
X0175725Y0042346D01*
X0175880Y0038151D02*
X0114680Y0038151D01*
X0116078Y0036752D02*
X0175880Y0036752D01*
X0175880Y0035354D02*
X0138979Y0035354D01*
X0139430Y0033955D02*
X0175880Y0033955D01*
X0179880Y0033955D02*
X0187885Y0033955D01*
X0189283Y0035354D02*
X0179880Y0035354D01*
X0179880Y0036752D02*
X0190682Y0036752D01*
X0191280Y0038151D02*
X0179880Y0038151D01*
X0179880Y0032556D02*
X0186486Y0032556D01*
X0185088Y0031158D02*
X0179880Y0031158D01*
X0179880Y0029759D02*
X0183689Y0029759D01*
X0183497Y0028361D02*
X0179880Y0028361D01*
X0179880Y0026962D02*
X0181834Y0026962D01*
X0181834Y0025564D02*
X0179880Y0025564D01*
X0179880Y0024165D02*
X0181834Y0024165D01*
X0175880Y0024165D02*
X0124706Y0024165D01*
X0124706Y0025564D02*
X0175880Y0025564D01*
X0175880Y0026962D02*
X0124691Y0026962D01*
X0123293Y0028361D02*
X0175880Y0028361D01*
X0175880Y0029759D02*
X0118642Y0029759D01*
X0117243Y0031158D02*
X0135322Y0031158D01*
X0137838Y0031158D02*
X0175880Y0031158D01*
X0175880Y0032556D02*
X0139182Y0032556D01*
X0136580Y0033722D02*
X0116280Y0033722D01*
X0109980Y0040022D01*
X0105780Y0040022D01*
X0085480Y0060322D01*
X0082630Y0060527D02*
X0073490Y0060527D01*
X0072780Y0061925D02*
X0083059Y0061925D01*
X0087901Y0061925D02*
X0096780Y0061925D01*
X0096780Y0060527D02*
X0088330Y0060527D01*
X0089502Y0059128D02*
X0096780Y0059128D01*
X0096780Y0057730D02*
X0090901Y0057730D01*
X0092299Y0056331D02*
X0096362Y0056331D01*
X0095930Y0054933D02*
X0093698Y0054933D01*
X0095096Y0053534D02*
X0096187Y0053534D01*
X0096495Y0052136D02*
X0097576Y0052136D01*
X0097893Y0050737D02*
X0110080Y0050737D01*
X0110080Y0049339D02*
X0099292Y0049339D01*
X0100690Y0047940D02*
X0110080Y0047940D01*
X0109376Y0046542D02*
X0102089Y0046542D01*
X0103487Y0045143D02*
X0109230Y0045143D01*
X0112080Y0045622D02*
X0112080Y0076422D01*
X0114180Y0078522D01*
X0154080Y0078522D01*
X0156280Y0080722D01*
X0156280Y0086922D01*
X0160580Y0087098D02*
X0161980Y0087098D01*
X0161980Y0085700D02*
X0160580Y0085700D01*
X0160580Y0084301D02*
X0161980Y0084301D01*
X0162048Y0082903D02*
X0160512Y0082903D01*
X0159933Y0081504D02*
X0162627Y0081504D01*
X0164256Y0080106D02*
X0158304Y0080106D01*
X0157094Y0078707D02*
X0181535Y0078707D01*
X0181550Y0078650D02*
X0181774Y0078262D01*
X0182091Y0077946D01*
X0182478Y0077722D01*
X0182911Y0077606D01*
X0185015Y0077606D01*
X0185015Y0084730D01*
X0181434Y0084730D01*
X0181434Y0079082D01*
X0181550Y0078650D01*
X0185015Y0078707D02*
X0185978Y0078707D01*
X0185978Y0077606D02*
X0188083Y0077606D01*
X0188515Y0077722D01*
X0188903Y0077946D01*
X0189219Y0078262D01*
X0189443Y0078650D01*
X0189559Y0079082D01*
X0189559Y0084730D01*
X0185978Y0084730D01*
X0185978Y0077606D01*
X0189458Y0078707D02*
X0189769Y0078707D01*
X0189708Y0078768D02*
X0190470Y0078006D01*
X0191371Y0078006D01*
X0191371Y0077143D01*
X0190864Y0076636D01*
X0190430Y0075589D01*
X0190430Y0074455D01*
X0190864Y0073407D01*
X0191666Y0072606D01*
X0192713Y0072172D01*
X0193847Y0072172D01*
X0194894Y0072606D01*
X0195696Y0073407D01*
X0196130Y0074455D01*
X0196130Y0075589D01*
X0195696Y0076636D01*
X0195371Y0076962D01*
X0195371Y0078006D01*
X0196271Y0078006D01*
X0197033Y0078768D01*
X0197033Y0091656D01*
X0196271Y0092417D01*
X0190470Y0092417D01*
X0189708Y0091656D01*
X0189708Y0078768D01*
X0191371Y0077309D02*
X0155696Y0077309D01*
X0168304Y0080106D02*
X0174256Y0080106D01*
X0172627Y0081504D02*
X0169933Y0081504D01*
X0170512Y0082903D02*
X0172048Y0082903D01*
X0171980Y0084301D02*
X0170580Y0084301D01*
X0170580Y0085700D02*
X0171980Y0085700D01*
X0171980Y0087098D02*
X0170580Y0087098D01*
X0170580Y0088497D02*
X0171980Y0088497D01*
X0171980Y0089895D02*
X0170580Y0089895D01*
X0170366Y0091294D02*
X0172194Y0091294D01*
X0180366Y0091294D02*
X0181434Y0091294D01*
X0181434Y0089895D02*
X0180580Y0089895D01*
X0180580Y0088497D02*
X0181434Y0088497D01*
X0181434Y0087098D02*
X0180580Y0087098D01*
X0180580Y0085700D02*
X0181434Y0085700D01*
X0181434Y0084301D02*
X0180580Y0084301D01*
X0180512Y0082903D02*
X0181434Y0082903D01*
X0181434Y0081504D02*
X0179933Y0081504D01*
X0181434Y0080106D02*
X0178304Y0080106D01*
X0185015Y0080106D02*
X0185978Y0080106D01*
X0185978Y0081504D02*
X0185015Y0081504D01*
X0185015Y0082903D02*
X0185978Y0082903D01*
X0185978Y0084301D02*
X0185015Y0084301D01*
X0189559Y0084301D02*
X0189708Y0084301D01*
X0189708Y0082903D02*
X0189559Y0082903D01*
X0189559Y0081504D02*
X0189708Y0081504D01*
X0189708Y0080106D02*
X0189559Y0080106D01*
X0197033Y0080106D02*
X0197582Y0080106D01*
X0197582Y0081504D02*
X0197033Y0081504D01*
X0197033Y0082903D02*
X0197582Y0082903D01*
X0197582Y0084301D02*
X0197033Y0084301D01*
X0193371Y0085212D02*
X0193371Y0075112D01*
X0193280Y0075022D01*
X0190563Y0075910D02*
X0114397Y0075910D01*
X0114080Y0074512D02*
X0190430Y0074512D01*
X0191158Y0073113D02*
X0114080Y0073113D01*
X0114080Y0071715D02*
X0199045Y0071715D01*
X0199245Y0071915D02*
X0196652Y0069322D01*
X0195311Y0069322D01*
X0194894Y0069738D01*
X0193847Y0070172D01*
X0192713Y0070172D01*
X0191666Y0069738D01*
X0190864Y0068936D01*
X0190430Y0067889D01*
X0190430Y0066755D01*
X0190864Y0065707D01*
X0191666Y0064906D01*
X0192713Y0064472D01*
X0193847Y0064472D01*
X0194894Y0064906D01*
X0195311Y0065322D01*
X0198308Y0065322D01*
X0202073Y0069086D01*
X0203245Y0070258D01*
X0203245Y0078006D01*
X0204145Y0078006D01*
X0204907Y0078768D01*
X0204907Y0091656D01*
X0204145Y0092417D01*
X0198344Y0092417D01*
X0197582Y0091656D01*
X0197582Y0078768D01*
X0198344Y0078006D01*
X0199245Y0078006D01*
X0199245Y0071915D01*
X0199245Y0073113D02*
X0195402Y0073113D01*
X0196130Y0074512D02*
X0199245Y0074512D01*
X0199245Y0075910D02*
X0195997Y0075910D01*
X0195371Y0077309D02*
X0199245Y0077309D01*
X0197643Y0078707D02*
X0196973Y0078707D01*
X0203245Y0077309D02*
X0207380Y0077309D01*
X0207380Y0078006D02*
X0207380Y0072852D01*
X0206964Y0072436D01*
X0206530Y0071389D01*
X0206530Y0070255D01*
X0206964Y0069207D01*
X0207766Y0068406D01*
X0208813Y0067972D01*
X0209947Y0067972D01*
X0210994Y0068406D01*
X0211796Y0069207D01*
X0212230Y0070255D01*
X0212230Y0071389D01*
X0211796Y0072436D01*
X0211380Y0072852D01*
X0211380Y0078006D01*
X0212019Y0078006D01*
X0212781Y0078768D01*
X0212781Y0091656D01*
X0212019Y0092417D01*
X0206218Y0092417D01*
X0205456Y0091656D01*
X0205456Y0078768D01*
X0206218Y0078006D01*
X0207380Y0078006D01*
X0205517Y0078707D02*
X0204847Y0078707D01*
X0204907Y0080106D02*
X0205456Y0080106D01*
X0205456Y0081504D02*
X0204907Y0081504D01*
X0204907Y0082903D02*
X0205456Y0082903D01*
X0205456Y0084301D02*
X0204907Y0084301D01*
X0201245Y0085212D02*
X0201245Y0071086D01*
X0197480Y0067322D01*
X0193280Y0067322D01*
X0190693Y0066121D02*
X0172623Y0066121D01*
X0173080Y0064722D02*
X0192108Y0064722D01*
X0194452Y0064722D02*
X0220546Y0064722D01*
X0220483Y0064785D02*
X0226983Y0058285D01*
X0235640Y0058285D01*
X0236812Y0059456D01*
X0242615Y0065259D01*
X0242615Y0078006D01*
X0243515Y0078006D01*
X0244277Y0078768D01*
X0244277Y0091656D01*
X0243515Y0092417D01*
X0237714Y0092417D01*
X0236952Y0091656D01*
X0236952Y0078768D01*
X0237714Y0078006D01*
X0238615Y0078006D01*
X0238615Y0066916D01*
X0233983Y0062285D01*
X0228640Y0062285D01*
X0223312Y0067613D01*
X0223312Y0072323D01*
X0223696Y0072707D01*
X0224130Y0073755D01*
X0224130Y0074889D01*
X0223696Y0075936D01*
X0222894Y0076738D01*
X0221847Y0077172D01*
X0220713Y0077172D01*
X0219666Y0076738D01*
X0218864Y0075936D01*
X0218430Y0074889D01*
X0218430Y0073755D01*
X0218864Y0072707D01*
X0219312Y0072260D01*
X0219312Y0065956D01*
X0220483Y0064785D01*
X0219312Y0066121D02*
X0199107Y0066121D01*
X0200506Y0067519D02*
X0219312Y0067519D01*
X0219312Y0068918D02*
X0211507Y0068918D01*
X0212230Y0070316D02*
X0219312Y0070316D01*
X0219312Y0071715D02*
X0212095Y0071715D01*
X0211380Y0073113D02*
X0218696Y0073113D01*
X0221280Y0074322D02*
X0221312Y0074290D01*
X0221312Y0066785D01*
X0227812Y0060285D01*
X0234812Y0060285D01*
X0240615Y0066088D01*
X0240615Y0085212D01*
X0244277Y0085700D02*
X0270054Y0085700D01*
X0270054Y0087098D02*
X0244277Y0087098D01*
X0244277Y0088497D02*
X0270054Y0088497D01*
X0270054Y0089895D02*
X0244277Y0089895D01*
X0244277Y0091294D02*
X0270054Y0091294D01*
X0270054Y0084301D02*
X0244277Y0084301D01*
X0244277Y0082903D02*
X0270054Y0082903D01*
X0270054Y0081504D02*
X0244277Y0081504D01*
X0244277Y0080106D02*
X0270054Y0080106D01*
X0270054Y0078707D02*
X0244217Y0078707D01*
X0242615Y0077309D02*
X0270054Y0077309D01*
X0270054Y0075910D02*
X0242615Y0075910D01*
X0242615Y0074512D02*
X0270054Y0074512D01*
X0270054Y0073113D02*
X0242615Y0073113D01*
X0242615Y0071715D02*
X0270054Y0071715D01*
X0270054Y0070316D02*
X0242615Y0070316D01*
X0238615Y0070316D02*
X0234480Y0070316D01*
X0234480Y0071715D02*
X0238615Y0071715D01*
X0238615Y0073113D02*
X0234480Y0073113D01*
X0234480Y0074512D02*
X0238615Y0074512D01*
X0238615Y0075910D02*
X0234480Y0075910D01*
X0234480Y0077309D02*
X0238615Y0077309D01*
X0237013Y0078707D02*
X0236343Y0078707D01*
X0236403Y0080106D02*
X0236952Y0080106D01*
X0236952Y0081504D02*
X0236403Y0081504D01*
X0236403Y0082903D02*
X0236952Y0082903D01*
X0236952Y0084301D02*
X0236403Y0084301D01*
X0232741Y0085212D02*
X0232480Y0084951D01*
X0232480Y0067322D01*
X0229893Y0066121D02*
X0224804Y0066121D01*
X0223405Y0067519D02*
X0229630Y0067519D01*
X0230056Y0068918D02*
X0223312Y0068918D01*
X0223312Y0070316D02*
X0230480Y0070316D01*
X0230480Y0071715D02*
X0223312Y0071715D01*
X0223864Y0073113D02*
X0230480Y0073113D01*
X0230480Y0074512D02*
X0224130Y0074512D01*
X0223707Y0075910D02*
X0230480Y0075910D01*
X0230480Y0077309D02*
X0211380Y0077309D01*
X0211380Y0075910D02*
X0218853Y0075910D01*
X0218430Y0074512D02*
X0211380Y0074512D01*
X0207380Y0074512D02*
X0203245Y0074512D01*
X0203245Y0075910D02*
X0207380Y0075910D01*
X0212721Y0078707D02*
X0213391Y0078707D01*
X0213330Y0078768D02*
X0214092Y0078006D01*
X0219893Y0078006D01*
X0220655Y0078768D01*
X0220655Y0091656D01*
X0219893Y0092417D01*
X0214092Y0092417D01*
X0213330Y0091656D01*
X0213330Y0078768D01*
X0213330Y0080106D02*
X0212781Y0080106D01*
X0212781Y0081504D02*
X0213330Y0081504D01*
X0213330Y0082903D02*
X0212781Y0082903D01*
X0212781Y0084301D02*
X0213330Y0084301D01*
X0209380Y0084950D02*
X0209380Y0070822D01*
X0206665Y0071715D02*
X0203245Y0071715D01*
X0203245Y0073113D02*
X0207380Y0073113D01*
X0206530Y0070316D02*
X0203245Y0070316D01*
X0201904Y0068918D02*
X0207254Y0068918D01*
X0197646Y0070316D02*
X0118746Y0070316D01*
X0119130Y0068918D02*
X0166834Y0068918D01*
X0169326Y0068918D02*
X0190856Y0068918D01*
X0190430Y0067519D02*
X0171654Y0067519D01*
X0164506Y0067519D02*
X0120411Y0067519D01*
X0121809Y0066121D02*
X0163537Y0066121D01*
X0163080Y0064722D02*
X0126402Y0064722D01*
X0126830Y0063324D02*
X0163080Y0063324D01*
X0163536Y0061925D02*
X0126569Y0061925D01*
X0125162Y0060527D02*
X0164504Y0060527D01*
X0166829Y0059128D02*
X0114080Y0059128D01*
X0114080Y0057730D02*
X0164717Y0057730D01*
X0163625Y0056331D02*
X0114080Y0056331D01*
X0114080Y0054933D02*
X0163080Y0054933D01*
X0169331Y0059128D02*
X0226140Y0059128D01*
X0224741Y0060527D02*
X0171656Y0060527D01*
X0172624Y0061925D02*
X0223343Y0061925D01*
X0221944Y0063324D02*
X0173080Y0063324D01*
X0171443Y0057730D02*
X0270054Y0057730D01*
X0270054Y0059128D02*
X0236483Y0059128D01*
X0237882Y0060527D02*
X0270054Y0060527D01*
X0270054Y0061925D02*
X0239280Y0061925D01*
X0240679Y0063324D02*
X0270054Y0063324D01*
X0270054Y0064722D02*
X0242077Y0064722D01*
X0242615Y0066121D02*
X0270054Y0066121D01*
X0270054Y0067519D02*
X0242615Y0067519D01*
X0242615Y0068918D02*
X0270054Y0068918D01*
X0270054Y0056331D02*
X0172535Y0056331D01*
X0185398Y0054933D02*
X0270054Y0054933D01*
X0270054Y0053534D02*
X0186796Y0053534D01*
X0188195Y0052136D02*
X0270054Y0052136D01*
X0270054Y0050737D02*
X0189593Y0050737D01*
X0190992Y0049339D02*
X0270054Y0049339D01*
X0270054Y0047940D02*
X0192390Y0047940D01*
X0164362Y0047940D02*
X0114080Y0047940D01*
X0114784Y0046542D02*
X0163303Y0046542D01*
X0162790Y0045143D02*
X0114930Y0045143D01*
X0110080Y0052136D02*
X0099984Y0052136D01*
X0101373Y0053534D02*
X0110080Y0053534D01*
X0110080Y0054933D02*
X0101630Y0054933D01*
X0101198Y0056331D02*
X0110080Y0056331D01*
X0110080Y0057730D02*
X0100780Y0057730D01*
X0100780Y0059128D02*
X0110080Y0059128D01*
X0110080Y0060527D02*
X0100780Y0060527D01*
X0100780Y0061925D02*
X0110080Y0061925D01*
X0110080Y0063324D02*
X0100780Y0063324D01*
X0100780Y0064722D02*
X0110080Y0064722D01*
X0110080Y0066121D02*
X0100780Y0066121D01*
X0100780Y0067519D02*
X0110080Y0067519D01*
X0110080Y0068918D02*
X0100780Y0068918D01*
X0101103Y0070316D02*
X0110080Y0070316D01*
X0110080Y0071715D02*
X0102501Y0071715D01*
X0103900Y0073113D02*
X0110080Y0073113D01*
X0110080Y0074512D02*
X0105298Y0074512D01*
X0106697Y0075910D02*
X0108837Y0075910D01*
X0109980Y0078522D02*
X0106480Y0078522D01*
X0098780Y0070822D01*
X0098780Y0054722D01*
X0090838Y0052136D02*
X0090697Y0052136D01*
X0089439Y0053534D02*
X0031249Y0053534D01*
X0031963Y0052136D02*
X0087263Y0052136D01*
X0088980Y0049822D02*
X0076380Y0049822D01*
X0065180Y0038622D01*
X0061680Y0038622D01*
X0058979Y0039549D02*
X0032301Y0039549D01*
X0032549Y0040948D02*
X0059975Y0040948D01*
X0063385Y0040948D02*
X0064677Y0040948D01*
X0066076Y0042346D02*
X0032307Y0042346D01*
X0031459Y0043745D02*
X0067474Y0043745D01*
X0068873Y0045143D02*
X0032114Y0045143D01*
X0032149Y0046542D02*
X0070271Y0046542D01*
X0071670Y0047940D02*
X0031630Y0047940D01*
X0031781Y0049339D02*
X0073068Y0049339D01*
X0074467Y0050737D02*
X0032149Y0050737D01*
X0032027Y0054933D02*
X0088041Y0054933D01*
X0086642Y0056331D02*
X0032149Y0056331D01*
X0031717Y0057730D02*
X0068642Y0057730D01*
X0067930Y0059128D02*
X0031694Y0059128D01*
X0032149Y0060527D02*
X0068070Y0060527D01*
X0068780Y0061925D02*
X0032051Y0061925D01*
X0031305Y0063324D02*
X0068780Y0063324D01*
X0070780Y0064522D02*
X0070780Y0059622D01*
X0073630Y0059128D02*
X0082890Y0059128D01*
X0084290Y0057730D02*
X0072918Y0057730D01*
X0072780Y0063324D02*
X0096780Y0063324D01*
X0096780Y0064722D02*
X0072780Y0064722D01*
X0072009Y0066121D02*
X0096780Y0066121D01*
X0096780Y0067519D02*
X0070611Y0067519D01*
X0069212Y0068918D02*
X0096780Y0068918D01*
X0096780Y0070316D02*
X0067814Y0070316D01*
X0068113Y0072172D02*
X0069247Y0072172D01*
X0070294Y0072606D01*
X0071096Y0073407D01*
X0071530Y0074455D01*
X0071530Y0075589D01*
X0071096Y0076636D01*
X0070294Y0077438D01*
X0069247Y0077872D01*
X0068113Y0077872D01*
X0067509Y0077621D01*
X0063830Y0081300D01*
X0063830Y0081889D01*
X0063396Y0082936D01*
X0062594Y0083738D01*
X0061547Y0084172D01*
X0060413Y0084172D01*
X0059366Y0083738D01*
X0058564Y0082936D01*
X0058130Y0081889D01*
X0058130Y0080755D01*
X0058564Y0079707D01*
X0059366Y0078906D01*
X0060413Y0078472D01*
X0061002Y0078472D01*
X0065280Y0074193D01*
X0066452Y0073022D01*
X0066650Y0073022D01*
X0067066Y0072606D01*
X0068113Y0072172D01*
X0066415Y0071715D02*
X0096845Y0071715D01*
X0098243Y0073113D02*
X0070802Y0073113D01*
X0066360Y0073113D02*
X0065017Y0073113D01*
X0060759Y0071715D02*
X0032138Y0071715D01*
X0032149Y0070316D02*
X0062157Y0070316D01*
X0063556Y0068918D02*
X0031607Y0068918D01*
X0031805Y0067519D02*
X0064954Y0067519D01*
X0066353Y0066121D02*
X0032149Y0066121D01*
X0031940Y0064722D02*
X0067751Y0064722D01*
X0070780Y0064522D02*
X0058180Y0077122D01*
X0035080Y0077122D01*
X0031245Y0080957D01*
X0026093Y0080957D01*
X0032127Y0082903D02*
X0058550Y0082903D01*
X0058130Y0081504D02*
X0033526Y0081504D01*
X0034924Y0080106D02*
X0058399Y0080106D01*
X0060980Y0081322D02*
X0067280Y0075022D01*
X0068680Y0075022D01*
X0071397Y0075910D02*
X0101040Y0075910D01*
X0099642Y0074512D02*
X0071530Y0074512D01*
X0070423Y0077309D02*
X0102439Y0077309D01*
X0103837Y0078707D02*
X0066423Y0078707D01*
X0065024Y0080106D02*
X0103405Y0080106D01*
X0102066Y0081504D02*
X0063830Y0081504D01*
X0063410Y0082903D02*
X0101487Y0082903D01*
X0101479Y0084301D02*
X0030008Y0084301D01*
X0031892Y0077309D02*
X0032065Y0077309D01*
X0032149Y0075910D02*
X0033463Y0075910D01*
X0031853Y0074512D02*
X0057962Y0074512D01*
X0062220Y0075910D02*
X0063563Y0075910D01*
X0063618Y0074512D02*
X0064962Y0074512D01*
X0062165Y0077309D02*
X0060821Y0077309D01*
X0059844Y0078707D02*
X0059423Y0078707D01*
X0059360Y0073113D02*
X0031516Y0073113D01*
X0019612Y0089895D02*
X0095930Y0089895D01*
X0096346Y0091294D02*
X0019612Y0091294D01*
X0019612Y0092692D02*
X0096822Y0092692D01*
X0098221Y0094091D02*
X0019612Y0094091D01*
X0019612Y0095489D02*
X0099619Y0095489D01*
X0109015Y0092622D02*
X0112037Y0092622D01*
X0111759Y0092240D01*
X0111424Y0091581D01*
X0111195Y0090877D01*
X0111079Y0090147D01*
X0111079Y0087077D01*
X0115479Y0087077D01*
X0115479Y0086477D01*
X0111079Y0086477D01*
X0111079Y0083407D01*
X0111195Y0082676D01*
X0111424Y0081973D01*
X0111759Y0081314D01*
X0112194Y0080715D01*
X0112717Y0080192D01*
X0112894Y0080064D01*
X0112563Y0079733D01*
X0112396Y0080136D01*
X0111594Y0080938D01*
X0110547Y0081372D01*
X0109437Y0081372D01*
X0110079Y0082922D01*
X0110079Y0090632D01*
X0109425Y0092213D01*
X0109015Y0092622D01*
X0109805Y0091294D02*
X0111330Y0091294D01*
X0111079Y0089895D02*
X0110079Y0089895D01*
X0110079Y0088497D02*
X0111079Y0088497D01*
X0111079Y0087098D02*
X0110079Y0087098D01*
X0110079Y0085700D02*
X0111079Y0085700D01*
X0111079Y0084301D02*
X0110079Y0084301D01*
X0110071Y0082903D02*
X0111159Y0082903D01*
X0111662Y0081504D02*
X0109492Y0081504D01*
X0112409Y0080106D02*
X0112836Y0080106D01*
X0119171Y0080522D02*
X0119364Y0080715D01*
X0119799Y0081314D01*
X0120135Y0081973D01*
X0120363Y0082676D01*
X0120479Y0083407D01*
X0120479Y0086477D01*
X0116079Y0086477D01*
X0116079Y0087077D01*
X0120479Y0087077D01*
X0120479Y0090147D01*
X0120363Y0090877D01*
X0120135Y0091581D01*
X0119799Y0092240D01*
X0119522Y0092622D01*
X0122432Y0092622D01*
X0122260Y0092385D01*
X0121924Y0091726D01*
X0121696Y0091022D01*
X0121580Y0090292D01*
X0121580Y0087222D01*
X0125980Y0087222D01*
X0125980Y0086622D01*
X0121580Y0086622D01*
X0121580Y0083552D01*
X0121696Y0082821D01*
X0121924Y0082118D01*
X0122260Y0081458D01*
X0122695Y0080860D01*
X0123033Y0080522D01*
X0119171Y0080522D01*
X0119896Y0081504D02*
X0122237Y0081504D01*
X0121683Y0082903D02*
X0120399Y0082903D01*
X0120479Y0084301D02*
X0121580Y0084301D01*
X0121580Y0085700D02*
X0120479Y0085700D01*
X0120479Y0087098D02*
X0125980Y0087098D01*
X0126580Y0087098D02*
X0131980Y0087098D01*
X0130980Y0087222D02*
X0130980Y0090292D01*
X0130864Y0091022D01*
X0130636Y0091726D01*
X0130300Y0092385D01*
X0130128Y0092622D01*
X0132899Y0092622D01*
X0132635Y0092358D01*
X0131980Y0090777D01*
X0131980Y0083066D01*
X0132635Y0081486D01*
X0133599Y0080522D01*
X0129527Y0080522D01*
X0129865Y0080860D01*
X0130300Y0081458D01*
X0130636Y0082118D01*
X0130864Y0082821D01*
X0130980Y0083552D01*
X0130980Y0086622D01*
X0126580Y0086622D01*
X0126580Y0087222D01*
X0130980Y0087222D01*
X0130980Y0088497D02*
X0131980Y0088497D01*
X0131980Y0089895D02*
X0130980Y0089895D01*
X0130776Y0091294D02*
X0132194Y0091294D01*
X0121784Y0091294D02*
X0120228Y0091294D01*
X0120479Y0089895D02*
X0121580Y0089895D01*
X0121580Y0088497D02*
X0120479Y0088497D01*
X0130980Y0085700D02*
X0131980Y0085700D01*
X0131980Y0084301D02*
X0130980Y0084301D01*
X0130877Y0082903D02*
X0132048Y0082903D01*
X0132627Y0081504D02*
X0130323Y0081504D01*
X0101479Y0088497D02*
X0101357Y0088497D01*
X0116280Y0068822D02*
X0121980Y0063122D01*
X0123980Y0063122D01*
X0120348Y0061925D02*
X0114080Y0061925D01*
X0114080Y0060527D02*
X0122798Y0060527D01*
X0118950Y0063324D02*
X0114080Y0063324D01*
X0114080Y0064722D02*
X0117551Y0064722D01*
X0115353Y0066121D02*
X0114080Y0066121D01*
X0091780Y0049822D02*
X0088980Y0049822D01*
X0091780Y0049822D02*
X0104380Y0037222D01*
X0108351Y0037222D01*
X0120406Y0025167D01*
X0116106Y0025564D02*
X0114706Y0025564D01*
X0114691Y0026962D02*
X0115782Y0026962D01*
X0114383Y0028361D02*
X0113293Y0028361D01*
X0112985Y0029759D02*
X0108642Y0029759D01*
X0107243Y0031158D02*
X0111586Y0031158D01*
X0110188Y0032556D02*
X0106282Y0032556D01*
X0103680Y0033722D02*
X0102980Y0033722D01*
X0091080Y0045622D01*
X0081280Y0045622D01*
X0078576Y0046542D02*
X0075928Y0046542D01*
X0074530Y0045143D02*
X0078430Y0045143D01*
X0079127Y0043745D02*
X0073131Y0043745D01*
X0071733Y0042346D02*
X0091527Y0042346D01*
X0092926Y0040948D02*
X0070334Y0040948D01*
X0068936Y0039549D02*
X0094324Y0039549D01*
X0095723Y0038151D02*
X0067537Y0038151D01*
X0066139Y0036752D02*
X0097121Y0036752D01*
X0098520Y0035354D02*
X0060077Y0035354D01*
X0059519Y0036752D02*
X0058678Y0036752D01*
X0058830Y0038151D02*
X0031479Y0038151D01*
X0026093Y0035957D02*
X0056645Y0035957D01*
X0062380Y0030222D01*
X0073980Y0030222D01*
X0076580Y0027622D01*
X0083580Y0027622D01*
X0086280Y0030322D01*
X0105251Y0030322D01*
X0110406Y0025167D01*
X0106106Y0025564D02*
X0104706Y0025564D01*
X0104691Y0026962D02*
X0105782Y0026962D01*
X0106106Y0024165D02*
X0104706Y0024165D01*
X0104087Y0022767D02*
X0106725Y0022767D01*
X0107033Y0021368D02*
X0108123Y0021368D01*
X0112689Y0021368D02*
X0118123Y0021368D01*
X0116725Y0022767D02*
X0114087Y0022767D01*
X0114706Y0024165D02*
X0116106Y0024165D01*
X0123082Y0018571D02*
X0175880Y0018571D01*
X0175880Y0017173D02*
X0124481Y0017173D01*
X0124706Y0015774D02*
X0175880Y0015774D01*
X0176198Y0014376D02*
X0124706Y0014376D01*
X0124298Y0012977D02*
X0177596Y0012977D01*
X0178995Y0011579D02*
X0122899Y0011579D01*
X0105571Y0017173D02*
X0105047Y0017173D01*
X0100106Y0015467D02*
X0100106Y0014867D01*
X0095706Y0014867D01*
X0095706Y0013220D01*
X0098241Y0010685D01*
X0066321Y0010685D01*
X0066321Y0023660D01*
X0066024Y0023957D01*
X0066816Y0023957D01*
X0066930Y0023843D01*
X0066930Y0023255D01*
X0067364Y0022207D01*
X0068166Y0021406D01*
X0069213Y0020972D01*
X0069802Y0020972D01*
X0072352Y0018422D01*
X0097014Y0018422D01*
X0095706Y0017113D01*
X0095706Y0015467D01*
X0100106Y0015467D01*
X0095706Y0015774D02*
X0066321Y0015774D01*
X0066321Y0014376D02*
X0095706Y0014376D01*
X0095949Y0012977D02*
X0066321Y0012977D01*
X0066321Y0011579D02*
X0097347Y0011579D01*
X0095765Y0017173D02*
X0066321Y0017173D01*
X0066321Y0018571D02*
X0072202Y0018571D01*
X0070803Y0019970D02*
X0066321Y0019970D01*
X0066321Y0021368D02*
X0068256Y0021368D01*
X0067132Y0022767D02*
X0066321Y0022767D01*
X0078473Y0029759D02*
X0082889Y0029759D01*
X0084288Y0031158D02*
X0075872Y0031158D01*
X0062874Y0032556D02*
X0100980Y0032556D01*
X0102980Y0033022D02*
X0103680Y0033722D01*
X0106530Y0033955D02*
X0108789Y0033955D01*
X0099918Y0033955D02*
X0061475Y0033955D01*
X0052580Y0030922D02*
X0052545Y0030957D01*
X0026093Y0030957D01*
X0019612Y0015774D02*
X0040099Y0015774D01*
X0040099Y0014376D02*
X0019612Y0014376D01*
X0019612Y0012977D02*
X0040099Y0012977D01*
X0040099Y0011579D02*
X0019612Y0011579D01*
X0179880Y0017173D02*
X0181834Y0017173D01*
X0181834Y0018571D02*
X0179880Y0018571D01*
X0180456Y0015774D02*
X0181834Y0015774D01*
X0189159Y0015774D02*
X0189708Y0015774D01*
X0189708Y0014376D02*
X0189159Y0014376D01*
X0189159Y0017173D02*
X0189708Y0017173D01*
X0189708Y0018571D02*
X0189159Y0018571D01*
X0189159Y0019970D02*
X0189708Y0019970D01*
X0189708Y0021368D02*
X0189159Y0021368D01*
X0189159Y0022767D02*
X0189708Y0022767D01*
X0189708Y0024165D02*
X0189159Y0024165D01*
X0189159Y0025564D02*
X0189708Y0025564D01*
X0189708Y0026962D02*
X0189159Y0026962D01*
X0187948Y0028361D02*
X0222867Y0028361D01*
X0221204Y0026962D02*
X0220655Y0026962D01*
X0220655Y0025564D02*
X0221204Y0025564D01*
X0221204Y0024165D02*
X0220655Y0024165D01*
X0220655Y0022767D02*
X0221204Y0022767D01*
X0221204Y0021368D02*
X0220655Y0021368D01*
X0220655Y0019970D02*
X0221204Y0019970D01*
X0216993Y0020645D02*
X0216993Y0013334D01*
X0213330Y0014376D02*
X0212781Y0014376D01*
X0212781Y0015774D02*
X0213330Y0015774D01*
X0213330Y0017173D02*
X0212781Y0017173D01*
X0212781Y0018571D02*
X0213330Y0018571D01*
X0213330Y0019970D02*
X0212781Y0019970D01*
X0212781Y0021368D02*
X0213330Y0021368D01*
X0213330Y0022767D02*
X0212781Y0022767D01*
X0212781Y0024165D02*
X0213330Y0024165D01*
X0213330Y0025564D02*
X0212781Y0025564D01*
X0212781Y0026962D02*
X0213330Y0026962D01*
X0205456Y0026962D02*
X0204907Y0026962D01*
X0204907Y0025564D02*
X0205456Y0025564D01*
X0205456Y0024165D02*
X0204907Y0024165D01*
X0204907Y0022767D02*
X0205456Y0022767D01*
X0205456Y0021368D02*
X0204907Y0021368D01*
X0204907Y0019970D02*
X0205456Y0019970D01*
X0205456Y0018571D02*
X0204907Y0018571D01*
X0204907Y0017173D02*
X0205456Y0017173D01*
X0205456Y0015774D02*
X0204907Y0015774D01*
X0204907Y0014376D02*
X0205456Y0014376D01*
X0197582Y0014376D02*
X0197033Y0014376D01*
X0197033Y0015774D02*
X0197582Y0015774D01*
X0197582Y0017173D02*
X0197033Y0017173D01*
X0197033Y0018571D02*
X0197582Y0018571D01*
X0197582Y0019970D02*
X0197033Y0019970D01*
X0197033Y0021368D02*
X0197582Y0021368D01*
X0197582Y0022767D02*
X0197033Y0022767D01*
X0197033Y0024165D02*
X0197582Y0024165D01*
X0197582Y0025564D02*
X0197033Y0025564D01*
X0197033Y0026962D02*
X0197582Y0026962D01*
X0189346Y0029759D02*
X0222867Y0029759D01*
X0222867Y0031158D02*
X0190745Y0031158D01*
X0192143Y0032556D02*
X0222867Y0032556D01*
X0221718Y0033955D02*
X0193542Y0033955D01*
X0226867Y0029759D02*
X0238615Y0029759D01*
X0241375Y0033955D02*
X0270054Y0033955D01*
X0270054Y0035354D02*
X0239977Y0035354D01*
X0238578Y0036752D02*
X0270054Y0036752D01*
X0270054Y0038151D02*
X0237180Y0038151D01*
X0235781Y0039549D02*
X0270054Y0039549D01*
X0270054Y0040948D02*
X0234383Y0040948D01*
X0232984Y0042346D02*
X0270054Y0042346D01*
X0270054Y0043745D02*
X0231586Y0043745D01*
X0230187Y0045143D02*
X0270054Y0045143D01*
X0270054Y0046542D02*
X0228789Y0046542D01*
X0227601Y0063324D02*
X0235022Y0063324D01*
X0233652Y0064722D02*
X0236421Y0064722D01*
X0235067Y0066121D02*
X0237819Y0066121D01*
X0238615Y0067519D02*
X0235330Y0067519D01*
X0234904Y0068918D02*
X0238615Y0068918D01*
X0231308Y0064722D02*
X0226202Y0064722D01*
X0228469Y0078707D02*
X0229139Y0078707D01*
X0229078Y0080106D02*
X0228529Y0080106D01*
X0228529Y0081504D02*
X0229078Y0081504D01*
X0229078Y0082903D02*
X0228529Y0082903D01*
X0228529Y0084301D02*
X0229078Y0084301D01*
X0236403Y0085700D02*
X0236952Y0085700D01*
X0236952Y0087098D02*
X0236403Y0087098D01*
X0236403Y0088497D02*
X0236952Y0088497D01*
X0236952Y0089895D02*
X0236403Y0089895D01*
X0236403Y0091294D02*
X0236952Y0091294D01*
X0221204Y0091294D02*
X0220655Y0091294D01*
X0220655Y0089895D02*
X0221204Y0089895D01*
X0221204Y0088497D02*
X0220655Y0088497D01*
X0220655Y0087098D02*
X0221204Y0087098D01*
X0221204Y0085700D02*
X0220655Y0085700D01*
X0220655Y0084301D02*
X0221204Y0084301D01*
X0221204Y0082903D02*
X0220655Y0082903D01*
X0220655Y0081504D02*
X0221204Y0081504D01*
X0221204Y0080106D02*
X0220655Y0080106D01*
X0220595Y0078707D02*
X0221265Y0078707D01*
X0209380Y0084950D02*
X0209119Y0085212D01*
X0212781Y0085700D02*
X0213330Y0085700D01*
X0213330Y0087098D02*
X0212781Y0087098D01*
X0212781Y0088497D02*
X0213330Y0088497D01*
X0213330Y0089895D02*
X0212781Y0089895D01*
X0212781Y0091294D02*
X0213330Y0091294D01*
X0205456Y0091294D02*
X0204907Y0091294D01*
X0204907Y0089895D02*
X0205456Y0089895D01*
X0205456Y0088497D02*
X0204907Y0088497D01*
X0204907Y0087098D02*
X0205456Y0087098D01*
X0205456Y0085700D02*
X0204907Y0085700D01*
X0197582Y0085700D02*
X0197033Y0085700D01*
X0197033Y0087098D02*
X0197582Y0087098D01*
X0197582Y0088497D02*
X0197033Y0088497D01*
X0197033Y0089895D02*
X0197582Y0089895D01*
X0197582Y0091294D02*
X0197033Y0091294D01*
X0189708Y0091294D02*
X0189559Y0091294D01*
X0189559Y0089895D02*
X0189708Y0089895D01*
X0189708Y0088497D02*
X0189559Y0088497D01*
X0189559Y0087098D02*
X0189708Y0087098D01*
X0189708Y0085700D02*
X0189559Y0085700D01*
X0161980Y0088497D02*
X0160580Y0088497D01*
X0160580Y0089895D02*
X0161980Y0089895D01*
X0162194Y0091294D02*
X0160366Y0091294D01*
X0244277Y0018571D02*
X0270054Y0018571D01*
X0270054Y0017173D02*
X0244277Y0017173D01*
X0244277Y0015774D02*
X0270054Y0015774D01*
X0270054Y0014376D02*
X0244277Y0014376D01*
D17*
X0033680Y0072222D03*
D18*
X0060980Y0081322D03*
X0068680Y0075022D03*
X0085480Y0060322D03*
X0070780Y0059622D03*
X0088980Y0049822D03*
X0081280Y0045622D03*
X0061680Y0038622D03*
X0052580Y0030922D03*
X0069780Y0023822D03*
X0076580Y0027622D03*
X0103680Y0033722D03*
X0112080Y0045622D03*
X0125380Y0046322D03*
X0137280Y0050522D03*
X0123980Y0063122D03*
X0116280Y0068822D03*
X0109980Y0078522D03*
X0098780Y0089722D03*
X0152080Y0073522D03*
X0193280Y0075022D03*
X0209380Y0070822D03*
X0221280Y0074322D03*
X0232480Y0067322D03*
X0193280Y0067322D03*
X0177880Y0044222D03*
X0193980Y0037222D03*
X0136580Y0033722D03*
X0098780Y0054722D03*
M02*
