G75*
%MOIN*%
%OFA0B0*%
%FSLAX25Y25*%
%IPPOS*%
%LPD*%
%AMOC8*
5,1,8,0,0,1.08239X$1,22.5*
%
%ADD10C,0.00700*%
%ADD11C,0.00200*%
%ADD12C,0.00400*%
%ADD13R,0.02953X0.05709*%
%ADD14R,0.05709X0.02953*%
%ADD15C,0.00800*%
%ADD16C,0.00100*%
%ADD17C,0.01000*%
%ADD18C,0.00600*%
%ADD19R,0.01574X0.04528*%
%ADD20R,0.01575X0.04528*%
%ADD21R,0.01575X0.04528*%
%ADD22R,0.04528X0.01574*%
%ADD23R,0.04528X0.01575*%
%ADD24R,0.04528X0.01575*%
%ADD25C,0.00500*%
%ADD26R,0.02000X0.02000*%
%ADD27R,0.05512X0.02559*%
%ADD28R,0.02559X0.05512*%
%ADD29C,0.00300*%
%ADD30R,0.06000X0.06000*%
%ADD31R,0.03600X0.05900*%
%ADD32R,0.04200X0.02400*%
D10*
X0042954Y0017945D02*
X0044297Y0017945D01*
X0043626Y0017945D02*
X0043626Y0021973D01*
X0044297Y0021973D02*
X0042954Y0021973D01*
X0048030Y0021973D02*
X0048030Y0019288D01*
X0049372Y0017945D01*
X0050715Y0019288D01*
X0050715Y0021973D01*
X0054555Y0021302D02*
X0054555Y0018616D01*
X0055226Y0017945D01*
X0056569Y0017945D01*
X0057240Y0018616D01*
X0058905Y0018616D02*
X0059576Y0018616D01*
X0059576Y0017945D01*
X0058905Y0017945D01*
X0058905Y0018616D01*
X0061080Y0018616D02*
X0061751Y0017945D01*
X0063094Y0017945D01*
X0063765Y0018616D01*
X0063765Y0019288D01*
X0063094Y0019959D01*
X0061751Y0019959D01*
X0061080Y0020630D01*
X0061080Y0021302D01*
X0061751Y0021973D01*
X0063094Y0021973D01*
X0063765Y0021302D01*
X0057240Y0021302D02*
X0056569Y0021973D01*
X0055226Y0021973D01*
X0054555Y0021302D01*
X0053051Y0018616D02*
X0053051Y0017945D01*
X0052380Y0017945D01*
X0052380Y0018616D01*
X0053051Y0018616D01*
X0053250Y0015541D02*
X0051907Y0015541D01*
X0051236Y0014869D01*
X0051236Y0012184D01*
X0051907Y0011513D01*
X0053250Y0011513D01*
X0053921Y0012184D01*
X0055586Y0011513D02*
X0056928Y0012855D01*
X0056928Y0014198D01*
X0055586Y0015541D01*
X0053921Y0014869D02*
X0053250Y0015541D01*
X0049678Y0015541D02*
X0048336Y0014198D01*
X0048336Y0012855D01*
X0049678Y0011513D01*
X0046526Y0017945D02*
X0045855Y0017945D01*
X0045855Y0018616D01*
X0046526Y0018616D01*
X0046526Y0017945D01*
X0153430Y0085423D02*
X0154481Y0084372D01*
X0156583Y0084372D01*
X0157634Y0085423D01*
X0157634Y0086474D01*
X0156583Y0087524D01*
X0154481Y0087524D01*
X0153430Y0088575D01*
X0153430Y0089626D01*
X0154481Y0090677D01*
X0156583Y0090677D01*
X0157634Y0089626D01*
X0159876Y0089626D02*
X0160926Y0090677D01*
X0163028Y0090677D01*
X0164079Y0089626D01*
X0164079Y0088575D01*
X0163028Y0087524D01*
X0164079Y0086474D01*
X0164079Y0085423D01*
X0163028Y0084372D01*
X0160926Y0084372D01*
X0159876Y0085423D01*
X0161977Y0087524D02*
X0163028Y0087524D01*
D11*
X0181010Y0077889D02*
X0188750Y0077889D01*
X0188750Y0062354D01*
X0181010Y0062354D01*
X0181010Y0077889D01*
X0140412Y0074576D02*
X0140412Y0066836D01*
X0124877Y0066836D01*
X0124877Y0074576D01*
X0140412Y0074576D01*
X0134519Y0063223D02*
X0126779Y0063223D01*
X0126779Y0047688D01*
X0134519Y0047688D01*
X0134519Y0063223D01*
X0121909Y0062560D02*
X0114169Y0062560D01*
X0114169Y0047025D01*
X0121909Y0047025D01*
X0121909Y0062560D01*
X0145940Y0052588D02*
X0146106Y0052588D01*
X0146774Y0051921D01*
X0146940Y0051921D01*
X0146940Y0052588D01*
X0147440Y0052588D02*
X0148440Y0051921D01*
X0148440Y0052588D02*
X0147440Y0051921D01*
X0147440Y0051088D02*
X0147606Y0051088D01*
X0147940Y0050754D01*
X0148440Y0050754D01*
X0147940Y0050754D02*
X0147606Y0050421D01*
X0147440Y0050421D01*
X0147040Y0050821D02*
X0146040Y0050821D01*
X0146540Y0051321D01*
X0146040Y0050821D02*
X0146540Y0050321D01*
X0145940Y0051921D02*
X0145940Y0052588D01*
X0146440Y0053321D02*
X0146442Y0053341D01*
X0146448Y0053359D01*
X0146457Y0053377D01*
X0146469Y0053392D01*
X0146484Y0053404D01*
X0146502Y0053413D01*
X0146520Y0053419D01*
X0146540Y0053421D01*
X0146560Y0053419D01*
X0146578Y0053413D01*
X0146596Y0053404D01*
X0146611Y0053392D01*
X0146623Y0053377D01*
X0146632Y0053359D01*
X0146638Y0053341D01*
X0146640Y0053321D01*
X0146638Y0053301D01*
X0146632Y0053283D01*
X0146623Y0053265D01*
X0146611Y0053250D01*
X0146596Y0053238D01*
X0146578Y0053229D01*
X0146560Y0053223D01*
X0146540Y0053221D01*
X0146520Y0053223D01*
X0146502Y0053229D01*
X0146484Y0053238D01*
X0146469Y0053250D01*
X0146457Y0053265D01*
X0146448Y0053283D01*
X0146442Y0053301D01*
X0146440Y0053321D01*
X0146040Y0053321D02*
X0146042Y0053365D01*
X0146048Y0053409D01*
X0146058Y0053452D01*
X0146071Y0053494D01*
X0146088Y0053535D01*
X0146109Y0053574D01*
X0146133Y0053611D01*
X0146160Y0053646D01*
X0146190Y0053678D01*
X0146223Y0053708D01*
X0146259Y0053734D01*
X0146296Y0053758D01*
X0146336Y0053777D01*
X0146377Y0053794D01*
X0146420Y0053806D01*
X0146463Y0053815D01*
X0146507Y0053820D01*
X0146551Y0053821D01*
X0146595Y0053818D01*
X0146639Y0053811D01*
X0146682Y0053800D01*
X0146724Y0053786D01*
X0146764Y0053768D01*
X0146803Y0053746D01*
X0146839Y0053722D01*
X0146873Y0053694D01*
X0146905Y0053663D01*
X0146934Y0053629D01*
X0146960Y0053593D01*
X0146982Y0053555D01*
X0147001Y0053515D01*
X0147016Y0053473D01*
X0147028Y0053431D01*
X0147036Y0053387D01*
X0147040Y0053343D01*
X0147040Y0053299D01*
X0147036Y0053255D01*
X0147028Y0053211D01*
X0147016Y0053169D01*
X0147001Y0053127D01*
X0146982Y0053087D01*
X0146960Y0053049D01*
X0146934Y0053013D01*
X0146905Y0052979D01*
X0146873Y0052948D01*
X0146839Y0052920D01*
X0146803Y0052896D01*
X0146764Y0052874D01*
X0146724Y0052856D01*
X0146682Y0052842D01*
X0146639Y0052831D01*
X0146595Y0052824D01*
X0146551Y0052821D01*
X0146507Y0052822D01*
X0146463Y0052827D01*
X0146420Y0052836D01*
X0146377Y0052848D01*
X0146336Y0052865D01*
X0146296Y0052884D01*
X0146259Y0052908D01*
X0146223Y0052934D01*
X0146190Y0052964D01*
X0146160Y0052996D01*
X0146133Y0053031D01*
X0146109Y0053068D01*
X0146088Y0053107D01*
X0146071Y0053148D01*
X0146058Y0053190D01*
X0146048Y0053233D01*
X0146042Y0053277D01*
X0146040Y0053321D01*
X0147540Y0053821D02*
X0148040Y0054321D01*
X0148540Y0053821D01*
X0148040Y0053321D02*
X0148040Y0054321D01*
X0181010Y0061089D02*
X0181010Y0045554D01*
X0188750Y0045554D01*
X0188750Y0061089D01*
X0181010Y0061089D01*
X0181010Y0044289D02*
X0188750Y0044289D01*
X0188750Y0028754D01*
X0181010Y0028754D01*
X0181010Y0044289D01*
X0156769Y0037911D02*
X0156769Y0030170D01*
X0141233Y0030170D01*
X0141233Y0037911D01*
X0156769Y0037911D01*
X0050630Y0047098D02*
X0050630Y0054838D01*
X0035094Y0054838D01*
X0035094Y0047098D01*
X0050630Y0047098D01*
X0050621Y0057317D02*
X0035086Y0057317D01*
X0035086Y0065057D01*
X0050621Y0065057D01*
X0050621Y0057317D01*
X0050621Y0068241D02*
X0035086Y0068241D01*
X0035086Y0075981D01*
X0050621Y0075981D01*
X0050621Y0068241D01*
X0051423Y0078560D02*
X0035888Y0078560D01*
X0035888Y0086300D01*
X0051423Y0086300D01*
X0051423Y0078560D01*
D12*
X0045156Y0079832D02*
X0042254Y0079832D01*
X0041354Y0074710D02*
X0044255Y0074710D01*
X0044354Y0069513D02*
X0041354Y0069513D01*
X0041148Y0066915D02*
X0039613Y0066915D01*
X0038846Y0066148D01*
X0038846Y0063079D01*
X0039613Y0062311D01*
X0041148Y0062311D01*
X0041915Y0063079D01*
X0041354Y0063786D02*
X0044255Y0063786D01*
X0043450Y0063846D02*
X0044217Y0064613D01*
X0045752Y0064613D01*
X0046519Y0063846D01*
X0046519Y0063079D01*
X0045752Y0062311D01*
X0044217Y0062311D01*
X0043450Y0063079D01*
X0043450Y0063846D01*
X0044217Y0064613D02*
X0043450Y0065381D01*
X0043450Y0066148D01*
X0044217Y0066915D01*
X0045752Y0066915D01*
X0046519Y0066148D01*
X0046519Y0065381D01*
X0045752Y0064613D01*
X0041915Y0066148D02*
X0041148Y0066915D01*
X0041354Y0058589D02*
X0044354Y0058589D01*
X0044217Y0055991D02*
X0043450Y0055224D01*
X0043450Y0054457D01*
X0044217Y0053689D01*
X0046519Y0053689D01*
X0046519Y0052155D02*
X0046519Y0055224D01*
X0045752Y0055991D01*
X0044217Y0055991D01*
X0041915Y0055224D02*
X0041148Y0055991D01*
X0039613Y0055991D01*
X0038846Y0055224D01*
X0038846Y0052155D01*
X0039613Y0051387D01*
X0041148Y0051387D01*
X0041915Y0052155D01*
X0041362Y0053566D02*
X0044264Y0053566D01*
X0043450Y0052155D02*
X0044217Y0051387D01*
X0045752Y0051387D01*
X0046519Y0052155D01*
X0044362Y0048370D02*
X0041362Y0048370D01*
X0044225Y0045772D02*
X0043458Y0045005D01*
X0043458Y0041935D01*
X0044225Y0041168D01*
X0045760Y0041168D01*
X0046527Y0041935D01*
X0046527Y0045005D02*
X0045760Y0045772D01*
X0044225Y0045772D01*
X0108235Y0050760D02*
X0109002Y0049993D01*
X0112072Y0049993D01*
X0112839Y0050760D01*
X0112839Y0052295D01*
X0112072Y0053062D01*
X0112839Y0054597D02*
X0112839Y0057666D01*
X0112839Y0056131D02*
X0108235Y0056131D01*
X0109770Y0054597D01*
X0109002Y0053062D02*
X0108235Y0052295D01*
X0108235Y0050760D01*
X0115441Y0053293D02*
X0115441Y0056293D01*
X0120637Y0056293D02*
X0120637Y0053391D01*
X0135845Y0055086D02*
X0140449Y0055086D01*
X0140449Y0053552D02*
X0140449Y0056621D01*
X0137380Y0053552D02*
X0135845Y0055086D01*
X0136613Y0052017D02*
X0138147Y0052017D01*
X0138915Y0051250D01*
X0138915Y0048948D01*
X0140449Y0048948D02*
X0135845Y0048948D01*
X0135845Y0051250D01*
X0136613Y0052017D01*
X0138915Y0050482D02*
X0140449Y0052017D01*
X0133810Y0060906D02*
X0130741Y0060906D01*
X0133810Y0063975D01*
X0133810Y0064743D01*
X0133043Y0065510D01*
X0131508Y0065510D01*
X0130741Y0064743D01*
X0129206Y0064743D02*
X0129206Y0063208D01*
X0128439Y0062441D01*
X0126137Y0062441D01*
X0127671Y0062441D02*
X0129206Y0060906D01*
X0126137Y0060906D02*
X0126137Y0065510D01*
X0128439Y0065510D01*
X0129206Y0064743D01*
X0175076Y0062532D02*
X0175076Y0060230D01*
X0179680Y0060230D01*
X0178145Y0060230D02*
X0178145Y0062532D01*
X0177378Y0063299D01*
X0175843Y0063299D01*
X0175076Y0062532D01*
X0180447Y0064834D02*
X0180447Y0067903D01*
X0179680Y0067822D02*
X0179680Y0070891D01*
X0179680Y0069437D02*
X0175076Y0069437D01*
X0175076Y0071739D01*
X0175843Y0072507D01*
X0177378Y0072507D01*
X0178145Y0071739D01*
X0178145Y0069437D01*
X0177378Y0069356D02*
X0177378Y0067822D01*
X0175076Y0067822D02*
X0179680Y0067822D01*
X0175076Y0067822D02*
X0175076Y0070891D01*
X0178145Y0070972D02*
X0179680Y0072507D01*
X0179680Y0073193D02*
X0178913Y0072426D01*
X0179680Y0073193D02*
X0179680Y0074728D01*
X0178913Y0075495D01*
X0178145Y0075495D01*
X0177378Y0074728D01*
X0177378Y0073193D01*
X0176611Y0072426D01*
X0175843Y0072426D01*
X0175076Y0073193D01*
X0175076Y0074728D01*
X0175843Y0075495D01*
X0176611Y0075576D02*
X0176611Y0076343D01*
X0177378Y0077111D01*
X0178913Y0077111D01*
X0179680Y0076343D01*
X0179680Y0074809D01*
X0178913Y0074041D01*
X0177378Y0074041D02*
X0176611Y0075576D01*
X0178145Y0077030D02*
X0178145Y0079332D01*
X0177378Y0080099D01*
X0175843Y0080099D01*
X0175076Y0079332D01*
X0175076Y0077030D01*
X0179680Y0077030D01*
X0175076Y0077111D02*
X0175076Y0074041D01*
X0177378Y0074041D01*
X0180447Y0081634D02*
X0180447Y0084703D01*
X0179680Y0086237D02*
X0175076Y0086237D01*
X0175076Y0088539D01*
X0175843Y0089307D01*
X0177378Y0089307D01*
X0178145Y0088539D01*
X0178145Y0086237D01*
X0178145Y0087772D02*
X0179680Y0089307D01*
X0177378Y0090841D02*
X0177378Y0093911D01*
X0179680Y0093143D02*
X0175076Y0093143D01*
X0177378Y0090841D01*
X0178145Y0058695D02*
X0178913Y0058695D01*
X0179680Y0057928D01*
X0179680Y0056393D01*
X0178913Y0055626D01*
X0179680Y0054091D02*
X0179680Y0051022D01*
X0175076Y0051022D01*
X0175076Y0054091D01*
X0175843Y0055626D02*
X0176611Y0055626D01*
X0177378Y0056393D01*
X0177378Y0057928D01*
X0178145Y0058695D01*
X0175843Y0058695D02*
X0175076Y0057928D01*
X0175076Y0056393D01*
X0175843Y0055626D01*
X0177378Y0052556D02*
X0177378Y0051022D01*
X0190076Y0037687D02*
X0190843Y0036152D01*
X0192378Y0034618D01*
X0192378Y0036920D01*
X0193145Y0037687D01*
X0193913Y0037687D01*
X0194680Y0036920D01*
X0194680Y0035385D01*
X0193913Y0034618D01*
X0192378Y0034618D01*
X0192378Y0033083D02*
X0190843Y0033083D01*
X0190076Y0032316D01*
X0190076Y0030014D01*
X0194680Y0030014D01*
X0193145Y0030014D02*
X0193145Y0032316D01*
X0192378Y0033083D01*
X0193145Y0031548D02*
X0194680Y0033083D01*
X0195447Y0028479D02*
X0195447Y0025410D01*
X0193145Y0023108D02*
X0193145Y0020806D01*
X0193145Y0019271D02*
X0193913Y0019271D01*
X0194680Y0018504D01*
X0194680Y0016969D01*
X0193913Y0016202D01*
X0194680Y0014667D02*
X0194680Y0011598D01*
X0190076Y0011598D01*
X0190076Y0014667D01*
X0190843Y0016202D02*
X0191611Y0016202D01*
X0192378Y0016969D01*
X0192378Y0018504D01*
X0193145Y0019271D01*
X0194680Y0020806D02*
X0190076Y0020806D01*
X0190076Y0023108D01*
X0190843Y0023875D01*
X0192378Y0023875D01*
X0193145Y0023108D01*
X0190843Y0019271D02*
X0190076Y0018504D01*
X0190076Y0016969D01*
X0190843Y0016202D01*
X0192378Y0013133D02*
X0192378Y0011598D01*
X0150166Y0025008D02*
X0149399Y0024240D01*
X0147864Y0024240D01*
X0147097Y0025008D01*
X0145563Y0024240D02*
X0144028Y0025775D01*
X0144795Y0025775D02*
X0142493Y0025775D01*
X0142493Y0024240D02*
X0142493Y0028844D01*
X0144795Y0028844D01*
X0145563Y0028077D01*
X0145563Y0026542D01*
X0144795Y0025775D01*
X0147097Y0028077D02*
X0147864Y0028844D01*
X0149399Y0028844D01*
X0150166Y0028077D01*
X0150166Y0027310D01*
X0149399Y0026542D01*
X0150166Y0025775D01*
X0150166Y0025008D01*
X0149399Y0026542D02*
X0148632Y0026542D01*
X0045156Y0085028D02*
X0042156Y0085028D01*
X0041925Y0087630D02*
X0041925Y0090699D01*
X0040390Y0092234D01*
X0038856Y0090699D01*
X0038856Y0087630D01*
X0038856Y0089932D02*
X0041925Y0089932D01*
X0043460Y0089165D02*
X0045761Y0089165D01*
X0046529Y0089932D01*
X0046529Y0091467D01*
X0045761Y0092234D01*
X0043460Y0092234D01*
X0043460Y0087630D01*
X0044994Y0089165D02*
X0046529Y0087630D01*
X0048063Y0087630D02*
X0051133Y0087630D01*
X0052667Y0087630D02*
X0052667Y0092234D01*
X0055737Y0092234D01*
X0054202Y0089932D02*
X0052667Y0089932D01*
X0049598Y0089932D02*
X0048063Y0089932D01*
X0048063Y0092234D02*
X0048063Y0087630D01*
X0048063Y0092234D02*
X0051133Y0092234D01*
X0038163Y0095052D02*
X0035094Y0095052D01*
X0035094Y0090449D01*
X0033559Y0091216D02*
X0032792Y0090449D01*
X0031258Y0090449D01*
X0030490Y0091216D01*
X0030490Y0091983D01*
X0031258Y0092751D01*
X0032792Y0092751D01*
X0033559Y0091983D01*
X0033559Y0091216D01*
X0032792Y0092751D02*
X0033559Y0093518D01*
X0033559Y0094285D01*
X0032792Y0095052D01*
X0031258Y0095052D01*
X0030490Y0094285D01*
X0030490Y0093518D01*
X0031258Y0092751D01*
X0028956Y0094285D02*
X0025886Y0091216D01*
X0025886Y0090449D01*
X0024352Y0090449D02*
X0021282Y0090449D01*
X0024352Y0093518D01*
X0024352Y0094285D01*
X0023584Y0095052D01*
X0022050Y0095052D01*
X0021282Y0094285D01*
X0018213Y0095052D02*
X0018213Y0090449D01*
X0016678Y0090449D02*
X0019748Y0090449D01*
X0013609Y0092751D02*
X0012075Y0092751D01*
X0010540Y0092751D02*
X0009773Y0091983D01*
X0007471Y0091983D01*
X0009005Y0091983D02*
X0010540Y0090449D01*
X0012075Y0090449D02*
X0012075Y0095052D01*
X0015144Y0095052D01*
X0016678Y0093518D02*
X0018213Y0095052D01*
X0025886Y0095052D02*
X0028956Y0095052D01*
X0028956Y0094285D01*
X0035094Y0092751D02*
X0036629Y0092751D01*
X0010540Y0092751D02*
X0010540Y0094285D01*
X0009773Y0095052D01*
X0007471Y0095052D01*
X0007471Y0090449D01*
X0005936Y0091216D02*
X0005936Y0094285D01*
X0005169Y0095052D01*
X0002867Y0095052D01*
X0002867Y0090449D01*
X0005169Y0090449D01*
X0005936Y0091216D01*
D13*
X0040832Y0082435D03*
X0046532Y0082435D03*
X0045677Y0072107D03*
X0039977Y0072107D03*
X0039977Y0061183D03*
X0045677Y0061183D03*
X0045685Y0050964D03*
X0039985Y0050964D03*
D14*
X0118035Y0051969D03*
X0118035Y0057669D03*
D15*
X0141635Y0062163D02*
X0144785Y0062163D01*
X0144840Y0063758D02*
X0144842Y0063786D01*
X0144848Y0063813D01*
X0144857Y0063839D01*
X0144870Y0063864D01*
X0144887Y0063887D01*
X0144906Y0063907D01*
X0144928Y0063924D01*
X0144952Y0063938D01*
X0144978Y0063948D01*
X0145005Y0063955D01*
X0145033Y0063958D01*
X0145061Y0063957D01*
X0145088Y0063952D01*
X0145115Y0063943D01*
X0145140Y0063931D01*
X0145163Y0063916D01*
X0145184Y0063897D01*
X0145202Y0063876D01*
X0145217Y0063852D01*
X0145228Y0063826D01*
X0145236Y0063800D01*
X0145240Y0063772D01*
X0145240Y0063744D01*
X0145236Y0063716D01*
X0145228Y0063690D01*
X0145217Y0063664D01*
X0145202Y0063640D01*
X0145184Y0063619D01*
X0145163Y0063600D01*
X0145140Y0063585D01*
X0145115Y0063573D01*
X0145088Y0063564D01*
X0145061Y0063559D01*
X0145033Y0063558D01*
X0145005Y0063561D01*
X0144978Y0063568D01*
X0144952Y0063578D01*
X0144928Y0063592D01*
X0144906Y0063609D01*
X0144887Y0063629D01*
X0144870Y0063652D01*
X0144857Y0063677D01*
X0144848Y0063703D01*
X0144842Y0063730D01*
X0144840Y0063758D01*
X0150296Y0062163D02*
X0153446Y0062163D01*
X0147146Y0056258D02*
X0147148Y0056297D01*
X0147154Y0056336D01*
X0147164Y0056374D01*
X0147177Y0056411D01*
X0147194Y0056446D01*
X0147214Y0056480D01*
X0147238Y0056511D01*
X0147265Y0056540D01*
X0147294Y0056566D01*
X0147326Y0056589D01*
X0147360Y0056609D01*
X0147396Y0056625D01*
X0147433Y0056637D01*
X0147472Y0056646D01*
X0147511Y0056651D01*
X0147550Y0056652D01*
X0147589Y0056649D01*
X0147628Y0056642D01*
X0147665Y0056631D01*
X0147702Y0056617D01*
X0147737Y0056599D01*
X0147770Y0056578D01*
X0147801Y0056553D01*
X0147829Y0056526D01*
X0147854Y0056496D01*
X0147876Y0056463D01*
X0147895Y0056429D01*
X0147910Y0056393D01*
X0147922Y0056355D01*
X0147930Y0056317D01*
X0147934Y0056278D01*
X0147934Y0056238D01*
X0147930Y0056199D01*
X0147922Y0056161D01*
X0147910Y0056123D01*
X0147895Y0056087D01*
X0147876Y0056053D01*
X0147854Y0056020D01*
X0147829Y0055990D01*
X0147801Y0055963D01*
X0147770Y0055938D01*
X0147737Y0055917D01*
X0147702Y0055899D01*
X0147665Y0055885D01*
X0147628Y0055874D01*
X0147589Y0055867D01*
X0147550Y0055864D01*
X0147511Y0055865D01*
X0147472Y0055870D01*
X0147433Y0055879D01*
X0147396Y0055891D01*
X0147360Y0055907D01*
X0147326Y0055927D01*
X0147294Y0055950D01*
X0147265Y0055976D01*
X0147238Y0056005D01*
X0147214Y0056036D01*
X0147194Y0056070D01*
X0147177Y0056105D01*
X0147164Y0056142D01*
X0147154Y0056180D01*
X0147148Y0056219D01*
X0147146Y0056258D01*
X0135124Y0043549D02*
X0133549Y0045123D01*
X0129219Y0045123D01*
X0135124Y0043549D02*
X0135124Y0037249D01*
X0133549Y0035675D01*
X0129219Y0035675D01*
X0121345Y0035675D02*
X0115439Y0035675D01*
X0115439Y0045123D01*
X0121345Y0045123D01*
X0101480Y0041905D02*
X0099905Y0040330D01*
X0065259Y0040330D01*
X0063684Y0041905D01*
X0063684Y0076551D01*
X0065259Y0078125D01*
X0099905Y0078125D01*
X0101480Y0076551D01*
X0101480Y0041905D01*
X0141635Y0042478D02*
X0144785Y0042478D01*
X0150296Y0042478D02*
X0153446Y0042478D01*
X0159517Y0031128D02*
X0176643Y0031128D01*
X0176643Y0076915D01*
X0159517Y0076915D01*
X0159517Y0031128D01*
D16*
X0138990Y0044621D02*
X0138990Y0045121D01*
X0138740Y0045371D01*
X0137489Y0045371D01*
X0137739Y0045844D02*
X0137489Y0046094D01*
X0137489Y0046595D01*
X0137739Y0046845D01*
X0137990Y0046845D01*
X0138990Y0045844D01*
X0138990Y0046845D01*
X0138990Y0044621D02*
X0138740Y0044371D01*
X0137489Y0044371D01*
X0117806Y0046136D02*
X0117555Y0045886D01*
X0117055Y0045886D01*
X0116805Y0046136D01*
X0116332Y0046136D02*
X0116082Y0045886D01*
X0115582Y0045886D01*
X0115332Y0046136D01*
X0115332Y0047137D01*
X0115582Y0047387D01*
X0116082Y0047387D01*
X0116332Y0047137D01*
X0116805Y0047137D02*
X0117055Y0047387D01*
X0117555Y0047387D01*
X0117806Y0047137D01*
X0117806Y0046887D01*
X0117555Y0046637D01*
X0117806Y0046386D01*
X0117806Y0046136D01*
X0117555Y0046637D02*
X0117305Y0046637D01*
D17*
X0065721Y0043480D02*
X0065723Y0043547D01*
X0065729Y0043613D01*
X0065739Y0043679D01*
X0065753Y0043744D01*
X0065770Y0043808D01*
X0065792Y0043871D01*
X0065817Y0043933D01*
X0065846Y0043993D01*
X0065879Y0044051D01*
X0065914Y0044107D01*
X0065954Y0044161D01*
X0065996Y0044212D01*
X0066041Y0044261D01*
X0066089Y0044307D01*
X0066140Y0044350D01*
X0066193Y0044390D01*
X0066249Y0044427D01*
X0066307Y0044460D01*
X0066366Y0044490D01*
X0066427Y0044516D01*
X0066490Y0044539D01*
X0066554Y0044557D01*
X0066619Y0044572D01*
X0066685Y0044583D01*
X0066751Y0044590D01*
X0066817Y0044593D01*
X0066884Y0044592D01*
X0066950Y0044587D01*
X0067016Y0044578D01*
X0067082Y0044565D01*
X0067146Y0044548D01*
X0067209Y0044528D01*
X0067271Y0044503D01*
X0067332Y0044475D01*
X0067391Y0044444D01*
X0067447Y0044409D01*
X0067502Y0044371D01*
X0067554Y0044329D01*
X0067603Y0044284D01*
X0067650Y0044237D01*
X0067694Y0044187D01*
X0067734Y0044134D01*
X0067772Y0044079D01*
X0067806Y0044022D01*
X0067837Y0043963D01*
X0067864Y0043902D01*
X0067887Y0043840D01*
X0067907Y0043776D01*
X0067923Y0043711D01*
X0067935Y0043646D01*
X0067943Y0043580D01*
X0067947Y0043513D01*
X0067947Y0043447D01*
X0067943Y0043380D01*
X0067935Y0043314D01*
X0067923Y0043249D01*
X0067907Y0043184D01*
X0067887Y0043120D01*
X0067864Y0043058D01*
X0067837Y0042997D01*
X0067806Y0042938D01*
X0067772Y0042881D01*
X0067734Y0042826D01*
X0067694Y0042773D01*
X0067650Y0042723D01*
X0067603Y0042676D01*
X0067554Y0042631D01*
X0067502Y0042589D01*
X0067447Y0042551D01*
X0067390Y0042516D01*
X0067332Y0042485D01*
X0067271Y0042457D01*
X0067209Y0042432D01*
X0067146Y0042412D01*
X0067082Y0042395D01*
X0067016Y0042382D01*
X0066950Y0042373D01*
X0066884Y0042368D01*
X0066817Y0042367D01*
X0066751Y0042370D01*
X0066685Y0042377D01*
X0066619Y0042388D01*
X0066554Y0042403D01*
X0066490Y0042421D01*
X0066427Y0042444D01*
X0066366Y0042470D01*
X0066307Y0042500D01*
X0066249Y0042533D01*
X0066193Y0042570D01*
X0066140Y0042610D01*
X0066089Y0042653D01*
X0066041Y0042699D01*
X0065996Y0042748D01*
X0065954Y0042799D01*
X0065914Y0042853D01*
X0065879Y0042909D01*
X0065846Y0042967D01*
X0065817Y0043027D01*
X0065792Y0043089D01*
X0065770Y0043152D01*
X0065753Y0043216D01*
X0065739Y0043281D01*
X0065729Y0043347D01*
X0065723Y0043413D01*
X0065721Y0043480D01*
D18*
X0054782Y0044528D02*
X0054782Y0046663D01*
X0054782Y0045595D02*
X0048377Y0045595D01*
X0048377Y0044528D02*
X0048377Y0046663D01*
X0049444Y0048825D02*
X0053714Y0048825D01*
X0054782Y0049892D01*
X0054782Y0052027D01*
X0053714Y0053095D01*
X0049444Y0053095D02*
X0048377Y0052027D01*
X0048377Y0049892D01*
X0049444Y0048825D01*
X0050512Y0055270D02*
X0048377Y0057405D01*
X0054782Y0057405D01*
X0054782Y0055270D02*
X0054782Y0059541D01*
X0100779Y0084277D02*
X0103279Y0081777D01*
X0108279Y0081777D01*
X0110779Y0084277D01*
X0113279Y0081777D01*
X0118279Y0081777D01*
X0120779Y0084277D01*
X0120779Y0089277D01*
X0118279Y0091777D01*
X0113279Y0091777D01*
X0110779Y0089277D01*
X0110779Y0084277D01*
X0100779Y0084277D02*
X0100779Y0089277D01*
X0103279Y0091777D01*
X0108279Y0091777D01*
X0110779Y0089277D01*
X0121280Y0089422D02*
X0121280Y0084422D01*
X0123780Y0081922D01*
X0128780Y0081922D01*
X0131280Y0084422D01*
X0131280Y0089422D01*
X0128780Y0091922D01*
X0123780Y0091922D01*
X0121280Y0089422D01*
X0131280Y0089422D02*
X0133780Y0091922D01*
X0138780Y0091922D01*
X0141280Y0089422D01*
X0143780Y0091922D01*
X0148780Y0091922D01*
X0151280Y0089422D01*
X0153780Y0091922D01*
X0158780Y0091922D01*
X0161280Y0089422D01*
X0163780Y0091922D01*
X0168780Y0091922D01*
X0171280Y0089422D01*
X0173780Y0091922D01*
X0178780Y0091922D01*
X0181280Y0089422D01*
X0181280Y0084422D01*
X0178780Y0081922D01*
X0173780Y0081922D01*
X0171280Y0084422D01*
X0168780Y0081922D01*
X0163780Y0081922D01*
X0161280Y0084422D01*
X0161280Y0089422D01*
X0171280Y0089422D02*
X0171280Y0084422D01*
X0161280Y0084422D02*
X0158780Y0081922D01*
X0153780Y0081922D01*
X0151280Y0084422D01*
X0148780Y0081922D01*
X0143780Y0081922D01*
X0141280Y0084422D01*
X0138780Y0081922D01*
X0133780Y0081922D01*
X0131280Y0084422D01*
X0141280Y0084422D02*
X0141280Y0089422D01*
X0151280Y0089422D02*
X0151280Y0084422D01*
X0134259Y0073206D02*
X0131030Y0073206D01*
X0131030Y0068206D02*
X0134259Y0068206D01*
X0133149Y0057070D02*
X0133149Y0053841D01*
X0128149Y0053841D02*
X0128149Y0057070D01*
X0147387Y0036540D02*
X0150615Y0036540D01*
X0150615Y0031540D02*
X0147387Y0031540D01*
X0137088Y0026051D02*
X0162288Y0026051D01*
X0162288Y0011051D01*
X0137088Y0011051D01*
X0137088Y0026051D01*
X0141688Y0021551D02*
X0157688Y0021551D01*
X0157688Y0015551D01*
X0141688Y0015551D01*
X0141688Y0021551D01*
X0125406Y0027667D02*
X0125406Y0012667D01*
X0122906Y0010167D01*
X0117906Y0010167D01*
X0115406Y0012667D01*
X0115406Y0027667D01*
X0112906Y0030167D01*
X0107906Y0030167D01*
X0105406Y0027667D01*
X0102906Y0030167D01*
X0097906Y0030167D01*
X0095406Y0027667D01*
X0095406Y0012667D01*
X0097906Y0010167D01*
X0102906Y0010167D01*
X0105406Y0012667D01*
X0105406Y0027667D01*
X0115406Y0027667D02*
X0117906Y0030167D01*
X0122906Y0030167D01*
X0125406Y0027667D01*
X0115406Y0012667D02*
X0112906Y0010167D01*
X0107906Y0010167D01*
X0105406Y0012667D01*
X0182380Y0034908D02*
X0182380Y0038136D01*
X0187380Y0038136D02*
X0187380Y0034908D01*
X0217780Y0042322D02*
X0242980Y0042322D01*
X0242980Y0057322D01*
X0217780Y0057322D01*
X0217780Y0042322D01*
X0222380Y0046822D02*
X0238380Y0046822D01*
X0238380Y0052822D01*
X0222380Y0052822D01*
X0222380Y0046822D01*
X0187380Y0051708D02*
X0187380Y0054936D01*
X0182380Y0054936D02*
X0182380Y0051708D01*
X0182380Y0068508D02*
X0182380Y0071736D01*
X0187380Y0071736D02*
X0187380Y0068508D01*
D19*
X0098330Y0080980D03*
X0082582Y0080980D03*
X0066834Y0080980D03*
X0066834Y0037476D03*
X0082582Y0037476D03*
X0098330Y0037476D03*
D20*
X0095180Y0037476D03*
X0092030Y0037476D03*
X0073134Y0037476D03*
X0069984Y0037476D03*
X0069984Y0080980D03*
X0073134Y0080980D03*
X0092030Y0080980D03*
X0095180Y0080980D03*
D21*
X0088881Y0080980D03*
X0085731Y0080980D03*
X0079433Y0080980D03*
X0076283Y0080980D03*
X0076283Y0037476D03*
X0079433Y0037476D03*
X0085731Y0037476D03*
X0088881Y0037476D03*
D22*
X0104334Y0043480D03*
X0104334Y0059228D03*
X0104334Y0074976D03*
X0060830Y0074976D03*
X0060830Y0059228D03*
X0060830Y0043480D03*
D23*
X0060830Y0046629D03*
X0060830Y0049779D03*
X0104334Y0049779D03*
X0104334Y0046629D03*
X0104334Y0068676D03*
X0104334Y0071826D03*
X0060830Y0071826D03*
X0060830Y0068676D03*
D24*
X0060830Y0065527D03*
X0060830Y0062377D03*
X0060830Y0056078D03*
X0060830Y0052928D03*
X0104334Y0052928D03*
X0104334Y0056078D03*
X0104334Y0062377D03*
X0104334Y0065527D03*
D25*
X0018219Y0010957D02*
X0013219Y0010957D01*
X0013219Y0085957D01*
X0038219Y0085957D01*
X0038219Y0010957D01*
X0033219Y0010957D01*
X0033217Y0011097D01*
X0033211Y0011237D01*
X0033201Y0011377D01*
X0033188Y0011517D01*
X0033170Y0011656D01*
X0033148Y0011795D01*
X0033123Y0011932D01*
X0033094Y0012070D01*
X0033061Y0012206D01*
X0033024Y0012341D01*
X0032983Y0012475D01*
X0032938Y0012608D01*
X0032890Y0012740D01*
X0032838Y0012870D01*
X0032783Y0012999D01*
X0032724Y0013126D01*
X0032661Y0013252D01*
X0032595Y0013376D01*
X0032526Y0013497D01*
X0032453Y0013617D01*
X0032376Y0013735D01*
X0032297Y0013850D01*
X0032214Y0013964D01*
X0032128Y0014074D01*
X0032039Y0014183D01*
X0031947Y0014289D01*
X0031852Y0014392D01*
X0031755Y0014493D01*
X0031654Y0014590D01*
X0031551Y0014685D01*
X0031445Y0014777D01*
X0031336Y0014866D01*
X0031226Y0014952D01*
X0031112Y0015035D01*
X0030997Y0015114D01*
X0030879Y0015191D01*
X0030759Y0015264D01*
X0030638Y0015333D01*
X0030514Y0015399D01*
X0030388Y0015462D01*
X0030261Y0015521D01*
X0030132Y0015576D01*
X0030002Y0015628D01*
X0029870Y0015676D01*
X0029737Y0015721D01*
X0029603Y0015762D01*
X0029468Y0015799D01*
X0029332Y0015832D01*
X0029194Y0015861D01*
X0029057Y0015886D01*
X0028918Y0015908D01*
X0028779Y0015926D01*
X0028639Y0015939D01*
X0028499Y0015949D01*
X0028359Y0015955D01*
X0028219Y0015957D01*
X0023219Y0015957D01*
X0023079Y0015955D01*
X0022939Y0015949D01*
X0022799Y0015939D01*
X0022659Y0015926D01*
X0022520Y0015908D01*
X0022381Y0015886D01*
X0022244Y0015861D01*
X0022106Y0015832D01*
X0021970Y0015799D01*
X0021835Y0015762D01*
X0021701Y0015721D01*
X0021568Y0015676D01*
X0021436Y0015628D01*
X0021306Y0015576D01*
X0021177Y0015521D01*
X0021050Y0015462D01*
X0020924Y0015399D01*
X0020800Y0015333D01*
X0020679Y0015264D01*
X0020559Y0015191D01*
X0020441Y0015114D01*
X0020326Y0015035D01*
X0020212Y0014952D01*
X0020102Y0014866D01*
X0019993Y0014777D01*
X0019887Y0014685D01*
X0019784Y0014590D01*
X0019683Y0014493D01*
X0019586Y0014392D01*
X0019491Y0014289D01*
X0019399Y0014183D01*
X0019310Y0014074D01*
X0019224Y0013964D01*
X0019141Y0013850D01*
X0019062Y0013735D01*
X0018985Y0013617D01*
X0018912Y0013497D01*
X0018843Y0013376D01*
X0018777Y0013252D01*
X0018714Y0013126D01*
X0018655Y0012999D01*
X0018600Y0012870D01*
X0018548Y0012740D01*
X0018500Y0012608D01*
X0018455Y0012475D01*
X0018414Y0012341D01*
X0018377Y0012206D01*
X0018344Y0012070D01*
X0018315Y0011932D01*
X0018290Y0011795D01*
X0018268Y0011656D01*
X0018250Y0011517D01*
X0018237Y0011377D01*
X0018227Y0011237D01*
X0018221Y0011097D01*
X0018219Y0010957D01*
X0094963Y0007420D02*
X0096464Y0007420D01*
X0095714Y0007420D02*
X0095714Y0002917D01*
X0096464Y0002917D02*
X0094963Y0002917D01*
X0098032Y0003667D02*
X0098783Y0002917D01*
X0100284Y0002917D01*
X0101035Y0003667D01*
X0102636Y0003667D02*
X0103387Y0002917D01*
X0104888Y0002917D01*
X0105639Y0003667D01*
X0105639Y0004418D01*
X0104888Y0005169D01*
X0103387Y0005169D01*
X0102636Y0005919D01*
X0102636Y0006670D01*
X0103387Y0007420D01*
X0104888Y0007420D01*
X0105639Y0006670D01*
X0107240Y0007420D02*
X0109492Y0007420D01*
X0110243Y0006670D01*
X0110243Y0005169D01*
X0109492Y0004418D01*
X0107240Y0004418D01*
X0107240Y0002917D02*
X0107240Y0007420D01*
X0111844Y0005169D02*
X0114096Y0005169D01*
X0114847Y0004418D01*
X0114847Y0003667D01*
X0114096Y0002917D01*
X0112595Y0002917D01*
X0111844Y0003667D01*
X0111844Y0005169D01*
X0113345Y0006670D01*
X0114847Y0007420D01*
X0116448Y0005169D02*
X0118700Y0007420D01*
X0118700Y0002917D01*
X0119451Y0005169D02*
X0116448Y0005169D01*
X0121052Y0005169D02*
X0124055Y0005169D01*
X0123304Y0007420D02*
X0121052Y0005169D01*
X0123304Y0002917D02*
X0123304Y0007420D01*
X0101035Y0006670D02*
X0100284Y0007420D01*
X0098783Y0007420D01*
X0098032Y0006670D01*
X0098032Y0003667D01*
X0137438Y0028552D02*
X0138189Y0027801D01*
X0139690Y0027801D01*
X0140441Y0028552D01*
X0140441Y0029302D01*
X0139690Y0030053D01*
X0138189Y0030053D01*
X0137438Y0030803D01*
X0137438Y0031554D01*
X0138189Y0032305D01*
X0139690Y0032305D01*
X0140441Y0031554D01*
X0142042Y0030803D02*
X0143543Y0032305D01*
X0143543Y0027801D01*
X0142042Y0027801D02*
X0145044Y0027801D01*
X0141635Y0042478D02*
X0153446Y0042478D01*
X0153446Y0062163D01*
X0141635Y0062163D01*
X0141635Y0042478D01*
X0150353Y0074972D02*
X0151854Y0074972D01*
X0152605Y0075722D01*
X0152605Y0079476D01*
X0154206Y0079476D02*
X0156458Y0079476D01*
X0157209Y0078725D01*
X0157209Y0077224D01*
X0156458Y0076473D01*
X0154206Y0076473D01*
X0154206Y0074972D02*
X0154206Y0079476D01*
X0149602Y0079476D02*
X0149602Y0075722D01*
X0150353Y0074972D01*
X0158810Y0074972D02*
X0161813Y0074972D01*
X0163414Y0075722D02*
X0164165Y0074972D01*
X0165666Y0074972D01*
X0166417Y0075722D01*
X0166417Y0078725D01*
X0165666Y0079476D01*
X0164165Y0079476D01*
X0163414Y0078725D01*
X0163414Y0075722D01*
X0168018Y0074972D02*
X0168018Y0077974D01*
X0169519Y0079476D01*
X0171021Y0077974D01*
X0171021Y0074972D01*
X0172622Y0074972D02*
X0174874Y0074972D01*
X0175625Y0075722D01*
X0175625Y0078725D01*
X0174874Y0079476D01*
X0172622Y0079476D01*
X0172622Y0074972D01*
X0171021Y0077224D02*
X0168018Y0077224D01*
X0158810Y0079476D02*
X0158810Y0074972D01*
X0177226Y0074972D02*
X0180229Y0077974D01*
X0180229Y0078725D01*
X0179478Y0079476D01*
X0177977Y0079476D01*
X0177226Y0078725D01*
X0177226Y0074972D02*
X0180229Y0074972D01*
X0112940Y0094227D02*
X0109937Y0094227D01*
X0111438Y0094227D02*
X0111438Y0098731D01*
X0109937Y0097229D01*
X0108336Y0096479D02*
X0107585Y0095728D01*
X0105333Y0095728D01*
X0105333Y0094227D02*
X0105333Y0098731D01*
X0107585Y0098731D01*
X0108336Y0097980D01*
X0108336Y0096479D01*
X0103732Y0098731D02*
X0102231Y0098731D01*
X0102981Y0098731D02*
X0102981Y0094978D01*
X0102231Y0094227D01*
X0101480Y0094227D01*
X0100729Y0094978D01*
X0233922Y0039825D02*
X0234673Y0040576D01*
X0236174Y0040576D01*
X0236925Y0039825D01*
X0238526Y0039825D02*
X0239277Y0040576D01*
X0240778Y0040576D01*
X0241529Y0039825D01*
X0241529Y0039074D01*
X0238526Y0036072D01*
X0241529Y0036072D01*
X0236925Y0036822D02*
X0236925Y0037573D01*
X0236174Y0038324D01*
X0234673Y0038324D01*
X0233922Y0039074D01*
X0233922Y0039825D01*
X0233922Y0036822D02*
X0234673Y0036072D01*
X0236174Y0036072D01*
X0236925Y0036822D01*
D26*
X0120406Y0025167D03*
X0110406Y0025167D03*
X0100406Y0025167D03*
X0100406Y0015167D03*
X0110406Y0015167D03*
X0120406Y0015167D03*
X0115779Y0086777D03*
X0105779Y0086777D03*
X0126280Y0086922D03*
X0136280Y0086922D03*
X0146280Y0086922D03*
X0156280Y0086922D03*
X0166280Y0086922D03*
X0176280Y0086922D03*
D27*
X0184874Y0073001D03*
X0184874Y0067201D03*
X0184874Y0056201D03*
X0184874Y0050401D03*
X0184886Y0039442D03*
X0184886Y0033642D03*
X0130655Y0052576D03*
X0130655Y0058376D03*
D28*
X0129765Y0070700D03*
X0135565Y0070700D03*
X0146122Y0034035D03*
X0151922Y0034035D03*
D29*
X0148538Y0017987D02*
X0148538Y0015518D01*
X0148538Y0016752D02*
X0144835Y0016752D01*
X0146069Y0015518D01*
X0231527Y0050706D02*
X0232761Y0049472D01*
X0231527Y0050706D02*
X0235230Y0050706D01*
X0235230Y0049472D02*
X0235230Y0051941D01*
D30*
X0225380Y0049822D03*
X0154688Y0018551D03*
D31*
X0164088Y0018601D03*
X0135288Y0018501D03*
X0215980Y0049772D03*
X0244780Y0049872D03*
D32*
X0248680Y0049822D03*
X0212080Y0049822D03*
X0167988Y0018551D03*
X0131388Y0018551D03*
M02*
