G75*
%MOIN*%
%OFA0B0*%
%FSLAX25Y25*%
%IPPOS*%
%LPD*%
%AMOC8*
5,1,8,0,0,1.08239X$1,22.5*
%
%ADD10C,0.00000*%
%ADD11R,0.23622X0.13780*%
%ADD12R,0.05118X0.05906*%
%ADD13R,0.05906X0.05118*%
%ADD14R,0.05512X0.06299*%
%ADD15R,0.01969X0.05906*%
%ADD16R,0.05906X0.01969*%
%ADD17OC8,0.06000*%
%ADD18R,0.04424X0.01969*%
%ADD19R,0.01969X0.04424*%
%ADD20C,0.04756*%
%ADD21C,0.06000*%
%ADD22R,0.07900X0.04300*%
%ADD23C,0.07400*%
%ADD24C,0.01400*%
%ADD25C,0.02800*%
%ADD26C,0.03100*%
%ADD27C,0.01200*%
%ADD28C,0.01600*%
D10*
X0014912Y0005985D02*
X0014912Y0102441D01*
X0274754Y0102441D01*
X0274754Y0005985D01*
X0014912Y0005985D01*
D11*
X0053210Y0016232D03*
D12*
X0046602Y0050968D03*
X0039122Y0050968D03*
X0039114Y0061187D03*
X0046594Y0061187D03*
X0046594Y0072111D03*
X0039114Y0072111D03*
X0039915Y0082430D03*
X0047396Y0082430D03*
X0128904Y0070706D03*
X0136385Y0070706D03*
X0145261Y0034040D03*
X0152741Y0034040D03*
D13*
X0184880Y0032782D03*
X0184880Y0040262D03*
X0184880Y0049582D03*
X0184880Y0057062D03*
X0184880Y0066382D03*
X0184880Y0073862D03*
X0130649Y0059196D03*
X0118039Y0058533D03*
X0130649Y0051715D03*
X0118039Y0051052D03*
D14*
X0119770Y0040399D03*
X0130793Y0040399D03*
D15*
X0098330Y0036393D03*
X0095180Y0036393D03*
X0092031Y0036393D03*
X0088881Y0036393D03*
X0085732Y0036393D03*
X0082582Y0036393D03*
X0079432Y0036393D03*
X0076283Y0036393D03*
X0073133Y0036393D03*
X0069984Y0036393D03*
X0066834Y0036393D03*
X0066834Y0082062D03*
X0069984Y0082062D03*
X0073133Y0082062D03*
X0076283Y0082062D03*
X0079432Y0082062D03*
X0082582Y0082062D03*
X0085732Y0082062D03*
X0088881Y0082062D03*
X0092031Y0082062D03*
X0095180Y0082062D03*
X0098330Y0082062D03*
D16*
X0105417Y0074976D03*
X0105417Y0071826D03*
X0105417Y0068677D03*
X0105417Y0065527D03*
X0105417Y0062377D03*
X0105417Y0059228D03*
X0105417Y0056078D03*
X0105417Y0052929D03*
X0105417Y0049779D03*
X0105417Y0046629D03*
X0105417Y0043480D03*
X0059747Y0043480D03*
X0059747Y0046629D03*
X0059747Y0049779D03*
X0059747Y0052929D03*
X0059747Y0056078D03*
X0059747Y0059228D03*
X0059747Y0062377D03*
X0059747Y0065527D03*
X0059747Y0068677D03*
X0059747Y0071826D03*
X0059747Y0074976D03*
D17*
X0100406Y0025167D03*
X0110406Y0025167D03*
X0120406Y0025167D03*
X0120406Y0015167D03*
X0110406Y0015167D03*
X0100406Y0015167D03*
D18*
X0143060Y0044447D03*
X0143060Y0047596D03*
X0143060Y0050746D03*
X0143060Y0053895D03*
X0143060Y0057045D03*
X0143060Y0060195D03*
X0152021Y0060195D03*
X0152021Y0057045D03*
X0152021Y0053895D03*
X0152021Y0050746D03*
X0152021Y0047596D03*
X0151991Y0044447D03*
D19*
X0147540Y0044053D03*
X0147540Y0060588D03*
D20*
X0028471Y0060957D02*
X0023715Y0060957D01*
X0023715Y0055957D02*
X0028471Y0055957D01*
X0028471Y0050957D02*
X0023715Y0050957D01*
X0023715Y0045957D02*
X0028471Y0045957D01*
X0028471Y0040957D02*
X0023715Y0040957D01*
X0023715Y0035957D02*
X0028471Y0035957D01*
X0028471Y0030957D02*
X0023715Y0030957D01*
X0023715Y0025957D02*
X0028471Y0025957D01*
X0028471Y0020957D02*
X0023715Y0020957D01*
X0023715Y0065957D02*
X0028471Y0065957D01*
X0028471Y0070957D02*
X0023715Y0070957D01*
X0023715Y0075957D02*
X0028471Y0075957D01*
X0028471Y0080957D02*
X0023715Y0080957D01*
D21*
X0105779Y0083777D02*
X0105779Y0089777D01*
X0115779Y0089777D02*
X0115779Y0083777D01*
X0126280Y0083922D02*
X0126280Y0089922D01*
X0136280Y0089922D02*
X0136280Y0083922D01*
X0146280Y0083922D02*
X0146280Y0089922D01*
X0156280Y0089922D02*
X0156280Y0083922D01*
X0166280Y0083922D02*
X0166280Y0089922D01*
X0176280Y0089922D02*
X0176280Y0083922D01*
D22*
X0212680Y0049822D03*
X0248080Y0049822D03*
X0167388Y0018551D03*
X0131988Y0018551D03*
D23*
X0168080Y0044022D03*
X0168080Y0054022D03*
X0168080Y0064022D03*
D24*
X0171380Y0064022D01*
X0177880Y0057522D01*
X0177880Y0044222D01*
X0175880Y0046252D02*
X0175464Y0045836D01*
X0175030Y0044789D01*
X0175030Y0043655D01*
X0175464Y0042607D01*
X0176266Y0041806D01*
X0177313Y0041372D01*
X0178447Y0041372D01*
X0179494Y0041806D01*
X0180296Y0042607D01*
X0180730Y0043655D01*
X0180730Y0044789D01*
X0180296Y0045836D01*
X0179880Y0046252D01*
X0179880Y0058350D01*
X0173380Y0064850D01*
X0172985Y0065245D01*
X0172319Y0066854D01*
X0170912Y0068261D01*
X0169075Y0069022D01*
X0167085Y0069022D01*
X0165248Y0068261D01*
X0163841Y0066854D01*
X0163080Y0065016D01*
X0163080Y0063027D01*
X0163841Y0061189D01*
X0165248Y0059783D01*
X0167085Y0059022D01*
X0169075Y0059022D01*
X0170912Y0059783D01*
X0171851Y0060722D01*
X0175880Y0056693D01*
X0175880Y0046252D01*
X0175880Y0046542D02*
X0172857Y0046542D01*
X0172698Y0046852D02*
X0172199Y0047540D01*
X0171598Y0048141D01*
X0170910Y0048640D01*
X0170153Y0049026D01*
X0169555Y0049221D01*
X0170912Y0049783D01*
X0172319Y0051189D01*
X0173080Y0053027D01*
X0173080Y0055016D01*
X0172319Y0056854D01*
X0170912Y0058261D01*
X0169075Y0059022D01*
X0167085Y0059022D01*
X0165248Y0058261D01*
X0163841Y0056854D01*
X0163080Y0055016D01*
X0163080Y0053027D01*
X0163841Y0051189D01*
X0165248Y0049783D01*
X0166606Y0049221D01*
X0166007Y0049026D01*
X0165250Y0048640D01*
X0164562Y0048141D01*
X0163961Y0047540D01*
X0163462Y0046852D01*
X0163076Y0046095D01*
X0162813Y0045286D01*
X0162680Y0044447D01*
X0162680Y0044322D01*
X0167780Y0044322D01*
X0167780Y0043722D01*
X0162680Y0043722D01*
X0162680Y0043597D01*
X0162813Y0042757D01*
X0163076Y0041949D01*
X0163462Y0041192D01*
X0163961Y0040504D01*
X0164562Y0039903D01*
X0165250Y0039403D01*
X0166007Y0039017D01*
X0166816Y0038755D01*
X0167655Y0038622D01*
X0167780Y0038622D01*
X0167780Y0043722D01*
X0168380Y0043722D01*
X0168380Y0044322D01*
X0173480Y0044322D01*
X0173480Y0044447D01*
X0173347Y0045286D01*
X0173084Y0046095D01*
X0172698Y0046852D01*
X0171798Y0047940D02*
X0175880Y0047940D01*
X0179880Y0047940D02*
X0180627Y0047940D01*
X0180627Y0046542D02*
X0179880Y0046542D01*
X0180627Y0046484D02*
X0181389Y0045723D01*
X0182880Y0045723D01*
X0182880Y0044121D01*
X0181389Y0044121D01*
X0180627Y0043359D01*
X0180627Y0041397D01*
X0180552Y0041322D01*
X0176352Y0041322D01*
X0175180Y0040150D01*
X0170052Y0035022D01*
X0166426Y0035022D01*
X0160126Y0041322D01*
X0150008Y0041322D01*
X0149825Y0041505D01*
X0149825Y0042162D01*
X0154742Y0042162D01*
X0155503Y0042924D01*
X0155503Y0045969D01*
X0155466Y0046006D01*
X0155533Y0046073D01*
X0155533Y0049119D01*
X0155481Y0049171D01*
X0155533Y0049223D01*
X0155533Y0052269D01*
X0155481Y0052321D01*
X0155533Y0052373D01*
X0155533Y0054957D01*
X0155594Y0055017D01*
X0155818Y0055405D01*
X0155933Y0055837D01*
X0155933Y0057045D01*
X0152021Y0057045D01*
X0148109Y0057045D01*
X0148109Y0055837D01*
X0148225Y0055405D01*
X0148449Y0055017D01*
X0148509Y0054957D01*
X0148509Y0052373D01*
X0148561Y0052321D01*
X0148509Y0052269D01*
X0148509Y0049223D01*
X0148561Y0049171D01*
X0148509Y0049119D01*
X0148509Y0047565D01*
X0146972Y0047565D01*
X0146972Y0047596D01*
X0143060Y0047596D01*
X0143060Y0047596D01*
X0146972Y0047596D01*
X0146972Y0048804D01*
X0146874Y0049171D01*
X0146972Y0049538D01*
X0146972Y0050746D01*
X0146972Y0051954D01*
X0146856Y0052386D01*
X0146632Y0052774D01*
X0146572Y0052834D01*
X0146572Y0054957D01*
X0146632Y0055017D01*
X0146856Y0055405D01*
X0146972Y0055837D01*
X0146972Y0057045D01*
X0143060Y0057045D01*
X0143060Y0057045D01*
X0146972Y0057045D01*
X0146972Y0057076D01*
X0148109Y0057076D01*
X0148109Y0057045D01*
X0152021Y0057045D01*
X0152021Y0057045D01*
X0155933Y0057045D01*
X0155933Y0058253D01*
X0155818Y0058685D01*
X0155594Y0059073D01*
X0155533Y0059133D01*
X0155533Y0061717D01*
X0154772Y0062479D01*
X0153980Y0062479D01*
X0153980Y0066050D01*
X0152808Y0067222D01*
X0147324Y0072706D01*
X0140244Y0072706D01*
X0140244Y0074197D01*
X0139482Y0074959D01*
X0137871Y0074959D01*
X0137208Y0075622D01*
X0136308Y0076522D01*
X0166008Y0076522D01*
X0166280Y0076793D01*
X0168652Y0074422D01*
X0177308Y0074422D01*
X0185008Y0082122D01*
X0210652Y0082122D01*
X0218430Y0074343D01*
X0218430Y0073755D01*
X0218864Y0072707D01*
X0219666Y0071906D01*
X0220713Y0071472D01*
X0221847Y0071472D01*
X0222894Y0071906D01*
X0223696Y0072707D01*
X0224130Y0073755D01*
X0224130Y0074889D01*
X0223696Y0075936D01*
X0222894Y0076738D01*
X0221847Y0077172D01*
X0221258Y0077172D01*
X0212308Y0086122D01*
X0183352Y0086122D01*
X0182180Y0084950D01*
X0180580Y0083350D01*
X0180580Y0090777D01*
X0179925Y0092358D01*
X0179661Y0092622D01*
X0230480Y0092622D01*
X0230480Y0069352D01*
X0230064Y0068936D01*
X0229630Y0067889D01*
X0229630Y0066755D01*
X0230064Y0065707D01*
X0230866Y0064906D01*
X0231913Y0064472D01*
X0233047Y0064472D01*
X0234094Y0064906D01*
X0234896Y0065707D01*
X0235330Y0066755D01*
X0235330Y0067889D01*
X0234896Y0068936D01*
X0234480Y0069352D01*
X0234480Y0094750D01*
X0233308Y0095922D01*
X0232608Y0096622D01*
X0158852Y0096622D01*
X0157680Y0095450D01*
X0156452Y0094222D01*
X0155425Y0094222D01*
X0153844Y0093567D01*
X0152635Y0092358D01*
X0151980Y0090777D01*
X0151980Y0083066D01*
X0152635Y0081486D01*
X0153599Y0080522D01*
X0148961Y0080522D01*
X0149925Y0081486D01*
X0150580Y0083066D01*
X0150580Y0090777D01*
X0149925Y0092358D01*
X0148716Y0093567D01*
X0147135Y0094222D01*
X0145425Y0094222D01*
X0143844Y0093567D01*
X0142635Y0092358D01*
X0141980Y0090777D01*
X0141980Y0083066D01*
X0142635Y0081486D01*
X0143599Y0080522D01*
X0138961Y0080522D01*
X0139925Y0081486D01*
X0140580Y0083066D01*
X0140580Y0090777D01*
X0139925Y0092358D01*
X0138716Y0093567D01*
X0137135Y0094222D01*
X0135425Y0094222D01*
X0133844Y0093567D01*
X0132635Y0092358D01*
X0131980Y0090777D01*
X0131980Y0083066D01*
X0132635Y0081486D01*
X0133599Y0080522D01*
X0129527Y0080522D01*
X0129865Y0080860D01*
X0130300Y0081458D01*
X0130636Y0082118D01*
X0130864Y0082821D01*
X0130980Y0083552D01*
X0130980Y0086622D01*
X0126580Y0086622D01*
X0126580Y0087222D01*
X0125980Y0087222D01*
X0125980Y0094622D01*
X0125910Y0094622D01*
X0125179Y0094506D01*
X0124476Y0094277D01*
X0123817Y0093942D01*
X0123218Y0093507D01*
X0122695Y0092984D01*
X0122260Y0092385D01*
X0121924Y0091726D01*
X0121696Y0091022D01*
X0121580Y0090292D01*
X0121580Y0087222D01*
X0125980Y0087222D01*
X0125980Y0086622D01*
X0121580Y0086622D01*
X0121580Y0083552D01*
X0121696Y0082821D01*
X0121924Y0082118D01*
X0122260Y0081458D01*
X0122695Y0080860D01*
X0123033Y0080522D01*
X0119171Y0080522D01*
X0119364Y0080715D01*
X0119799Y0081314D01*
X0120135Y0081973D01*
X0120363Y0082676D01*
X0120479Y0083407D01*
X0120479Y0086477D01*
X0116079Y0086477D01*
X0116079Y0087077D01*
X0115479Y0087077D01*
X0115479Y0086477D01*
X0111079Y0086477D01*
X0111079Y0083407D01*
X0111195Y0082676D01*
X0111424Y0081973D01*
X0111759Y0081314D01*
X0112194Y0080715D01*
X0112388Y0080522D01*
X0112011Y0080522D01*
X0111594Y0080938D01*
X0110547Y0081372D01*
X0109437Y0081372D01*
X0110079Y0082922D01*
X0110079Y0090632D01*
X0109425Y0092213D01*
X0108215Y0093422D01*
X0106635Y0094077D01*
X0104924Y0094077D01*
X0103343Y0093422D01*
X0102134Y0092213D01*
X0101483Y0090642D01*
X0101196Y0091336D01*
X0100394Y0092138D01*
X0099347Y0092572D01*
X0098213Y0092572D01*
X0097166Y0092138D01*
X0096364Y0091336D01*
X0095930Y0090289D01*
X0095930Y0089155D01*
X0096330Y0088189D01*
X0096330Y0086315D01*
X0093658Y0086315D01*
X0093606Y0086263D01*
X0093554Y0086315D01*
X0090508Y0086315D01*
X0090456Y0086263D01*
X0090404Y0086315D01*
X0087358Y0086315D01*
X0087306Y0086263D01*
X0087254Y0086315D01*
X0084670Y0086315D01*
X0084610Y0086376D01*
X0084222Y0086599D01*
X0083790Y0086715D01*
X0082582Y0086715D01*
X0081374Y0086715D01*
X0080942Y0086599D01*
X0080554Y0086376D01*
X0080494Y0086315D01*
X0077910Y0086315D01*
X0077858Y0086263D01*
X0077806Y0086315D01*
X0074760Y0086315D01*
X0074708Y0086263D01*
X0074656Y0086315D01*
X0071610Y0086315D01*
X0071558Y0086263D01*
X0071506Y0086315D01*
X0068461Y0086315D01*
X0068409Y0086263D01*
X0068357Y0086315D01*
X0065311Y0086315D01*
X0064550Y0085554D01*
X0064550Y0078571D01*
X0065311Y0077810D01*
X0067963Y0077810D01*
X0067066Y0077438D01*
X0066264Y0076636D01*
X0065830Y0075589D01*
X0065830Y0074455D01*
X0066264Y0073407D01*
X0067066Y0072606D01*
X0068113Y0072172D01*
X0069247Y0072172D01*
X0070294Y0072606D01*
X0070711Y0073022D01*
X0079308Y0073022D01*
X0080261Y0073974D01*
X0081432Y0075146D01*
X0081432Y0077410D01*
X0082582Y0077410D01*
X0083732Y0077410D01*
X0083732Y0075342D01*
X0084903Y0074170D01*
X0087452Y0071622D01*
X0093980Y0071622D01*
X0093980Y0069977D01*
X0070607Y0069977D01*
X0065052Y0064422D01*
X0064000Y0064422D01*
X0064000Y0067050D01*
X0063948Y0067102D01*
X0064000Y0067154D01*
X0064000Y0070199D01*
X0063948Y0070251D01*
X0064000Y0070303D01*
X0064000Y0073349D01*
X0063948Y0073401D01*
X0064000Y0073453D01*
X0064000Y0076499D01*
X0063239Y0077260D01*
X0056256Y0077260D01*
X0055495Y0076499D01*
X0055495Y0073453D01*
X0055547Y0073401D01*
X0055495Y0073349D01*
X0055495Y0070303D01*
X0055547Y0070251D01*
X0055495Y0070199D01*
X0055495Y0067154D01*
X0055547Y0067102D01*
X0055495Y0067050D01*
X0055495Y0065836D01*
X0053880Y0067450D01*
X0052708Y0068622D01*
X0050769Y0068622D01*
X0050853Y0068935D01*
X0050853Y0071532D01*
X0047174Y0071532D01*
X0047174Y0072691D01*
X0050853Y0072691D01*
X0050853Y0075288D01*
X0050737Y0075720D01*
X0050513Y0076108D01*
X0050197Y0076424D01*
X0049809Y0076648D01*
X0049377Y0076764D01*
X0047173Y0076764D01*
X0047173Y0072691D01*
X0046014Y0072691D01*
X0046014Y0076764D01*
X0043811Y0076764D01*
X0043379Y0076648D01*
X0042991Y0076424D01*
X0042675Y0076108D01*
X0042599Y0075976D01*
X0042211Y0076364D01*
X0036016Y0076364D01*
X0035255Y0075602D01*
X0035255Y0068620D01*
X0036016Y0067859D01*
X0037114Y0067859D01*
X0037114Y0065440D01*
X0036016Y0065440D01*
X0035255Y0064678D01*
X0035255Y0057696D01*
X0036016Y0056934D01*
X0037122Y0056934D01*
X0037122Y0055221D01*
X0036024Y0055221D01*
X0035263Y0054459D01*
X0035263Y0049937D01*
X0033283Y0047957D01*
X0031623Y0047957D01*
X0031589Y0048041D01*
X0031172Y0048457D01*
X0031589Y0048874D01*
X0032149Y0050226D01*
X0032149Y0051689D01*
X0031589Y0053041D01*
X0031172Y0053457D01*
X0031589Y0053874D01*
X0032149Y0055226D01*
X0032149Y0056689D01*
X0031589Y0058041D01*
X0031172Y0058457D01*
X0031589Y0058874D01*
X0032149Y0060226D01*
X0032149Y0061689D01*
X0031589Y0063041D01*
X0031172Y0063457D01*
X0031589Y0063874D01*
X0032149Y0065226D01*
X0032149Y0066689D01*
X0031589Y0068041D01*
X0031172Y0068457D01*
X0031589Y0068874D01*
X0032149Y0070226D01*
X0032149Y0071689D01*
X0031589Y0073041D01*
X0031172Y0073457D01*
X0031589Y0073874D01*
X0032149Y0075226D01*
X0032149Y0076689D01*
X0031589Y0078041D01*
X0031172Y0078457D01*
X0031589Y0078874D01*
X0032149Y0080226D01*
X0032149Y0081689D01*
X0031589Y0083041D01*
X0030554Y0084075D01*
X0029202Y0084635D01*
X0022983Y0084635D01*
X0021631Y0084075D01*
X0020597Y0083041D01*
X0020037Y0081689D01*
X0020037Y0080226D01*
X0020597Y0078874D01*
X0021013Y0078457D01*
X0020597Y0078041D01*
X0020037Y0076689D01*
X0020037Y0075226D01*
X0020597Y0073874D01*
X0021013Y0073457D01*
X0020597Y0073041D01*
X0020037Y0071689D01*
X0020037Y0070226D01*
X0020597Y0068874D01*
X0021013Y0068457D01*
X0020597Y0068041D01*
X0020037Y0066689D01*
X0020037Y0065226D01*
X0020597Y0063874D01*
X0021013Y0063457D01*
X0020597Y0063041D01*
X0020037Y0061689D01*
X0020037Y0060226D01*
X0020597Y0058874D01*
X0021013Y0058457D01*
X0020597Y0058041D01*
X0020037Y0056689D01*
X0020037Y0055226D01*
X0020597Y0053874D01*
X0021013Y0053457D01*
X0020597Y0053041D01*
X0020037Y0051689D01*
X0020037Y0050226D01*
X0020597Y0048874D01*
X0021013Y0048457D01*
X0020597Y0048041D01*
X0020037Y0046689D01*
X0020037Y0045226D01*
X0020597Y0043874D01*
X0020730Y0043740D01*
X0020604Y0043614D01*
X0020227Y0043095D01*
X0019935Y0042523D01*
X0019737Y0041912D01*
X0019637Y0041278D01*
X0019637Y0040957D01*
X0019637Y0040636D01*
X0019737Y0040002D01*
X0019935Y0039392D01*
X0020227Y0038820D01*
X0020604Y0038301D01*
X0020730Y0038174D01*
X0020597Y0038041D01*
X0020037Y0036689D01*
X0020037Y0035226D01*
X0020597Y0033874D01*
X0021013Y0033457D01*
X0020597Y0033041D01*
X0020037Y0031689D01*
X0020037Y0030226D01*
X0020597Y0028874D01*
X0021013Y0028457D01*
X0020597Y0028041D01*
X0020037Y0026689D01*
X0020037Y0025226D01*
X0020597Y0023874D01*
X0021013Y0023457D01*
X0020597Y0023041D01*
X0020037Y0021689D01*
X0020037Y0020226D01*
X0020597Y0018874D01*
X0021631Y0017839D01*
X0022983Y0017279D01*
X0029202Y0017279D01*
X0030554Y0017839D01*
X0031589Y0018874D01*
X0031623Y0018957D01*
X0033644Y0018957D01*
X0054808Y0040122D01*
X0055980Y0041293D01*
X0055980Y0041472D01*
X0056256Y0041195D01*
X0060446Y0041195D01*
X0060066Y0041038D01*
X0059264Y0040236D01*
X0058830Y0039189D01*
X0058830Y0038600D01*
X0053751Y0033521D01*
X0053147Y0033772D01*
X0052013Y0033772D01*
X0050966Y0033338D01*
X0050164Y0032536D01*
X0049730Y0031489D01*
X0049730Y0030355D01*
X0050164Y0029307D01*
X0050966Y0028506D01*
X0052013Y0028072D01*
X0053147Y0028072D01*
X0054194Y0028506D01*
X0054611Y0028922D01*
X0054808Y0028922D01*
X0061658Y0035772D01*
X0062247Y0035772D01*
X0063294Y0036206D01*
X0064096Y0037007D01*
X0064530Y0038055D01*
X0064530Y0039189D01*
X0064096Y0040236D01*
X0063294Y0041038D01*
X0062914Y0041195D01*
X0063239Y0041195D01*
X0064000Y0041957D01*
X0064000Y0045002D01*
X0063948Y0045055D01*
X0064000Y0045107D01*
X0064000Y0047822D01*
X0067708Y0047822D01*
X0071608Y0051722D01*
X0072780Y0052893D01*
X0072780Y0057591D01*
X0073196Y0058007D01*
X0073630Y0059055D01*
X0073630Y0060189D01*
X0073196Y0061236D01*
X0072394Y0062038D01*
X0071347Y0062472D01*
X0070213Y0062472D01*
X0069166Y0062038D01*
X0068364Y0061236D01*
X0067930Y0060189D01*
X0067930Y0059055D01*
X0068364Y0058007D01*
X0068780Y0057591D01*
X0068780Y0054550D01*
X0066052Y0051822D01*
X0064000Y0051822D01*
X0064000Y0054451D01*
X0063948Y0054503D01*
X0064000Y0054555D01*
X0064000Y0057139D01*
X0064060Y0057200D01*
X0064284Y0057587D01*
X0064400Y0058020D01*
X0064400Y0059228D01*
X0064400Y0060422D01*
X0066708Y0060422D01*
X0067880Y0061593D01*
X0072264Y0065977D01*
X0093796Y0065977D01*
X0093980Y0065793D01*
X0093980Y0063250D01*
X0093936Y0063206D01*
X0093936Y0061549D01*
X0093980Y0061505D01*
X0093980Y0061228D01*
X0088190Y0061228D01*
X0087896Y0061936D01*
X0087094Y0062738D01*
X0086047Y0063172D01*
X0084913Y0063172D01*
X0083866Y0062738D01*
X0083064Y0061936D01*
X0082630Y0060889D01*
X0082630Y0059755D01*
X0083064Y0058707D01*
X0083866Y0057906D01*
X0084913Y0057472D01*
X0085502Y0057472D01*
X0086052Y0056922D01*
X0093980Y0048993D01*
X0093980Y0044350D01*
X0093752Y0044122D01*
X0083743Y0044122D01*
X0084130Y0045055D01*
X0084130Y0046189D01*
X0083696Y0047236D01*
X0083110Y0047822D01*
X0086950Y0047822D01*
X0087366Y0047406D01*
X0088413Y0046972D01*
X0089547Y0046972D01*
X0090594Y0047406D01*
X0091396Y0048207D01*
X0091830Y0049255D01*
X0091830Y0050389D01*
X0091396Y0051436D01*
X0090594Y0052238D01*
X0089547Y0052672D01*
X0088413Y0052672D01*
X0087366Y0052238D01*
X0086950Y0051822D01*
X0079052Y0051822D01*
X0077880Y0050650D01*
X0067984Y0040754D01*
X0067984Y0040646D01*
X0065311Y0040646D01*
X0064550Y0039884D01*
X0064550Y0032902D01*
X0064580Y0032872D01*
X0064580Y0026193D01*
X0066930Y0023843D01*
X0066930Y0023255D01*
X0067364Y0022207D01*
X0068166Y0021406D01*
X0069213Y0020972D01*
X0070347Y0020972D01*
X0071394Y0021406D01*
X0072196Y0022207D01*
X0072630Y0023255D01*
X0072630Y0024389D01*
X0072196Y0025436D01*
X0071394Y0026238D01*
X0070347Y0026672D01*
X0069758Y0026672D01*
X0068580Y0027850D01*
X0068580Y0032140D01*
X0071133Y0032140D01*
X0071133Y0031240D01*
X0073863Y0028510D01*
X0073730Y0028189D01*
X0073730Y0027055D01*
X0074164Y0026007D01*
X0074966Y0025206D01*
X0076013Y0024772D01*
X0077147Y0024772D01*
X0078194Y0025206D01*
X0078996Y0026007D01*
X0079430Y0027055D01*
X0079430Y0028189D01*
X0078996Y0029236D01*
X0078194Y0030038D01*
X0077849Y0030181D01*
X0077408Y0030622D01*
X0075890Y0032140D01*
X0077806Y0032140D01*
X0077858Y0032192D01*
X0077910Y0032140D01*
X0080494Y0032140D01*
X0080554Y0032080D01*
X0080942Y0031856D01*
X0081374Y0031740D01*
X0082582Y0031740D01*
X0083790Y0031740D01*
X0084222Y0031856D01*
X0084610Y0032080D01*
X0084670Y0032140D01*
X0087254Y0032140D01*
X0087306Y0032192D01*
X0087358Y0032140D01*
X0090404Y0032140D01*
X0090456Y0032192D01*
X0090508Y0032140D01*
X0093180Y0032140D01*
X0093180Y0031751D01*
X0089580Y0028150D01*
X0089580Y0023693D01*
X0095052Y0018222D01*
X0096814Y0018222D01*
X0095706Y0017113D01*
X0095706Y0015467D01*
X0100106Y0015467D01*
X0100106Y0014867D01*
X0095706Y0014867D01*
X0095706Y0013220D01*
X0098241Y0010685D01*
X0066321Y0010685D01*
X0066321Y0023660D01*
X0065559Y0024422D01*
X0040860Y0024422D01*
X0040099Y0023660D01*
X0040099Y0010685D01*
X0019612Y0010685D01*
X0019612Y0097741D01*
X0270054Y0097741D01*
X0270054Y0010685D01*
X0102571Y0010685D01*
X0105106Y0013220D01*
X0105106Y0014867D01*
X0100706Y0014867D01*
X0100706Y0015467D01*
X0105106Y0015467D01*
X0105106Y0017113D01*
X0103998Y0018222D01*
X0107380Y0018222D01*
X0106106Y0016948D01*
X0106106Y0013386D01*
X0108625Y0010867D01*
X0112187Y0010867D01*
X0114706Y0013386D01*
X0114706Y0016948D01*
X0113432Y0018222D01*
X0114522Y0018222D01*
X0116106Y0016638D01*
X0116106Y0013386D01*
X0118625Y0010867D01*
X0122187Y0010867D01*
X0124706Y0013386D01*
X0124706Y0016948D01*
X0122187Y0019467D01*
X0118934Y0019467D01*
X0117351Y0021050D01*
X0116179Y0022222D01*
X0113542Y0022222D01*
X0114706Y0023386D01*
X0114706Y0026948D01*
X0112187Y0029467D01*
X0108625Y0029467D01*
X0106106Y0026948D01*
X0106106Y0023386D01*
X0107270Y0022222D01*
X0103542Y0022222D01*
X0104706Y0023386D01*
X0104706Y0026638D01*
X0105680Y0027612D01*
X0105680Y0031691D01*
X0105711Y0031722D01*
X0124552Y0031722D01*
X0129988Y0026285D01*
X0129988Y0022001D01*
X0127500Y0022001D01*
X0126738Y0021239D01*
X0126738Y0015862D01*
X0127500Y0015101D01*
X0136476Y0015101D01*
X0137238Y0015862D01*
X0137238Y0021239D01*
X0136476Y0022001D01*
X0133988Y0022001D01*
X0133988Y0026285D01*
X0134524Y0026822D01*
X0151408Y0026822D01*
X0152580Y0027993D01*
X0154374Y0029788D01*
X0155839Y0029788D01*
X0156600Y0030549D01*
X0156600Y0037322D01*
X0158469Y0037322D01*
X0163597Y0032193D01*
X0164769Y0031022D01*
X0171708Y0031022D01*
X0178008Y0037322D01*
X0180627Y0037322D01*
X0180627Y0037164D01*
X0181270Y0036522D01*
X0180627Y0035879D01*
X0180627Y0029684D01*
X0181389Y0028923D01*
X0188371Y0028923D01*
X0189133Y0029684D01*
X0189133Y0030782D01*
X0198768Y0030782D01*
X0200308Y0032322D01*
X0200450Y0032322D01*
X0204250Y0036122D01*
X0210550Y0036122D01*
X0213550Y0039122D01*
X0214780Y0040352D01*
X0214780Y0046372D01*
X0217168Y0046372D01*
X0217930Y0047133D01*
X0217930Y0052510D01*
X0217168Y0053272D01*
X0214780Y0053272D01*
X0214780Y0068392D01*
X0213550Y0069622D01*
X0212230Y0070942D01*
X0212230Y0071389D01*
X0211796Y0072436D01*
X0210994Y0073238D01*
X0209947Y0073672D01*
X0208813Y0073672D01*
X0207766Y0073238D01*
X0206964Y0072436D01*
X0206530Y0071389D01*
X0206530Y0070255D01*
X0206964Y0069207D01*
X0207766Y0068406D01*
X0208813Y0067972D01*
X0209260Y0067972D01*
X0210580Y0066652D01*
X0210580Y0053272D01*
X0208192Y0053272D01*
X0207430Y0052510D01*
X0207430Y0047133D01*
X0208192Y0046372D01*
X0210580Y0046372D01*
X0210580Y0042092D01*
X0208810Y0040322D01*
X0202510Y0040322D01*
X0201280Y0039092D01*
X0197480Y0035292D01*
X0197480Y0035150D01*
X0197111Y0034782D01*
X0195536Y0034782D01*
X0195594Y0034806D01*
X0196396Y0035607D01*
X0196830Y0036655D01*
X0196830Y0037789D01*
X0196396Y0038836D01*
X0195594Y0039638D01*
X0194547Y0040072D01*
X0193958Y0040072D01*
X0191768Y0042262D01*
X0189133Y0042262D01*
X0189133Y0043359D01*
X0188371Y0044121D01*
X0186880Y0044121D01*
X0186880Y0045723D01*
X0188371Y0045723D01*
X0189133Y0046484D01*
X0189133Y0052679D01*
X0188490Y0053322D01*
X0189133Y0053964D01*
X0189133Y0055446D01*
X0194108Y0060422D01*
X0195280Y0061593D01*
X0195280Y0065291D01*
X0195696Y0065707D01*
X0196130Y0066755D01*
X0196130Y0067889D01*
X0195696Y0068936D01*
X0194894Y0069738D01*
X0193847Y0070172D01*
X0192713Y0070172D01*
X0191666Y0069738D01*
X0190864Y0068936D01*
X0190430Y0067889D01*
X0190430Y0066755D01*
X0190864Y0065707D01*
X0191280Y0065291D01*
X0191280Y0063250D01*
X0188661Y0060631D01*
X0188371Y0060921D01*
X0181389Y0060921D01*
X0180627Y0060159D01*
X0180627Y0053964D01*
X0181270Y0053322D01*
X0180627Y0052679D01*
X0180627Y0046484D01*
X0180583Y0045143D02*
X0182880Y0045143D01*
X0186880Y0045143D02*
X0210580Y0045143D01*
X0208022Y0046542D02*
X0189133Y0046542D01*
X0189133Y0047940D02*
X0207430Y0047940D01*
X0207430Y0049339D02*
X0189133Y0049339D01*
X0189133Y0050737D02*
X0207430Y0050737D01*
X0207430Y0052136D02*
X0189133Y0052136D01*
X0188703Y0053534D02*
X0210580Y0053534D01*
X0210580Y0054933D02*
X0189133Y0054933D01*
X0190018Y0056331D02*
X0210580Y0056331D01*
X0210580Y0057730D02*
X0191416Y0057730D01*
X0192815Y0059128D02*
X0210580Y0059128D01*
X0210580Y0060527D02*
X0194213Y0060527D01*
X0195280Y0061925D02*
X0210580Y0061925D01*
X0210580Y0063324D02*
X0195280Y0063324D01*
X0193280Y0062422D02*
X0193280Y0067322D01*
X0190693Y0066121D02*
X0185460Y0066121D01*
X0185460Y0065802D02*
X0185460Y0066961D01*
X0189533Y0066961D01*
X0189533Y0069164D01*
X0189417Y0069597D01*
X0189193Y0069984D01*
X0188877Y0070301D01*
X0188745Y0070377D01*
X0189133Y0070764D01*
X0189133Y0071862D01*
X0192949Y0071862D01*
X0193258Y0072172D01*
X0193847Y0072172D01*
X0194894Y0072606D01*
X0195696Y0073407D01*
X0196130Y0074455D01*
X0196130Y0075589D01*
X0195696Y0076636D01*
X0194894Y0077438D01*
X0193847Y0077872D01*
X0192713Y0077872D01*
X0191666Y0077438D01*
X0190864Y0076636D01*
X0190543Y0075862D01*
X0189133Y0075862D01*
X0189133Y0076959D01*
X0188371Y0077721D01*
X0181389Y0077721D01*
X0180627Y0076959D01*
X0180627Y0070764D01*
X0181015Y0070377D01*
X0180883Y0070301D01*
X0180567Y0069984D01*
X0180343Y0069597D01*
X0180227Y0069164D01*
X0180227Y0066961D01*
X0184300Y0066961D01*
X0184300Y0065802D01*
X0180227Y0065802D01*
X0180227Y0063599D01*
X0180343Y0063166D01*
X0180567Y0062779D01*
X0180883Y0062462D01*
X0181271Y0062238D01*
X0181703Y0062123D01*
X0184300Y0062123D01*
X0184300Y0065802D01*
X0185460Y0065802D01*
X0189533Y0065802D01*
X0189533Y0063599D01*
X0189417Y0063166D01*
X0189193Y0062779D01*
X0188877Y0062462D01*
X0188489Y0062238D01*
X0188057Y0062123D01*
X0185460Y0062123D01*
X0185460Y0065802D01*
X0185460Y0064722D02*
X0184300Y0064722D01*
X0184300Y0066121D02*
X0172623Y0066121D01*
X0173508Y0064722D02*
X0180227Y0064722D01*
X0180301Y0063324D02*
X0174906Y0063324D01*
X0176305Y0061925D02*
X0189955Y0061925D01*
X0189459Y0063324D02*
X0191280Y0063324D01*
X0193280Y0062422D02*
X0187920Y0057062D01*
X0184880Y0057062D01*
X0180627Y0057730D02*
X0179880Y0057730D01*
X0179880Y0056331D02*
X0180627Y0056331D01*
X0180627Y0054933D02*
X0179880Y0054933D01*
X0175880Y0054933D02*
X0173080Y0054933D01*
X0172535Y0056331D02*
X0175880Y0056331D01*
X0174844Y0057730D02*
X0171443Y0057730D01*
X0173445Y0059128D02*
X0169331Y0059128D01*
X0166829Y0059128D02*
X0155539Y0059128D01*
X0155933Y0057730D02*
X0164717Y0057730D01*
X0163625Y0056331D02*
X0155933Y0056331D01*
X0155533Y0054933D02*
X0163080Y0054933D01*
X0163080Y0053534D02*
X0155533Y0053534D01*
X0155533Y0052136D02*
X0163449Y0052136D01*
X0164294Y0050737D02*
X0155533Y0050737D01*
X0155533Y0049339D02*
X0166321Y0049339D01*
X0169839Y0049339D02*
X0175880Y0049339D01*
X0175880Y0050737D02*
X0171866Y0050737D01*
X0172711Y0052136D02*
X0175880Y0052136D01*
X0175880Y0053534D02*
X0173080Y0053534D01*
X0179880Y0053534D02*
X0181058Y0053534D01*
X0180627Y0052136D02*
X0179880Y0052136D01*
X0179880Y0050737D02*
X0180627Y0050737D01*
X0180627Y0049339D02*
X0179880Y0049339D01*
X0184880Y0049582D02*
X0184880Y0040262D01*
X0190940Y0040262D01*
X0193980Y0037222D01*
X0196680Y0038151D02*
X0200339Y0038151D01*
X0198940Y0036752D02*
X0196830Y0036752D01*
X0196142Y0035354D02*
X0197542Y0035354D01*
X0199580Y0034422D02*
X0197940Y0032782D01*
X0184880Y0032782D01*
X0180627Y0032556D02*
X0173243Y0032556D01*
X0171845Y0031158D02*
X0180627Y0031158D01*
X0180627Y0029759D02*
X0154346Y0029759D01*
X0152741Y0030983D02*
X0150580Y0028822D01*
X0133696Y0028822D01*
X0131988Y0027114D01*
X0125380Y0033722D01*
X0103680Y0033722D01*
X0103680Y0028441D01*
X0100406Y0025167D01*
X0104706Y0025564D02*
X0106106Y0025564D01*
X0106121Y0026962D02*
X0105030Y0026962D01*
X0105680Y0028361D02*
X0107519Y0028361D01*
X0105680Y0029759D02*
X0126514Y0029759D01*
X0125115Y0031158D02*
X0105680Y0031158D01*
X0101680Y0031158D02*
X0097180Y0031158D01*
X0097180Y0032140D02*
X0097180Y0030094D01*
X0096009Y0028922D01*
X0096009Y0028922D01*
X0093580Y0026493D01*
X0093580Y0025350D01*
X0096708Y0022222D01*
X0097270Y0022222D01*
X0096106Y0023386D01*
X0096106Y0026948D01*
X0098625Y0029467D01*
X0101680Y0029467D01*
X0101680Y0031691D01*
X0101264Y0032107D01*
X0100830Y0033155D01*
X0100830Y0034289D01*
X0101264Y0035336D01*
X0102066Y0036138D01*
X0103113Y0036572D01*
X0104247Y0036572D01*
X0105294Y0036138D01*
X0105711Y0035722D01*
X0116260Y0035722D01*
X0115970Y0035889D01*
X0115654Y0036206D01*
X0115430Y0036593D01*
X0115314Y0037026D01*
X0115314Y0039721D01*
X0119092Y0039721D01*
X0119092Y0041077D01*
X0119092Y0045249D01*
X0116790Y0045249D01*
X0116358Y0045133D01*
X0115970Y0044909D01*
X0115654Y0044592D01*
X0115430Y0044205D01*
X0115314Y0043772D01*
X0115314Y0041077D01*
X0119092Y0041077D01*
X0120448Y0041077D01*
X0124226Y0041077D01*
X0124226Y0043772D01*
X0124110Y0044205D01*
X0123886Y0044592D01*
X0123570Y0044909D01*
X0123182Y0045133D01*
X0122749Y0045249D01*
X0120448Y0045249D01*
X0120448Y0041077D01*
X0120448Y0039721D01*
X0124226Y0039721D01*
X0124226Y0037026D01*
X0124110Y0036593D01*
X0123886Y0036206D01*
X0123570Y0035889D01*
X0123280Y0035722D01*
X0126208Y0035722D01*
X0127380Y0034550D01*
X0127380Y0034550D01*
X0131988Y0029942D01*
X0132868Y0030822D01*
X0141402Y0030822D01*
X0141402Y0032040D01*
X0138929Y0032040D01*
X0138194Y0031306D01*
X0137147Y0030872D01*
X0136013Y0030872D01*
X0134966Y0031306D01*
X0134164Y0032107D01*
X0133730Y0033155D01*
X0133730Y0034289D01*
X0134164Y0035336D01*
X0134966Y0036138D01*
X0136013Y0036572D01*
X0137147Y0036572D01*
X0138194Y0036138D01*
X0138292Y0036040D01*
X0141402Y0036040D01*
X0141402Y0037532D01*
X0142163Y0038293D01*
X0145323Y0038293D01*
X0146352Y0039322D01*
X0145540Y0040133D01*
X0145540Y0041018D01*
X0145256Y0041302D01*
X0145256Y0042053D01*
X0142625Y0042053D01*
X0142516Y0042162D01*
X0140309Y0042162D01*
X0140025Y0042447D01*
X0139733Y0042447D01*
X0136857Y0039571D01*
X0135686Y0038399D01*
X0134849Y0038399D01*
X0134849Y0036711D01*
X0134088Y0035949D01*
X0127499Y0035949D01*
X0126737Y0036711D01*
X0126737Y0044087D01*
X0127499Y0044849D01*
X0128793Y0044849D01*
X0128793Y0047856D01*
X0127158Y0047856D01*
X0126397Y0048618D01*
X0126397Y0050177D01*
X0125480Y0051093D01*
X0122675Y0053898D01*
X0122692Y0053835D01*
X0122692Y0051632D01*
X0118619Y0051632D01*
X0118619Y0050473D01*
X0122692Y0050473D01*
X0122692Y0048270D01*
X0122576Y0047837D01*
X0122352Y0047450D01*
X0122036Y0047133D01*
X0121648Y0046909D01*
X0121216Y0046793D01*
X0118619Y0046793D01*
X0118619Y0050473D01*
X0117460Y0050473D01*
X0117460Y0046793D01*
X0114862Y0046793D01*
X0114657Y0046849D01*
X0114930Y0046189D01*
X0114930Y0045055D01*
X0114496Y0044007D01*
X0113694Y0043206D01*
X0112647Y0042772D01*
X0112058Y0042772D01*
X0110766Y0041480D01*
X0109192Y0041480D01*
X0108908Y0041195D01*
X0101925Y0041195D01*
X0101164Y0041957D01*
X0101164Y0045002D01*
X0101216Y0045055D01*
X0101164Y0045107D01*
X0101164Y0048152D01*
X0101216Y0048204D01*
X0101164Y0048256D01*
X0101164Y0051302D01*
X0101216Y0051354D01*
X0101164Y0051406D01*
X0101164Y0053075D01*
X0100780Y0052691D01*
X0100780Y0040593D01*
X0100343Y0040156D01*
X0100614Y0039884D01*
X0100614Y0032902D01*
X0099853Y0032140D01*
X0097180Y0032140D01*
X0095180Y0030922D02*
X0095180Y0036393D01*
X0098330Y0036393D02*
X0098330Y0040972D01*
X0098780Y0041422D01*
X0098780Y0054722D01*
X0100780Y0052136D02*
X0101164Y0052136D01*
X0101164Y0050737D02*
X0100780Y0050737D01*
X0100780Y0049339D02*
X0101164Y0049339D01*
X0101164Y0047940D02*
X0100780Y0047940D01*
X0100780Y0046542D02*
X0101164Y0046542D01*
X0101164Y0045143D02*
X0100780Y0045143D01*
X0100780Y0043745D02*
X0101164Y0043745D01*
X0101164Y0042346D02*
X0100780Y0042346D01*
X0100780Y0040948D02*
X0119092Y0040948D01*
X0120448Y0040948D02*
X0126737Y0040948D01*
X0126737Y0042346D02*
X0124226Y0042346D01*
X0124226Y0043745D02*
X0126737Y0043745D01*
X0128793Y0045143D02*
X0123143Y0045143D01*
X0120448Y0045143D02*
X0119092Y0045143D01*
X0116396Y0045143D02*
X0114930Y0045143D01*
X0114784Y0046542D02*
X0128793Y0046542D01*
X0127074Y0047940D02*
X0122604Y0047940D01*
X0118619Y0047940D02*
X0117460Y0047940D01*
X0117460Y0049339D02*
X0118619Y0049339D01*
X0118619Y0050737D02*
X0125836Y0050737D01*
X0126397Y0049339D02*
X0122692Y0049339D01*
X0118039Y0051052D02*
X0117870Y0051222D01*
X0114180Y0051222D01*
X0112780Y0052622D01*
X0112780Y0058922D01*
X0109324Y0062377D01*
X0105417Y0062377D01*
X0105417Y0062377D01*
X0110069Y0062377D01*
X0110069Y0061169D01*
X0109954Y0060737D01*
X0109730Y0060349D01*
X0109669Y0060289D01*
X0109669Y0057705D01*
X0109617Y0057653D01*
X0109669Y0057601D01*
X0109669Y0054555D01*
X0109617Y0054503D01*
X0109669Y0054451D01*
X0109669Y0051406D01*
X0109617Y0051354D01*
X0109669Y0051302D01*
X0109669Y0048256D01*
X0109617Y0048204D01*
X0109669Y0048152D01*
X0109669Y0047242D01*
X0110466Y0048038D01*
X0111513Y0048472D01*
X0112647Y0048472D01*
X0113418Y0048152D01*
X0113386Y0048270D01*
X0113386Y0050473D01*
X0117459Y0050473D01*
X0117459Y0051632D01*
X0113386Y0051632D01*
X0113386Y0053835D01*
X0113502Y0054268D01*
X0113726Y0054655D01*
X0114042Y0054972D01*
X0114174Y0055048D01*
X0113786Y0055435D01*
X0113786Y0061630D01*
X0114548Y0062392D01*
X0116039Y0062392D01*
X0116039Y0064809D01*
X0117452Y0066223D01*
X0116847Y0065972D01*
X0116258Y0065972D01*
X0113814Y0063527D01*
X0110069Y0063527D01*
X0110069Y0062377D01*
X0105417Y0062377D01*
X0100764Y0062377D01*
X0100764Y0061228D01*
X0097980Y0061228D01*
X0097980Y0071622D01*
X0098208Y0071622D01*
X0101164Y0074577D01*
X0101164Y0073453D01*
X0101216Y0073401D01*
X0101164Y0073349D01*
X0101164Y0070303D01*
X0101216Y0070251D01*
X0101164Y0070199D01*
X0101164Y0067154D01*
X0101216Y0067102D01*
X0101164Y0067050D01*
X0101164Y0064466D01*
X0101104Y0064405D01*
X0100880Y0064018D01*
X0100764Y0063585D01*
X0100764Y0062377D01*
X0105417Y0062377D01*
X0105417Y0062377D01*
X0100764Y0061925D02*
X0097980Y0061925D01*
X0097980Y0063324D02*
X0100764Y0063324D01*
X0101164Y0064722D02*
X0097980Y0064722D01*
X0097980Y0066121D02*
X0101164Y0066121D01*
X0101164Y0067519D02*
X0097980Y0067519D01*
X0097980Y0068918D02*
X0101164Y0068918D01*
X0105417Y0068677D02*
X0110135Y0068677D01*
X0111480Y0070022D01*
X0111480Y0071422D01*
X0113680Y0073622D01*
X0120680Y0073622D01*
X0122780Y0075722D01*
X0134280Y0075722D01*
X0136380Y0073622D01*
X0136380Y0070711D01*
X0136385Y0070706D01*
X0146496Y0070706D01*
X0151980Y0065222D01*
X0151980Y0060236D01*
X0152021Y0060195D01*
X0155533Y0060527D02*
X0164504Y0060527D01*
X0163536Y0061925D02*
X0155326Y0061925D01*
X0153980Y0063324D02*
X0163080Y0063324D01*
X0163080Y0064722D02*
X0153980Y0064722D01*
X0153909Y0066121D02*
X0163537Y0066121D01*
X0164506Y0067519D02*
X0152511Y0067519D01*
X0151112Y0068918D02*
X0166834Y0068918D01*
X0169326Y0068918D02*
X0180227Y0068918D01*
X0180227Y0067519D02*
X0171654Y0067519D01*
X0180910Y0070316D02*
X0149714Y0070316D01*
X0148315Y0071715D02*
X0180627Y0071715D01*
X0180627Y0073113D02*
X0140244Y0073113D01*
X0139929Y0074512D02*
X0168562Y0074512D01*
X0167163Y0075910D02*
X0136920Y0075910D01*
X0139933Y0081504D02*
X0142627Y0081504D01*
X0142048Y0082903D02*
X0140512Y0082903D01*
X0140580Y0084301D02*
X0141980Y0084301D01*
X0141980Y0085700D02*
X0140580Y0085700D01*
X0140580Y0087098D02*
X0141980Y0087098D01*
X0141980Y0088497D02*
X0140580Y0088497D01*
X0140580Y0089895D02*
X0141980Y0089895D01*
X0142194Y0091294D02*
X0140366Y0091294D01*
X0139590Y0092692D02*
X0142970Y0092692D01*
X0145109Y0094091D02*
X0137451Y0094091D01*
X0135109Y0094091D02*
X0128450Y0094091D01*
X0128743Y0093942D02*
X0128084Y0094277D01*
X0127381Y0094506D01*
X0126650Y0094622D01*
X0126580Y0094622D01*
X0126580Y0087222D01*
X0130980Y0087222D01*
X0130980Y0090292D01*
X0130864Y0091022D01*
X0130636Y0091726D01*
X0130300Y0092385D01*
X0129865Y0092984D01*
X0129342Y0093507D01*
X0128743Y0093942D01*
X0130077Y0092692D02*
X0132970Y0092692D01*
X0132194Y0091294D02*
X0130776Y0091294D01*
X0130980Y0089895D02*
X0131980Y0089895D01*
X0131980Y0088497D02*
X0130980Y0088497D01*
X0131980Y0087098D02*
X0126580Y0087098D01*
X0126280Y0086922D02*
X0126280Y0089522D01*
X0121180Y0094622D01*
X0084080Y0094622D01*
X0082582Y0093124D01*
X0082582Y0082062D01*
X0082582Y0077410D01*
X0082582Y0082062D01*
X0082582Y0082062D01*
X0082582Y0082063D02*
X0082582Y0086715D01*
X0082582Y0082063D01*
X0082582Y0082063D01*
X0082582Y0081504D02*
X0082582Y0081504D01*
X0082582Y0080106D02*
X0082582Y0080106D01*
X0079432Y0082062D02*
X0079432Y0075974D01*
X0078480Y0075022D01*
X0068680Y0075022D01*
X0065963Y0075910D02*
X0064000Y0075910D01*
X0064000Y0074512D02*
X0065830Y0074512D01*
X0066558Y0073113D02*
X0064000Y0073113D01*
X0064000Y0071715D02*
X0087359Y0071715D01*
X0085960Y0073113D02*
X0079400Y0073113D01*
X0080798Y0074512D02*
X0084562Y0074512D01*
X0083732Y0075910D02*
X0081432Y0075910D01*
X0081432Y0077309D02*
X0083732Y0077309D01*
X0082582Y0078707D02*
X0082582Y0078707D01*
X0085732Y0076170D02*
X0085732Y0082062D01*
X0082582Y0082903D02*
X0082582Y0082903D01*
X0082582Y0084301D02*
X0082582Y0084301D01*
X0082582Y0085700D02*
X0082582Y0085700D01*
X0096330Y0087098D02*
X0019612Y0087098D01*
X0019612Y0085700D02*
X0035681Y0085700D01*
X0035656Y0085607D02*
X0035656Y0083010D01*
X0039336Y0083010D01*
X0039336Y0087083D01*
X0037133Y0087083D01*
X0036700Y0086967D01*
X0036313Y0086743D01*
X0035996Y0086427D01*
X0035772Y0086039D01*
X0035656Y0085607D01*
X0039336Y0085700D02*
X0040495Y0085700D01*
X0040495Y0087083D02*
X0042698Y0087083D01*
X0043131Y0086967D01*
X0043518Y0086743D01*
X0043835Y0086427D01*
X0043911Y0086295D01*
X0044298Y0086683D01*
X0050493Y0086683D01*
X0051255Y0085921D01*
X0051255Y0084430D01*
X0060700Y0084430D01*
X0060958Y0084172D01*
X0061547Y0084172D01*
X0062594Y0083738D01*
X0063396Y0082936D01*
X0063830Y0081889D01*
X0063830Y0080755D01*
X0063396Y0079707D01*
X0062594Y0078906D01*
X0061547Y0078472D01*
X0060413Y0078472D01*
X0059366Y0078906D01*
X0058564Y0079707D01*
X0058265Y0080430D01*
X0051255Y0080430D01*
X0051255Y0078939D01*
X0050493Y0078177D01*
X0044298Y0078177D01*
X0043911Y0078565D01*
X0043835Y0078433D01*
X0043518Y0078117D01*
X0043131Y0077893D01*
X0042698Y0077777D01*
X0040495Y0077777D01*
X0040495Y0081850D01*
X0039336Y0081850D01*
X0039336Y0077777D01*
X0037133Y0077777D01*
X0036700Y0077893D01*
X0036313Y0078117D01*
X0035996Y0078433D01*
X0035772Y0078821D01*
X0035656Y0079253D01*
X0035656Y0081851D01*
X0039336Y0081851D01*
X0039336Y0083010D01*
X0040495Y0083010D01*
X0040495Y0087083D01*
X0040495Y0084301D02*
X0039336Y0084301D01*
X0039336Y0082903D02*
X0031646Y0082903D01*
X0032149Y0081504D02*
X0035656Y0081504D01*
X0035656Y0080106D02*
X0032099Y0080106D01*
X0031422Y0078707D02*
X0035838Y0078707D01*
X0039336Y0078707D02*
X0040495Y0078707D01*
X0040495Y0080106D02*
X0039336Y0080106D01*
X0039336Y0081504D02*
X0040495Y0081504D01*
X0035656Y0084301D02*
X0030008Y0084301D01*
X0022177Y0084301D02*
X0019612Y0084301D01*
X0019612Y0082903D02*
X0020540Y0082903D01*
X0020037Y0081504D02*
X0019612Y0081504D01*
X0019612Y0080106D02*
X0020086Y0080106D01*
X0019612Y0078707D02*
X0020763Y0078707D01*
X0020294Y0077309D02*
X0019612Y0077309D01*
X0019612Y0075910D02*
X0020037Y0075910D01*
X0020332Y0074512D02*
X0019612Y0074512D01*
X0019612Y0073113D02*
X0020669Y0073113D01*
X0020047Y0071715D02*
X0019612Y0071715D01*
X0019612Y0070316D02*
X0020037Y0070316D01*
X0019612Y0068918D02*
X0020578Y0068918D01*
X0020381Y0067519D02*
X0019612Y0067519D01*
X0019612Y0066121D02*
X0020037Y0066121D01*
X0020245Y0064722D02*
X0019612Y0064722D01*
X0019612Y0063324D02*
X0020880Y0063324D01*
X0020135Y0061925D02*
X0019612Y0061925D01*
X0019612Y0060527D02*
X0020037Y0060527D01*
X0019612Y0059128D02*
X0020491Y0059128D01*
X0020468Y0057730D02*
X0019612Y0057730D01*
X0019612Y0056331D02*
X0020037Y0056331D01*
X0020158Y0054933D02*
X0019612Y0054933D01*
X0019612Y0053534D02*
X0020936Y0053534D01*
X0020222Y0052136D02*
X0019612Y0052136D01*
X0019612Y0050737D02*
X0020037Y0050737D01*
X0020404Y0049339D02*
X0019612Y0049339D01*
X0019612Y0047940D02*
X0020555Y0047940D01*
X0020037Y0046542D02*
X0019612Y0046542D01*
X0019612Y0045143D02*
X0020071Y0045143D01*
X0019612Y0043745D02*
X0020726Y0043745D01*
X0019878Y0042346D02*
X0019612Y0042346D01*
X0019637Y0040957D02*
X0026092Y0040957D01*
X0019637Y0040957D01*
X0019637Y0040948D02*
X0019612Y0040948D01*
X0019612Y0039549D02*
X0019884Y0039549D01*
X0019612Y0038151D02*
X0020707Y0038151D01*
X0020063Y0036752D02*
X0019612Y0036752D01*
X0019612Y0035354D02*
X0020037Y0035354D01*
X0019612Y0033955D02*
X0020563Y0033955D01*
X0020396Y0032556D02*
X0019612Y0032556D01*
X0019612Y0031158D02*
X0020037Y0031158D01*
X0020230Y0029759D02*
X0019612Y0029759D01*
X0019612Y0028361D02*
X0020917Y0028361D01*
X0020150Y0026962D02*
X0019612Y0026962D01*
X0019612Y0025564D02*
X0020037Y0025564D01*
X0019612Y0024165D02*
X0020476Y0024165D01*
X0020483Y0022767D02*
X0019612Y0022767D01*
X0019612Y0021368D02*
X0020037Y0021368D01*
X0020143Y0019970D02*
X0019612Y0019970D01*
X0019612Y0018571D02*
X0020899Y0018571D01*
X0019612Y0017173D02*
X0040099Y0017173D01*
X0040099Y0018571D02*
X0031286Y0018571D01*
X0034657Y0019970D02*
X0040099Y0019970D01*
X0040099Y0021368D02*
X0036055Y0021368D01*
X0037454Y0022767D02*
X0040099Y0022767D01*
X0040604Y0024165D02*
X0038852Y0024165D01*
X0040251Y0025564D02*
X0065209Y0025564D01*
X0065816Y0024165D02*
X0066608Y0024165D01*
X0066580Y0027022D02*
X0069780Y0023822D01*
X0067132Y0022767D02*
X0066321Y0022767D01*
X0066321Y0021368D02*
X0068256Y0021368D01*
X0066321Y0019970D02*
X0093303Y0019970D01*
X0091905Y0021368D02*
X0071304Y0021368D01*
X0072428Y0022767D02*
X0090506Y0022767D01*
X0089580Y0024165D02*
X0072630Y0024165D01*
X0072068Y0025564D02*
X0074607Y0025564D01*
X0073768Y0026962D02*
X0069468Y0026962D01*
X0068580Y0028361D02*
X0073801Y0028361D01*
X0076580Y0028622D02*
X0076580Y0027622D01*
X0076580Y0028622D02*
X0073133Y0032069D01*
X0073133Y0036393D01*
X0069984Y0036393D02*
X0069984Y0039925D01*
X0079880Y0049822D01*
X0088980Y0049822D01*
X0091686Y0050737D02*
X0092236Y0050737D01*
X0091830Y0049339D02*
X0093635Y0049339D01*
X0095980Y0049822D02*
X0086880Y0058922D01*
X0087186Y0059228D01*
X0097074Y0059228D01*
X0105417Y0059228D01*
X0109669Y0059128D02*
X0113786Y0059128D01*
X0113786Y0057730D02*
X0109669Y0057730D01*
X0109669Y0056331D02*
X0113786Y0056331D01*
X0114003Y0054933D02*
X0109669Y0054933D01*
X0109669Y0053534D02*
X0113386Y0053534D01*
X0113386Y0052136D02*
X0109669Y0052136D01*
X0109669Y0050737D02*
X0117459Y0050737D01*
X0122692Y0052136D02*
X0124438Y0052136D01*
X0123039Y0053534D02*
X0122692Y0053534D01*
X0127480Y0051922D02*
X0130443Y0051922D01*
X0130649Y0051715D01*
X0130793Y0051571D01*
X0130793Y0040399D01*
X0134857Y0040399D01*
X0138905Y0044447D01*
X0143060Y0044447D01*
X0143453Y0044053D01*
X0147540Y0044053D01*
X0147540Y0040961D01*
X0149180Y0039322D01*
X0159297Y0039322D01*
X0165597Y0033022D01*
X0170880Y0033022D01*
X0177180Y0039322D01*
X0181380Y0039322D01*
X0182320Y0040262D01*
X0184880Y0040262D01*
X0180627Y0042346D02*
X0180035Y0042346D01*
X0180730Y0043745D02*
X0181012Y0043745D01*
X0175725Y0042346D02*
X0173213Y0042346D01*
X0173084Y0041949D02*
X0173347Y0042757D01*
X0173480Y0043597D01*
X0173480Y0043722D01*
X0168380Y0043722D01*
X0168380Y0038622D01*
X0168505Y0038622D01*
X0169345Y0038755D01*
X0170153Y0039017D01*
X0170910Y0039403D01*
X0171598Y0039903D01*
X0172199Y0040504D01*
X0172698Y0041192D01*
X0173084Y0041949D01*
X0172521Y0040948D02*
X0175977Y0040948D01*
X0174579Y0039549D02*
X0171111Y0039549D01*
X0168380Y0039549D02*
X0167780Y0039549D01*
X0167780Y0040948D02*
X0168380Y0040948D01*
X0168380Y0042346D02*
X0167780Y0042346D01*
X0167780Y0043745D02*
X0155503Y0043745D01*
X0154926Y0042346D02*
X0162947Y0042346D01*
X0163639Y0040948D02*
X0160500Y0040948D01*
X0161898Y0039549D02*
X0165049Y0039549D01*
X0163297Y0038151D02*
X0173180Y0038151D01*
X0171782Y0036752D02*
X0164695Y0036752D01*
X0166094Y0035354D02*
X0170383Y0035354D01*
X0174642Y0033955D02*
X0180627Y0033955D01*
X0180627Y0035354D02*
X0176040Y0035354D01*
X0177439Y0036752D02*
X0181040Y0036752D01*
X0193083Y0040948D02*
X0209436Y0040948D01*
X0210580Y0042346D02*
X0189133Y0042346D01*
X0188748Y0043745D02*
X0210580Y0043745D01*
X0214780Y0043745D02*
X0270054Y0043745D01*
X0270054Y0042346D02*
X0214780Y0042346D01*
X0214780Y0040948D02*
X0270054Y0040948D01*
X0270054Y0039549D02*
X0213977Y0039549D01*
X0212579Y0038151D02*
X0270054Y0038151D01*
X0270054Y0036752D02*
X0211180Y0036752D01*
X0203482Y0035354D02*
X0270054Y0035354D01*
X0270054Y0033955D02*
X0202083Y0033955D01*
X0200685Y0032556D02*
X0270054Y0032556D01*
X0270054Y0031158D02*
X0199145Y0031158D01*
X0189133Y0029759D02*
X0270054Y0029759D01*
X0270054Y0028361D02*
X0152948Y0028361D01*
X0151549Y0026962D02*
X0270054Y0026962D01*
X0270054Y0025564D02*
X0133988Y0025564D01*
X0133988Y0024165D02*
X0270054Y0024165D01*
X0270054Y0022767D02*
X0133988Y0022767D01*
X0137109Y0021368D02*
X0161860Y0021368D01*
X0161854Y0021357D02*
X0161738Y0020925D01*
X0161738Y0018926D01*
X0167013Y0018926D01*
X0167013Y0022401D01*
X0163214Y0022401D01*
X0162782Y0022285D01*
X0162394Y0022061D01*
X0162078Y0021745D01*
X0161854Y0021357D01*
X0161738Y0019970D02*
X0137238Y0019970D01*
X0137238Y0018571D02*
X0167013Y0018571D01*
X0167013Y0018926D02*
X0167013Y0018176D01*
X0161738Y0018176D01*
X0161738Y0016177D01*
X0161854Y0015745D01*
X0162078Y0015357D01*
X0162394Y0015041D01*
X0162782Y0014817D01*
X0163214Y0014701D01*
X0167013Y0014701D01*
X0167013Y0018176D01*
X0167763Y0018176D01*
X0167763Y0018926D01*
X0167013Y0018926D01*
X0167763Y0018926D02*
X0167763Y0022401D01*
X0171562Y0022401D01*
X0171994Y0022285D01*
X0172382Y0022061D01*
X0172698Y0021745D01*
X0172922Y0021357D01*
X0173038Y0020925D01*
X0173038Y0018926D01*
X0167763Y0018926D01*
X0167763Y0018571D02*
X0270054Y0018571D01*
X0270054Y0017173D02*
X0173038Y0017173D01*
X0173038Y0016177D02*
X0173038Y0018176D01*
X0167763Y0018176D01*
X0167763Y0014701D01*
X0171562Y0014701D01*
X0171994Y0014817D01*
X0172382Y0015041D01*
X0172698Y0015357D01*
X0172922Y0015745D01*
X0173038Y0016177D01*
X0172930Y0015774D02*
X0270054Y0015774D01*
X0270054Y0014376D02*
X0124706Y0014376D01*
X0124706Y0015774D02*
X0126826Y0015774D01*
X0126738Y0017173D02*
X0124481Y0017173D01*
X0123082Y0018571D02*
X0126738Y0018571D01*
X0126738Y0019970D02*
X0118431Y0019970D01*
X0118625Y0020867D02*
X0122187Y0020867D01*
X0124706Y0023386D01*
X0124706Y0026948D01*
X0122187Y0029467D01*
X0118625Y0029467D01*
X0116106Y0026948D01*
X0116106Y0023386D01*
X0118625Y0020867D01*
X0118123Y0021368D02*
X0117033Y0021368D01*
X0116725Y0022767D02*
X0114087Y0022767D01*
X0114706Y0024165D02*
X0116106Y0024165D01*
X0116106Y0025564D02*
X0114706Y0025564D01*
X0114691Y0026962D02*
X0116121Y0026962D01*
X0117519Y0028361D02*
X0113293Y0028361D01*
X0106106Y0024165D02*
X0104706Y0024165D01*
X0104087Y0022767D02*
X0106725Y0022767D01*
X0115351Y0020222D02*
X0095880Y0020222D01*
X0091580Y0024522D01*
X0091580Y0027322D01*
X0095180Y0030922D01*
X0096846Y0029759D02*
X0101680Y0029759D01*
X0101078Y0032556D02*
X0100269Y0032556D01*
X0100614Y0033955D02*
X0100830Y0033955D01*
X0100614Y0035354D02*
X0101281Y0035354D01*
X0100614Y0036752D02*
X0115387Y0036752D01*
X0115314Y0038151D02*
X0100614Y0038151D01*
X0100614Y0039549D02*
X0115314Y0039549D01*
X0115314Y0042346D02*
X0111633Y0042346D01*
X0109938Y0043480D02*
X0112080Y0045622D01*
X0114233Y0043745D02*
X0115314Y0043745D01*
X0119092Y0043745D02*
X0120448Y0043745D01*
X0120448Y0042346D02*
X0119092Y0042346D01*
X0124226Y0039549D02*
X0126737Y0039549D01*
X0126737Y0038151D02*
X0124226Y0038151D01*
X0124152Y0036752D02*
X0126737Y0036752D01*
X0126577Y0035354D02*
X0134181Y0035354D01*
X0133730Y0033955D02*
X0127975Y0033955D01*
X0129374Y0032556D02*
X0133978Y0032556D01*
X0135322Y0031158D02*
X0130772Y0031158D01*
X0136580Y0033722D02*
X0136899Y0034040D01*
X0145261Y0034040D01*
X0145261Y0035403D01*
X0149180Y0039322D01*
X0146124Y0039549D02*
X0136836Y0039549D01*
X0138234Y0040948D02*
X0145540Y0040948D01*
X0140125Y0042346D02*
X0139633Y0042346D01*
X0138076Y0046447D02*
X0134849Y0043219D01*
X0134849Y0044087D01*
X0134088Y0044849D01*
X0132793Y0044849D01*
X0132793Y0047856D01*
X0134141Y0047856D01*
X0134902Y0048618D01*
X0134902Y0052457D01*
X0135967Y0053522D01*
X0137080Y0054635D01*
X0137080Y0057435D01*
X0137367Y0057722D01*
X0138452Y0057722D01*
X0138552Y0057622D01*
X0139148Y0057622D01*
X0139148Y0057045D01*
X0139148Y0055837D01*
X0139263Y0055405D01*
X0139487Y0055017D01*
X0139548Y0054957D01*
X0139548Y0052834D01*
X0139487Y0052774D01*
X0139263Y0052386D01*
X0139148Y0051954D01*
X0139148Y0050746D01*
X0143060Y0050746D01*
X0146972Y0050746D01*
X0143060Y0050746D01*
X0143060Y0050746D01*
X0143060Y0050746D01*
X0139148Y0050746D01*
X0139148Y0049538D01*
X0139246Y0049171D01*
X0139148Y0048804D01*
X0139148Y0047596D01*
X0139148Y0046447D01*
X0138076Y0046447D01*
X0139148Y0046542D02*
X0132793Y0046542D01*
X0132793Y0045143D02*
X0136773Y0045143D01*
X0135374Y0043745D02*
X0134849Y0043745D01*
X0134224Y0047940D02*
X0139148Y0047940D01*
X0139148Y0047596D02*
X0143060Y0047596D01*
X0139148Y0047596D01*
X0139201Y0049339D02*
X0134902Y0049339D01*
X0134902Y0050737D02*
X0139148Y0050737D01*
X0139196Y0052136D02*
X0134902Y0052136D01*
X0135979Y0053534D02*
X0139548Y0053534D01*
X0139548Y0054933D02*
X0137080Y0054933D01*
X0137080Y0056331D02*
X0139148Y0056331D01*
X0139148Y0057045D02*
X0143060Y0057045D01*
X0143060Y0057045D01*
X0139148Y0057045D01*
X0139380Y0059622D02*
X0142487Y0059622D01*
X0143060Y0060195D01*
X0147540Y0060588D02*
X0147540Y0061961D01*
X0146380Y0063122D01*
X0126723Y0063122D01*
X0123980Y0063122D01*
X0126723Y0063122D02*
X0130649Y0059196D01*
X0127480Y0051922D02*
X0120869Y0058533D01*
X0118039Y0058533D01*
X0118039Y0063981D01*
X0124764Y0070706D01*
X0128904Y0070706D01*
X0117351Y0066121D02*
X0117207Y0066121D01*
X0116039Y0064722D02*
X0115009Y0064722D01*
X0112985Y0065527D02*
X0116280Y0068822D01*
X0112985Y0065527D02*
X0105417Y0065527D01*
X0110069Y0063324D02*
X0116039Y0063324D01*
X0114081Y0061925D02*
X0110069Y0061925D01*
X0109832Y0060527D02*
X0113786Y0060527D01*
X0097074Y0059228D02*
X0095980Y0060322D01*
X0095980Y0062422D01*
X0095936Y0062377D01*
X0095980Y0062422D02*
X0095980Y0066622D01*
X0094624Y0067977D01*
X0071436Y0067977D01*
X0065880Y0062422D01*
X0059792Y0062422D01*
X0059747Y0062377D01*
X0056124Y0062377D01*
X0051880Y0066622D01*
X0042080Y0066622D01*
X0039114Y0069588D01*
X0039114Y0072111D01*
X0039114Y0061187D01*
X0039122Y0061179D01*
X0039122Y0050968D01*
X0034111Y0045957D01*
X0026093Y0045957D01*
X0031455Y0043740D02*
X0031589Y0043874D01*
X0031623Y0043957D01*
X0034939Y0043957D01*
X0037698Y0046715D01*
X0042219Y0046715D01*
X0042607Y0047103D01*
X0042683Y0046971D01*
X0042999Y0046655D01*
X0043387Y0046431D01*
X0043819Y0046315D01*
X0046023Y0046315D01*
X0046023Y0050388D01*
X0047182Y0050388D01*
X0047182Y0046315D01*
X0049385Y0046315D01*
X0049817Y0046431D01*
X0050205Y0046655D01*
X0050522Y0046971D01*
X0050745Y0047359D01*
X0050861Y0047791D01*
X0050861Y0050389D01*
X0047182Y0050389D01*
X0047182Y0051548D01*
X0046023Y0051548D01*
X0046023Y0055621D01*
X0043819Y0055621D01*
X0043387Y0055505D01*
X0042999Y0055281D01*
X0042683Y0054965D01*
X0042607Y0054833D01*
X0042219Y0055221D01*
X0041122Y0055221D01*
X0041122Y0056934D01*
X0042211Y0056934D01*
X0042599Y0057322D01*
X0042675Y0057191D01*
X0042991Y0056874D01*
X0043379Y0056650D01*
X0043811Y0056534D01*
X0046014Y0056534D01*
X0046014Y0060608D01*
X0047173Y0060608D01*
X0047173Y0056534D01*
X0049377Y0056534D01*
X0049809Y0056650D01*
X0050197Y0056874D01*
X0050513Y0057191D01*
X0050737Y0057578D01*
X0050853Y0058011D01*
X0050853Y0060608D01*
X0047174Y0060608D01*
X0047174Y0061767D01*
X0050853Y0061767D01*
X0050853Y0064364D01*
X0050784Y0064622D01*
X0051052Y0064622D01*
X0055125Y0060549D01*
X0055095Y0060436D01*
X0055095Y0059228D01*
X0059747Y0059228D01*
X0059747Y0059228D01*
X0055095Y0059228D01*
X0055095Y0058020D01*
X0055210Y0057587D01*
X0055434Y0057200D01*
X0055495Y0057139D01*
X0055495Y0054622D01*
X0054552Y0054622D01*
X0053380Y0053450D01*
X0051980Y0052050D01*
X0051980Y0042950D01*
X0031987Y0022957D01*
X0031623Y0022957D01*
X0031589Y0023041D01*
X0031172Y0023457D01*
X0031589Y0023874D01*
X0032149Y0025226D01*
X0032149Y0026689D01*
X0031589Y0028041D01*
X0031172Y0028457D01*
X0031589Y0028874D01*
X0032149Y0030226D01*
X0032149Y0031689D01*
X0031589Y0033041D01*
X0031172Y0033457D01*
X0031589Y0033874D01*
X0032149Y0035226D01*
X0032149Y0036689D01*
X0031589Y0038041D01*
X0031455Y0038174D01*
X0031581Y0038301D01*
X0031958Y0038820D01*
X0032250Y0039392D01*
X0032448Y0040002D01*
X0032549Y0040636D01*
X0032549Y0040957D01*
X0026093Y0040957D01*
X0026093Y0040957D01*
X0032549Y0040957D01*
X0032549Y0041278D01*
X0032448Y0041912D01*
X0032250Y0042523D01*
X0031958Y0043095D01*
X0031581Y0043614D01*
X0031455Y0043740D01*
X0031459Y0043745D02*
X0051980Y0043745D01*
X0051376Y0042346D02*
X0032307Y0042346D01*
X0032549Y0040948D02*
X0049977Y0040948D01*
X0048579Y0039549D02*
X0032301Y0039549D01*
X0031479Y0038151D02*
X0047180Y0038151D01*
X0045782Y0036752D02*
X0032122Y0036752D01*
X0032149Y0035354D02*
X0044383Y0035354D01*
X0042985Y0033955D02*
X0031622Y0033955D01*
X0031789Y0032556D02*
X0041586Y0032556D01*
X0040188Y0031158D02*
X0032149Y0031158D01*
X0031955Y0029759D02*
X0038789Y0029759D01*
X0037391Y0028361D02*
X0031268Y0028361D01*
X0032035Y0026962D02*
X0035992Y0026962D01*
X0034594Y0025564D02*
X0032149Y0025564D01*
X0031709Y0024165D02*
X0033195Y0024165D01*
X0032815Y0020957D02*
X0026093Y0020957D01*
X0032815Y0020957D02*
X0053980Y0042122D01*
X0053980Y0051222D01*
X0055380Y0052622D01*
X0059441Y0052622D01*
X0059747Y0052929D01*
X0064000Y0053534D02*
X0067764Y0053534D01*
X0066365Y0052136D02*
X0064000Y0052136D01*
X0066880Y0049822D02*
X0059790Y0049822D01*
X0059747Y0049779D01*
X0051980Y0049339D02*
X0050861Y0049339D01*
X0051980Y0050737D02*
X0047182Y0050737D01*
X0047182Y0051548D02*
X0050861Y0051548D01*
X0050861Y0054145D01*
X0050745Y0054577D01*
X0050522Y0054965D01*
X0050205Y0055281D01*
X0049817Y0055505D01*
X0049385Y0055621D01*
X0047182Y0055621D01*
X0047182Y0051548D01*
X0047182Y0052136D02*
X0046023Y0052136D01*
X0046023Y0053534D02*
X0047182Y0053534D01*
X0050861Y0053534D02*
X0053464Y0053534D01*
X0052065Y0052136D02*
X0050861Y0052136D01*
X0047182Y0049339D02*
X0046023Y0049339D01*
X0046023Y0047940D02*
X0047182Y0047940D01*
X0047182Y0046542D02*
X0046023Y0046542D01*
X0043196Y0046542D02*
X0037524Y0046542D01*
X0036125Y0045143D02*
X0051980Y0045143D01*
X0051980Y0046542D02*
X0050009Y0046542D01*
X0050861Y0047940D02*
X0051980Y0047940D01*
X0064000Y0046542D02*
X0073771Y0046542D01*
X0072373Y0045143D02*
X0064000Y0045143D01*
X0064000Y0043745D02*
X0070974Y0043745D01*
X0069576Y0042346D02*
X0064000Y0042346D01*
X0063385Y0040948D02*
X0068177Y0040948D01*
X0064550Y0039549D02*
X0064381Y0039549D01*
X0061680Y0038622D02*
X0053980Y0030922D01*
X0052580Y0030922D01*
X0049977Y0029759D02*
X0044446Y0029759D01*
X0045845Y0031158D02*
X0049730Y0031158D01*
X0050184Y0032556D02*
X0047243Y0032556D01*
X0048642Y0033955D02*
X0054185Y0033955D01*
X0055583Y0035354D02*
X0050040Y0035354D01*
X0051439Y0036752D02*
X0056982Y0036752D01*
X0058380Y0038151D02*
X0052837Y0038151D01*
X0054236Y0039549D02*
X0058979Y0039549D01*
X0059975Y0040948D02*
X0055634Y0040948D01*
X0064530Y0038151D02*
X0064550Y0038151D01*
X0064550Y0036752D02*
X0063841Y0036752D01*
X0064550Y0035354D02*
X0061240Y0035354D01*
X0059842Y0033955D02*
X0064550Y0033955D01*
X0066580Y0036139D02*
X0066580Y0027022D01*
X0064580Y0026962D02*
X0041649Y0026962D01*
X0043048Y0028361D02*
X0051315Y0028361D01*
X0053845Y0028361D02*
X0064580Y0028361D01*
X0064580Y0029759D02*
X0055646Y0029759D01*
X0057045Y0031158D02*
X0064580Y0031158D01*
X0064580Y0032556D02*
X0058443Y0032556D01*
X0066580Y0036139D02*
X0066834Y0036393D01*
X0076283Y0036393D02*
X0076283Y0040625D01*
X0081280Y0045622D01*
X0083984Y0046542D02*
X0093980Y0046542D01*
X0093980Y0047940D02*
X0091129Y0047940D01*
X0093980Y0045143D02*
X0084130Y0045143D01*
X0081280Y0042122D02*
X0094580Y0042122D01*
X0095980Y0043522D01*
X0095980Y0049822D01*
X0090838Y0052136D02*
X0090697Y0052136D01*
X0089439Y0053534D02*
X0072780Y0053534D01*
X0072022Y0052136D02*
X0087263Y0052136D01*
X0088041Y0054933D02*
X0072780Y0054933D01*
X0072780Y0056331D02*
X0086642Y0056331D01*
X0086052Y0056922D02*
X0086052Y0056922D01*
X0084290Y0057730D02*
X0072918Y0057730D01*
X0073630Y0059128D02*
X0082890Y0059128D01*
X0085480Y0060322D02*
X0086880Y0058922D01*
X0082630Y0060527D02*
X0073490Y0060527D01*
X0072507Y0061925D02*
X0083059Y0061925D01*
X0087901Y0061925D02*
X0093936Y0061925D01*
X0093980Y0063324D02*
X0069610Y0063324D01*
X0069053Y0061925D02*
X0068212Y0061925D01*
X0068070Y0060527D02*
X0066813Y0060527D01*
X0064400Y0059228D02*
X0059747Y0059228D01*
X0059747Y0059228D01*
X0064400Y0059228D01*
X0064400Y0059128D02*
X0067930Y0059128D01*
X0068642Y0057730D02*
X0064322Y0057730D01*
X0064000Y0056331D02*
X0068780Y0056331D01*
X0068780Y0054933D02*
X0064000Y0054933D01*
X0066880Y0049822D02*
X0070780Y0053722D01*
X0070780Y0059622D01*
X0071009Y0064722D02*
X0093980Y0064722D01*
X0095980Y0066622D02*
X0095980Y0073622D01*
X0097380Y0073622D01*
X0105779Y0082021D01*
X0105779Y0086777D01*
X0110079Y0087098D02*
X0111079Y0087098D01*
X0111079Y0087077D02*
X0115479Y0087077D01*
X0115479Y0094477D01*
X0115409Y0094477D01*
X0114679Y0094361D01*
X0113975Y0094133D01*
X0113316Y0093797D01*
X0112717Y0093362D01*
X0112194Y0092839D01*
X0111759Y0092240D01*
X0111424Y0091581D01*
X0111195Y0090877D01*
X0111079Y0090147D01*
X0111079Y0087077D01*
X0111079Y0085700D02*
X0110079Y0085700D01*
X0110079Y0084301D02*
X0111079Y0084301D01*
X0111159Y0082903D02*
X0110071Y0082903D01*
X0109492Y0081504D02*
X0111662Y0081504D01*
X0119896Y0081504D02*
X0122237Y0081504D01*
X0121683Y0082903D02*
X0120399Y0082903D01*
X0120479Y0084301D02*
X0121580Y0084301D01*
X0121580Y0085700D02*
X0120479Y0085700D01*
X0120479Y0087077D02*
X0120479Y0090147D01*
X0120363Y0090877D01*
X0120135Y0091581D01*
X0119799Y0092240D01*
X0119364Y0092839D01*
X0118841Y0093362D01*
X0118243Y0093797D01*
X0117583Y0094133D01*
X0116880Y0094361D01*
X0116149Y0094477D01*
X0116079Y0094477D01*
X0116079Y0087077D01*
X0120479Y0087077D01*
X0120479Y0087098D02*
X0125980Y0087098D01*
X0125980Y0088497D02*
X0126580Y0088497D01*
X0126580Y0089895D02*
X0125980Y0089895D01*
X0125980Y0091294D02*
X0126580Y0091294D01*
X0126580Y0092692D02*
X0125980Y0092692D01*
X0125980Y0094091D02*
X0126580Y0094091D01*
X0124110Y0094091D02*
X0117665Y0094091D01*
X0116079Y0094091D02*
X0115479Y0094091D01*
X0115479Y0092692D02*
X0116079Y0092692D01*
X0116079Y0091294D02*
X0115479Y0091294D01*
X0115479Y0089895D02*
X0116079Y0089895D01*
X0116079Y0088497D02*
X0115479Y0088497D01*
X0115479Y0087098D02*
X0116079Y0087098D01*
X0120479Y0088497D02*
X0121580Y0088497D01*
X0121580Y0089895D02*
X0120479Y0089895D01*
X0120228Y0091294D02*
X0121784Y0091294D01*
X0122484Y0092692D02*
X0119470Y0092692D01*
X0113893Y0094091D02*
X0019612Y0094091D01*
X0019612Y0092692D02*
X0102614Y0092692D01*
X0101753Y0091294D02*
X0101214Y0091294D01*
X0098780Y0089722D02*
X0098330Y0089272D01*
X0098330Y0082062D01*
X0109980Y0078522D02*
X0165180Y0078522D01*
X0166280Y0079622D01*
X0169480Y0076422D01*
X0176480Y0076422D01*
X0184180Y0084122D01*
X0211480Y0084122D01*
X0221280Y0074322D01*
X0218696Y0073113D02*
X0211119Y0073113D01*
X0212095Y0071715D02*
X0220126Y0071715D01*
X0222434Y0071715D02*
X0230480Y0071715D01*
X0230480Y0073113D02*
X0223864Y0073113D01*
X0224130Y0074512D02*
X0230480Y0074512D01*
X0230480Y0075910D02*
X0223707Y0075910D01*
X0221121Y0077309D02*
X0230480Y0077309D01*
X0230480Y0078707D02*
X0219723Y0078707D01*
X0215465Y0077309D02*
X0195023Y0077309D01*
X0195997Y0075910D02*
X0216863Y0075910D01*
X0218262Y0074512D02*
X0196130Y0074512D01*
X0193280Y0075022D02*
X0192120Y0073862D01*
X0184880Y0073862D01*
X0180627Y0074512D02*
X0177398Y0074512D01*
X0178797Y0075910D02*
X0180627Y0075910D01*
X0180977Y0077309D02*
X0180195Y0077309D01*
X0181594Y0078707D02*
X0214066Y0078707D01*
X0212667Y0080106D02*
X0182993Y0080106D01*
X0184391Y0081504D02*
X0211269Y0081504D01*
X0214129Y0084301D02*
X0230480Y0084301D01*
X0230480Y0082903D02*
X0215527Y0082903D01*
X0216926Y0081504D02*
X0230480Y0081504D01*
X0230480Y0080106D02*
X0218324Y0080106D01*
X0212730Y0085700D02*
X0230480Y0085700D01*
X0230480Y0087098D02*
X0180580Y0087098D01*
X0180580Y0085700D02*
X0182930Y0085700D01*
X0182180Y0084950D02*
X0182180Y0084950D01*
X0181531Y0084301D02*
X0180580Y0084301D01*
X0180580Y0088497D02*
X0230480Y0088497D01*
X0230480Y0089895D02*
X0180580Y0089895D01*
X0180366Y0091294D02*
X0230480Y0091294D01*
X0232480Y0093922D02*
X0232480Y0067322D01*
X0229893Y0066121D02*
X0214780Y0066121D01*
X0214780Y0067519D02*
X0229630Y0067519D01*
X0230056Y0068918D02*
X0214254Y0068918D01*
X0209713Y0067519D02*
X0196130Y0067519D01*
X0195867Y0066121D02*
X0210580Y0066121D01*
X0210580Y0064722D02*
X0195280Y0064722D01*
X0191280Y0064722D02*
X0189533Y0064722D01*
X0189533Y0067519D02*
X0190430Y0067519D01*
X0190856Y0068918D02*
X0189533Y0068918D01*
X0188850Y0070316D02*
X0206530Y0070316D01*
X0206665Y0071715D02*
X0189133Y0071715D01*
X0195402Y0073113D02*
X0207641Y0073113D01*
X0212855Y0070316D02*
X0230480Y0070316D01*
X0234480Y0070316D02*
X0270054Y0070316D01*
X0270054Y0071715D02*
X0234480Y0071715D01*
X0234480Y0073113D02*
X0270054Y0073113D01*
X0270054Y0074512D02*
X0234480Y0074512D01*
X0234480Y0075910D02*
X0270054Y0075910D01*
X0270054Y0077309D02*
X0234480Y0077309D01*
X0234480Y0078707D02*
X0270054Y0078707D01*
X0270054Y0080106D02*
X0234480Y0080106D01*
X0234480Y0081504D02*
X0270054Y0081504D01*
X0270054Y0082903D02*
X0234480Y0082903D01*
X0234480Y0084301D02*
X0270054Y0084301D01*
X0270054Y0085700D02*
X0234480Y0085700D01*
X0234480Y0087098D02*
X0270054Y0087098D01*
X0270054Y0088497D02*
X0234480Y0088497D01*
X0234480Y0089895D02*
X0270054Y0089895D01*
X0270054Y0091294D02*
X0234480Y0091294D01*
X0234480Y0092692D02*
X0270054Y0092692D01*
X0270054Y0094091D02*
X0234480Y0094091D01*
X0232480Y0093922D02*
X0231780Y0094622D01*
X0159680Y0094622D01*
X0156280Y0091222D01*
X0156280Y0086922D01*
X0151980Y0087098D02*
X0150580Y0087098D01*
X0150580Y0085700D02*
X0151980Y0085700D01*
X0151980Y0084301D02*
X0150580Y0084301D01*
X0150512Y0082903D02*
X0152048Y0082903D01*
X0152627Y0081504D02*
X0149933Y0081504D01*
X0150580Y0088497D02*
X0151980Y0088497D01*
X0151980Y0089895D02*
X0150580Y0089895D01*
X0150366Y0091294D02*
X0152194Y0091294D01*
X0152970Y0092692D02*
X0149590Y0092692D01*
X0147451Y0094091D02*
X0155109Y0094091D01*
X0157719Y0095489D02*
X0019612Y0095489D01*
X0019612Y0096888D02*
X0270054Y0096888D01*
X0270054Y0095489D02*
X0233741Y0095489D01*
X0191537Y0077309D02*
X0188783Y0077309D01*
X0189133Y0075910D02*
X0190563Y0075910D01*
X0195704Y0068918D02*
X0207254Y0068918D01*
X0214780Y0064722D02*
X0231308Y0064722D01*
X0233652Y0064722D02*
X0270054Y0064722D01*
X0270054Y0066121D02*
X0235067Y0066121D01*
X0235330Y0067519D02*
X0270054Y0067519D01*
X0270054Y0068918D02*
X0234904Y0068918D01*
X0214780Y0063324D02*
X0270054Y0063324D01*
X0270054Y0061925D02*
X0214780Y0061925D01*
X0214780Y0060527D02*
X0270054Y0060527D01*
X0270054Y0059128D02*
X0214780Y0059128D01*
X0214780Y0057730D02*
X0270054Y0057730D01*
X0270054Y0056331D02*
X0214780Y0056331D01*
X0214780Y0054933D02*
X0270054Y0054933D01*
X0270054Y0053534D02*
X0252724Y0053534D01*
X0252686Y0053556D02*
X0252254Y0053672D01*
X0248455Y0053672D01*
X0248455Y0050197D01*
X0247705Y0050197D01*
X0247705Y0053672D01*
X0243906Y0053672D01*
X0243474Y0053556D01*
X0243086Y0053332D01*
X0242770Y0053016D01*
X0242546Y0052628D01*
X0242430Y0052196D01*
X0242430Y0050197D01*
X0247705Y0050197D01*
X0247705Y0049447D01*
X0242430Y0049447D01*
X0242430Y0047448D01*
X0242546Y0047016D01*
X0242770Y0046628D01*
X0243086Y0046311D01*
X0243474Y0046088D01*
X0243906Y0045972D01*
X0247705Y0045972D01*
X0247705Y0049447D01*
X0248455Y0049447D01*
X0248455Y0050197D01*
X0253730Y0050197D01*
X0253730Y0052196D01*
X0253614Y0052628D01*
X0253390Y0053016D01*
X0253074Y0053332D01*
X0252686Y0053556D01*
X0253730Y0052136D02*
X0270054Y0052136D01*
X0270054Y0050737D02*
X0253730Y0050737D01*
X0253730Y0049447D02*
X0248455Y0049447D01*
X0248455Y0045972D01*
X0252254Y0045972D01*
X0252686Y0046088D01*
X0253074Y0046311D01*
X0253390Y0046628D01*
X0253614Y0047016D01*
X0253730Y0047448D01*
X0253730Y0049447D01*
X0253730Y0049339D02*
X0270054Y0049339D01*
X0270054Y0047940D02*
X0253730Y0047940D01*
X0253304Y0046542D02*
X0270054Y0046542D01*
X0270054Y0045143D02*
X0214780Y0045143D01*
X0217338Y0046542D02*
X0242856Y0046542D01*
X0242430Y0047940D02*
X0217930Y0047940D01*
X0217930Y0049339D02*
X0242430Y0049339D01*
X0242430Y0050737D02*
X0217930Y0050737D01*
X0217930Y0052136D02*
X0242430Y0052136D01*
X0243436Y0053534D02*
X0214780Y0053534D01*
X0185460Y0063324D02*
X0184300Y0063324D01*
X0180995Y0060527D02*
X0177703Y0060527D01*
X0179102Y0059128D02*
X0180627Y0059128D01*
X0172047Y0060527D02*
X0171656Y0060527D01*
X0152021Y0057045D02*
X0152021Y0057045D01*
X0148109Y0056331D02*
X0146972Y0056331D01*
X0146572Y0054933D02*
X0148509Y0054933D01*
X0148509Y0053534D02*
X0146572Y0053534D01*
X0146923Y0052136D02*
X0148509Y0052136D01*
X0148509Y0050737D02*
X0146972Y0050737D01*
X0146919Y0049339D02*
X0148509Y0049339D01*
X0148509Y0047940D02*
X0146972Y0047940D01*
X0143060Y0047596D02*
X0143060Y0047596D01*
X0155533Y0047940D02*
X0164362Y0047940D01*
X0163303Y0046542D02*
X0155533Y0046542D01*
X0155503Y0045143D02*
X0162790Y0045143D01*
X0168380Y0043745D02*
X0175030Y0043745D01*
X0175177Y0045143D02*
X0173370Y0045143D01*
X0159038Y0036752D02*
X0156600Y0036752D01*
X0156600Y0035354D02*
X0160437Y0035354D01*
X0161835Y0033955D02*
X0156600Y0033955D01*
X0152741Y0034040D02*
X0152741Y0030983D01*
X0156600Y0031158D02*
X0164632Y0031158D01*
X0163234Y0032556D02*
X0156600Y0032556D01*
X0141402Y0031158D02*
X0137838Y0031158D01*
X0131988Y0027114D02*
X0131988Y0018551D01*
X0137238Y0017173D02*
X0161738Y0017173D01*
X0161846Y0015774D02*
X0137150Y0015774D01*
X0126867Y0021368D02*
X0122689Y0021368D01*
X0124087Y0022767D02*
X0129988Y0022767D01*
X0129988Y0024165D02*
X0124706Y0024165D01*
X0124706Y0025564D02*
X0129988Y0025564D01*
X0129311Y0026962D02*
X0124691Y0026962D01*
X0123293Y0028361D02*
X0127912Y0028361D01*
X0115351Y0020222D02*
X0120406Y0015167D01*
X0116106Y0015774D02*
X0114706Y0015774D01*
X0114706Y0014376D02*
X0116106Y0014376D01*
X0116514Y0012977D02*
X0114298Y0012977D01*
X0112899Y0011579D02*
X0117913Y0011579D01*
X0122899Y0011579D02*
X0270054Y0011579D01*
X0270054Y0012977D02*
X0124298Y0012977D01*
X0115571Y0017173D02*
X0114481Y0017173D01*
X0106331Y0017173D02*
X0105047Y0017173D01*
X0105106Y0015774D02*
X0106106Y0015774D01*
X0106106Y0014376D02*
X0105106Y0014376D01*
X0104863Y0012977D02*
X0106514Y0012977D01*
X0107913Y0011579D02*
X0103465Y0011579D01*
X0097347Y0011579D02*
X0066321Y0011579D01*
X0066321Y0012977D02*
X0095949Y0012977D01*
X0095706Y0014376D02*
X0066321Y0014376D01*
X0066321Y0015774D02*
X0095706Y0015774D01*
X0095765Y0017173D02*
X0066321Y0017173D01*
X0066321Y0018571D02*
X0094702Y0018571D01*
X0096163Y0022767D02*
X0096725Y0022767D01*
X0096106Y0024165D02*
X0094765Y0024165D01*
X0093580Y0025564D02*
X0096106Y0025564D01*
X0096121Y0026962D02*
X0094049Y0026962D01*
X0095448Y0028361D02*
X0097519Y0028361D01*
X0092588Y0031158D02*
X0076872Y0031158D01*
X0078473Y0029759D02*
X0091189Y0029759D01*
X0089791Y0028361D02*
X0079359Y0028361D01*
X0079392Y0026962D02*
X0089580Y0026962D01*
X0089580Y0025564D02*
X0078553Y0025564D01*
X0072614Y0029759D02*
X0068580Y0029759D01*
X0068580Y0031158D02*
X0071215Y0031158D01*
X0082582Y0031740D02*
X0082582Y0036393D01*
X0082582Y0031740D01*
X0082582Y0032556D02*
X0082582Y0032556D01*
X0082582Y0033955D02*
X0082582Y0033955D01*
X0082582Y0035354D02*
X0082582Y0035354D01*
X0082582Y0036393D02*
X0082582Y0036393D01*
X0079432Y0036393D02*
X0079432Y0040274D01*
X0081280Y0042122D01*
X0076380Y0036490D02*
X0076283Y0036393D01*
X0075170Y0047940D02*
X0067827Y0047940D01*
X0069225Y0049339D02*
X0076568Y0049339D01*
X0077967Y0050737D02*
X0070624Y0050737D01*
X0055495Y0054933D02*
X0050540Y0054933D01*
X0047182Y0054933D02*
X0046023Y0054933D01*
X0046014Y0057730D02*
X0047173Y0057730D01*
X0047173Y0059128D02*
X0046014Y0059128D01*
X0050853Y0059128D02*
X0055095Y0059128D01*
X0055172Y0057730D02*
X0050778Y0057730D01*
X0055495Y0056331D02*
X0041122Y0056331D01*
X0042508Y0054933D02*
X0042664Y0054933D01*
X0037122Y0056331D02*
X0032149Y0056331D01*
X0032027Y0054933D02*
X0035736Y0054933D01*
X0035263Y0053534D02*
X0031249Y0053534D01*
X0031963Y0052136D02*
X0035263Y0052136D01*
X0035263Y0050737D02*
X0032149Y0050737D01*
X0031781Y0049339D02*
X0034664Y0049339D01*
X0035255Y0057730D02*
X0031717Y0057730D01*
X0031694Y0059128D02*
X0035255Y0059128D01*
X0035255Y0060527D02*
X0032149Y0060527D01*
X0032051Y0061925D02*
X0035255Y0061925D01*
X0035255Y0063324D02*
X0031305Y0063324D01*
X0031940Y0064722D02*
X0035298Y0064722D01*
X0037114Y0066121D02*
X0032149Y0066121D01*
X0031805Y0067519D02*
X0037114Y0067519D01*
X0035255Y0068918D02*
X0031607Y0068918D01*
X0032149Y0070316D02*
X0035255Y0070316D01*
X0035255Y0071715D02*
X0032138Y0071715D01*
X0031516Y0073113D02*
X0035255Y0073113D01*
X0035255Y0074512D02*
X0031853Y0074512D01*
X0032149Y0075910D02*
X0035562Y0075910D01*
X0031892Y0077309D02*
X0066937Y0077309D01*
X0064550Y0078707D02*
X0062116Y0078707D01*
X0059844Y0078707D02*
X0051023Y0078707D01*
X0051255Y0080106D02*
X0058399Y0080106D01*
X0059872Y0082430D02*
X0060980Y0081322D01*
X0059872Y0082430D02*
X0047396Y0082430D01*
X0051255Y0085700D02*
X0064696Y0085700D01*
X0064550Y0084301D02*
X0060829Y0084301D01*
X0063410Y0082903D02*
X0064550Y0082903D01*
X0064550Y0081504D02*
X0063830Y0081504D01*
X0063561Y0080106D02*
X0064550Y0080106D01*
X0055495Y0075910D02*
X0050627Y0075910D01*
X0050853Y0074512D02*
X0055495Y0074512D01*
X0055495Y0073113D02*
X0050853Y0073113D01*
X0047173Y0073113D02*
X0046014Y0073113D01*
X0047174Y0071715D02*
X0055495Y0071715D01*
X0055495Y0070316D02*
X0050853Y0070316D01*
X0050848Y0068918D02*
X0055495Y0068918D01*
X0055495Y0067519D02*
X0053811Y0067519D01*
X0055209Y0066121D02*
X0055495Y0066121D01*
X0052350Y0063324D02*
X0050853Y0063324D01*
X0050853Y0061925D02*
X0053748Y0061925D01*
X0055119Y0060527D02*
X0050853Y0060527D01*
X0047173Y0060527D02*
X0046014Y0060527D01*
X0064000Y0064722D02*
X0065352Y0064722D01*
X0064000Y0066121D02*
X0066751Y0066121D01*
X0068149Y0067519D02*
X0064000Y0067519D01*
X0064000Y0068918D02*
X0069548Y0068918D01*
X0064000Y0070316D02*
X0093980Y0070316D01*
X0097980Y0070316D02*
X0101164Y0070316D01*
X0101164Y0071715D02*
X0098301Y0071715D01*
X0099700Y0073113D02*
X0101164Y0073113D01*
X0101164Y0074512D02*
X0101098Y0074512D01*
X0095980Y0073622D02*
X0088280Y0073622D01*
X0085732Y0076170D01*
X0096203Y0088497D02*
X0019612Y0088497D01*
X0019612Y0089895D02*
X0095930Y0089895D01*
X0096346Y0091294D02*
X0019612Y0091294D01*
X0046014Y0075910D02*
X0047173Y0075910D01*
X0047173Y0074512D02*
X0046014Y0074512D01*
X0108945Y0092692D02*
X0112088Y0092692D01*
X0111330Y0091294D02*
X0109805Y0091294D01*
X0110079Y0089895D02*
X0111079Y0089895D01*
X0111079Y0088497D02*
X0110079Y0088497D01*
X0130980Y0085700D02*
X0131980Y0085700D01*
X0131980Y0084301D02*
X0130980Y0084301D01*
X0130877Y0082903D02*
X0132048Y0082903D01*
X0132627Y0081504D02*
X0130323Y0081504D01*
X0166280Y0079622D02*
X0166280Y0086922D01*
X0247705Y0053534D02*
X0248455Y0053534D01*
X0248455Y0052136D02*
X0247705Y0052136D01*
X0247705Y0050737D02*
X0248455Y0050737D01*
X0248455Y0049339D02*
X0247705Y0049339D01*
X0247705Y0047940D02*
X0248455Y0047940D01*
X0248455Y0046542D02*
X0247705Y0046542D01*
X0201737Y0039549D02*
X0195683Y0039549D01*
X0172916Y0021368D02*
X0270054Y0021368D01*
X0270054Y0019970D02*
X0173038Y0019970D01*
X0167763Y0019970D02*
X0167013Y0019970D01*
X0167013Y0021368D02*
X0167763Y0021368D01*
X0167763Y0017173D02*
X0167013Y0017173D01*
X0167013Y0015774D02*
X0167763Y0015774D01*
X0141402Y0036752D02*
X0134849Y0036752D01*
X0134849Y0038151D02*
X0142021Y0038151D01*
X0113386Y0049339D02*
X0109669Y0049339D01*
X0109669Y0047940D02*
X0110368Y0047940D01*
X0109938Y0043480D02*
X0105417Y0043480D01*
X0040099Y0015774D02*
X0019612Y0015774D01*
X0019612Y0014376D02*
X0040099Y0014376D01*
X0040099Y0012977D02*
X0019612Y0012977D01*
X0019612Y0011579D02*
X0040099Y0011579D01*
X0026092Y0040957D02*
X0026092Y0040957D01*
D25*
X0033680Y0072222D03*
D26*
X0060980Y0081322D03*
X0068680Y0075022D03*
X0085480Y0060322D03*
X0070780Y0059622D03*
X0088980Y0049822D03*
X0081280Y0045622D03*
X0061680Y0038622D03*
X0052580Y0030922D03*
X0069780Y0023822D03*
X0076580Y0027622D03*
X0103680Y0033722D03*
X0112080Y0045622D03*
X0125380Y0046322D03*
X0137280Y0050522D03*
X0123980Y0063122D03*
X0116280Y0068822D03*
X0109980Y0078522D03*
X0098780Y0089722D03*
X0152080Y0073522D03*
X0193280Y0075022D03*
X0209380Y0070822D03*
X0221280Y0074322D03*
X0232480Y0067322D03*
X0193280Y0067322D03*
X0177880Y0044222D03*
X0193980Y0037222D03*
X0136580Y0033722D03*
X0098780Y0054722D03*
D27*
X0130649Y0051715D02*
X0131474Y0051715D01*
X0135180Y0055422D01*
X0135180Y0058222D01*
X0136580Y0059622D01*
X0139380Y0059622D01*
D28*
X0199580Y0034422D02*
X0203380Y0038222D01*
X0209680Y0038222D01*
X0212680Y0041222D01*
X0212680Y0049822D01*
X0212680Y0067522D01*
X0209380Y0070822D01*
M02*
