G75*
%MOIN*%
%OFA0B0*%
%FSLAX25Y25*%
%IPPOS*%
%LPD*%
%AMOC8*
5,1,8,0,0,1.08239X$1,22.5*
%
%ADD10C,0.00600*%
%ADD11C,0.00500*%
%ADD12C,0.02400*%
%ADD13C,0.00400*%
D10*
X0045894Y0012715D02*
X0046451Y0012158D01*
X0047564Y0012158D01*
X0048120Y0012715D01*
X0045894Y0014941D01*
X0045894Y0012715D01*
X0048120Y0012715D02*
X0048120Y0014941D01*
X0047564Y0015498D01*
X0046451Y0015498D01*
X0045894Y0014941D01*
X0047628Y0017333D02*
X0048741Y0017333D01*
X0048185Y0017333D02*
X0048185Y0020673D01*
X0048741Y0020673D02*
X0047628Y0020673D01*
X0050140Y0020673D02*
X0052367Y0020673D01*
X0052367Y0017333D01*
X0053670Y0017333D02*
X0054783Y0017333D01*
X0054227Y0017333D02*
X0054227Y0020673D01*
X0054783Y0020673D02*
X0053670Y0020673D01*
X0052367Y0019003D02*
X0051253Y0019003D01*
X0056182Y0017333D02*
X0056182Y0020673D01*
X0058408Y0020673D02*
X0058408Y0017333D01*
X0057295Y0018446D01*
X0056182Y0017333D01*
X0058582Y0015498D02*
X0058582Y0013271D01*
X0059695Y0012158D01*
X0060808Y0013271D01*
X0060808Y0015498D01*
X0053558Y0014385D02*
X0052445Y0015498D01*
X0052445Y0012158D01*
X0053558Y0012158D02*
X0051332Y0012158D01*
X0049933Y0012158D02*
X0049376Y0012158D01*
X0049376Y0012715D01*
X0049933Y0012715D01*
X0049933Y0012158D01*
D11*
X0179197Y0021432D02*
X0179197Y0084424D01*
X0244945Y0084424D02*
X0273686Y0084424D01*
X0273686Y0021432D01*
X0244945Y0021432D01*
D12*
X0248882Y0034030D02*
X0248882Y0059621D01*
X0256756Y0059621D02*
X0270536Y0059621D01*
X0270536Y0075369D01*
X0256756Y0059621D02*
X0256756Y0055290D01*
X0270536Y0055290D01*
X0270536Y0050960D01*
X0256363Y0050960D01*
X0256363Y0046235D01*
X0270536Y0046235D01*
X0270536Y0041511D01*
X0256363Y0041511D01*
X0256363Y0037574D01*
X0270930Y0037574D01*
X0270930Y0034030D01*
X0251638Y0034030D01*
X0251245Y0034030D02*
X0248882Y0034030D01*
D13*
X0234995Y0032896D02*
X0229791Y0032896D01*
X0229791Y0036366D01*
X0230658Y0038053D02*
X0229791Y0038920D01*
X0229791Y0040655D01*
X0230658Y0041522D01*
X0231526Y0041522D01*
X0232393Y0040655D01*
X0232393Y0038920D01*
X0233261Y0038053D01*
X0234128Y0038053D01*
X0234995Y0038920D01*
X0234995Y0040655D01*
X0234128Y0041522D01*
X0234995Y0043209D02*
X0229791Y0043209D01*
X0231526Y0043209D02*
X0231526Y0045811D01*
X0232393Y0046679D01*
X0234128Y0046679D01*
X0234995Y0045811D01*
X0234995Y0043209D01*
X0234995Y0036366D02*
X0234995Y0032896D01*
X0232393Y0032896D02*
X0232393Y0034631D01*
X0277429Y0030965D02*
X0282633Y0030965D01*
X0280031Y0028363D01*
X0280031Y0031833D01*
X0278296Y0026676D02*
X0282633Y0026676D01*
X0278296Y0026676D02*
X0277429Y0025809D01*
X0277429Y0024074D01*
X0278296Y0023207D01*
X0282633Y0023207D01*
X0232393Y0053522D02*
X0232393Y0056991D01*
X0233261Y0063835D02*
X0234995Y0065569D01*
X0229791Y0065569D01*
X0229791Y0063835D02*
X0229791Y0067304D01*
X0229791Y0068991D02*
X0233261Y0072461D01*
X0234128Y0072461D01*
X0234995Y0071593D01*
X0234995Y0069858D01*
X0234128Y0068991D01*
X0229791Y0068991D02*
X0229791Y0072461D01*
M02*
