%
M48
M72
T01C0.01200
T02C0.01500
T03C0.02756
T04C0.04000
%
T01
X33680Y72222
T02
X60980Y81322
X68680Y75022
X85480Y60322
X70780Y59622
X88980Y49822
X81280Y45622
X61680Y38622
X52580Y30922
X69780Y23822
X76580Y27622
X103680Y33722
X112080Y45622
X125380Y46322
X137280Y50522
X123980Y63122
X116280Y68822
X109980Y78522
X98780Y89722
X152080Y73522
X193280Y75022
X209380Y70822
X221280Y74322
X232480Y67322
X193280Y67322
X177880Y44222
X193980Y37222
X136580Y33722
X98780Y54722
T03
X26093Y20957
X26093Y25957
X26093Y30957
X26093Y35957
X26093Y40957
X26093Y45957
X26093Y50957
X26093Y55957
X26093Y60957
X26093Y65957
X26093Y70957
X26093Y75957
X26093Y80957
T04
X105779Y86777
X115779Y86777
X126280Y86922
X136280Y86922
X146280Y86922
X156280Y86922
X166280Y86922
X176280Y86922
X168080Y64022
X168080Y54022
X168080Y44022
X120406Y25167
X110406Y25167
X100406Y25167
X100406Y15167
X110406Y15167
X120406Y15167
M30
