G75*
%MOIN*%
%OFA0B0*%
%FSLAX25Y25*%
%IPPOS*%
%LPD*%
%AMOC8*
5,1,8,0,0,1.08239X$1,22.5*
%
%ADD10R,0.05118X0.05906*%
%ADD11R,0.05906X0.05118*%
%ADD12R,0.05512X0.06299*%
%ADD13R,0.01969X0.05906*%
%ADD14R,0.05906X0.01969*%
%ADD15R,0.04424X0.01969*%
%ADD16R,0.01969X0.04424*%
%ADD17R,0.07900X0.04300*%
D10*
X0039122Y0050968D03*
X0046602Y0050968D03*
X0046594Y0061187D03*
X0039114Y0061187D03*
X0039114Y0072111D03*
X0046594Y0072111D03*
X0047396Y0082430D03*
X0039915Y0082430D03*
X0128904Y0070706D03*
X0136385Y0070706D03*
X0145261Y0034040D03*
X0152741Y0034040D03*
D11*
X0184880Y0032782D03*
X0184880Y0040262D03*
X0184880Y0049582D03*
X0184880Y0057062D03*
X0184880Y0066382D03*
X0184880Y0073862D03*
X0130649Y0059196D03*
X0118039Y0058533D03*
X0130649Y0051715D03*
X0118039Y0051052D03*
D12*
X0119770Y0040399D03*
X0130793Y0040399D03*
D13*
X0066834Y0036393D03*
X0069984Y0036393D03*
X0073133Y0036393D03*
X0076283Y0036393D03*
X0079432Y0036393D03*
X0082582Y0036393D03*
X0085732Y0036393D03*
X0088881Y0036393D03*
X0092031Y0036393D03*
X0095180Y0036393D03*
X0098330Y0036393D03*
X0098330Y0082062D03*
X0095180Y0082062D03*
X0092031Y0082062D03*
X0088881Y0082062D03*
X0085732Y0082062D03*
X0082582Y0082062D03*
X0079432Y0082062D03*
X0076283Y0082062D03*
X0073133Y0082062D03*
X0069984Y0082062D03*
X0066834Y0082062D03*
D14*
X0059747Y0074976D03*
X0059747Y0071826D03*
X0059747Y0068677D03*
X0059747Y0065527D03*
X0059747Y0062377D03*
X0059747Y0059228D03*
X0059747Y0056078D03*
X0059747Y0052929D03*
X0059747Y0049779D03*
X0059747Y0046629D03*
X0059747Y0043480D03*
X0105417Y0043480D03*
X0105417Y0046629D03*
X0105417Y0049779D03*
X0105417Y0052929D03*
X0105417Y0056078D03*
X0105417Y0059228D03*
X0105417Y0062377D03*
X0105417Y0065527D03*
X0105417Y0068677D03*
X0105417Y0071826D03*
X0105417Y0074976D03*
D15*
X0143060Y0060195D03*
X0143060Y0057045D03*
X0143060Y0053895D03*
X0143060Y0050746D03*
X0143060Y0047596D03*
X0143060Y0044447D03*
X0151991Y0044447D03*
X0152021Y0047596D03*
X0152021Y0050746D03*
X0152021Y0053895D03*
X0152021Y0057045D03*
X0152021Y0060195D03*
D16*
X0147540Y0060588D03*
X0147540Y0044053D03*
D17*
X0212680Y0049822D03*
X0248080Y0049822D03*
X0167388Y0018551D03*
X0131988Y0018551D03*
M02*
