%
M48
M72
T01C0.01181
T02C0.01300
T03C0.01450
T04C0.01500
T05C0.02756
T06C0.03200
T07C0.04000
%
T01
X111801Y38878
X125287Y45671
X127649Y25986
X186187Y63871
X209287Y84871
X198787Y96071
X198787Y106571
T02
X168080Y105822
X144980Y92522
X137280Y49122
X33680Y72222
T03
X84480Y54622
X90980Y56322
X86480Y98322
X95980Y98722
X91380Y109522
X181180Y107722
T04
X138680Y96722
X158280Y84822
X113480Y65222
X123980Y63122
X96680Y58922
X78780Y62322
X70780Y59622
X75280Y46022
X61680Y38622
X52580Y30922
X66580Y20422
X75480Y26522
X87886Y25593
X89067Y15750
X52452Y17325
X103680Y35122
X111380Y49122
X137492Y33467
X160380Y31622
X167380Y54722
X186980Y56122
X226880Y68722
X214980Y75022
X259780Y57522
X268180Y57522
X268180Y49122
X234580Y28822
X277280Y86222
X288480Y97422
X105080Y81322
X95980Y73622
X75680Y73622
X60980Y81322
X81980Y92522
X48122Y94490
T05
X26093Y20957
X26093Y25957
X26093Y30957
X26093Y35957
X26093Y40957
X26093Y45957
X26093Y50957
X26093Y55957
X26093Y60957
X26093Y65957
X26093Y70957
X26093Y75957
X26093Y80957
T06
X186280Y47122
X186280Y37122
T07
X120406Y25167
X110406Y25167
X100406Y25167
X100406Y15167
X110406Y15167
X120406Y15167
X116979Y93077
X126979Y93077
M30
