G75*
%MOIN*%
%OFA0B0*%
%FSLAX25Y25*%
%IPPOS*%
%LPD*%
%AMOC8*
5,1,8,0,0,1.08239X$1,22.5*
%
%ADD10R,0.05918X0.06706*%
%ADD11R,0.06706X0.05918*%
%ADD12R,0.06312X0.07099*%
%ADD13R,0.02769X0.06706*%
%ADD14R,0.06706X0.02769*%
%ADD15OC8,0.06800*%
%ADD16R,0.05224X0.02769*%
%ADD17R,0.02769X0.05224*%
%ADD18C,0.05556*%
%ADD19C,0.06800*%
%ADD20R,0.08700X0.05100*%
%ADD21R,0.03950X0.08674*%
%ADD22R,0.08674X0.03950*%
%ADD23R,0.05524X0.03556*%
%ADD24OC8,0.06000*%
%ADD25R,0.04343X0.03950*%
%ADD26R,0.05524X0.05524*%
%ADD27R,0.09461X0.04737*%
%ADD28R,0.06509X0.04737*%
%ADD29C,0.03700*%
%ADD30C,0.03900*%
%ADD31C,0.03581*%
%ADD32C,0.03850*%
D10*
X0039122Y0050968D03*
X0046602Y0050968D03*
X0046594Y0061187D03*
X0039114Y0061187D03*
X0039114Y0072111D03*
X0046594Y0072111D03*
X0052515Y0088030D03*
X0059996Y0088030D03*
X0121104Y0069306D03*
X0128585Y0069306D03*
X0145261Y0034040D03*
X0152741Y0034040D03*
X0240640Y0107922D03*
X0248120Y0107922D03*
D11*
X0189780Y0100462D03*
X0181380Y0100462D03*
X0172980Y0100462D03*
X0163180Y0100462D03*
X0153380Y0100462D03*
X0153380Y0092982D03*
X0163180Y0092982D03*
X0172980Y0092982D03*
X0181380Y0092982D03*
X0189780Y0092982D03*
X0130649Y0059196D03*
X0118039Y0058533D03*
X0118039Y0051052D03*
X0130649Y0051715D03*
X0176480Y0045162D03*
X0176480Y0037682D03*
D12*
X0130793Y0040399D03*
X0119770Y0040399D03*
D13*
X0098330Y0036393D03*
X0095180Y0036393D03*
X0092031Y0036393D03*
X0088881Y0036393D03*
X0085732Y0036393D03*
X0082582Y0036393D03*
X0079432Y0036393D03*
X0076283Y0036393D03*
X0073133Y0036393D03*
X0069984Y0036393D03*
X0066834Y0036393D03*
X0066834Y0082062D03*
X0069984Y0082062D03*
X0073133Y0082062D03*
X0076283Y0082062D03*
X0079432Y0082062D03*
X0082582Y0082062D03*
X0085732Y0082062D03*
X0088881Y0082062D03*
X0092031Y0082062D03*
X0095180Y0082062D03*
X0098330Y0082062D03*
D14*
X0105417Y0074976D03*
X0105417Y0071826D03*
X0105417Y0068677D03*
X0105417Y0065527D03*
X0105417Y0062377D03*
X0105417Y0059228D03*
X0105417Y0056078D03*
X0105417Y0052929D03*
X0105417Y0049779D03*
X0105417Y0046629D03*
X0105417Y0043480D03*
X0059747Y0043480D03*
X0059747Y0046629D03*
X0059747Y0049779D03*
X0059747Y0052929D03*
X0059747Y0056078D03*
X0059747Y0059228D03*
X0059747Y0062377D03*
X0059747Y0065527D03*
X0059747Y0068677D03*
X0059747Y0071826D03*
X0059747Y0074976D03*
D15*
X0100406Y0025167D03*
X0110406Y0025167D03*
X0120406Y0025167D03*
X0120406Y0015167D03*
X0110406Y0015167D03*
X0100406Y0015167D03*
D16*
X0143060Y0044447D03*
X0143060Y0047596D03*
X0143060Y0050746D03*
X0143060Y0053895D03*
X0143060Y0057045D03*
X0143060Y0060195D03*
X0152021Y0060195D03*
X0152021Y0057045D03*
X0152021Y0053895D03*
X0152021Y0050746D03*
X0152021Y0047596D03*
X0151991Y0044447D03*
D17*
X0147540Y0044053D03*
X0147540Y0060588D03*
D18*
X0028471Y0020957D02*
X0023715Y0020957D01*
X0023715Y0025957D02*
X0028471Y0025957D01*
X0028471Y0030957D02*
X0023715Y0030957D01*
X0023715Y0035957D02*
X0028471Y0035957D01*
X0028471Y0040957D02*
X0023715Y0040957D01*
X0023715Y0045957D02*
X0028471Y0045957D01*
X0028471Y0050957D02*
X0023715Y0050957D01*
X0023715Y0055957D02*
X0028471Y0055957D01*
X0028471Y0060957D02*
X0023715Y0060957D01*
X0023715Y0065957D02*
X0028471Y0065957D01*
X0028471Y0070957D02*
X0023715Y0070957D01*
X0023715Y0075957D02*
X0028471Y0075957D01*
X0028471Y0080957D02*
X0023715Y0080957D01*
D19*
X0116979Y0090077D02*
X0116979Y0096077D01*
X0126979Y0096077D02*
X0126979Y0090077D01*
D20*
X0131988Y0018551D03*
X0167388Y0018551D03*
D21*
X0210337Y0019749D03*
X0215337Y0019749D03*
X0220849Y0019749D03*
X0226361Y0019749D03*
X0231873Y0019749D03*
X0237385Y0019749D03*
X0242897Y0019749D03*
X0248408Y0019749D03*
X0253920Y0019749D03*
X0259432Y0019749D03*
X0264944Y0019749D03*
X0270456Y0019749D03*
X0270456Y0097701D03*
X0264944Y0097701D03*
X0259432Y0097701D03*
X0253920Y0097701D03*
X0248408Y0097701D03*
X0242897Y0097701D03*
X0237385Y0097701D03*
X0231873Y0097701D03*
X0226361Y0097701D03*
X0220849Y0097701D03*
X0215337Y0097701D03*
X0210337Y0097701D03*
D22*
X0195259Y0080772D03*
X0195259Y0075260D03*
X0195259Y0069749D03*
X0195023Y0064237D03*
X0195259Y0058725D03*
X0195259Y0053213D03*
X0195259Y0047701D03*
X0195259Y0042189D03*
X0195259Y0036678D03*
X0285023Y0036678D03*
X0285023Y0042189D03*
X0285023Y0047701D03*
X0285023Y0053213D03*
X0285023Y0058725D03*
X0285023Y0064237D03*
X0285023Y0069749D03*
X0285023Y0075260D03*
X0285023Y0080772D03*
D23*
X0287363Y0108622D03*
X0272797Y0108622D03*
D24*
X0186280Y0047122D03*
X0186280Y0037122D03*
D25*
X0171843Y0052382D03*
X0180111Y0056122D03*
X0171843Y0059862D03*
D26*
X0257046Y0108622D03*
X0265314Y0108622D03*
D27*
X0176240Y0080467D03*
X0176240Y0070034D03*
X0178580Y0024949D03*
X0178580Y0014516D03*
D28*
X0184092Y0019752D03*
X0181752Y0075270D03*
D29*
X0144980Y0092522D03*
X0168080Y0105822D03*
X0137280Y0049122D03*
X0033680Y0072222D03*
D30*
X0060980Y0081322D03*
X0075680Y0073622D03*
X0095980Y0073622D03*
X0105080Y0081322D03*
X0081980Y0092522D03*
X0048122Y0094490D03*
X0113480Y0065222D03*
X0123980Y0063122D03*
X0096680Y0058922D03*
X0078780Y0062322D03*
X0070780Y0059622D03*
X0075280Y0046022D03*
X0061680Y0038622D03*
X0052580Y0030922D03*
X0066580Y0020422D03*
X0075480Y0026522D03*
X0087886Y0025593D03*
X0089067Y0015750D03*
X0052452Y0017325D03*
X0103680Y0035122D03*
X0111380Y0049122D03*
X0137492Y0033467D03*
X0160380Y0031622D03*
X0167380Y0054722D03*
X0186980Y0056122D03*
X0226880Y0068722D03*
X0214980Y0075022D03*
X0259780Y0057522D03*
X0268180Y0057522D03*
X0268180Y0049122D03*
X0234580Y0028822D03*
X0158280Y0084822D03*
X0138680Y0096722D03*
X0277280Y0086222D03*
X0288480Y0097422D03*
D31*
X0209287Y0084871D03*
X0198787Y0096071D03*
X0198787Y0106571D03*
X0186187Y0063871D03*
X0125287Y0045671D03*
X0111801Y0038878D03*
X0127649Y0025986D03*
D32*
X0084480Y0054622D03*
X0090980Y0056322D03*
X0086480Y0098322D03*
X0095980Y0098722D03*
X0091380Y0109522D03*
X0181180Y0107722D03*
M02*
