G75*
%MOIN*%
%OFA0B0*%
%FSLAX25Y25*%
%IPPOS*%
%LPD*%
%AMOC8*
5,1,8,0,0,1.08239X$1,22.5*
%
%ADD10R,0.23622X0.13780*%
%ADD11OC8,0.06000*%
%ADD12C,0.04756*%
%ADD13C,0.06000*%
%ADD14R,0.06693X0.05118*%
%ADD15R,0.05906X0.05118*%
%ADD16OC8,0.05200*%
%ADD17C,0.01400*%
%ADD18C,0.02900*%
%ADD19C,0.03100*%
%ADD20C,0.02781*%
%ADD21C,0.01000*%
%ADD22C,0.03050*%
D10*
X0032120Y0106359D03*
D11*
X0100406Y0025167D03*
X0110406Y0025167D03*
X0120406Y0025167D03*
X0120406Y0015167D03*
X0110406Y0015167D03*
X0100406Y0015167D03*
D12*
X0028471Y0020957D02*
X0023715Y0020957D01*
X0023715Y0025957D02*
X0028471Y0025957D01*
X0028471Y0030957D02*
X0023715Y0030957D01*
X0023715Y0035957D02*
X0028471Y0035957D01*
X0028471Y0040957D02*
X0023715Y0040957D01*
X0023715Y0045957D02*
X0028471Y0045957D01*
X0028471Y0050957D02*
X0023715Y0050957D01*
X0023715Y0055957D02*
X0028471Y0055957D01*
X0028471Y0060957D02*
X0023715Y0060957D01*
X0023715Y0065957D02*
X0028471Y0065957D01*
X0028471Y0070957D02*
X0023715Y0070957D01*
X0023715Y0075957D02*
X0028471Y0075957D01*
X0028471Y0080957D02*
X0023715Y0080957D01*
D13*
X0116979Y0090077D02*
X0116979Y0096077D01*
X0126979Y0096077D02*
X0126979Y0090077D01*
D14*
X0174889Y0062808D03*
X0174889Y0052808D03*
X0174889Y0042808D03*
X0276071Y0042808D03*
X0276071Y0052808D03*
X0276071Y0062808D03*
D15*
X0254180Y0067782D03*
X0254180Y0075262D03*
D16*
X0186280Y0047122D03*
X0186280Y0037122D03*
D17*
X0021589Y0017424D02*
X0021584Y0012122D01*
X0096804Y0012122D01*
X0095706Y0013220D01*
X0095706Y0014867D01*
X0100106Y0014867D01*
X0100106Y0015467D01*
X0095706Y0015467D01*
X0095706Y0017113D01*
X0096614Y0018022D01*
X0068776Y0018022D01*
X0068421Y0017667D01*
X0067226Y0017172D01*
X0065934Y0017172D01*
X0064739Y0017667D01*
X0063825Y0018581D01*
X0063330Y0019775D01*
X0063330Y0020278D01*
X0060050Y0023557D01*
X0031838Y0023557D01*
X0031738Y0023457D01*
X0031928Y0023267D01*
X0032549Y0021768D01*
X0032549Y0020146D01*
X0031928Y0018647D01*
X0030781Y0017500D01*
X0029282Y0016879D01*
X0022904Y0016879D01*
X0021589Y0017424D01*
X0021589Y0017211D02*
X0022102Y0017211D01*
X0021588Y0015813D02*
X0095706Y0015813D01*
X0095706Y0014414D02*
X0021586Y0014414D01*
X0021585Y0013016D02*
X0095910Y0013016D01*
X0100106Y0013016D02*
X0100706Y0013016D01*
X0100706Y0012122D02*
X0100706Y0014867D01*
X0100706Y0015467D01*
X0105106Y0015467D01*
X0105106Y0017073D01*
X0105706Y0016473D01*
X0105706Y0013220D01*
X0106804Y0012122D01*
X0104008Y0012122D01*
X0105106Y0013220D01*
X0105106Y0014867D01*
X0100706Y0014867D01*
X0100106Y0014867D01*
X0100106Y0012122D01*
X0100706Y0012122D01*
X0104902Y0013016D02*
X0105910Y0013016D01*
X0105706Y0014414D02*
X0105106Y0014414D01*
X0105106Y0015813D02*
X0105706Y0015813D01*
X0100706Y0014414D02*
X0100106Y0014414D01*
X0095804Y0017211D02*
X0067322Y0017211D01*
X0065838Y0017211D02*
X0030083Y0017211D01*
X0031890Y0018610D02*
X0063813Y0018610D01*
X0063330Y0020008D02*
X0032491Y0020008D01*
X0032549Y0021407D02*
X0062201Y0021407D01*
X0060802Y0022805D02*
X0032119Y0022805D01*
X0026093Y0025957D02*
X0061045Y0025957D01*
X0066580Y0020422D01*
X0105151Y0020422D01*
X0110406Y0015167D01*
X0114008Y0012122D02*
X0115106Y0013220D01*
X0115106Y0017113D01*
X0112353Y0019867D01*
X0109100Y0019867D01*
X0108500Y0020467D01*
X0112353Y0020467D01*
X0115106Y0023220D01*
X0115106Y0027073D01*
X0115706Y0026473D01*
X0115706Y0023220D01*
X0118459Y0020467D01*
X0122353Y0020467D01*
X0125106Y0023220D01*
X0125106Y0027113D01*
X0122353Y0029867D01*
X0119100Y0029867D01*
X0107585Y0041381D01*
X0106910Y0042056D01*
X0106028Y0042422D01*
X0102474Y0042422D01*
X0095215Y0049681D01*
X0094540Y0050356D01*
X0093657Y0050722D01*
X0082874Y0050722D01*
X0077380Y0056216D01*
X0077380Y0057528D01*
X0078924Y0059072D01*
X0079426Y0059072D01*
X0080621Y0059567D01*
X0081535Y0060481D01*
X0082030Y0061675D01*
X0082030Y0062968D01*
X0081535Y0064163D01*
X0080621Y0065077D01*
X0079426Y0065572D01*
X0078134Y0065572D01*
X0076939Y0065077D01*
X0076025Y0064163D01*
X0075530Y0062968D01*
X0075530Y0062466D01*
X0073826Y0060762D01*
X0073535Y0061463D01*
X0073180Y0061818D01*
X0073180Y0064999D01*
X0072815Y0065881D01*
X0072140Y0066556D01*
X0060624Y0078072D01*
X0060836Y0078072D01*
X0066645Y0072262D01*
X0067321Y0071587D01*
X0068203Y0071222D01*
X0073484Y0071222D01*
X0073839Y0070867D01*
X0075034Y0070372D01*
X0076326Y0070372D01*
X0077521Y0070867D01*
X0078435Y0071781D01*
X0078930Y0072975D01*
X0078930Y0074268D01*
X0078435Y0075463D01*
X0077521Y0076377D01*
X0076326Y0076872D01*
X0075034Y0076872D01*
X0073839Y0076377D01*
X0073484Y0076022D01*
X0069674Y0076022D01*
X0064230Y0081466D01*
X0064230Y0081968D01*
X0063735Y0083163D01*
X0062821Y0084077D01*
X0061626Y0084572D01*
X0060334Y0084572D01*
X0059139Y0084077D01*
X0058225Y0083163D01*
X0057730Y0081968D01*
X0057730Y0080675D01*
X0058208Y0079522D01*
X0036074Y0079522D01*
X0032604Y0082992D01*
X0031919Y0083275D01*
X0030781Y0084414D01*
X0029282Y0085035D01*
X0022904Y0085035D01*
X0021651Y0084516D01*
X0021664Y0097769D01*
X0044635Y0097769D01*
X0045631Y0098765D01*
X0045631Y0110721D01*
X0088386Y0110721D01*
X0088155Y0110163D01*
X0088155Y0108880D01*
X0088580Y0107854D01*
X0088580Y0100783D01*
X0088307Y0101056D01*
X0087122Y0101547D01*
X0085839Y0101547D01*
X0084653Y0101056D01*
X0083746Y0100149D01*
X0083255Y0098963D01*
X0083255Y0097680D01*
X0083746Y0096495D01*
X0084080Y0096161D01*
X0084080Y0057847D01*
X0083839Y0057847D01*
X0082653Y0057356D01*
X0081746Y0056449D01*
X0081255Y0055263D01*
X0081255Y0053980D01*
X0081746Y0052795D01*
X0082653Y0051888D01*
X0083839Y0051397D01*
X0085122Y0051397D01*
X0086307Y0051888D01*
X0087214Y0052795D01*
X0087705Y0053980D01*
X0087705Y0054453D01*
X0088100Y0054848D01*
X0088246Y0054495D01*
X0089153Y0053588D01*
X0090339Y0053097D01*
X0091622Y0053097D01*
X0092807Y0053588D01*
X0093714Y0054495D01*
X0094205Y0055680D01*
X0094205Y0056801D01*
X0094839Y0056167D01*
X0096034Y0055672D01*
X0096536Y0055672D01*
X0112845Y0039362D01*
X0113521Y0038687D01*
X0114403Y0038322D01*
X0160157Y0038322D01*
X0161040Y0038687D01*
X0168740Y0046387D01*
X0169415Y0047062D01*
X0169780Y0047944D01*
X0169780Y0052526D01*
X0169843Y0052589D01*
X0169843Y0049545D01*
X0170839Y0048549D01*
X0178940Y0048549D01*
X0179936Y0049545D01*
X0179936Y0050408D01*
X0183486Y0050408D01*
X0181980Y0048903D01*
X0181980Y0047222D01*
X0186180Y0047222D01*
X0186180Y0047022D01*
X0181980Y0047022D01*
X0181980Y0045341D01*
X0184499Y0042822D01*
X0186180Y0042822D01*
X0186180Y0047022D01*
X0186380Y0047022D01*
X0186380Y0047222D01*
X0190580Y0047222D01*
X0190580Y0048903D01*
X0189074Y0050408D01*
X0199799Y0050408D01*
X0201745Y0048462D01*
X0202421Y0047787D01*
X0203303Y0047422D01*
X0256686Y0047422D01*
X0257395Y0046712D01*
X0258071Y0046037D01*
X0262645Y0041462D01*
X0263321Y0040787D01*
X0264203Y0040422D01*
X0271024Y0040422D01*
X0271024Y0039545D01*
X0272020Y0038549D01*
X0280121Y0038549D01*
X0281117Y0039545D01*
X0281117Y0046072D01*
X0280121Y0047067D01*
X0272020Y0047067D01*
X0271024Y0046072D01*
X0271024Y0045222D01*
X0265674Y0045222D01*
X0261830Y0049066D01*
X0261830Y0054976D01*
X0262535Y0055681D01*
X0263030Y0056875D01*
X0263030Y0058168D01*
X0262535Y0059363D01*
X0261621Y0060277D01*
X0260426Y0060772D01*
X0259924Y0060772D01*
X0257173Y0063523D01*
X0257837Y0063523D01*
X0258833Y0064518D01*
X0258833Y0071045D01*
X0258356Y0071522D01*
X0258493Y0071659D01*
X0258717Y0072047D01*
X0258833Y0072479D01*
X0258833Y0074682D01*
X0254760Y0074682D01*
X0254760Y0075841D01*
X0258833Y0075841D01*
X0258833Y0078045D01*
X0258717Y0078477D01*
X0258493Y0078865D01*
X0258177Y0079181D01*
X0257789Y0079405D01*
X0257357Y0079521D01*
X0254760Y0079521D01*
X0254760Y0075842D01*
X0253600Y0075842D01*
X0253600Y0079521D01*
X0251003Y0079521D01*
X0250571Y0079405D01*
X0250183Y0079181D01*
X0249867Y0078865D01*
X0249643Y0078477D01*
X0249527Y0078045D01*
X0249527Y0075841D01*
X0253600Y0075841D01*
X0253600Y0074682D01*
X0249527Y0074682D01*
X0249527Y0072479D01*
X0249643Y0072047D01*
X0249867Y0071659D01*
X0250004Y0071522D01*
X0249527Y0071045D01*
X0249527Y0064518D01*
X0250523Y0063523D01*
X0251780Y0063523D01*
X0251780Y0062644D01*
X0252145Y0061762D01*
X0256530Y0057378D01*
X0256530Y0056875D01*
X0257025Y0055681D01*
X0257030Y0055676D01*
X0257030Y0052222D01*
X0204774Y0052222D01*
X0203274Y0053722D01*
X0209157Y0053722D01*
X0210040Y0054087D01*
X0222274Y0066322D01*
X0224684Y0066322D01*
X0225039Y0065967D01*
X0226234Y0065472D01*
X0227526Y0065472D01*
X0228721Y0065967D01*
X0229635Y0066881D01*
X0230130Y0068075D01*
X0230130Y0069368D01*
X0229635Y0070563D01*
X0228721Y0071477D01*
X0227526Y0071972D01*
X0226234Y0071972D01*
X0225039Y0071477D01*
X0224684Y0071122D01*
X0220803Y0071122D01*
X0219921Y0070756D01*
X0219245Y0070081D01*
X0207686Y0058522D01*
X0189176Y0058522D01*
X0188821Y0058877D01*
X0187626Y0059372D01*
X0186334Y0059372D01*
X0185139Y0058877D01*
X0184225Y0057963D01*
X0183730Y0056768D01*
X0183730Y0055475D01*
X0183841Y0055208D01*
X0179936Y0055208D01*
X0179936Y0056072D01*
X0178940Y0057067D01*
X0170839Y0057067D01*
X0170193Y0056422D01*
X0170135Y0056563D01*
X0169221Y0057477D01*
X0168026Y0057972D01*
X0166734Y0057972D01*
X0165539Y0057477D01*
X0164625Y0056563D01*
X0164130Y0055368D01*
X0164130Y0054075D01*
X0164625Y0052881D01*
X0164980Y0052526D01*
X0164980Y0049416D01*
X0158686Y0043122D01*
X0115874Y0043122D01*
X0112803Y0046193D01*
X0113221Y0046367D01*
X0113576Y0046722D01*
X0130057Y0046722D01*
X0130940Y0047087D01*
X0137940Y0054087D01*
X0138615Y0054762D01*
X0138980Y0055644D01*
X0138980Y0093472D01*
X0139326Y0093472D01*
X0140521Y0093967D01*
X0141435Y0094881D01*
X0141930Y0096075D01*
X0141930Y0097368D01*
X0141435Y0098563D01*
X0140521Y0099477D01*
X0139326Y0099972D01*
X0138034Y0099972D01*
X0136839Y0099477D01*
X0135925Y0098563D01*
X0135430Y0097368D01*
X0135430Y0096866D01*
X0134545Y0095981D01*
X0134180Y0095099D01*
X0134180Y0057116D01*
X0128586Y0051522D01*
X0113576Y0051522D01*
X0113221Y0051877D01*
X0112026Y0052372D01*
X0110734Y0052372D01*
X0109539Y0051877D01*
X0108625Y0050963D01*
X0108452Y0050544D01*
X0099930Y0059066D01*
X0099930Y0059568D01*
X0099435Y0060763D01*
X0098521Y0061677D01*
X0097326Y0062172D01*
X0096034Y0062172D01*
X0094839Y0061677D01*
X0093925Y0060763D01*
X0093430Y0059568D01*
X0093430Y0058433D01*
X0093380Y0058483D01*
X0093380Y0071626D01*
X0094139Y0070867D01*
X0095334Y0070372D01*
X0096626Y0070372D01*
X0097821Y0070867D01*
X0098402Y0071447D01*
X0098740Y0071587D01*
X0105224Y0078072D01*
X0105726Y0078072D01*
X0106921Y0078567D01*
X0107835Y0079481D01*
X0108330Y0080675D01*
X0108330Y0081968D01*
X0107835Y0083163D01*
X0106921Y0084077D01*
X0105726Y0084572D01*
X0104434Y0084572D01*
X0103239Y0084077D01*
X0102325Y0083163D01*
X0101830Y0081968D01*
X0101830Y0081466D01*
X0097057Y0076693D01*
X0096626Y0076872D01*
X0095334Y0076872D01*
X0094139Y0076377D01*
X0093380Y0075618D01*
X0093380Y0096761D01*
X0094153Y0095988D01*
X0095339Y0095497D01*
X0096622Y0095497D01*
X0097807Y0095988D01*
X0098714Y0096895D01*
X0099205Y0098080D01*
X0099205Y0098553D01*
X0109574Y0108922D01*
X0176486Y0108922D01*
X0177955Y0107453D01*
X0177955Y0107080D01*
X0178446Y0105895D01*
X0179353Y0104988D01*
X0180539Y0104497D01*
X0181822Y0104497D01*
X0183007Y0104988D01*
X0183914Y0105895D01*
X0184405Y0107080D01*
X0184405Y0108363D01*
X0183914Y0109549D01*
X0183007Y0110456D01*
X0182367Y0110721D01*
X0289835Y0110721D01*
X0289825Y0100382D01*
X0289126Y0100672D01*
X0287834Y0100672D01*
X0286639Y0100177D01*
X0285725Y0099263D01*
X0285230Y0098068D01*
X0285230Y0096775D01*
X0285725Y0095581D01*
X0286080Y0095226D01*
X0286080Y0031922D01*
X0235589Y0031922D01*
X0235226Y0032072D01*
X0233934Y0032072D01*
X0232739Y0031577D01*
X0231825Y0030663D01*
X0231330Y0029468D01*
X0231330Y0028175D01*
X0231825Y0026981D01*
X0232739Y0026067D01*
X0233934Y0025572D01*
X0235226Y0025572D01*
X0236421Y0026067D01*
X0237335Y0026981D01*
X0237394Y0027122D01*
X0287557Y0027122D01*
X0288440Y0027487D01*
X0289759Y0028807D01*
X0289743Y0012122D01*
X0124008Y0012122D01*
X0125106Y0013220D01*
X0125106Y0017113D01*
X0122353Y0019867D01*
X0118459Y0019867D01*
X0115706Y0017113D01*
X0115706Y0013220D01*
X0116804Y0012122D01*
X0114008Y0012122D01*
X0114902Y0013016D02*
X0115910Y0013016D01*
X0115706Y0014414D02*
X0115106Y0014414D01*
X0115106Y0015813D02*
X0115706Y0015813D01*
X0115804Y0017211D02*
X0115008Y0017211D01*
X0113610Y0018610D02*
X0117202Y0018610D01*
X0117519Y0021407D02*
X0113293Y0021407D01*
X0114692Y0022805D02*
X0116120Y0022805D01*
X0115706Y0024204D02*
X0115106Y0024204D01*
X0115106Y0025602D02*
X0115706Y0025602D01*
X0115178Y0027001D02*
X0115106Y0027001D01*
X0110406Y0025167D02*
X0105351Y0030222D01*
X0079180Y0030222D01*
X0075480Y0026522D01*
X0066080Y0026522D01*
X0056645Y0035957D01*
X0026093Y0035957D01*
X0031713Y0038482D02*
X0031958Y0038820D01*
X0032250Y0039392D01*
X0032448Y0040002D01*
X0032549Y0040636D01*
X0032549Y0040957D01*
X0026093Y0040957D01*
X0026093Y0040957D01*
X0032549Y0040957D01*
X0032549Y0041278D01*
X0032448Y0041912D01*
X0032250Y0042523D01*
X0031958Y0043095D01*
X0031713Y0043432D01*
X0031928Y0043647D01*
X0032549Y0045146D01*
X0032549Y0046768D01*
X0031928Y0048267D01*
X0031738Y0048457D01*
X0031928Y0048647D01*
X0032549Y0050146D01*
X0032549Y0051768D01*
X0031928Y0053267D01*
X0031738Y0053457D01*
X0031928Y0053647D01*
X0032549Y0055146D01*
X0032549Y0056768D01*
X0031928Y0058267D01*
X0031738Y0058457D01*
X0031928Y0058647D01*
X0032549Y0060146D01*
X0032549Y0061768D01*
X0031928Y0063267D01*
X0031738Y0063457D01*
X0031928Y0063647D01*
X0032549Y0065146D01*
X0032549Y0066768D01*
X0031928Y0068267D01*
X0031738Y0068457D01*
X0031928Y0068647D01*
X0032549Y0070146D01*
X0032549Y0071768D01*
X0031928Y0073267D01*
X0031738Y0073457D01*
X0031928Y0073647D01*
X0032549Y0075146D01*
X0032549Y0076259D01*
X0033045Y0075762D01*
X0033721Y0075087D01*
X0034603Y0074722D01*
X0057186Y0074722D01*
X0068380Y0063528D01*
X0068380Y0061818D01*
X0068025Y0061463D01*
X0067530Y0060268D01*
X0067530Y0058975D01*
X0068025Y0057781D01*
X0068939Y0056867D01*
X0070134Y0056372D01*
X0071426Y0056372D01*
X0072580Y0056850D01*
X0072580Y0056216D01*
X0059645Y0043281D01*
X0059280Y0042399D01*
X0059280Y0040818D01*
X0058925Y0040463D01*
X0058430Y0039268D01*
X0058430Y0037975D01*
X0058720Y0037276D01*
X0058004Y0037992D01*
X0057122Y0038357D01*
X0056167Y0038357D01*
X0031838Y0038357D01*
X0031713Y0038482D01*
X0032313Y0039588D02*
X0058562Y0039588D01*
X0058430Y0038189D02*
X0057528Y0038189D01*
X0061680Y0038622D02*
X0061680Y0041922D01*
X0074980Y0055222D01*
X0081880Y0048322D01*
X0093180Y0048322D01*
X0101480Y0040022D01*
X0105551Y0040022D01*
X0120406Y0025167D01*
X0123820Y0028399D02*
X0231330Y0028399D01*
X0231467Y0029798D02*
X0122421Y0029798D01*
X0125106Y0027001D02*
X0231816Y0027001D01*
X0233860Y0025602D02*
X0125106Y0025602D01*
X0125106Y0024204D02*
X0289755Y0024204D01*
X0289756Y0025602D02*
X0235300Y0025602D01*
X0237344Y0027001D02*
X0289757Y0027001D01*
X0289759Y0028399D02*
X0289352Y0028399D01*
X0287080Y0029522D02*
X0288480Y0030922D01*
X0288480Y0097422D01*
X0285336Y0098325D02*
X0141534Y0098325D01*
X0141930Y0096927D02*
X0285230Y0096927D01*
X0285778Y0095528D02*
X0141703Y0095528D01*
X0140684Y0094129D02*
X0286080Y0094129D01*
X0286080Y0092731D02*
X0138980Y0092731D01*
X0138980Y0091332D02*
X0286080Y0091332D01*
X0286080Y0089934D02*
X0138980Y0089934D01*
X0138980Y0088535D02*
X0286080Y0088535D01*
X0286080Y0087137D02*
X0160561Y0087137D01*
X0160121Y0087577D02*
X0161035Y0086663D01*
X0161530Y0085468D01*
X0161530Y0084266D01*
X0163474Y0082322D01*
X0213357Y0082322D01*
X0214240Y0081956D01*
X0214915Y0081281D01*
X0214915Y0081281D01*
X0217015Y0079181D01*
X0217380Y0078299D01*
X0217380Y0077218D01*
X0217735Y0076863D01*
X0218230Y0075668D01*
X0218230Y0074375D01*
X0217735Y0073181D01*
X0216821Y0072267D01*
X0215626Y0071772D01*
X0214334Y0071772D01*
X0213139Y0072267D01*
X0212225Y0073181D01*
X0211730Y0074375D01*
X0211730Y0075668D01*
X0212225Y0076863D01*
X0212385Y0077023D01*
X0211886Y0077522D01*
X0162003Y0077522D01*
X0161121Y0077887D01*
X0160445Y0078562D01*
X0160445Y0078562D01*
X0157296Y0081712D01*
X0156439Y0082067D01*
X0155525Y0082981D01*
X0155030Y0084175D01*
X0155030Y0085468D01*
X0155525Y0086663D01*
X0156439Y0087577D01*
X0157634Y0088072D01*
X0158926Y0088072D01*
X0160121Y0087577D01*
X0161418Y0085738D02*
X0286080Y0085738D01*
X0286080Y0084340D02*
X0161530Y0084340D01*
X0162855Y0082941D02*
X0286080Y0082941D01*
X0286080Y0081543D02*
X0214653Y0081543D01*
X0216052Y0080144D02*
X0286080Y0080144D01*
X0286080Y0078746D02*
X0258562Y0078746D01*
X0258833Y0077347D02*
X0286080Y0077347D01*
X0286080Y0075949D02*
X0258833Y0075949D01*
X0258833Y0074550D02*
X0286080Y0074550D01*
X0286080Y0073152D02*
X0258833Y0073152D01*
X0258548Y0071753D02*
X0286080Y0071753D01*
X0286080Y0070355D02*
X0258833Y0070355D01*
X0258833Y0068956D02*
X0286080Y0068956D01*
X0286080Y0067558D02*
X0258833Y0067558D01*
X0258833Y0066159D02*
X0271112Y0066159D01*
X0271024Y0066072D02*
X0271024Y0065208D01*
X0270189Y0065208D01*
X0269307Y0064843D01*
X0268632Y0064168D01*
X0266145Y0061681D01*
X0265780Y0060799D01*
X0265780Y0059718D01*
X0265425Y0059363D01*
X0264930Y0058168D01*
X0264930Y0056875D01*
X0265425Y0055681D01*
X0266339Y0054767D01*
X0267534Y0054272D01*
X0268826Y0054272D01*
X0270021Y0054767D01*
X0270935Y0055681D01*
X0271024Y0055895D01*
X0271024Y0055057D01*
X0270507Y0054843D01*
X0268036Y0052372D01*
X0267534Y0052372D01*
X0266339Y0051877D01*
X0265425Y0050963D01*
X0264930Y0049768D01*
X0264930Y0048475D01*
X0265425Y0047281D01*
X0266339Y0046367D01*
X0267534Y0045872D01*
X0268826Y0045872D01*
X0270021Y0046367D01*
X0270935Y0047281D01*
X0271430Y0048475D01*
X0271430Y0048978D01*
X0271511Y0049058D01*
X0272020Y0048549D01*
X0280121Y0048549D01*
X0281117Y0049545D01*
X0281117Y0056072D01*
X0280121Y0057067D01*
X0272020Y0057067D01*
X0271149Y0056196D01*
X0271430Y0056875D01*
X0271430Y0058168D01*
X0270935Y0059363D01*
X0270775Y0059523D01*
X0271024Y0059772D01*
X0271024Y0059545D01*
X0272020Y0058549D01*
X0280121Y0058549D01*
X0281117Y0059545D01*
X0281117Y0066072D01*
X0280121Y0067067D01*
X0272020Y0067067D01*
X0271024Y0066072D01*
X0269225Y0064761D02*
X0258833Y0064761D01*
X0257334Y0063362D02*
X0267826Y0063362D01*
X0266428Y0061964D02*
X0258732Y0061964D01*
X0260925Y0060565D02*
X0265780Y0060565D01*
X0265344Y0059167D02*
X0262616Y0059167D01*
X0263030Y0057768D02*
X0264930Y0057768D01*
X0265139Y0056370D02*
X0262821Y0056370D01*
X0261830Y0054971D02*
X0266134Y0054971D01*
X0269237Y0053573D02*
X0261830Y0053573D01*
X0261830Y0052174D02*
X0267056Y0052174D01*
X0265347Y0050776D02*
X0261830Y0050776D01*
X0261830Y0049377D02*
X0264930Y0049377D01*
X0265136Y0047979D02*
X0262917Y0047979D01*
X0264316Y0046580D02*
X0266126Y0046580D01*
X0268180Y0049122D02*
X0271867Y0052808D01*
X0276071Y0052808D01*
X0281117Y0052174D02*
X0286080Y0052174D01*
X0286080Y0050776D02*
X0281117Y0050776D01*
X0280949Y0049377D02*
X0286080Y0049377D01*
X0286080Y0047979D02*
X0271224Y0047979D01*
X0271533Y0046580D02*
X0270235Y0046580D01*
X0264680Y0042822D02*
X0276057Y0042822D01*
X0276071Y0042808D01*
X0281117Y0042385D02*
X0286080Y0042385D01*
X0286080Y0043783D02*
X0281117Y0043783D01*
X0281117Y0045182D02*
X0286080Y0045182D01*
X0286080Y0046580D02*
X0280609Y0046580D01*
X0281117Y0040986D02*
X0286080Y0040986D01*
X0286080Y0039588D02*
X0281117Y0039588D01*
X0286080Y0038189D02*
X0190580Y0038189D01*
X0190580Y0038903D02*
X0188061Y0041422D01*
X0184499Y0041422D01*
X0181980Y0038903D01*
X0181980Y0035341D01*
X0184499Y0032822D01*
X0188061Y0032822D01*
X0190580Y0035341D01*
X0190580Y0038903D01*
X0189895Y0039588D02*
X0271024Y0039588D01*
X0264680Y0042822D02*
X0259430Y0048072D01*
X0259430Y0057172D01*
X0259780Y0057522D01*
X0254180Y0063122D01*
X0254180Y0067782D01*
X0249527Y0067558D02*
X0229916Y0067558D01*
X0230130Y0068956D02*
X0249527Y0068956D01*
X0249527Y0070355D02*
X0229721Y0070355D01*
X0228054Y0071753D02*
X0249812Y0071753D01*
X0249527Y0073152D02*
X0217706Y0073152D01*
X0218230Y0074550D02*
X0249527Y0074550D01*
X0249527Y0075949D02*
X0218114Y0075949D01*
X0217380Y0077347D02*
X0249527Y0077347D01*
X0249798Y0078746D02*
X0217195Y0078746D01*
X0214980Y0077822D02*
X0212880Y0079922D01*
X0162480Y0079922D01*
X0158280Y0084122D01*
X0158280Y0084822D01*
X0155142Y0085738D02*
X0138980Y0085738D01*
X0138980Y0084340D02*
X0155030Y0084340D01*
X0155564Y0082941D02*
X0138980Y0082941D01*
X0138980Y0081543D02*
X0157465Y0081543D01*
X0158863Y0080144D02*
X0138980Y0080144D01*
X0138980Y0078746D02*
X0160262Y0078746D01*
X0155999Y0087137D02*
X0138980Y0087137D01*
X0134180Y0087137D02*
X0130653Y0087137D01*
X0130564Y0087015D02*
X0130999Y0087614D01*
X0131335Y0088273D01*
X0131563Y0088976D01*
X0131679Y0089707D01*
X0131679Y0092777D01*
X0127279Y0092777D01*
X0127279Y0085377D01*
X0127349Y0085377D01*
X0128080Y0085493D01*
X0128783Y0085721D01*
X0129443Y0086057D01*
X0130041Y0086492D01*
X0130564Y0087015D01*
X0131420Y0088535D02*
X0134180Y0088535D01*
X0134180Y0089934D02*
X0131679Y0089934D01*
X0131679Y0091332D02*
X0134180Y0091332D01*
X0134180Y0092731D02*
X0131679Y0092731D01*
X0131679Y0093377D02*
X0131679Y0096447D01*
X0131563Y0097177D01*
X0131335Y0097881D01*
X0130999Y0098540D01*
X0130564Y0099139D01*
X0130041Y0099662D01*
X0129443Y0100097D01*
X0128783Y0100433D01*
X0128080Y0100661D01*
X0127349Y0100777D01*
X0127279Y0100777D01*
X0127279Y0093377D01*
X0126679Y0093377D01*
X0126679Y0092777D01*
X0122279Y0092777D01*
X0122279Y0089707D01*
X0122395Y0088976D01*
X0122624Y0088273D01*
X0122959Y0087614D01*
X0123394Y0087015D01*
X0123917Y0086492D01*
X0124516Y0086057D01*
X0125175Y0085721D01*
X0125879Y0085493D01*
X0126609Y0085377D01*
X0126679Y0085377D01*
X0126679Y0092777D01*
X0127279Y0092777D01*
X0127279Y0093377D01*
X0131679Y0093377D01*
X0131679Y0094129D02*
X0134180Y0094129D01*
X0134358Y0095528D02*
X0131679Y0095528D01*
X0131603Y0096927D02*
X0135430Y0096927D01*
X0135826Y0098325D02*
X0131109Y0098325D01*
X0129956Y0099724D02*
X0137434Y0099724D01*
X0139926Y0099724D02*
X0286186Y0099724D01*
X0289826Y0101122D02*
X0101774Y0101122D01*
X0100376Y0099724D02*
X0113979Y0099724D01*
X0114317Y0100061D02*
X0112995Y0098739D01*
X0112279Y0097012D01*
X0112279Y0089142D01*
X0112995Y0087415D01*
X0114317Y0086092D01*
X0116044Y0085377D01*
X0117914Y0085377D01*
X0119642Y0086092D01*
X0120964Y0087415D01*
X0121679Y0089142D01*
X0121679Y0097012D01*
X0120964Y0098739D01*
X0119642Y0100061D01*
X0117914Y0100777D01*
X0116044Y0100777D01*
X0114317Y0100061D01*
X0112823Y0098325D02*
X0099205Y0098325D01*
X0098727Y0096927D02*
X0112279Y0096927D01*
X0112279Y0095528D02*
X0096697Y0095528D01*
X0095263Y0095528D02*
X0093380Y0095528D01*
X0093380Y0094129D02*
X0112279Y0094129D01*
X0112279Y0092731D02*
X0093380Y0092731D01*
X0093380Y0091332D02*
X0112279Y0091332D01*
X0112279Y0089934D02*
X0093380Y0089934D01*
X0093380Y0088535D02*
X0112530Y0088535D01*
X0113272Y0087137D02*
X0093380Y0087137D01*
X0093380Y0085738D02*
X0115172Y0085738D01*
X0118787Y0085738D02*
X0125141Y0085738D01*
X0126679Y0085738D02*
X0127279Y0085738D01*
X0127279Y0087137D02*
X0126679Y0087137D01*
X0126679Y0088535D02*
X0127279Y0088535D01*
X0127279Y0089934D02*
X0126679Y0089934D01*
X0126679Y0091332D02*
X0127279Y0091332D01*
X0127279Y0092731D02*
X0126679Y0092731D01*
X0126679Y0093377D02*
X0122279Y0093377D01*
X0122279Y0096447D01*
X0122395Y0097177D01*
X0122624Y0097881D01*
X0122959Y0098540D01*
X0123394Y0099139D01*
X0123917Y0099662D01*
X0124516Y0100097D01*
X0125175Y0100433D01*
X0125879Y0100661D01*
X0126609Y0100777D01*
X0126679Y0100777D01*
X0126679Y0093377D01*
X0126679Y0094129D02*
X0127279Y0094129D01*
X0127279Y0095528D02*
X0126679Y0095528D01*
X0126679Y0096927D02*
X0127279Y0096927D01*
X0127279Y0098325D02*
X0126679Y0098325D01*
X0126679Y0099724D02*
X0127279Y0099724D01*
X0124002Y0099724D02*
X0119979Y0099724D01*
X0121135Y0098325D02*
X0122850Y0098325D01*
X0122355Y0096927D02*
X0121679Y0096927D01*
X0121679Y0095528D02*
X0122279Y0095528D01*
X0122279Y0094129D02*
X0121679Y0094129D01*
X0121679Y0092731D02*
X0122279Y0092731D01*
X0122279Y0091332D02*
X0121679Y0091332D01*
X0121679Y0089934D02*
X0122279Y0089934D01*
X0122538Y0088535D02*
X0121428Y0088535D01*
X0120686Y0087137D02*
X0123306Y0087137D01*
X0128817Y0085738D02*
X0134180Y0085738D01*
X0134180Y0084340D02*
X0106286Y0084340D01*
X0107927Y0082941D02*
X0134180Y0082941D01*
X0134180Y0081543D02*
X0108330Y0081543D01*
X0108110Y0080144D02*
X0134180Y0080144D01*
X0134180Y0078746D02*
X0107100Y0078746D01*
X0104500Y0077347D02*
X0134180Y0077347D01*
X0134180Y0075949D02*
X0103101Y0075949D01*
X0101703Y0074550D02*
X0134180Y0074550D01*
X0138980Y0074550D02*
X0211730Y0074550D01*
X0211846Y0075949D02*
X0138980Y0075949D01*
X0138980Y0077347D02*
X0212060Y0077347D01*
X0214980Y0077822D02*
X0214980Y0075022D01*
X0212254Y0073152D02*
X0138980Y0073152D01*
X0138980Y0071753D02*
X0225706Y0071753D01*
X0226880Y0068722D02*
X0221280Y0068722D01*
X0208680Y0056122D01*
X0186980Y0056122D01*
X0183730Y0056370D02*
X0179638Y0056370D01*
X0178940Y0058549D02*
X0179936Y0059545D01*
X0179936Y0066072D01*
X0178940Y0067067D01*
X0170839Y0067067D01*
X0169843Y0066072D01*
X0169843Y0059545D01*
X0170839Y0058549D01*
X0178940Y0058549D01*
X0179557Y0059167D02*
X0185838Y0059167D01*
X0184144Y0057768D02*
X0168518Y0057768D01*
X0170221Y0059167D02*
X0138980Y0059167D01*
X0138980Y0060565D02*
X0169843Y0060565D01*
X0169843Y0061964D02*
X0138980Y0061964D01*
X0138980Y0063362D02*
X0169843Y0063362D01*
X0169843Y0064761D02*
X0138980Y0064761D01*
X0138980Y0066159D02*
X0169931Y0066159D01*
X0179848Y0066159D02*
X0215323Y0066159D01*
X0213925Y0064761D02*
X0179936Y0064761D01*
X0179936Y0063362D02*
X0212526Y0063362D01*
X0211128Y0061964D02*
X0179936Y0061964D01*
X0179936Y0060565D02*
X0209729Y0060565D01*
X0208331Y0059167D02*
X0188122Y0059167D01*
X0200793Y0052808D02*
X0174889Y0052808D01*
X0169843Y0052174D02*
X0169780Y0052174D01*
X0169780Y0050776D02*
X0169843Y0050776D01*
X0169780Y0049377D02*
X0170011Y0049377D01*
X0169780Y0047979D02*
X0181980Y0047979D01*
X0181980Y0046580D02*
X0179427Y0046580D01*
X0179280Y0046728D02*
X0178892Y0046952D01*
X0178460Y0047067D01*
X0175469Y0047067D01*
X0175469Y0043388D01*
X0174310Y0043388D01*
X0174310Y0047067D01*
X0171319Y0047067D01*
X0170887Y0046952D01*
X0170499Y0046728D01*
X0170183Y0046411D01*
X0169959Y0046024D01*
X0169843Y0045591D01*
X0169843Y0043388D01*
X0174310Y0043388D01*
X0174310Y0042229D01*
X0169843Y0042229D01*
X0169843Y0040026D01*
X0169959Y0039593D01*
X0170183Y0039206D01*
X0170499Y0038889D01*
X0170887Y0038665D01*
X0171319Y0038549D01*
X0174310Y0038549D01*
X0174310Y0042229D01*
X0175469Y0042229D01*
X0175469Y0043388D01*
X0179936Y0043388D01*
X0179936Y0045591D01*
X0179820Y0046024D01*
X0179596Y0046411D01*
X0179280Y0046728D01*
X0179936Y0045182D02*
X0182139Y0045182D01*
X0183538Y0043783D02*
X0179936Y0043783D01*
X0179936Y0042229D02*
X0175469Y0042229D01*
X0175469Y0038549D01*
X0178460Y0038549D01*
X0178892Y0038665D01*
X0179280Y0038889D01*
X0179596Y0039206D01*
X0179820Y0039593D01*
X0179936Y0040026D01*
X0179936Y0042229D01*
X0179936Y0040986D02*
X0184063Y0040986D01*
X0182665Y0039588D02*
X0179817Y0039588D01*
X0181980Y0038189D02*
X0110778Y0038189D01*
X0112176Y0036791D02*
X0181980Y0036791D01*
X0181980Y0035392D02*
X0113575Y0035392D01*
X0114973Y0033993D02*
X0183327Y0033993D01*
X0189233Y0033993D02*
X0286080Y0033993D01*
X0286080Y0035392D02*
X0190580Y0035392D01*
X0190580Y0036791D02*
X0286080Y0036791D01*
X0286080Y0032595D02*
X0116372Y0032595D01*
X0117770Y0031196D02*
X0232359Y0031196D01*
X0234580Y0028822D02*
X0235280Y0029522D01*
X0287080Y0029522D01*
X0289753Y0022805D02*
X0124692Y0022805D01*
X0123293Y0021407D02*
X0289752Y0021407D01*
X0289751Y0020008D02*
X0108958Y0020008D01*
X0096104Y0022822D02*
X0068776Y0022822D01*
X0068421Y0023177D01*
X0067226Y0023672D01*
X0066724Y0023672D01*
X0066274Y0024122D01*
X0073284Y0024122D01*
X0073639Y0023767D01*
X0074834Y0023272D01*
X0076126Y0023272D01*
X0077321Y0023767D01*
X0078235Y0024681D01*
X0078730Y0025875D01*
X0078730Y0026378D01*
X0080174Y0027822D01*
X0096414Y0027822D01*
X0095706Y0027113D01*
X0095706Y0023220D01*
X0096104Y0022822D01*
X0095706Y0024204D02*
X0077758Y0024204D01*
X0078617Y0025602D02*
X0095706Y0025602D01*
X0095706Y0027001D02*
X0079353Y0027001D01*
X0091080Y0045622D02*
X0101580Y0035122D01*
X0103680Y0035122D01*
X0109379Y0039588D02*
X0112620Y0039588D01*
X0111222Y0040986D02*
X0107981Y0040986D01*
X0109823Y0042385D02*
X0106118Y0042385D01*
X0108425Y0043783D02*
X0101113Y0043783D01*
X0099714Y0045182D02*
X0107026Y0045182D01*
X0105628Y0046580D02*
X0098316Y0046580D01*
X0096917Y0047979D02*
X0104229Y0047979D01*
X0102831Y0049377D02*
X0095519Y0049377D01*
X0100034Y0052174D02*
X0086593Y0052174D01*
X0087536Y0053573D02*
X0089190Y0053573D01*
X0092770Y0053573D02*
X0098635Y0053573D01*
X0097237Y0054971D02*
X0093911Y0054971D01*
X0094205Y0056370D02*
X0094636Y0056370D01*
X0090980Y0056322D02*
X0090980Y0109122D01*
X0091380Y0109522D01*
X0088155Y0109513D02*
X0045631Y0109513D01*
X0045631Y0108115D02*
X0088472Y0108115D01*
X0088580Y0106716D02*
X0045631Y0106716D01*
X0045631Y0105318D02*
X0088580Y0105318D01*
X0088580Y0103919D02*
X0045631Y0103919D01*
X0045631Y0102521D02*
X0088580Y0102521D01*
X0088580Y0101122D02*
X0088147Y0101122D01*
X0084813Y0101122D02*
X0045631Y0101122D01*
X0045631Y0099724D02*
X0083570Y0099724D01*
X0083255Y0098325D02*
X0045191Y0098325D01*
X0021663Y0096927D02*
X0083567Y0096927D01*
X0084080Y0095528D02*
X0021662Y0095528D01*
X0021660Y0094129D02*
X0084080Y0094129D01*
X0084080Y0092731D02*
X0021659Y0092731D01*
X0021658Y0091332D02*
X0084080Y0091332D01*
X0084080Y0089934D02*
X0021656Y0089934D01*
X0021655Y0088535D02*
X0084080Y0088535D01*
X0084080Y0087137D02*
X0021654Y0087137D01*
X0021653Y0085738D02*
X0084080Y0085738D01*
X0084080Y0084340D02*
X0062186Y0084340D01*
X0063827Y0082941D02*
X0084080Y0082941D01*
X0084080Y0081543D02*
X0064230Y0081543D01*
X0065552Y0080144D02*
X0084080Y0080144D01*
X0084080Y0078746D02*
X0066950Y0078746D01*
X0068349Y0077347D02*
X0084080Y0077347D01*
X0084080Y0075949D02*
X0077949Y0075949D01*
X0078813Y0074550D02*
X0084080Y0074550D01*
X0084080Y0073152D02*
X0078930Y0073152D01*
X0078408Y0071753D02*
X0084080Y0071753D01*
X0084080Y0070355D02*
X0068341Y0070355D01*
X0067154Y0071753D02*
X0066943Y0071753D01*
X0065756Y0073152D02*
X0065544Y0073152D01*
X0068680Y0073622D02*
X0075680Y0073622D01*
X0068680Y0073622D02*
X0060980Y0081322D01*
X0057950Y0080144D02*
X0035452Y0080144D01*
X0034053Y0081543D02*
X0057730Y0081543D01*
X0058133Y0082941D02*
X0032655Y0082941D01*
X0030855Y0084340D02*
X0059774Y0084340D01*
X0061349Y0077347D02*
X0061560Y0077347D01*
X0062747Y0075949D02*
X0062959Y0075949D01*
X0064146Y0074550D02*
X0064357Y0074550D01*
X0058756Y0073152D02*
X0031975Y0073152D01*
X0032549Y0071753D02*
X0060154Y0071753D01*
X0061553Y0070355D02*
X0032549Y0070355D01*
X0032056Y0068956D02*
X0062951Y0068956D01*
X0064350Y0067558D02*
X0032222Y0067558D01*
X0032549Y0066159D02*
X0065748Y0066159D01*
X0067147Y0064761D02*
X0032389Y0064761D01*
X0031833Y0063362D02*
X0068380Y0063362D01*
X0068380Y0061964D02*
X0032468Y0061964D01*
X0032549Y0060565D02*
X0067653Y0060565D01*
X0067530Y0059167D02*
X0032143Y0059167D01*
X0032134Y0057768D02*
X0068037Y0057768D01*
X0070780Y0059622D02*
X0070780Y0064522D01*
X0058180Y0077122D01*
X0035080Y0077122D01*
X0031245Y0080957D01*
X0026093Y0080957D01*
X0032549Y0075949D02*
X0032859Y0075949D01*
X0032302Y0074550D02*
X0057357Y0074550D01*
X0069740Y0068956D02*
X0084080Y0068956D01*
X0084080Y0067558D02*
X0071138Y0067558D01*
X0072537Y0066159D02*
X0084080Y0066159D01*
X0084080Y0064761D02*
X0080937Y0064761D01*
X0081867Y0063362D02*
X0084080Y0063362D01*
X0084080Y0061964D02*
X0082030Y0061964D01*
X0081570Y0060565D02*
X0084080Y0060565D01*
X0084080Y0059167D02*
X0079656Y0059167D01*
X0077621Y0057768D02*
X0083649Y0057768D01*
X0081713Y0056370D02*
X0077380Y0056370D01*
X0078625Y0054971D02*
X0081255Y0054971D01*
X0081424Y0053573D02*
X0080023Y0053573D01*
X0084480Y0054622D02*
X0086480Y0056622D01*
X0086480Y0098322D01*
X0095980Y0098722D02*
X0108580Y0111322D01*
X0177480Y0111322D01*
X0181080Y0107722D01*
X0181180Y0107722D01*
X0178106Y0106716D02*
X0107368Y0106716D01*
X0105970Y0105318D02*
X0179023Y0105318D01*
X0183337Y0105318D02*
X0289830Y0105318D01*
X0289831Y0106716D02*
X0184254Y0106716D01*
X0184405Y0108115D02*
X0289832Y0108115D01*
X0289834Y0109513D02*
X0183929Y0109513D01*
X0177293Y0108115D02*
X0108767Y0108115D01*
X0104571Y0103919D02*
X0289828Y0103919D01*
X0289827Y0102521D02*
X0103173Y0102521D01*
X0136580Y0094622D02*
X0138680Y0096722D01*
X0136580Y0094622D02*
X0136580Y0056122D01*
X0129580Y0049122D01*
X0111380Y0049122D01*
X0108547Y0050776D02*
X0108220Y0050776D01*
X0106822Y0052174D02*
X0110256Y0052174D01*
X0112504Y0052174D02*
X0129238Y0052174D01*
X0130637Y0053573D02*
X0105423Y0053573D01*
X0104025Y0054971D02*
X0132035Y0054971D01*
X0133434Y0056370D02*
X0102626Y0056370D01*
X0101228Y0057768D02*
X0134180Y0057768D01*
X0134180Y0059167D02*
X0099930Y0059167D01*
X0099517Y0060565D02*
X0121940Y0060565D01*
X0121784Y0060722D02*
X0122139Y0060367D01*
X0123334Y0059872D01*
X0124626Y0059872D01*
X0125821Y0060367D01*
X0126735Y0061281D01*
X0127230Y0062475D01*
X0127230Y0063768D01*
X0126735Y0064963D01*
X0125821Y0065877D01*
X0124626Y0066372D01*
X0123334Y0066372D01*
X0122139Y0065877D01*
X0121784Y0065522D01*
X0119374Y0065522D01*
X0118315Y0066581D01*
X0117640Y0067256D01*
X0116757Y0067622D01*
X0115676Y0067622D01*
X0115321Y0067977D01*
X0114126Y0068472D01*
X0112834Y0068472D01*
X0111639Y0067977D01*
X0110725Y0067063D01*
X0110230Y0065868D01*
X0110230Y0064575D01*
X0110725Y0063381D01*
X0111639Y0062467D01*
X0112834Y0061972D01*
X0114126Y0061972D01*
X0115321Y0062467D01*
X0115481Y0062627D01*
X0116345Y0061762D01*
X0117021Y0061087D01*
X0117903Y0060722D01*
X0121784Y0060722D01*
X0126020Y0060565D02*
X0134180Y0060565D01*
X0134180Y0061964D02*
X0127018Y0061964D01*
X0127230Y0063362D02*
X0134180Y0063362D01*
X0134180Y0064761D02*
X0126819Y0064761D01*
X0125140Y0066159D02*
X0134180Y0066159D01*
X0134180Y0067558D02*
X0116912Y0067558D01*
X0118315Y0066581D02*
X0118315Y0066581D01*
X0118737Y0066159D02*
X0122821Y0066159D01*
X0123980Y0063122D02*
X0118380Y0063122D01*
X0116280Y0065222D01*
X0113480Y0065222D01*
X0110351Y0066159D02*
X0093380Y0066159D01*
X0093380Y0064761D02*
X0110230Y0064761D01*
X0110743Y0063362D02*
X0093380Y0063362D01*
X0093380Y0061964D02*
X0095531Y0061964D01*
X0093843Y0060565D02*
X0093380Y0060565D01*
X0093380Y0059167D02*
X0093430Y0059167D01*
X0096680Y0058922D02*
X0114880Y0040722D01*
X0159680Y0040722D01*
X0167380Y0048422D01*
X0167380Y0054722D01*
X0164338Y0053573D02*
X0137425Y0053573D01*
X0138701Y0054971D02*
X0164130Y0054971D01*
X0164545Y0056370D02*
X0138980Y0056370D01*
X0138980Y0057768D02*
X0166242Y0057768D01*
X0164980Y0052174D02*
X0136026Y0052174D01*
X0134628Y0050776D02*
X0164980Y0050776D01*
X0164941Y0049377D02*
X0133229Y0049377D01*
X0131831Y0047979D02*
X0163543Y0047979D01*
X0162144Y0046580D02*
X0113435Y0046580D01*
X0113814Y0045182D02*
X0160746Y0045182D01*
X0159347Y0043783D02*
X0115213Y0043783D01*
X0101432Y0050776D02*
X0082820Y0050776D01*
X0082367Y0052174D02*
X0081422Y0052174D01*
X0074980Y0055222D02*
X0074980Y0058522D01*
X0078780Y0062322D01*
X0075693Y0063362D02*
X0073180Y0063362D01*
X0073180Y0061964D02*
X0075028Y0061964D01*
X0076623Y0064761D02*
X0073180Y0064761D01*
X0072580Y0056370D02*
X0032549Y0056370D01*
X0032476Y0054971D02*
X0071335Y0054971D01*
X0069937Y0053573D02*
X0031853Y0053573D01*
X0032380Y0052174D02*
X0068538Y0052174D01*
X0067140Y0050776D02*
X0032549Y0050776D01*
X0032230Y0049377D02*
X0065741Y0049377D01*
X0064343Y0047979D02*
X0032047Y0047979D01*
X0032549Y0046580D02*
X0062944Y0046580D01*
X0061546Y0045182D02*
X0032549Y0045182D01*
X0031984Y0043783D02*
X0060147Y0043783D01*
X0059280Y0042385D02*
X0032295Y0042385D01*
X0032549Y0040986D02*
X0059280Y0040986D01*
X0075280Y0046022D02*
X0075680Y0045622D01*
X0091080Y0045622D01*
X0097829Y0061964D02*
X0116144Y0061964D01*
X0116345Y0061762D02*
X0116345Y0061762D01*
X0111220Y0067558D02*
X0093380Y0067558D01*
X0093380Y0068956D02*
X0134180Y0068956D01*
X0134180Y0070355D02*
X0093380Y0070355D01*
X0098906Y0071753D02*
X0134180Y0071753D01*
X0134180Y0073152D02*
X0100304Y0073152D01*
X0097380Y0073622D02*
X0105080Y0081322D01*
X0101830Y0081543D02*
X0093380Y0081543D01*
X0093380Y0082941D02*
X0102233Y0082941D01*
X0103874Y0084340D02*
X0093380Y0084340D01*
X0093380Y0080144D02*
X0100509Y0080144D01*
X0099110Y0078746D02*
X0093380Y0078746D01*
X0093380Y0077347D02*
X0097711Y0077347D01*
X0093711Y0075949D02*
X0093380Y0075949D01*
X0095980Y0073622D02*
X0097380Y0073622D01*
X0138980Y0070355D02*
X0219519Y0070355D01*
X0218120Y0068956D02*
X0138980Y0068956D01*
X0138980Y0067558D02*
X0216722Y0067558D01*
X0220713Y0064761D02*
X0249527Y0064761D01*
X0249527Y0066159D02*
X0228914Y0066159D01*
X0224846Y0066159D02*
X0222112Y0066159D01*
X0219315Y0063362D02*
X0251780Y0063362D01*
X0252062Y0061964D02*
X0217916Y0061964D01*
X0216518Y0060565D02*
X0253342Y0060565D01*
X0254741Y0059167D02*
X0215119Y0059167D01*
X0213721Y0057768D02*
X0256139Y0057768D01*
X0256739Y0056370D02*
X0212322Y0056370D01*
X0210924Y0054971D02*
X0257030Y0054971D01*
X0257030Y0053573D02*
X0203423Y0053573D01*
X0200793Y0052808D02*
X0203780Y0049822D01*
X0257680Y0049822D01*
X0259430Y0048072D01*
X0257528Y0046580D02*
X0190580Y0046580D01*
X0190580Y0047022D02*
X0186380Y0047022D01*
X0186380Y0042822D01*
X0188061Y0042822D01*
X0190580Y0045341D01*
X0190580Y0047022D01*
X0190580Y0047979D02*
X0202229Y0047979D01*
X0200831Y0049377D02*
X0190106Y0049377D01*
X0186380Y0046580D02*
X0186180Y0046580D01*
X0186180Y0045182D02*
X0186380Y0045182D01*
X0186380Y0043783D02*
X0186180Y0043783D01*
X0189022Y0043783D02*
X0260325Y0043783D01*
X0261723Y0042385D02*
X0175469Y0042385D01*
X0174310Y0042385D02*
X0164737Y0042385D01*
X0166135Y0043783D02*
X0169843Y0043783D01*
X0169843Y0045182D02*
X0167534Y0045182D01*
X0168932Y0046580D02*
X0170352Y0046580D01*
X0174310Y0046580D02*
X0175469Y0046580D01*
X0175469Y0045182D02*
X0174310Y0045182D01*
X0174310Y0043783D02*
X0175469Y0043783D01*
X0175469Y0040986D02*
X0174310Y0040986D01*
X0174310Y0039588D02*
X0175469Y0039588D01*
X0169962Y0039588D02*
X0161940Y0039588D01*
X0163338Y0040986D02*
X0169843Y0040986D01*
X0179768Y0049377D02*
X0182454Y0049377D01*
X0190421Y0045182D02*
X0258926Y0045182D01*
X0258071Y0046037D02*
X0258071Y0046037D01*
X0257395Y0046712D02*
X0257395Y0046712D01*
X0263122Y0040986D02*
X0188497Y0040986D01*
X0144980Y0056822D02*
X0144980Y0092522D01*
X0144980Y0056822D02*
X0137280Y0049122D01*
X0123610Y0018610D02*
X0289749Y0018610D01*
X0289748Y0017211D02*
X0125008Y0017211D01*
X0125106Y0015813D02*
X0289747Y0015813D01*
X0289746Y0014414D02*
X0125106Y0014414D01*
X0124902Y0013016D02*
X0289744Y0013016D01*
X0286080Y0053573D02*
X0281117Y0053573D01*
X0281117Y0054971D02*
X0286080Y0054971D01*
X0286080Y0056370D02*
X0280819Y0056370D01*
X0280739Y0059167D02*
X0286080Y0059167D01*
X0286080Y0060565D02*
X0281117Y0060565D01*
X0281117Y0061964D02*
X0286080Y0061964D01*
X0286080Y0063362D02*
X0281117Y0063362D01*
X0281117Y0064761D02*
X0286080Y0064761D01*
X0286080Y0066159D02*
X0281029Y0066159D01*
X0276071Y0062808D02*
X0270667Y0062808D01*
X0268180Y0060322D01*
X0268180Y0057522D01*
X0271221Y0056370D02*
X0271322Y0056370D01*
X0271430Y0057768D02*
X0286080Y0057768D01*
X0271403Y0059167D02*
X0271016Y0059167D01*
X0270817Y0054971D02*
X0270226Y0054971D01*
X0254760Y0075949D02*
X0253600Y0075949D01*
X0253600Y0077347D02*
X0254760Y0077347D01*
X0254760Y0078746D02*
X0253600Y0078746D01*
X0052580Y0030922D02*
X0052545Y0030957D01*
X0026093Y0030957D01*
D18*
X0033680Y0072222D03*
X0137280Y0049122D03*
X0144980Y0092522D03*
X0168080Y0105822D03*
D19*
X0138680Y0096722D03*
X0158280Y0084822D03*
X0113480Y0065222D03*
X0123980Y0063122D03*
X0096680Y0058922D03*
X0078780Y0062322D03*
X0070780Y0059622D03*
X0075280Y0046022D03*
X0061680Y0038622D03*
X0052580Y0030922D03*
X0066580Y0020422D03*
X0075480Y0026522D03*
X0087886Y0025593D03*
X0089067Y0015750D03*
X0052452Y0017325D03*
X0103680Y0035122D03*
X0111380Y0049122D03*
X0137492Y0033467D03*
X0160380Y0031622D03*
X0167380Y0054722D03*
X0186980Y0056122D03*
X0226880Y0068722D03*
X0214980Y0075022D03*
X0259780Y0057522D03*
X0268180Y0057522D03*
X0268180Y0049122D03*
X0234580Y0028822D03*
X0277280Y0086222D03*
X0288480Y0097422D03*
X0105080Y0081322D03*
X0095980Y0073622D03*
X0075680Y0073622D03*
X0060980Y0081322D03*
X0081980Y0092522D03*
X0048122Y0094490D03*
D20*
X0125287Y0045671D03*
X0111801Y0038878D03*
X0127649Y0025986D03*
X0186187Y0063871D03*
X0209287Y0084871D03*
X0198787Y0096071D03*
X0198787Y0106571D03*
D21*
X0127649Y0025986D02*
X0131030Y0022606D01*
X0131030Y0013572D01*
X0127980Y0010522D01*
X0104080Y0010522D01*
X0100406Y0014196D01*
X0100406Y0015167D01*
D22*
X0084480Y0054622D03*
X0090980Y0056322D03*
X0086480Y0098322D03*
X0095980Y0098722D03*
X0091380Y0109522D03*
X0181180Y0107722D03*
M02*
