G75*
%MOIN*%
%OFA0B0*%
%FSLAX25Y25*%
%IPPOS*%
%LPD*%
%AMOC8*
5,1,8,0,0,1.08239X$1,22.5*
%
%ADD10C,0.00400*%
%ADD11C,0.00800*%
%ADD12C,0.00600*%
%ADD13R,0.03721X0.02004*%
%ADD14R,0.05582X0.03864*%
%ADD15R,0.03721X0.02147*%
%ADD16R,0.05581X0.03864*%
%ADD17R,0.05581X0.03721*%
%ADD18R,0.05582X0.03864*%
%ADD19C,0.00200*%
%ADD20R,0.05709X0.02953*%
D10*
X0190272Y0037183D02*
X0192276Y0039187D01*
X0196856Y0048776D02*
X0194279Y0051352D01*
X0194279Y0055789D02*
X0199002Y0051065D01*
X0192276Y0055073D02*
X0190415Y0056934D01*
X0192276Y0057363D02*
X0190415Y0059224D01*
X0192276Y0063947D02*
X0190272Y0065951D01*
X0192276Y0066237D02*
X0190415Y0068097D01*
X0192276Y0070530D02*
X0190272Y0072534D01*
X0192276Y0074967D02*
X0190272Y0076971D01*
X0220328Y0082552D02*
X0220330Y0082601D01*
X0220336Y0082650D01*
X0220345Y0082699D01*
X0220358Y0082746D01*
X0220375Y0082793D01*
X0220395Y0082838D01*
X0220418Y0082881D01*
X0220445Y0082923D01*
X0220475Y0082962D01*
X0220508Y0082999D01*
X0220544Y0083033D01*
X0220582Y0083064D01*
X0220622Y0083093D01*
X0220664Y0083118D01*
X0220709Y0083140D01*
X0220754Y0083158D01*
X0220801Y0083173D01*
X0220849Y0083184D01*
X0220898Y0083192D01*
X0220947Y0083196D01*
X0220997Y0083196D01*
X0221046Y0083192D01*
X0221095Y0083184D01*
X0221143Y0083173D01*
X0221190Y0083158D01*
X0221235Y0083140D01*
X0221280Y0083118D01*
X0221322Y0083093D01*
X0221362Y0083064D01*
X0221400Y0083033D01*
X0221436Y0082999D01*
X0221469Y0082962D01*
X0221499Y0082923D01*
X0221526Y0082881D01*
X0221549Y0082838D01*
X0221569Y0082793D01*
X0221586Y0082746D01*
X0221599Y0082699D01*
X0221608Y0082650D01*
X0221614Y0082601D01*
X0221616Y0082552D01*
X0230203Y0075539D02*
X0230205Y0075588D01*
X0230211Y0075637D01*
X0230220Y0075686D01*
X0230233Y0075733D01*
X0230250Y0075780D01*
X0230270Y0075825D01*
X0230293Y0075868D01*
X0230320Y0075910D01*
X0230350Y0075949D01*
X0230383Y0075986D01*
X0230419Y0076020D01*
X0230457Y0076051D01*
X0230497Y0076080D01*
X0230539Y0076105D01*
X0230584Y0076127D01*
X0230629Y0076145D01*
X0230676Y0076160D01*
X0230724Y0076171D01*
X0230773Y0076179D01*
X0230822Y0076183D01*
X0230872Y0076183D01*
X0230921Y0076179D01*
X0230970Y0076171D01*
X0231018Y0076160D01*
X0231065Y0076145D01*
X0231110Y0076127D01*
X0231155Y0076105D01*
X0231197Y0076080D01*
X0231237Y0076051D01*
X0231275Y0076020D01*
X0231311Y0075986D01*
X0231344Y0075949D01*
X0231374Y0075910D01*
X0231401Y0075868D01*
X0231424Y0075825D01*
X0231444Y0075780D01*
X0231461Y0075733D01*
X0231474Y0075686D01*
X0231483Y0075637D01*
X0231489Y0075588D01*
X0231491Y0075539D01*
X0245517Y0075539D02*
X0245519Y0075588D01*
X0245525Y0075637D01*
X0245534Y0075686D01*
X0245547Y0075733D01*
X0245564Y0075780D01*
X0245584Y0075825D01*
X0245607Y0075868D01*
X0245634Y0075910D01*
X0245664Y0075949D01*
X0245697Y0075986D01*
X0245733Y0076020D01*
X0245771Y0076051D01*
X0245811Y0076080D01*
X0245853Y0076105D01*
X0245898Y0076127D01*
X0245943Y0076145D01*
X0245990Y0076160D01*
X0246038Y0076171D01*
X0246087Y0076179D01*
X0246136Y0076183D01*
X0246186Y0076183D01*
X0246235Y0076179D01*
X0246284Y0076171D01*
X0246332Y0076160D01*
X0246379Y0076145D01*
X0246424Y0076127D01*
X0246469Y0076105D01*
X0246511Y0076080D01*
X0246551Y0076051D01*
X0246589Y0076020D01*
X0246625Y0075986D01*
X0246658Y0075949D01*
X0246688Y0075910D01*
X0246715Y0075868D01*
X0246738Y0075825D01*
X0246758Y0075780D01*
X0246775Y0075733D01*
X0246788Y0075686D01*
X0246797Y0075637D01*
X0246803Y0075588D01*
X0246805Y0075539D01*
X0251582Y0073022D02*
X0251582Y0070120D01*
X0256778Y0070022D02*
X0256778Y0073022D01*
X0259380Y0072860D02*
X0259380Y0071326D01*
X0259380Y0072093D02*
X0263984Y0072093D01*
X0263984Y0071326D02*
X0263984Y0072860D01*
X0263984Y0074395D02*
X0262449Y0075930D01*
X0263984Y0077464D01*
X0259380Y0077464D01*
X0258613Y0078999D02*
X0258613Y0082068D01*
X0260915Y0083603D02*
X0259380Y0085137D01*
X0260915Y0086672D01*
X0263984Y0086672D01*
X0263217Y0088207D02*
X0260147Y0088207D01*
X0259380Y0088974D01*
X0259380Y0090509D01*
X0260147Y0091276D01*
X0263217Y0091276D02*
X0263984Y0090509D01*
X0263984Y0088974D01*
X0263217Y0088207D01*
X0263217Y0092811D02*
X0260147Y0092811D01*
X0259380Y0093578D01*
X0259380Y0095113D01*
X0260147Y0095880D01*
X0258613Y0097415D02*
X0258613Y0100484D01*
X0260147Y0102019D02*
X0259380Y0102786D01*
X0259380Y0104320D01*
X0260147Y0105088D01*
X0259380Y0106622D02*
X0259380Y0109692D01*
X0259380Y0108157D02*
X0263984Y0108157D01*
X0262449Y0106622D01*
X0263217Y0105088D02*
X0263984Y0104320D01*
X0263984Y0102786D01*
X0263217Y0102019D01*
X0260147Y0102019D01*
X0263217Y0095880D02*
X0263984Y0095113D01*
X0263984Y0093578D01*
X0263217Y0092811D01*
X0263984Y0083603D02*
X0260915Y0083603D01*
X0259380Y0074395D02*
X0263984Y0074395D01*
X0263217Y0069791D02*
X0263984Y0069024D01*
X0263984Y0067489D01*
X0263217Y0066722D01*
X0262449Y0066722D01*
X0261682Y0067489D01*
X0261682Y0069024D01*
X0260915Y0069791D01*
X0260147Y0069791D01*
X0259380Y0069024D01*
X0259380Y0067489D01*
X0260147Y0066722D01*
X0240508Y0069099D02*
X0240351Y0069097D01*
X0240194Y0069091D01*
X0240037Y0069081D01*
X0239881Y0069068D01*
X0239725Y0069050D01*
X0239569Y0069029D01*
X0239414Y0069003D01*
X0239260Y0068974D01*
X0239107Y0068941D01*
X0238954Y0068904D01*
X0238802Y0068864D01*
X0238652Y0068819D01*
X0238502Y0068771D01*
X0238354Y0068719D01*
X0238207Y0068664D01*
X0238062Y0068604D01*
X0237918Y0068542D01*
X0237775Y0068475D01*
X0237635Y0068405D01*
X0237496Y0068332D01*
X0237359Y0068255D01*
X0237224Y0068175D01*
X0237091Y0068091D01*
X0236960Y0068005D01*
X0236832Y0067915D01*
X0236705Y0067821D01*
X0236581Y0067725D01*
X0236460Y0067626D01*
X0236341Y0067523D01*
X0236224Y0067418D01*
X0236111Y0067310D01*
X0235999Y0067198D01*
X0235891Y0067085D01*
X0235786Y0066968D01*
X0235683Y0066849D01*
X0235584Y0066728D01*
X0235488Y0066604D01*
X0235394Y0066477D01*
X0235304Y0066349D01*
X0235218Y0066218D01*
X0235134Y0066085D01*
X0235054Y0065950D01*
X0234977Y0065813D01*
X0234904Y0065674D01*
X0234834Y0065534D01*
X0234767Y0065391D01*
X0234705Y0065247D01*
X0234645Y0065102D01*
X0234590Y0064955D01*
X0234538Y0064807D01*
X0234490Y0064657D01*
X0234445Y0064507D01*
X0234405Y0064355D01*
X0234368Y0064202D01*
X0234335Y0064049D01*
X0234306Y0063895D01*
X0234280Y0063740D01*
X0234259Y0063584D01*
X0234241Y0063428D01*
X0234228Y0063272D01*
X0234218Y0063115D01*
X0234212Y0062958D01*
X0234210Y0062801D01*
X0217322Y0062372D02*
X0217320Y0062538D01*
X0217314Y0062704D01*
X0217304Y0062870D01*
X0217290Y0063035D01*
X0217272Y0063200D01*
X0217250Y0063365D01*
X0217224Y0063529D01*
X0217194Y0063692D01*
X0217160Y0063854D01*
X0217122Y0064016D01*
X0217081Y0064177D01*
X0217035Y0064336D01*
X0216986Y0064495D01*
X0216933Y0064652D01*
X0216876Y0064808D01*
X0216815Y0064963D01*
X0216750Y0065116D01*
X0216682Y0065267D01*
X0216610Y0065417D01*
X0216535Y0065565D01*
X0216456Y0065711D01*
X0216374Y0065855D01*
X0216288Y0065997D01*
X0216199Y0066137D01*
X0216106Y0066275D01*
X0216010Y0066410D01*
X0215911Y0066543D01*
X0215808Y0066674D01*
X0215703Y0066802D01*
X0215594Y0066928D01*
X0215483Y0067051D01*
X0215368Y0067171D01*
X0215251Y0067288D01*
X0215131Y0067403D01*
X0215008Y0067514D01*
X0214882Y0067623D01*
X0214754Y0067728D01*
X0214623Y0067831D01*
X0214490Y0067930D01*
X0214355Y0068026D01*
X0214217Y0068119D01*
X0214077Y0068208D01*
X0213935Y0068294D01*
X0213791Y0068376D01*
X0213645Y0068455D01*
X0213497Y0068530D01*
X0213347Y0068602D01*
X0213196Y0068670D01*
X0213043Y0068735D01*
X0212888Y0068796D01*
X0212732Y0068853D01*
X0212575Y0068906D01*
X0212416Y0068955D01*
X0212257Y0069001D01*
X0212096Y0069042D01*
X0211934Y0069080D01*
X0211772Y0069114D01*
X0211609Y0069144D01*
X0211445Y0069170D01*
X0211280Y0069192D01*
X0211115Y0069210D01*
X0210950Y0069224D01*
X0210784Y0069234D01*
X0210618Y0069240D01*
X0210452Y0069242D01*
X0234210Y0042622D02*
X0234212Y0042465D01*
X0234218Y0042308D01*
X0234228Y0042151D01*
X0234241Y0041995D01*
X0234259Y0041839D01*
X0234280Y0041683D01*
X0234306Y0041528D01*
X0234335Y0041374D01*
X0234368Y0041221D01*
X0234405Y0041068D01*
X0234445Y0040916D01*
X0234490Y0040766D01*
X0234538Y0040616D01*
X0234590Y0040468D01*
X0234645Y0040321D01*
X0234705Y0040176D01*
X0234767Y0040032D01*
X0234834Y0039889D01*
X0234904Y0039749D01*
X0234977Y0039610D01*
X0235054Y0039473D01*
X0235134Y0039338D01*
X0235218Y0039205D01*
X0235304Y0039074D01*
X0235394Y0038946D01*
X0235488Y0038819D01*
X0235584Y0038695D01*
X0235683Y0038574D01*
X0235786Y0038455D01*
X0235891Y0038338D01*
X0235999Y0038225D01*
X0236111Y0038113D01*
X0236224Y0038005D01*
X0236341Y0037900D01*
X0236460Y0037797D01*
X0236581Y0037698D01*
X0236705Y0037602D01*
X0236832Y0037508D01*
X0236960Y0037418D01*
X0237091Y0037332D01*
X0237224Y0037248D01*
X0237359Y0037168D01*
X0237496Y0037091D01*
X0237635Y0037018D01*
X0237775Y0036948D01*
X0237918Y0036881D01*
X0238062Y0036819D01*
X0238207Y0036759D01*
X0238354Y0036704D01*
X0238502Y0036652D01*
X0238652Y0036604D01*
X0238802Y0036559D01*
X0238954Y0036519D01*
X0239107Y0036482D01*
X0239260Y0036449D01*
X0239414Y0036420D01*
X0239569Y0036394D01*
X0239725Y0036373D01*
X0239881Y0036355D01*
X0240037Y0036342D01*
X0240194Y0036332D01*
X0240351Y0036326D01*
X0240508Y0036324D01*
X0247664Y0029884D02*
X0246233Y0028452D01*
X0043362Y0108774D02*
X0042903Y0108315D01*
X0041986Y0108315D01*
X0041527Y0108774D01*
X0041527Y0109691D01*
X0042445Y0109691D01*
X0043362Y0108774D02*
X0043362Y0110609D01*
X0042903Y0111067D01*
X0041986Y0111067D01*
X0041527Y0110609D01*
X0040462Y0111067D02*
X0039086Y0111067D01*
X0038627Y0110609D01*
X0038627Y0109691D01*
X0039086Y0109233D01*
X0040462Y0109233D01*
X0040462Y0108315D02*
X0040462Y0111067D01*
X0037562Y0111067D02*
X0036186Y0111067D01*
X0035727Y0110609D01*
X0035727Y0109691D01*
X0036186Y0109233D01*
X0037562Y0109233D01*
X0037562Y0108315D02*
X0037562Y0111067D01*
X0034662Y0110609D02*
X0034662Y0110150D01*
X0034203Y0109691D01*
X0033286Y0109691D01*
X0032827Y0109233D01*
X0032827Y0108774D01*
X0033286Y0108315D01*
X0034203Y0108315D01*
X0034662Y0108774D01*
X0035727Y0108315D02*
X0036644Y0109233D01*
X0034662Y0110609D02*
X0034203Y0111067D01*
X0033286Y0111067D01*
X0032827Y0110609D01*
X0031762Y0109691D02*
X0029927Y0109691D01*
X0030844Y0108774D02*
X0030844Y0110609D01*
X0028861Y0110609D02*
X0028861Y0108774D01*
X0028403Y0108315D01*
X0027485Y0108315D01*
X0027027Y0108774D01*
X0027027Y0109691D01*
X0027944Y0109691D01*
X0027027Y0110609D02*
X0027485Y0111067D01*
X0028403Y0111067D01*
X0028861Y0110609D01*
X0025961Y0111067D02*
X0024585Y0111067D01*
X0024127Y0110609D01*
X0024127Y0109691D01*
X0024585Y0109233D01*
X0025961Y0109233D01*
X0025961Y0108315D02*
X0025961Y0111067D01*
X0023061Y0110609D02*
X0023061Y0110150D01*
X0022603Y0109691D01*
X0021685Y0109691D01*
X0021227Y0109233D01*
X0021227Y0108774D01*
X0021685Y0108315D01*
X0022603Y0108315D01*
X0023061Y0108774D01*
X0023061Y0110609D02*
X0022603Y0111067D01*
X0021685Y0111067D01*
X0021227Y0110609D01*
X0026324Y0104768D02*
X0025865Y0104310D01*
X0027700Y0102475D01*
X0027241Y0102016D01*
X0026324Y0102016D01*
X0025865Y0102475D01*
X0025865Y0104310D01*
X0026324Y0104768D02*
X0027241Y0104768D01*
X0027700Y0104310D01*
X0027700Y0102475D01*
X0028691Y0102475D02*
X0028691Y0102016D01*
X0029150Y0102016D01*
X0029150Y0102475D01*
X0028691Y0102475D01*
X0030215Y0102016D02*
X0032050Y0102016D01*
X0031133Y0102016D02*
X0031133Y0104768D01*
X0032050Y0103851D01*
X0036016Y0102934D02*
X0036016Y0104768D01*
X0037850Y0104768D02*
X0037850Y0102934D01*
X0036933Y0102016D01*
X0036016Y0102934D01*
D11*
X0159787Y0038471D02*
X0159787Y0024302D01*
X0189270Y0024302D01*
X0189270Y0026306D01*
X0246376Y0026306D01*
X0246376Y0024302D01*
X0250526Y0024302D01*
X0266127Y0026019D01*
X0269562Y0025590D01*
X0269562Y0028309D01*
X0269419Y0028309D02*
X0251671Y0028309D01*
X0251604Y0028311D01*
X0251538Y0028317D01*
X0251472Y0028326D01*
X0251407Y0028340D01*
X0251343Y0028357D01*
X0251279Y0028378D01*
X0251217Y0028403D01*
X0251157Y0028431D01*
X0251099Y0028462D01*
X0251042Y0028497D01*
X0250987Y0028536D01*
X0250935Y0028577D01*
X0250885Y0028621D01*
X0250838Y0028668D01*
X0250794Y0028718D01*
X0250753Y0028770D01*
X0250714Y0028825D01*
X0250679Y0028882D01*
X0250648Y0028940D01*
X0250620Y0029000D01*
X0250595Y0029062D01*
X0250574Y0029126D01*
X0250557Y0029190D01*
X0250543Y0029255D01*
X0250534Y0029321D01*
X0250528Y0029387D01*
X0250526Y0029454D01*
X0250526Y0087276D01*
X0251385Y0088134D01*
X0269419Y0088134D01*
X0269562Y0087991D02*
X0269562Y0090710D01*
X0266127Y0090424D01*
X0250526Y0091856D01*
X0246376Y0091856D01*
X0246376Y0089995D01*
X0189270Y0089995D01*
X0189270Y0091999D01*
X0178965Y0091999D01*
X0178965Y0088564D01*
X0171809Y0088564D01*
X0159930Y0076684D01*
X0159787Y0076398D02*
X0159787Y0091999D01*
X0178965Y0091999D01*
X0180110Y0091856D02*
X0180110Y0087991D01*
X0189270Y0087991D01*
X0189270Y0028309D01*
X0180969Y0028309D01*
X0180110Y0027451D01*
X0180110Y0024445D01*
X0178965Y0024445D02*
X0178965Y0027880D01*
X0163222Y0027880D01*
X0161362Y0029740D01*
X0161362Y0038185D01*
X0159787Y0038471D02*
X0182687Y0038471D01*
X0182687Y0076398D01*
X0159787Y0076398D01*
X0161362Y0076541D02*
X0172954Y0088277D01*
X0173097Y0088277D01*
X0173097Y0086130D01*
X0179108Y0086130D01*
X0179108Y0083554D01*
X0189270Y0083554D01*
X0192419Y0081551D02*
X0193993Y0079977D01*
X0192848Y0078975D02*
X0191417Y0080406D01*
X0190129Y0079404D02*
X0190129Y0032603D01*
X0190272Y0032603D02*
X0194423Y0028452D01*
X0194423Y0028309D02*
X0235069Y0028309D01*
X0237073Y0030313D01*
X0238934Y0028452D01*
X0239506Y0028452D02*
X0241367Y0030313D01*
X0243227Y0028452D01*
X0243943Y0028452D02*
X0245803Y0030313D01*
X0247664Y0028452D01*
X0247807Y0028309D02*
X0247807Y0030456D01*
X0194709Y0030456D01*
X0194709Y0030313D02*
X0196569Y0028452D01*
X0197285Y0028453D02*
X0197285Y0028452D01*
X0197285Y0028453D02*
X0199145Y0030313D01*
X0201006Y0028452D01*
X0201722Y0028452D02*
X0203582Y0030313D01*
X0205443Y0028452D01*
X0206158Y0028452D02*
X0208019Y0030313D01*
X0209880Y0028452D01*
X0210595Y0028452D02*
X0212456Y0030313D01*
X0214317Y0028452D01*
X0214889Y0028452D02*
X0216750Y0030313D01*
X0218610Y0028452D01*
X0219469Y0028452D02*
X0221330Y0030313D01*
X0223190Y0028452D01*
X0223906Y0028452D02*
X0225766Y0030313D01*
X0227627Y0028452D01*
X0228343Y0028452D02*
X0230203Y0030313D01*
X0232063Y0028452D01*
X0232779Y0028452D02*
X0234640Y0030313D01*
X0236500Y0028452D01*
X0237359Y0028452D02*
X0239220Y0030313D01*
X0241080Y0028452D01*
X0241796Y0028452D02*
X0243656Y0030313D01*
X0245517Y0028452D01*
X0247807Y0028309D02*
X0235069Y0028309D01*
X0234354Y0028452D02*
X0232493Y0030313D01*
X0230632Y0028452D01*
X0229917Y0028453D02*
X0229917Y0028452D01*
X0229917Y0028453D02*
X0228056Y0030313D01*
X0226196Y0028452D01*
X0225480Y0028452D02*
X0223619Y0030313D01*
X0221759Y0028452D01*
X0221043Y0028452D02*
X0219183Y0030313D01*
X0217322Y0028452D01*
X0216463Y0028452D02*
X0214603Y0030313D01*
X0212742Y0028452D01*
X0212026Y0028452D02*
X0210166Y0030313D01*
X0208305Y0028452D01*
X0207590Y0028452D02*
X0205729Y0030313D01*
X0203869Y0028452D01*
X0203153Y0028452D02*
X0201292Y0030313D01*
X0201292Y0030313D01*
X0199432Y0028452D01*
X0198859Y0028453D02*
X0198859Y0028452D01*
X0198859Y0028453D02*
X0196999Y0030313D01*
X0196856Y0030313D02*
X0194995Y0028452D01*
X0194566Y0030313D02*
X0192991Y0028739D01*
X0191560Y0029454D02*
X0193134Y0031028D01*
X0192276Y0032460D02*
X0190701Y0030886D01*
X0190272Y0032603D02*
X0190272Y0032603D01*
X0192276Y0034607D01*
X0192276Y0035036D02*
X0192276Y0035036D01*
X0190272Y0037040D01*
X0190272Y0037183D02*
X0190272Y0037183D01*
X0192276Y0037183D02*
X0192276Y0037183D01*
X0190272Y0039187D01*
X0190272Y0039330D02*
X0192276Y0041333D01*
X0192276Y0041620D02*
X0190272Y0043623D01*
X0190272Y0043766D02*
X0190272Y0043767D01*
X0192276Y0045770D01*
X0192276Y0046199D02*
X0192276Y0046200D01*
X0190272Y0048203D01*
X0192276Y0050207D01*
X0192276Y0050779D02*
X0192419Y0050779D01*
X0192419Y0078259D01*
X0199861Y0085701D01*
X0247807Y0085701D01*
X0247807Y0086417D01*
X0246233Y0087991D01*
X0245517Y0087991D02*
X0243656Y0085988D01*
X0241653Y0087991D01*
X0241080Y0087991D02*
X0239220Y0085988D01*
X0237216Y0087848D01*
X0236787Y0087848D02*
X0234783Y0085988D01*
X0232779Y0087991D01*
X0232207Y0087991D02*
X0230346Y0085988D01*
X0228343Y0087848D01*
X0227770Y0087991D02*
X0225766Y0085988D01*
X0223906Y0087848D01*
X0223333Y0087991D02*
X0221330Y0085988D01*
X0219326Y0087991D01*
X0218753Y0087991D02*
X0216893Y0085988D01*
X0214889Y0087991D01*
X0214460Y0087991D02*
X0212456Y0085988D01*
X0210595Y0087848D01*
X0210023Y0087848D02*
X0208019Y0085988D01*
X0206158Y0087848D01*
X0205586Y0087991D02*
X0203582Y0085988D01*
X0201578Y0087991D01*
X0201149Y0087991D02*
X0190272Y0077114D01*
X0190272Y0079117D02*
X0192276Y0077114D01*
X0192276Y0076971D02*
X0190272Y0074967D01*
X0190272Y0074681D02*
X0192276Y0072677D01*
X0192276Y0072534D02*
X0190272Y0070530D01*
X0190272Y0070387D02*
X0192276Y0068384D01*
X0192276Y0068097D02*
X0190272Y0066094D01*
X0190272Y0066093D01*
X0192276Y0065951D02*
X0190272Y0063947D01*
X0190272Y0063947D01*
X0190272Y0063804D02*
X0192276Y0061800D01*
X0192276Y0061800D01*
X0192276Y0061371D02*
X0190272Y0059367D01*
X0190272Y0059367D01*
X0192276Y0059224D02*
X0190272Y0057220D01*
X0190272Y0057220D01*
X0192276Y0056934D02*
X0190272Y0054930D01*
X0190415Y0054787D02*
X0192276Y0052926D01*
X0192276Y0052497D02*
X0190272Y0050493D01*
X0190272Y0050493D01*
X0190272Y0050350D02*
X0192276Y0048347D01*
X0192276Y0048346D01*
X0192276Y0048060D02*
X0190272Y0046056D01*
X0190272Y0045913D02*
X0192276Y0043910D01*
X0192276Y0043480D02*
X0190272Y0041477D01*
X0190415Y0041333D02*
X0192275Y0039473D01*
X0192276Y0039473D01*
X0192276Y0036897D02*
X0190272Y0034893D01*
X0190415Y0034607D02*
X0192276Y0032746D01*
X0192419Y0032746D02*
X0192419Y0050779D01*
X0192276Y0050779D02*
X0190415Y0052640D01*
X0190272Y0052640D02*
X0190272Y0052640D01*
X0192276Y0054644D01*
X0194279Y0055502D02*
X0196999Y0058222D01*
X0196999Y0058222D01*
X0198000Y0057077D02*
X0194279Y0053356D01*
X0194279Y0053499D02*
X0197858Y0049921D01*
X0199575Y0051781D02*
X0199575Y0051781D01*
X0194279Y0046486D01*
X0194279Y0046915D02*
X0194852Y0046343D01*
X0194852Y0046343D01*
X0194136Y0045341D02*
X0194136Y0061800D01*
X0201149Y0053499D01*
X0194136Y0045198D01*
X0196712Y0044625D02*
X0200863Y0044625D01*
X0196712Y0046056D01*
X0200863Y0046056D01*
X0204298Y0046629D02*
X0217179Y0046629D01*
X0217179Y0049062D02*
X0204298Y0049062D01*
X0204298Y0050779D02*
X0215175Y0051638D01*
X0215175Y0054071D01*
X0204298Y0054787D01*
X0200863Y0053642D02*
X0200863Y0053642D01*
X0198859Y0055645D01*
X0194279Y0051065D01*
X0194279Y0049205D02*
X0195854Y0047631D01*
X0194279Y0048776D02*
X0200004Y0054501D01*
X0200004Y0054501D01*
X0198859Y0055645D02*
X0194279Y0060225D01*
X0194279Y0059939D02*
X0194995Y0060655D01*
X0195997Y0059510D02*
X0194279Y0057792D01*
X0194279Y0058078D02*
X0200004Y0052354D01*
X0200004Y0052354D01*
X0204441Y0056504D02*
X0217179Y0056504D01*
X0217179Y0059080D02*
X0204441Y0059080D01*
X0204298Y0060798D02*
X0215175Y0061657D01*
X0215175Y0064090D01*
X0204584Y0064805D01*
X0204155Y0062945D02*
X0204155Y0042621D01*
X0204584Y0040761D02*
X0215175Y0041620D01*
X0215175Y0044053D01*
X0204298Y0044912D01*
X0200863Y0041906D02*
X0200863Y0040475D01*
X0196712Y0040475D01*
X0196712Y0041906D01*
X0198716Y0041620D02*
X0198716Y0040618D01*
X0205300Y0039187D02*
X0215748Y0039187D01*
X0210452Y0036324D02*
X0210295Y0036326D01*
X0210138Y0036332D01*
X0209981Y0036342D01*
X0209825Y0036355D01*
X0209669Y0036373D01*
X0209513Y0036394D01*
X0209359Y0036420D01*
X0209204Y0036449D01*
X0209051Y0036482D01*
X0208898Y0036519D01*
X0208747Y0036559D01*
X0208596Y0036604D01*
X0208446Y0036652D01*
X0208298Y0036704D01*
X0208151Y0036759D01*
X0208006Y0036818D01*
X0207862Y0036881D01*
X0207720Y0036948D01*
X0207579Y0037017D01*
X0207440Y0037091D01*
X0207304Y0037168D01*
X0207169Y0037248D01*
X0207036Y0037331D01*
X0206905Y0037418D01*
X0206776Y0037508D01*
X0206650Y0037601D01*
X0206526Y0037698D01*
X0206404Y0037797D01*
X0206285Y0037900D01*
X0206169Y0038005D01*
X0206055Y0038113D01*
X0205944Y0038224D01*
X0205836Y0038338D01*
X0205731Y0038454D01*
X0205628Y0038573D01*
X0205529Y0038695D01*
X0205432Y0038819D01*
X0205339Y0038945D01*
X0205249Y0039074D01*
X0205162Y0039205D01*
X0205079Y0039338D01*
X0204999Y0039472D01*
X0204922Y0039609D01*
X0204848Y0039748D01*
X0204779Y0039889D01*
X0204712Y0040031D01*
X0204649Y0040175D01*
X0204590Y0040320D01*
X0204535Y0040467D01*
X0204483Y0040615D01*
X0204435Y0040765D01*
X0204390Y0040916D01*
X0204350Y0041067D01*
X0204313Y0041220D01*
X0204280Y0041373D01*
X0204251Y0041528D01*
X0204225Y0041682D01*
X0204204Y0041838D01*
X0204186Y0041994D01*
X0204173Y0042150D01*
X0204163Y0042307D01*
X0204157Y0042464D01*
X0204155Y0042621D01*
X0210452Y0036324D02*
X0210618Y0036326D01*
X0210784Y0036332D01*
X0210950Y0036342D01*
X0211115Y0036356D01*
X0211280Y0036374D01*
X0211445Y0036396D01*
X0211609Y0036422D01*
X0211772Y0036452D01*
X0211934Y0036486D01*
X0212096Y0036524D01*
X0212257Y0036565D01*
X0212416Y0036611D01*
X0212575Y0036660D01*
X0212732Y0036713D01*
X0212888Y0036770D01*
X0213043Y0036831D01*
X0213196Y0036896D01*
X0213347Y0036964D01*
X0213497Y0037036D01*
X0213645Y0037111D01*
X0213791Y0037190D01*
X0213935Y0037272D01*
X0214077Y0037358D01*
X0214217Y0037447D01*
X0214355Y0037540D01*
X0214490Y0037636D01*
X0214623Y0037735D01*
X0214754Y0037838D01*
X0214882Y0037943D01*
X0215008Y0038052D01*
X0215131Y0038163D01*
X0215251Y0038278D01*
X0215368Y0038395D01*
X0215483Y0038515D01*
X0215594Y0038638D01*
X0215703Y0038764D01*
X0215808Y0038892D01*
X0215911Y0039023D01*
X0216010Y0039156D01*
X0216106Y0039291D01*
X0216199Y0039429D01*
X0216288Y0039569D01*
X0216374Y0039711D01*
X0216456Y0039855D01*
X0216535Y0040001D01*
X0216610Y0040149D01*
X0216682Y0040299D01*
X0216750Y0040450D01*
X0216815Y0040603D01*
X0216876Y0040758D01*
X0216933Y0040914D01*
X0216986Y0041071D01*
X0217035Y0041230D01*
X0217081Y0041389D01*
X0217122Y0041550D01*
X0217160Y0041712D01*
X0217194Y0041874D01*
X0217224Y0042037D01*
X0217250Y0042201D01*
X0217272Y0042366D01*
X0217290Y0042531D01*
X0217304Y0042696D01*
X0217314Y0042862D01*
X0217320Y0043028D01*
X0217322Y0043194D01*
X0217322Y0062372D01*
X0210452Y0069242D02*
X0210295Y0069240D01*
X0210138Y0069234D01*
X0209981Y0069224D01*
X0209825Y0069211D01*
X0209669Y0069193D01*
X0209513Y0069172D01*
X0209359Y0069146D01*
X0209204Y0069117D01*
X0209051Y0069084D01*
X0208898Y0069047D01*
X0208747Y0069007D01*
X0208596Y0068962D01*
X0208446Y0068914D01*
X0208298Y0068862D01*
X0208151Y0068807D01*
X0208006Y0068748D01*
X0207862Y0068685D01*
X0207720Y0068618D01*
X0207579Y0068549D01*
X0207440Y0068475D01*
X0207304Y0068398D01*
X0207169Y0068318D01*
X0207036Y0068235D01*
X0206905Y0068148D01*
X0206776Y0068058D01*
X0206650Y0067965D01*
X0206526Y0067868D01*
X0206404Y0067769D01*
X0206285Y0067666D01*
X0206169Y0067561D01*
X0206055Y0067453D01*
X0205944Y0067342D01*
X0205836Y0067228D01*
X0205731Y0067112D01*
X0205628Y0066993D01*
X0205529Y0066871D01*
X0205432Y0066747D01*
X0205339Y0066621D01*
X0205249Y0066492D01*
X0205162Y0066361D01*
X0205079Y0066228D01*
X0204999Y0066093D01*
X0204922Y0065957D01*
X0204848Y0065818D01*
X0204779Y0065677D01*
X0204712Y0065535D01*
X0204649Y0065391D01*
X0204590Y0065246D01*
X0204535Y0065099D01*
X0204483Y0064951D01*
X0204435Y0064801D01*
X0204390Y0064650D01*
X0204350Y0064499D01*
X0204313Y0064346D01*
X0204280Y0064193D01*
X0204251Y0064038D01*
X0204225Y0063884D01*
X0204204Y0063728D01*
X0204186Y0063572D01*
X0204173Y0063416D01*
X0204163Y0063259D01*
X0204157Y0063102D01*
X0204155Y0062945D01*
X0200863Y0064949D02*
X0200863Y0065664D01*
X0200863Y0064949D02*
X0196712Y0064949D01*
X0198716Y0065091D02*
X0198716Y0065807D01*
X0198717Y0065807D02*
X0198719Y0065852D01*
X0198724Y0065896D01*
X0198733Y0065941D01*
X0198745Y0065984D01*
X0198761Y0066026D01*
X0198779Y0066067D01*
X0198801Y0066106D01*
X0198826Y0066143D01*
X0198854Y0066178D01*
X0198885Y0066211D01*
X0198918Y0066242D01*
X0198953Y0066270D01*
X0198990Y0066295D01*
X0199029Y0066317D01*
X0199070Y0066335D01*
X0199112Y0066351D01*
X0199155Y0066363D01*
X0199200Y0066372D01*
X0199244Y0066377D01*
X0199289Y0066379D01*
X0199289Y0066380D02*
X0200147Y0066380D01*
X0200148Y0066380D02*
X0200199Y0066378D01*
X0200250Y0066373D01*
X0200300Y0066364D01*
X0200350Y0066351D01*
X0200398Y0066335D01*
X0200445Y0066315D01*
X0200491Y0066293D01*
X0200535Y0066266D01*
X0200577Y0066237D01*
X0200617Y0066205D01*
X0200654Y0066170D01*
X0200689Y0066133D01*
X0200721Y0066093D01*
X0200750Y0066051D01*
X0200776Y0066007D01*
X0200799Y0065962D01*
X0200819Y0065914D01*
X0200835Y0065866D01*
X0200848Y0065816D01*
X0200857Y0065766D01*
X0200862Y0065715D01*
X0200864Y0065664D01*
X0200863Y0069099D02*
X0196712Y0069099D01*
X0196712Y0070530D01*
X0198716Y0070244D02*
X0198716Y0069242D01*
X0200863Y0069099D02*
X0200863Y0070530D01*
X0200863Y0073250D02*
X0196712Y0073250D01*
X0196712Y0074681D02*
X0200863Y0074681D01*
X0200863Y0073250D02*
X0196712Y0074681D01*
X0192276Y0074824D02*
X0190272Y0072820D01*
X0192276Y0070244D02*
X0190272Y0068241D01*
X0190272Y0068240D01*
X0192276Y0063947D02*
X0192276Y0063947D01*
X0192276Y0063517D02*
X0190272Y0061514D01*
X0190272Y0061514D01*
X0190415Y0061514D02*
X0192276Y0059653D01*
X0197285Y0060798D02*
X0200291Y0060798D01*
X0200340Y0060800D01*
X0200389Y0060806D01*
X0200438Y0060815D01*
X0200485Y0060828D01*
X0200532Y0060845D01*
X0200577Y0060865D01*
X0200620Y0060888D01*
X0200662Y0060915D01*
X0200701Y0060945D01*
X0200738Y0060978D01*
X0200772Y0061014D01*
X0200803Y0061052D01*
X0200832Y0061092D01*
X0200857Y0061134D01*
X0200879Y0061179D01*
X0200897Y0061224D01*
X0200912Y0061271D01*
X0200923Y0061319D01*
X0200931Y0061368D01*
X0200935Y0061417D01*
X0200935Y0061467D01*
X0200931Y0061516D01*
X0200923Y0061565D01*
X0200912Y0061613D01*
X0200897Y0061660D01*
X0200879Y0061705D01*
X0200857Y0061750D01*
X0200832Y0061792D01*
X0200803Y0061832D01*
X0200772Y0061870D01*
X0200738Y0061906D01*
X0200701Y0061939D01*
X0200662Y0061969D01*
X0200620Y0061996D01*
X0200577Y0062019D01*
X0200532Y0062039D01*
X0200485Y0062056D01*
X0200438Y0062069D01*
X0200389Y0062078D01*
X0200340Y0062084D01*
X0200291Y0062086D01*
X0197285Y0062086D01*
X0197236Y0062084D01*
X0197187Y0062078D01*
X0197138Y0062069D01*
X0197091Y0062056D01*
X0197044Y0062039D01*
X0196999Y0062019D01*
X0196956Y0061996D01*
X0196914Y0061969D01*
X0196875Y0061939D01*
X0196838Y0061906D01*
X0196804Y0061870D01*
X0196773Y0061832D01*
X0196744Y0061792D01*
X0196719Y0061750D01*
X0196697Y0061705D01*
X0196679Y0061660D01*
X0196664Y0061613D01*
X0196653Y0061565D01*
X0196645Y0061516D01*
X0196641Y0061467D01*
X0196641Y0061417D01*
X0196645Y0061368D01*
X0196653Y0061319D01*
X0196664Y0061271D01*
X0196679Y0061224D01*
X0196697Y0061179D01*
X0196719Y0061134D01*
X0196744Y0061092D01*
X0196773Y0061052D01*
X0196804Y0061014D01*
X0196838Y0060978D01*
X0196875Y0060945D01*
X0196914Y0060915D01*
X0196956Y0060888D01*
X0196999Y0060865D01*
X0197044Y0060845D01*
X0197091Y0060828D01*
X0197138Y0060815D01*
X0197187Y0060806D01*
X0197236Y0060800D01*
X0197285Y0060798D01*
X0205443Y0066523D02*
X0215604Y0066523D01*
X0222475Y0071818D02*
X0223190Y0074395D01*
X0223763Y0073250D02*
X0222475Y0076112D01*
X0223763Y0076112D02*
X0223763Y0073250D01*
X0223763Y0071818D01*
X0226196Y0072534D02*
X0226196Y0072677D01*
X0226195Y0072534D02*
X0226197Y0072482D01*
X0226203Y0072430D01*
X0226212Y0072378D01*
X0226225Y0072328D01*
X0226242Y0072278D01*
X0226263Y0072230D01*
X0226287Y0072184D01*
X0226314Y0072139D01*
X0226344Y0072096D01*
X0226378Y0072056D01*
X0226414Y0072019D01*
X0226453Y0071984D01*
X0226494Y0071952D01*
X0226538Y0071923D01*
X0226584Y0071897D01*
X0226631Y0071875D01*
X0226680Y0071856D01*
X0226730Y0071841D01*
X0226781Y0071830D01*
X0226833Y0071822D01*
X0226885Y0071818D01*
X0226937Y0071818D01*
X0226989Y0071822D01*
X0227041Y0071830D01*
X0227092Y0071841D01*
X0227142Y0071856D01*
X0227191Y0071875D01*
X0227238Y0071897D01*
X0227284Y0071923D01*
X0227328Y0071952D01*
X0227369Y0071984D01*
X0227408Y0072019D01*
X0227444Y0072056D01*
X0227478Y0072096D01*
X0227508Y0072139D01*
X0227535Y0072184D01*
X0227559Y0072230D01*
X0227580Y0072278D01*
X0227597Y0072328D01*
X0227610Y0072378D01*
X0227619Y0072430D01*
X0227625Y0072482D01*
X0227627Y0072534D01*
X0227627Y0075397D01*
X0227625Y0075449D01*
X0227619Y0075501D01*
X0227610Y0075553D01*
X0227597Y0075603D01*
X0227580Y0075653D01*
X0227559Y0075701D01*
X0227535Y0075747D01*
X0227508Y0075792D01*
X0227478Y0075835D01*
X0227444Y0075875D01*
X0227408Y0075912D01*
X0227369Y0075947D01*
X0227328Y0075979D01*
X0227284Y0076008D01*
X0227238Y0076034D01*
X0227191Y0076056D01*
X0227142Y0076075D01*
X0227092Y0076090D01*
X0227041Y0076101D01*
X0226989Y0076109D01*
X0226937Y0076113D01*
X0226885Y0076113D01*
X0226833Y0076109D01*
X0226781Y0076101D01*
X0226730Y0076090D01*
X0226680Y0076075D01*
X0226631Y0076056D01*
X0226584Y0076034D01*
X0226538Y0076008D01*
X0226494Y0075979D01*
X0226453Y0075947D01*
X0226414Y0075912D01*
X0226378Y0075875D01*
X0226344Y0075835D01*
X0226314Y0075792D01*
X0226287Y0075747D01*
X0226263Y0075701D01*
X0226242Y0075653D01*
X0226225Y0075603D01*
X0226212Y0075553D01*
X0226203Y0075501D01*
X0226197Y0075449D01*
X0226195Y0075397D01*
X0226196Y0075397D02*
X0226196Y0075253D01*
X0230203Y0075539D02*
X0230203Y0072534D01*
X0230205Y0072485D01*
X0230211Y0072436D01*
X0230220Y0072387D01*
X0230233Y0072340D01*
X0230250Y0072293D01*
X0230270Y0072248D01*
X0230293Y0072205D01*
X0230320Y0072163D01*
X0230350Y0072124D01*
X0230383Y0072087D01*
X0230419Y0072053D01*
X0230457Y0072022D01*
X0230497Y0071993D01*
X0230539Y0071968D01*
X0230584Y0071946D01*
X0230629Y0071928D01*
X0230676Y0071913D01*
X0230724Y0071902D01*
X0230773Y0071894D01*
X0230822Y0071890D01*
X0230872Y0071890D01*
X0230921Y0071894D01*
X0230970Y0071902D01*
X0231018Y0071913D01*
X0231065Y0071928D01*
X0231110Y0071946D01*
X0231155Y0071968D01*
X0231197Y0071993D01*
X0231237Y0072022D01*
X0231275Y0072053D01*
X0231311Y0072087D01*
X0231344Y0072124D01*
X0231374Y0072163D01*
X0231401Y0072205D01*
X0231424Y0072248D01*
X0231444Y0072293D01*
X0231461Y0072340D01*
X0231474Y0072387D01*
X0231483Y0072436D01*
X0231489Y0072485D01*
X0231491Y0072534D01*
X0231491Y0075539D01*
X0235356Y0076112D02*
X0235356Y0071818D01*
X0233924Y0071818D01*
X0237932Y0071818D02*
X0237932Y0076112D01*
X0239076Y0072820D01*
X0240365Y0076112D01*
X0240365Y0071818D01*
X0242941Y0071818D02*
X0242941Y0076112D01*
X0245517Y0075539D02*
X0245517Y0075253D01*
X0246233Y0073966D02*
X0246278Y0073968D01*
X0246322Y0073973D01*
X0246367Y0073982D01*
X0246410Y0073994D01*
X0246452Y0074010D01*
X0246493Y0074028D01*
X0246532Y0074050D01*
X0246569Y0074075D01*
X0246604Y0074103D01*
X0246637Y0074134D01*
X0246668Y0074167D01*
X0246696Y0074202D01*
X0246721Y0074239D01*
X0246743Y0074278D01*
X0246761Y0074319D01*
X0246777Y0074361D01*
X0246789Y0074404D01*
X0246798Y0074449D01*
X0246803Y0074493D01*
X0246805Y0074538D01*
X0246805Y0075539D01*
X0246233Y0073965D02*
X0246089Y0073965D01*
X0246039Y0073952D01*
X0245990Y0073935D01*
X0245942Y0073915D01*
X0245895Y0073891D01*
X0245851Y0073865D01*
X0245808Y0073835D01*
X0245768Y0073802D01*
X0245730Y0073766D01*
X0245694Y0073728D01*
X0245662Y0073687D01*
X0245632Y0073644D01*
X0245606Y0073600D01*
X0245583Y0073553D01*
X0245563Y0073505D01*
X0245546Y0073455D01*
X0245534Y0073405D01*
X0245524Y0073354D01*
X0245519Y0073302D01*
X0245517Y0073250D01*
X0245517Y0072391D01*
X0245519Y0072342D01*
X0245525Y0072293D01*
X0245534Y0072244D01*
X0245547Y0072197D01*
X0245564Y0072150D01*
X0245584Y0072105D01*
X0245607Y0072062D01*
X0245634Y0072020D01*
X0245664Y0071981D01*
X0245697Y0071944D01*
X0245733Y0071910D01*
X0245771Y0071879D01*
X0245811Y0071850D01*
X0245853Y0071825D01*
X0245898Y0071803D01*
X0245943Y0071785D01*
X0245990Y0071770D01*
X0246038Y0071759D01*
X0246087Y0071751D01*
X0246136Y0071747D01*
X0246186Y0071747D01*
X0246235Y0071751D01*
X0246284Y0071759D01*
X0246332Y0071770D01*
X0246379Y0071785D01*
X0246424Y0071803D01*
X0246469Y0071825D01*
X0246511Y0071850D01*
X0246551Y0071879D01*
X0246589Y0071910D01*
X0246625Y0071944D01*
X0246658Y0071981D01*
X0246688Y0072020D01*
X0246715Y0072062D01*
X0246738Y0072105D01*
X0246758Y0072150D01*
X0246775Y0072197D01*
X0246788Y0072244D01*
X0246797Y0072293D01*
X0246803Y0072342D01*
X0246805Y0072391D01*
X0246805Y0072820D01*
X0246805Y0078831D02*
X0245803Y0083125D01*
X0244945Y0078831D01*
X0245517Y0080549D02*
X0246233Y0080549D01*
X0242225Y0078831D02*
X0242225Y0083125D01*
X0241080Y0079977D01*
X0239936Y0083125D01*
X0239936Y0078831D01*
X0237359Y0078831D02*
X0237359Y0083125D01*
X0236643Y0083125D01*
X0236590Y0083123D01*
X0236537Y0083117D01*
X0236485Y0083108D01*
X0236434Y0083094D01*
X0236383Y0083077D01*
X0236335Y0083056D01*
X0236287Y0083032D01*
X0236242Y0083004D01*
X0236199Y0082974D01*
X0236158Y0082940D01*
X0236120Y0082903D01*
X0236084Y0082863D01*
X0236052Y0082821D01*
X0236023Y0082777D01*
X0235997Y0082731D01*
X0235974Y0082683D01*
X0235955Y0082633D01*
X0235940Y0082582D01*
X0235928Y0082531D01*
X0235920Y0082478D01*
X0235917Y0082425D01*
X0235916Y0082372D01*
X0235920Y0082319D01*
X0235928Y0082267D01*
X0235928Y0082266D02*
X0235928Y0081694D01*
X0235930Y0081641D01*
X0235936Y0081588D01*
X0235945Y0081536D01*
X0235959Y0081484D01*
X0235976Y0081434D01*
X0235997Y0081385D01*
X0236021Y0081338D01*
X0236049Y0081293D01*
X0236080Y0081249D01*
X0236113Y0081209D01*
X0236150Y0081170D01*
X0236190Y0081135D01*
X0236232Y0081102D01*
X0236276Y0081073D01*
X0236322Y0081047D01*
X0236371Y0081024D01*
X0236420Y0081005D01*
X0236471Y0080990D01*
X0236523Y0080978D01*
X0236575Y0080970D01*
X0236628Y0080967D01*
X0236682Y0080966D01*
X0236735Y0080970D01*
X0236787Y0080978D01*
X0237216Y0080978D01*
X0233352Y0080978D02*
X0233352Y0083125D01*
X0232063Y0083125D02*
X0232063Y0080978D01*
X0233352Y0080978D01*
X0233352Y0078831D01*
X0232063Y0078831D02*
X0232063Y0080978D01*
X0229487Y0078831D02*
X0229487Y0083125D01*
X0228056Y0083125D01*
X0225623Y0083125D02*
X0224192Y0078831D01*
X0224192Y0083125D01*
X0225623Y0083125D02*
X0225623Y0078831D01*
X0228056Y0078831D02*
X0229487Y0078831D01*
X0221616Y0079547D02*
X0221616Y0082552D01*
X0220328Y0082552D02*
X0220328Y0079547D01*
X0220330Y0079498D01*
X0220336Y0079449D01*
X0220345Y0079400D01*
X0220358Y0079353D01*
X0220375Y0079306D01*
X0220395Y0079261D01*
X0220418Y0079218D01*
X0220445Y0079176D01*
X0220475Y0079137D01*
X0220508Y0079100D01*
X0220544Y0079066D01*
X0220582Y0079035D01*
X0220622Y0079006D01*
X0220664Y0078981D01*
X0220709Y0078959D01*
X0220754Y0078941D01*
X0220801Y0078926D01*
X0220849Y0078915D01*
X0220898Y0078907D01*
X0220947Y0078903D01*
X0220997Y0078903D01*
X0221046Y0078907D01*
X0221095Y0078915D01*
X0221143Y0078926D01*
X0221190Y0078941D01*
X0221235Y0078959D01*
X0221280Y0078981D01*
X0221322Y0079006D01*
X0221362Y0079035D01*
X0221400Y0079066D01*
X0221436Y0079100D01*
X0221469Y0079137D01*
X0221499Y0079176D01*
X0221526Y0079218D01*
X0221549Y0079261D01*
X0221569Y0079306D01*
X0221586Y0079353D01*
X0221599Y0079400D01*
X0221608Y0079449D01*
X0221614Y0079498D01*
X0221616Y0079547D01*
X0217751Y0078975D02*
X0216320Y0078975D01*
X0217751Y0078975D02*
X0217751Y0083125D01*
X0219183Y0085988D02*
X0217179Y0087991D01*
X0216750Y0087991D02*
X0214746Y0085988D01*
X0212742Y0087991D01*
X0212170Y0087848D02*
X0210309Y0085988D01*
X0208449Y0087848D01*
X0208019Y0087848D02*
X0205872Y0085844D01*
X0203725Y0087991D01*
X0203296Y0087991D02*
X0201292Y0085988D01*
X0199432Y0087991D01*
X0198860Y0088134D02*
X0190129Y0079404D01*
X0193707Y0082552D02*
X0195138Y0081121D01*
X0196283Y0082266D02*
X0194852Y0083697D01*
X0195854Y0084699D02*
X0195854Y0084699D01*
X0197285Y0083268D01*
X0198430Y0084556D02*
X0196999Y0085988D01*
X0198000Y0087132D02*
X0199575Y0085558D01*
X0198860Y0088134D02*
X0247807Y0088134D01*
X0247807Y0086417D01*
X0247664Y0087848D02*
X0245947Y0085988D01*
X0243943Y0087991D01*
X0243370Y0087991D02*
X0241510Y0085988D01*
X0239506Y0087991D01*
X0238934Y0087991D02*
X0236930Y0085988D01*
X0236930Y0086130D02*
X0235069Y0087991D01*
X0234497Y0087991D02*
X0232636Y0085988D01*
X0230776Y0087848D01*
X0229917Y0087991D02*
X0228056Y0085988D01*
X0226196Y0087991D01*
X0225623Y0087848D02*
X0223619Y0085988D01*
X0221759Y0087848D01*
X0221186Y0087991D02*
X0219183Y0085988D01*
X0218897Y0076684D02*
X0218467Y0076684D01*
X0218897Y0076684D02*
X0218897Y0073536D01*
X0217895Y0073536D02*
X0218324Y0075253D01*
X0218753Y0075253D01*
X0215744Y0075110D02*
X0215746Y0075214D01*
X0215752Y0075318D01*
X0215762Y0075422D01*
X0215776Y0075526D01*
X0215794Y0075628D01*
X0215816Y0075730D01*
X0215841Y0075832D01*
X0215871Y0075932D01*
X0215904Y0076030D01*
X0215941Y0076128D01*
X0215982Y0076224D01*
X0216027Y0076318D01*
X0216075Y0076411D01*
X0216126Y0076502D01*
X0216181Y0076590D01*
X0216240Y0076677D01*
X0216301Y0076761D01*
X0216366Y0076842D01*
X0216434Y0076922D01*
X0216505Y0076998D01*
X0216579Y0077072D01*
X0216655Y0077143D01*
X0216735Y0077211D01*
X0216816Y0077276D01*
X0216900Y0077337D01*
X0216987Y0077396D01*
X0217075Y0077451D01*
X0217166Y0077502D01*
X0217259Y0077550D01*
X0217353Y0077595D01*
X0217449Y0077636D01*
X0217547Y0077673D01*
X0217645Y0077706D01*
X0217745Y0077736D01*
X0217847Y0077761D01*
X0217949Y0077783D01*
X0218051Y0077801D01*
X0218155Y0077815D01*
X0218259Y0077825D01*
X0218363Y0077831D01*
X0218467Y0077833D01*
X0218571Y0077831D01*
X0218675Y0077825D01*
X0218779Y0077815D01*
X0218883Y0077801D01*
X0218985Y0077783D01*
X0219087Y0077761D01*
X0219189Y0077736D01*
X0219289Y0077706D01*
X0219387Y0077673D01*
X0219485Y0077636D01*
X0219581Y0077595D01*
X0219675Y0077550D01*
X0219768Y0077502D01*
X0219859Y0077451D01*
X0219947Y0077396D01*
X0220034Y0077337D01*
X0220118Y0077276D01*
X0220199Y0077211D01*
X0220279Y0077143D01*
X0220355Y0077072D01*
X0220429Y0076998D01*
X0220500Y0076922D01*
X0220568Y0076842D01*
X0220633Y0076761D01*
X0220694Y0076677D01*
X0220753Y0076590D01*
X0220808Y0076502D01*
X0220859Y0076411D01*
X0220907Y0076318D01*
X0220952Y0076224D01*
X0220993Y0076128D01*
X0221030Y0076030D01*
X0221063Y0075932D01*
X0221093Y0075832D01*
X0221118Y0075730D01*
X0221140Y0075628D01*
X0221158Y0075526D01*
X0221172Y0075422D01*
X0221182Y0075318D01*
X0221188Y0075214D01*
X0221190Y0075110D01*
X0221188Y0075006D01*
X0221182Y0074902D01*
X0221172Y0074798D01*
X0221158Y0074694D01*
X0221140Y0074592D01*
X0221118Y0074490D01*
X0221093Y0074388D01*
X0221063Y0074288D01*
X0221030Y0074190D01*
X0220993Y0074092D01*
X0220952Y0073996D01*
X0220907Y0073902D01*
X0220859Y0073809D01*
X0220808Y0073718D01*
X0220753Y0073630D01*
X0220694Y0073543D01*
X0220633Y0073459D01*
X0220568Y0073378D01*
X0220500Y0073298D01*
X0220429Y0073222D01*
X0220355Y0073148D01*
X0220279Y0073077D01*
X0220199Y0073009D01*
X0220118Y0072944D01*
X0220034Y0072883D01*
X0219947Y0072824D01*
X0219859Y0072769D01*
X0219768Y0072718D01*
X0219675Y0072670D01*
X0219581Y0072625D01*
X0219485Y0072584D01*
X0219387Y0072547D01*
X0219289Y0072514D01*
X0219189Y0072484D01*
X0219087Y0072459D01*
X0218985Y0072437D01*
X0218883Y0072419D01*
X0218779Y0072405D01*
X0218675Y0072395D01*
X0218571Y0072389D01*
X0218467Y0072387D01*
X0218363Y0072389D01*
X0218259Y0072395D01*
X0218155Y0072405D01*
X0218051Y0072419D01*
X0217949Y0072437D01*
X0217847Y0072459D01*
X0217745Y0072484D01*
X0217645Y0072514D01*
X0217547Y0072547D01*
X0217449Y0072584D01*
X0217353Y0072625D01*
X0217259Y0072670D01*
X0217166Y0072718D01*
X0217075Y0072769D01*
X0216987Y0072824D01*
X0216900Y0072883D01*
X0216816Y0072944D01*
X0216735Y0073009D01*
X0216655Y0073077D01*
X0216579Y0073148D01*
X0216505Y0073222D01*
X0216434Y0073298D01*
X0216366Y0073378D01*
X0216301Y0073459D01*
X0216240Y0073543D01*
X0216181Y0073630D01*
X0216126Y0073718D01*
X0216075Y0073809D01*
X0216027Y0073902D01*
X0215982Y0073996D01*
X0215941Y0074092D01*
X0215904Y0074190D01*
X0215871Y0074288D01*
X0215841Y0074388D01*
X0215816Y0074490D01*
X0215794Y0074592D01*
X0215776Y0074694D01*
X0215762Y0074798D01*
X0215752Y0074902D01*
X0215746Y0075006D01*
X0215744Y0075110D01*
X0217895Y0075826D02*
X0217895Y0076112D01*
X0217897Y0076157D01*
X0217902Y0076201D01*
X0217911Y0076246D01*
X0217923Y0076289D01*
X0217939Y0076331D01*
X0217957Y0076372D01*
X0217979Y0076411D01*
X0218004Y0076448D01*
X0218032Y0076483D01*
X0218063Y0076516D01*
X0218096Y0076547D01*
X0218131Y0076575D01*
X0218168Y0076600D01*
X0218207Y0076622D01*
X0218248Y0076640D01*
X0218290Y0076656D01*
X0218333Y0076668D01*
X0218378Y0076677D01*
X0218422Y0076682D01*
X0218467Y0076684D01*
X0217895Y0075826D02*
X0217897Y0075778D01*
X0217903Y0075731D01*
X0217912Y0075684D01*
X0217926Y0075638D01*
X0217943Y0075593D01*
X0217963Y0075549D01*
X0217987Y0075508D01*
X0218014Y0075469D01*
X0218044Y0075431D01*
X0218078Y0075397D01*
X0218113Y0075365D01*
X0218152Y0075336D01*
X0218192Y0075310D01*
X0218234Y0075288D01*
X0218278Y0075269D01*
X0218324Y0075254D01*
X0235642Y0066523D02*
X0245517Y0066523D01*
X0246519Y0064805D02*
X0235785Y0063947D01*
X0235785Y0061657D01*
X0246949Y0060798D01*
X0246949Y0059080D02*
X0234497Y0059080D01*
X0234354Y0056647D02*
X0246805Y0056647D01*
X0246805Y0054930D02*
X0235928Y0054071D01*
X0235928Y0051495D01*
X0246949Y0050779D01*
X0246949Y0049062D02*
X0234497Y0049062D01*
X0234354Y0046629D02*
X0247091Y0046629D01*
X0247091Y0042908D01*
X0246519Y0040761D02*
X0235785Y0041620D01*
X0235785Y0044053D01*
X0246949Y0044912D01*
X0247091Y0046629D02*
X0247091Y0062515D01*
X0250813Y0060655D02*
X0252101Y0060655D01*
X0252244Y0059796D02*
X0252244Y0065807D01*
X0252242Y0065858D01*
X0252237Y0065909D01*
X0252228Y0065959D01*
X0252215Y0066009D01*
X0252199Y0066057D01*
X0252179Y0066104D01*
X0252156Y0066150D01*
X0252130Y0066194D01*
X0252101Y0066236D01*
X0252069Y0066276D01*
X0252034Y0066313D01*
X0251997Y0066348D01*
X0251957Y0066380D01*
X0251915Y0066409D01*
X0251871Y0066435D01*
X0251825Y0066458D01*
X0251778Y0066478D01*
X0251730Y0066494D01*
X0251680Y0066507D01*
X0251630Y0066516D01*
X0251579Y0066521D01*
X0251528Y0066523D01*
X0250669Y0066523D01*
X0250669Y0064949D02*
X0252101Y0064949D01*
X0252244Y0059796D02*
X0252242Y0059745D01*
X0252237Y0059694D01*
X0252228Y0059644D01*
X0252215Y0059594D01*
X0252199Y0059546D01*
X0252179Y0059499D01*
X0252156Y0059453D01*
X0252130Y0059409D01*
X0252101Y0059367D01*
X0252069Y0059327D01*
X0252034Y0059290D01*
X0251997Y0059255D01*
X0251957Y0059223D01*
X0251915Y0059194D01*
X0251871Y0059168D01*
X0251825Y0059145D01*
X0251778Y0059125D01*
X0251730Y0059109D01*
X0251680Y0059096D01*
X0251630Y0059087D01*
X0251579Y0059082D01*
X0251528Y0059080D01*
X0250669Y0059080D01*
X0250669Y0056504D02*
X0251528Y0056504D01*
X0251528Y0056505D02*
X0251579Y0056503D01*
X0251630Y0056498D01*
X0251680Y0056489D01*
X0251730Y0056476D01*
X0251778Y0056460D01*
X0251825Y0056440D01*
X0251871Y0056417D01*
X0251915Y0056391D01*
X0251957Y0056362D01*
X0251997Y0056330D01*
X0252034Y0056295D01*
X0252069Y0056258D01*
X0252101Y0056218D01*
X0252130Y0056176D01*
X0252156Y0056132D01*
X0252179Y0056086D01*
X0252199Y0056039D01*
X0252215Y0055991D01*
X0252228Y0055941D01*
X0252237Y0055891D01*
X0252242Y0055840D01*
X0252244Y0055789D01*
X0252244Y0049921D01*
X0252101Y0050636D02*
X0250669Y0050636D01*
X0251385Y0049062D02*
X0251441Y0049064D01*
X0251497Y0049069D01*
X0251553Y0049079D01*
X0251607Y0049091D01*
X0251661Y0049108D01*
X0251714Y0049127D01*
X0251765Y0049151D01*
X0251815Y0049177D01*
X0251862Y0049207D01*
X0251908Y0049240D01*
X0251951Y0049275D01*
X0251992Y0049314D01*
X0252031Y0049355D01*
X0252066Y0049398D01*
X0252099Y0049444D01*
X0252129Y0049492D01*
X0252155Y0049541D01*
X0252179Y0049592D01*
X0252198Y0049645D01*
X0252215Y0049699D01*
X0252227Y0049753D01*
X0252237Y0049809D01*
X0252242Y0049865D01*
X0252244Y0049921D01*
X0251385Y0049062D02*
X0250669Y0049062D01*
X0250669Y0046486D02*
X0251528Y0046486D01*
X0251584Y0046484D01*
X0251640Y0046479D01*
X0251696Y0046469D01*
X0251750Y0046457D01*
X0251804Y0046440D01*
X0251857Y0046421D01*
X0251908Y0046397D01*
X0251958Y0046371D01*
X0252005Y0046341D01*
X0252051Y0046308D01*
X0252094Y0046273D01*
X0252135Y0046234D01*
X0252174Y0046193D01*
X0252209Y0046150D01*
X0252242Y0046104D01*
X0252272Y0046057D01*
X0252298Y0046007D01*
X0252322Y0045956D01*
X0252341Y0045903D01*
X0252358Y0045849D01*
X0252370Y0045795D01*
X0252380Y0045739D01*
X0252385Y0045683D01*
X0252387Y0045627D01*
X0252387Y0039902D01*
X0252385Y0039846D01*
X0252380Y0039790D01*
X0252370Y0039734D01*
X0252358Y0039680D01*
X0252341Y0039626D01*
X0252322Y0039573D01*
X0252298Y0039522D01*
X0252272Y0039473D01*
X0252242Y0039425D01*
X0252209Y0039379D01*
X0252174Y0039336D01*
X0252135Y0039295D01*
X0252094Y0039256D01*
X0252051Y0039221D01*
X0252005Y0039188D01*
X0251958Y0039158D01*
X0251908Y0039132D01*
X0251857Y0039108D01*
X0251804Y0039089D01*
X0251750Y0039072D01*
X0251696Y0039060D01*
X0251640Y0039050D01*
X0251584Y0039045D01*
X0251528Y0039043D01*
X0250669Y0039043D01*
X0250669Y0040761D02*
X0252244Y0040761D01*
X0252244Y0045054D02*
X0250669Y0045054D01*
X0247091Y0042908D02*
X0247089Y0042746D01*
X0247083Y0042585D01*
X0247073Y0042424D01*
X0247059Y0042263D01*
X0247041Y0042102D01*
X0247020Y0041942D01*
X0246994Y0041783D01*
X0246965Y0041624D01*
X0246931Y0041466D01*
X0246894Y0041308D01*
X0246853Y0041152D01*
X0246808Y0040997D01*
X0246759Y0040843D01*
X0246706Y0040690D01*
X0246650Y0040539D01*
X0246590Y0040389D01*
X0246526Y0040240D01*
X0246459Y0040093D01*
X0246388Y0039948D01*
X0246314Y0039805D01*
X0246236Y0039663D01*
X0246154Y0039524D01*
X0246070Y0039386D01*
X0245982Y0039251D01*
X0245890Y0039117D01*
X0245796Y0038987D01*
X0245698Y0038858D01*
X0245597Y0038732D01*
X0245493Y0038608D01*
X0245386Y0038487D01*
X0245276Y0038369D01*
X0245163Y0038253D01*
X0245047Y0038140D01*
X0244929Y0038030D01*
X0244808Y0037923D01*
X0244684Y0037819D01*
X0244558Y0037718D01*
X0244429Y0037620D01*
X0244299Y0037526D01*
X0244165Y0037434D01*
X0244030Y0037346D01*
X0243892Y0037262D01*
X0243753Y0037180D01*
X0243611Y0037102D01*
X0243468Y0037028D01*
X0243323Y0036957D01*
X0243176Y0036890D01*
X0243027Y0036826D01*
X0242877Y0036766D01*
X0242726Y0036710D01*
X0242573Y0036657D01*
X0242419Y0036608D01*
X0242264Y0036563D01*
X0242108Y0036522D01*
X0241950Y0036485D01*
X0241792Y0036451D01*
X0241633Y0036422D01*
X0241474Y0036396D01*
X0241314Y0036375D01*
X0241153Y0036357D01*
X0240992Y0036343D01*
X0240831Y0036333D01*
X0240670Y0036327D01*
X0240508Y0036325D01*
X0245660Y0039187D02*
X0235356Y0039187D01*
X0234210Y0042622D02*
X0234210Y0062801D01*
X0240508Y0069098D02*
X0240670Y0069096D01*
X0240831Y0069090D01*
X0240992Y0069080D01*
X0241153Y0069066D01*
X0241314Y0069048D01*
X0241474Y0069027D01*
X0241633Y0069001D01*
X0241792Y0068972D01*
X0241950Y0068938D01*
X0242108Y0068901D01*
X0242264Y0068860D01*
X0242419Y0068815D01*
X0242573Y0068766D01*
X0242726Y0068713D01*
X0242877Y0068657D01*
X0243027Y0068597D01*
X0243176Y0068533D01*
X0243323Y0068466D01*
X0243468Y0068395D01*
X0243611Y0068321D01*
X0243753Y0068243D01*
X0243892Y0068161D01*
X0244030Y0068077D01*
X0244165Y0067989D01*
X0244299Y0067897D01*
X0244429Y0067803D01*
X0244558Y0067705D01*
X0244684Y0067604D01*
X0244808Y0067500D01*
X0244929Y0067393D01*
X0245047Y0067283D01*
X0245163Y0067170D01*
X0245276Y0067054D01*
X0245386Y0066936D01*
X0245493Y0066815D01*
X0245597Y0066691D01*
X0245698Y0066565D01*
X0245796Y0066436D01*
X0245890Y0066306D01*
X0245982Y0066172D01*
X0246070Y0066037D01*
X0246154Y0065899D01*
X0246236Y0065760D01*
X0246314Y0065618D01*
X0246388Y0065475D01*
X0246459Y0065330D01*
X0246526Y0065183D01*
X0246590Y0065034D01*
X0246650Y0064884D01*
X0246706Y0064733D01*
X0246759Y0064580D01*
X0246808Y0064426D01*
X0246853Y0064271D01*
X0246894Y0064115D01*
X0246931Y0063957D01*
X0246965Y0063799D01*
X0246994Y0063640D01*
X0247020Y0063481D01*
X0247041Y0063321D01*
X0247059Y0063160D01*
X0247073Y0062999D01*
X0247083Y0062838D01*
X0247089Y0062677D01*
X0247091Y0062515D01*
X0250669Y0055073D02*
X0252101Y0055073D01*
X0219605Y0058222D02*
X0219607Y0058375D01*
X0219613Y0058528D01*
X0219623Y0058681D01*
X0219637Y0058834D01*
X0219655Y0058986D01*
X0219677Y0059137D01*
X0219703Y0059288D01*
X0219732Y0059438D01*
X0219766Y0059588D01*
X0219804Y0059736D01*
X0219845Y0059884D01*
X0219890Y0060030D01*
X0219939Y0060175D01*
X0219992Y0060319D01*
X0220049Y0060461D01*
X0220109Y0060602D01*
X0220173Y0060741D01*
X0220240Y0060879D01*
X0220311Y0061015D01*
X0220386Y0061148D01*
X0220464Y0061280D01*
X0220545Y0061410D01*
X0220630Y0061538D01*
X0220718Y0061663D01*
X0220809Y0061786D01*
X0220904Y0061906D01*
X0221001Y0062024D01*
X0221102Y0062140D01*
X0221206Y0062253D01*
X0221312Y0062363D01*
X0221422Y0062470D01*
X0221534Y0062574D01*
X0221649Y0062676D01*
X0221766Y0062774D01*
X0221886Y0062869D01*
X0222008Y0062961D01*
X0222133Y0063050D01*
X0222260Y0063136D01*
X0222389Y0063218D01*
X0222520Y0063297D01*
X0222654Y0063373D01*
X0222789Y0063444D01*
X0222926Y0063513D01*
X0223065Y0063578D01*
X0223205Y0063639D01*
X0223347Y0063696D01*
X0223491Y0063750D01*
X0223635Y0063800D01*
X0223781Y0063846D01*
X0223929Y0063888D01*
X0224077Y0063927D01*
X0224226Y0063962D01*
X0224376Y0063992D01*
X0224527Y0064019D01*
X0224678Y0064042D01*
X0224830Y0064061D01*
X0224983Y0064076D01*
X0225136Y0064087D01*
X0225289Y0064094D01*
X0225442Y0064097D01*
X0225595Y0064096D01*
X0225748Y0064091D01*
X0225901Y0064082D01*
X0226053Y0064069D01*
X0226206Y0064052D01*
X0226357Y0064031D01*
X0226509Y0064006D01*
X0226659Y0063977D01*
X0226809Y0063945D01*
X0226957Y0063908D01*
X0227105Y0063868D01*
X0227252Y0063823D01*
X0227397Y0063775D01*
X0227541Y0063724D01*
X0227684Y0063668D01*
X0227825Y0063609D01*
X0227965Y0063546D01*
X0228103Y0063479D01*
X0228239Y0063409D01*
X0228373Y0063335D01*
X0228505Y0063258D01*
X0228636Y0063177D01*
X0228764Y0063094D01*
X0228890Y0063006D01*
X0229013Y0062916D01*
X0229134Y0062822D01*
X0229253Y0062725D01*
X0229369Y0062625D01*
X0229483Y0062522D01*
X0229593Y0062417D01*
X0229701Y0062308D01*
X0229806Y0062197D01*
X0229909Y0062082D01*
X0230008Y0061966D01*
X0230104Y0061846D01*
X0230197Y0061725D01*
X0230286Y0061600D01*
X0230373Y0061474D01*
X0230456Y0061345D01*
X0230536Y0061215D01*
X0230612Y0061082D01*
X0230685Y0060947D01*
X0230754Y0060810D01*
X0230820Y0060672D01*
X0230882Y0060532D01*
X0230940Y0060390D01*
X0230995Y0060247D01*
X0231046Y0060103D01*
X0231093Y0059957D01*
X0231136Y0059810D01*
X0231176Y0059662D01*
X0231211Y0059513D01*
X0231243Y0059363D01*
X0231271Y0059213D01*
X0231295Y0059062D01*
X0231315Y0058910D01*
X0231331Y0058757D01*
X0231343Y0058605D01*
X0231351Y0058452D01*
X0231355Y0058299D01*
X0231355Y0058145D01*
X0231351Y0057992D01*
X0231343Y0057839D01*
X0231331Y0057687D01*
X0231315Y0057534D01*
X0231295Y0057382D01*
X0231271Y0057231D01*
X0231243Y0057081D01*
X0231211Y0056931D01*
X0231176Y0056782D01*
X0231136Y0056634D01*
X0231093Y0056487D01*
X0231046Y0056341D01*
X0230995Y0056197D01*
X0230940Y0056054D01*
X0230882Y0055912D01*
X0230820Y0055772D01*
X0230754Y0055634D01*
X0230685Y0055497D01*
X0230612Y0055362D01*
X0230536Y0055229D01*
X0230456Y0055099D01*
X0230373Y0054970D01*
X0230286Y0054844D01*
X0230197Y0054719D01*
X0230104Y0054598D01*
X0230008Y0054478D01*
X0229909Y0054362D01*
X0229806Y0054247D01*
X0229701Y0054136D01*
X0229593Y0054027D01*
X0229483Y0053922D01*
X0229369Y0053819D01*
X0229253Y0053719D01*
X0229134Y0053622D01*
X0229013Y0053528D01*
X0228890Y0053438D01*
X0228764Y0053350D01*
X0228636Y0053267D01*
X0228505Y0053186D01*
X0228373Y0053109D01*
X0228239Y0053035D01*
X0228103Y0052965D01*
X0227965Y0052898D01*
X0227825Y0052835D01*
X0227684Y0052776D01*
X0227541Y0052720D01*
X0227397Y0052669D01*
X0227252Y0052621D01*
X0227105Y0052576D01*
X0226957Y0052536D01*
X0226809Y0052499D01*
X0226659Y0052467D01*
X0226509Y0052438D01*
X0226357Y0052413D01*
X0226206Y0052392D01*
X0226053Y0052375D01*
X0225901Y0052362D01*
X0225748Y0052353D01*
X0225595Y0052348D01*
X0225442Y0052347D01*
X0225289Y0052350D01*
X0225136Y0052357D01*
X0224983Y0052368D01*
X0224830Y0052383D01*
X0224678Y0052402D01*
X0224527Y0052425D01*
X0224376Y0052452D01*
X0224226Y0052482D01*
X0224077Y0052517D01*
X0223929Y0052556D01*
X0223781Y0052598D01*
X0223635Y0052644D01*
X0223491Y0052694D01*
X0223347Y0052748D01*
X0223205Y0052805D01*
X0223065Y0052866D01*
X0222926Y0052931D01*
X0222789Y0053000D01*
X0222654Y0053071D01*
X0222520Y0053147D01*
X0222389Y0053226D01*
X0222260Y0053308D01*
X0222133Y0053394D01*
X0222008Y0053483D01*
X0221886Y0053575D01*
X0221766Y0053670D01*
X0221649Y0053768D01*
X0221534Y0053870D01*
X0221422Y0053974D01*
X0221312Y0054081D01*
X0221206Y0054191D01*
X0221102Y0054304D01*
X0221001Y0054420D01*
X0220904Y0054538D01*
X0220809Y0054658D01*
X0220718Y0054781D01*
X0220630Y0054906D01*
X0220545Y0055034D01*
X0220464Y0055164D01*
X0220386Y0055296D01*
X0220311Y0055429D01*
X0220240Y0055565D01*
X0220173Y0055703D01*
X0220109Y0055842D01*
X0220049Y0055983D01*
X0219992Y0056125D01*
X0219939Y0056269D01*
X0219890Y0056414D01*
X0219845Y0056560D01*
X0219804Y0056708D01*
X0219766Y0056856D01*
X0219732Y0057006D01*
X0219703Y0057156D01*
X0219677Y0057307D01*
X0219655Y0057458D01*
X0219637Y0057610D01*
X0219623Y0057763D01*
X0219613Y0057916D01*
X0219607Y0058069D01*
X0219605Y0058222D01*
X0200147Y0037755D02*
X0199289Y0037755D01*
X0199244Y0037753D01*
X0199200Y0037748D01*
X0199155Y0037739D01*
X0199112Y0037727D01*
X0199070Y0037711D01*
X0199029Y0037693D01*
X0198990Y0037671D01*
X0198953Y0037646D01*
X0198918Y0037618D01*
X0198885Y0037587D01*
X0198854Y0037554D01*
X0198826Y0037519D01*
X0198801Y0037482D01*
X0198779Y0037443D01*
X0198761Y0037402D01*
X0198745Y0037360D01*
X0198733Y0037317D01*
X0198724Y0037272D01*
X0198719Y0037228D01*
X0198717Y0037183D01*
X0198716Y0037183D02*
X0198716Y0036467D01*
X0200148Y0037756D02*
X0200199Y0037754D01*
X0200250Y0037749D01*
X0200300Y0037740D01*
X0200350Y0037727D01*
X0200398Y0037711D01*
X0200445Y0037691D01*
X0200491Y0037669D01*
X0200535Y0037642D01*
X0200577Y0037613D01*
X0200617Y0037581D01*
X0200654Y0037546D01*
X0200689Y0037509D01*
X0200721Y0037469D01*
X0200750Y0037427D01*
X0200776Y0037383D01*
X0200799Y0037338D01*
X0200819Y0037290D01*
X0200835Y0037242D01*
X0200848Y0037192D01*
X0200857Y0037142D01*
X0200862Y0037091D01*
X0200864Y0037040D01*
X0200863Y0037040D02*
X0200863Y0036324D01*
X0196712Y0036324D01*
X0197285Y0033462D02*
X0200291Y0033462D01*
X0200340Y0033460D01*
X0200389Y0033454D01*
X0200438Y0033445D01*
X0200485Y0033432D01*
X0200532Y0033415D01*
X0200577Y0033395D01*
X0200620Y0033372D01*
X0200662Y0033345D01*
X0200701Y0033315D01*
X0200738Y0033282D01*
X0200772Y0033246D01*
X0200803Y0033208D01*
X0200832Y0033168D01*
X0200857Y0033126D01*
X0200879Y0033081D01*
X0200897Y0033036D01*
X0200912Y0032989D01*
X0200923Y0032941D01*
X0200931Y0032892D01*
X0200935Y0032843D01*
X0200935Y0032793D01*
X0200931Y0032744D01*
X0200923Y0032695D01*
X0200912Y0032647D01*
X0200897Y0032600D01*
X0200879Y0032555D01*
X0200857Y0032510D01*
X0200832Y0032468D01*
X0200803Y0032428D01*
X0200772Y0032390D01*
X0200738Y0032354D01*
X0200701Y0032321D01*
X0200662Y0032291D01*
X0200620Y0032264D01*
X0200577Y0032241D01*
X0200532Y0032221D01*
X0200485Y0032204D01*
X0200438Y0032191D01*
X0200389Y0032182D01*
X0200340Y0032176D01*
X0200291Y0032174D01*
X0197285Y0032174D01*
X0197236Y0032176D01*
X0197187Y0032182D01*
X0197138Y0032191D01*
X0197091Y0032204D01*
X0197044Y0032221D01*
X0196999Y0032241D01*
X0196956Y0032264D01*
X0196914Y0032291D01*
X0196875Y0032321D01*
X0196838Y0032354D01*
X0196804Y0032390D01*
X0196773Y0032428D01*
X0196744Y0032468D01*
X0196719Y0032510D01*
X0196697Y0032555D01*
X0196679Y0032600D01*
X0196664Y0032647D01*
X0196653Y0032695D01*
X0196645Y0032744D01*
X0196641Y0032793D01*
X0196641Y0032843D01*
X0196645Y0032892D01*
X0196653Y0032941D01*
X0196664Y0032989D01*
X0196679Y0033036D01*
X0196697Y0033081D01*
X0196719Y0033126D01*
X0196744Y0033168D01*
X0196773Y0033208D01*
X0196804Y0033246D01*
X0196838Y0033282D01*
X0196875Y0033315D01*
X0196914Y0033345D01*
X0196956Y0033372D01*
X0196999Y0033395D01*
X0197044Y0033415D01*
X0197091Y0033432D01*
X0197138Y0033445D01*
X0197187Y0033454D01*
X0197236Y0033460D01*
X0197285Y0033462D01*
X0194709Y0030456D02*
X0194614Y0030458D01*
X0194520Y0030464D01*
X0194426Y0030474D01*
X0194332Y0030487D01*
X0194239Y0030505D01*
X0194147Y0030526D01*
X0194056Y0030551D01*
X0193965Y0030580D01*
X0193877Y0030613D01*
X0193789Y0030649D01*
X0193703Y0030689D01*
X0193619Y0030732D01*
X0193537Y0030779D01*
X0193456Y0030829D01*
X0193378Y0030882D01*
X0193302Y0030939D01*
X0193229Y0030999D01*
X0193158Y0031061D01*
X0193090Y0031127D01*
X0193024Y0031195D01*
X0192962Y0031266D01*
X0192902Y0031339D01*
X0192845Y0031415D01*
X0192792Y0031493D01*
X0192742Y0031574D01*
X0192695Y0031656D01*
X0192652Y0031740D01*
X0192612Y0031826D01*
X0192576Y0031914D01*
X0192543Y0032002D01*
X0192514Y0032093D01*
X0192489Y0032184D01*
X0192468Y0032276D01*
X0192450Y0032369D01*
X0192437Y0032463D01*
X0192427Y0032557D01*
X0192421Y0032651D01*
X0192419Y0032746D01*
X0190129Y0032603D02*
X0190131Y0032473D01*
X0190137Y0032344D01*
X0190147Y0032214D01*
X0190160Y0032085D01*
X0190178Y0031957D01*
X0190199Y0031829D01*
X0190225Y0031702D01*
X0190254Y0031575D01*
X0190287Y0031450D01*
X0190323Y0031326D01*
X0190364Y0031202D01*
X0190408Y0031080D01*
X0190456Y0030960D01*
X0190507Y0030841D01*
X0190562Y0030723D01*
X0190621Y0030607D01*
X0190683Y0030494D01*
X0190748Y0030382D01*
X0190817Y0030272D01*
X0190889Y0030164D01*
X0190964Y0030058D01*
X0191043Y0029955D01*
X0191124Y0029854D01*
X0191209Y0029756D01*
X0191296Y0029660D01*
X0191387Y0029567D01*
X0191480Y0029476D01*
X0191576Y0029389D01*
X0191674Y0029304D01*
X0191775Y0029223D01*
X0191878Y0029144D01*
X0191984Y0029069D01*
X0192092Y0028997D01*
X0192202Y0028928D01*
X0192314Y0028863D01*
X0192427Y0028801D01*
X0192543Y0028742D01*
X0192661Y0028687D01*
X0192780Y0028636D01*
X0192900Y0028588D01*
X0193022Y0028544D01*
X0193146Y0028503D01*
X0193270Y0028467D01*
X0193395Y0028434D01*
X0193522Y0028405D01*
X0193649Y0028379D01*
X0193777Y0028358D01*
X0193905Y0028340D01*
X0194034Y0028327D01*
X0194164Y0028317D01*
X0194293Y0028311D01*
X0194423Y0028309D01*
X0185263Y0032603D02*
X0181828Y0029168D01*
X0174528Y0029168D01*
X0174528Y0028023D01*
X0173097Y0028023D02*
X0173097Y0030027D01*
X0173241Y0030170D01*
X0179108Y0030170D01*
X0182687Y0030170D01*
X0181685Y0032746D02*
X0179108Y0030170D01*
X0181685Y0032746D02*
X0189127Y0032746D01*
X0161218Y0029741D02*
X0159930Y0029741D01*
X0230203Y0030313D02*
X0230203Y0030313D01*
X0237073Y0030313D02*
X0237073Y0030313D01*
X0246519Y0025447D02*
X0250526Y0025447D01*
X0250526Y0024445D01*
X0250526Y0025447D02*
X0254391Y0025876D01*
X0254534Y0025733D02*
X0255106Y0024875D01*
X0254534Y0025733D02*
X0254534Y0028166D01*
X0256251Y0028166D02*
X0256251Y0025161D01*
X0260545Y0028595D02*
X0260545Y0087848D01*
X0277719Y0087848D01*
X0277719Y0076541D01*
X0268417Y0076541D01*
X0268417Y0038471D01*
X0268417Y0035036D01*
X0266986Y0034750D02*
X0266986Y0028739D01*
X0267415Y0028739D02*
X0267415Y0032030D01*
X0275143Y0032030D01*
X0275143Y0028739D01*
X0274141Y0028739D02*
X0274141Y0031028D01*
X0275000Y0031887D01*
X0273999Y0031028D02*
X0268560Y0031028D01*
X0268560Y0030885D02*
X0267558Y0031887D01*
X0268560Y0030885D02*
X0268560Y0028739D01*
X0266127Y0028166D02*
X0266127Y0026162D01*
X0260545Y0028595D02*
X0277719Y0028595D01*
X0277719Y0038471D01*
X0268417Y0038471D01*
X0260688Y0034893D02*
X0277576Y0034893D01*
X0260402Y0033319D02*
X0250669Y0033319D01*
X0268417Y0076684D02*
X0268417Y0081121D01*
X0267128Y0081551D02*
X0267128Y0087705D01*
X0267558Y0087705D02*
X0267558Y0084270D01*
X0275143Y0084270D01*
X0275143Y0087705D01*
X0274141Y0087705D02*
X0274141Y0085415D01*
X0268846Y0085415D01*
X0268703Y0085415D02*
X0267701Y0084413D01*
X0268703Y0085415D02*
X0268703Y0087705D01*
X0266127Y0087991D02*
X0266127Y0090281D01*
X0256251Y0091140D02*
X0256251Y0088277D01*
X0254391Y0088277D02*
X0254391Y0090567D01*
X0254963Y0091283D01*
X0254248Y0090424D02*
X0250383Y0090854D01*
X0246519Y0090854D01*
X0250383Y0090997D02*
X0250383Y0091712D01*
X0250669Y0082982D02*
X0260402Y0082982D01*
X0260688Y0081408D02*
X0277433Y0081408D01*
X0275000Y0084413D02*
X0274141Y0085272D01*
X0274141Y0085415D01*
X0193707Y0082552D02*
X0193707Y0082552D01*
X0187839Y0088134D02*
X0187839Y0091856D01*
X0181541Y0091856D02*
X0181541Y0088134D01*
X0180110Y0086703D02*
X0175101Y0086703D01*
X0174386Y0087419D01*
X0174386Y0088421D01*
X0174672Y0088421D02*
X0174672Y0087276D01*
X0180110Y0086703D02*
X0180110Y0083697D01*
D12*
X0270499Y0093955D02*
X0270932Y0093522D01*
X0271800Y0093522D01*
X0272234Y0093955D01*
X0271366Y0094823D02*
X0270932Y0094823D01*
X0270499Y0094389D01*
X0270499Y0093955D01*
X0270932Y0094823D02*
X0270499Y0095257D01*
X0270499Y0095690D01*
X0270932Y0096124D01*
X0271800Y0096124D01*
X0272234Y0095690D01*
X0273445Y0096124D02*
X0275180Y0093522D01*
X0273445Y0093522D02*
X0275180Y0096124D01*
D13*
X0270277Y0062802D03*
X0270277Y0052783D03*
X0180826Y0052783D03*
X0180826Y0062802D03*
D14*
X0274786Y0052855D03*
X0274786Y0042836D03*
D15*
X0270277Y0042836D03*
X0180826Y0042836D03*
D16*
X0176318Y0042836D03*
X0176318Y0052855D03*
D17*
X0176318Y0062802D03*
D18*
X0274786Y0062855D03*
D19*
X0258050Y0063754D02*
X0250310Y0063754D01*
X0250310Y0079289D01*
X0258050Y0079289D01*
X0258050Y0063754D01*
D20*
X0254185Y0068698D03*
X0254185Y0074398D03*
M02*
