G75*
%MOIN*%
%OFA0B0*%
%FSLAX25Y25*%
%IPPOS*%
%LPD*%
%AMOC8*
5,1,8,0,0,1.08239X$1,22.5*
%
%ADD10C,0.00000*%
%ADD11R,0.33600X0.17500*%
%ADD12R,0.05906X0.05118*%
%ADD13R,0.05118X0.05906*%
%ADD14R,0.06299X0.05512*%
%ADD15R,0.05906X0.01969*%
%ADD16R,0.01969X0.05906*%
%ADD17OC8,0.06000*%
%ADD18R,0.01969X0.04424*%
%ADD19R,0.04424X0.01969*%
%ADD20C,0.04756*%
%ADD21C,0.06000*%
%ADD22R,0.04300X0.07900*%
%ADD23C,0.01400*%
%ADD24C,0.02900*%
%ADD25C,0.03100*%
%ADD26C,0.01200*%
D10*
X0016917Y0014912D02*
X0101563Y0014912D01*
X0101563Y0255069D01*
X0016917Y0255069D01*
X0016917Y0014912D01*
D11*
X0065363Y0241730D03*
D12*
X0075476Y0152741D03*
X0075476Y0145261D03*
X0040210Y0128585D03*
X0040210Y0121104D03*
X0037405Y0046594D03*
X0037405Y0039114D03*
X0027086Y0039915D03*
X0027086Y0047396D03*
X0048329Y0046594D03*
X0048329Y0039114D03*
X0058548Y0039122D03*
X0058548Y0046602D03*
D13*
X0058464Y0118039D03*
X0057801Y0130649D03*
X0050983Y0118039D03*
X0050320Y0130649D03*
D14*
X0069117Y0130793D03*
X0069117Y0119770D03*
D15*
X0073123Y0098330D03*
X0073123Y0095180D03*
X0073123Y0092031D03*
X0073123Y0088881D03*
X0073123Y0085732D03*
X0073123Y0082582D03*
X0073123Y0079432D03*
X0073123Y0076283D03*
X0073123Y0073133D03*
X0073123Y0069984D03*
X0073123Y0066834D03*
X0027454Y0066834D03*
X0027454Y0069984D03*
X0027454Y0073133D03*
X0027454Y0076283D03*
X0027454Y0079432D03*
X0027454Y0082582D03*
X0027454Y0085732D03*
X0027454Y0088881D03*
X0027454Y0092031D03*
X0027454Y0095180D03*
X0027454Y0098330D03*
D16*
X0034540Y0105417D03*
X0037690Y0105417D03*
X0040840Y0105417D03*
X0043989Y0105417D03*
X0047139Y0105417D03*
X0050288Y0105417D03*
X0053438Y0105417D03*
X0056588Y0105417D03*
X0059737Y0105417D03*
X0062887Y0105417D03*
X0066036Y0105417D03*
X0066036Y0059747D03*
X0062887Y0059747D03*
X0059737Y0059747D03*
X0056588Y0059747D03*
X0053438Y0059747D03*
X0050288Y0059747D03*
X0047139Y0059747D03*
X0043989Y0059747D03*
X0040840Y0059747D03*
X0037690Y0059747D03*
X0034540Y0059747D03*
D17*
X0084350Y0100406D03*
X0084350Y0110406D03*
X0084350Y0120406D03*
X0094350Y0120406D03*
X0094350Y0110406D03*
X0094350Y0100406D03*
D18*
X0065070Y0143060D03*
X0061920Y0143060D03*
X0058770Y0143060D03*
X0055621Y0143060D03*
X0052471Y0143060D03*
X0049322Y0143060D03*
X0049322Y0152021D03*
X0052471Y0152021D03*
X0055621Y0152021D03*
X0058770Y0152021D03*
X0061920Y0152021D03*
X0065070Y0151991D03*
D19*
X0065463Y0147540D03*
X0048928Y0147540D03*
D20*
X0048559Y0028471D02*
X0048559Y0023715D01*
X0043559Y0023715D02*
X0043559Y0028471D01*
X0038559Y0028471D02*
X0038559Y0023715D01*
X0033559Y0023715D02*
X0033559Y0028471D01*
X0028559Y0028471D02*
X0028559Y0023715D01*
X0053559Y0023715D02*
X0053559Y0028471D01*
X0058559Y0028471D02*
X0058559Y0023715D01*
X0063559Y0023715D02*
X0063559Y0028471D01*
X0068559Y0028471D02*
X0068559Y0023715D01*
X0073559Y0023715D02*
X0073559Y0028471D01*
X0078559Y0028471D02*
X0078559Y0023715D01*
X0083559Y0023715D02*
X0083559Y0028471D01*
X0088559Y0028471D02*
X0088559Y0023715D01*
D21*
X0033439Y0134479D02*
X0027439Y0134479D01*
X0027439Y0144479D02*
X0033439Y0144479D01*
D22*
X0090965Y0131988D03*
X0090965Y0167388D03*
D23*
X0090590Y0167349D02*
X0024994Y0167349D01*
X0024994Y0165951D02*
X0087115Y0165951D01*
X0087115Y0167013D02*
X0087115Y0163214D01*
X0087231Y0162782D01*
X0087455Y0162394D01*
X0087771Y0162078D01*
X0088159Y0161854D01*
X0088591Y0161738D01*
X0090590Y0161738D01*
X0090590Y0167013D01*
X0087115Y0167013D01*
X0087115Y0167763D02*
X0090590Y0167763D01*
X0090590Y0167013D01*
X0091340Y0167013D01*
X0091340Y0161738D01*
X0093339Y0161738D01*
X0093771Y0161854D01*
X0094159Y0162078D01*
X0094476Y0162394D01*
X0094699Y0162782D01*
X0094815Y0163214D01*
X0094815Y0167013D01*
X0091340Y0167013D01*
X0091340Y0167763D01*
X0090590Y0167763D01*
X0090590Y0173038D01*
X0088591Y0173038D01*
X0088159Y0172922D01*
X0087771Y0172698D01*
X0087455Y0172382D01*
X0087231Y0171994D01*
X0087115Y0171562D01*
X0087115Y0167763D01*
X0087115Y0168748D02*
X0024994Y0168748D01*
X0024994Y0170146D02*
X0087115Y0170146D01*
X0087115Y0171545D02*
X0024994Y0171545D01*
X0024994Y0172943D02*
X0088238Y0172943D01*
X0090590Y0172943D02*
X0091340Y0172943D01*
X0091340Y0173038D02*
X0093339Y0173038D01*
X0093771Y0172922D01*
X0094159Y0172698D01*
X0094476Y0172382D01*
X0094699Y0171994D01*
X0094815Y0171562D01*
X0094815Y0167763D01*
X0091340Y0167763D01*
X0091340Y0173038D01*
X0091340Y0171545D02*
X0090590Y0171545D01*
X0090590Y0170146D02*
X0091340Y0170146D01*
X0091340Y0168748D02*
X0090590Y0168748D01*
X0091340Y0167349D02*
X0096863Y0167349D01*
X0096863Y0165951D02*
X0094815Y0165951D01*
X0094815Y0164552D02*
X0096863Y0164552D01*
X0096863Y0163154D02*
X0094799Y0163154D01*
X0093403Y0161755D02*
X0096863Y0161755D01*
X0096863Y0160357D02*
X0072744Y0160357D01*
X0072744Y0159734D02*
X0072744Y0161026D01*
X0072250Y0162221D01*
X0071335Y0163135D01*
X0070141Y0163630D01*
X0068848Y0163630D01*
X0067653Y0163135D01*
X0066739Y0162221D01*
X0066244Y0161026D01*
X0066244Y0159734D01*
X0066739Y0158539D01*
X0067094Y0158184D01*
X0067094Y0155567D01*
X0066758Y0155903D01*
X0063638Y0155903D01*
X0063608Y0155933D01*
X0053932Y0155933D01*
X0053879Y0155880D01*
X0053679Y0155933D01*
X0052471Y0155933D01*
X0051263Y0155933D01*
X0051063Y0155880D01*
X0051010Y0155933D01*
X0047633Y0155933D01*
X0046637Y0154938D01*
X0046637Y0154380D01*
X0043817Y0154380D01*
X0042935Y0154015D01*
X0042260Y0153340D01*
X0038176Y0149255D01*
X0037810Y0148373D01*
X0037810Y0146237D01*
X0037795Y0146283D01*
X0037459Y0146943D01*
X0037024Y0147541D01*
X0036501Y0148064D01*
X0035903Y0148499D01*
X0035243Y0148835D01*
X0034540Y0149063D01*
X0033809Y0149179D01*
X0030739Y0149179D01*
X0030739Y0144779D01*
X0030139Y0144779D01*
X0030139Y0149179D01*
X0027069Y0149179D01*
X0026339Y0149063D01*
X0025635Y0148835D01*
X0024994Y0148508D01*
X0024994Y0211886D01*
X0025689Y0212580D01*
X0051898Y0212580D01*
X0052253Y0212225D01*
X0053448Y0211730D01*
X0054741Y0211730D01*
X0055935Y0212225D01*
X0056850Y0213139D01*
X0057344Y0214334D01*
X0057344Y0215626D01*
X0056850Y0216821D01*
X0056191Y0217480D01*
X0067298Y0217480D01*
X0067653Y0217125D01*
X0068848Y0216630D01*
X0070141Y0216630D01*
X0071335Y0217125D01*
X0072250Y0218039D01*
X0072744Y0219234D01*
X0072744Y0220526D01*
X0072250Y0221721D01*
X0071335Y0222635D01*
X0070141Y0223130D01*
X0068848Y0223130D01*
X0067653Y0222635D01*
X0067298Y0222280D01*
X0028291Y0222280D01*
X0027935Y0222635D01*
X0026741Y0223130D01*
X0025448Y0223130D01*
X0024253Y0222635D01*
X0023339Y0221721D01*
X0022844Y0220526D01*
X0022844Y0219234D01*
X0023339Y0218039D01*
X0024062Y0217316D01*
X0023335Y0217015D01*
X0021617Y0215297D01*
X0021617Y0250369D01*
X0046863Y0250369D01*
X0046863Y0232276D01*
X0047859Y0231280D01*
X0082867Y0231280D01*
X0083863Y0232276D01*
X0083863Y0250369D01*
X0096863Y0250369D01*
X0096863Y0124539D01*
X0096296Y0125106D01*
X0092403Y0125106D01*
X0089650Y0122353D01*
X0089650Y0121669D01*
X0089050Y0121069D01*
X0089050Y0122353D01*
X0086296Y0125106D01*
X0082403Y0125106D01*
X0079650Y0122353D01*
X0079650Y0118459D01*
X0082403Y0115706D01*
X0086296Y0115706D01*
X0087054Y0116464D01*
X0087054Y0114348D01*
X0086296Y0115106D01*
X0082403Y0115106D01*
X0079650Y0112353D01*
X0079650Y0108459D01*
X0082365Y0105744D01*
X0081553Y0106080D01*
X0079589Y0106080D01*
X0079044Y0106624D01*
X0079044Y0107126D01*
X0078894Y0107489D01*
X0078894Y0125086D01*
X0083396Y0129588D01*
X0087115Y0129588D01*
X0087115Y0127334D01*
X0088111Y0126338D01*
X0093819Y0126338D01*
X0094815Y0127334D01*
X0094815Y0136642D01*
X0093819Y0137638D01*
X0088111Y0137638D01*
X0087115Y0136642D01*
X0087115Y0134388D01*
X0083396Y0134388D01*
X0083094Y0134690D01*
X0083094Y0151057D01*
X0082729Y0151940D01*
X0082054Y0152615D01*
X0080128Y0154540D01*
X0080128Y0156004D01*
X0079133Y0157000D01*
X0071894Y0157000D01*
X0071894Y0158184D01*
X0072250Y0158539D01*
X0072744Y0159734D01*
X0072423Y0158958D02*
X0096863Y0158958D01*
X0096863Y0157560D02*
X0071894Y0157560D01*
X0072443Y0161755D02*
X0088527Y0161755D01*
X0090590Y0161755D02*
X0091340Y0161755D01*
X0091340Y0163154D02*
X0090590Y0163154D01*
X0090590Y0164552D02*
X0091340Y0164552D01*
X0091340Y0165951D02*
X0090590Y0165951D01*
X0087115Y0164552D02*
X0024994Y0164552D01*
X0024994Y0163154D02*
X0067698Y0163154D01*
X0066546Y0161755D02*
X0024994Y0161755D01*
X0024994Y0160357D02*
X0066244Y0160357D01*
X0066566Y0158958D02*
X0024994Y0158958D01*
X0024994Y0157560D02*
X0067094Y0157560D01*
X0067094Y0156161D02*
X0024994Y0156161D01*
X0024994Y0154763D02*
X0046637Y0154763D01*
X0044294Y0151980D02*
X0049280Y0151980D01*
X0049322Y0152021D01*
X0048928Y0147540D02*
X0047555Y0147540D01*
X0046394Y0146380D01*
X0046394Y0126723D01*
X0046394Y0123980D01*
X0046394Y0126723D02*
X0050320Y0130649D01*
X0057101Y0131474D02*
X0049322Y0139253D01*
X0049322Y0143060D01*
X0052471Y0143060D02*
X0052471Y0139497D01*
X0052471Y0139497D01*
X0052471Y0143060D01*
X0052471Y0140303D01*
X0054794Y0137980D01*
X0056894Y0137980D01*
X0058770Y0139856D01*
X0058770Y0143060D01*
X0061920Y0143060D01*
X0061920Y0139961D02*
X0061920Y0139148D01*
X0062670Y0139148D01*
X0062670Y0138427D01*
X0063035Y0137545D01*
X0063710Y0136870D01*
X0063710Y0136870D01*
X0065331Y0135249D01*
X0065263Y0135249D01*
X0064268Y0134253D01*
X0064268Y0133193D01*
X0062060Y0133193D01*
X0062060Y0134306D01*
X0061064Y0135302D01*
X0056666Y0135302D01*
X0052821Y0139148D01*
X0053679Y0139148D01*
X0053879Y0139201D01*
X0053932Y0139148D01*
X0057309Y0139148D01*
X0057363Y0139201D01*
X0057562Y0139148D01*
X0058770Y0139148D01*
X0058770Y0139962D01*
X0058770Y0139961D01*
X0058770Y0139148D01*
X0059978Y0139148D01*
X0060325Y0139240D01*
X0060365Y0139240D01*
X0060712Y0139148D01*
X0061920Y0139148D01*
X0061920Y0139961D01*
X0061920Y0139961D01*
X0061920Y0139379D02*
X0061920Y0139379D01*
X0062855Y0137981D02*
X0053988Y0137981D01*
X0052471Y0140778D02*
X0052471Y0140778D01*
X0052471Y0142176D02*
X0052471Y0142176D01*
X0052471Y0143060D02*
X0052471Y0143060D01*
X0055387Y0136582D02*
X0063998Y0136582D01*
X0065070Y0138905D02*
X0065070Y0143060D01*
X0065463Y0143060D01*
X0065463Y0147540D01*
X0067855Y0147540D01*
X0069494Y0149180D01*
X0069494Y0160380D01*
X0071291Y0163154D02*
X0087131Y0163154D01*
X0082703Y0151966D02*
X0096863Y0151966D01*
X0096863Y0153364D02*
X0081304Y0153364D01*
X0080128Y0154763D02*
X0096863Y0154763D01*
X0096863Y0156161D02*
X0079972Y0156161D01*
X0078533Y0152741D02*
X0080694Y0150580D01*
X0080694Y0133696D01*
X0082402Y0131988D01*
X0076494Y0126080D01*
X0076494Y0106480D01*
X0075794Y0106480D01*
X0078594Y0103680D01*
X0081076Y0103680D01*
X0084350Y0100406D01*
X0085286Y0095706D02*
X0082403Y0095706D01*
X0079650Y0098459D01*
X0079650Y0101280D01*
X0078117Y0101280D01*
X0077235Y0101645D01*
X0075650Y0103230D01*
X0075148Y0103230D01*
X0073953Y0103725D01*
X0073039Y0104639D01*
X0072544Y0105834D01*
X0072544Y0107126D01*
X0073039Y0108321D01*
X0073953Y0109235D01*
X0074094Y0109294D01*
X0074094Y0126557D01*
X0074460Y0127440D01*
X0075135Y0128115D01*
X0075135Y0128115D01*
X0079008Y0131988D01*
X0078660Y0132336D01*
X0078294Y0133219D01*
X0078294Y0134484D01*
X0077635Y0133825D01*
X0076441Y0133330D01*
X0075148Y0133330D01*
X0073967Y0133819D01*
X0073967Y0127333D01*
X0072971Y0126337D01*
X0065263Y0126337D01*
X0064268Y0127333D01*
X0064268Y0128393D01*
X0062060Y0128393D01*
X0062060Y0126992D01*
X0061064Y0125997D01*
X0059505Y0125997D01*
X0058954Y0125445D01*
X0056200Y0122692D01*
X0057884Y0122692D01*
X0057884Y0118619D01*
X0059043Y0118619D01*
X0059043Y0122692D01*
X0061247Y0122692D01*
X0061679Y0122576D01*
X0062067Y0122352D01*
X0062383Y0122036D01*
X0062607Y0121648D01*
X0062723Y0121216D01*
X0062723Y0118619D01*
X0059043Y0118619D01*
X0059043Y0117460D01*
X0062723Y0117460D01*
X0062723Y0114862D01*
X0062607Y0114430D01*
X0062383Y0114042D01*
X0062067Y0113726D01*
X0061679Y0113502D01*
X0061247Y0113386D01*
X0059043Y0113386D01*
X0059043Y0117459D01*
X0057884Y0117459D01*
X0057884Y0113386D01*
X0055681Y0113386D01*
X0055248Y0113502D01*
X0054861Y0113726D01*
X0054724Y0113863D01*
X0054247Y0113386D01*
X0047720Y0113386D01*
X0047544Y0113562D01*
X0047544Y0112834D01*
X0047050Y0111639D01*
X0046389Y0110979D01*
X0046389Y0110069D01*
X0047139Y0110069D01*
X0047139Y0105417D01*
X0047139Y0105417D01*
X0047139Y0110069D01*
X0048347Y0110069D01*
X0048547Y0110016D01*
X0048600Y0110069D01*
X0067725Y0110069D01*
X0068721Y0109074D01*
X0068721Y0101760D01*
X0067725Y0100764D01*
X0052688Y0100764D01*
X0052688Y0098380D01*
X0054698Y0098380D01*
X0055053Y0098735D01*
X0056248Y0099230D01*
X0057541Y0099230D01*
X0058735Y0098735D01*
X0059091Y0098380D01*
X0066472Y0098380D01*
X0067354Y0098015D01*
X0068029Y0097340D01*
X0068470Y0096898D01*
X0068470Y0100018D01*
X0069466Y0101014D01*
X0076780Y0101014D01*
X0077776Y0100018D01*
X0077776Y0097580D01*
X0078932Y0097580D01*
X0079814Y0097215D01*
X0080489Y0096540D01*
X0081748Y0095280D01*
X0084860Y0095280D01*
X0085286Y0095706D01*
X0085854Y0092880D02*
X0080754Y0092880D01*
X0078454Y0095180D01*
X0073123Y0095180D01*
X0073123Y0095180D01*
X0077298Y0101619D02*
X0068580Y0101619D01*
X0068673Y0100221D02*
X0052688Y0100221D01*
X0052688Y0098822D02*
X0055263Y0098822D01*
X0056894Y0095980D02*
X0065994Y0095980D01*
X0067394Y0094580D01*
X0067394Y0081280D01*
X0069242Y0079432D01*
X0073123Y0079432D01*
X0073123Y0082582D02*
X0073123Y0082582D01*
X0077776Y0082582D01*
X0077776Y0083790D01*
X0077722Y0083990D01*
X0077776Y0084043D01*
X0077776Y0092464D01*
X0079395Y0090845D01*
X0080277Y0090480D01*
X0086332Y0090480D01*
X0087214Y0090845D01*
X0087889Y0091521D01*
X0091489Y0095121D01*
X0091854Y0096003D01*
X0091854Y0096255D01*
X0092403Y0095706D01*
X0094049Y0095706D01*
X0094049Y0100106D01*
X0094650Y0100106D01*
X0094650Y0095706D01*
X0096296Y0095706D01*
X0096863Y0096273D01*
X0096863Y0019612D01*
X0021617Y0019612D01*
X0021617Y0052916D01*
X0021939Y0052139D01*
X0022853Y0051225D01*
X0022956Y0051182D01*
X0022433Y0050659D01*
X0022433Y0044133D01*
X0022910Y0043656D01*
X0022773Y0043518D01*
X0022549Y0043131D01*
X0022433Y0042698D01*
X0022433Y0040495D01*
X0026506Y0040495D01*
X0026506Y0039336D01*
X0022433Y0039336D01*
X0022433Y0037133D01*
X0022549Y0036700D01*
X0022773Y0036313D01*
X0023090Y0035996D01*
X0023477Y0035772D01*
X0023910Y0035656D01*
X0026507Y0035656D01*
X0026507Y0039336D01*
X0027666Y0039336D01*
X0027666Y0040495D01*
X0031739Y0040495D01*
X0031739Y0042698D01*
X0031623Y0043131D01*
X0031399Y0043518D01*
X0031262Y0043656D01*
X0031739Y0044133D01*
X0031739Y0050659D01*
X0030743Y0051655D01*
X0029486Y0051655D01*
X0029486Y0052066D01*
X0029121Y0052948D01*
X0028446Y0053623D01*
X0028446Y0053623D01*
X0027944Y0054124D01*
X0027944Y0054626D01*
X0027450Y0055821D01*
X0026535Y0056735D01*
X0025341Y0057230D01*
X0024048Y0057230D01*
X0022853Y0056735D01*
X0021939Y0055821D01*
X0021617Y0055044D01*
X0021617Y0058761D01*
X0022153Y0058225D01*
X0023348Y0057730D01*
X0024641Y0057730D01*
X0025835Y0058225D01*
X0026191Y0058580D01*
X0031856Y0058580D01*
X0031856Y0056090D01*
X0032852Y0055095D01*
X0042715Y0055095D01*
X0041535Y0053915D01*
X0040860Y0053240D01*
X0040494Y0052357D01*
X0040494Y0050853D01*
X0037984Y0050853D01*
X0037984Y0047174D01*
X0036825Y0047174D01*
X0036825Y0050853D01*
X0034228Y0050853D01*
X0033796Y0050737D01*
X0033408Y0050513D01*
X0033092Y0050197D01*
X0032868Y0049809D01*
X0032752Y0049377D01*
X0032752Y0047173D01*
X0036825Y0047173D01*
X0036825Y0046014D01*
X0032752Y0046014D01*
X0032752Y0043811D01*
X0032868Y0043379D01*
X0033092Y0042991D01*
X0033229Y0042854D01*
X0032752Y0042377D01*
X0032752Y0035850D01*
X0033748Y0034855D01*
X0041062Y0034855D01*
X0042058Y0035850D01*
X0042058Y0036714D01*
X0043676Y0036714D01*
X0043676Y0035850D01*
X0044672Y0034855D01*
X0051986Y0034855D01*
X0052982Y0035850D01*
X0052982Y0036722D01*
X0053895Y0036722D01*
X0053895Y0035859D01*
X0054891Y0034863D01*
X0059413Y0034863D01*
X0061159Y0033117D01*
X0061159Y0031838D01*
X0061059Y0031738D01*
X0060869Y0031928D01*
X0059370Y0032549D01*
X0057748Y0032549D01*
X0056249Y0031928D01*
X0056059Y0031738D01*
X0055869Y0031928D01*
X0054370Y0032549D01*
X0052748Y0032549D01*
X0051249Y0031928D01*
X0051059Y0031738D01*
X0050869Y0031928D01*
X0049370Y0032549D01*
X0047748Y0032549D01*
X0046249Y0031928D01*
X0046059Y0031738D01*
X0045869Y0031928D01*
X0044370Y0032549D01*
X0042748Y0032549D01*
X0041249Y0031928D01*
X0041059Y0031738D01*
X0040869Y0031928D01*
X0039370Y0032549D01*
X0037748Y0032549D01*
X0036249Y0031928D01*
X0036059Y0031738D01*
X0035869Y0031928D01*
X0034370Y0032549D01*
X0032748Y0032549D01*
X0031249Y0031928D01*
X0031059Y0031738D01*
X0030869Y0031928D01*
X0029370Y0032549D01*
X0027748Y0032549D01*
X0026249Y0031928D01*
X0025102Y0030781D01*
X0024481Y0029282D01*
X0024481Y0022904D01*
X0025102Y0021405D01*
X0026249Y0020258D01*
X0027748Y0019637D01*
X0029370Y0019637D01*
X0030869Y0020258D01*
X0031059Y0020448D01*
X0031249Y0020258D01*
X0032748Y0019637D01*
X0034370Y0019637D01*
X0035869Y0020258D01*
X0036059Y0020448D01*
X0036249Y0020258D01*
X0037748Y0019637D01*
X0039370Y0019637D01*
X0040869Y0020258D01*
X0041059Y0020448D01*
X0041249Y0020258D01*
X0042748Y0019637D01*
X0044370Y0019637D01*
X0045869Y0020258D01*
X0046059Y0020448D01*
X0046249Y0020258D01*
X0047748Y0019637D01*
X0049370Y0019637D01*
X0050869Y0020258D01*
X0051059Y0020448D01*
X0051249Y0020258D01*
X0052748Y0019637D01*
X0054370Y0019637D01*
X0055869Y0020258D01*
X0056059Y0020448D01*
X0056249Y0020258D01*
X0057748Y0019637D01*
X0059370Y0019637D01*
X0060869Y0020258D01*
X0061059Y0020448D01*
X0061249Y0020258D01*
X0062748Y0019637D01*
X0064370Y0019637D01*
X0065869Y0020258D01*
X0066084Y0020472D01*
X0066422Y0020227D01*
X0066994Y0019935D01*
X0067604Y0019737D01*
X0068238Y0019637D01*
X0068559Y0019637D01*
X0068880Y0019637D01*
X0069514Y0019737D01*
X0070124Y0019935D01*
X0070696Y0020227D01*
X0071034Y0020472D01*
X0071249Y0020258D01*
X0072748Y0019637D01*
X0074370Y0019637D01*
X0075869Y0020258D01*
X0076059Y0020448D01*
X0076249Y0020258D01*
X0077748Y0019637D01*
X0079370Y0019637D01*
X0080869Y0020258D01*
X0081059Y0020448D01*
X0081249Y0020258D01*
X0082748Y0019637D01*
X0084370Y0019637D01*
X0085869Y0020258D01*
X0086059Y0020448D01*
X0086249Y0020258D01*
X0087748Y0019637D01*
X0089370Y0019637D01*
X0090869Y0020258D01*
X0092016Y0021405D01*
X0092637Y0022904D01*
X0092637Y0029282D01*
X0092016Y0030781D01*
X0090959Y0031838D01*
X0090959Y0033293D01*
X0090594Y0034175D01*
X0069429Y0055339D01*
X0069429Y0055340D01*
X0068754Y0056015D01*
X0068677Y0056047D01*
X0068721Y0056090D01*
X0068721Y0059258D01*
X0069053Y0058925D01*
X0070248Y0058430D01*
X0070750Y0058430D01*
X0075523Y0053657D01*
X0075344Y0053226D01*
X0075344Y0051934D01*
X0075839Y0050739D01*
X0076753Y0049825D01*
X0077948Y0049330D01*
X0079241Y0049330D01*
X0080435Y0049825D01*
X0081350Y0050739D01*
X0081844Y0051934D01*
X0081844Y0053226D01*
X0081350Y0054421D01*
X0080769Y0055002D01*
X0080629Y0055340D01*
X0074144Y0061824D01*
X0074144Y0062326D01*
X0073650Y0063521D01*
X0073021Y0064150D01*
X0076780Y0064150D01*
X0076810Y0064180D01*
X0086898Y0064180D01*
X0087253Y0063825D01*
X0088448Y0063330D01*
X0089741Y0063330D01*
X0090935Y0063825D01*
X0091850Y0064739D01*
X0092344Y0065934D01*
X0092344Y0067226D01*
X0091850Y0068421D01*
X0090935Y0069335D01*
X0089741Y0069830D01*
X0088448Y0069830D01*
X0087253Y0069335D01*
X0086898Y0068980D01*
X0077776Y0068980D01*
X0077776Y0070733D01*
X0082325Y0070733D01*
X0083207Y0071099D01*
X0083439Y0071330D01*
X0083941Y0071330D01*
X0085135Y0071825D01*
X0086050Y0072739D01*
X0086544Y0073934D01*
X0086544Y0075226D01*
X0086050Y0076421D01*
X0085135Y0077335D01*
X0083941Y0077830D01*
X0082648Y0077830D01*
X0081453Y0077335D01*
X0080539Y0076421D01*
X0080171Y0075533D01*
X0077776Y0075533D01*
X0077776Y0081121D01*
X0077722Y0081174D01*
X0077776Y0081374D01*
X0077776Y0082582D01*
X0073123Y0082582D01*
X0073026Y0076380D02*
X0073123Y0076283D01*
X0068892Y0076283D01*
X0063894Y0081280D01*
X0059694Y0079880D02*
X0059694Y0088980D01*
X0056894Y0095980D02*
X0051382Y0095980D01*
X0050288Y0097074D01*
X0050288Y0105417D01*
X0047888Y0100764D02*
X0047888Y0098380D01*
X0038091Y0098380D01*
X0037735Y0098735D01*
X0036541Y0099230D01*
X0035248Y0099230D01*
X0034053Y0098735D01*
X0033139Y0097821D01*
X0032644Y0096626D01*
X0032644Y0095334D01*
X0033139Y0094139D01*
X0033494Y0093784D01*
X0033494Y0089274D01*
X0032352Y0088132D01*
X0032107Y0088132D01*
X0032107Y0100018D01*
X0031111Y0101014D01*
X0024994Y0101014D01*
X0024994Y0104313D01*
X0025439Y0103239D01*
X0026353Y0102325D01*
X0027548Y0101830D01*
X0028841Y0101830D01*
X0030035Y0102325D01*
X0030950Y0103239D01*
X0031444Y0104434D01*
X0031444Y0105726D01*
X0030950Y0106921D01*
X0030739Y0107131D01*
X0030739Y0129779D01*
X0034374Y0129779D01*
X0035557Y0130269D01*
X0035557Y0129837D01*
X0031760Y0126040D01*
X0031394Y0125157D01*
X0031394Y0117203D01*
X0031760Y0116321D01*
X0032435Y0115645D01*
X0038011Y0110069D01*
X0032852Y0110069D01*
X0031856Y0109074D01*
X0031856Y0101760D01*
X0032852Y0100764D01*
X0045678Y0100764D01*
X0045731Y0100817D01*
X0045931Y0100764D01*
X0047139Y0100764D01*
X0047888Y0100764D01*
X0047888Y0100221D02*
X0031904Y0100221D01*
X0031997Y0101619D02*
X0024994Y0101619D01*
X0024994Y0103018D02*
X0025660Y0103018D01*
X0028194Y0105080D02*
X0028339Y0105225D01*
X0028339Y0132379D01*
X0030439Y0134479D01*
X0030739Y0129589D02*
X0035310Y0129589D01*
X0033911Y0128191D02*
X0030739Y0128191D01*
X0030739Y0126792D02*
X0032513Y0126792D01*
X0031492Y0125394D02*
X0030739Y0125394D01*
X0030739Y0123995D02*
X0031394Y0123995D01*
X0031394Y0122597D02*
X0030739Y0122597D01*
X0030739Y0121198D02*
X0031394Y0121198D01*
X0031394Y0119800D02*
X0030739Y0119800D01*
X0030739Y0118401D02*
X0031394Y0118401D01*
X0031477Y0117003D02*
X0030739Y0117003D01*
X0030739Y0115604D02*
X0032476Y0115604D01*
X0033874Y0114206D02*
X0030739Y0114206D01*
X0030739Y0112807D02*
X0035273Y0112807D01*
X0033794Y0117680D02*
X0033794Y0124680D01*
X0037699Y0128585D01*
X0040210Y0128585D01*
X0040210Y0147896D01*
X0044294Y0151980D01*
X0042284Y0153364D02*
X0024994Y0153364D01*
X0024994Y0151966D02*
X0040886Y0151966D01*
X0039487Y0150567D02*
X0024994Y0150567D01*
X0024994Y0149169D02*
X0027002Y0149169D01*
X0030139Y0149169D02*
X0030739Y0149169D01*
X0030739Y0147770D02*
X0030139Y0147770D01*
X0030139Y0146372D02*
X0030739Y0146372D01*
X0030739Y0144973D02*
X0030139Y0144973D01*
X0030139Y0144179D02*
X0030739Y0144179D01*
X0030739Y0139779D01*
X0033809Y0139779D01*
X0034540Y0139895D01*
X0035243Y0140124D01*
X0035903Y0140459D01*
X0036501Y0140894D01*
X0037024Y0141417D01*
X0037459Y0142016D01*
X0037795Y0142675D01*
X0037810Y0142722D01*
X0037810Y0136209D01*
X0037424Y0137142D01*
X0036102Y0138464D01*
X0034374Y0139179D01*
X0026504Y0139179D01*
X0024994Y0138554D01*
X0024994Y0140450D01*
X0025635Y0140124D01*
X0026339Y0139895D01*
X0027069Y0139779D01*
X0030139Y0139779D01*
X0030139Y0144179D01*
X0030139Y0143575D02*
X0030739Y0143575D01*
X0030739Y0142176D02*
X0030139Y0142176D01*
X0030139Y0140778D02*
X0030739Y0140778D01*
X0033876Y0149169D02*
X0038140Y0149169D01*
X0037810Y0147770D02*
X0036795Y0147770D01*
X0037750Y0146372D02*
X0037810Y0146372D01*
X0037810Y0142176D02*
X0037541Y0142176D01*
X0037810Y0140778D02*
X0036340Y0140778D01*
X0036585Y0137981D02*
X0037810Y0137981D01*
X0037810Y0139379D02*
X0024994Y0139379D01*
X0033794Y0117680D02*
X0040840Y0110635D01*
X0040840Y0105417D01*
X0043989Y0105417D02*
X0043989Y0113175D01*
X0044294Y0113480D01*
X0046819Y0111409D02*
X0074094Y0111409D01*
X0074094Y0112807D02*
X0047534Y0112807D01*
X0047139Y0110010D02*
X0047139Y0110010D01*
X0047139Y0109324D02*
X0050594Y0112780D01*
X0056894Y0112780D01*
X0058294Y0114180D01*
X0058294Y0117870D01*
X0058464Y0118039D01*
X0059043Y0118401D02*
X0064268Y0118401D01*
X0064268Y0119092D02*
X0064268Y0116790D01*
X0064383Y0116358D01*
X0064607Y0115970D01*
X0064924Y0115654D01*
X0065311Y0115430D01*
X0065744Y0115314D01*
X0068439Y0115314D01*
X0068439Y0119092D01*
X0064268Y0119092D01*
X0064268Y0120448D02*
X0068439Y0120448D01*
X0068439Y0124226D01*
X0065744Y0124226D01*
X0065311Y0124110D01*
X0064924Y0123886D01*
X0064607Y0123570D01*
X0064383Y0123182D01*
X0064268Y0122749D01*
X0064268Y0120448D01*
X0064268Y0121198D02*
X0062723Y0121198D01*
X0062723Y0119800D02*
X0068439Y0119800D01*
X0068439Y0120448D02*
X0068439Y0119092D01*
X0069795Y0119092D01*
X0069795Y0115314D01*
X0072491Y0115314D01*
X0072923Y0115430D01*
X0073311Y0115654D01*
X0073627Y0115970D01*
X0073851Y0116358D01*
X0073967Y0116790D01*
X0073967Y0119092D01*
X0069795Y0119092D01*
X0069795Y0120448D01*
X0068439Y0120448D01*
X0068439Y0121198D02*
X0069795Y0121198D01*
X0069795Y0120448D02*
X0069795Y0124226D01*
X0072491Y0124226D01*
X0072923Y0124110D01*
X0073311Y0123886D01*
X0073627Y0123570D01*
X0073851Y0123182D01*
X0073967Y0122749D01*
X0073967Y0120448D01*
X0069795Y0120448D01*
X0069795Y0119800D02*
X0074094Y0119800D01*
X0074094Y0121198D02*
X0073967Y0121198D01*
X0073967Y0122597D02*
X0074094Y0122597D01*
X0074094Y0123995D02*
X0073121Y0123995D01*
X0074094Y0125394D02*
X0058902Y0125394D01*
X0057504Y0123995D02*
X0065113Y0123995D01*
X0064268Y0122597D02*
X0061601Y0122597D01*
X0059043Y0122597D02*
X0057884Y0122597D01*
X0057884Y0121198D02*
X0059043Y0121198D01*
X0059043Y0119800D02*
X0057884Y0119800D01*
X0057884Y0117003D02*
X0059043Y0117003D01*
X0059043Y0115604D02*
X0057884Y0115604D01*
X0057884Y0114206D02*
X0059043Y0114206D01*
X0062477Y0114206D02*
X0074094Y0114206D01*
X0074094Y0115604D02*
X0073225Y0115604D01*
X0073967Y0117003D02*
X0074094Y0117003D01*
X0074094Y0118401D02*
X0073967Y0118401D01*
X0069795Y0118401D02*
X0068439Y0118401D01*
X0068439Y0117003D02*
X0069795Y0117003D01*
X0069795Y0115604D02*
X0068439Y0115604D01*
X0068439Y0122597D02*
X0069795Y0122597D01*
X0069795Y0123995D02*
X0068439Y0123995D01*
X0064809Y0126792D02*
X0061860Y0126792D01*
X0062060Y0128191D02*
X0064268Y0128191D01*
X0064268Y0133785D02*
X0062060Y0133785D01*
X0061182Y0135183D02*
X0065198Y0135183D01*
X0065070Y0138905D02*
X0069117Y0134857D01*
X0069117Y0130793D01*
X0057945Y0130793D01*
X0057801Y0130649D01*
X0057594Y0130443D01*
X0057594Y0127480D01*
X0050983Y0120869D01*
X0050983Y0118039D01*
X0043276Y0118039D01*
X0040210Y0121104D01*
X0036672Y0111409D02*
X0030739Y0111409D01*
X0030739Y0110010D02*
X0032793Y0110010D01*
X0031856Y0108612D02*
X0030739Y0108612D01*
X0030739Y0107213D02*
X0031856Y0107213D01*
X0031856Y0105815D02*
X0031408Y0105815D01*
X0031437Y0104416D02*
X0031856Y0104416D01*
X0031856Y0103018D02*
X0030728Y0103018D01*
X0032107Y0098822D02*
X0034263Y0098822D01*
X0035894Y0095980D02*
X0035894Y0088280D01*
X0033346Y0085732D01*
X0027454Y0085732D01*
X0027454Y0082582D02*
X0032107Y0082582D01*
X0032107Y0083332D01*
X0033823Y0083332D01*
X0034705Y0083697D01*
X0035381Y0084372D01*
X0037929Y0086921D01*
X0038294Y0087803D01*
X0038294Y0093580D01*
X0039139Y0093580D01*
X0039139Y0070958D01*
X0039504Y0070076D01*
X0044694Y0064886D01*
X0044694Y0064400D01*
X0032852Y0064400D01*
X0031856Y0063404D01*
X0031856Y0063380D01*
X0026191Y0063380D01*
X0025835Y0063735D01*
X0024835Y0064150D01*
X0031111Y0064150D01*
X0032107Y0065146D01*
X0032107Y0066472D01*
X0032653Y0065925D01*
X0033848Y0065430D01*
X0035141Y0065430D01*
X0036335Y0065925D01*
X0037250Y0066839D01*
X0037744Y0068034D01*
X0037744Y0069326D01*
X0037250Y0070521D01*
X0036894Y0070876D01*
X0036894Y0078957D01*
X0036529Y0079840D01*
X0035577Y0080792D01*
X0034902Y0081467D01*
X0034019Y0081832D01*
X0032107Y0081832D01*
X0032107Y0082582D01*
X0027454Y0082582D01*
X0027454Y0082582D01*
X0027454Y0079432D02*
X0033542Y0079432D01*
X0034494Y0078480D01*
X0034494Y0068680D01*
X0036919Y0070852D02*
X0039183Y0070852D01*
X0039139Y0072250D02*
X0036894Y0072250D01*
X0036894Y0073649D02*
X0039139Y0073649D01*
X0039139Y0075048D02*
X0036894Y0075048D01*
X0036894Y0076446D02*
X0039139Y0076446D01*
X0039139Y0077845D02*
X0036894Y0077845D01*
X0036776Y0079243D02*
X0039139Y0079243D01*
X0039139Y0080642D02*
X0035727Y0080642D01*
X0034082Y0083439D02*
X0039139Y0083439D01*
X0039139Y0084837D02*
X0035846Y0084837D01*
X0037244Y0086236D02*
X0039139Y0086236D01*
X0039139Y0087634D02*
X0038225Y0087634D01*
X0038294Y0089033D02*
X0039139Y0089033D01*
X0039139Y0090431D02*
X0038294Y0090431D01*
X0038294Y0091830D02*
X0039139Y0091830D01*
X0039139Y0093228D02*
X0038294Y0093228D01*
X0035894Y0095980D02*
X0042894Y0095980D01*
X0041539Y0094624D01*
X0041539Y0071436D01*
X0047094Y0065880D01*
X0047094Y0059792D01*
X0047139Y0059747D01*
X0047139Y0056124D01*
X0042894Y0051880D01*
X0042894Y0042080D01*
X0039928Y0039114D01*
X0037405Y0039114D01*
X0048329Y0039114D01*
X0048337Y0039122D01*
X0058548Y0039122D01*
X0063559Y0034111D01*
X0063559Y0026093D01*
X0066084Y0031713D02*
X0065959Y0031838D01*
X0065959Y0034588D01*
X0065594Y0035471D01*
X0063201Y0037863D01*
X0063201Y0042385D01*
X0062724Y0042862D01*
X0062861Y0042999D01*
X0063085Y0043387D01*
X0063201Y0043819D01*
X0063201Y0046023D01*
X0059128Y0046023D01*
X0059128Y0047182D01*
X0063201Y0047182D01*
X0063201Y0049385D01*
X0063085Y0049817D01*
X0062861Y0050205D01*
X0062545Y0050522D01*
X0062157Y0050745D01*
X0061725Y0050861D01*
X0059128Y0050861D01*
X0059128Y0047182D01*
X0057969Y0047182D01*
X0057969Y0050861D01*
X0055372Y0050861D01*
X0054939Y0050745D01*
X0054552Y0050522D01*
X0054235Y0050205D01*
X0054011Y0049817D01*
X0053895Y0049385D01*
X0053895Y0047182D01*
X0057969Y0047182D01*
X0057969Y0046023D01*
X0053895Y0046023D01*
X0053895Y0043819D01*
X0054011Y0043387D01*
X0054235Y0042999D01*
X0054372Y0042862D01*
X0053895Y0042385D01*
X0053895Y0041522D01*
X0052982Y0041522D01*
X0052982Y0042377D01*
X0052505Y0042854D01*
X0052642Y0042991D01*
X0052866Y0043379D01*
X0052982Y0043811D01*
X0052982Y0046014D01*
X0048909Y0046014D01*
X0048909Y0047173D01*
X0052982Y0047173D01*
X0052982Y0049377D01*
X0052866Y0049809D01*
X0052642Y0050197D01*
X0052326Y0050513D01*
X0051938Y0050737D01*
X0051506Y0050853D01*
X0048908Y0050853D01*
X0048908Y0047174D01*
X0047749Y0047174D01*
X0047749Y0050853D01*
X0045294Y0050853D01*
X0045294Y0050886D01*
X0049173Y0054765D01*
X0049310Y0055095D01*
X0050288Y0055095D01*
X0050288Y0059747D01*
X0050288Y0059747D01*
X0050288Y0055095D01*
X0051496Y0055095D01*
X0051696Y0055148D01*
X0051750Y0055095D01*
X0054494Y0055095D01*
X0054494Y0054903D01*
X0054860Y0054021D01*
X0055535Y0053345D01*
X0056935Y0051945D01*
X0057817Y0051580D01*
X0066400Y0051580D01*
X0086151Y0031830D01*
X0086059Y0031738D01*
X0085869Y0031928D01*
X0084370Y0032549D01*
X0082748Y0032549D01*
X0081249Y0031928D01*
X0081059Y0031738D01*
X0080869Y0031928D01*
X0079370Y0032549D01*
X0077748Y0032549D01*
X0076249Y0031928D01*
X0076059Y0031738D01*
X0075869Y0031928D01*
X0074370Y0032549D01*
X0072748Y0032549D01*
X0071249Y0031928D01*
X0071034Y0031713D01*
X0070696Y0031958D01*
X0070124Y0032250D01*
X0069514Y0032448D01*
X0068880Y0032549D01*
X0068559Y0032549D01*
X0068559Y0026093D01*
X0068559Y0026093D01*
X0068559Y0032549D01*
X0068238Y0032549D01*
X0067604Y0032448D01*
X0066994Y0032250D01*
X0066422Y0031958D01*
X0066084Y0031713D01*
X0065959Y0033092D02*
X0084888Y0033092D01*
X0083490Y0034491D02*
X0065959Y0034491D01*
X0065175Y0035889D02*
X0082091Y0035889D01*
X0080693Y0037288D02*
X0063776Y0037288D01*
X0063201Y0038686D02*
X0079294Y0038686D01*
X0077896Y0040085D02*
X0063201Y0040085D01*
X0063201Y0041483D02*
X0076497Y0041483D01*
X0075099Y0042882D02*
X0062744Y0042882D01*
X0063201Y0044280D02*
X0073700Y0044280D01*
X0072302Y0045679D02*
X0063201Y0045679D01*
X0063201Y0048476D02*
X0069505Y0048476D01*
X0068106Y0049874D02*
X0063052Y0049874D01*
X0066708Y0051273D02*
X0045681Y0051273D01*
X0047080Y0052671D02*
X0056209Y0052671D01*
X0054839Y0054070D02*
X0048478Y0054070D01*
X0050288Y0055468D02*
X0050288Y0055468D01*
X0050288Y0056867D02*
X0050288Y0056867D01*
X0050288Y0058265D02*
X0050288Y0058265D01*
X0050288Y0059664D02*
X0050288Y0059664D01*
X0050288Y0059747D02*
X0050288Y0064400D01*
X0049494Y0064400D01*
X0049494Y0066357D01*
X0049129Y0067240D01*
X0048549Y0067820D01*
X0049248Y0067530D01*
X0050541Y0067530D01*
X0051735Y0068025D01*
X0052091Y0068380D01*
X0057294Y0068380D01*
X0057294Y0064400D01*
X0051750Y0064400D01*
X0051696Y0064347D01*
X0051496Y0064400D01*
X0050288Y0064400D01*
X0050288Y0059747D01*
X0050288Y0059747D01*
X0050288Y0061062D02*
X0050288Y0061062D01*
X0050288Y0062461D02*
X0050288Y0062461D01*
X0050288Y0063859D02*
X0050288Y0063859D01*
X0049494Y0065258D02*
X0057294Y0065258D01*
X0057294Y0066656D02*
X0049371Y0066656D01*
X0049894Y0070780D02*
X0058294Y0070780D01*
X0059694Y0069380D01*
X0059694Y0059790D01*
X0059737Y0059747D01*
X0056894Y0055380D02*
X0058294Y0053980D01*
X0067394Y0053980D01*
X0088559Y0032815D01*
X0088559Y0026093D01*
X0091117Y0020506D02*
X0096863Y0020506D01*
X0096863Y0021904D02*
X0092223Y0021904D01*
X0092637Y0023303D02*
X0096863Y0023303D01*
X0096863Y0024701D02*
X0092637Y0024701D01*
X0092637Y0026100D02*
X0096863Y0026100D01*
X0096863Y0027498D02*
X0092637Y0027498D01*
X0092637Y0028897D02*
X0096863Y0028897D01*
X0096863Y0030295D02*
X0092217Y0030295D01*
X0091103Y0031694D02*
X0096863Y0031694D01*
X0096863Y0033092D02*
X0090959Y0033092D01*
X0090278Y0034491D02*
X0096863Y0034491D01*
X0096863Y0035889D02*
X0088879Y0035889D01*
X0087481Y0037288D02*
X0096863Y0037288D01*
X0096863Y0038686D02*
X0086082Y0038686D01*
X0084684Y0040085D02*
X0096863Y0040085D01*
X0096863Y0041483D02*
X0083285Y0041483D01*
X0081887Y0042882D02*
X0096863Y0042882D01*
X0096863Y0044280D02*
X0080488Y0044280D01*
X0079090Y0045679D02*
X0096863Y0045679D01*
X0096863Y0047077D02*
X0077691Y0047077D01*
X0076293Y0048476D02*
X0096863Y0048476D01*
X0096863Y0049874D02*
X0080485Y0049874D01*
X0081571Y0051273D02*
X0096863Y0051273D01*
X0096863Y0052671D02*
X0081844Y0052671D01*
X0081495Y0054070D02*
X0096863Y0054070D01*
X0096863Y0055468D02*
X0080500Y0055468D01*
X0079102Y0056867D02*
X0096863Y0056867D01*
X0096863Y0058265D02*
X0077703Y0058265D01*
X0076305Y0059664D02*
X0096863Y0059664D01*
X0096863Y0061062D02*
X0074906Y0061062D01*
X0074089Y0062461D02*
X0096863Y0062461D01*
X0096863Y0063859D02*
X0090970Y0063859D01*
X0092065Y0065258D02*
X0096863Y0065258D01*
X0096863Y0066656D02*
X0092344Y0066656D01*
X0092001Y0068055D02*
X0096863Y0068055D01*
X0096863Y0069453D02*
X0090650Y0069453D01*
X0089094Y0066580D02*
X0073377Y0066580D01*
X0073123Y0066834D01*
X0073123Y0069984D02*
X0069591Y0069984D01*
X0059694Y0079880D01*
X0057294Y0068055D02*
X0051766Y0068055D01*
X0056588Y0059747D02*
X0056894Y0059441D01*
X0056894Y0055380D01*
X0057969Y0049874D02*
X0059128Y0049874D01*
X0059128Y0048476D02*
X0057969Y0048476D01*
X0057969Y0047077D02*
X0048909Y0047077D01*
X0048908Y0048476D02*
X0047749Y0048476D01*
X0047749Y0049874D02*
X0048908Y0049874D01*
X0052828Y0049874D02*
X0054044Y0049874D01*
X0053895Y0048476D02*
X0052982Y0048476D01*
X0052982Y0045679D02*
X0053895Y0045679D01*
X0053895Y0044280D02*
X0052982Y0044280D01*
X0052533Y0042882D02*
X0054353Y0042882D01*
X0053895Y0035889D02*
X0052982Y0035889D01*
X0059128Y0047077D02*
X0070903Y0047077D01*
X0073496Y0051273D02*
X0075618Y0051273D01*
X0075344Y0052671D02*
X0072097Y0052671D01*
X0073712Y0055468D02*
X0069300Y0055468D01*
X0068721Y0056867D02*
X0072313Y0056867D01*
X0070915Y0058265D02*
X0068721Y0058265D01*
X0070699Y0054070D02*
X0075110Y0054070D01*
X0074894Y0049874D02*
X0076704Y0049874D01*
X0078594Y0052580D02*
X0078594Y0053980D01*
X0070894Y0061680D01*
X0073311Y0063859D02*
X0087219Y0063859D01*
X0087539Y0069453D02*
X0077776Y0069453D01*
X0077776Y0076446D02*
X0080564Y0076446D01*
X0077776Y0077845D02*
X0096863Y0077845D01*
X0096863Y0079243D02*
X0077776Y0079243D01*
X0077776Y0080642D02*
X0096863Y0080642D01*
X0096863Y0082040D02*
X0077776Y0082040D01*
X0077776Y0083439D02*
X0096863Y0083439D01*
X0096863Y0084837D02*
X0077776Y0084837D01*
X0077776Y0086236D02*
X0096863Y0086236D01*
X0096863Y0087634D02*
X0077776Y0087634D01*
X0077776Y0089033D02*
X0096863Y0089033D01*
X0096863Y0090431D02*
X0077776Y0090431D01*
X0077776Y0091830D02*
X0078411Y0091830D01*
X0081003Y0096025D02*
X0082084Y0096025D01*
X0080685Y0097424D02*
X0079309Y0097424D01*
X0079650Y0098822D02*
X0077776Y0098822D01*
X0077574Y0100221D02*
X0079650Y0100221D01*
X0082193Y0105815D02*
X0082294Y0105815D01*
X0080895Y0107213D02*
X0079008Y0107213D01*
X0078894Y0108612D02*
X0079650Y0108612D01*
X0079650Y0110010D02*
X0078894Y0110010D01*
X0078894Y0111409D02*
X0079650Y0111409D01*
X0080104Y0112807D02*
X0078894Y0112807D01*
X0078894Y0114206D02*
X0081503Y0114206D01*
X0081106Y0117003D02*
X0078894Y0117003D01*
X0078894Y0118401D02*
X0079707Y0118401D01*
X0079650Y0119800D02*
X0078894Y0119800D01*
X0078894Y0121198D02*
X0079650Y0121198D01*
X0079894Y0122597D02*
X0078894Y0122597D01*
X0078894Y0123995D02*
X0081292Y0123995D01*
X0080601Y0126792D02*
X0087657Y0126792D01*
X0087115Y0128191D02*
X0081999Y0128191D01*
X0082402Y0131988D02*
X0090965Y0131988D01*
X0094815Y0132386D02*
X0096863Y0132386D01*
X0096863Y0130988D02*
X0094815Y0130988D01*
X0094815Y0129589D02*
X0096863Y0129589D01*
X0096863Y0128191D02*
X0094815Y0128191D01*
X0094274Y0126792D02*
X0096863Y0126792D01*
X0096863Y0125394D02*
X0079202Y0125394D01*
X0076610Y0129589D02*
X0073967Y0129589D01*
X0073967Y0128191D02*
X0075211Y0128191D01*
X0074192Y0126792D02*
X0073426Y0126792D01*
X0073967Y0130988D02*
X0078008Y0130988D01*
X0078639Y0132386D02*
X0073967Y0132386D01*
X0073967Y0133785D02*
X0074050Y0133785D01*
X0075794Y0136580D02*
X0075476Y0136899D01*
X0075476Y0145261D01*
X0073413Y0145261D01*
X0069494Y0149180D01*
X0075476Y0152741D02*
X0078533Y0152741D01*
X0083094Y0150567D02*
X0096863Y0150567D01*
X0096863Y0149169D02*
X0083094Y0149169D01*
X0083094Y0147770D02*
X0096863Y0147770D01*
X0096863Y0146372D02*
X0083094Y0146372D01*
X0083094Y0144973D02*
X0096863Y0144973D01*
X0096863Y0143575D02*
X0083094Y0143575D01*
X0083094Y0142176D02*
X0096863Y0142176D01*
X0096863Y0140778D02*
X0083094Y0140778D01*
X0083094Y0139379D02*
X0096863Y0139379D01*
X0096863Y0137981D02*
X0083094Y0137981D01*
X0083094Y0136582D02*
X0087115Y0136582D01*
X0087115Y0135183D02*
X0083094Y0135183D01*
X0087407Y0123995D02*
X0091292Y0123995D01*
X0089894Y0122597D02*
X0088805Y0122597D01*
X0089050Y0121198D02*
X0089179Y0121198D01*
X0091780Y0120406D02*
X0089454Y0118080D01*
X0089454Y0096480D01*
X0085854Y0092880D01*
X0088198Y0091830D02*
X0096863Y0091830D01*
X0096863Y0093228D02*
X0089596Y0093228D01*
X0090995Y0094627D02*
X0096863Y0094627D01*
X0096863Y0096025D02*
X0096615Y0096025D01*
X0094650Y0096025D02*
X0094049Y0096025D01*
X0094049Y0097424D02*
X0094650Y0097424D01*
X0094650Y0098822D02*
X0094049Y0098822D01*
X0094049Y0100706D02*
X0094049Y0105106D01*
X0092403Y0105106D01*
X0091854Y0104557D01*
X0091854Y0106255D01*
X0092403Y0105706D01*
X0096296Y0105706D01*
X0096863Y0106273D01*
X0096863Y0104539D01*
X0096296Y0105106D01*
X0094650Y0105106D01*
X0094650Y0100706D01*
X0094049Y0100706D01*
X0094049Y0101619D02*
X0094650Y0101619D01*
X0094650Y0103018D02*
X0094049Y0103018D01*
X0094049Y0104416D02*
X0094650Y0104416D01*
X0096405Y0105815D02*
X0096863Y0105815D01*
X0092294Y0105815D02*
X0091854Y0105815D01*
X0091854Y0096025D02*
X0092084Y0096025D01*
X0096863Y0076446D02*
X0086025Y0076446D01*
X0086544Y0075048D02*
X0096863Y0075048D01*
X0096863Y0073649D02*
X0086427Y0073649D01*
X0085561Y0072250D02*
X0096863Y0072250D01*
X0096863Y0070852D02*
X0082612Y0070852D01*
X0081848Y0073133D02*
X0083294Y0074580D01*
X0081848Y0073133D02*
X0073123Y0073133D01*
X0068470Y0097424D02*
X0067945Y0097424D01*
X0068470Y0098822D02*
X0058525Y0098822D01*
X0050288Y0097074D02*
X0049194Y0095980D01*
X0047094Y0095980D01*
X0047139Y0095936D01*
X0047094Y0095980D02*
X0042894Y0095980D01*
X0047139Y0100764D02*
X0047139Y0105417D01*
X0047139Y0109324D01*
X0047139Y0108612D02*
X0047139Y0108612D01*
X0047139Y0107213D02*
X0047139Y0107213D01*
X0047139Y0105815D02*
X0047139Y0105815D01*
X0047139Y0105417D02*
X0047139Y0100764D01*
X0047139Y0101619D02*
X0047139Y0101619D01*
X0047139Y0103018D02*
X0047139Y0103018D01*
X0047139Y0104416D02*
X0047139Y0104416D01*
X0047139Y0105417D02*
X0047139Y0105417D01*
X0047888Y0098822D02*
X0037525Y0098822D01*
X0033494Y0093228D02*
X0032107Y0093228D01*
X0032107Y0091830D02*
X0033494Y0091830D01*
X0033494Y0090431D02*
X0032107Y0090431D01*
X0032107Y0089033D02*
X0033253Y0089033D01*
X0032937Y0094627D02*
X0032107Y0094627D01*
X0032107Y0096025D02*
X0032644Y0096025D01*
X0032975Y0097424D02*
X0032107Y0097424D01*
X0032107Y0082040D02*
X0039139Y0082040D01*
X0040127Y0069453D02*
X0037692Y0069453D01*
X0037744Y0068055D02*
X0041525Y0068055D01*
X0042924Y0066656D02*
X0037067Y0066656D01*
X0033308Y0060980D02*
X0034540Y0059747D01*
X0033308Y0060980D02*
X0023994Y0060980D01*
X0022113Y0058265D02*
X0021617Y0058265D01*
X0021617Y0056867D02*
X0023171Y0056867D01*
X0021793Y0055468D02*
X0021617Y0055468D01*
X0021617Y0052671D02*
X0021719Y0052671D01*
X0021617Y0051273D02*
X0022805Y0051273D01*
X0022433Y0049874D02*
X0021617Y0049874D01*
X0021617Y0048476D02*
X0022433Y0048476D01*
X0022433Y0047077D02*
X0021617Y0047077D01*
X0021617Y0045679D02*
X0022433Y0045679D01*
X0022433Y0044280D02*
X0021617Y0044280D01*
X0021617Y0042882D02*
X0022483Y0042882D01*
X0022433Y0041483D02*
X0021617Y0041483D01*
X0021617Y0040085D02*
X0026506Y0040085D01*
X0026507Y0038686D02*
X0027666Y0038686D01*
X0027666Y0039336D02*
X0027666Y0035656D01*
X0030263Y0035656D01*
X0030695Y0035772D01*
X0031083Y0035996D01*
X0031399Y0036313D01*
X0031623Y0036700D01*
X0031739Y0037133D01*
X0031739Y0039336D01*
X0027666Y0039336D01*
X0027666Y0040085D02*
X0032752Y0040085D01*
X0032752Y0041483D02*
X0031739Y0041483D01*
X0031690Y0042882D02*
X0033201Y0042882D01*
X0032752Y0044280D02*
X0031739Y0044280D01*
X0031739Y0045679D02*
X0032752Y0045679D01*
X0031739Y0047077D02*
X0036825Y0047077D01*
X0036825Y0048476D02*
X0037984Y0048476D01*
X0037984Y0049874D02*
X0036825Y0049874D01*
X0040494Y0051273D02*
X0031125Y0051273D01*
X0031739Y0049874D02*
X0032906Y0049874D01*
X0032752Y0048476D02*
X0031739Y0048476D01*
X0029235Y0052671D02*
X0040624Y0052671D01*
X0041690Y0054070D02*
X0027999Y0054070D01*
X0027596Y0055468D02*
X0032478Y0055468D01*
X0031856Y0056867D02*
X0026218Y0056867D01*
X0025876Y0058265D02*
X0031856Y0058265D01*
X0032311Y0063859D02*
X0025536Y0063859D01*
X0024694Y0053980D02*
X0027086Y0051588D01*
X0027086Y0047396D01*
X0022433Y0038686D02*
X0021617Y0038686D01*
X0021617Y0037288D02*
X0022433Y0037288D01*
X0021617Y0035889D02*
X0023275Y0035889D01*
X0021617Y0034491D02*
X0059785Y0034491D01*
X0061159Y0033092D02*
X0021617Y0033092D01*
X0021617Y0031694D02*
X0026015Y0031694D01*
X0024901Y0030295D02*
X0021617Y0030295D01*
X0021617Y0028897D02*
X0024481Y0028897D01*
X0024481Y0027498D02*
X0021617Y0027498D01*
X0021617Y0026100D02*
X0024481Y0026100D01*
X0024481Y0024701D02*
X0021617Y0024701D01*
X0021617Y0023303D02*
X0024481Y0023303D01*
X0024895Y0021904D02*
X0021617Y0021904D01*
X0021617Y0020506D02*
X0026001Y0020506D01*
X0026507Y0035889D02*
X0027666Y0035889D01*
X0027666Y0037288D02*
X0026507Y0037288D01*
X0030898Y0035889D02*
X0032752Y0035889D01*
X0032752Y0037288D02*
X0031739Y0037288D01*
X0031739Y0038686D02*
X0032752Y0038686D01*
X0042058Y0035889D02*
X0043676Y0035889D01*
X0044322Y0065258D02*
X0032107Y0065258D01*
X0027454Y0073133D02*
X0023741Y0073133D01*
X0022594Y0074280D01*
X0022594Y0212880D01*
X0024694Y0214980D01*
X0054094Y0214980D01*
X0052551Y0212102D02*
X0025210Y0212102D01*
X0024994Y0210703D02*
X0096863Y0210703D01*
X0096863Y0209305D02*
X0024994Y0209305D01*
X0024994Y0207906D02*
X0096863Y0207906D01*
X0096863Y0206508D02*
X0024994Y0206508D01*
X0024994Y0205109D02*
X0096863Y0205109D01*
X0096863Y0203711D02*
X0024994Y0203711D01*
X0024994Y0202312D02*
X0096863Y0202312D01*
X0096863Y0200914D02*
X0024994Y0200914D01*
X0024994Y0199515D02*
X0096863Y0199515D01*
X0096863Y0198116D02*
X0024994Y0198116D01*
X0024994Y0196718D02*
X0096863Y0196718D01*
X0096863Y0195319D02*
X0024994Y0195319D01*
X0024994Y0193921D02*
X0096863Y0193921D01*
X0096863Y0192522D02*
X0024994Y0192522D01*
X0024994Y0191124D02*
X0096863Y0191124D01*
X0096863Y0189725D02*
X0024994Y0189725D01*
X0024994Y0188327D02*
X0096863Y0188327D01*
X0096863Y0186928D02*
X0024994Y0186928D01*
X0024994Y0185530D02*
X0096863Y0185530D01*
X0096863Y0184131D02*
X0024994Y0184131D01*
X0024994Y0182733D02*
X0096863Y0182733D01*
X0096863Y0181334D02*
X0024994Y0181334D01*
X0024994Y0179936D02*
X0096863Y0179936D01*
X0096863Y0178537D02*
X0024994Y0178537D01*
X0024994Y0177139D02*
X0096863Y0177139D01*
X0096863Y0175740D02*
X0024994Y0175740D01*
X0024994Y0174342D02*
X0096863Y0174342D01*
X0096863Y0172943D02*
X0093693Y0172943D01*
X0094815Y0171545D02*
X0096863Y0171545D01*
X0096863Y0170146D02*
X0094815Y0170146D01*
X0094815Y0168748D02*
X0096863Y0168748D01*
X0096863Y0136582D02*
X0094815Y0136582D01*
X0094815Y0135183D02*
X0096863Y0135183D01*
X0096863Y0133785D02*
X0094815Y0133785D01*
X0094350Y0120406D02*
X0091780Y0120406D01*
X0087054Y0115604D02*
X0078894Y0115604D01*
X0074094Y0110010D02*
X0067784Y0110010D01*
X0068721Y0108612D02*
X0073330Y0108612D01*
X0072580Y0107213D02*
X0068721Y0107213D01*
X0068721Y0105815D02*
X0072552Y0105815D01*
X0073262Y0104416D02*
X0068721Y0104416D01*
X0068721Y0103018D02*
X0075863Y0103018D01*
X0065009Y0115604D02*
X0062723Y0115604D01*
X0062723Y0117003D02*
X0064268Y0117003D01*
X0057801Y0131474D02*
X0057101Y0131474D01*
X0058770Y0139379D02*
X0058770Y0139379D01*
X0052471Y0152021D02*
X0052471Y0155933D01*
X0052471Y0152021D01*
X0052471Y0152021D01*
X0052471Y0153364D02*
X0052471Y0153364D01*
X0052471Y0154763D02*
X0052471Y0154763D01*
X0037810Y0136582D02*
X0037656Y0136582D01*
X0055638Y0212102D02*
X0096863Y0212102D01*
X0096863Y0213500D02*
X0056999Y0213500D01*
X0057344Y0214899D02*
X0096863Y0214899D01*
X0096863Y0216297D02*
X0057067Y0216297D01*
X0047458Y0231681D02*
X0021617Y0231681D01*
X0021617Y0233079D02*
X0046863Y0233079D01*
X0046863Y0234478D02*
X0021617Y0234478D01*
X0021617Y0235876D02*
X0046863Y0235876D01*
X0046863Y0237275D02*
X0021617Y0237275D01*
X0021617Y0238673D02*
X0046863Y0238673D01*
X0046863Y0240072D02*
X0021617Y0240072D01*
X0021617Y0241470D02*
X0046863Y0241470D01*
X0046863Y0242869D02*
X0021617Y0242869D01*
X0021617Y0244267D02*
X0046863Y0244267D01*
X0046863Y0245666D02*
X0021617Y0245666D01*
X0021617Y0247064D02*
X0046863Y0247064D01*
X0046863Y0248463D02*
X0021617Y0248463D01*
X0021617Y0249861D02*
X0046863Y0249861D01*
X0026094Y0219880D02*
X0069494Y0219880D01*
X0071906Y0217696D02*
X0096863Y0217696D01*
X0096863Y0219094D02*
X0072687Y0219094D01*
X0072744Y0220493D02*
X0096863Y0220493D01*
X0096863Y0221891D02*
X0072079Y0221891D01*
X0083268Y0231681D02*
X0096863Y0231681D01*
X0096863Y0233079D02*
X0083863Y0233079D01*
X0083863Y0234478D02*
X0096863Y0234478D01*
X0096863Y0235876D02*
X0083863Y0235876D01*
X0083863Y0237275D02*
X0096863Y0237275D01*
X0096863Y0238673D02*
X0083863Y0238673D01*
X0083863Y0240072D02*
X0096863Y0240072D01*
X0096863Y0241470D02*
X0083863Y0241470D01*
X0083863Y0242869D02*
X0096863Y0242869D01*
X0096863Y0244267D02*
X0083863Y0244267D01*
X0083863Y0245666D02*
X0096863Y0245666D01*
X0096863Y0247064D02*
X0083863Y0247064D01*
X0083863Y0248463D02*
X0096863Y0248463D01*
X0096863Y0249861D02*
X0083863Y0249861D01*
X0096863Y0230282D02*
X0021617Y0230282D01*
X0021617Y0228884D02*
X0096863Y0228884D01*
X0096863Y0227485D02*
X0021617Y0227485D01*
X0021617Y0226087D02*
X0096863Y0226087D01*
X0096863Y0224688D02*
X0021617Y0224688D01*
X0021617Y0223290D02*
X0096863Y0223290D01*
X0078294Y0133785D02*
X0077539Y0133785D01*
X0068559Y0031694D02*
X0068559Y0031694D01*
X0068559Y0030295D02*
X0068559Y0030295D01*
X0068559Y0028897D02*
X0068559Y0028897D01*
X0068559Y0027498D02*
X0068559Y0027498D01*
X0068559Y0026100D02*
X0068559Y0026100D01*
X0068559Y0026092D02*
X0068559Y0019637D01*
X0068559Y0026092D01*
X0068559Y0026092D01*
X0068559Y0024701D02*
X0068559Y0024701D01*
X0068559Y0023303D02*
X0068559Y0023303D01*
X0068559Y0021904D02*
X0068559Y0021904D01*
X0068559Y0020506D02*
X0068559Y0020506D01*
X0022617Y0216297D02*
X0021617Y0216297D01*
X0021617Y0217696D02*
X0023683Y0217696D01*
X0022902Y0219094D02*
X0021617Y0219094D01*
X0021617Y0220493D02*
X0022844Y0220493D01*
X0023509Y0221891D02*
X0021617Y0221891D01*
D24*
X0049894Y0163080D03*
X0042794Y0034380D03*
D25*
X0034494Y0068680D03*
X0037294Y0081980D03*
X0035894Y0095980D03*
X0028194Y0105080D03*
X0044294Y0113480D03*
X0046394Y0123980D03*
X0056894Y0095980D03*
X0059694Y0088980D03*
X0063894Y0081280D03*
X0070894Y0061680D03*
X0078594Y0052580D03*
X0089094Y0066580D03*
X0083294Y0074580D03*
X0075794Y0106480D03*
X0064594Y0112080D03*
X0061094Y0137280D03*
X0069494Y0160380D03*
X0075794Y0136580D03*
X0049894Y0070780D03*
X0024694Y0053980D03*
X0023994Y0060980D03*
X0054094Y0214980D03*
X0069494Y0219880D03*
X0026094Y0219880D03*
D26*
X0057801Y0131474D02*
X0057801Y0130649D01*
M02*
