%
M48
M72
T01C0.01200
T02C0.01300
T03C0.01450
T04C0.01500
T05C0.02756
T06C0.03200
T07C0.04000
%
T01
X111380Y54322
X99480Y65922
X88280Y66622
X137980Y56822
X136580Y47722
X144280Y72222
X145680Y78522
X33680Y72222
T02
X52880Y70853
X52780Y56453
T03
X69380Y50553
X51980Y40153
X75880Y69153
X162780Y63153
X175380Y76253
X176780Y30353
X162180Y26953
T04
X111280Y37722
X74980Y43522
X74780Y50022
X70780Y58422
X95980Y73622
X102980Y79222
X112080Y63122
X123980Y63122
X68680Y75022
X60980Y81322
X61680Y38622
X45580Y30922
X71304Y21209
X74980Y30222
T05
X26093Y20957
X26093Y25957
X26093Y30957
X26093Y35957
X26093Y40957
X26093Y45957
X26093Y50957
X26093Y55957
X26093Y60957
X26093Y65957
X26093Y70957
X26093Y75957
X26093Y80957
T06
X186281Y67971
X186281Y57971
X186400Y47486
X186400Y37486
T07
X120406Y25167
X110406Y25167
X100406Y25167
X100406Y15167
X110406Y15167
X120406Y15167
X157579Y81877
X167579Y81877
M30
