G75*
%MOIN*%
%OFA0B0*%
%FSLAX25Y25*%
%IPPOS*%
%LPD*%
%AMOC8*
5,1,8,0,0,1.08239X$1,22.5*
%
%ADD10C,0.00000*%
%ADD11R,0.23622X0.13780*%
%ADD12R,0.05118X0.05906*%
%ADD13R,0.05906X0.05118*%
%ADD14R,0.05512X0.06299*%
%ADD15R,0.01969X0.05906*%
%ADD16R,0.05906X0.01969*%
%ADD17OC8,0.06000*%
%ADD18R,0.04424X0.01969*%
%ADD19R,0.01969X0.04424*%
%ADD20C,0.04756*%
%ADD21C,0.06000*%
%ADD22R,0.07900X0.04300*%
%ADD23R,0.02756X0.04724*%
%ADD24OC8,0.06600*%
%ADD25C,0.05200*%
%ADD26C,0.01400*%
%ADD27C,0.02800*%
%ADD28C,0.02900*%
%ADD29C,0.01000*%
%ADD30C,0.03100*%
%ADD31C,0.01200*%
%ADD32C,0.01600*%
%ADD33C,0.03050*%
D10*
X0016880Y0007953D02*
X0016880Y0090630D01*
X0201919Y0090630D01*
X0201919Y0007953D01*
X0016880Y0007953D01*
D11*
X0053012Y0016800D03*
D12*
X0046602Y0050968D03*
X0039122Y0050968D03*
X0039114Y0061187D03*
X0046594Y0061187D03*
X0046594Y0072111D03*
X0039114Y0072111D03*
X0039915Y0082430D03*
X0047396Y0082430D03*
X0121104Y0069306D03*
X0128585Y0069306D03*
X0145261Y0034040D03*
X0152741Y0034040D03*
D13*
X0130649Y0051715D03*
X0118039Y0051052D03*
X0118039Y0058533D03*
X0130649Y0059196D03*
D14*
X0130793Y0040399D03*
X0119770Y0040399D03*
D15*
X0098330Y0036393D03*
X0095180Y0036393D03*
X0092031Y0036393D03*
X0088881Y0036393D03*
X0085732Y0036393D03*
X0082582Y0036393D03*
X0079432Y0036393D03*
X0076283Y0036393D03*
X0073133Y0036393D03*
X0069984Y0036393D03*
X0066834Y0036393D03*
X0066834Y0082062D03*
X0069984Y0082062D03*
X0073133Y0082062D03*
X0076283Y0082062D03*
X0079432Y0082062D03*
X0082582Y0082062D03*
X0085732Y0082062D03*
X0088881Y0082062D03*
X0092031Y0082062D03*
X0095180Y0082062D03*
X0098330Y0082062D03*
D16*
X0105417Y0074976D03*
X0105417Y0071826D03*
X0105417Y0068677D03*
X0105417Y0065527D03*
X0105417Y0062377D03*
X0105417Y0059228D03*
X0105417Y0056078D03*
X0105417Y0052929D03*
X0105417Y0049779D03*
X0105417Y0046629D03*
X0105417Y0043480D03*
X0059747Y0043480D03*
X0059747Y0046629D03*
X0059747Y0049779D03*
X0059747Y0052929D03*
X0059747Y0056078D03*
X0059747Y0059228D03*
X0059747Y0062377D03*
X0059747Y0065527D03*
X0059747Y0068677D03*
X0059747Y0071826D03*
X0059747Y0074976D03*
D17*
X0100406Y0025167D03*
X0110406Y0025167D03*
X0120406Y0025167D03*
X0120406Y0015167D03*
X0110406Y0015167D03*
X0100406Y0015167D03*
D18*
X0143060Y0044447D03*
X0143060Y0047596D03*
X0143060Y0050746D03*
X0143060Y0053895D03*
X0143060Y0057045D03*
X0143060Y0060195D03*
X0152021Y0060195D03*
X0152021Y0057045D03*
X0152021Y0053895D03*
X0152021Y0050746D03*
X0152021Y0047596D03*
X0151991Y0044447D03*
D19*
X0147540Y0044053D03*
X0147540Y0060588D03*
D20*
X0028471Y0060957D02*
X0023715Y0060957D01*
X0023715Y0055957D02*
X0028471Y0055957D01*
X0028471Y0050957D02*
X0023715Y0050957D01*
X0023715Y0045957D02*
X0028471Y0045957D01*
X0028471Y0040957D02*
X0023715Y0040957D01*
X0023715Y0035957D02*
X0028471Y0035957D01*
X0028471Y0030957D02*
X0023715Y0030957D01*
X0023715Y0025957D02*
X0028471Y0025957D01*
X0028471Y0020957D02*
X0023715Y0020957D01*
X0023715Y0065957D02*
X0028471Y0065957D01*
X0028471Y0070957D02*
X0023715Y0070957D01*
X0023715Y0075957D02*
X0028471Y0075957D01*
X0028471Y0080957D02*
X0023715Y0080957D01*
D21*
X0157579Y0078877D02*
X0157579Y0084877D01*
X0167579Y0084877D02*
X0167579Y0078877D01*
D22*
X0167388Y0018551D03*
X0131988Y0018551D03*
D23*
X0168080Y0031470D03*
X0168080Y0046037D03*
X0168289Y0055627D03*
X0168289Y0070193D03*
D24*
X0186400Y0047486D03*
X0186400Y0037486D03*
D25*
X0188881Y0057971D02*
X0183681Y0057971D01*
X0183681Y0067971D02*
X0188881Y0067971D01*
D26*
X0193181Y0068089D02*
X0197219Y0068089D01*
X0197219Y0069488D02*
X0192907Y0069488D01*
X0193181Y0068827D02*
X0192526Y0070407D01*
X0191317Y0071617D01*
X0189736Y0072271D01*
X0182825Y0072271D01*
X0181245Y0071617D01*
X0180035Y0070407D01*
X0179381Y0068827D01*
X0179381Y0067116D01*
X0180028Y0065553D01*
X0164941Y0065553D01*
X0164607Y0065887D01*
X0163422Y0066378D01*
X0162139Y0066378D01*
X0161091Y0065944D01*
X0161091Y0070188D01*
X0160726Y0071070D01*
X0160051Y0071745D01*
X0160050Y0071745D01*
X0159979Y0071817D01*
X0159979Y0074784D01*
X0160242Y0074892D01*
X0161564Y0076215D01*
X0162279Y0077942D01*
X0162279Y0085812D01*
X0162230Y0085930D01*
X0162988Y0085930D01*
X0162879Y0085247D01*
X0162879Y0082177D01*
X0167279Y0082177D01*
X0167279Y0081577D01*
X0162879Y0081577D01*
X0162879Y0078507D01*
X0162995Y0077776D01*
X0163224Y0077073D01*
X0163559Y0076414D01*
X0163994Y0075815D01*
X0164517Y0075292D01*
X0165116Y0074857D01*
X0165775Y0074521D01*
X0166479Y0074293D01*
X0166712Y0074256D01*
X0166207Y0074256D01*
X0165212Y0073260D01*
X0165212Y0067127D01*
X0166207Y0066131D01*
X0170372Y0066131D01*
X0171367Y0067127D01*
X0171367Y0068847D01*
X0175549Y0073028D01*
X0176022Y0073028D01*
X0177207Y0073519D01*
X0178114Y0074426D01*
X0178605Y0075612D01*
X0178605Y0076895D01*
X0178114Y0078080D01*
X0177207Y0078987D01*
X0176022Y0079478D01*
X0174739Y0079478D01*
X0173553Y0078987D01*
X0172646Y0078080D01*
X0172155Y0076895D01*
X0172155Y0076422D01*
X0169988Y0074256D01*
X0168446Y0074256D01*
X0168680Y0074293D01*
X0169383Y0074521D01*
X0170043Y0074857D01*
X0170641Y0075292D01*
X0171164Y0075815D01*
X0171599Y0076414D01*
X0171935Y0077073D01*
X0172163Y0077776D01*
X0172279Y0078507D01*
X0172279Y0081577D01*
X0167879Y0081577D01*
X0167879Y0082177D01*
X0172279Y0082177D01*
X0172279Y0085247D01*
X0172171Y0085930D01*
X0197219Y0085930D01*
X0197219Y0012653D01*
X0124539Y0012653D01*
X0125106Y0013220D01*
X0125106Y0017113D01*
X0122353Y0019867D01*
X0119100Y0019867D01*
X0118500Y0020467D01*
X0122353Y0020467D01*
X0125106Y0023220D01*
X0125106Y0027113D01*
X0122353Y0029867D01*
X0118459Y0029867D01*
X0115706Y0027113D01*
X0115706Y0023220D01*
X0116741Y0022185D01*
X0115928Y0022522D01*
X0114408Y0022522D01*
X0115106Y0023220D01*
X0115106Y0027113D01*
X0112353Y0029867D01*
X0108459Y0029867D01*
X0105744Y0027151D01*
X0106080Y0027963D01*
X0106080Y0033459D01*
X0107974Y0035353D01*
X0109052Y0035353D01*
X0109439Y0034967D01*
X0110634Y0034472D01*
X0111136Y0034472D01*
X0114621Y0030987D01*
X0115503Y0030622D01*
X0125086Y0030622D01*
X0129588Y0026120D01*
X0129588Y0022401D01*
X0127334Y0022401D01*
X0126338Y0021405D01*
X0126338Y0015697D01*
X0127334Y0014701D01*
X0136642Y0014701D01*
X0137638Y0015697D01*
X0137638Y0021405D01*
X0136642Y0022401D01*
X0134388Y0022401D01*
X0134388Y0026120D01*
X0134690Y0026422D01*
X0151057Y0026422D01*
X0151940Y0026787D01*
X0152615Y0027462D01*
X0152615Y0027462D01*
X0154540Y0029388D01*
X0156004Y0029388D01*
X0157000Y0030384D01*
X0157000Y0036922D01*
X0157357Y0036922D01*
X0158240Y0037287D01*
X0159780Y0038828D01*
X0159780Y0029114D01*
X0159446Y0028780D01*
X0158955Y0027595D01*
X0158955Y0026312D01*
X0159446Y0025126D01*
X0160353Y0024219D01*
X0161539Y0023728D01*
X0162822Y0023728D01*
X0164007Y0024219D01*
X0164914Y0025126D01*
X0165405Y0026312D01*
X0165405Y0027595D01*
X0165118Y0028287D01*
X0165998Y0027408D01*
X0170162Y0027408D01*
X0171158Y0028403D01*
X0171158Y0029070D01*
X0173821Y0029070D01*
X0174046Y0028526D01*
X0174953Y0027619D01*
X0176139Y0027128D01*
X0177422Y0027128D01*
X0178607Y0027619D01*
X0179514Y0028526D01*
X0180005Y0029712D01*
X0180005Y0030995D01*
X0179514Y0032180D01*
X0178607Y0033087D01*
X0177422Y0033578D01*
X0176845Y0033578D01*
X0176141Y0033870D01*
X0171158Y0033870D01*
X0171158Y0034536D01*
X0170162Y0035532D01*
X0165998Y0035532D01*
X0165002Y0034536D01*
X0165002Y0028568D01*
X0164914Y0028780D01*
X0164580Y0029114D01*
X0164580Y0053153D01*
X0165212Y0053153D01*
X0165212Y0052560D01*
X0166207Y0051564D01*
X0170372Y0051564D01*
X0171367Y0052560D01*
X0171367Y0058693D01*
X0170372Y0059689D01*
X0166207Y0059689D01*
X0165212Y0058693D01*
X0165212Y0057953D01*
X0163103Y0057953D01*
X0162221Y0057588D01*
X0161545Y0056913D01*
X0161091Y0056458D01*
X0161091Y0060362D01*
X0162139Y0059928D01*
X0163422Y0059928D01*
X0164607Y0060419D01*
X0164941Y0060753D01*
X0180105Y0060753D01*
X0180243Y0060615D01*
X0180035Y0060407D01*
X0179381Y0058827D01*
X0179381Y0057116D01*
X0180035Y0055536D01*
X0181245Y0054326D01*
X0182825Y0053671D01*
X0189736Y0053671D01*
X0191317Y0054326D01*
X0192526Y0055536D01*
X0193181Y0057116D01*
X0193181Y0058827D01*
X0192526Y0060407D01*
X0191317Y0061617D01*
X0189736Y0062271D01*
X0185375Y0062271D01*
X0183975Y0063671D01*
X0189736Y0063671D01*
X0191317Y0064326D01*
X0192526Y0065536D01*
X0193181Y0067116D01*
X0193181Y0068827D01*
X0193005Y0066691D02*
X0197219Y0066691D01*
X0197219Y0065292D02*
X0192283Y0065292D01*
X0190273Y0063894D02*
X0197219Y0063894D01*
X0197219Y0062495D02*
X0185151Y0062495D01*
X0181099Y0063153D02*
X0186281Y0057971D01*
X0190781Y0054104D02*
X0197219Y0054104D01*
X0197219Y0052706D02*
X0171367Y0052706D01*
X0171367Y0054104D02*
X0181781Y0054104D01*
X0180068Y0055503D02*
X0171367Y0055503D01*
X0171367Y0056901D02*
X0179470Y0056901D01*
X0179381Y0058300D02*
X0171367Y0058300D01*
X0168289Y0055627D02*
X0168216Y0055553D01*
X0163580Y0055553D01*
X0162180Y0054153D01*
X0162180Y0026953D01*
X0159029Y0026134D02*
X0134402Y0026134D01*
X0134388Y0024735D02*
X0159837Y0024735D01*
X0162394Y0022061D02*
X0162078Y0021745D01*
X0161854Y0021357D01*
X0161738Y0020925D01*
X0161738Y0018926D01*
X0167013Y0018926D01*
X0167013Y0022401D01*
X0163214Y0022401D01*
X0162782Y0022285D01*
X0162394Y0022061D01*
X0162271Y0021938D02*
X0137105Y0021938D01*
X0134388Y0023337D02*
X0197219Y0023337D01*
X0197219Y0024735D02*
X0164523Y0024735D01*
X0165331Y0026134D02*
X0197219Y0026134D01*
X0197219Y0027532D02*
X0178397Y0027532D01*
X0179682Y0028931D02*
X0197219Y0028931D01*
X0197219Y0030329D02*
X0180005Y0030329D01*
X0179701Y0031728D02*
X0197219Y0031728D01*
X0197219Y0033126D02*
X0189111Y0033126D01*
X0188471Y0032486D02*
X0191400Y0035415D01*
X0191400Y0039557D01*
X0188471Y0042486D01*
X0184329Y0042486D01*
X0182785Y0040943D01*
X0176315Y0047413D01*
X0175640Y0048088D01*
X0174757Y0048453D01*
X0171158Y0048453D01*
X0171158Y0049103D01*
X0170162Y0050099D01*
X0165998Y0050099D01*
X0165002Y0049103D01*
X0165002Y0042970D01*
X0165998Y0041975D01*
X0170162Y0041975D01*
X0171158Y0042970D01*
X0171158Y0043653D01*
X0173286Y0043653D01*
X0181400Y0035539D01*
X0181400Y0035415D01*
X0184329Y0032486D01*
X0188471Y0032486D01*
X0190509Y0034525D02*
X0197219Y0034525D01*
X0197219Y0035923D02*
X0191400Y0035923D01*
X0191400Y0037322D02*
X0197219Y0037322D01*
X0197219Y0038721D02*
X0191400Y0038721D01*
X0190838Y0040119D02*
X0197219Y0040119D01*
X0197219Y0041518D02*
X0189440Y0041518D01*
X0188471Y0042486D02*
X0191400Y0045415D01*
X0191400Y0049557D01*
X0188471Y0052486D01*
X0184329Y0052486D01*
X0181400Y0049557D01*
X0181400Y0045415D01*
X0184329Y0042486D01*
X0188471Y0042486D01*
X0188900Y0042916D02*
X0197219Y0042916D01*
X0197219Y0044315D02*
X0190299Y0044315D01*
X0191400Y0045713D02*
X0197219Y0045713D01*
X0197219Y0047112D02*
X0191400Y0047112D01*
X0191400Y0048510D02*
X0197219Y0048510D01*
X0197219Y0049909D02*
X0191048Y0049909D01*
X0189650Y0051307D02*
X0197219Y0051307D01*
X0197219Y0055503D02*
X0192493Y0055503D01*
X0193092Y0056901D02*
X0197219Y0056901D01*
X0197219Y0058300D02*
X0193181Y0058300D01*
X0192820Y0059698D02*
X0197219Y0059698D01*
X0197219Y0061097D02*
X0191837Y0061097D01*
X0181099Y0063153D02*
X0162780Y0063153D01*
X0161091Y0059698D02*
X0179742Y0059698D01*
X0179557Y0066691D02*
X0170931Y0066691D01*
X0171367Y0068089D02*
X0179381Y0068089D01*
X0179655Y0069488D02*
X0172009Y0069488D01*
X0173407Y0070886D02*
X0180515Y0070886D01*
X0177371Y0073683D02*
X0197219Y0073683D01*
X0197219Y0072285D02*
X0174806Y0072285D01*
X0175380Y0076253D02*
X0169320Y0070193D01*
X0168289Y0070193D01*
X0165212Y0070886D02*
X0160802Y0070886D01*
X0161091Y0069488D02*
X0165212Y0069488D01*
X0165212Y0068089D02*
X0161091Y0068089D01*
X0161091Y0066691D02*
X0165648Y0066691D01*
X0158691Y0069711D02*
X0157579Y0070823D01*
X0157579Y0081877D01*
X0155326Y0084130D01*
X0152879Y0081553D02*
X0152879Y0077942D01*
X0153595Y0076215D01*
X0154917Y0074892D01*
X0155179Y0074784D01*
X0155179Y0070345D01*
X0155545Y0069463D01*
X0156291Y0068717D01*
X0156291Y0042127D01*
X0155886Y0041722D01*
X0150225Y0041722D01*
X0150225Y0041762D01*
X0154908Y0041762D01*
X0155903Y0042758D01*
X0155903Y0045878D01*
X0155933Y0045908D01*
X0155933Y0055584D01*
X0155880Y0055637D01*
X0155933Y0055837D01*
X0155933Y0057045D01*
X0152021Y0057045D01*
X0155933Y0057045D01*
X0155933Y0058253D01*
X0155880Y0058453D01*
X0155933Y0058506D01*
X0155933Y0061883D01*
X0154938Y0062879D01*
X0154380Y0062879D01*
X0154380Y0065699D01*
X0154015Y0066581D01*
X0153340Y0067256D01*
X0153339Y0067256D01*
X0149255Y0071341D01*
X0148373Y0071706D01*
X0132844Y0071706D01*
X0132844Y0072963D01*
X0131848Y0073959D01*
X0130985Y0073959D01*
X0130985Y0075094D01*
X0130619Y0075977D01*
X0129874Y0076722D01*
X0136351Y0076722D01*
X0137346Y0076722D01*
X0138265Y0077102D01*
X0142716Y0081553D01*
X0152879Y0081553D01*
X0152879Y0080676D02*
X0141838Y0080676D01*
X0140440Y0079277D02*
X0152879Y0079277D01*
X0152905Y0077879D02*
X0139041Y0077879D01*
X0132123Y0073683D02*
X0155179Y0073683D01*
X0155179Y0072285D02*
X0132844Y0072285D01*
X0130985Y0075082D02*
X0154727Y0075082D01*
X0153485Y0076480D02*
X0130116Y0076480D01*
X0128585Y0074617D02*
X0127480Y0075722D01*
X0117680Y0075722D01*
X0110635Y0068677D01*
X0105417Y0068677D01*
X0105417Y0065527D02*
X0109675Y0065527D01*
X0112080Y0063122D01*
X0110069Y0060536D02*
X0110239Y0060367D01*
X0111434Y0059872D01*
X0112726Y0059872D01*
X0113386Y0060145D01*
X0113386Y0055270D01*
X0113863Y0054793D01*
X0113726Y0054655D01*
X0113502Y0054268D01*
X0113386Y0053835D01*
X0113386Y0051632D01*
X0117459Y0051632D01*
X0117459Y0050473D01*
X0113386Y0050473D01*
X0113386Y0048270D01*
X0113502Y0047837D01*
X0113726Y0047450D01*
X0114042Y0047133D01*
X0114430Y0046909D01*
X0114862Y0046793D01*
X0117460Y0046793D01*
X0117460Y0050473D01*
X0118619Y0050473D01*
X0118619Y0051632D01*
X0122692Y0051632D01*
X0122692Y0053316D01*
X0125445Y0050562D01*
X0125997Y0050011D01*
X0125997Y0048452D01*
X0126992Y0047456D01*
X0128393Y0047456D01*
X0128393Y0045249D01*
X0127333Y0045249D01*
X0126337Y0044253D01*
X0126337Y0036545D01*
X0127333Y0035549D01*
X0134253Y0035549D01*
X0135249Y0036545D01*
X0135249Y0037999D01*
X0135335Y0037999D01*
X0136217Y0038364D01*
X0136892Y0039039D01*
X0139879Y0042027D01*
X0140143Y0041762D01*
X0142712Y0041762D01*
X0142976Y0041653D01*
X0144856Y0041653D01*
X0144856Y0041192D01*
X0144345Y0040681D01*
X0143226Y0039562D01*
X0142866Y0038693D01*
X0141998Y0038693D01*
X0141002Y0037697D01*
X0141002Y0031222D01*
X0133219Y0031222D01*
X0132336Y0030856D01*
X0131988Y0030508D01*
X0127440Y0035056D01*
X0126557Y0035422D01*
X0116974Y0035422D01*
X0116847Y0035549D01*
X0119092Y0035549D01*
X0119092Y0039721D01*
X0120448Y0039721D01*
X0120448Y0041077D01*
X0124226Y0041077D01*
X0124226Y0043772D01*
X0124110Y0044205D01*
X0123886Y0044592D01*
X0123570Y0044909D01*
X0123182Y0045133D01*
X0122749Y0045249D01*
X0120448Y0045249D01*
X0120448Y0041077D01*
X0119092Y0041077D01*
X0119092Y0045249D01*
X0116790Y0045249D01*
X0116358Y0045133D01*
X0115970Y0044909D01*
X0115654Y0044592D01*
X0115430Y0044205D01*
X0115314Y0043772D01*
X0115314Y0041077D01*
X0119092Y0041077D01*
X0119092Y0039721D01*
X0115314Y0039721D01*
X0115314Y0037082D01*
X0114530Y0037866D01*
X0114530Y0038368D01*
X0114035Y0039563D01*
X0113121Y0040477D01*
X0111926Y0040972D01*
X0110634Y0040972D01*
X0109439Y0040477D01*
X0109115Y0040153D01*
X0106503Y0040153D01*
X0105621Y0039788D01*
X0104945Y0039113D01*
X0101645Y0035813D01*
X0101280Y0034931D01*
X0101280Y0029867D01*
X0098459Y0029867D01*
X0097469Y0028877D01*
X0097580Y0029145D01*
X0097580Y0031740D01*
X0100018Y0031740D01*
X0101014Y0032736D01*
X0101014Y0040050D01*
X0100018Y0041046D01*
X0084043Y0041046D01*
X0083990Y0040992D01*
X0083790Y0041046D01*
X0082582Y0041046D01*
X0081832Y0041046D01*
X0081832Y0058136D01*
X0083674Y0059977D01*
X0093580Y0059977D01*
X0093580Y0059844D01*
X0093945Y0058962D01*
X0095039Y0057868D01*
X0095715Y0057193D01*
X0096597Y0056828D01*
X0100764Y0056828D01*
X0100764Y0041791D01*
X0101760Y0040795D01*
X0109074Y0040795D01*
X0110069Y0041791D01*
X0110069Y0060536D01*
X0110069Y0059698D02*
X0113386Y0059698D01*
X0113386Y0058300D02*
X0110069Y0058300D01*
X0110069Y0056901D02*
X0113386Y0056901D01*
X0113386Y0055503D02*
X0110069Y0055503D01*
X0110069Y0054104D02*
X0113458Y0054104D01*
X0113386Y0052706D02*
X0110069Y0052706D01*
X0110069Y0051307D02*
X0117459Y0051307D01*
X0118619Y0051307D02*
X0124701Y0051307D01*
X0125997Y0049909D02*
X0122692Y0049909D01*
X0122692Y0050473D02*
X0122692Y0048270D01*
X0122576Y0047837D01*
X0122352Y0047450D01*
X0122036Y0047133D01*
X0121648Y0046909D01*
X0121216Y0046793D01*
X0118619Y0046793D01*
X0118619Y0050473D01*
X0122692Y0050473D01*
X0122692Y0048510D02*
X0125997Y0048510D01*
X0128393Y0047112D02*
X0121998Y0047112D01*
X0118619Y0047112D02*
X0117460Y0047112D01*
X0117460Y0048510D02*
X0118619Y0048510D01*
X0118619Y0049909D02*
X0117460Y0049909D01*
X0113386Y0049909D02*
X0110069Y0049909D01*
X0110069Y0048510D02*
X0113386Y0048510D01*
X0114080Y0047112D02*
X0110069Y0047112D01*
X0110069Y0045713D02*
X0128393Y0045713D01*
X0126399Y0044315D02*
X0124046Y0044315D01*
X0124226Y0042916D02*
X0126337Y0042916D01*
X0126337Y0041518D02*
X0124226Y0041518D01*
X0124226Y0039721D02*
X0120448Y0039721D01*
X0120448Y0035549D01*
X0122749Y0035549D01*
X0123182Y0035665D01*
X0123570Y0035889D01*
X0123886Y0036206D01*
X0124110Y0036593D01*
X0124226Y0037026D01*
X0124226Y0039721D01*
X0124226Y0038721D02*
X0126337Y0038721D01*
X0126337Y0040119D02*
X0120448Y0040119D01*
X0119092Y0040119D02*
X0113479Y0040119D01*
X0114384Y0038721D02*
X0115314Y0038721D01*
X0115314Y0037322D02*
X0115074Y0037322D01*
X0111280Y0037722D02*
X0111249Y0037753D01*
X0106980Y0037753D01*
X0103680Y0034453D01*
X0103680Y0028441D01*
X0100406Y0025167D01*
X0105902Y0027532D02*
X0106125Y0027532D01*
X0106080Y0028931D02*
X0107524Y0028931D01*
X0106080Y0030329D02*
X0125378Y0030329D01*
X0126777Y0028931D02*
X0123288Y0028931D01*
X0124687Y0027532D02*
X0128175Y0027532D01*
X0131988Y0027114D02*
X0133696Y0028822D01*
X0150580Y0028822D01*
X0152741Y0030983D01*
X0152741Y0034040D01*
X0157000Y0034525D02*
X0159780Y0034525D01*
X0159780Y0035923D02*
X0157000Y0035923D01*
X0158274Y0037322D02*
X0159780Y0037322D01*
X0159780Y0038721D02*
X0159673Y0038721D01*
X0158691Y0041133D02*
X0156880Y0039322D01*
X0146380Y0039322D01*
X0147540Y0040482D01*
X0147540Y0044053D01*
X0143453Y0044053D01*
X0143060Y0044447D01*
X0138905Y0044447D01*
X0134857Y0040399D01*
X0130793Y0040399D01*
X0130793Y0051571D01*
X0130649Y0051715D01*
X0130443Y0051922D01*
X0127480Y0051922D01*
X0120869Y0058533D01*
X0118039Y0058533D01*
X0118039Y0066241D01*
X0121104Y0069306D01*
X0128585Y0069306D02*
X0128585Y0074617D01*
X0128180Y0079222D02*
X0102980Y0079222D01*
X0100853Y0076753D02*
X0100764Y0076664D01*
X0100764Y0063839D01*
X0100817Y0063785D01*
X0100764Y0063585D01*
X0100764Y0062377D01*
X0100764Y0061628D01*
X0098380Y0061628D01*
X0098380Y0071426D01*
X0098735Y0071781D01*
X0099230Y0072975D01*
X0099230Y0074268D01*
X0098735Y0075463D01*
X0097821Y0076377D01*
X0096626Y0076872D01*
X0095334Y0076872D01*
X0094139Y0076377D01*
X0093784Y0076022D01*
X0089274Y0076022D01*
X0088132Y0077164D01*
X0088132Y0077410D01*
X0100018Y0077410D01*
X0100156Y0077547D01*
X0100225Y0077381D01*
X0100853Y0076753D01*
X0100764Y0076480D02*
X0097571Y0076480D01*
X0098893Y0075082D02*
X0100764Y0075082D01*
X0100764Y0073683D02*
X0099230Y0073683D01*
X0098944Y0072285D02*
X0100764Y0072285D01*
X0100764Y0070886D02*
X0098380Y0070886D01*
X0098380Y0069488D02*
X0100764Y0069488D01*
X0100764Y0068089D02*
X0098380Y0068089D01*
X0098380Y0066691D02*
X0100764Y0066691D01*
X0100764Y0065292D02*
X0098380Y0065292D01*
X0098380Y0063894D02*
X0100764Y0063894D01*
X0100764Y0062495D02*
X0098380Y0062495D01*
X0100764Y0062377D02*
X0105417Y0062377D01*
X0100764Y0062377D01*
X0095980Y0062422D02*
X0095980Y0060322D01*
X0097074Y0059228D01*
X0105417Y0059228D01*
X0105417Y0062377D02*
X0105417Y0062377D01*
X0095980Y0062422D02*
X0095936Y0062377D01*
X0082680Y0062377D01*
X0079432Y0059130D01*
X0079432Y0036393D01*
X0076380Y0036490D02*
X0076283Y0036393D01*
X0076283Y0042219D01*
X0074980Y0043522D01*
X0069984Y0045225D02*
X0074780Y0050022D01*
X0069380Y0050553D02*
X0065456Y0046629D01*
X0059747Y0046629D01*
X0059747Y0043480D02*
X0055306Y0043480D01*
X0051980Y0040153D01*
X0049980Y0044153D02*
X0043980Y0044153D01*
X0038380Y0038553D01*
X0038380Y0026522D01*
X0032815Y0020957D01*
X0026093Y0020957D01*
X0031738Y0023457D02*
X0031829Y0023365D01*
X0035980Y0027516D01*
X0035980Y0039031D01*
X0036345Y0039913D01*
X0037021Y0040588D01*
X0042621Y0046188D01*
X0043312Y0046474D01*
X0042999Y0046655D01*
X0042862Y0046792D01*
X0042385Y0046315D01*
X0037863Y0046315D01*
X0035471Y0043923D01*
X0034588Y0043557D01*
X0031838Y0043557D01*
X0031713Y0043432D01*
X0031958Y0043095D01*
X0032250Y0042523D01*
X0032448Y0041912D01*
X0032549Y0041278D01*
X0032549Y0040957D01*
X0026093Y0040957D01*
X0026093Y0040957D01*
X0032549Y0040957D01*
X0032549Y0040636D01*
X0032448Y0040002D01*
X0032250Y0039392D01*
X0031958Y0038820D01*
X0031713Y0038482D01*
X0031928Y0038267D01*
X0032549Y0036768D01*
X0032549Y0035146D01*
X0031928Y0033647D01*
X0031738Y0033457D01*
X0031928Y0033267D01*
X0032549Y0031768D01*
X0032549Y0030146D01*
X0031928Y0028647D01*
X0031738Y0028457D01*
X0031928Y0028267D01*
X0032549Y0026768D01*
X0032549Y0025146D01*
X0031928Y0023647D01*
X0031738Y0023457D01*
X0032378Y0024735D02*
X0033200Y0024735D01*
X0032549Y0026134D02*
X0034598Y0026134D01*
X0035980Y0027532D02*
X0032232Y0027532D01*
X0032045Y0028931D02*
X0035980Y0028931D01*
X0035980Y0030329D02*
X0032549Y0030329D01*
X0032549Y0031728D02*
X0035980Y0031728D01*
X0035980Y0033126D02*
X0031986Y0033126D01*
X0032291Y0034525D02*
X0035980Y0034525D01*
X0035980Y0035923D02*
X0032549Y0035923D01*
X0032319Y0037322D02*
X0035980Y0037322D01*
X0035980Y0038721D02*
X0031886Y0038721D01*
X0032467Y0040119D02*
X0036552Y0040119D01*
X0037950Y0041518D02*
X0032511Y0041518D01*
X0032049Y0042916D02*
X0039349Y0042916D01*
X0040747Y0044315D02*
X0035863Y0044315D01*
X0037261Y0045713D02*
X0042146Y0045713D01*
X0039122Y0050968D02*
X0034111Y0045957D01*
X0026093Y0045957D01*
X0031738Y0048457D02*
X0031928Y0048647D01*
X0032549Y0050146D01*
X0032549Y0051768D01*
X0031928Y0053267D01*
X0031738Y0053457D01*
X0031928Y0053647D01*
X0032549Y0055146D01*
X0032549Y0056768D01*
X0031928Y0058267D01*
X0031738Y0058457D01*
X0031928Y0058647D01*
X0032549Y0060146D01*
X0032549Y0061768D01*
X0031928Y0063267D01*
X0031738Y0063457D01*
X0031928Y0063647D01*
X0032549Y0065146D01*
X0032549Y0066768D01*
X0031928Y0068267D01*
X0031738Y0068457D01*
X0031928Y0068647D01*
X0032549Y0070146D01*
X0032549Y0071768D01*
X0031928Y0073267D01*
X0031738Y0073457D01*
X0031928Y0073647D01*
X0032549Y0075146D01*
X0032549Y0076768D01*
X0031928Y0078267D01*
X0031738Y0078457D01*
X0031928Y0078647D01*
X0032549Y0080146D01*
X0032549Y0081768D01*
X0031928Y0083267D01*
X0030781Y0084414D01*
X0029282Y0085035D01*
X0022904Y0085035D01*
X0021580Y0084487D01*
X0021580Y0085930D01*
X0035743Y0085930D01*
X0035656Y0085607D01*
X0035656Y0083010D01*
X0039336Y0083010D01*
X0039336Y0081851D01*
X0035656Y0081851D01*
X0035656Y0079253D01*
X0035772Y0078821D01*
X0035996Y0078433D01*
X0036313Y0078117D01*
X0036700Y0077893D01*
X0037133Y0077777D01*
X0039336Y0077777D01*
X0039336Y0081850D01*
X0040495Y0081850D01*
X0040495Y0077777D01*
X0042698Y0077777D01*
X0043131Y0077893D01*
X0043518Y0078117D01*
X0043656Y0078254D01*
X0044133Y0077777D01*
X0050659Y0077777D01*
X0051655Y0078773D01*
X0051655Y0080030D01*
X0057997Y0080030D01*
X0058225Y0079481D01*
X0059139Y0078567D01*
X0060334Y0078072D01*
X0061626Y0078072D01*
X0062821Y0078567D01*
X0063735Y0079481D01*
X0064150Y0080482D01*
X0064150Y0078405D01*
X0065146Y0077410D01*
X0066472Y0077410D01*
X0065925Y0076863D01*
X0065430Y0075668D01*
X0065430Y0074375D01*
X0065925Y0073181D01*
X0066839Y0072267D01*
X0068034Y0071772D01*
X0069326Y0071772D01*
X0070521Y0072267D01*
X0070876Y0072622D01*
X0078957Y0072622D01*
X0079840Y0072987D01*
X0080792Y0073940D01*
X0081467Y0074615D01*
X0081832Y0075497D01*
X0081832Y0077410D01*
X0082582Y0077410D01*
X0083332Y0077410D01*
X0083332Y0075693D01*
X0083697Y0074811D01*
X0084372Y0074136D01*
X0086921Y0071587D01*
X0087803Y0071222D01*
X0093580Y0071222D01*
X0093580Y0064777D01*
X0074898Y0064777D01*
X0076049Y0065928D01*
X0076522Y0065928D01*
X0077707Y0066419D01*
X0078614Y0067326D01*
X0079105Y0068512D01*
X0079105Y0069795D01*
X0078614Y0070980D01*
X0077707Y0071887D01*
X0076522Y0072378D01*
X0075239Y0072378D01*
X0074053Y0071887D01*
X0073146Y0070980D01*
X0072655Y0069795D01*
X0072655Y0069322D01*
X0071260Y0067927D01*
X0064400Y0067927D01*
X0064400Y0076664D01*
X0063404Y0077660D01*
X0056090Y0077660D01*
X0055095Y0076664D01*
X0055095Y0066801D01*
X0053915Y0067981D01*
X0053240Y0068656D01*
X0052357Y0069022D01*
X0050853Y0069022D01*
X0050853Y0071532D01*
X0047174Y0071532D01*
X0047174Y0072691D01*
X0050853Y0072691D01*
X0050853Y0075288D01*
X0050737Y0075720D01*
X0050513Y0076108D01*
X0050197Y0076424D01*
X0049809Y0076648D01*
X0049377Y0076764D01*
X0047173Y0076764D01*
X0047173Y0072691D01*
X0046014Y0072691D01*
X0046014Y0076764D01*
X0043811Y0076764D01*
X0043379Y0076648D01*
X0042991Y0076424D01*
X0042854Y0076287D01*
X0042377Y0076764D01*
X0035850Y0076764D01*
X0034855Y0075768D01*
X0034855Y0068454D01*
X0035850Y0067459D01*
X0036714Y0067459D01*
X0036714Y0065840D01*
X0035850Y0065840D01*
X0034855Y0064844D01*
X0034855Y0057530D01*
X0035850Y0056534D01*
X0036722Y0056534D01*
X0036722Y0055621D01*
X0035859Y0055621D01*
X0034863Y0054625D01*
X0034863Y0050103D01*
X0033117Y0048357D01*
X0031838Y0048357D01*
X0031738Y0048457D01*
X0031791Y0048510D02*
X0033270Y0048510D01*
X0032450Y0049909D02*
X0034668Y0049909D01*
X0034863Y0051307D02*
X0032549Y0051307D01*
X0032160Y0052706D02*
X0034863Y0052706D01*
X0034863Y0054104D02*
X0032117Y0054104D01*
X0032549Y0055503D02*
X0035741Y0055503D01*
X0035484Y0056901D02*
X0032494Y0056901D01*
X0031895Y0058300D02*
X0034855Y0058300D01*
X0034855Y0059698D02*
X0032363Y0059698D01*
X0032549Y0061097D02*
X0034855Y0061097D01*
X0034855Y0062495D02*
X0032247Y0062495D01*
X0032030Y0063894D02*
X0034855Y0063894D01*
X0035303Y0065292D02*
X0032549Y0065292D01*
X0032549Y0066691D02*
X0036714Y0066691D01*
X0035220Y0068089D02*
X0032001Y0068089D01*
X0032276Y0069488D02*
X0034855Y0069488D01*
X0034855Y0070886D02*
X0032549Y0070886D01*
X0032335Y0072285D02*
X0034855Y0072285D01*
X0034855Y0073683D02*
X0031943Y0073683D01*
X0032522Y0075082D02*
X0034855Y0075082D01*
X0035567Y0076480D02*
X0032549Y0076480D01*
X0032089Y0077879D02*
X0036754Y0077879D01*
X0035656Y0079277D02*
X0032189Y0079277D01*
X0032549Y0080676D02*
X0035656Y0080676D01*
X0032422Y0082074D02*
X0039336Y0082074D01*
X0039336Y0080676D02*
X0040495Y0080676D01*
X0040495Y0079277D02*
X0039336Y0079277D01*
X0039336Y0077879D02*
X0040495Y0077879D01*
X0043077Y0077879D02*
X0044031Y0077879D01*
X0043088Y0076480D02*
X0042661Y0076480D01*
X0046014Y0076480D02*
X0047173Y0076480D01*
X0047173Y0075082D02*
X0046014Y0075082D01*
X0046014Y0073683D02*
X0047173Y0073683D01*
X0047174Y0072285D02*
X0055095Y0072285D01*
X0055095Y0073683D02*
X0050853Y0073683D01*
X0050853Y0075082D02*
X0055095Y0075082D01*
X0055095Y0076480D02*
X0050100Y0076480D01*
X0050761Y0077879D02*
X0064676Y0077879D01*
X0064150Y0079277D02*
X0063532Y0079277D01*
X0060980Y0081322D02*
X0059872Y0082430D01*
X0047396Y0082430D01*
X0051655Y0079277D02*
X0058428Y0079277D01*
X0064400Y0076480D02*
X0065766Y0076480D01*
X0065430Y0075082D02*
X0064400Y0075082D01*
X0064400Y0073683D02*
X0065717Y0073683D01*
X0066821Y0072285D02*
X0064400Y0072285D01*
X0064400Y0070886D02*
X0073107Y0070886D01*
X0072655Y0069488D02*
X0064400Y0069488D01*
X0064400Y0068089D02*
X0071422Y0068089D01*
X0072254Y0065527D02*
X0075880Y0069153D01*
X0078930Y0068089D02*
X0093580Y0068089D01*
X0093580Y0069488D02*
X0079105Y0069488D01*
X0078653Y0070886D02*
X0093580Y0070886D01*
X0095980Y0073622D02*
X0088280Y0073622D01*
X0085732Y0076170D01*
X0085732Y0082062D01*
X0082582Y0082062D02*
X0082582Y0077410D01*
X0082582Y0082062D01*
X0082582Y0082062D01*
X0082582Y0080676D02*
X0082582Y0080676D01*
X0082582Y0079277D02*
X0082582Y0079277D01*
X0082582Y0077879D02*
X0082582Y0077879D01*
X0081832Y0076480D02*
X0083332Y0076480D01*
X0083585Y0075082D02*
X0081661Y0075082D01*
X0080536Y0073683D02*
X0084824Y0073683D01*
X0086223Y0072285D02*
X0076747Y0072285D01*
X0075013Y0072285D02*
X0070539Y0072285D01*
X0068680Y0075022D02*
X0078480Y0075022D01*
X0079432Y0075974D01*
X0079432Y0082062D01*
X0088816Y0076480D02*
X0094389Y0076480D01*
X0095980Y0073622D02*
X0095980Y0062422D01*
X0093641Y0059698D02*
X0083395Y0059698D01*
X0081996Y0058300D02*
X0094608Y0058300D01*
X0096419Y0056901D02*
X0081832Y0056901D01*
X0081832Y0055503D02*
X0100764Y0055503D01*
X0100764Y0054104D02*
X0081832Y0054104D01*
X0081832Y0052706D02*
X0100764Y0052706D01*
X0100764Y0051307D02*
X0081832Y0051307D01*
X0081832Y0049909D02*
X0100764Y0049909D01*
X0100764Y0048510D02*
X0081832Y0048510D01*
X0081832Y0047112D02*
X0100764Y0047112D01*
X0100764Y0045713D02*
X0081832Y0045713D01*
X0081832Y0044315D02*
X0100764Y0044315D01*
X0100764Y0042916D02*
X0081832Y0042916D01*
X0081832Y0041518D02*
X0101038Y0041518D01*
X0100945Y0040119D02*
X0106420Y0040119D01*
X0104553Y0038721D02*
X0101014Y0038721D01*
X0101014Y0037322D02*
X0103155Y0037322D01*
X0101756Y0035923D02*
X0101014Y0035923D01*
X0101014Y0034525D02*
X0101280Y0034525D01*
X0101280Y0033126D02*
X0101014Y0033126D01*
X0101280Y0031728D02*
X0097580Y0031728D01*
X0097580Y0030329D02*
X0101280Y0030329D01*
X0097524Y0028931D02*
X0097492Y0028931D01*
X0095180Y0029622D02*
X0095180Y0036393D01*
X0092780Y0031740D02*
X0092780Y0030616D01*
X0090845Y0028681D01*
X0090480Y0027799D01*
X0090480Y0026844D01*
X0090480Y0023644D01*
X0090845Y0022762D01*
X0091521Y0022087D01*
X0095521Y0018087D01*
X0096340Y0017748D01*
X0095706Y0017113D01*
X0095706Y0015467D01*
X0100106Y0015467D01*
X0100106Y0014867D01*
X0095706Y0014867D01*
X0095706Y0013220D01*
X0096273Y0012653D01*
X0066523Y0012653D01*
X0066523Y0022597D01*
X0068054Y0021065D01*
X0068054Y0020563D01*
X0068549Y0019368D01*
X0069463Y0018454D01*
X0070658Y0017959D01*
X0071951Y0017959D01*
X0073145Y0018454D01*
X0074060Y0019368D01*
X0074554Y0020563D01*
X0074554Y0021856D01*
X0074060Y0023050D01*
X0073145Y0023964D01*
X0071951Y0024459D01*
X0071449Y0024459D01*
X0068980Y0026928D01*
X0068980Y0031740D01*
X0070733Y0031740D01*
X0070733Y0031591D01*
X0071099Y0030709D01*
X0071730Y0030078D01*
X0071730Y0029575D01*
X0072225Y0028381D01*
X0073139Y0027467D01*
X0074334Y0026972D01*
X0075626Y0026972D01*
X0076821Y0027467D01*
X0077735Y0028381D01*
X0078230Y0029575D01*
X0078230Y0030868D01*
X0077869Y0031740D01*
X0081121Y0031740D01*
X0081174Y0031794D01*
X0081374Y0031740D01*
X0082582Y0031740D01*
X0083790Y0031740D01*
X0083990Y0031794D01*
X0084043Y0031740D01*
X0092780Y0031740D01*
X0092780Y0031728D02*
X0077874Y0031728D01*
X0078230Y0030329D02*
X0092494Y0030329D01*
X0091095Y0028931D02*
X0077963Y0028931D01*
X0076887Y0027532D02*
X0090480Y0027532D01*
X0090480Y0026134D02*
X0069774Y0026134D01*
X0071172Y0024735D02*
X0090480Y0024735D01*
X0090607Y0023337D02*
X0073773Y0023337D01*
X0074520Y0021938D02*
X0091669Y0021938D01*
X0093068Y0020540D02*
X0074545Y0020540D01*
X0073833Y0019141D02*
X0094466Y0019141D01*
X0096335Y0017743D02*
X0066523Y0017743D01*
X0066523Y0019141D02*
X0068776Y0019141D01*
X0068064Y0020540D02*
X0066523Y0020540D01*
X0066523Y0021938D02*
X0067181Y0021938D01*
X0066580Y0025934D02*
X0071304Y0021209D01*
X0066580Y0025934D02*
X0066580Y0036139D01*
X0066834Y0036393D01*
X0069984Y0036393D02*
X0069984Y0045225D01*
X0065380Y0051553D02*
X0063649Y0049822D01*
X0059790Y0049822D01*
X0059747Y0049779D01*
X0059441Y0052622D02*
X0055380Y0052622D01*
X0052380Y0049622D01*
X0052380Y0046553D01*
X0049980Y0044153D01*
X0061680Y0038622D02*
X0053980Y0030922D01*
X0045580Y0030922D01*
X0068980Y0030329D02*
X0071478Y0030329D01*
X0071997Y0028931D02*
X0068980Y0028931D01*
X0068980Y0027532D02*
X0073073Y0027532D01*
X0074980Y0030222D02*
X0073133Y0032069D01*
X0073133Y0036393D01*
X0070733Y0031728D02*
X0068980Y0031728D01*
X0082582Y0031740D02*
X0082582Y0036393D01*
X0082582Y0031740D01*
X0082582Y0033126D02*
X0082582Y0033126D01*
X0082582Y0034525D02*
X0082582Y0034525D01*
X0082582Y0035923D02*
X0082582Y0035923D01*
X0082582Y0036393D02*
X0082582Y0036393D01*
X0082582Y0041046D01*
X0082582Y0036393D01*
X0082582Y0036393D01*
X0082582Y0037322D02*
X0082582Y0037322D01*
X0082582Y0038721D02*
X0082582Y0038721D01*
X0082582Y0040119D02*
X0082582Y0040119D01*
X0095180Y0029622D02*
X0092880Y0027322D01*
X0092880Y0024122D01*
X0096880Y0020122D01*
X0115451Y0020122D01*
X0120406Y0015167D01*
X0125106Y0014946D02*
X0127089Y0014946D01*
X0126338Y0016344D02*
X0125106Y0016344D01*
X0124477Y0017743D02*
X0126338Y0017743D01*
X0126338Y0019141D02*
X0123078Y0019141D01*
X0122426Y0020540D02*
X0126338Y0020540D01*
X0126871Y0021938D02*
X0123825Y0021938D01*
X0125106Y0023337D02*
X0129588Y0023337D01*
X0129588Y0024735D02*
X0125106Y0024735D01*
X0125106Y0026134D02*
X0129574Y0026134D01*
X0131988Y0027114D02*
X0126080Y0033022D01*
X0115980Y0033022D01*
X0111280Y0037722D01*
X0110505Y0034525D02*
X0107146Y0034525D01*
X0106080Y0033126D02*
X0112481Y0033126D01*
X0113880Y0031728D02*
X0106080Y0031728D01*
X0113288Y0028931D02*
X0117523Y0028931D01*
X0116125Y0027532D02*
X0114687Y0027532D01*
X0115106Y0026134D02*
X0115706Y0026134D01*
X0115706Y0024735D02*
X0115106Y0024735D01*
X0115106Y0023337D02*
X0115706Y0023337D01*
X0106314Y0017722D02*
X0105706Y0017113D01*
X0105706Y0013220D01*
X0106273Y0012653D01*
X0104539Y0012653D01*
X0105106Y0013220D01*
X0105106Y0014867D01*
X0100706Y0014867D01*
X0100706Y0015467D01*
X0105106Y0015467D01*
X0105106Y0017113D01*
X0104498Y0017722D01*
X0106314Y0017722D01*
X0105706Y0016344D02*
X0105106Y0016344D01*
X0105706Y0014946D02*
X0100706Y0014946D01*
X0100106Y0014946D02*
X0066523Y0014946D01*
X0066523Y0016344D02*
X0095706Y0016344D01*
X0095706Y0013547D02*
X0066523Y0013547D01*
X0105106Y0013547D02*
X0105706Y0013547D01*
X0125106Y0013547D02*
X0197219Y0013547D01*
X0197219Y0014946D02*
X0172218Y0014946D01*
X0172382Y0015041D02*
X0172698Y0015357D01*
X0172922Y0015745D01*
X0173038Y0016177D01*
X0173038Y0018176D01*
X0167763Y0018176D01*
X0167763Y0018926D01*
X0167013Y0018926D01*
X0167013Y0018176D01*
X0161738Y0018176D01*
X0161738Y0016177D01*
X0161854Y0015745D01*
X0162078Y0015357D01*
X0162394Y0015041D01*
X0162782Y0014817D01*
X0163214Y0014701D01*
X0167013Y0014701D01*
X0167013Y0018176D01*
X0167763Y0018176D01*
X0167763Y0014701D01*
X0171562Y0014701D01*
X0171994Y0014817D01*
X0172382Y0015041D01*
X0173038Y0016344D02*
X0197219Y0016344D01*
X0197219Y0017743D02*
X0173038Y0017743D01*
X0173038Y0018926D02*
X0173038Y0020925D01*
X0172922Y0021357D01*
X0172698Y0021745D01*
X0172382Y0022061D01*
X0171994Y0022285D01*
X0171562Y0022401D01*
X0167763Y0022401D01*
X0167763Y0018926D01*
X0173038Y0018926D01*
X0173038Y0019141D02*
X0197219Y0019141D01*
X0197219Y0020540D02*
X0173038Y0020540D01*
X0172505Y0021938D02*
X0197219Y0021938D01*
X0183689Y0033126D02*
X0178512Y0033126D01*
X0176780Y0030353D02*
X0175663Y0031470D01*
X0168080Y0031470D01*
X0165002Y0031728D02*
X0164580Y0031728D01*
X0164580Y0030329D02*
X0165002Y0030329D01*
X0165002Y0028931D02*
X0164763Y0028931D01*
X0165405Y0027532D02*
X0165873Y0027532D01*
X0170287Y0027532D02*
X0175163Y0027532D01*
X0173878Y0028931D02*
X0171158Y0028931D01*
X0165002Y0033126D02*
X0164580Y0033126D01*
X0164580Y0034525D02*
X0165002Y0034525D01*
X0164580Y0035923D02*
X0181016Y0035923D01*
X0182290Y0034525D02*
X0171158Y0034525D01*
X0164580Y0037322D02*
X0179617Y0037322D01*
X0178219Y0038721D02*
X0164580Y0038721D01*
X0164580Y0040119D02*
X0176820Y0040119D01*
X0175422Y0041518D02*
X0164580Y0041518D01*
X0164580Y0042916D02*
X0165056Y0042916D01*
X0165002Y0044315D02*
X0164580Y0044315D01*
X0164580Y0045713D02*
X0165002Y0045713D01*
X0165002Y0047112D02*
X0164580Y0047112D01*
X0164580Y0048510D02*
X0165002Y0048510D01*
X0164580Y0049909D02*
X0165808Y0049909D01*
X0164580Y0051307D02*
X0183149Y0051307D01*
X0181751Y0049909D02*
X0170352Y0049909D01*
X0171158Y0048510D02*
X0181400Y0048510D01*
X0181400Y0047112D02*
X0176616Y0047112D01*
X0174280Y0046053D02*
X0168097Y0046053D01*
X0168080Y0046037D01*
X0171104Y0042916D02*
X0174023Y0042916D01*
X0178014Y0045713D02*
X0181400Y0045713D01*
X0182500Y0044315D02*
X0179413Y0044315D01*
X0180811Y0042916D02*
X0183899Y0042916D01*
X0183360Y0041518D02*
X0182210Y0041518D01*
X0182847Y0037486D02*
X0174280Y0046053D01*
X0165212Y0052706D02*
X0164580Y0052706D01*
X0161534Y0056901D02*
X0161091Y0056901D01*
X0161091Y0058300D02*
X0165212Y0058300D01*
X0156291Y0058300D02*
X0155921Y0058300D01*
X0155933Y0059698D02*
X0156291Y0059698D01*
X0156291Y0061097D02*
X0155933Y0061097D01*
X0156291Y0062495D02*
X0155321Y0062495D01*
X0154380Y0063894D02*
X0156291Y0063894D01*
X0156291Y0065292D02*
X0154380Y0065292D01*
X0153905Y0066691D02*
X0156291Y0066691D01*
X0156291Y0068089D02*
X0152507Y0068089D01*
X0151108Y0069488D02*
X0155534Y0069488D01*
X0155179Y0070886D02*
X0149710Y0070886D01*
X0147896Y0069306D02*
X0151980Y0065222D01*
X0151980Y0060236D01*
X0152021Y0060195D01*
X0152021Y0057045D02*
X0152021Y0057045D01*
X0155933Y0056901D02*
X0156291Y0056901D01*
X0156291Y0055503D02*
X0155933Y0055503D01*
X0155933Y0054104D02*
X0156291Y0054104D01*
X0156291Y0052706D02*
X0155933Y0052706D01*
X0155933Y0051307D02*
X0156291Y0051307D01*
X0156291Y0049909D02*
X0155933Y0049909D01*
X0155933Y0048510D02*
X0156291Y0048510D01*
X0156291Y0047112D02*
X0155933Y0047112D01*
X0155903Y0045713D02*
X0156291Y0045713D01*
X0156291Y0044315D02*
X0155903Y0044315D01*
X0155903Y0042916D02*
X0156291Y0042916D01*
X0158691Y0041133D02*
X0158691Y0069711D01*
X0159979Y0072285D02*
X0165212Y0072285D01*
X0165635Y0073683D02*
X0159979Y0073683D01*
X0160431Y0075082D02*
X0164807Y0075082D01*
X0163525Y0076480D02*
X0161674Y0076480D01*
X0162253Y0077879D02*
X0162979Y0077879D01*
X0162879Y0079277D02*
X0162279Y0079277D01*
X0162279Y0080676D02*
X0162879Y0080676D01*
X0162279Y0082074D02*
X0167279Y0082074D01*
X0167879Y0082074D02*
X0197219Y0082074D01*
X0197219Y0080676D02*
X0172279Y0080676D01*
X0172279Y0079277D02*
X0174253Y0079277D01*
X0172563Y0077879D02*
X0172180Y0077879D01*
X0172155Y0076480D02*
X0171633Y0076480D01*
X0170814Y0075082D02*
X0170352Y0075082D01*
X0176507Y0079277D02*
X0197219Y0079277D01*
X0197219Y0077879D02*
X0178197Y0077879D01*
X0178605Y0076480D02*
X0197219Y0076480D01*
X0197219Y0075082D02*
X0178385Y0075082D01*
X0192047Y0070886D02*
X0197219Y0070886D01*
X0197219Y0083473D02*
X0172279Y0083473D01*
X0172279Y0084871D02*
X0197219Y0084871D01*
X0162879Y0084871D02*
X0162279Y0084871D01*
X0162279Y0083473D02*
X0162879Y0083473D01*
X0147896Y0069306D02*
X0128585Y0069306D01*
X0126723Y0063122D02*
X0123980Y0063122D01*
X0126723Y0063122D02*
X0146380Y0063122D01*
X0147540Y0061961D01*
X0147540Y0060588D01*
X0143060Y0060195D02*
X0142487Y0059622D01*
X0139380Y0059622D01*
X0138661Y0057322D02*
X0137533Y0057322D01*
X0137480Y0057269D01*
X0137480Y0054469D01*
X0136133Y0053122D01*
X0135302Y0052291D01*
X0135302Y0048452D01*
X0134306Y0047456D01*
X0133193Y0047456D01*
X0133193Y0045249D01*
X0134253Y0045249D01*
X0135249Y0044253D01*
X0135249Y0044185D01*
X0137545Y0046481D01*
X0138427Y0046847D01*
X0139148Y0046847D01*
X0139148Y0047596D01*
X0139961Y0047596D01*
X0139961Y0047596D01*
X0139148Y0047596D01*
X0139148Y0048804D01*
X0139240Y0049151D01*
X0139240Y0049191D01*
X0139148Y0049538D01*
X0139148Y0050746D01*
X0139962Y0050746D01*
X0139961Y0050746D01*
X0139148Y0050746D01*
X0139148Y0051954D01*
X0139201Y0052154D01*
X0139148Y0052207D01*
X0139148Y0055584D01*
X0139201Y0055637D01*
X0139148Y0055837D01*
X0139148Y0057045D01*
X0143060Y0057045D01*
X0143060Y0057045D01*
X0139148Y0057045D01*
X0139148Y0057222D01*
X0138903Y0057222D01*
X0138661Y0057322D01*
X0139148Y0056901D02*
X0137480Y0056901D01*
X0137480Y0055503D02*
X0139148Y0055503D01*
X0139148Y0054104D02*
X0137115Y0054104D01*
X0135717Y0052706D02*
X0139148Y0052706D01*
X0139148Y0051307D02*
X0135302Y0051307D01*
X0135302Y0049909D02*
X0139148Y0049909D01*
X0139148Y0048510D02*
X0135302Y0048510D01*
X0133193Y0047112D02*
X0139148Y0047112D01*
X0136777Y0045713D02*
X0133193Y0045713D01*
X0135187Y0044315D02*
X0135379Y0044315D01*
X0139370Y0041518D02*
X0144856Y0041518D01*
X0143783Y0040119D02*
X0137971Y0040119D01*
X0136573Y0038721D02*
X0142878Y0038721D01*
X0141002Y0037322D02*
X0135249Y0037322D01*
X0134628Y0035923D02*
X0141002Y0035923D01*
X0141002Y0034525D02*
X0127971Y0034525D01*
X0126959Y0035923D02*
X0123604Y0035923D01*
X0120448Y0035923D02*
X0119092Y0035923D01*
X0119092Y0037322D02*
X0120448Y0037322D01*
X0120448Y0038721D02*
X0119092Y0038721D01*
X0119092Y0041518D02*
X0120448Y0041518D01*
X0120448Y0042916D02*
X0119092Y0042916D01*
X0119092Y0044315D02*
X0120448Y0044315D01*
X0115493Y0044315D02*
X0110069Y0044315D01*
X0110069Y0042916D02*
X0115314Y0042916D01*
X0115314Y0041518D02*
X0109796Y0041518D01*
X0124226Y0037322D02*
X0126337Y0037322D01*
X0129369Y0033126D02*
X0141002Y0033126D01*
X0141002Y0031728D02*
X0130768Y0031728D01*
X0131988Y0027114D02*
X0131988Y0018551D01*
X0137638Y0019141D02*
X0161738Y0019141D01*
X0161738Y0017743D02*
X0137638Y0017743D01*
X0137638Y0016344D02*
X0161738Y0016344D01*
X0162558Y0014946D02*
X0136887Y0014946D01*
X0137638Y0020540D02*
X0161738Y0020540D01*
X0167013Y0020540D02*
X0167763Y0020540D01*
X0167763Y0019141D02*
X0167013Y0019141D01*
X0167013Y0017743D02*
X0167763Y0017743D01*
X0167763Y0016344D02*
X0167013Y0016344D01*
X0167013Y0014946D02*
X0167763Y0014946D01*
X0167763Y0021938D02*
X0167013Y0021938D01*
X0158955Y0027532D02*
X0152685Y0027532D01*
X0154083Y0028931D02*
X0159597Y0028931D01*
X0159780Y0030329D02*
X0156946Y0030329D01*
X0157000Y0031728D02*
X0159780Y0031728D01*
X0159780Y0033126D02*
X0157000Y0033126D01*
X0145261Y0034040D02*
X0145261Y0038203D01*
X0146380Y0039322D01*
X0146989Y0047965D02*
X0147340Y0048316D01*
X0147340Y0050025D01*
X0146972Y0050393D01*
X0146972Y0050746D01*
X0146972Y0051954D01*
X0146918Y0052154D01*
X0146972Y0052207D01*
X0146972Y0055584D01*
X0146918Y0055637D01*
X0146972Y0055837D01*
X0146972Y0056676D01*
X0148109Y0056676D01*
X0148109Y0055837D01*
X0148162Y0055637D01*
X0148109Y0055584D01*
X0148109Y0047965D01*
X0146989Y0047965D01*
X0147340Y0048510D02*
X0148109Y0048510D01*
X0148109Y0049909D02*
X0147340Y0049909D01*
X0146972Y0050746D02*
X0146620Y0050746D01*
X0146619Y0050746D01*
X0146972Y0050746D01*
X0146972Y0051307D02*
X0148109Y0051307D01*
X0148109Y0052706D02*
X0146972Y0052706D01*
X0146972Y0054104D02*
X0148109Y0054104D01*
X0148109Y0055503D02*
X0146972Y0055503D01*
X0130649Y0059196D02*
X0126723Y0063122D01*
X0123302Y0052706D02*
X0122692Y0052706D01*
X0093580Y0065292D02*
X0075413Y0065292D01*
X0077978Y0066691D02*
X0093580Y0066691D01*
X0082680Y0062377D02*
X0059747Y0062377D01*
X0056124Y0062377D01*
X0051880Y0066622D01*
X0042080Y0066622D01*
X0039114Y0069588D01*
X0039114Y0072111D01*
X0039114Y0061187D01*
X0039122Y0061179D01*
X0039122Y0050968D01*
X0041522Y0055621D02*
X0041522Y0056534D01*
X0042377Y0056534D01*
X0042854Y0057011D01*
X0042991Y0056874D01*
X0043379Y0056650D01*
X0043811Y0056534D01*
X0046014Y0056534D01*
X0046014Y0060608D01*
X0047173Y0060608D01*
X0047173Y0056534D01*
X0049377Y0056534D01*
X0049809Y0056650D01*
X0050197Y0056874D01*
X0050513Y0057191D01*
X0050737Y0057578D01*
X0050853Y0058011D01*
X0050853Y0060608D01*
X0047174Y0060608D01*
X0047174Y0061767D01*
X0050853Y0061767D01*
X0050853Y0064222D01*
X0050886Y0064222D01*
X0054765Y0060343D01*
X0055095Y0060206D01*
X0055095Y0059228D01*
X0059747Y0059228D01*
X0059747Y0059228D01*
X0055095Y0059228D01*
X0055095Y0058020D01*
X0055148Y0057820D01*
X0055095Y0057767D01*
X0055095Y0055022D01*
X0054903Y0055022D01*
X0054021Y0054656D01*
X0051021Y0051656D01*
X0050345Y0050981D01*
X0050100Y0050389D01*
X0047182Y0050389D01*
X0047182Y0051548D01*
X0046023Y0051548D01*
X0046023Y0055621D01*
X0043819Y0055621D01*
X0043387Y0055505D01*
X0042999Y0055281D01*
X0042862Y0055144D01*
X0042385Y0055621D01*
X0041522Y0055621D01*
X0042503Y0055503D02*
X0043383Y0055503D01*
X0042964Y0056901D02*
X0042744Y0056901D01*
X0046014Y0056901D02*
X0047173Y0056901D01*
X0047182Y0055621D02*
X0047182Y0051548D01*
X0050861Y0051548D01*
X0050861Y0054145D01*
X0050745Y0054577D01*
X0050522Y0054965D01*
X0050205Y0055281D01*
X0049817Y0055505D01*
X0049385Y0055621D01*
X0047182Y0055621D01*
X0047182Y0055503D02*
X0046023Y0055503D01*
X0046023Y0054104D02*
X0047182Y0054104D01*
X0047182Y0052706D02*
X0046023Y0052706D01*
X0047182Y0051307D02*
X0050671Y0051307D01*
X0050861Y0052706D02*
X0052070Y0052706D01*
X0050861Y0054104D02*
X0053468Y0054104D01*
X0055095Y0055503D02*
X0049821Y0055503D01*
X0050224Y0056901D02*
X0055095Y0056901D01*
X0055095Y0058300D02*
X0050853Y0058300D01*
X0050853Y0059698D02*
X0055095Y0059698D01*
X0054011Y0061097D02*
X0047174Y0061097D01*
X0047173Y0059698D02*
X0046014Y0059698D01*
X0046014Y0058300D02*
X0047173Y0058300D01*
X0050853Y0062495D02*
X0052612Y0062495D01*
X0051214Y0063894D02*
X0050853Y0063894D01*
X0053807Y0068089D02*
X0055095Y0068089D01*
X0055095Y0069488D02*
X0050853Y0069488D01*
X0050853Y0070886D02*
X0055095Y0070886D01*
X0059747Y0065527D02*
X0072254Y0065527D01*
X0067907Y0059977D02*
X0064400Y0059977D01*
X0064400Y0059228D01*
X0059747Y0059228D01*
X0059747Y0059228D01*
X0064400Y0059228D01*
X0064400Y0058020D01*
X0064347Y0057820D01*
X0064400Y0057767D01*
X0064400Y0055436D01*
X0067530Y0058566D01*
X0067530Y0059068D01*
X0067907Y0059977D01*
X0067791Y0059698D02*
X0064400Y0059698D01*
X0064400Y0058300D02*
X0067264Y0058300D01*
X0065865Y0056901D02*
X0064400Y0056901D01*
X0064400Y0055503D02*
X0064467Y0055503D01*
X0065380Y0053022D02*
X0070780Y0058422D01*
X0065380Y0053022D02*
X0065380Y0051553D01*
X0059747Y0052929D02*
X0059441Y0052622D01*
X0035656Y0083473D02*
X0031722Y0083473D01*
X0029677Y0084871D02*
X0035656Y0084871D01*
X0022508Y0084871D02*
X0021580Y0084871D01*
X0182847Y0037486D02*
X0186400Y0037486D01*
D27*
X0136580Y0047722D03*
X0137980Y0056822D03*
X0111380Y0054322D03*
X0099480Y0065922D03*
X0088280Y0066622D03*
X0033680Y0072222D03*
X0144280Y0072222D03*
X0145680Y0078522D03*
D28*
X0052880Y0070853D03*
X0052780Y0056453D03*
D29*
X0143060Y0057045D02*
X0147380Y0057045D01*
X0147480Y0056945D01*
X0147480Y0051253D01*
X0146973Y0050746D01*
X0143060Y0050746D01*
X0143060Y0047596D01*
X0147380Y0057045D02*
X0152021Y0057045D01*
D30*
X0123980Y0063122D03*
X0112080Y0063122D03*
X0095980Y0073622D03*
X0102980Y0079222D03*
X0068680Y0075022D03*
X0060980Y0081322D03*
X0070780Y0058422D03*
X0074780Y0050022D03*
X0074980Y0043522D03*
X0061680Y0038622D03*
X0045580Y0030922D03*
X0071304Y0021209D03*
X0074980Y0030222D03*
X0111280Y0037722D03*
D31*
X0130649Y0051715D02*
X0131474Y0051715D01*
X0135180Y0055422D01*
X0135180Y0058222D01*
X0136580Y0059622D01*
X0139380Y0059622D01*
D32*
X0136849Y0079222D02*
X0128180Y0079222D01*
X0136849Y0079222D02*
X0141680Y0084053D01*
X0155250Y0084053D01*
X0155326Y0084130D01*
D33*
X0175380Y0076253D03*
X0162780Y0063153D03*
X0176780Y0030353D03*
X0162180Y0026953D03*
X0075880Y0069153D03*
X0069380Y0050553D03*
X0051980Y0040153D03*
M02*
