G75*
%MOIN*%
%OFA0B0*%
%FSLAX25Y25*%
%IPPOS*%
%LPD*%
%AMOC8*
5,1,8,0,0,1.08239X$1,22.5*
%
%ADD10C,0.00700*%
%ADD11C,0.00200*%
%ADD12C,0.00400*%
%ADD13R,0.02953X0.05709*%
%ADD14R,0.05709X0.02953*%
%ADD15C,0.00800*%
%ADD16C,0.00100*%
%ADD17C,0.01000*%
%ADD18C,0.00600*%
%ADD19R,0.01574X0.04528*%
%ADD20R,0.01575X0.04528*%
%ADD21R,0.01575X0.04528*%
%ADD22R,0.04528X0.01574*%
%ADD23R,0.04528X0.01575*%
%ADD24R,0.04528X0.01575*%
%ADD25C,0.00500*%
%ADD26R,0.02000X0.02000*%
%ADD27R,0.05512X0.02559*%
%ADD28R,0.02559X0.05512*%
%ADD29C,0.00300*%
%ADD30R,0.06000X0.06000*%
%ADD31R,0.03600X0.05900*%
%ADD32R,0.04200X0.02400*%
%ADD33R,0.05512X0.00787*%
%ADD34C,0.00060*%
D10*
X0042756Y0018513D02*
X0044099Y0018513D01*
X0043427Y0018513D02*
X0043427Y0022541D01*
X0042756Y0022541D02*
X0044099Y0022541D01*
X0047831Y0022541D02*
X0047831Y0019855D01*
X0049174Y0018513D01*
X0050516Y0019855D01*
X0050516Y0022541D01*
X0054357Y0021869D02*
X0054357Y0019184D01*
X0055028Y0018513D01*
X0056370Y0018513D01*
X0057042Y0019184D01*
X0058707Y0019184D02*
X0058707Y0018513D01*
X0059378Y0018513D01*
X0059378Y0019184D01*
X0058707Y0019184D01*
X0060882Y0019184D02*
X0061553Y0018513D01*
X0062896Y0018513D01*
X0063567Y0019184D01*
X0063567Y0019855D01*
X0062896Y0020527D01*
X0061553Y0020527D01*
X0060882Y0021198D01*
X0060882Y0021869D01*
X0061553Y0022541D01*
X0062896Y0022541D01*
X0063567Y0021869D01*
X0057042Y0021869D02*
X0056370Y0022541D01*
X0055028Y0022541D01*
X0054357Y0021869D01*
X0052853Y0019184D02*
X0052853Y0018513D01*
X0052181Y0018513D01*
X0052181Y0019184D01*
X0052853Y0019184D01*
X0053051Y0016108D02*
X0051709Y0016108D01*
X0051037Y0015437D01*
X0051037Y0012752D01*
X0051709Y0012080D01*
X0053051Y0012080D01*
X0053722Y0012752D01*
X0055387Y0012080D02*
X0056730Y0013423D01*
X0056730Y0014766D01*
X0055387Y0016108D01*
X0053722Y0015437D02*
X0053051Y0016108D01*
X0049480Y0016108D02*
X0048137Y0014766D01*
X0048137Y0013423D01*
X0049480Y0012080D01*
X0046327Y0018513D02*
X0045656Y0018513D01*
X0045656Y0019184D01*
X0046327Y0019184D01*
X0046327Y0018513D01*
D11*
X0050630Y0047098D02*
X0035094Y0047098D01*
X0035094Y0054838D01*
X0050630Y0054838D01*
X0050630Y0047098D01*
X0050621Y0057317D02*
X0035086Y0057317D01*
X0035086Y0065057D01*
X0050621Y0065057D01*
X0050621Y0057317D01*
X0050621Y0068241D02*
X0035086Y0068241D01*
X0035086Y0075981D01*
X0050621Y0075981D01*
X0050621Y0068241D01*
X0051423Y0078560D02*
X0035888Y0078560D01*
X0035888Y0086300D01*
X0051423Y0086300D01*
X0051423Y0078560D01*
X0114169Y0062560D02*
X0114169Y0047025D01*
X0121909Y0047025D01*
X0121909Y0062560D01*
X0114169Y0062560D01*
X0117077Y0065436D02*
X0117077Y0073176D01*
X0132612Y0073176D01*
X0132612Y0065436D01*
X0117077Y0065436D01*
X0126779Y0063223D02*
X0134519Y0063223D01*
X0134519Y0047688D01*
X0126779Y0047688D01*
X0126779Y0063223D01*
X0145940Y0052588D02*
X0146106Y0052588D01*
X0146774Y0051921D01*
X0146940Y0051921D01*
X0146940Y0052588D01*
X0147440Y0052588D02*
X0148440Y0051921D01*
X0148440Y0052588D02*
X0147440Y0051921D01*
X0147440Y0051088D02*
X0147606Y0051088D01*
X0147940Y0050754D01*
X0148440Y0050754D01*
X0147940Y0050754D02*
X0147606Y0050421D01*
X0147440Y0050421D01*
X0147040Y0050821D02*
X0146040Y0050821D01*
X0146540Y0051321D01*
X0146040Y0050821D02*
X0146540Y0050321D01*
X0145940Y0051921D02*
X0145940Y0052588D01*
X0146440Y0053321D02*
X0146442Y0053341D01*
X0146448Y0053359D01*
X0146457Y0053377D01*
X0146469Y0053392D01*
X0146484Y0053404D01*
X0146502Y0053413D01*
X0146520Y0053419D01*
X0146540Y0053421D01*
X0146560Y0053419D01*
X0146578Y0053413D01*
X0146596Y0053404D01*
X0146611Y0053392D01*
X0146623Y0053377D01*
X0146632Y0053359D01*
X0146638Y0053341D01*
X0146640Y0053321D01*
X0146638Y0053301D01*
X0146632Y0053283D01*
X0146623Y0053265D01*
X0146611Y0053250D01*
X0146596Y0053238D01*
X0146578Y0053229D01*
X0146560Y0053223D01*
X0146540Y0053221D01*
X0146520Y0053223D01*
X0146502Y0053229D01*
X0146484Y0053238D01*
X0146469Y0053250D01*
X0146457Y0053265D01*
X0146448Y0053283D01*
X0146442Y0053301D01*
X0146440Y0053321D01*
X0146040Y0053321D02*
X0146042Y0053365D01*
X0146048Y0053409D01*
X0146058Y0053452D01*
X0146071Y0053494D01*
X0146088Y0053535D01*
X0146109Y0053574D01*
X0146133Y0053611D01*
X0146160Y0053646D01*
X0146190Y0053678D01*
X0146223Y0053708D01*
X0146259Y0053734D01*
X0146296Y0053758D01*
X0146336Y0053777D01*
X0146377Y0053794D01*
X0146420Y0053806D01*
X0146463Y0053815D01*
X0146507Y0053820D01*
X0146551Y0053821D01*
X0146595Y0053818D01*
X0146639Y0053811D01*
X0146682Y0053800D01*
X0146724Y0053786D01*
X0146764Y0053768D01*
X0146803Y0053746D01*
X0146839Y0053722D01*
X0146873Y0053694D01*
X0146905Y0053663D01*
X0146934Y0053629D01*
X0146960Y0053593D01*
X0146982Y0053555D01*
X0147001Y0053515D01*
X0147016Y0053473D01*
X0147028Y0053431D01*
X0147036Y0053387D01*
X0147040Y0053343D01*
X0147040Y0053299D01*
X0147036Y0053255D01*
X0147028Y0053211D01*
X0147016Y0053169D01*
X0147001Y0053127D01*
X0146982Y0053087D01*
X0146960Y0053049D01*
X0146934Y0053013D01*
X0146905Y0052979D01*
X0146873Y0052948D01*
X0146839Y0052920D01*
X0146803Y0052896D01*
X0146764Y0052874D01*
X0146724Y0052856D01*
X0146682Y0052842D01*
X0146639Y0052831D01*
X0146595Y0052824D01*
X0146551Y0052821D01*
X0146507Y0052822D01*
X0146463Y0052827D01*
X0146420Y0052836D01*
X0146377Y0052848D01*
X0146336Y0052865D01*
X0146296Y0052884D01*
X0146259Y0052908D01*
X0146223Y0052934D01*
X0146190Y0052964D01*
X0146160Y0052996D01*
X0146133Y0053031D01*
X0146109Y0053068D01*
X0146088Y0053107D01*
X0146071Y0053148D01*
X0146058Y0053190D01*
X0146048Y0053233D01*
X0146042Y0053277D01*
X0146040Y0053321D01*
X0147540Y0053821D02*
X0148040Y0054321D01*
X0148540Y0053821D01*
X0148040Y0053321D02*
X0148040Y0054321D01*
X0141233Y0037911D02*
X0156769Y0037911D01*
X0156769Y0030170D01*
X0141233Y0030170D01*
X0141233Y0037911D01*
D12*
X0142493Y0028844D02*
X0144795Y0028844D01*
X0145563Y0028077D01*
X0145563Y0026542D01*
X0144795Y0025775D01*
X0142493Y0025775D01*
X0142493Y0024240D02*
X0142493Y0028844D01*
X0147097Y0028077D02*
X0147864Y0028844D01*
X0149399Y0028844D01*
X0150166Y0028077D01*
X0150166Y0027310D01*
X0149399Y0026542D01*
X0150166Y0025775D01*
X0150166Y0025008D01*
X0149399Y0024240D01*
X0147864Y0024240D01*
X0147097Y0025008D01*
X0145563Y0024240D02*
X0144028Y0025775D01*
X0148632Y0026542D02*
X0149399Y0026542D01*
X0140449Y0048948D02*
X0135845Y0048948D01*
X0135845Y0051250D01*
X0136613Y0052017D01*
X0138147Y0052017D01*
X0138915Y0051250D01*
X0138915Y0048948D01*
X0138915Y0050482D02*
X0140449Y0052017D01*
X0140449Y0053552D02*
X0140449Y0056621D01*
X0140449Y0055086D02*
X0135845Y0055086D01*
X0137380Y0053552D01*
X0126010Y0059506D02*
X0122941Y0059506D01*
X0126010Y0062575D01*
X0126010Y0063343D01*
X0125243Y0064110D01*
X0123708Y0064110D01*
X0122941Y0063343D01*
X0121406Y0063343D02*
X0121406Y0061808D01*
X0120639Y0061041D01*
X0118337Y0061041D01*
X0119871Y0061041D02*
X0121406Y0059506D01*
X0118337Y0059506D02*
X0118337Y0064110D01*
X0120639Y0064110D01*
X0121406Y0063343D01*
X0112839Y0057666D02*
X0112839Y0054597D01*
X0112072Y0053062D02*
X0112839Y0052295D01*
X0112839Y0050760D01*
X0112072Y0049993D01*
X0109002Y0049993D01*
X0108235Y0050760D01*
X0108235Y0052295D01*
X0109002Y0053062D01*
X0109770Y0054597D02*
X0108235Y0056131D01*
X0112839Y0056131D01*
X0115441Y0056293D02*
X0115441Y0053293D01*
X0120637Y0053391D02*
X0120637Y0056293D01*
X0054202Y0089932D02*
X0052667Y0089932D01*
X0049598Y0089932D02*
X0048063Y0089932D01*
X0046529Y0089932D02*
X0045761Y0089165D01*
X0043460Y0089165D01*
X0044994Y0089165D02*
X0046529Y0087630D01*
X0048063Y0087630D02*
X0051133Y0087630D01*
X0052667Y0087630D02*
X0052667Y0092234D01*
X0055737Y0092234D01*
X0051133Y0092234D02*
X0048063Y0092234D01*
X0048063Y0087630D01*
X0046529Y0089932D02*
X0046529Y0091467D01*
X0045761Y0092234D01*
X0043460Y0092234D01*
X0043460Y0087630D01*
X0041925Y0087630D02*
X0041925Y0090699D01*
X0040390Y0092234D01*
X0038856Y0090699D01*
X0038856Y0087630D01*
X0038856Y0089932D02*
X0041925Y0089932D01*
X0036629Y0092751D02*
X0035094Y0092751D01*
X0033559Y0093518D02*
X0032792Y0092751D01*
X0031258Y0092751D01*
X0030490Y0093518D01*
X0030490Y0094285D01*
X0031258Y0095052D01*
X0032792Y0095052D01*
X0033559Y0094285D01*
X0033559Y0093518D01*
X0032792Y0092751D02*
X0033559Y0091983D01*
X0033559Y0091216D01*
X0032792Y0090449D01*
X0031258Y0090449D01*
X0030490Y0091216D01*
X0030490Y0091983D01*
X0031258Y0092751D01*
X0028956Y0094285D02*
X0025886Y0091216D01*
X0025886Y0090449D01*
X0024352Y0090449D02*
X0021282Y0090449D01*
X0024352Y0093518D01*
X0024352Y0094285D01*
X0023584Y0095052D01*
X0022050Y0095052D01*
X0021282Y0094285D01*
X0018213Y0095052D02*
X0016678Y0093518D01*
X0015144Y0095052D02*
X0012075Y0095052D01*
X0012075Y0090449D01*
X0010540Y0090449D02*
X0009005Y0091983D01*
X0009773Y0091983D02*
X0007471Y0091983D01*
X0007471Y0090449D02*
X0007471Y0095052D01*
X0009773Y0095052D01*
X0010540Y0094285D01*
X0010540Y0092751D01*
X0009773Y0091983D01*
X0012075Y0092751D02*
X0013609Y0092751D01*
X0016678Y0090449D02*
X0019748Y0090449D01*
X0018213Y0090449D02*
X0018213Y0095052D01*
X0025886Y0095052D02*
X0028956Y0095052D01*
X0028956Y0094285D01*
X0035094Y0095052D02*
X0038163Y0095052D01*
X0035094Y0095052D02*
X0035094Y0090449D01*
X0042156Y0085028D02*
X0045156Y0085028D01*
X0045156Y0079832D02*
X0042254Y0079832D01*
X0041354Y0074710D02*
X0044255Y0074710D01*
X0044354Y0069513D02*
X0041354Y0069513D01*
X0041148Y0066915D02*
X0039613Y0066915D01*
X0038846Y0066148D01*
X0038846Y0063079D01*
X0039613Y0062311D01*
X0041148Y0062311D01*
X0041915Y0063079D01*
X0041354Y0063786D02*
X0044255Y0063786D01*
X0043450Y0063846D02*
X0044217Y0064613D01*
X0045752Y0064613D01*
X0046519Y0063846D01*
X0046519Y0063079D01*
X0045752Y0062311D01*
X0044217Y0062311D01*
X0043450Y0063079D01*
X0043450Y0063846D01*
X0044217Y0064613D02*
X0043450Y0065381D01*
X0043450Y0066148D01*
X0044217Y0066915D01*
X0045752Y0066915D01*
X0046519Y0066148D01*
X0046519Y0065381D01*
X0045752Y0064613D01*
X0041915Y0066148D02*
X0041148Y0066915D01*
X0041354Y0058589D02*
X0044354Y0058589D01*
X0044217Y0055991D02*
X0043450Y0055224D01*
X0043450Y0054457D01*
X0044217Y0053689D01*
X0046519Y0053689D01*
X0046519Y0052155D02*
X0046519Y0055224D01*
X0045752Y0055991D01*
X0044217Y0055991D01*
X0041915Y0055224D02*
X0041148Y0055991D01*
X0039613Y0055991D01*
X0038846Y0055224D01*
X0038846Y0052155D01*
X0039613Y0051387D01*
X0041148Y0051387D01*
X0041915Y0052155D01*
X0041362Y0053566D02*
X0044264Y0053566D01*
X0043450Y0052155D02*
X0044217Y0051387D01*
X0045752Y0051387D01*
X0046519Y0052155D01*
X0044362Y0048370D02*
X0041362Y0048370D01*
X0044225Y0045772D02*
X0043458Y0045005D01*
X0043458Y0041935D01*
X0044225Y0041168D01*
X0045760Y0041168D01*
X0046527Y0041935D01*
X0046527Y0045005D02*
X0045760Y0045772D01*
X0044225Y0045772D01*
X0005169Y0090449D02*
X0002867Y0090449D01*
X0002867Y0095052D01*
X0005169Y0095052D01*
X0005936Y0094285D01*
X0005936Y0091216D01*
X0005169Y0090449D01*
D13*
X0040832Y0082435D03*
X0046532Y0082435D03*
X0045677Y0072107D03*
X0039977Y0072107D03*
X0039977Y0061183D03*
X0045677Y0061183D03*
X0045685Y0050964D03*
X0039985Y0050964D03*
D14*
X0118035Y0051969D03*
X0118035Y0057669D03*
D15*
X0115439Y0045123D02*
X0121345Y0045123D01*
X0115439Y0045123D02*
X0115439Y0035675D01*
X0121345Y0035675D01*
X0129219Y0035675D02*
X0133549Y0035675D01*
X0135124Y0037249D01*
X0135124Y0043549D01*
X0133549Y0045123D01*
X0129219Y0045123D01*
X0141635Y0042478D02*
X0144785Y0042478D01*
X0150296Y0042478D02*
X0153446Y0042478D01*
X0147146Y0056258D02*
X0147148Y0056297D01*
X0147154Y0056336D01*
X0147164Y0056374D01*
X0147177Y0056411D01*
X0147194Y0056446D01*
X0147214Y0056480D01*
X0147238Y0056511D01*
X0147265Y0056540D01*
X0147294Y0056566D01*
X0147326Y0056589D01*
X0147360Y0056609D01*
X0147396Y0056625D01*
X0147433Y0056637D01*
X0147472Y0056646D01*
X0147511Y0056651D01*
X0147550Y0056652D01*
X0147589Y0056649D01*
X0147628Y0056642D01*
X0147665Y0056631D01*
X0147702Y0056617D01*
X0147737Y0056599D01*
X0147770Y0056578D01*
X0147801Y0056553D01*
X0147829Y0056526D01*
X0147854Y0056496D01*
X0147876Y0056463D01*
X0147895Y0056429D01*
X0147910Y0056393D01*
X0147922Y0056355D01*
X0147930Y0056317D01*
X0147934Y0056278D01*
X0147934Y0056238D01*
X0147930Y0056199D01*
X0147922Y0056161D01*
X0147910Y0056123D01*
X0147895Y0056087D01*
X0147876Y0056053D01*
X0147854Y0056020D01*
X0147829Y0055990D01*
X0147801Y0055963D01*
X0147770Y0055938D01*
X0147737Y0055917D01*
X0147702Y0055899D01*
X0147665Y0055885D01*
X0147628Y0055874D01*
X0147589Y0055867D01*
X0147550Y0055864D01*
X0147511Y0055865D01*
X0147472Y0055870D01*
X0147433Y0055879D01*
X0147396Y0055891D01*
X0147360Y0055907D01*
X0147326Y0055927D01*
X0147294Y0055950D01*
X0147265Y0055976D01*
X0147238Y0056005D01*
X0147214Y0056036D01*
X0147194Y0056070D01*
X0147177Y0056105D01*
X0147164Y0056142D01*
X0147154Y0056180D01*
X0147148Y0056219D01*
X0147146Y0056258D01*
X0144785Y0062163D02*
X0141635Y0062163D01*
X0144840Y0063758D02*
X0144842Y0063786D01*
X0144848Y0063813D01*
X0144857Y0063839D01*
X0144870Y0063864D01*
X0144887Y0063887D01*
X0144906Y0063907D01*
X0144928Y0063924D01*
X0144952Y0063938D01*
X0144978Y0063948D01*
X0145005Y0063955D01*
X0145033Y0063958D01*
X0145061Y0063957D01*
X0145088Y0063952D01*
X0145115Y0063943D01*
X0145140Y0063931D01*
X0145163Y0063916D01*
X0145184Y0063897D01*
X0145202Y0063876D01*
X0145217Y0063852D01*
X0145228Y0063826D01*
X0145236Y0063800D01*
X0145240Y0063772D01*
X0145240Y0063744D01*
X0145236Y0063716D01*
X0145228Y0063690D01*
X0145217Y0063664D01*
X0145202Y0063640D01*
X0145184Y0063619D01*
X0145163Y0063600D01*
X0145140Y0063585D01*
X0145115Y0063573D01*
X0145088Y0063564D01*
X0145061Y0063559D01*
X0145033Y0063558D01*
X0145005Y0063561D01*
X0144978Y0063568D01*
X0144952Y0063578D01*
X0144928Y0063592D01*
X0144906Y0063609D01*
X0144887Y0063629D01*
X0144870Y0063652D01*
X0144857Y0063677D01*
X0144848Y0063703D01*
X0144842Y0063730D01*
X0144840Y0063758D01*
X0150296Y0062163D02*
X0153446Y0062163D01*
X0101480Y0076551D02*
X0101480Y0041905D01*
X0099905Y0040330D01*
X0065259Y0040330D01*
X0063684Y0041905D01*
X0063684Y0076551D01*
X0065259Y0078125D01*
X0099905Y0078125D01*
X0101480Y0076551D01*
D16*
X0115582Y0047387D02*
X0115332Y0047137D01*
X0115332Y0046136D01*
X0115582Y0045886D01*
X0116082Y0045886D01*
X0116332Y0046136D01*
X0116805Y0046136D02*
X0117055Y0045886D01*
X0117555Y0045886D01*
X0117806Y0046136D01*
X0117806Y0046386D01*
X0117555Y0046637D01*
X0117305Y0046637D01*
X0117555Y0046637D02*
X0117806Y0046887D01*
X0117806Y0047137D01*
X0117555Y0047387D01*
X0117055Y0047387D01*
X0116805Y0047137D01*
X0116332Y0047137D02*
X0116082Y0047387D01*
X0115582Y0047387D01*
X0137489Y0046595D02*
X0137489Y0046094D01*
X0137739Y0045844D01*
X0137489Y0045371D02*
X0138740Y0045371D01*
X0138990Y0045121D01*
X0138990Y0044621D01*
X0138740Y0044371D01*
X0137489Y0044371D01*
X0138990Y0045844D02*
X0137990Y0046845D01*
X0137739Y0046845D01*
X0137489Y0046595D01*
X0138990Y0046845D02*
X0138990Y0045844D01*
X0172066Y0042161D02*
X0173567Y0042161D01*
X0173567Y0041661D02*
X0173567Y0042662D01*
X0172566Y0041661D02*
X0172066Y0042161D01*
X0172316Y0041188D02*
X0172066Y0040938D01*
X0172066Y0040187D01*
X0173567Y0040187D01*
X0173567Y0040938D01*
X0173317Y0041188D01*
X0172316Y0041188D01*
X0173317Y0039701D02*
X0173567Y0039701D01*
X0173567Y0039451D01*
X0173317Y0039451D01*
X0173317Y0039701D01*
X0172816Y0038978D02*
X0173067Y0038728D01*
X0173067Y0037978D01*
X0173567Y0037978D02*
X0172066Y0037978D01*
X0172066Y0038728D01*
X0172316Y0038978D01*
X0172816Y0038978D01*
X0172316Y0037505D02*
X0172066Y0037255D01*
X0172066Y0036755D01*
X0172316Y0036504D01*
X0173317Y0036504D01*
X0173567Y0036755D01*
X0173567Y0037255D01*
X0173317Y0037505D01*
X0172316Y0037505D01*
X0190635Y0035175D02*
X0190189Y0035956D01*
X0190346Y0036049D01*
X0190500Y0036146D01*
X0190652Y0036247D01*
X0190801Y0036352D01*
X0190948Y0036460D01*
X0191093Y0036571D01*
X0191234Y0036686D01*
X0191373Y0036805D01*
X0191508Y0036927D01*
X0191641Y0037052D01*
X0191771Y0037180D01*
X0191897Y0037311D01*
X0192021Y0037445D01*
X0192141Y0037582D01*
X0192258Y0037722D01*
X0192371Y0037865D01*
X0192481Y0038011D01*
X0192587Y0038159D01*
X0192690Y0038310D01*
X0192789Y0038463D01*
X0192884Y0038618D01*
X0192975Y0038776D01*
X0193063Y0038936D01*
X0193147Y0039098D01*
X0193227Y0039261D01*
X0193303Y0039427D01*
X0193374Y0039595D01*
X0193442Y0039764D01*
X0193506Y0039935D01*
X0193565Y0040107D01*
X0193621Y0040281D01*
X0193672Y0040456D01*
X0193719Y0040632D01*
X0193761Y0040809D01*
X0193800Y0040988D01*
X0193834Y0041167D01*
X0193864Y0041347D01*
X0193889Y0041527D01*
X0193910Y0041708D01*
X0193926Y0041890D01*
X0193939Y0042072D01*
X0193946Y0042254D01*
X0193950Y0042436D01*
X0194849Y0042437D01*
X0194850Y0042436D01*
X0194846Y0042232D01*
X0194838Y0042028D01*
X0194824Y0041824D01*
X0194806Y0041620D01*
X0194782Y0041417D01*
X0194754Y0041215D01*
X0194721Y0041013D01*
X0194683Y0040813D01*
X0194640Y0040613D01*
X0194592Y0040414D01*
X0194540Y0040217D01*
X0194482Y0040021D01*
X0194420Y0039826D01*
X0194354Y0039633D01*
X0194282Y0039441D01*
X0194206Y0039252D01*
X0194126Y0039064D01*
X0194041Y0038878D01*
X0193951Y0038694D01*
X0193858Y0038513D01*
X0193759Y0038334D01*
X0193657Y0038157D01*
X0193550Y0037983D01*
X0193439Y0037811D01*
X0193324Y0037642D01*
X0193205Y0037476D01*
X0193082Y0037313D01*
X0192955Y0037153D01*
X0192824Y0036996D01*
X0192689Y0036842D01*
X0192551Y0036692D01*
X0192409Y0036545D01*
X0192264Y0036401D01*
X0192115Y0036261D01*
X0191963Y0036125D01*
X0191807Y0035992D01*
X0191649Y0035864D01*
X0191487Y0035739D01*
X0191322Y0035618D01*
X0191155Y0035501D01*
X0190984Y0035388D01*
X0190811Y0035279D01*
X0190636Y0035174D01*
X0190589Y0035256D01*
X0190763Y0035359D01*
X0190934Y0035467D01*
X0191102Y0035579D01*
X0191268Y0035694D01*
X0191431Y0035814D01*
X0191590Y0035938D01*
X0191747Y0036065D01*
X0191901Y0036196D01*
X0192051Y0036331D01*
X0192199Y0036469D01*
X0192342Y0036611D01*
X0192483Y0036757D01*
X0192619Y0036905D01*
X0192752Y0037057D01*
X0192882Y0037213D01*
X0193007Y0037371D01*
X0193129Y0037532D01*
X0193247Y0037696D01*
X0193361Y0037863D01*
X0193470Y0038033D01*
X0193576Y0038205D01*
X0193677Y0038380D01*
X0193775Y0038557D01*
X0193867Y0038736D01*
X0193956Y0038918D01*
X0194040Y0039102D01*
X0194120Y0039287D01*
X0194195Y0039475D01*
X0194265Y0039664D01*
X0194331Y0039855D01*
X0194392Y0040048D01*
X0194449Y0040242D01*
X0194501Y0040437D01*
X0194548Y0040633D01*
X0194590Y0040831D01*
X0194628Y0041029D01*
X0194661Y0041229D01*
X0194689Y0041429D01*
X0194712Y0041630D01*
X0194730Y0041831D01*
X0194744Y0042032D01*
X0194752Y0042234D01*
X0194756Y0042436D01*
X0194662Y0042436D01*
X0194658Y0042237D01*
X0194650Y0042037D01*
X0194637Y0041838D01*
X0194618Y0041639D01*
X0194596Y0041440D01*
X0194568Y0041243D01*
X0194535Y0041045D01*
X0194498Y0040849D01*
X0194456Y0040654D01*
X0194410Y0040460D01*
X0194358Y0040267D01*
X0194302Y0040075D01*
X0194242Y0039885D01*
X0194177Y0039696D01*
X0194107Y0039509D01*
X0194033Y0039323D01*
X0193954Y0039140D01*
X0193871Y0038958D01*
X0193783Y0038778D01*
X0193692Y0038601D01*
X0193596Y0038426D01*
X0193495Y0038253D01*
X0193391Y0038083D01*
X0193282Y0037915D01*
X0193170Y0037750D01*
X0193054Y0037588D01*
X0192933Y0037429D01*
X0192809Y0037272D01*
X0192681Y0037119D01*
X0192550Y0036968D01*
X0192414Y0036821D01*
X0192276Y0036678D01*
X0192134Y0036537D01*
X0191988Y0036400D01*
X0191839Y0036267D01*
X0191687Y0036137D01*
X0191532Y0036011D01*
X0191374Y0035889D01*
X0191213Y0035771D01*
X0191050Y0035657D01*
X0190883Y0035546D01*
X0190714Y0035440D01*
X0190543Y0035338D01*
X0190496Y0035419D01*
X0190666Y0035520D01*
X0190833Y0035625D01*
X0190997Y0035735D01*
X0191159Y0035848D01*
X0191318Y0035965D01*
X0191474Y0036085D01*
X0191628Y0036210D01*
X0191778Y0036338D01*
X0191925Y0036470D01*
X0192069Y0036605D01*
X0192209Y0036744D01*
X0192346Y0036886D01*
X0192480Y0037031D01*
X0192610Y0037180D01*
X0192736Y0037332D01*
X0192859Y0037486D01*
X0192978Y0037644D01*
X0193093Y0037804D01*
X0193204Y0037967D01*
X0193311Y0038133D01*
X0193415Y0038301D01*
X0193514Y0038472D01*
X0193609Y0038645D01*
X0193699Y0038821D01*
X0193786Y0038998D01*
X0193868Y0039178D01*
X0193946Y0039359D01*
X0194019Y0039542D01*
X0194088Y0039727D01*
X0194152Y0039914D01*
X0194212Y0040102D01*
X0194268Y0040292D01*
X0194318Y0040482D01*
X0194365Y0040674D01*
X0194406Y0040867D01*
X0194443Y0041061D01*
X0194475Y0041256D01*
X0194502Y0041452D01*
X0194525Y0041648D01*
X0194543Y0041845D01*
X0194556Y0042042D01*
X0194564Y0042239D01*
X0194568Y0042436D01*
X0194474Y0042436D01*
X0194470Y0042241D01*
X0194462Y0042046D01*
X0194449Y0041851D01*
X0194431Y0041657D01*
X0194409Y0041463D01*
X0194382Y0041270D01*
X0194350Y0041077D01*
X0194314Y0040886D01*
X0194273Y0040695D01*
X0194227Y0040505D01*
X0194177Y0040317D01*
X0194122Y0040129D01*
X0194063Y0039943D01*
X0194000Y0039759D01*
X0193931Y0039576D01*
X0193859Y0039395D01*
X0193782Y0039216D01*
X0193701Y0039038D01*
X0193615Y0038863D01*
X0193526Y0038689D01*
X0193432Y0038518D01*
X0193334Y0038350D01*
X0193232Y0038183D01*
X0193126Y0038019D01*
X0193016Y0037858D01*
X0192902Y0037700D01*
X0192785Y0037544D01*
X0192663Y0037391D01*
X0192538Y0037241D01*
X0192410Y0037094D01*
X0192278Y0036951D01*
X0192142Y0036810D01*
X0192003Y0036673D01*
X0191861Y0036539D01*
X0191716Y0036409D01*
X0191568Y0036282D01*
X0191416Y0036159D01*
X0191262Y0036040D01*
X0191105Y0035924D01*
X0190945Y0035813D01*
X0190782Y0035705D01*
X0190617Y0035601D01*
X0190449Y0035501D01*
X0190403Y0035582D01*
X0190568Y0035681D01*
X0190732Y0035784D01*
X0190892Y0035891D01*
X0191050Y0036001D01*
X0191206Y0036115D01*
X0191358Y0036233D01*
X0191508Y0036355D01*
X0191654Y0036480D01*
X0191798Y0036609D01*
X0191938Y0036741D01*
X0192076Y0036876D01*
X0192210Y0037015D01*
X0192340Y0037157D01*
X0192467Y0037302D01*
X0192591Y0037450D01*
X0192710Y0037601D01*
X0192827Y0037755D01*
X0192939Y0037912D01*
X0193048Y0038071D01*
X0193152Y0038233D01*
X0193253Y0038398D01*
X0193350Y0038564D01*
X0193443Y0038734D01*
X0193531Y0038905D01*
X0193616Y0039078D01*
X0193696Y0039254D01*
X0193772Y0039431D01*
X0193844Y0039610D01*
X0193911Y0039791D01*
X0193974Y0039973D01*
X0194032Y0040157D01*
X0194086Y0040342D01*
X0194136Y0040528D01*
X0194181Y0040716D01*
X0194222Y0040904D01*
X0194258Y0041093D01*
X0194289Y0041284D01*
X0194316Y0041475D01*
X0194338Y0041666D01*
X0194355Y0041858D01*
X0194368Y0042051D01*
X0194376Y0042243D01*
X0194380Y0042436D01*
X0194286Y0042436D01*
X0194282Y0042246D01*
X0194274Y0042055D01*
X0194262Y0041865D01*
X0194244Y0041675D01*
X0194222Y0041486D01*
X0194196Y0041298D01*
X0194165Y0041110D01*
X0194129Y0040922D01*
X0194089Y0040736D01*
X0194045Y0040551D01*
X0193996Y0040367D01*
X0193942Y0040184D01*
X0193885Y0040002D01*
X0193822Y0039822D01*
X0193756Y0039644D01*
X0193685Y0039467D01*
X0193610Y0039292D01*
X0193531Y0039118D01*
X0193447Y0038947D01*
X0193360Y0038778D01*
X0193268Y0038611D01*
X0193172Y0038446D01*
X0193073Y0038283D01*
X0192969Y0038123D01*
X0192862Y0037966D01*
X0192751Y0037811D01*
X0192636Y0037659D01*
X0192518Y0037510D01*
X0192396Y0037364D01*
X0192270Y0037220D01*
X0192141Y0037080D01*
X0192009Y0036943D01*
X0191873Y0036809D01*
X0191735Y0036678D01*
X0191593Y0036551D01*
X0191448Y0036427D01*
X0191300Y0036307D01*
X0191149Y0036191D01*
X0190996Y0036078D01*
X0190840Y0035969D01*
X0190681Y0035863D01*
X0190520Y0035762D01*
X0190356Y0035664D01*
X0190309Y0035746D01*
X0190471Y0035842D01*
X0190630Y0035942D01*
X0190787Y0036046D01*
X0190942Y0036154D01*
X0191093Y0036266D01*
X0191242Y0036381D01*
X0191388Y0036500D01*
X0191531Y0036622D01*
X0191671Y0036748D01*
X0191808Y0036877D01*
X0191942Y0037009D01*
X0192073Y0037145D01*
X0192200Y0037283D01*
X0192324Y0037425D01*
X0192445Y0037569D01*
X0192562Y0037717D01*
X0192675Y0037867D01*
X0192785Y0038020D01*
X0192891Y0038176D01*
X0192993Y0038334D01*
X0193092Y0038494D01*
X0193186Y0038657D01*
X0193277Y0038822D01*
X0193363Y0038989D01*
X0193446Y0039158D01*
X0193524Y0039329D01*
X0193598Y0039502D01*
X0193668Y0039677D01*
X0193734Y0039854D01*
X0193795Y0040032D01*
X0193852Y0040211D01*
X0193905Y0040392D01*
X0193954Y0040574D01*
X0193998Y0040757D01*
X0194037Y0040941D01*
X0194072Y0041126D01*
X0194103Y0041311D01*
X0194129Y0041498D01*
X0194151Y0041685D01*
X0194168Y0041872D01*
X0194180Y0042060D01*
X0194188Y0042248D01*
X0194192Y0042436D01*
X0194098Y0042436D01*
X0194094Y0042250D01*
X0194086Y0042065D01*
X0194074Y0041879D01*
X0194057Y0041694D01*
X0194036Y0041509D01*
X0194010Y0041325D01*
X0193980Y0041142D01*
X0193945Y0040959D01*
X0193906Y0040777D01*
X0193862Y0040596D01*
X0193815Y0040417D01*
X0193762Y0040238D01*
X0193706Y0040061D01*
X0193645Y0039885D01*
X0193580Y0039711D01*
X0193511Y0039538D01*
X0193438Y0039367D01*
X0193361Y0039198D01*
X0193279Y0039031D01*
X0193194Y0038866D01*
X0193104Y0038703D01*
X0193011Y0038542D01*
X0192914Y0038384D01*
X0192813Y0038228D01*
X0192708Y0038074D01*
X0192600Y0037923D01*
X0192488Y0037774D01*
X0192372Y0037629D01*
X0192253Y0037486D01*
X0192131Y0037346D01*
X0192005Y0037209D01*
X0191876Y0037075D01*
X0191743Y0036945D01*
X0191608Y0036817D01*
X0191470Y0036693D01*
X0191328Y0036572D01*
X0191184Y0036455D01*
X0191037Y0036341D01*
X0190887Y0036231D01*
X0190735Y0036124D01*
X0190580Y0036022D01*
X0190422Y0035923D01*
X0190263Y0035827D01*
X0190216Y0035909D01*
X0190374Y0036003D01*
X0190529Y0036101D01*
X0190682Y0036202D01*
X0190833Y0036308D01*
X0190981Y0036417D01*
X0191126Y0036529D01*
X0191268Y0036645D01*
X0191408Y0036764D01*
X0191545Y0036887D01*
X0191678Y0037013D01*
X0191809Y0037142D01*
X0191937Y0037274D01*
X0192061Y0037409D01*
X0192182Y0037547D01*
X0192299Y0037688D01*
X0192413Y0037832D01*
X0192524Y0037979D01*
X0192631Y0038128D01*
X0192735Y0038280D01*
X0192834Y0038434D01*
X0192930Y0038590D01*
X0193022Y0038749D01*
X0193111Y0038910D01*
X0193195Y0039073D01*
X0193276Y0039238D01*
X0193352Y0039405D01*
X0193424Y0039574D01*
X0193493Y0039745D01*
X0193557Y0039917D01*
X0193617Y0040090D01*
X0193673Y0040265D01*
X0193724Y0040442D01*
X0193771Y0040619D01*
X0193814Y0040798D01*
X0193853Y0040977D01*
X0193887Y0041158D01*
X0193917Y0041339D01*
X0193942Y0041521D01*
X0193964Y0041703D01*
X0193980Y0041886D01*
X0193993Y0042069D01*
X0194000Y0042253D01*
X0194004Y0042436D01*
X0186449Y0034037D02*
X0186449Y0034937D01*
X0186450Y0034936D02*
X0186634Y0034940D01*
X0186819Y0034948D01*
X0187003Y0034960D01*
X0187187Y0034977D01*
X0187371Y0034999D01*
X0187554Y0035025D01*
X0187736Y0035055D01*
X0187917Y0035090D01*
X0188098Y0035129D01*
X0188278Y0035173D01*
X0188456Y0035221D01*
X0188633Y0035274D01*
X0188809Y0035331D01*
X0188983Y0035392D01*
X0189156Y0035457D01*
X0189327Y0035527D01*
X0189497Y0035600D01*
X0189664Y0035678D01*
X0189830Y0035760D01*
X0189994Y0035846D01*
X0190155Y0035936D01*
X0190314Y0036030D01*
X0190785Y0035264D01*
X0190786Y0035263D01*
X0190607Y0035158D01*
X0190426Y0035057D01*
X0190243Y0034960D01*
X0190057Y0034868D01*
X0189869Y0034781D01*
X0189679Y0034698D01*
X0189487Y0034620D01*
X0189293Y0034547D01*
X0189097Y0034478D01*
X0188900Y0034414D01*
X0188701Y0034355D01*
X0188501Y0034301D01*
X0188299Y0034252D01*
X0188097Y0034208D01*
X0187893Y0034169D01*
X0187689Y0034135D01*
X0187483Y0034106D01*
X0187277Y0034082D01*
X0187071Y0034063D01*
X0186864Y0034049D01*
X0186657Y0034040D01*
X0186450Y0034036D01*
X0186450Y0034130D01*
X0186655Y0034134D01*
X0186859Y0034143D01*
X0187064Y0034156D01*
X0187268Y0034175D01*
X0187472Y0034199D01*
X0187675Y0034228D01*
X0187877Y0034262D01*
X0188078Y0034300D01*
X0188278Y0034344D01*
X0188478Y0034392D01*
X0188675Y0034446D01*
X0188872Y0034504D01*
X0189067Y0034567D01*
X0189260Y0034635D01*
X0189452Y0034707D01*
X0189642Y0034785D01*
X0189830Y0034866D01*
X0190016Y0034953D01*
X0190200Y0035044D01*
X0190381Y0035139D01*
X0190560Y0035239D01*
X0190736Y0035343D01*
X0190687Y0035423D01*
X0190513Y0035320D01*
X0190336Y0035222D01*
X0190156Y0035127D01*
X0189975Y0035037D01*
X0189791Y0034952D01*
X0189605Y0034871D01*
X0189418Y0034795D01*
X0189228Y0034723D01*
X0189037Y0034656D01*
X0188844Y0034594D01*
X0188650Y0034536D01*
X0188454Y0034483D01*
X0188257Y0034435D01*
X0188059Y0034392D01*
X0187860Y0034354D01*
X0187661Y0034321D01*
X0187460Y0034292D01*
X0187259Y0034269D01*
X0187057Y0034250D01*
X0186855Y0034237D01*
X0186652Y0034228D01*
X0186450Y0034224D01*
X0186450Y0034318D01*
X0186650Y0034322D01*
X0186850Y0034330D01*
X0187050Y0034344D01*
X0187249Y0034362D01*
X0187448Y0034386D01*
X0187646Y0034414D01*
X0187844Y0034447D01*
X0188041Y0034484D01*
X0188236Y0034527D01*
X0188431Y0034575D01*
X0188624Y0034627D01*
X0188816Y0034684D01*
X0189007Y0034745D01*
X0189196Y0034811D01*
X0189383Y0034882D01*
X0189569Y0034958D01*
X0189752Y0035038D01*
X0189934Y0035122D01*
X0190113Y0035211D01*
X0190291Y0035304D01*
X0190466Y0035402D01*
X0190638Y0035503D01*
X0190589Y0035584D01*
X0190418Y0035483D01*
X0190245Y0035387D01*
X0190070Y0035294D01*
X0189893Y0035207D01*
X0189713Y0035123D01*
X0189532Y0035044D01*
X0189349Y0034970D01*
X0189163Y0034900D01*
X0188977Y0034834D01*
X0188788Y0034773D01*
X0188599Y0034717D01*
X0188408Y0034666D01*
X0188215Y0034619D01*
X0188022Y0034577D01*
X0187828Y0034539D01*
X0187632Y0034507D01*
X0187436Y0034479D01*
X0187240Y0034456D01*
X0187043Y0034438D01*
X0186845Y0034424D01*
X0186648Y0034416D01*
X0186450Y0034412D01*
X0186450Y0034506D01*
X0186645Y0034510D01*
X0186841Y0034518D01*
X0187036Y0034531D01*
X0187230Y0034549D01*
X0187425Y0034572D01*
X0187618Y0034600D01*
X0187811Y0034632D01*
X0188003Y0034669D01*
X0188194Y0034710D01*
X0188384Y0034757D01*
X0188573Y0034808D01*
X0188761Y0034863D01*
X0188947Y0034923D01*
X0189131Y0034988D01*
X0189314Y0035057D01*
X0189495Y0035131D01*
X0189675Y0035209D01*
X0189852Y0035291D01*
X0190027Y0035378D01*
X0190200Y0035469D01*
X0190371Y0035564D01*
X0190539Y0035664D01*
X0190490Y0035744D01*
X0190324Y0035645D01*
X0190155Y0035551D01*
X0189984Y0035461D01*
X0189811Y0035376D01*
X0189636Y0035294D01*
X0189459Y0035217D01*
X0189280Y0035145D01*
X0189099Y0035076D01*
X0188917Y0035012D01*
X0188733Y0034953D01*
X0188547Y0034898D01*
X0188361Y0034848D01*
X0188173Y0034802D01*
X0187984Y0034761D01*
X0187795Y0034724D01*
X0187604Y0034692D01*
X0187413Y0034665D01*
X0187221Y0034643D01*
X0187029Y0034625D01*
X0186836Y0034612D01*
X0186643Y0034604D01*
X0186450Y0034600D01*
X0186450Y0034694D01*
X0186640Y0034698D01*
X0186831Y0034706D01*
X0187022Y0034719D01*
X0187212Y0034736D01*
X0187401Y0034759D01*
X0187590Y0034785D01*
X0187778Y0034817D01*
X0187966Y0034853D01*
X0188152Y0034894D01*
X0188338Y0034939D01*
X0188522Y0034988D01*
X0188705Y0035043D01*
X0188886Y0035101D01*
X0189067Y0035164D01*
X0189245Y0035232D01*
X0189422Y0035304D01*
X0189597Y0035380D01*
X0189770Y0035460D01*
X0189941Y0035545D01*
X0190110Y0035634D01*
X0190277Y0035727D01*
X0190441Y0035824D01*
X0190392Y0035904D01*
X0190229Y0035808D01*
X0190065Y0035716D01*
X0189898Y0035629D01*
X0189729Y0035545D01*
X0189558Y0035466D01*
X0189385Y0035390D01*
X0189210Y0035319D01*
X0189034Y0035253D01*
X0188856Y0035190D01*
X0188677Y0035132D01*
X0188496Y0035079D01*
X0188314Y0035030D01*
X0188131Y0034985D01*
X0187947Y0034945D01*
X0187762Y0034909D01*
X0187576Y0034878D01*
X0187389Y0034852D01*
X0187202Y0034830D01*
X0187014Y0034813D01*
X0186826Y0034800D01*
X0186638Y0034792D01*
X0186450Y0034788D01*
X0186450Y0034882D01*
X0186636Y0034886D01*
X0186822Y0034894D01*
X0187007Y0034906D01*
X0187193Y0034923D01*
X0187378Y0034945D01*
X0187562Y0034971D01*
X0187745Y0035002D01*
X0187928Y0035037D01*
X0188110Y0035077D01*
X0188291Y0035121D01*
X0188471Y0035169D01*
X0188649Y0035222D01*
X0188826Y0035279D01*
X0189002Y0035341D01*
X0189176Y0035407D01*
X0189348Y0035477D01*
X0189519Y0035551D01*
X0189688Y0035630D01*
X0189855Y0035712D01*
X0190019Y0035799D01*
X0190182Y0035889D01*
X0190342Y0035984D01*
X0182438Y0035023D02*
X0182865Y0035815D01*
X0183026Y0035732D01*
X0183189Y0035653D01*
X0183354Y0035578D01*
X0183521Y0035506D01*
X0183690Y0035439D01*
X0183860Y0035376D01*
X0184032Y0035317D01*
X0184205Y0035262D01*
X0184379Y0035212D01*
X0184554Y0035165D01*
X0184731Y0035123D01*
X0184908Y0035085D01*
X0185086Y0035051D01*
X0185265Y0035022D01*
X0185445Y0034997D01*
X0185625Y0034976D01*
X0185806Y0034959D01*
X0185987Y0034947D01*
X0186169Y0034940D01*
X0186350Y0034936D01*
X0186350Y0034037D01*
X0186350Y0034036D01*
X0186146Y0034040D01*
X0185943Y0034048D01*
X0185740Y0034062D01*
X0185537Y0034080D01*
X0185334Y0034103D01*
X0185133Y0034132D01*
X0184932Y0034165D01*
X0184731Y0034202D01*
X0184532Y0034245D01*
X0184334Y0034292D01*
X0184137Y0034345D01*
X0183942Y0034401D01*
X0183748Y0034463D01*
X0183555Y0034529D01*
X0183364Y0034600D01*
X0183175Y0034676D01*
X0182987Y0034756D01*
X0182802Y0034840D01*
X0182619Y0034929D01*
X0182438Y0035023D01*
X0182482Y0035105D01*
X0182661Y0035013D01*
X0182843Y0034925D01*
X0183026Y0034842D01*
X0183211Y0034762D01*
X0183398Y0034688D01*
X0183587Y0034618D01*
X0183777Y0034552D01*
X0183969Y0034491D01*
X0184162Y0034435D01*
X0184357Y0034384D01*
X0184553Y0034337D01*
X0184750Y0034295D01*
X0184948Y0034257D01*
X0185146Y0034225D01*
X0185346Y0034197D01*
X0185546Y0034174D01*
X0185747Y0034156D01*
X0185947Y0034142D01*
X0186149Y0034134D01*
X0186350Y0034130D01*
X0186350Y0034224D01*
X0186151Y0034228D01*
X0185952Y0034236D01*
X0185753Y0034249D01*
X0185555Y0034267D01*
X0185358Y0034290D01*
X0185160Y0034318D01*
X0184964Y0034350D01*
X0184768Y0034387D01*
X0184574Y0034428D01*
X0184380Y0034475D01*
X0184188Y0034526D01*
X0183997Y0034581D01*
X0183807Y0034641D01*
X0183619Y0034706D01*
X0183432Y0034775D01*
X0183247Y0034849D01*
X0183064Y0034927D01*
X0182883Y0035010D01*
X0182704Y0035097D01*
X0182527Y0035188D01*
X0182572Y0035271D01*
X0182746Y0035181D01*
X0182923Y0035095D01*
X0183102Y0035013D01*
X0183283Y0034936D01*
X0183466Y0034863D01*
X0183651Y0034795D01*
X0183837Y0034731D01*
X0184024Y0034671D01*
X0184213Y0034616D01*
X0184403Y0034566D01*
X0184594Y0034520D01*
X0184787Y0034479D01*
X0184980Y0034442D01*
X0185174Y0034410D01*
X0185369Y0034383D01*
X0185565Y0034361D01*
X0185760Y0034343D01*
X0185957Y0034330D01*
X0186153Y0034322D01*
X0186350Y0034318D01*
X0186350Y0034412D01*
X0186156Y0034416D01*
X0185961Y0034424D01*
X0185767Y0034437D01*
X0185574Y0034454D01*
X0185381Y0034477D01*
X0185188Y0034503D01*
X0184996Y0034535D01*
X0184805Y0034571D01*
X0184615Y0034612D01*
X0184426Y0034657D01*
X0184238Y0034707D01*
X0184052Y0034761D01*
X0183866Y0034820D01*
X0183682Y0034883D01*
X0183500Y0034951D01*
X0183320Y0035023D01*
X0183141Y0035099D01*
X0182964Y0035180D01*
X0182789Y0035265D01*
X0182616Y0035354D01*
X0182661Y0035436D01*
X0182831Y0035348D01*
X0183004Y0035265D01*
X0183179Y0035185D01*
X0183356Y0035110D01*
X0183534Y0035038D01*
X0183714Y0034972D01*
X0183896Y0034909D01*
X0184079Y0034851D01*
X0184263Y0034797D01*
X0184449Y0034748D01*
X0184636Y0034703D01*
X0184824Y0034663D01*
X0185012Y0034628D01*
X0185202Y0034596D01*
X0185392Y0034570D01*
X0185583Y0034548D01*
X0185774Y0034531D01*
X0185966Y0034518D01*
X0186158Y0034510D01*
X0186350Y0034506D01*
X0186350Y0034600D01*
X0186160Y0034604D01*
X0185971Y0034612D01*
X0185781Y0034624D01*
X0185592Y0034641D01*
X0185404Y0034663D01*
X0185216Y0034689D01*
X0185029Y0034720D01*
X0184842Y0034755D01*
X0184657Y0034795D01*
X0184472Y0034839D01*
X0184289Y0034888D01*
X0184106Y0034941D01*
X0183926Y0034998D01*
X0183746Y0035060D01*
X0183568Y0035126D01*
X0183392Y0035196D01*
X0183217Y0035271D01*
X0183045Y0035349D01*
X0182874Y0035432D01*
X0182705Y0035519D01*
X0182750Y0035602D01*
X0182916Y0035516D01*
X0183085Y0035434D01*
X0183256Y0035357D01*
X0183428Y0035283D01*
X0183602Y0035214D01*
X0183778Y0035148D01*
X0183955Y0035087D01*
X0184134Y0035031D01*
X0184314Y0034978D01*
X0184495Y0034930D01*
X0184677Y0034887D01*
X0184861Y0034848D01*
X0185045Y0034813D01*
X0185230Y0034782D01*
X0185415Y0034756D01*
X0185602Y0034735D01*
X0185788Y0034718D01*
X0185975Y0034706D01*
X0186163Y0034698D01*
X0186350Y0034694D01*
X0186350Y0034788D01*
X0186165Y0034792D01*
X0185980Y0034799D01*
X0185795Y0034812D01*
X0185611Y0034829D01*
X0185427Y0034850D01*
X0185244Y0034875D01*
X0185061Y0034905D01*
X0184879Y0034940D01*
X0184698Y0034978D01*
X0184518Y0035022D01*
X0184339Y0035069D01*
X0184161Y0035121D01*
X0183985Y0035177D01*
X0183810Y0035237D01*
X0183636Y0035301D01*
X0183464Y0035370D01*
X0183294Y0035442D01*
X0183126Y0035519D01*
X0182959Y0035600D01*
X0182794Y0035685D01*
X0182839Y0035767D01*
X0183001Y0035684D01*
X0183166Y0035604D01*
X0183332Y0035528D01*
X0183500Y0035457D01*
X0183670Y0035389D01*
X0183842Y0035325D01*
X0184015Y0035266D01*
X0184189Y0035211D01*
X0184364Y0035160D01*
X0184541Y0035113D01*
X0184719Y0035070D01*
X0184898Y0035032D01*
X0185077Y0034998D01*
X0185258Y0034968D01*
X0185439Y0034943D01*
X0185620Y0034922D01*
X0185802Y0034906D01*
X0185985Y0034893D01*
X0186167Y0034886D01*
X0186350Y0034882D01*
X0180952Y0048945D02*
X0181529Y0048253D01*
X0181528Y0048254D02*
X0181391Y0048135D01*
X0181257Y0048014D01*
X0181126Y0047889D01*
X0180998Y0047761D01*
X0180874Y0047630D01*
X0180752Y0047496D01*
X0180633Y0047359D01*
X0180518Y0047220D01*
X0180407Y0047077D01*
X0180298Y0046932D01*
X0180193Y0046785D01*
X0180092Y0046635D01*
X0179995Y0046483D01*
X0179901Y0046328D01*
X0179810Y0046171D01*
X0179724Y0046012D01*
X0179641Y0045851D01*
X0179563Y0045688D01*
X0179488Y0045523D01*
X0179417Y0045357D01*
X0179350Y0045189D01*
X0179288Y0045019D01*
X0179229Y0044848D01*
X0179174Y0044675D01*
X0179124Y0044502D01*
X0179078Y0044327D01*
X0179036Y0044151D01*
X0178998Y0043974D01*
X0178965Y0043796D01*
X0178935Y0043617D01*
X0178910Y0043438D01*
X0178890Y0043258D01*
X0178873Y0043078D01*
X0178861Y0042898D01*
X0178854Y0042717D01*
X0178850Y0042536D01*
X0177951Y0042535D01*
X0177950Y0042536D01*
X0177954Y0042739D01*
X0177962Y0042941D01*
X0177976Y0043144D01*
X0177994Y0043346D01*
X0178017Y0043547D01*
X0178045Y0043748D01*
X0178078Y0043948D01*
X0178115Y0044148D01*
X0178157Y0044346D01*
X0178204Y0044544D01*
X0178256Y0044740D01*
X0178313Y0044934D01*
X0178374Y0045128D01*
X0178439Y0045320D01*
X0178510Y0045510D01*
X0178585Y0045699D01*
X0178664Y0045885D01*
X0178748Y0046070D01*
X0178836Y0046253D01*
X0178929Y0046433D01*
X0179025Y0046611D01*
X0179127Y0046787D01*
X0179232Y0046960D01*
X0179341Y0047131D01*
X0179455Y0047299D01*
X0179572Y0047465D01*
X0179694Y0047627D01*
X0179819Y0047787D01*
X0179948Y0047943D01*
X0180081Y0048096D01*
X0180218Y0048246D01*
X0180358Y0048393D01*
X0180501Y0048536D01*
X0180648Y0048676D01*
X0180798Y0048813D01*
X0180952Y0048945D01*
X0181012Y0048873D01*
X0180860Y0048742D01*
X0180712Y0048607D01*
X0180567Y0048469D01*
X0180425Y0048327D01*
X0180286Y0048182D01*
X0180151Y0048034D01*
X0180020Y0047882D01*
X0179892Y0047727D01*
X0179768Y0047570D01*
X0179648Y0047409D01*
X0179532Y0047246D01*
X0179420Y0047079D01*
X0179312Y0046911D01*
X0179207Y0046739D01*
X0179107Y0046565D01*
X0179012Y0046389D01*
X0178920Y0046211D01*
X0178833Y0046030D01*
X0178750Y0045847D01*
X0178671Y0045663D01*
X0178597Y0045477D01*
X0178528Y0045288D01*
X0178463Y0045099D01*
X0178403Y0044907D01*
X0178347Y0044715D01*
X0178296Y0044521D01*
X0178249Y0044326D01*
X0178207Y0044130D01*
X0178170Y0043933D01*
X0178138Y0043735D01*
X0178110Y0043536D01*
X0178087Y0043337D01*
X0178069Y0043137D01*
X0178056Y0042937D01*
X0178048Y0042736D01*
X0178044Y0042536D01*
X0178138Y0042536D01*
X0178142Y0042734D01*
X0178150Y0042932D01*
X0178163Y0043130D01*
X0178181Y0043328D01*
X0178204Y0043525D01*
X0178231Y0043721D01*
X0178263Y0043917D01*
X0178299Y0044111D01*
X0178341Y0044305D01*
X0178387Y0044498D01*
X0178437Y0044690D01*
X0178493Y0044880D01*
X0178552Y0045069D01*
X0178617Y0045257D01*
X0178685Y0045443D01*
X0178758Y0045627D01*
X0178836Y0045810D01*
X0178918Y0045990D01*
X0179004Y0046169D01*
X0179095Y0046345D01*
X0179189Y0046519D01*
X0179288Y0046691D01*
X0179391Y0046861D01*
X0179498Y0047028D01*
X0179609Y0047192D01*
X0179724Y0047353D01*
X0179843Y0047512D01*
X0179965Y0047668D01*
X0180091Y0047821D01*
X0180221Y0047971D01*
X0180355Y0048118D01*
X0180492Y0048261D01*
X0180632Y0048401D01*
X0180775Y0048538D01*
X0180922Y0048671D01*
X0181072Y0048801D01*
X0181132Y0048729D01*
X0180984Y0048600D01*
X0180839Y0048469D01*
X0180697Y0048334D01*
X0180559Y0048195D01*
X0180423Y0048053D01*
X0180291Y0047908D01*
X0180163Y0047760D01*
X0180038Y0047609D01*
X0179917Y0047455D01*
X0179800Y0047298D01*
X0179686Y0047138D01*
X0179577Y0046976D01*
X0179471Y0046811D01*
X0179369Y0046643D01*
X0179271Y0046473D01*
X0179178Y0046301D01*
X0179088Y0046127D01*
X0179003Y0045950D01*
X0178922Y0045772D01*
X0178845Y0045592D01*
X0178773Y0045409D01*
X0178705Y0045226D01*
X0178642Y0045040D01*
X0178583Y0044853D01*
X0178528Y0044665D01*
X0178478Y0044476D01*
X0178433Y0044285D01*
X0178392Y0044093D01*
X0178355Y0043901D01*
X0178324Y0043707D01*
X0178297Y0043513D01*
X0178275Y0043318D01*
X0178257Y0043123D01*
X0178244Y0042928D01*
X0178236Y0042732D01*
X0178232Y0042536D01*
X0178326Y0042536D01*
X0178330Y0042730D01*
X0178338Y0042923D01*
X0178351Y0043116D01*
X0178368Y0043309D01*
X0178390Y0043502D01*
X0178417Y0043694D01*
X0178448Y0043885D01*
X0178484Y0044075D01*
X0178524Y0044265D01*
X0178569Y0044453D01*
X0178619Y0044640D01*
X0178673Y0044826D01*
X0178731Y0045011D01*
X0178794Y0045194D01*
X0178861Y0045376D01*
X0178932Y0045556D01*
X0179008Y0045734D01*
X0179088Y0045911D01*
X0179172Y0046085D01*
X0179261Y0046257D01*
X0179353Y0046427D01*
X0179450Y0046595D01*
X0179551Y0046761D01*
X0179655Y0046924D01*
X0179763Y0047084D01*
X0179876Y0047242D01*
X0179992Y0047397D01*
X0180111Y0047550D01*
X0180235Y0047699D01*
X0180361Y0047846D01*
X0180492Y0047989D01*
X0180625Y0048129D01*
X0180762Y0048266D01*
X0180903Y0048399D01*
X0181046Y0048530D01*
X0181193Y0048656D01*
X0181253Y0048584D01*
X0181108Y0048459D01*
X0180966Y0048330D01*
X0180828Y0048198D01*
X0180692Y0048063D01*
X0180560Y0047924D01*
X0180431Y0047783D01*
X0180306Y0047638D01*
X0180184Y0047491D01*
X0180066Y0047340D01*
X0179951Y0047187D01*
X0179841Y0047031D01*
X0179733Y0046872D01*
X0179630Y0046711D01*
X0179531Y0046547D01*
X0179435Y0046381D01*
X0179344Y0046213D01*
X0179257Y0046043D01*
X0179173Y0045871D01*
X0179094Y0045696D01*
X0179019Y0045520D01*
X0178949Y0045342D01*
X0178882Y0045163D01*
X0178820Y0044982D01*
X0178763Y0044799D01*
X0178709Y0044615D01*
X0178660Y0044430D01*
X0178616Y0044244D01*
X0178576Y0044057D01*
X0178541Y0043869D01*
X0178510Y0043680D01*
X0178483Y0043490D01*
X0178462Y0043300D01*
X0178444Y0043110D01*
X0178432Y0042919D01*
X0178424Y0042727D01*
X0178420Y0042536D01*
X0178514Y0042536D01*
X0178518Y0042725D01*
X0178526Y0042914D01*
X0178538Y0043103D01*
X0178555Y0043291D01*
X0178577Y0043479D01*
X0178603Y0043666D01*
X0178633Y0043853D01*
X0178668Y0044039D01*
X0178708Y0044224D01*
X0178752Y0044408D01*
X0178800Y0044590D01*
X0178853Y0044772D01*
X0178910Y0044952D01*
X0178971Y0045131D01*
X0179037Y0045309D01*
X0179106Y0045485D01*
X0179180Y0045659D01*
X0179258Y0045831D01*
X0179341Y0046001D01*
X0179427Y0046169D01*
X0179517Y0046335D01*
X0179612Y0046499D01*
X0179710Y0046661D01*
X0179812Y0046820D01*
X0179918Y0046977D01*
X0180027Y0047131D01*
X0180141Y0047283D01*
X0180257Y0047431D01*
X0180378Y0047577D01*
X0180501Y0047720D01*
X0180629Y0047860D01*
X0180759Y0047997D01*
X0180893Y0048131D01*
X0181030Y0048261D01*
X0181170Y0048388D01*
X0181313Y0048512D01*
X0181373Y0048440D01*
X0181232Y0048317D01*
X0181094Y0048192D01*
X0180958Y0048063D01*
X0180826Y0047931D01*
X0180697Y0047796D01*
X0180572Y0047657D01*
X0180449Y0047516D01*
X0180330Y0047372D01*
X0180215Y0047225D01*
X0180103Y0047076D01*
X0179995Y0046923D01*
X0179890Y0046768D01*
X0179790Y0046611D01*
X0179693Y0046451D01*
X0179599Y0046290D01*
X0179510Y0046125D01*
X0179425Y0045959D01*
X0179344Y0045791D01*
X0179266Y0045621D01*
X0179193Y0045449D01*
X0179124Y0045275D01*
X0179060Y0045100D01*
X0178999Y0044923D01*
X0178943Y0044745D01*
X0178891Y0044566D01*
X0178843Y0044385D01*
X0178800Y0044203D01*
X0178761Y0044021D01*
X0178726Y0043837D01*
X0178696Y0043653D01*
X0178670Y0043468D01*
X0178649Y0043282D01*
X0178632Y0043096D01*
X0178620Y0042909D01*
X0178612Y0042723D01*
X0178608Y0042536D01*
X0178702Y0042536D01*
X0178706Y0042720D01*
X0178713Y0042905D01*
X0178726Y0043089D01*
X0178742Y0043273D01*
X0178763Y0043456D01*
X0178789Y0043639D01*
X0178819Y0043821D01*
X0178853Y0044002D01*
X0178891Y0044183D01*
X0178934Y0044362D01*
X0178981Y0044541D01*
X0179033Y0044718D01*
X0179088Y0044894D01*
X0179148Y0045069D01*
X0179212Y0045242D01*
X0179280Y0045413D01*
X0179352Y0045583D01*
X0179429Y0045751D01*
X0179509Y0045917D01*
X0179593Y0046081D01*
X0179681Y0046244D01*
X0179773Y0046404D01*
X0179869Y0046561D01*
X0179969Y0046717D01*
X0180072Y0046870D01*
X0180179Y0047020D01*
X0180289Y0047168D01*
X0180403Y0047313D01*
X0180521Y0047455D01*
X0180642Y0047595D01*
X0180766Y0047731D01*
X0180893Y0047865D01*
X0181024Y0047995D01*
X0181157Y0048123D01*
X0181294Y0048247D01*
X0181433Y0048367D01*
X0181494Y0048295D01*
X0181356Y0048176D01*
X0181221Y0048053D01*
X0181089Y0047928D01*
X0180960Y0047799D01*
X0180834Y0047667D01*
X0180712Y0047532D01*
X0180592Y0047394D01*
X0180476Y0047254D01*
X0180364Y0047110D01*
X0180255Y0046964D01*
X0180149Y0046816D01*
X0180047Y0046665D01*
X0179949Y0046511D01*
X0179854Y0046356D01*
X0179763Y0046198D01*
X0179676Y0046037D01*
X0179593Y0045875D01*
X0179514Y0045711D01*
X0179439Y0045545D01*
X0179367Y0045377D01*
X0179300Y0045208D01*
X0179237Y0045037D01*
X0179178Y0044865D01*
X0179123Y0044691D01*
X0179072Y0044516D01*
X0179025Y0044340D01*
X0178983Y0044162D01*
X0178945Y0043984D01*
X0178911Y0043805D01*
X0178882Y0043625D01*
X0178857Y0043445D01*
X0178836Y0043264D01*
X0178819Y0043082D01*
X0178807Y0042900D01*
X0178800Y0042718D01*
X0178796Y0042536D01*
X0194849Y0042535D02*
X0193949Y0042535D01*
X0193950Y0042536D02*
X0193946Y0042720D01*
X0193938Y0042905D01*
X0193926Y0043089D01*
X0193909Y0043272D01*
X0193887Y0043456D01*
X0193862Y0043638D01*
X0193831Y0043820D01*
X0193796Y0044001D01*
X0193757Y0044182D01*
X0193713Y0044361D01*
X0193665Y0044539D01*
X0193613Y0044716D01*
X0193556Y0044892D01*
X0193496Y0045066D01*
X0193430Y0045238D01*
X0193361Y0045409D01*
X0193288Y0045579D01*
X0193210Y0045746D01*
X0193128Y0045911D01*
X0193043Y0046075D01*
X0192953Y0046236D01*
X0192859Y0046395D01*
X0192762Y0046552D01*
X0192661Y0046706D01*
X0192556Y0046858D01*
X0192447Y0047007D01*
X0192335Y0047153D01*
X0192219Y0047297D01*
X0192100Y0047437D01*
X0191977Y0047575D01*
X0191851Y0047710D01*
X0191722Y0047842D01*
X0191589Y0047970D01*
X0191454Y0048095D01*
X0191315Y0048217D01*
X0191896Y0048904D01*
X0192052Y0048768D01*
X0192204Y0048627D01*
X0192353Y0048483D01*
X0192498Y0048336D01*
X0192639Y0048185D01*
X0192776Y0048031D01*
X0192910Y0047873D01*
X0193040Y0047712D01*
X0193166Y0047548D01*
X0193288Y0047381D01*
X0193406Y0047211D01*
X0193519Y0047038D01*
X0193628Y0046862D01*
X0193733Y0046684D01*
X0193834Y0046503D01*
X0193930Y0046320D01*
X0194022Y0046135D01*
X0194109Y0045947D01*
X0194191Y0045757D01*
X0194269Y0045566D01*
X0194342Y0045372D01*
X0194410Y0045177D01*
X0194474Y0044980D01*
X0194532Y0044782D01*
X0194586Y0044582D01*
X0194635Y0044381D01*
X0194679Y0044179D01*
X0194718Y0043976D01*
X0194752Y0043772D01*
X0194781Y0043567D01*
X0194805Y0043362D01*
X0194823Y0043156D01*
X0194837Y0042949D01*
X0194846Y0042743D01*
X0194850Y0042536D01*
X0194756Y0042536D01*
X0194752Y0042740D01*
X0194743Y0042945D01*
X0194730Y0043149D01*
X0194711Y0043352D01*
X0194687Y0043555D01*
X0194659Y0043758D01*
X0194625Y0043960D01*
X0194587Y0044160D01*
X0194543Y0044360D01*
X0194495Y0044559D01*
X0194442Y0044756D01*
X0194384Y0044953D01*
X0194321Y0045147D01*
X0194253Y0045340D01*
X0194181Y0045532D01*
X0194104Y0045721D01*
X0194023Y0045909D01*
X0193937Y0046094D01*
X0193846Y0046277D01*
X0193751Y0046459D01*
X0193652Y0046637D01*
X0193548Y0046813D01*
X0193440Y0046987D01*
X0193328Y0047158D01*
X0193211Y0047326D01*
X0193091Y0047491D01*
X0192966Y0047654D01*
X0192838Y0047813D01*
X0192706Y0047969D01*
X0192570Y0048121D01*
X0192430Y0048271D01*
X0192287Y0048416D01*
X0192140Y0048559D01*
X0191989Y0048697D01*
X0191836Y0048832D01*
X0191775Y0048761D01*
X0191927Y0048627D01*
X0192076Y0048490D01*
X0192221Y0048349D01*
X0192362Y0048205D01*
X0192501Y0048058D01*
X0192635Y0047907D01*
X0192766Y0047753D01*
X0192893Y0047595D01*
X0193016Y0047435D01*
X0193135Y0047271D01*
X0193250Y0047105D01*
X0193361Y0046936D01*
X0193468Y0046765D01*
X0193570Y0046590D01*
X0193669Y0046414D01*
X0193763Y0046235D01*
X0193852Y0046053D01*
X0193937Y0045870D01*
X0194018Y0045685D01*
X0194094Y0045497D01*
X0194165Y0045308D01*
X0194232Y0045117D01*
X0194294Y0044925D01*
X0194351Y0044731D01*
X0194404Y0044536D01*
X0194451Y0044339D01*
X0194494Y0044142D01*
X0194532Y0043943D01*
X0194566Y0043744D01*
X0194594Y0043544D01*
X0194617Y0043343D01*
X0194636Y0043142D01*
X0194650Y0042940D01*
X0194658Y0042738D01*
X0194662Y0042536D01*
X0194568Y0042536D01*
X0194564Y0042736D01*
X0194556Y0042935D01*
X0194542Y0043135D01*
X0194524Y0043334D01*
X0194501Y0043532D01*
X0194473Y0043730D01*
X0194440Y0043927D01*
X0194402Y0044123D01*
X0194360Y0044319D01*
X0194313Y0044513D01*
X0194261Y0044706D01*
X0194204Y0044897D01*
X0194143Y0045088D01*
X0194077Y0045276D01*
X0194006Y0045463D01*
X0193931Y0045648D01*
X0193851Y0045832D01*
X0193767Y0046013D01*
X0193679Y0046192D01*
X0193586Y0046369D01*
X0193489Y0046544D01*
X0193387Y0046716D01*
X0193282Y0046885D01*
X0193172Y0047053D01*
X0193058Y0047217D01*
X0192941Y0047378D01*
X0192819Y0047537D01*
X0192694Y0047692D01*
X0192564Y0047845D01*
X0192431Y0047994D01*
X0192295Y0048140D01*
X0192155Y0048282D01*
X0192011Y0048421D01*
X0191864Y0048557D01*
X0191714Y0048689D01*
X0191654Y0048617D01*
X0191802Y0048487D01*
X0191947Y0048353D01*
X0192089Y0048215D01*
X0192227Y0048074D01*
X0192362Y0047930D01*
X0192494Y0047783D01*
X0192621Y0047632D01*
X0192745Y0047478D01*
X0192866Y0047322D01*
X0192982Y0047162D01*
X0193094Y0047000D01*
X0193203Y0046835D01*
X0193307Y0046667D01*
X0193407Y0046497D01*
X0193503Y0046324D01*
X0193595Y0046149D01*
X0193683Y0045972D01*
X0193766Y0045793D01*
X0193844Y0045612D01*
X0193919Y0045429D01*
X0193988Y0045244D01*
X0194053Y0045058D01*
X0194114Y0044870D01*
X0194170Y0044680D01*
X0194221Y0044490D01*
X0194268Y0044298D01*
X0194310Y0044105D01*
X0194347Y0043911D01*
X0194380Y0043716D01*
X0194407Y0043520D01*
X0194430Y0043324D01*
X0194448Y0043128D01*
X0194462Y0042931D01*
X0194470Y0042733D01*
X0194474Y0042536D01*
X0194380Y0042536D01*
X0194376Y0042731D01*
X0194368Y0042926D01*
X0194355Y0043121D01*
X0194337Y0043315D01*
X0194314Y0043509D01*
X0194287Y0043702D01*
X0194255Y0043895D01*
X0194218Y0044086D01*
X0194176Y0044277D01*
X0194130Y0044467D01*
X0194080Y0044655D01*
X0194024Y0044842D01*
X0193964Y0045028D01*
X0193900Y0045212D01*
X0193831Y0045395D01*
X0193758Y0045576D01*
X0193680Y0045755D01*
X0193598Y0045932D01*
X0193511Y0046107D01*
X0193421Y0046279D01*
X0193326Y0046450D01*
X0193227Y0046618D01*
X0193124Y0046784D01*
X0193017Y0046947D01*
X0192906Y0047108D01*
X0192791Y0047265D01*
X0192672Y0047420D01*
X0192549Y0047572D01*
X0192423Y0047721D01*
X0192293Y0047867D01*
X0192160Y0048009D01*
X0192023Y0048148D01*
X0191883Y0048284D01*
X0191739Y0048416D01*
X0191593Y0048545D01*
X0191532Y0048473D01*
X0191677Y0048346D01*
X0191819Y0048215D01*
X0191957Y0048081D01*
X0192092Y0047944D01*
X0192224Y0047803D01*
X0192352Y0047659D01*
X0192477Y0047512D01*
X0192598Y0047362D01*
X0192715Y0047209D01*
X0192829Y0047053D01*
X0192939Y0046894D01*
X0193045Y0046733D01*
X0193146Y0046569D01*
X0193244Y0046403D01*
X0193338Y0046235D01*
X0193428Y0046064D01*
X0193513Y0045891D01*
X0193594Y0045716D01*
X0193671Y0045539D01*
X0193743Y0045361D01*
X0193812Y0045180D01*
X0193875Y0044998D01*
X0193934Y0044815D01*
X0193989Y0044630D01*
X0194039Y0044444D01*
X0194085Y0044256D01*
X0194126Y0044068D01*
X0194162Y0043878D01*
X0194194Y0043688D01*
X0194221Y0043497D01*
X0194243Y0043306D01*
X0194261Y0043114D01*
X0194274Y0042921D01*
X0194282Y0042729D01*
X0194286Y0042536D01*
X0194192Y0042536D01*
X0194188Y0042726D01*
X0194180Y0042917D01*
X0194167Y0043107D01*
X0194150Y0043296D01*
X0194128Y0043486D01*
X0194101Y0043674D01*
X0194070Y0043862D01*
X0194034Y0044049D01*
X0193993Y0044235D01*
X0193948Y0044420D01*
X0193899Y0044604D01*
X0193844Y0044787D01*
X0193786Y0044968D01*
X0193723Y0045148D01*
X0193656Y0045326D01*
X0193584Y0045503D01*
X0193508Y0045678D01*
X0193428Y0045850D01*
X0193344Y0046021D01*
X0193255Y0046190D01*
X0193163Y0046356D01*
X0193066Y0046521D01*
X0192966Y0046682D01*
X0192861Y0046842D01*
X0192753Y0046998D01*
X0192640Y0047152D01*
X0192524Y0047303D01*
X0192405Y0047452D01*
X0192282Y0047597D01*
X0192155Y0047739D01*
X0192025Y0047878D01*
X0191891Y0048014D01*
X0191755Y0048147D01*
X0191615Y0048276D01*
X0191471Y0048402D01*
X0191411Y0048330D01*
X0191552Y0048206D01*
X0191690Y0048078D01*
X0191825Y0047947D01*
X0191957Y0047813D01*
X0192086Y0047676D01*
X0192211Y0047535D01*
X0192333Y0047391D01*
X0192451Y0047245D01*
X0192565Y0047096D01*
X0192676Y0046944D01*
X0192783Y0046789D01*
X0192886Y0046632D01*
X0192986Y0046472D01*
X0193081Y0046310D01*
X0193173Y0046145D01*
X0193260Y0045979D01*
X0193343Y0045810D01*
X0193423Y0045639D01*
X0193498Y0045467D01*
X0193568Y0045292D01*
X0193635Y0045116D01*
X0193697Y0044939D01*
X0193755Y0044759D01*
X0193808Y0044579D01*
X0193857Y0044397D01*
X0193901Y0044215D01*
X0193941Y0044031D01*
X0193977Y0043846D01*
X0194008Y0043660D01*
X0194034Y0043474D01*
X0194056Y0043287D01*
X0194073Y0043100D01*
X0194086Y0042912D01*
X0194094Y0042724D01*
X0194098Y0042536D01*
X0194004Y0042536D01*
X0194000Y0042722D01*
X0193992Y0042907D01*
X0193980Y0043093D01*
X0193963Y0043278D01*
X0193941Y0043462D01*
X0193915Y0043646D01*
X0193884Y0043830D01*
X0193849Y0044012D01*
X0193810Y0044194D01*
X0193766Y0044374D01*
X0193717Y0044554D01*
X0193665Y0044732D01*
X0193608Y0044909D01*
X0193546Y0045084D01*
X0193481Y0045258D01*
X0193411Y0045430D01*
X0193337Y0045601D01*
X0193259Y0045769D01*
X0193176Y0045936D01*
X0193090Y0046100D01*
X0193000Y0046263D01*
X0192905Y0046423D01*
X0192807Y0046581D01*
X0192705Y0046736D01*
X0192600Y0046889D01*
X0192490Y0047039D01*
X0192377Y0047187D01*
X0192260Y0047331D01*
X0192140Y0047473D01*
X0192017Y0047612D01*
X0191890Y0047748D01*
X0191760Y0047880D01*
X0191626Y0048009D01*
X0191490Y0048136D01*
X0191350Y0048258D01*
X0177951Y0042437D02*
X0178851Y0042437D01*
X0178850Y0042437D02*
X0178854Y0042254D01*
X0178861Y0042071D01*
X0178874Y0041888D01*
X0178891Y0041705D01*
X0178912Y0041523D01*
X0178937Y0041342D01*
X0178967Y0041161D01*
X0179002Y0040981D01*
X0179040Y0040802D01*
X0179083Y0040624D01*
X0179131Y0040447D01*
X0179182Y0040272D01*
X0179238Y0040097D01*
X0179298Y0039924D01*
X0179363Y0039753D01*
X0179431Y0039583D01*
X0179503Y0039414D01*
X0179580Y0039248D01*
X0179661Y0039084D01*
X0179745Y0038921D01*
X0179834Y0038761D01*
X0179926Y0038602D01*
X0180022Y0038446D01*
X0180122Y0038293D01*
X0180226Y0038142D01*
X0180333Y0037993D01*
X0180444Y0037847D01*
X0180558Y0037704D01*
X0180676Y0037564D01*
X0180797Y0037427D01*
X0180921Y0037292D01*
X0181049Y0037161D01*
X0181180Y0037032D01*
X0181314Y0036907D01*
X0181450Y0036786D01*
X0181590Y0036667D01*
X0181733Y0036552D01*
X0181878Y0036441D01*
X0182026Y0036333D01*
X0182177Y0036229D01*
X0182330Y0036128D01*
X0182485Y0036031D01*
X0182643Y0035938D01*
X0182803Y0035849D01*
X0182380Y0035055D01*
X0182200Y0035155D01*
X0182023Y0035259D01*
X0181849Y0035367D01*
X0181677Y0035480D01*
X0181509Y0035597D01*
X0181343Y0035718D01*
X0181180Y0035842D01*
X0181020Y0035971D01*
X0180863Y0036104D01*
X0180710Y0036240D01*
X0180560Y0036380D01*
X0180413Y0036524D01*
X0180270Y0036671D01*
X0180130Y0036822D01*
X0179995Y0036976D01*
X0179863Y0037133D01*
X0179735Y0037293D01*
X0179610Y0037457D01*
X0179490Y0037623D01*
X0179374Y0037793D01*
X0179262Y0037965D01*
X0179154Y0038139D01*
X0179051Y0038317D01*
X0178952Y0038496D01*
X0178857Y0038679D01*
X0178767Y0038863D01*
X0178681Y0039049D01*
X0178600Y0039238D01*
X0178523Y0039428D01*
X0178451Y0039621D01*
X0178384Y0039815D01*
X0178321Y0040010D01*
X0178263Y0040207D01*
X0178210Y0040405D01*
X0178162Y0040605D01*
X0178119Y0040806D01*
X0178081Y0041007D01*
X0178047Y0041210D01*
X0178019Y0041413D01*
X0177995Y0041617D01*
X0177976Y0041822D01*
X0177963Y0042026D01*
X0177954Y0042231D01*
X0177950Y0042437D01*
X0178044Y0042437D01*
X0178048Y0042234D01*
X0178056Y0042031D01*
X0178070Y0041828D01*
X0178088Y0041626D01*
X0178112Y0041425D01*
X0178140Y0041224D01*
X0178173Y0041023D01*
X0178211Y0040824D01*
X0178254Y0040626D01*
X0178302Y0040428D01*
X0178354Y0040232D01*
X0178411Y0040037D01*
X0178473Y0039844D01*
X0178540Y0039652D01*
X0178611Y0039462D01*
X0178686Y0039274D01*
X0178767Y0039088D01*
X0178852Y0038903D01*
X0178941Y0038721D01*
X0179035Y0038541D01*
X0179133Y0038363D01*
X0179235Y0038188D01*
X0179341Y0038015D01*
X0179452Y0037845D01*
X0179567Y0037677D01*
X0179686Y0037513D01*
X0179809Y0037351D01*
X0179935Y0037193D01*
X0180066Y0037037D01*
X0180200Y0036885D01*
X0180338Y0036736D01*
X0180479Y0036590D01*
X0180624Y0036448D01*
X0180773Y0036310D01*
X0180924Y0036175D01*
X0181079Y0036044D01*
X0181237Y0035917D01*
X0181399Y0035793D01*
X0181563Y0035674D01*
X0181730Y0035558D01*
X0181899Y0035447D01*
X0182072Y0035339D01*
X0182247Y0035236D01*
X0182424Y0035138D01*
X0182468Y0035221D01*
X0182293Y0035318D01*
X0182120Y0035420D01*
X0181950Y0035526D01*
X0181782Y0035636D01*
X0181617Y0035750D01*
X0181455Y0035869D01*
X0181295Y0035991D01*
X0181139Y0036117D01*
X0180986Y0036246D01*
X0180836Y0036380D01*
X0180689Y0036516D01*
X0180546Y0036657D01*
X0180406Y0036801D01*
X0180270Y0036948D01*
X0180137Y0037099D01*
X0180008Y0037252D01*
X0179883Y0037409D01*
X0179761Y0037569D01*
X0179644Y0037732D01*
X0179530Y0037897D01*
X0179421Y0038065D01*
X0179315Y0038236D01*
X0179214Y0038409D01*
X0179117Y0038585D01*
X0179025Y0038763D01*
X0178937Y0038943D01*
X0178853Y0039126D01*
X0178773Y0039310D01*
X0178698Y0039496D01*
X0178628Y0039684D01*
X0178562Y0039874D01*
X0178501Y0040065D01*
X0178445Y0040257D01*
X0178393Y0040451D01*
X0178346Y0040646D01*
X0178303Y0040842D01*
X0178266Y0041040D01*
X0178233Y0041238D01*
X0178205Y0041436D01*
X0178182Y0041636D01*
X0178164Y0041835D01*
X0178150Y0042036D01*
X0178142Y0042236D01*
X0178138Y0042437D01*
X0178232Y0042437D01*
X0178236Y0042238D01*
X0178244Y0042040D01*
X0178257Y0041842D01*
X0178276Y0041645D01*
X0178298Y0041448D01*
X0178326Y0041251D01*
X0178358Y0041056D01*
X0178396Y0040861D01*
X0178437Y0040667D01*
X0178484Y0040474D01*
X0178535Y0040282D01*
X0178591Y0040092D01*
X0178651Y0039903D01*
X0178716Y0039716D01*
X0178786Y0039530D01*
X0178860Y0039346D01*
X0178939Y0039164D01*
X0179022Y0038984D01*
X0179109Y0038805D01*
X0179200Y0038629D01*
X0179296Y0038456D01*
X0179396Y0038284D01*
X0179500Y0038116D01*
X0179608Y0037949D01*
X0179721Y0037786D01*
X0179837Y0037625D01*
X0179957Y0037467D01*
X0180081Y0037312D01*
X0180208Y0037160D01*
X0180339Y0037011D01*
X0180474Y0036866D01*
X0180612Y0036723D01*
X0180754Y0036585D01*
X0180899Y0036449D01*
X0181047Y0036317D01*
X0181199Y0036189D01*
X0181353Y0036065D01*
X0181510Y0035944D01*
X0181671Y0035827D01*
X0181834Y0035714D01*
X0182000Y0035606D01*
X0182168Y0035501D01*
X0182339Y0035400D01*
X0182512Y0035304D01*
X0182557Y0035386D01*
X0182385Y0035482D01*
X0182216Y0035581D01*
X0182050Y0035685D01*
X0181886Y0035793D01*
X0181725Y0035904D01*
X0181566Y0036020D01*
X0181411Y0036139D01*
X0181258Y0036262D01*
X0181109Y0036389D01*
X0180962Y0036519D01*
X0180819Y0036653D01*
X0180679Y0036790D01*
X0180542Y0036931D01*
X0180409Y0037074D01*
X0180279Y0037221D01*
X0180153Y0037372D01*
X0180031Y0037525D01*
X0179912Y0037681D01*
X0179797Y0037840D01*
X0179687Y0038002D01*
X0179580Y0038166D01*
X0179477Y0038333D01*
X0179378Y0038502D01*
X0179283Y0038674D01*
X0179193Y0038848D01*
X0179106Y0039024D01*
X0179025Y0039202D01*
X0178947Y0039382D01*
X0178874Y0039564D01*
X0178805Y0039747D01*
X0178741Y0039933D01*
X0178681Y0040119D01*
X0178626Y0040307D01*
X0178575Y0040497D01*
X0178529Y0040687D01*
X0178488Y0040879D01*
X0178451Y0041072D01*
X0178419Y0041265D01*
X0178392Y0041459D01*
X0178369Y0041654D01*
X0178351Y0041849D01*
X0178338Y0042045D01*
X0178330Y0042241D01*
X0178326Y0042437D01*
X0178420Y0042437D01*
X0178424Y0042243D01*
X0178432Y0042049D01*
X0178445Y0041856D01*
X0178463Y0041663D01*
X0178485Y0041471D01*
X0178512Y0041279D01*
X0178544Y0041088D01*
X0178580Y0040897D01*
X0178621Y0040708D01*
X0178666Y0040520D01*
X0178716Y0040333D01*
X0178771Y0040147D01*
X0178830Y0039962D01*
X0178893Y0039779D01*
X0178961Y0039598D01*
X0179034Y0039418D01*
X0179110Y0039240D01*
X0179191Y0039064D01*
X0179277Y0038890D01*
X0179366Y0038718D01*
X0179460Y0038548D01*
X0179557Y0038381D01*
X0179659Y0038216D01*
X0179765Y0038054D01*
X0179874Y0037894D01*
X0179988Y0037737D01*
X0180105Y0037583D01*
X0180226Y0037431D01*
X0180350Y0037283D01*
X0180478Y0037138D01*
X0180610Y0036995D01*
X0180745Y0036856D01*
X0180883Y0036721D01*
X0181025Y0036589D01*
X0181170Y0036460D01*
X0181318Y0036335D01*
X0181469Y0036213D01*
X0181622Y0036095D01*
X0181779Y0035981D01*
X0181938Y0035871D01*
X0182100Y0035765D01*
X0182265Y0035662D01*
X0182432Y0035564D01*
X0182601Y0035469D01*
X0182645Y0035552D01*
X0182478Y0035646D01*
X0182313Y0035743D01*
X0182150Y0035844D01*
X0181990Y0035949D01*
X0181833Y0036058D01*
X0181678Y0036171D01*
X0181526Y0036287D01*
X0181377Y0036407D01*
X0181231Y0036531D01*
X0181088Y0036658D01*
X0180948Y0036789D01*
X0180812Y0036923D01*
X0180678Y0037060D01*
X0180548Y0037201D01*
X0180421Y0037344D01*
X0180298Y0037491D01*
X0180179Y0037641D01*
X0180063Y0037793D01*
X0179951Y0037948D01*
X0179843Y0038106D01*
X0179738Y0038267D01*
X0179638Y0038430D01*
X0179541Y0038595D01*
X0179449Y0038762D01*
X0179361Y0038932D01*
X0179276Y0039104D01*
X0179196Y0039278D01*
X0179121Y0039454D01*
X0179049Y0039632D01*
X0178982Y0039811D01*
X0178919Y0039992D01*
X0178861Y0040174D01*
X0178807Y0040358D01*
X0178757Y0040543D01*
X0178713Y0040729D01*
X0178672Y0040916D01*
X0178636Y0041104D01*
X0178605Y0041293D01*
X0178578Y0041482D01*
X0178556Y0041672D01*
X0178539Y0041863D01*
X0178526Y0042054D01*
X0178518Y0042245D01*
X0178514Y0042437D01*
X0178608Y0042437D01*
X0178612Y0042248D01*
X0178620Y0042059D01*
X0178632Y0041870D01*
X0178650Y0041682D01*
X0178672Y0041494D01*
X0178698Y0041307D01*
X0178729Y0041120D01*
X0178764Y0040934D01*
X0178804Y0040749D01*
X0178849Y0040565D01*
X0178898Y0040383D01*
X0178951Y0040201D01*
X0179008Y0040021D01*
X0179070Y0039843D01*
X0179137Y0039665D01*
X0179207Y0039490D01*
X0179282Y0039316D01*
X0179361Y0039144D01*
X0179445Y0038975D01*
X0179532Y0038807D01*
X0179623Y0038641D01*
X0179719Y0038478D01*
X0179818Y0038317D01*
X0179921Y0038158D01*
X0180028Y0038002D01*
X0180139Y0037849D01*
X0180253Y0037698D01*
X0180371Y0037551D01*
X0180493Y0037406D01*
X0180618Y0037264D01*
X0180746Y0037125D01*
X0180878Y0036990D01*
X0181013Y0036857D01*
X0181151Y0036728D01*
X0181293Y0036602D01*
X0181437Y0036480D01*
X0181584Y0036361D01*
X0181734Y0036246D01*
X0181887Y0036135D01*
X0182043Y0036027D01*
X0182201Y0035923D01*
X0182361Y0035823D01*
X0182524Y0035727D01*
X0182689Y0035635D01*
X0182734Y0035718D01*
X0182570Y0035809D01*
X0182409Y0035904D01*
X0182251Y0036003D01*
X0182095Y0036105D01*
X0181941Y0036212D01*
X0181790Y0036322D01*
X0181642Y0036436D01*
X0181496Y0036553D01*
X0181354Y0036674D01*
X0181214Y0036798D01*
X0181078Y0036925D01*
X0180944Y0037056D01*
X0180814Y0037190D01*
X0180687Y0037327D01*
X0180564Y0037467D01*
X0180444Y0037610D01*
X0180327Y0037756D01*
X0180214Y0037905D01*
X0180105Y0038057D01*
X0179999Y0038211D01*
X0179897Y0038367D01*
X0179799Y0038526D01*
X0179705Y0038688D01*
X0179615Y0038851D01*
X0179528Y0039017D01*
X0179446Y0039185D01*
X0179368Y0039354D01*
X0179294Y0039526D01*
X0179225Y0039699D01*
X0179159Y0039874D01*
X0179098Y0040051D01*
X0179041Y0040229D01*
X0178988Y0040408D01*
X0178940Y0040588D01*
X0178896Y0040770D01*
X0178856Y0040953D01*
X0178821Y0041136D01*
X0178791Y0041320D01*
X0178765Y0041505D01*
X0178743Y0041691D01*
X0178726Y0041877D01*
X0178714Y0042063D01*
X0178706Y0042250D01*
X0178702Y0042437D01*
X0178796Y0042437D01*
X0178800Y0042252D01*
X0178808Y0042068D01*
X0178820Y0041884D01*
X0178837Y0041700D01*
X0178858Y0041517D01*
X0178884Y0041334D01*
X0178914Y0041152D01*
X0178949Y0040971D01*
X0178988Y0040791D01*
X0179031Y0040611D01*
X0179079Y0040433D01*
X0179131Y0040256D01*
X0179187Y0040080D01*
X0179247Y0039906D01*
X0179312Y0039733D01*
X0179381Y0039562D01*
X0179454Y0039393D01*
X0179531Y0039225D01*
X0179612Y0039059D01*
X0179698Y0038896D01*
X0179787Y0038734D01*
X0179880Y0038575D01*
X0179977Y0038418D01*
X0180077Y0038263D01*
X0180182Y0038111D01*
X0180290Y0037961D01*
X0180401Y0037814D01*
X0180516Y0037670D01*
X0180635Y0037529D01*
X0180757Y0037390D01*
X0180882Y0037255D01*
X0181011Y0037123D01*
X0181143Y0036993D01*
X0181277Y0036867D01*
X0181415Y0036745D01*
X0181556Y0036626D01*
X0181700Y0036510D01*
X0181846Y0036397D01*
X0181995Y0036289D01*
X0182147Y0036184D01*
X0182301Y0036082D01*
X0182458Y0035985D01*
X0182617Y0035891D01*
X0182778Y0035801D01*
X0173776Y0060661D02*
X0172275Y0060661D01*
X0172275Y0061412D01*
X0172525Y0061662D01*
X0173526Y0061662D01*
X0173776Y0061412D01*
X0173776Y0060661D01*
X0173776Y0062134D02*
X0172275Y0062134D01*
X0172275Y0063135D01*
X0172275Y0063608D02*
X0172275Y0064608D01*
X0172275Y0064108D02*
X0173776Y0064108D01*
X0173776Y0065081D02*
X0173776Y0065331D01*
X0173526Y0065331D01*
X0173526Y0065081D01*
X0173776Y0065081D01*
X0173776Y0065817D02*
X0172275Y0065817D01*
X0172275Y0066568D01*
X0172525Y0066818D01*
X0173526Y0066818D01*
X0173776Y0066568D01*
X0173776Y0065817D01*
X0173776Y0063135D02*
X0173776Y0062134D01*
X0173026Y0062134D02*
X0173026Y0062635D01*
D17*
X0176781Y0062971D02*
X0176784Y0063204D01*
X0176792Y0063437D01*
X0176807Y0063670D01*
X0176827Y0063902D01*
X0176852Y0064134D01*
X0176884Y0064365D01*
X0176921Y0064595D01*
X0176964Y0064824D01*
X0177012Y0065052D01*
X0177066Y0065279D01*
X0177125Y0065505D01*
X0177190Y0065729D01*
X0177260Y0065951D01*
X0177336Y0066171D01*
X0177418Y0066390D01*
X0177504Y0066606D01*
X0177596Y0066821D01*
X0177693Y0067033D01*
X0177795Y0067242D01*
X0177903Y0067449D01*
X0178015Y0067654D01*
X0178133Y0067855D01*
X0178255Y0068053D01*
X0178382Y0068249D01*
X0178514Y0068441D01*
X0178651Y0068630D01*
X0178792Y0068816D01*
X0178937Y0068998D01*
X0179088Y0069176D01*
X0179242Y0069351D01*
X0179401Y0069522D01*
X0179563Y0069689D01*
X0179730Y0069851D01*
X0179901Y0070010D01*
X0180076Y0070164D01*
X0180254Y0070315D01*
X0180436Y0070460D01*
X0180622Y0070601D01*
X0180811Y0070738D01*
X0181003Y0070870D01*
X0181199Y0070997D01*
X0181397Y0071119D01*
X0181598Y0071237D01*
X0181803Y0071349D01*
X0182010Y0071457D01*
X0182219Y0071559D01*
X0182431Y0071656D01*
X0182646Y0071748D01*
X0182862Y0071834D01*
X0183081Y0071916D01*
X0183301Y0071992D01*
X0183523Y0072062D01*
X0183747Y0072127D01*
X0183973Y0072186D01*
X0184200Y0072240D01*
X0184428Y0072288D01*
X0184657Y0072331D01*
X0184887Y0072368D01*
X0185118Y0072400D01*
X0185350Y0072425D01*
X0185582Y0072445D01*
X0185815Y0072460D01*
X0186048Y0072468D01*
X0186281Y0072471D01*
X0186514Y0072468D01*
X0186747Y0072460D01*
X0186980Y0072445D01*
X0187212Y0072425D01*
X0187444Y0072400D01*
X0187675Y0072368D01*
X0187905Y0072331D01*
X0188134Y0072288D01*
X0188362Y0072240D01*
X0188589Y0072186D01*
X0188815Y0072127D01*
X0189039Y0072062D01*
X0189261Y0071992D01*
X0189481Y0071916D01*
X0189700Y0071834D01*
X0189916Y0071748D01*
X0190131Y0071656D01*
X0190343Y0071559D01*
X0190552Y0071457D01*
X0190759Y0071349D01*
X0190964Y0071237D01*
X0191165Y0071119D01*
X0191363Y0070997D01*
X0191559Y0070870D01*
X0191751Y0070738D01*
X0191940Y0070601D01*
X0192126Y0070460D01*
X0192308Y0070315D01*
X0192486Y0070164D01*
X0192661Y0070010D01*
X0192832Y0069851D01*
X0192999Y0069689D01*
X0193161Y0069522D01*
X0193320Y0069351D01*
X0193474Y0069176D01*
X0193625Y0068998D01*
X0193770Y0068816D01*
X0193911Y0068630D01*
X0194048Y0068441D01*
X0194180Y0068249D01*
X0194307Y0068053D01*
X0194429Y0067855D01*
X0194547Y0067654D01*
X0194659Y0067449D01*
X0194767Y0067242D01*
X0194869Y0067033D01*
X0194966Y0066821D01*
X0195058Y0066606D01*
X0195144Y0066390D01*
X0195226Y0066171D01*
X0195302Y0065951D01*
X0195372Y0065729D01*
X0195437Y0065505D01*
X0195496Y0065279D01*
X0195550Y0065052D01*
X0195598Y0064824D01*
X0195641Y0064595D01*
X0195678Y0064365D01*
X0195710Y0064134D01*
X0195735Y0063902D01*
X0195755Y0063670D01*
X0195770Y0063437D01*
X0195778Y0063204D01*
X0195781Y0062971D01*
X0195778Y0062738D01*
X0195770Y0062505D01*
X0195755Y0062272D01*
X0195735Y0062040D01*
X0195710Y0061808D01*
X0195678Y0061577D01*
X0195641Y0061347D01*
X0195598Y0061118D01*
X0195550Y0060890D01*
X0195496Y0060663D01*
X0195437Y0060437D01*
X0195372Y0060213D01*
X0195302Y0059991D01*
X0195226Y0059771D01*
X0195144Y0059552D01*
X0195058Y0059336D01*
X0194966Y0059121D01*
X0194869Y0058909D01*
X0194767Y0058700D01*
X0194659Y0058493D01*
X0194547Y0058288D01*
X0194429Y0058087D01*
X0194307Y0057889D01*
X0194180Y0057693D01*
X0194048Y0057501D01*
X0193911Y0057312D01*
X0193770Y0057126D01*
X0193625Y0056944D01*
X0193474Y0056766D01*
X0193320Y0056591D01*
X0193161Y0056420D01*
X0192999Y0056253D01*
X0192832Y0056091D01*
X0192661Y0055932D01*
X0192486Y0055778D01*
X0192308Y0055627D01*
X0192126Y0055482D01*
X0191940Y0055341D01*
X0191751Y0055204D01*
X0191559Y0055072D01*
X0191363Y0054945D01*
X0191165Y0054823D01*
X0190964Y0054705D01*
X0190759Y0054593D01*
X0190552Y0054485D01*
X0190343Y0054383D01*
X0190131Y0054286D01*
X0189916Y0054194D01*
X0189700Y0054108D01*
X0189481Y0054026D01*
X0189261Y0053950D01*
X0189039Y0053880D01*
X0188815Y0053815D01*
X0188589Y0053756D01*
X0188362Y0053702D01*
X0188134Y0053654D01*
X0187905Y0053611D01*
X0187675Y0053574D01*
X0187444Y0053542D01*
X0187212Y0053517D01*
X0186980Y0053497D01*
X0186747Y0053482D01*
X0186514Y0053474D01*
X0186281Y0053471D01*
X0186048Y0053474D01*
X0185815Y0053482D01*
X0185582Y0053497D01*
X0185350Y0053517D01*
X0185118Y0053542D01*
X0184887Y0053574D01*
X0184657Y0053611D01*
X0184428Y0053654D01*
X0184200Y0053702D01*
X0183973Y0053756D01*
X0183747Y0053815D01*
X0183523Y0053880D01*
X0183301Y0053950D01*
X0183081Y0054026D01*
X0182862Y0054108D01*
X0182646Y0054194D01*
X0182431Y0054286D01*
X0182219Y0054383D01*
X0182010Y0054485D01*
X0181803Y0054593D01*
X0181598Y0054705D01*
X0181397Y0054823D01*
X0181199Y0054945D01*
X0181003Y0055072D01*
X0180811Y0055204D01*
X0180622Y0055341D01*
X0180436Y0055482D01*
X0180254Y0055627D01*
X0180076Y0055778D01*
X0179901Y0055932D01*
X0179730Y0056091D01*
X0179563Y0056253D01*
X0179401Y0056420D01*
X0179242Y0056591D01*
X0179088Y0056766D01*
X0178937Y0056944D01*
X0178792Y0057126D01*
X0178651Y0057312D01*
X0178514Y0057501D01*
X0178382Y0057693D01*
X0178255Y0057889D01*
X0178133Y0058087D01*
X0178015Y0058288D01*
X0177903Y0058493D01*
X0177795Y0058700D01*
X0177693Y0058909D01*
X0177596Y0059121D01*
X0177504Y0059336D01*
X0177418Y0059552D01*
X0177336Y0059771D01*
X0177260Y0059991D01*
X0177190Y0060213D01*
X0177125Y0060437D01*
X0177066Y0060663D01*
X0177012Y0060890D01*
X0176964Y0061118D01*
X0176921Y0061347D01*
X0176884Y0061577D01*
X0176852Y0061808D01*
X0176827Y0062040D01*
X0176807Y0062272D01*
X0176792Y0062505D01*
X0176784Y0062738D01*
X0176781Y0062971D01*
X0181400Y0048686D02*
X0191400Y0048686D01*
X0065721Y0043480D02*
X0065723Y0043547D01*
X0065729Y0043613D01*
X0065739Y0043679D01*
X0065753Y0043744D01*
X0065770Y0043808D01*
X0065792Y0043871D01*
X0065817Y0043933D01*
X0065846Y0043993D01*
X0065879Y0044051D01*
X0065914Y0044107D01*
X0065954Y0044161D01*
X0065996Y0044212D01*
X0066041Y0044261D01*
X0066089Y0044307D01*
X0066140Y0044350D01*
X0066193Y0044390D01*
X0066249Y0044427D01*
X0066307Y0044460D01*
X0066366Y0044490D01*
X0066427Y0044516D01*
X0066490Y0044539D01*
X0066554Y0044557D01*
X0066619Y0044572D01*
X0066685Y0044583D01*
X0066751Y0044590D01*
X0066817Y0044593D01*
X0066884Y0044592D01*
X0066950Y0044587D01*
X0067016Y0044578D01*
X0067082Y0044565D01*
X0067146Y0044548D01*
X0067209Y0044528D01*
X0067271Y0044503D01*
X0067332Y0044475D01*
X0067391Y0044444D01*
X0067447Y0044409D01*
X0067502Y0044371D01*
X0067554Y0044329D01*
X0067603Y0044284D01*
X0067650Y0044237D01*
X0067694Y0044187D01*
X0067734Y0044134D01*
X0067772Y0044079D01*
X0067806Y0044022D01*
X0067837Y0043963D01*
X0067864Y0043902D01*
X0067887Y0043840D01*
X0067907Y0043776D01*
X0067923Y0043711D01*
X0067935Y0043646D01*
X0067943Y0043580D01*
X0067947Y0043513D01*
X0067947Y0043447D01*
X0067943Y0043380D01*
X0067935Y0043314D01*
X0067923Y0043249D01*
X0067907Y0043184D01*
X0067887Y0043120D01*
X0067864Y0043058D01*
X0067837Y0042997D01*
X0067806Y0042938D01*
X0067772Y0042881D01*
X0067734Y0042826D01*
X0067694Y0042773D01*
X0067650Y0042723D01*
X0067603Y0042676D01*
X0067554Y0042631D01*
X0067502Y0042589D01*
X0067447Y0042551D01*
X0067390Y0042516D01*
X0067332Y0042485D01*
X0067271Y0042457D01*
X0067209Y0042432D01*
X0067146Y0042412D01*
X0067082Y0042395D01*
X0067016Y0042382D01*
X0066950Y0042373D01*
X0066884Y0042368D01*
X0066817Y0042367D01*
X0066751Y0042370D01*
X0066685Y0042377D01*
X0066619Y0042388D01*
X0066554Y0042403D01*
X0066490Y0042421D01*
X0066427Y0042444D01*
X0066366Y0042470D01*
X0066307Y0042500D01*
X0066249Y0042533D01*
X0066193Y0042570D01*
X0066140Y0042610D01*
X0066089Y0042653D01*
X0066041Y0042699D01*
X0065996Y0042748D01*
X0065954Y0042799D01*
X0065914Y0042853D01*
X0065879Y0042909D01*
X0065846Y0042967D01*
X0065817Y0043027D01*
X0065792Y0043089D01*
X0065770Y0043152D01*
X0065753Y0043216D01*
X0065739Y0043281D01*
X0065729Y0043347D01*
X0065723Y0043413D01*
X0065721Y0043480D01*
D18*
X0054782Y0044528D02*
X0054782Y0046663D01*
X0054782Y0045595D02*
X0048377Y0045595D01*
X0048377Y0044528D02*
X0048377Y0046663D01*
X0049444Y0048825D02*
X0053714Y0048825D01*
X0054782Y0049892D01*
X0054782Y0052027D01*
X0053714Y0053095D01*
X0054782Y0055270D02*
X0054782Y0059541D01*
X0054782Y0057405D02*
X0048377Y0057405D01*
X0050512Y0055270D01*
X0049444Y0053095D02*
X0048377Y0052027D01*
X0048377Y0049892D01*
X0049444Y0048825D01*
X0095406Y0027667D02*
X0095406Y0012667D01*
X0097906Y0010167D01*
X0102906Y0010167D01*
X0105406Y0012667D01*
X0105406Y0027667D01*
X0102906Y0030167D01*
X0097906Y0030167D01*
X0095406Y0027667D01*
X0105406Y0027667D02*
X0107906Y0030167D01*
X0112906Y0030167D01*
X0115406Y0027667D01*
X0115406Y0012667D01*
X0112906Y0010167D01*
X0107906Y0010167D01*
X0105406Y0012667D01*
X0115406Y0012667D02*
X0117906Y0010167D01*
X0122906Y0010167D01*
X0125406Y0012667D01*
X0125406Y0027667D01*
X0122906Y0030167D01*
X0117906Y0030167D01*
X0115406Y0027667D01*
X0137088Y0026051D02*
X0162288Y0026051D01*
X0162288Y0011051D01*
X0137088Y0011051D01*
X0137088Y0026051D01*
X0141688Y0021551D02*
X0157688Y0021551D01*
X0157688Y0015551D01*
X0141688Y0015551D01*
X0141688Y0021551D01*
X0147387Y0031540D02*
X0150615Y0031540D01*
X0150615Y0036540D02*
X0147387Y0036540D01*
X0165324Y0034816D02*
X0165324Y0042690D01*
X0170836Y0042690D01*
X0170836Y0034816D01*
X0165324Y0034816D01*
X0166505Y0038360D02*
X0168080Y0040722D01*
X0169655Y0038360D01*
X0166505Y0038360D01*
X0177781Y0051971D02*
X0175281Y0054471D01*
X0177781Y0056971D01*
X0180281Y0054471D02*
X0177781Y0051971D01*
X0171045Y0058973D02*
X0165534Y0058973D01*
X0165534Y0066847D01*
X0171045Y0066847D01*
X0171045Y0058973D01*
X0169864Y0062516D02*
X0166715Y0062516D01*
X0168289Y0064878D01*
X0169864Y0062516D01*
X0186280Y0055971D02*
X0186448Y0055973D01*
X0186616Y0055979D01*
X0186784Y0055989D01*
X0186951Y0056003D01*
X0187118Y0056021D01*
X0187284Y0056043D01*
X0187450Y0056070D01*
X0187615Y0056100D01*
X0187780Y0056134D01*
X0187943Y0056171D01*
X0188106Y0056213D01*
X0188267Y0056259D01*
X0188428Y0056309D01*
X0188587Y0056362D01*
X0188745Y0056419D01*
X0188901Y0056480D01*
X0189056Y0056545D01*
X0189209Y0056613D01*
X0189361Y0056686D01*
X0189511Y0056761D01*
X0189659Y0056841D01*
X0189805Y0056923D01*
X0189949Y0057010D01*
X0186281Y0069971D02*
X0186113Y0069969D01*
X0185945Y0069963D01*
X0185777Y0069953D01*
X0185610Y0069939D01*
X0185443Y0069921D01*
X0185277Y0069899D01*
X0185111Y0069872D01*
X0184946Y0069842D01*
X0184781Y0069808D01*
X0184618Y0069771D01*
X0184455Y0069729D01*
X0184294Y0069683D01*
X0184133Y0069633D01*
X0183974Y0069580D01*
X0183816Y0069523D01*
X0183660Y0069462D01*
X0183505Y0069397D01*
X0183352Y0069329D01*
X0183200Y0069256D01*
X0183050Y0069181D01*
X0182902Y0069101D01*
X0182756Y0069019D01*
X0182612Y0068932D01*
X0186493Y0067184D02*
X0186619Y0067182D01*
X0186744Y0067176D01*
X0186869Y0067166D01*
X0186994Y0067152D01*
X0187119Y0067135D01*
X0187243Y0067113D01*
X0187366Y0067088D01*
X0187488Y0067058D01*
X0187609Y0067025D01*
X0187729Y0066988D01*
X0187848Y0066948D01*
X0187965Y0066903D01*
X0188082Y0066855D01*
X0188196Y0066803D01*
X0188309Y0066748D01*
X0188420Y0066689D01*
X0188529Y0066627D01*
X0188636Y0066561D01*
X0188741Y0066492D01*
X0188844Y0066420D01*
X0188945Y0066345D01*
X0189043Y0066266D01*
X0189138Y0066184D01*
X0189231Y0066100D01*
X0189321Y0066012D01*
X0189409Y0065922D01*
X0189493Y0065829D01*
X0189575Y0065734D01*
X0189654Y0065636D01*
X0189729Y0065535D01*
X0189801Y0065432D01*
X0189870Y0065327D01*
X0189936Y0065220D01*
X0189998Y0065111D01*
X0190057Y0065000D01*
X0190112Y0064887D01*
X0190164Y0064773D01*
X0190212Y0064656D01*
X0190257Y0064539D01*
X0190297Y0064420D01*
X0190334Y0064300D01*
X0190367Y0064179D01*
X0190397Y0064057D01*
X0190422Y0063934D01*
X0190444Y0063810D01*
X0190461Y0063685D01*
X0190475Y0063560D01*
X0190485Y0063435D01*
X0190491Y0063310D01*
X0190493Y0063184D01*
X0186281Y0055971D02*
X0186116Y0055973D01*
X0185950Y0055979D01*
X0185785Y0055989D01*
X0185621Y0056002D01*
X0185456Y0056020D01*
X0185292Y0056041D01*
X0185129Y0056066D01*
X0184966Y0056096D01*
X0184804Y0056129D01*
X0184643Y0056165D01*
X0184483Y0056206D01*
X0184324Y0056250D01*
X0184166Y0056298D01*
X0184009Y0056350D01*
X0183853Y0056406D01*
X0183699Y0056465D01*
X0183546Y0056528D01*
X0183394Y0056594D01*
X0183245Y0056664D01*
X0183096Y0056737D01*
X0182950Y0056814D01*
X0182806Y0056895D01*
X0182663Y0056978D01*
X0182523Y0057065D01*
X0189808Y0056925D02*
X0189954Y0057012D01*
X0190097Y0057103D01*
X0190238Y0057197D01*
X0190377Y0057295D01*
X0190514Y0057396D01*
X0190648Y0057500D01*
X0190779Y0057607D01*
X0190908Y0057718D01*
X0191034Y0057832D01*
X0191157Y0057948D01*
X0191277Y0058068D01*
X0191395Y0058191D01*
X0191509Y0058316D01*
X0191620Y0058444D01*
X0191729Y0058575D01*
X0191834Y0058708D01*
X0191935Y0058844D01*
X0192034Y0058983D01*
X0192129Y0059123D01*
X0192220Y0059266D01*
X0192308Y0059411D01*
X0192393Y0059558D01*
X0192474Y0059708D01*
X0192551Y0059859D01*
X0192625Y0060012D01*
X0192695Y0060166D01*
X0192761Y0060323D01*
X0192823Y0060481D01*
X0192881Y0060640D01*
X0192936Y0060801D01*
X0192987Y0060963D01*
X0193033Y0061126D01*
X0193076Y0061290D01*
X0193115Y0061455D01*
X0193150Y0061622D01*
X0193180Y0061789D01*
X0193207Y0061956D01*
X0193230Y0062124D01*
X0193248Y0062293D01*
X0193262Y0062462D01*
X0193273Y0062632D01*
X0193279Y0062801D01*
X0193281Y0062971D01*
X0175781Y0062971D02*
X0175784Y0063229D01*
X0175794Y0063486D01*
X0175809Y0063743D01*
X0175832Y0064000D01*
X0175860Y0064256D01*
X0175895Y0064512D01*
X0175936Y0064766D01*
X0175983Y0065019D01*
X0176036Y0065272D01*
X0176096Y0065522D01*
X0176161Y0065771D01*
X0176233Y0066019D01*
X0176311Y0066265D01*
X0176395Y0066508D01*
X0176485Y0066750D01*
X0176580Y0066989D01*
X0176682Y0067226D01*
X0176789Y0067460D01*
X0176902Y0067692D01*
X0177021Y0067921D01*
X0177145Y0068146D01*
X0177275Y0068369D01*
X0177410Y0068588D01*
X0177551Y0068804D01*
X0177696Y0069017D01*
X0177847Y0069226D01*
X0178003Y0069431D01*
X0178164Y0069632D01*
X0178330Y0069829D01*
X0178501Y0070022D01*
X0178676Y0070211D01*
X0178856Y0070396D01*
X0179041Y0070576D01*
X0179230Y0070751D01*
X0179423Y0070922D01*
X0179620Y0071088D01*
X0179821Y0071249D01*
X0180026Y0071405D01*
X0180235Y0071556D01*
X0180448Y0071701D01*
X0180664Y0071842D01*
X0180883Y0071977D01*
X0181106Y0072107D01*
X0181331Y0072231D01*
X0181560Y0072350D01*
X0181792Y0072463D01*
X0182026Y0072570D01*
X0182263Y0072672D01*
X0182502Y0072767D01*
X0182744Y0072857D01*
X0182987Y0072941D01*
X0183233Y0073019D01*
X0183481Y0073091D01*
X0183730Y0073156D01*
X0183980Y0073216D01*
X0184233Y0073269D01*
X0184486Y0073316D01*
X0184740Y0073357D01*
X0184996Y0073392D01*
X0185252Y0073420D01*
X0185509Y0073443D01*
X0185766Y0073458D01*
X0186023Y0073468D01*
X0186281Y0073471D01*
X0186539Y0073468D01*
X0186796Y0073458D01*
X0187053Y0073443D01*
X0187310Y0073420D01*
X0187566Y0073392D01*
X0187822Y0073357D01*
X0188076Y0073316D01*
X0188329Y0073269D01*
X0188582Y0073216D01*
X0188832Y0073156D01*
X0189081Y0073091D01*
X0189329Y0073019D01*
X0189575Y0072941D01*
X0189818Y0072857D01*
X0190060Y0072767D01*
X0190299Y0072672D01*
X0190536Y0072570D01*
X0190770Y0072463D01*
X0191002Y0072350D01*
X0191231Y0072231D01*
X0191456Y0072107D01*
X0191679Y0071977D01*
X0191898Y0071842D01*
X0192114Y0071701D01*
X0192327Y0071556D01*
X0192536Y0071405D01*
X0192741Y0071249D01*
X0192942Y0071088D01*
X0193139Y0070922D01*
X0193332Y0070751D01*
X0193521Y0070576D01*
X0193706Y0070396D01*
X0193886Y0070211D01*
X0194061Y0070022D01*
X0194232Y0069829D01*
X0194398Y0069632D01*
X0194559Y0069431D01*
X0194715Y0069226D01*
X0194866Y0069017D01*
X0195011Y0068804D01*
X0195152Y0068588D01*
X0195287Y0068369D01*
X0195417Y0068146D01*
X0195541Y0067921D01*
X0195660Y0067692D01*
X0195773Y0067460D01*
X0195880Y0067226D01*
X0195982Y0066989D01*
X0196077Y0066750D01*
X0196167Y0066508D01*
X0196251Y0066265D01*
X0196329Y0066019D01*
X0196401Y0065771D01*
X0196466Y0065522D01*
X0196526Y0065272D01*
X0196579Y0065019D01*
X0196626Y0064766D01*
X0196667Y0064512D01*
X0196702Y0064256D01*
X0196730Y0064000D01*
X0196753Y0063743D01*
X0196768Y0063486D01*
X0196778Y0063229D01*
X0196781Y0062971D01*
X0196778Y0062713D01*
X0196768Y0062456D01*
X0196753Y0062199D01*
X0196730Y0061942D01*
X0196702Y0061686D01*
X0196667Y0061430D01*
X0196626Y0061176D01*
X0196579Y0060923D01*
X0196526Y0060670D01*
X0196466Y0060420D01*
X0196401Y0060171D01*
X0196329Y0059923D01*
X0196251Y0059677D01*
X0196167Y0059434D01*
X0196077Y0059192D01*
X0195982Y0058953D01*
X0195880Y0058716D01*
X0195773Y0058482D01*
X0195660Y0058250D01*
X0195541Y0058021D01*
X0195417Y0057796D01*
X0195287Y0057573D01*
X0195152Y0057354D01*
X0195011Y0057138D01*
X0194866Y0056925D01*
X0194715Y0056716D01*
X0194559Y0056511D01*
X0194398Y0056310D01*
X0194232Y0056113D01*
X0194061Y0055920D01*
X0193886Y0055731D01*
X0193706Y0055546D01*
X0193521Y0055366D01*
X0193332Y0055191D01*
X0193139Y0055020D01*
X0192942Y0054854D01*
X0192741Y0054693D01*
X0192536Y0054537D01*
X0192327Y0054386D01*
X0192114Y0054241D01*
X0191898Y0054100D01*
X0191679Y0053965D01*
X0191456Y0053835D01*
X0191231Y0053711D01*
X0191002Y0053592D01*
X0190770Y0053479D01*
X0190536Y0053372D01*
X0190299Y0053270D01*
X0190060Y0053175D01*
X0189818Y0053085D01*
X0189575Y0053001D01*
X0189329Y0052923D01*
X0189081Y0052851D01*
X0188832Y0052786D01*
X0188582Y0052726D01*
X0188329Y0052673D01*
X0188076Y0052626D01*
X0187822Y0052585D01*
X0187566Y0052550D01*
X0187310Y0052522D01*
X0187053Y0052499D01*
X0186796Y0052484D01*
X0186539Y0052474D01*
X0186281Y0052471D01*
X0186023Y0052474D01*
X0185766Y0052484D01*
X0185509Y0052499D01*
X0185252Y0052522D01*
X0184996Y0052550D01*
X0184740Y0052585D01*
X0184486Y0052626D01*
X0184233Y0052673D01*
X0183980Y0052726D01*
X0183730Y0052786D01*
X0183481Y0052851D01*
X0183233Y0052923D01*
X0182987Y0053001D01*
X0182744Y0053085D01*
X0182502Y0053175D01*
X0182263Y0053270D01*
X0182026Y0053372D01*
X0181792Y0053479D01*
X0181560Y0053592D01*
X0181331Y0053711D01*
X0181106Y0053835D01*
X0180883Y0053965D01*
X0180664Y0054100D01*
X0180448Y0054241D01*
X0180235Y0054386D01*
X0180026Y0054537D01*
X0179821Y0054693D01*
X0179620Y0054854D01*
X0179423Y0055020D01*
X0179230Y0055191D01*
X0179041Y0055366D01*
X0178856Y0055546D01*
X0178676Y0055731D01*
X0178501Y0055920D01*
X0178330Y0056113D01*
X0178164Y0056310D01*
X0178003Y0056511D01*
X0177847Y0056716D01*
X0177696Y0056925D01*
X0177551Y0057138D01*
X0177410Y0057354D01*
X0177275Y0057573D01*
X0177145Y0057796D01*
X0177021Y0058021D01*
X0176902Y0058250D01*
X0176789Y0058482D01*
X0176682Y0058716D01*
X0176580Y0058953D01*
X0176485Y0059192D01*
X0176395Y0059434D01*
X0176311Y0059677D01*
X0176233Y0059923D01*
X0176161Y0060171D01*
X0176096Y0060420D01*
X0176036Y0060670D01*
X0175983Y0060923D01*
X0175936Y0061176D01*
X0175895Y0061430D01*
X0175860Y0061686D01*
X0175832Y0061942D01*
X0175809Y0062199D01*
X0175794Y0062456D01*
X0175784Y0062713D01*
X0175781Y0062971D01*
X0186281Y0069971D02*
X0186446Y0069969D01*
X0186612Y0069963D01*
X0186777Y0069953D01*
X0186941Y0069940D01*
X0187106Y0069922D01*
X0187270Y0069901D01*
X0187433Y0069876D01*
X0187596Y0069846D01*
X0187758Y0069813D01*
X0187919Y0069777D01*
X0188079Y0069736D01*
X0188238Y0069692D01*
X0188396Y0069644D01*
X0188553Y0069592D01*
X0188709Y0069536D01*
X0188863Y0069477D01*
X0189016Y0069414D01*
X0189168Y0069348D01*
X0189317Y0069278D01*
X0189466Y0069205D01*
X0189612Y0069128D01*
X0189756Y0069047D01*
X0189899Y0068964D01*
X0190039Y0068877D01*
X0182754Y0069017D02*
X0182608Y0068930D01*
X0182465Y0068839D01*
X0182324Y0068745D01*
X0182185Y0068647D01*
X0182048Y0068546D01*
X0181914Y0068442D01*
X0181783Y0068335D01*
X0181654Y0068224D01*
X0181528Y0068110D01*
X0181405Y0067994D01*
X0181285Y0067874D01*
X0181167Y0067751D01*
X0181053Y0067626D01*
X0180942Y0067498D01*
X0180833Y0067367D01*
X0180728Y0067234D01*
X0180627Y0067098D01*
X0180528Y0066959D01*
X0180433Y0066819D01*
X0180342Y0066676D01*
X0180254Y0066531D01*
X0180169Y0066384D01*
X0180088Y0066234D01*
X0180011Y0066083D01*
X0179937Y0065930D01*
X0179867Y0065776D01*
X0179801Y0065619D01*
X0179739Y0065461D01*
X0179681Y0065302D01*
X0179626Y0065141D01*
X0179575Y0064979D01*
X0179529Y0064816D01*
X0179486Y0064652D01*
X0179447Y0064487D01*
X0179412Y0064320D01*
X0179382Y0064153D01*
X0179355Y0063986D01*
X0179332Y0063818D01*
X0179314Y0063649D01*
X0179300Y0063480D01*
X0179289Y0063310D01*
X0179283Y0063141D01*
X0179281Y0062971D01*
X0189808Y0069017D02*
X0189954Y0068930D01*
X0190097Y0068839D01*
X0190238Y0068745D01*
X0190377Y0068647D01*
X0190514Y0068546D01*
X0190648Y0068442D01*
X0190779Y0068335D01*
X0190908Y0068224D01*
X0191034Y0068110D01*
X0191157Y0067994D01*
X0191277Y0067874D01*
X0191395Y0067751D01*
X0191509Y0067626D01*
X0191620Y0067498D01*
X0191729Y0067367D01*
X0191834Y0067234D01*
X0191935Y0067098D01*
X0192034Y0066959D01*
X0192129Y0066819D01*
X0192220Y0066676D01*
X0192308Y0066531D01*
X0192393Y0066384D01*
X0192474Y0066234D01*
X0192551Y0066083D01*
X0192625Y0065930D01*
X0192695Y0065776D01*
X0192761Y0065619D01*
X0192823Y0065461D01*
X0192881Y0065302D01*
X0192936Y0065141D01*
X0192987Y0064979D01*
X0193033Y0064816D01*
X0193076Y0064652D01*
X0193115Y0064487D01*
X0193150Y0064320D01*
X0193180Y0064153D01*
X0193207Y0063986D01*
X0193230Y0063818D01*
X0193248Y0063649D01*
X0193262Y0063480D01*
X0193273Y0063310D01*
X0193279Y0063141D01*
X0193281Y0062971D01*
X0188781Y0062971D02*
X0188779Y0063069D01*
X0188773Y0063167D01*
X0188764Y0063265D01*
X0188750Y0063362D01*
X0188733Y0063459D01*
X0188712Y0063555D01*
X0188687Y0063650D01*
X0188659Y0063744D01*
X0188626Y0063836D01*
X0188591Y0063928D01*
X0188551Y0064018D01*
X0188509Y0064106D01*
X0188462Y0064193D01*
X0188413Y0064277D01*
X0188360Y0064360D01*
X0188304Y0064440D01*
X0188244Y0064519D01*
X0188182Y0064595D01*
X0188117Y0064668D01*
X0188049Y0064739D01*
X0187978Y0064807D01*
X0187905Y0064872D01*
X0187829Y0064934D01*
X0187750Y0064994D01*
X0187670Y0065050D01*
X0187587Y0065103D01*
X0187503Y0065152D01*
X0187416Y0065199D01*
X0187328Y0065241D01*
X0187238Y0065281D01*
X0187146Y0065316D01*
X0187054Y0065349D01*
X0186960Y0065377D01*
X0186865Y0065402D01*
X0186769Y0065423D01*
X0186672Y0065440D01*
X0186575Y0065454D01*
X0186477Y0065463D01*
X0186379Y0065469D01*
X0186281Y0065471D01*
X0182281Y0062971D02*
X0182283Y0062845D01*
X0182289Y0062720D01*
X0182299Y0062595D01*
X0182313Y0062470D01*
X0182330Y0062345D01*
X0182352Y0062221D01*
X0182377Y0062098D01*
X0182407Y0061976D01*
X0182440Y0061855D01*
X0182477Y0061735D01*
X0182517Y0061616D01*
X0182562Y0061499D01*
X0182610Y0061382D01*
X0182662Y0061268D01*
X0182717Y0061155D01*
X0182776Y0061044D01*
X0182838Y0060935D01*
X0182904Y0060828D01*
X0182973Y0060723D01*
X0183045Y0060620D01*
X0183120Y0060519D01*
X0183199Y0060421D01*
X0183281Y0060326D01*
X0183365Y0060233D01*
X0183453Y0060143D01*
X0183543Y0060055D01*
X0183636Y0059971D01*
X0183731Y0059889D01*
X0183829Y0059810D01*
X0183930Y0059735D01*
X0184033Y0059663D01*
X0184138Y0059594D01*
X0184245Y0059528D01*
X0184354Y0059466D01*
X0184465Y0059407D01*
X0184578Y0059352D01*
X0184692Y0059300D01*
X0184809Y0059252D01*
X0184926Y0059207D01*
X0185045Y0059167D01*
X0185165Y0059130D01*
X0185286Y0059097D01*
X0185408Y0059067D01*
X0185531Y0059042D01*
X0185655Y0059020D01*
X0185780Y0059003D01*
X0185905Y0058989D01*
X0186030Y0058979D01*
X0186155Y0058973D01*
X0186281Y0058971D01*
X0182754Y0056925D02*
X0182608Y0057012D01*
X0182465Y0057103D01*
X0182324Y0057197D01*
X0182185Y0057295D01*
X0182048Y0057396D01*
X0181914Y0057500D01*
X0181783Y0057607D01*
X0181654Y0057718D01*
X0181528Y0057832D01*
X0181405Y0057948D01*
X0181285Y0058068D01*
X0181167Y0058191D01*
X0181053Y0058316D01*
X0180942Y0058444D01*
X0180833Y0058575D01*
X0180728Y0058708D01*
X0180627Y0058844D01*
X0180528Y0058983D01*
X0180433Y0059123D01*
X0180342Y0059266D01*
X0180254Y0059411D01*
X0180169Y0059558D01*
X0180088Y0059708D01*
X0180011Y0059859D01*
X0179937Y0060012D01*
X0179867Y0060166D01*
X0179801Y0060323D01*
X0179739Y0060481D01*
X0179681Y0060640D01*
X0179626Y0060801D01*
X0179575Y0060963D01*
X0179529Y0061126D01*
X0179486Y0061290D01*
X0179447Y0061455D01*
X0179412Y0061622D01*
X0179382Y0061789D01*
X0179355Y0061956D01*
X0179332Y0062124D01*
X0179314Y0062293D01*
X0179300Y0062462D01*
X0179289Y0062632D01*
X0179283Y0062801D01*
X0179281Y0062971D01*
X0183781Y0062971D02*
X0183783Y0062873D01*
X0183789Y0062775D01*
X0183798Y0062677D01*
X0183812Y0062580D01*
X0183829Y0062483D01*
X0183850Y0062387D01*
X0183875Y0062292D01*
X0183903Y0062198D01*
X0183936Y0062106D01*
X0183971Y0062014D01*
X0184011Y0061924D01*
X0184053Y0061836D01*
X0184100Y0061749D01*
X0184149Y0061665D01*
X0184202Y0061582D01*
X0184258Y0061502D01*
X0184318Y0061423D01*
X0184380Y0061347D01*
X0184445Y0061274D01*
X0184513Y0061203D01*
X0184584Y0061135D01*
X0184657Y0061070D01*
X0184733Y0061008D01*
X0184812Y0060948D01*
X0184892Y0060892D01*
X0184975Y0060839D01*
X0185059Y0060790D01*
X0185146Y0060743D01*
X0185234Y0060701D01*
X0185324Y0060661D01*
X0185416Y0060626D01*
X0185508Y0060593D01*
X0185602Y0060565D01*
X0185697Y0060540D01*
X0185793Y0060519D01*
X0185890Y0060502D01*
X0185987Y0060488D01*
X0186085Y0060479D01*
X0186183Y0060473D01*
X0186281Y0060471D01*
X0170079Y0076877D02*
X0165079Y0076877D01*
X0162579Y0079377D01*
X0160079Y0076877D01*
X0155079Y0076877D01*
X0152579Y0079377D01*
X0152579Y0084377D01*
X0155079Y0086877D01*
X0160079Y0086877D01*
X0162579Y0084377D01*
X0165079Y0086877D01*
X0170079Y0086877D01*
X0172579Y0084377D01*
X0172579Y0079377D01*
X0170079Y0076877D01*
X0162579Y0079377D02*
X0162579Y0084377D01*
X0126459Y0071806D02*
X0123230Y0071806D01*
X0123230Y0066806D02*
X0126459Y0066806D01*
X0128149Y0057070D02*
X0128149Y0053841D01*
X0133149Y0053841D02*
X0133149Y0057070D01*
D19*
X0098330Y0037476D03*
X0082582Y0037476D03*
X0066834Y0037476D03*
X0066834Y0080980D03*
X0082582Y0080980D03*
X0098330Y0080980D03*
D20*
X0095180Y0080980D03*
X0092030Y0080980D03*
X0073134Y0080980D03*
X0069984Y0080980D03*
X0069984Y0037476D03*
X0073134Y0037476D03*
X0092030Y0037476D03*
X0095180Y0037476D03*
D21*
X0088881Y0037476D03*
X0085731Y0037476D03*
X0079433Y0037476D03*
X0076283Y0037476D03*
X0076283Y0080980D03*
X0079433Y0080980D03*
X0085731Y0080980D03*
X0088881Y0080980D03*
D22*
X0104334Y0074976D03*
X0104334Y0059228D03*
X0104334Y0043480D03*
X0060830Y0043480D03*
X0060830Y0059228D03*
X0060830Y0074976D03*
D23*
X0060830Y0071826D03*
X0060830Y0068676D03*
X0060830Y0049779D03*
X0060830Y0046629D03*
X0104334Y0046629D03*
X0104334Y0049779D03*
X0104334Y0068676D03*
X0104334Y0071826D03*
D24*
X0104334Y0065527D03*
X0104334Y0062377D03*
X0104334Y0056078D03*
X0104334Y0052928D03*
X0060830Y0052928D03*
X0060830Y0056078D03*
X0060830Y0062377D03*
X0060830Y0065527D03*
D25*
X0018219Y0010957D02*
X0013219Y0010957D01*
X0013219Y0085957D01*
X0038219Y0085957D01*
X0038219Y0010957D01*
X0033219Y0010957D01*
X0033217Y0011097D01*
X0033211Y0011237D01*
X0033201Y0011377D01*
X0033188Y0011517D01*
X0033170Y0011656D01*
X0033148Y0011795D01*
X0033123Y0011932D01*
X0033094Y0012070D01*
X0033061Y0012206D01*
X0033024Y0012341D01*
X0032983Y0012475D01*
X0032938Y0012608D01*
X0032890Y0012740D01*
X0032838Y0012870D01*
X0032783Y0012999D01*
X0032724Y0013126D01*
X0032661Y0013252D01*
X0032595Y0013376D01*
X0032526Y0013497D01*
X0032453Y0013617D01*
X0032376Y0013735D01*
X0032297Y0013850D01*
X0032214Y0013964D01*
X0032128Y0014074D01*
X0032039Y0014183D01*
X0031947Y0014289D01*
X0031852Y0014392D01*
X0031755Y0014493D01*
X0031654Y0014590D01*
X0031551Y0014685D01*
X0031445Y0014777D01*
X0031336Y0014866D01*
X0031226Y0014952D01*
X0031112Y0015035D01*
X0030997Y0015114D01*
X0030879Y0015191D01*
X0030759Y0015264D01*
X0030638Y0015333D01*
X0030514Y0015399D01*
X0030388Y0015462D01*
X0030261Y0015521D01*
X0030132Y0015576D01*
X0030002Y0015628D01*
X0029870Y0015676D01*
X0029737Y0015721D01*
X0029603Y0015762D01*
X0029468Y0015799D01*
X0029332Y0015832D01*
X0029194Y0015861D01*
X0029057Y0015886D01*
X0028918Y0015908D01*
X0028779Y0015926D01*
X0028639Y0015939D01*
X0028499Y0015949D01*
X0028359Y0015955D01*
X0028219Y0015957D01*
X0023219Y0015957D01*
X0023079Y0015955D01*
X0022939Y0015949D01*
X0022799Y0015939D01*
X0022659Y0015926D01*
X0022520Y0015908D01*
X0022381Y0015886D01*
X0022244Y0015861D01*
X0022106Y0015832D01*
X0021970Y0015799D01*
X0021835Y0015762D01*
X0021701Y0015721D01*
X0021568Y0015676D01*
X0021436Y0015628D01*
X0021306Y0015576D01*
X0021177Y0015521D01*
X0021050Y0015462D01*
X0020924Y0015399D01*
X0020800Y0015333D01*
X0020679Y0015264D01*
X0020559Y0015191D01*
X0020441Y0015114D01*
X0020326Y0015035D01*
X0020212Y0014952D01*
X0020102Y0014866D01*
X0019993Y0014777D01*
X0019887Y0014685D01*
X0019784Y0014590D01*
X0019683Y0014493D01*
X0019586Y0014392D01*
X0019491Y0014289D01*
X0019399Y0014183D01*
X0019310Y0014074D01*
X0019224Y0013964D01*
X0019141Y0013850D01*
X0019062Y0013735D01*
X0018985Y0013617D01*
X0018912Y0013497D01*
X0018843Y0013376D01*
X0018777Y0013252D01*
X0018714Y0013126D01*
X0018655Y0012999D01*
X0018600Y0012870D01*
X0018548Y0012740D01*
X0018500Y0012608D01*
X0018455Y0012475D01*
X0018414Y0012341D01*
X0018377Y0012206D01*
X0018344Y0012070D01*
X0018315Y0011932D01*
X0018290Y0011795D01*
X0018268Y0011656D01*
X0018250Y0011517D01*
X0018237Y0011377D01*
X0018227Y0011237D01*
X0018221Y0011097D01*
X0018219Y0010957D01*
X0094963Y0007420D02*
X0096464Y0007420D01*
X0095714Y0007420D02*
X0095714Y0002917D01*
X0096464Y0002917D02*
X0094963Y0002917D01*
X0098032Y0003667D02*
X0098783Y0002917D01*
X0100284Y0002917D01*
X0101035Y0003667D01*
X0102636Y0003667D02*
X0103387Y0002917D01*
X0104888Y0002917D01*
X0105639Y0003667D01*
X0105639Y0004418D01*
X0104888Y0005169D01*
X0103387Y0005169D01*
X0102636Y0005919D01*
X0102636Y0006670D01*
X0103387Y0007420D01*
X0104888Y0007420D01*
X0105639Y0006670D01*
X0107240Y0007420D02*
X0109492Y0007420D01*
X0110243Y0006670D01*
X0110243Y0005169D01*
X0109492Y0004418D01*
X0107240Y0004418D01*
X0107240Y0002917D02*
X0107240Y0007420D01*
X0111844Y0005169D02*
X0111844Y0003667D01*
X0112595Y0002917D01*
X0114096Y0002917D01*
X0114847Y0003667D01*
X0114847Y0004418D01*
X0114096Y0005169D01*
X0111844Y0005169D01*
X0113345Y0006670D01*
X0114847Y0007420D01*
X0116448Y0005169D02*
X0119451Y0005169D01*
X0121052Y0005169D02*
X0124055Y0005169D01*
X0123304Y0007420D02*
X0123304Y0002917D01*
X0121052Y0005169D02*
X0123304Y0007420D01*
X0118700Y0007420D02*
X0116448Y0005169D01*
X0118700Y0002917D02*
X0118700Y0007420D01*
X0101035Y0006670D02*
X0100284Y0007420D01*
X0098783Y0007420D01*
X0098032Y0006670D01*
X0098032Y0003667D01*
X0137438Y0028552D02*
X0138189Y0027801D01*
X0139690Y0027801D01*
X0140441Y0028552D01*
X0140441Y0029302D01*
X0139690Y0030053D01*
X0138189Y0030053D01*
X0137438Y0030803D01*
X0137438Y0031554D01*
X0138189Y0032305D01*
X0139690Y0032305D01*
X0140441Y0031554D01*
X0142042Y0030803D02*
X0143543Y0032305D01*
X0143543Y0027801D01*
X0142042Y0027801D02*
X0145044Y0027801D01*
X0165080Y0031753D02*
X0165080Y0045753D01*
X0171080Y0045753D01*
X0171080Y0031753D01*
X0165080Y0031753D01*
X0178100Y0033686D02*
X0181200Y0033686D01*
X0179600Y0032286D02*
X0179600Y0035186D01*
X0180897Y0050236D02*
X0183899Y0050236D01*
X0184650Y0050987D01*
X0184650Y0052488D01*
X0183899Y0053239D01*
X0180897Y0053239D01*
X0180146Y0052488D01*
X0180146Y0050987D01*
X0180897Y0050236D01*
X0180146Y0054840D02*
X0180146Y0057092D01*
X0180897Y0057843D01*
X0182398Y0057843D01*
X0183148Y0057092D01*
X0183148Y0054840D01*
X0184650Y0054840D02*
X0180146Y0054840D01*
X0174031Y0058221D02*
X0174031Y0060473D01*
X0173280Y0061224D01*
X0170278Y0061224D01*
X0169527Y0060473D01*
X0169527Y0058221D01*
X0174031Y0058221D01*
X0171289Y0055910D02*
X0165289Y0055910D01*
X0165289Y0069910D01*
X0171289Y0069910D01*
X0171289Y0055910D01*
X0180146Y0061746D02*
X0184650Y0061746D01*
X0184650Y0064749D01*
X0184650Y0066350D02*
X0184650Y0069353D01*
X0184650Y0070954D02*
X0184650Y0073206D01*
X0183899Y0073957D01*
X0180897Y0073957D01*
X0180146Y0073206D01*
X0180146Y0070954D01*
X0184650Y0070954D01*
X0180146Y0069353D02*
X0180146Y0066350D01*
X0184650Y0066350D01*
X0182398Y0066350D02*
X0182398Y0067851D01*
X0174031Y0068931D02*
X0169527Y0068931D01*
X0169527Y0070432D02*
X0169527Y0067429D01*
X0169527Y0065828D02*
X0169527Y0062825D01*
X0174031Y0062825D01*
X0174031Y0065828D01*
X0171779Y0064327D02*
X0171779Y0062825D01*
X0183899Y0060195D02*
X0184650Y0060195D01*
X0184650Y0059444D01*
X0183899Y0059444D01*
X0183899Y0060195D01*
X0153446Y0062163D02*
X0141635Y0062163D01*
X0141635Y0042478D01*
X0153446Y0042478D01*
X0153446Y0062163D01*
X0153280Y0089327D02*
X0154031Y0089327D01*
X0154781Y0090078D01*
X0154781Y0093831D01*
X0154031Y0093831D02*
X0155532Y0093831D01*
X0157133Y0093831D02*
X0159385Y0093831D01*
X0160136Y0093080D01*
X0160136Y0091579D01*
X0159385Y0090828D01*
X0157133Y0090828D01*
X0157133Y0089327D02*
X0157133Y0093831D01*
X0161737Y0092329D02*
X0163238Y0093831D01*
X0163238Y0089327D01*
X0161737Y0089327D02*
X0164740Y0089327D01*
X0153280Y0089327D02*
X0152529Y0090078D01*
D26*
X0157579Y0081877D03*
X0167579Y0081877D03*
X0120406Y0025167D03*
X0110406Y0025167D03*
X0100406Y0025167D03*
X0100406Y0015167D03*
X0110406Y0015167D03*
X0120406Y0015167D03*
D27*
X0130655Y0052576D03*
X0130655Y0058376D03*
D28*
X0127765Y0069300D03*
X0121965Y0069300D03*
X0146122Y0034035D03*
X0151922Y0034035D03*
D29*
X0148538Y0017987D02*
X0148538Y0015518D01*
X0148538Y0016752D02*
X0144835Y0016752D01*
X0146069Y0015518D01*
D30*
X0154688Y0018551D03*
D31*
X0164088Y0018601D03*
X0135288Y0018501D03*
D32*
X0131388Y0018551D03*
X0167988Y0018551D03*
D33*
X0168080Y0041115D03*
X0168289Y0065272D03*
D34*
X0190272Y0037556D02*
X0189941Y0037982D01*
X0189941Y0037981D02*
X0190056Y0038074D01*
X0190168Y0038169D01*
X0190278Y0038267D01*
X0190385Y0038368D01*
X0190489Y0038472D01*
X0190591Y0038579D01*
X0190690Y0038688D01*
X0190786Y0038799D01*
X0190880Y0038913D01*
X0190970Y0039029D01*
X0191057Y0039148D01*
X0191141Y0039269D01*
X0191222Y0039391D01*
X0191300Y0039516D01*
X0191375Y0039643D01*
X0191446Y0039772D01*
X0191515Y0039902D01*
X0191579Y0040035D01*
X0191640Y0040169D01*
X0191698Y0040304D01*
X0191753Y0040441D01*
X0191803Y0040579D01*
X0191851Y0040719D01*
X0191894Y0040859D01*
X0191934Y0041001D01*
X0191971Y0041143D01*
X0192003Y0041287D01*
X0192032Y0041431D01*
X0192057Y0041576D01*
X0192079Y0041722D01*
X0192097Y0041868D01*
X0192111Y0042015D01*
X0192121Y0042162D01*
X0192127Y0042309D01*
X0192130Y0042456D01*
X0192669Y0042456D01*
X0192670Y0042456D01*
X0192667Y0042299D01*
X0192661Y0042143D01*
X0192650Y0041986D01*
X0192636Y0041830D01*
X0192617Y0041674D01*
X0192595Y0041519D01*
X0192569Y0041365D01*
X0192539Y0041211D01*
X0192505Y0041058D01*
X0192467Y0040905D01*
X0192426Y0040754D01*
X0192381Y0040604D01*
X0192332Y0040455D01*
X0192279Y0040307D01*
X0192223Y0040161D01*
X0192163Y0040016D01*
X0192099Y0039873D01*
X0192032Y0039731D01*
X0191962Y0039591D01*
X0191888Y0039453D01*
X0191810Y0039317D01*
X0191729Y0039182D01*
X0191645Y0039050D01*
X0191557Y0038920D01*
X0191467Y0038792D01*
X0191373Y0038667D01*
X0191276Y0038544D01*
X0191175Y0038423D01*
X0191072Y0038305D01*
X0190966Y0038189D01*
X0190858Y0038077D01*
X0190746Y0037966D01*
X0190632Y0037859D01*
X0190515Y0037755D01*
X0190395Y0037653D01*
X0190273Y0037555D01*
X0190238Y0037599D01*
X0190359Y0037697D01*
X0190478Y0037797D01*
X0190594Y0037901D01*
X0190707Y0038007D01*
X0190818Y0038116D01*
X0190926Y0038228D01*
X0191031Y0038342D01*
X0191133Y0038459D01*
X0191232Y0038579D01*
X0191328Y0038701D01*
X0191421Y0038825D01*
X0191511Y0038952D01*
X0191598Y0039081D01*
X0191682Y0039212D01*
X0191762Y0039345D01*
X0191839Y0039480D01*
X0191912Y0039617D01*
X0191982Y0039756D01*
X0192049Y0039896D01*
X0192112Y0040038D01*
X0192171Y0040182D01*
X0192227Y0040327D01*
X0192279Y0040473D01*
X0192327Y0040621D01*
X0192372Y0040769D01*
X0192413Y0040919D01*
X0192451Y0041070D01*
X0192484Y0041222D01*
X0192514Y0041374D01*
X0192540Y0041528D01*
X0192562Y0041681D01*
X0192580Y0041836D01*
X0192594Y0041990D01*
X0192605Y0042145D01*
X0192611Y0042301D01*
X0192614Y0042456D01*
X0192558Y0042456D01*
X0192555Y0042302D01*
X0192549Y0042148D01*
X0192538Y0041995D01*
X0192524Y0041841D01*
X0192506Y0041688D01*
X0192484Y0041536D01*
X0192459Y0041384D01*
X0192429Y0041233D01*
X0192396Y0041083D01*
X0192359Y0040933D01*
X0192318Y0040785D01*
X0192274Y0040637D01*
X0192226Y0040491D01*
X0192174Y0040346D01*
X0192119Y0040202D01*
X0192060Y0040060D01*
X0191998Y0039919D01*
X0191932Y0039780D01*
X0191862Y0039643D01*
X0191790Y0039507D01*
X0191713Y0039373D01*
X0191634Y0039242D01*
X0191551Y0039112D01*
X0191465Y0038984D01*
X0191376Y0038859D01*
X0191284Y0038735D01*
X0191189Y0038614D01*
X0191090Y0038496D01*
X0190989Y0038380D01*
X0190885Y0038266D01*
X0190778Y0038156D01*
X0190669Y0038047D01*
X0190556Y0037942D01*
X0190441Y0037840D01*
X0190324Y0037740D01*
X0190204Y0037644D01*
X0190170Y0037688D01*
X0190288Y0037783D01*
X0190405Y0037882D01*
X0190519Y0037984D01*
X0190630Y0038088D01*
X0190739Y0038195D01*
X0190844Y0038305D01*
X0190948Y0038417D01*
X0191048Y0038532D01*
X0191145Y0038650D01*
X0191240Y0038769D01*
X0191331Y0038892D01*
X0191419Y0039016D01*
X0191504Y0039143D01*
X0191586Y0039271D01*
X0191665Y0039402D01*
X0191741Y0039534D01*
X0191813Y0039669D01*
X0191881Y0039805D01*
X0191947Y0039943D01*
X0192009Y0040082D01*
X0192067Y0040223D01*
X0192122Y0040366D01*
X0192173Y0040509D01*
X0192221Y0040654D01*
X0192265Y0040800D01*
X0192305Y0040947D01*
X0192341Y0041095D01*
X0192374Y0041244D01*
X0192404Y0041394D01*
X0192429Y0041544D01*
X0192451Y0041695D01*
X0192468Y0041847D01*
X0192483Y0041999D01*
X0192493Y0042151D01*
X0192499Y0042303D01*
X0192502Y0042456D01*
X0192446Y0042456D01*
X0192443Y0042305D01*
X0192437Y0042154D01*
X0192427Y0042003D01*
X0192413Y0041853D01*
X0192395Y0041703D01*
X0192374Y0041553D01*
X0192348Y0041404D01*
X0192319Y0041256D01*
X0192287Y0041108D01*
X0192251Y0040961D01*
X0192211Y0040816D01*
X0192167Y0040671D01*
X0192120Y0040527D01*
X0192069Y0040385D01*
X0192015Y0040244D01*
X0191957Y0040104D01*
X0191896Y0039966D01*
X0191831Y0039830D01*
X0191763Y0039695D01*
X0191692Y0039561D01*
X0191617Y0039430D01*
X0191539Y0039301D01*
X0191458Y0039173D01*
X0191373Y0039048D01*
X0191286Y0038925D01*
X0191195Y0038804D01*
X0191102Y0038685D01*
X0191005Y0038569D01*
X0190906Y0038455D01*
X0190804Y0038343D01*
X0190699Y0038235D01*
X0190591Y0038129D01*
X0190481Y0038025D01*
X0190368Y0037925D01*
X0190253Y0037827D01*
X0190135Y0037732D01*
X0190101Y0037776D01*
X0190221Y0037873D01*
X0190338Y0037973D01*
X0190453Y0038075D01*
X0190565Y0038181D01*
X0190674Y0038289D01*
X0190781Y0038401D01*
X0190884Y0038515D01*
X0190985Y0038631D01*
X0191082Y0038750D01*
X0191177Y0038872D01*
X0191268Y0038996D01*
X0191356Y0039122D01*
X0191441Y0039251D01*
X0191523Y0039381D01*
X0191601Y0039514D01*
X0191675Y0039649D01*
X0191747Y0039785D01*
X0191814Y0039924D01*
X0191878Y0040064D01*
X0191939Y0040205D01*
X0191996Y0040348D01*
X0192049Y0040493D01*
X0192098Y0040639D01*
X0192144Y0040786D01*
X0192185Y0040934D01*
X0192223Y0041083D01*
X0192258Y0041233D01*
X0192288Y0041384D01*
X0192314Y0041536D01*
X0192337Y0041688D01*
X0192355Y0041841D01*
X0192370Y0041995D01*
X0192380Y0042148D01*
X0192387Y0042302D01*
X0192390Y0042456D01*
X0192334Y0042456D01*
X0192331Y0042303D01*
X0192325Y0042151D01*
X0192314Y0041999D01*
X0192300Y0041847D01*
X0192281Y0041696D01*
X0192259Y0041545D01*
X0192233Y0041394D01*
X0192203Y0041245D01*
X0192169Y0041096D01*
X0192131Y0040948D01*
X0192090Y0040802D01*
X0192045Y0040656D01*
X0191996Y0040511D01*
X0191943Y0040368D01*
X0191887Y0040226D01*
X0191827Y0040086D01*
X0191764Y0039947D01*
X0191697Y0039810D01*
X0191626Y0039675D01*
X0191552Y0039542D01*
X0191475Y0039410D01*
X0191394Y0039281D01*
X0191310Y0039154D01*
X0191223Y0039029D01*
X0191132Y0038906D01*
X0191039Y0038785D01*
X0190942Y0038667D01*
X0190842Y0038552D01*
X0190740Y0038439D01*
X0190634Y0038329D01*
X0190526Y0038221D01*
X0190415Y0038117D01*
X0190301Y0038015D01*
X0190185Y0037916D01*
X0190067Y0037820D01*
X0190032Y0037865D01*
X0190150Y0037959D01*
X0190265Y0038057D01*
X0190377Y0038158D01*
X0190487Y0038262D01*
X0190595Y0038368D01*
X0190699Y0038477D01*
X0190801Y0038589D01*
X0190899Y0038703D01*
X0190995Y0038820D01*
X0191088Y0038940D01*
X0191177Y0039061D01*
X0191264Y0039185D01*
X0191347Y0039311D01*
X0191427Y0039439D01*
X0191504Y0039570D01*
X0191577Y0039702D01*
X0191647Y0039836D01*
X0191713Y0039971D01*
X0191776Y0040109D01*
X0191835Y0040248D01*
X0191891Y0040388D01*
X0191943Y0040530D01*
X0191991Y0040673D01*
X0192036Y0040817D01*
X0192077Y0040963D01*
X0192114Y0041109D01*
X0192148Y0041256D01*
X0192178Y0041405D01*
X0192204Y0041553D01*
X0192226Y0041703D01*
X0192244Y0041853D01*
X0192258Y0042003D01*
X0192269Y0042154D01*
X0192275Y0042305D01*
X0192278Y0042456D01*
X0192222Y0042456D01*
X0192219Y0042306D01*
X0192213Y0042157D01*
X0192202Y0042008D01*
X0192188Y0041859D01*
X0192170Y0041710D01*
X0192148Y0041562D01*
X0192123Y0041415D01*
X0192093Y0041268D01*
X0192060Y0041122D01*
X0192023Y0040977D01*
X0191982Y0040833D01*
X0191938Y0040690D01*
X0191890Y0040549D01*
X0191839Y0040408D01*
X0191783Y0040269D01*
X0191725Y0040131D01*
X0191662Y0039995D01*
X0191597Y0039861D01*
X0191527Y0039728D01*
X0191455Y0039597D01*
X0191379Y0039469D01*
X0191300Y0039342D01*
X0191217Y0039217D01*
X0191132Y0039094D01*
X0191043Y0038974D01*
X0190951Y0038855D01*
X0190856Y0038740D01*
X0190759Y0038626D01*
X0190658Y0038516D01*
X0190555Y0038408D01*
X0190449Y0038302D01*
X0190340Y0038199D01*
X0190228Y0038100D01*
X0190114Y0038003D01*
X0189998Y0037909D01*
X0189963Y0037953D01*
X0190079Y0038046D01*
X0190192Y0038142D01*
X0190302Y0038241D01*
X0190410Y0038342D01*
X0190515Y0038447D01*
X0190617Y0038554D01*
X0190717Y0038664D01*
X0190814Y0038776D01*
X0190908Y0038890D01*
X0190999Y0039007D01*
X0191086Y0039127D01*
X0191171Y0039248D01*
X0191253Y0039372D01*
X0191331Y0039498D01*
X0191406Y0039625D01*
X0191478Y0039755D01*
X0191547Y0039886D01*
X0191612Y0040019D01*
X0191673Y0040154D01*
X0191732Y0040290D01*
X0191786Y0040428D01*
X0191837Y0040567D01*
X0191885Y0040707D01*
X0191929Y0040849D01*
X0191969Y0040992D01*
X0192006Y0041135D01*
X0192038Y0041280D01*
X0192068Y0041425D01*
X0192093Y0041571D01*
X0192115Y0041717D01*
X0192132Y0041865D01*
X0192146Y0042012D01*
X0192157Y0042160D01*
X0192163Y0042308D01*
X0192166Y0042456D01*
X0186429Y0036217D02*
X0186429Y0036757D01*
X0186430Y0036756D02*
X0186576Y0036759D01*
X0186723Y0036765D01*
X0186869Y0036775D01*
X0187015Y0036789D01*
X0187160Y0036807D01*
X0187305Y0036828D01*
X0187450Y0036853D01*
X0187593Y0036882D01*
X0187736Y0036914D01*
X0187878Y0036950D01*
X0188020Y0036990D01*
X0188160Y0037033D01*
X0188298Y0037080D01*
X0188436Y0037130D01*
X0188572Y0037184D01*
X0188707Y0037241D01*
X0188841Y0037302D01*
X0188972Y0037366D01*
X0189103Y0037433D01*
X0189231Y0037504D01*
X0189357Y0037578D01*
X0189482Y0037655D01*
X0189604Y0037736D01*
X0189725Y0037819D01*
X0189843Y0037906D01*
X0189959Y0037995D01*
X0190073Y0038088D01*
X0190184Y0038183D01*
X0190542Y0037780D01*
X0190543Y0037780D01*
X0190425Y0037679D01*
X0190305Y0037581D01*
X0190183Y0037486D01*
X0190058Y0037394D01*
X0189931Y0037305D01*
X0189802Y0037219D01*
X0189670Y0037136D01*
X0189537Y0037057D01*
X0189402Y0036981D01*
X0189265Y0036909D01*
X0189126Y0036840D01*
X0188986Y0036774D01*
X0188844Y0036712D01*
X0188700Y0036653D01*
X0188555Y0036598D01*
X0188409Y0036547D01*
X0188262Y0036499D01*
X0188113Y0036455D01*
X0187963Y0036414D01*
X0187813Y0036377D01*
X0187661Y0036344D01*
X0187509Y0036315D01*
X0187356Y0036289D01*
X0187203Y0036268D01*
X0187049Y0036250D01*
X0186894Y0036236D01*
X0186740Y0036225D01*
X0186585Y0036219D01*
X0186430Y0036216D01*
X0186430Y0036272D01*
X0186583Y0036275D01*
X0186737Y0036281D01*
X0186890Y0036291D01*
X0187043Y0036305D01*
X0187196Y0036323D01*
X0187348Y0036345D01*
X0187499Y0036370D01*
X0187650Y0036399D01*
X0187800Y0036432D01*
X0187950Y0036468D01*
X0188098Y0036508D01*
X0188245Y0036552D01*
X0188391Y0036600D01*
X0188536Y0036651D01*
X0188680Y0036705D01*
X0188822Y0036763D01*
X0188963Y0036825D01*
X0189102Y0036890D01*
X0189239Y0036959D01*
X0189375Y0037030D01*
X0189509Y0037106D01*
X0189641Y0037184D01*
X0189771Y0037266D01*
X0189899Y0037351D01*
X0190025Y0037439D01*
X0190149Y0037530D01*
X0190270Y0037624D01*
X0190389Y0037721D01*
X0190506Y0037822D01*
X0190468Y0037863D01*
X0190353Y0037764D01*
X0190235Y0037668D01*
X0190115Y0037575D01*
X0189992Y0037484D01*
X0189868Y0037397D01*
X0189741Y0037313D01*
X0189612Y0037232D01*
X0189481Y0037154D01*
X0189348Y0037080D01*
X0189214Y0037008D01*
X0189077Y0036941D01*
X0188940Y0036876D01*
X0188800Y0036815D01*
X0188659Y0036757D01*
X0188517Y0036703D01*
X0188373Y0036653D01*
X0188228Y0036606D01*
X0188083Y0036562D01*
X0187936Y0036523D01*
X0187788Y0036486D01*
X0187639Y0036454D01*
X0187490Y0036425D01*
X0187339Y0036400D01*
X0187189Y0036379D01*
X0187038Y0036361D01*
X0186886Y0036347D01*
X0186734Y0036337D01*
X0186582Y0036331D01*
X0186430Y0036328D01*
X0186430Y0036384D01*
X0186581Y0036387D01*
X0186731Y0036393D01*
X0186882Y0036403D01*
X0187032Y0036417D01*
X0187182Y0036434D01*
X0187331Y0036455D01*
X0187480Y0036480D01*
X0187628Y0036509D01*
X0187775Y0036541D01*
X0187922Y0036577D01*
X0188067Y0036616D01*
X0188212Y0036659D01*
X0188355Y0036706D01*
X0188498Y0036756D01*
X0188639Y0036809D01*
X0188778Y0036867D01*
X0188916Y0036927D01*
X0189053Y0036991D01*
X0189188Y0037058D01*
X0189321Y0037129D01*
X0189453Y0037203D01*
X0189582Y0037280D01*
X0189710Y0037360D01*
X0189836Y0037443D01*
X0189959Y0037530D01*
X0190081Y0037619D01*
X0190200Y0037712D01*
X0190317Y0037807D01*
X0190431Y0037905D01*
X0190394Y0037947D01*
X0190277Y0037846D01*
X0190157Y0037749D01*
X0190034Y0037654D01*
X0189909Y0037563D01*
X0189782Y0037474D01*
X0189653Y0037390D01*
X0189521Y0037308D01*
X0189388Y0037230D01*
X0189252Y0037155D01*
X0189115Y0037084D01*
X0188976Y0037016D01*
X0188835Y0036952D01*
X0188692Y0036891D01*
X0188548Y0036835D01*
X0188403Y0036781D01*
X0188256Y0036732D01*
X0188108Y0036686D01*
X0187960Y0036645D01*
X0187809Y0036607D01*
X0187659Y0036572D01*
X0187507Y0036542D01*
X0187354Y0036516D01*
X0187201Y0036493D01*
X0187048Y0036475D01*
X0186893Y0036460D01*
X0186739Y0036450D01*
X0186584Y0036443D01*
X0186430Y0036440D01*
X0186430Y0036496D01*
X0186583Y0036499D01*
X0186736Y0036505D01*
X0186889Y0036516D01*
X0187042Y0036530D01*
X0187194Y0036549D01*
X0187346Y0036571D01*
X0187497Y0036597D01*
X0187647Y0036627D01*
X0187797Y0036661D01*
X0187945Y0036699D01*
X0188093Y0036740D01*
X0188239Y0036785D01*
X0188384Y0036834D01*
X0188528Y0036887D01*
X0188671Y0036943D01*
X0188812Y0037003D01*
X0188952Y0037067D01*
X0189090Y0037134D01*
X0189226Y0037204D01*
X0189360Y0037278D01*
X0189492Y0037356D01*
X0189622Y0037437D01*
X0189751Y0037521D01*
X0189877Y0037608D01*
X0190000Y0037699D01*
X0190122Y0037792D01*
X0190240Y0037889D01*
X0190357Y0037989D01*
X0190320Y0038031D01*
X0190204Y0037932D01*
X0190087Y0037836D01*
X0189966Y0037743D01*
X0189844Y0037654D01*
X0189719Y0037567D01*
X0189592Y0037484D01*
X0189463Y0037404D01*
X0189332Y0037327D01*
X0189199Y0037254D01*
X0189064Y0037184D01*
X0188928Y0037117D01*
X0188790Y0037054D01*
X0188650Y0036995D01*
X0188509Y0036939D01*
X0188366Y0036887D01*
X0188222Y0036839D01*
X0188077Y0036794D01*
X0187931Y0036753D01*
X0187784Y0036716D01*
X0187635Y0036682D01*
X0187487Y0036652D01*
X0187337Y0036626D01*
X0187187Y0036604D01*
X0187036Y0036586D01*
X0186885Y0036572D01*
X0186733Y0036561D01*
X0186582Y0036555D01*
X0186430Y0036552D01*
X0186430Y0036608D01*
X0186580Y0036611D01*
X0186730Y0036617D01*
X0186880Y0036628D01*
X0187030Y0036642D01*
X0187179Y0036660D01*
X0187328Y0036682D01*
X0187476Y0036707D01*
X0187624Y0036737D01*
X0187771Y0036770D01*
X0187916Y0036807D01*
X0188061Y0036848D01*
X0188205Y0036892D01*
X0188347Y0036940D01*
X0188489Y0036992D01*
X0188629Y0037047D01*
X0188767Y0037106D01*
X0188904Y0037168D01*
X0189039Y0037234D01*
X0189173Y0037303D01*
X0189304Y0037376D01*
X0189434Y0037452D01*
X0189562Y0037531D01*
X0189688Y0037613D01*
X0189811Y0037699D01*
X0189933Y0037788D01*
X0190052Y0037880D01*
X0190168Y0037975D01*
X0190282Y0038073D01*
X0190245Y0038115D01*
X0190132Y0038018D01*
X0190017Y0037924D01*
X0189899Y0037833D01*
X0189779Y0037745D01*
X0189656Y0037660D01*
X0189532Y0037578D01*
X0189405Y0037499D01*
X0189277Y0037424D01*
X0189146Y0037352D01*
X0189014Y0037284D01*
X0188880Y0037219D01*
X0188744Y0037157D01*
X0188607Y0037099D01*
X0188469Y0037044D01*
X0188329Y0036993D01*
X0188188Y0036945D01*
X0188045Y0036901D01*
X0187902Y0036861D01*
X0187758Y0036825D01*
X0187612Y0036792D01*
X0187466Y0036762D01*
X0187320Y0036737D01*
X0187172Y0036715D01*
X0187024Y0036698D01*
X0186876Y0036683D01*
X0186727Y0036673D01*
X0186579Y0036667D01*
X0186430Y0036664D01*
X0186430Y0036720D01*
X0186577Y0036723D01*
X0186725Y0036729D01*
X0186872Y0036739D01*
X0187019Y0036753D01*
X0187165Y0036771D01*
X0187311Y0036792D01*
X0187456Y0036818D01*
X0187601Y0036846D01*
X0187745Y0036879D01*
X0187888Y0036915D01*
X0188030Y0036955D01*
X0188171Y0036999D01*
X0188310Y0037046D01*
X0188449Y0037096D01*
X0188586Y0037150D01*
X0188722Y0037208D01*
X0188856Y0037269D01*
X0188989Y0037334D01*
X0189120Y0037402D01*
X0189249Y0037473D01*
X0189376Y0037547D01*
X0189501Y0037625D01*
X0189625Y0037706D01*
X0189746Y0037790D01*
X0189865Y0037877D01*
X0189982Y0037967D01*
X0190096Y0038060D01*
X0190208Y0038156D01*
X0182732Y0047570D02*
X0183046Y0047131D01*
X0183045Y0047131D02*
X0182925Y0047042D01*
X0182807Y0046950D01*
X0182692Y0046854D01*
X0182579Y0046756D01*
X0182469Y0046655D01*
X0182361Y0046551D01*
X0182257Y0046444D01*
X0182155Y0046334D01*
X0182056Y0046222D01*
X0181960Y0046108D01*
X0181867Y0045990D01*
X0181777Y0045871D01*
X0181690Y0045749D01*
X0181606Y0045625D01*
X0181526Y0045499D01*
X0181449Y0045370D01*
X0181375Y0045240D01*
X0181305Y0045108D01*
X0181238Y0044974D01*
X0181175Y0044838D01*
X0181116Y0044701D01*
X0181059Y0044563D01*
X0181007Y0044422D01*
X0180958Y0044281D01*
X0180913Y0044138D01*
X0180872Y0043994D01*
X0180835Y0043850D01*
X0180801Y0043704D01*
X0180771Y0043557D01*
X0180745Y0043410D01*
X0180723Y0043262D01*
X0180704Y0043113D01*
X0180690Y0042964D01*
X0180679Y0042815D01*
X0180673Y0042666D01*
X0180670Y0042516D01*
X0180131Y0042516D01*
X0180130Y0042516D01*
X0180133Y0042671D01*
X0180139Y0042826D01*
X0180150Y0042981D01*
X0180164Y0043136D01*
X0180182Y0043290D01*
X0180204Y0043444D01*
X0180229Y0043597D01*
X0180259Y0043749D01*
X0180292Y0043901D01*
X0180329Y0044052D01*
X0180369Y0044202D01*
X0180414Y0044351D01*
X0180462Y0044498D01*
X0180513Y0044645D01*
X0180569Y0044790D01*
X0180627Y0044933D01*
X0180690Y0045076D01*
X0180756Y0045216D01*
X0180825Y0045355D01*
X0180898Y0045492D01*
X0180974Y0045628D01*
X0181053Y0045761D01*
X0181136Y0045892D01*
X0181222Y0046022D01*
X0181311Y0046149D01*
X0181403Y0046274D01*
X0181499Y0046396D01*
X0181597Y0046516D01*
X0181698Y0046634D01*
X0181802Y0046749D01*
X0181909Y0046862D01*
X0182019Y0046972D01*
X0182131Y0047079D01*
X0182246Y0047183D01*
X0182364Y0047284D01*
X0182484Y0047383D01*
X0182607Y0047478D01*
X0182731Y0047571D01*
X0182764Y0047525D01*
X0182640Y0047433D01*
X0182519Y0047339D01*
X0182400Y0047241D01*
X0182283Y0047141D01*
X0182169Y0047037D01*
X0182058Y0046931D01*
X0181949Y0046823D01*
X0181843Y0046711D01*
X0181740Y0046597D01*
X0181640Y0046480D01*
X0181542Y0046361D01*
X0181448Y0046240D01*
X0181356Y0046116D01*
X0181268Y0045990D01*
X0181183Y0045862D01*
X0181101Y0045732D01*
X0181022Y0045600D01*
X0180947Y0045465D01*
X0180875Y0045329D01*
X0180806Y0045192D01*
X0180741Y0045053D01*
X0180679Y0044912D01*
X0180621Y0044769D01*
X0180566Y0044625D01*
X0180515Y0044480D01*
X0180467Y0044334D01*
X0180423Y0044187D01*
X0180383Y0044038D01*
X0180346Y0043889D01*
X0180314Y0043738D01*
X0180284Y0043587D01*
X0180259Y0043436D01*
X0180237Y0043283D01*
X0180220Y0043130D01*
X0180205Y0042977D01*
X0180195Y0042824D01*
X0180189Y0042670D01*
X0180186Y0042516D01*
X0180242Y0042516D01*
X0180245Y0042673D01*
X0180252Y0042829D01*
X0180262Y0042985D01*
X0180277Y0043141D01*
X0180296Y0043297D01*
X0180318Y0043452D01*
X0180345Y0043606D01*
X0180375Y0043760D01*
X0180409Y0043912D01*
X0180448Y0044064D01*
X0180490Y0044215D01*
X0180536Y0044365D01*
X0180585Y0044513D01*
X0180639Y0044660D01*
X0180696Y0044806D01*
X0180757Y0044950D01*
X0180821Y0045093D01*
X0180889Y0045234D01*
X0180961Y0045373D01*
X0181036Y0045511D01*
X0181115Y0045646D01*
X0181197Y0045779D01*
X0181282Y0045911D01*
X0181371Y0046040D01*
X0181463Y0046166D01*
X0181558Y0046291D01*
X0181656Y0046413D01*
X0181758Y0046532D01*
X0181862Y0046649D01*
X0181969Y0046763D01*
X0182079Y0046874D01*
X0182192Y0046982D01*
X0182308Y0047088D01*
X0182426Y0047190D01*
X0182547Y0047290D01*
X0182671Y0047386D01*
X0182796Y0047479D01*
X0182829Y0047434D01*
X0182704Y0047342D01*
X0182582Y0047246D01*
X0182462Y0047147D01*
X0182345Y0047046D01*
X0182230Y0046941D01*
X0182119Y0046834D01*
X0182009Y0046724D01*
X0181903Y0046611D01*
X0181800Y0046495D01*
X0181699Y0046377D01*
X0181602Y0046256D01*
X0181508Y0046133D01*
X0181416Y0046007D01*
X0181329Y0045879D01*
X0181244Y0045749D01*
X0181163Y0045617D01*
X0181085Y0045483D01*
X0181010Y0045347D01*
X0180939Y0045209D01*
X0180872Y0045069D01*
X0180808Y0044928D01*
X0180748Y0044785D01*
X0180691Y0044641D01*
X0180638Y0044495D01*
X0180589Y0044348D01*
X0180543Y0044199D01*
X0180502Y0044050D01*
X0180464Y0043899D01*
X0180430Y0043748D01*
X0180400Y0043596D01*
X0180374Y0043443D01*
X0180351Y0043289D01*
X0180333Y0043135D01*
X0180318Y0042981D01*
X0180307Y0042826D01*
X0180301Y0042671D01*
X0180298Y0042516D01*
X0180354Y0042516D01*
X0180357Y0042670D01*
X0180363Y0042823D01*
X0180374Y0042977D01*
X0180388Y0043130D01*
X0180407Y0043282D01*
X0180429Y0043434D01*
X0180455Y0043586D01*
X0180485Y0043737D01*
X0180518Y0043887D01*
X0180556Y0044036D01*
X0180597Y0044184D01*
X0180642Y0044331D01*
X0180691Y0044476D01*
X0180743Y0044621D01*
X0180800Y0044764D01*
X0180859Y0044906D01*
X0180923Y0045046D01*
X0180989Y0045184D01*
X0181060Y0045321D01*
X0181134Y0045456D01*
X0181211Y0045588D01*
X0181291Y0045719D01*
X0181375Y0045848D01*
X0181462Y0045975D01*
X0181552Y0046099D01*
X0181646Y0046221D01*
X0181742Y0046341D01*
X0181842Y0046458D01*
X0181944Y0046573D01*
X0182050Y0046685D01*
X0182158Y0046794D01*
X0182269Y0046900D01*
X0182382Y0047004D01*
X0182498Y0047105D01*
X0182617Y0047202D01*
X0182738Y0047297D01*
X0182861Y0047388D01*
X0182894Y0047343D01*
X0182772Y0047252D01*
X0182652Y0047158D01*
X0182534Y0047062D01*
X0182419Y0046962D01*
X0182307Y0046859D01*
X0182197Y0046754D01*
X0182090Y0046646D01*
X0181985Y0046535D01*
X0181884Y0046421D01*
X0181785Y0046305D01*
X0181690Y0046187D01*
X0181597Y0046066D01*
X0181508Y0045942D01*
X0181422Y0045817D01*
X0181339Y0045689D01*
X0181259Y0045560D01*
X0181182Y0045428D01*
X0181109Y0045294D01*
X0181040Y0045159D01*
X0180973Y0045022D01*
X0180911Y0044883D01*
X0180851Y0044743D01*
X0180796Y0044601D01*
X0180744Y0044458D01*
X0180696Y0044314D01*
X0180651Y0044168D01*
X0180610Y0044021D01*
X0180573Y0043874D01*
X0180540Y0043725D01*
X0180510Y0043576D01*
X0180484Y0043426D01*
X0180462Y0043275D01*
X0180444Y0043124D01*
X0180430Y0042972D01*
X0180419Y0042820D01*
X0180413Y0042668D01*
X0180410Y0042516D01*
X0180466Y0042516D01*
X0180469Y0042667D01*
X0180475Y0042818D01*
X0180486Y0042968D01*
X0180500Y0043118D01*
X0180518Y0043268D01*
X0180540Y0043417D01*
X0180565Y0043566D01*
X0180594Y0043714D01*
X0180627Y0043861D01*
X0180664Y0044007D01*
X0180705Y0044152D01*
X0180749Y0044297D01*
X0180797Y0044440D01*
X0180848Y0044581D01*
X0180903Y0044722D01*
X0180962Y0044861D01*
X0181024Y0044998D01*
X0181090Y0045134D01*
X0181159Y0045268D01*
X0181231Y0045401D01*
X0181307Y0045531D01*
X0181386Y0045659D01*
X0181468Y0045786D01*
X0181554Y0045910D01*
X0181642Y0046032D01*
X0181734Y0046152D01*
X0181828Y0046269D01*
X0181926Y0046384D01*
X0182027Y0046497D01*
X0182130Y0046607D01*
X0182236Y0046714D01*
X0182345Y0046818D01*
X0182456Y0046920D01*
X0182570Y0047019D01*
X0182687Y0047115D01*
X0182805Y0047207D01*
X0182927Y0047297D01*
X0182959Y0047252D01*
X0182839Y0047163D01*
X0182721Y0047071D01*
X0182606Y0046976D01*
X0182493Y0046878D01*
X0182383Y0046777D01*
X0182275Y0046674D01*
X0182170Y0046568D01*
X0182068Y0046459D01*
X0181968Y0046347D01*
X0181872Y0046233D01*
X0181778Y0046117D01*
X0181687Y0045999D01*
X0181599Y0045878D01*
X0181515Y0045755D01*
X0181433Y0045629D01*
X0181355Y0045502D01*
X0181280Y0045373D01*
X0181208Y0045242D01*
X0181140Y0045109D01*
X0181075Y0044975D01*
X0181013Y0044838D01*
X0180955Y0044701D01*
X0180901Y0044562D01*
X0180850Y0044421D01*
X0180802Y0044280D01*
X0180759Y0044137D01*
X0180718Y0043993D01*
X0180682Y0043848D01*
X0180649Y0043702D01*
X0180620Y0043556D01*
X0180595Y0043409D01*
X0180573Y0043261D01*
X0180555Y0043112D01*
X0180541Y0042964D01*
X0180531Y0042815D01*
X0180525Y0042665D01*
X0180522Y0042516D01*
X0180578Y0042516D01*
X0180581Y0042668D01*
X0180588Y0042820D01*
X0180598Y0042972D01*
X0180613Y0043123D01*
X0180632Y0043274D01*
X0180654Y0043424D01*
X0180681Y0043574D01*
X0180711Y0043723D01*
X0180745Y0043871D01*
X0180783Y0044018D01*
X0180825Y0044165D01*
X0180871Y0044310D01*
X0180920Y0044453D01*
X0180974Y0044596D01*
X0181031Y0044737D01*
X0181091Y0044876D01*
X0181155Y0045014D01*
X0181223Y0045150D01*
X0181295Y0045284D01*
X0181369Y0045417D01*
X0181448Y0045547D01*
X0181529Y0045675D01*
X0181614Y0045802D01*
X0181703Y0045925D01*
X0181794Y0046047D01*
X0181888Y0046166D01*
X0181986Y0046282D01*
X0182087Y0046396D01*
X0182190Y0046508D01*
X0182297Y0046616D01*
X0182406Y0046722D01*
X0182518Y0046825D01*
X0182633Y0046925D01*
X0182750Y0047022D01*
X0182870Y0047115D01*
X0182992Y0047206D01*
X0183024Y0047161D01*
X0182903Y0047071D01*
X0182785Y0046978D01*
X0182669Y0046882D01*
X0182555Y0046783D01*
X0182444Y0046681D01*
X0182336Y0046576D01*
X0182231Y0046469D01*
X0182128Y0046359D01*
X0182028Y0046246D01*
X0181932Y0046130D01*
X0181838Y0046013D01*
X0181748Y0045892D01*
X0181660Y0045770D01*
X0181576Y0045645D01*
X0181495Y0045518D01*
X0181418Y0045389D01*
X0181344Y0045257D01*
X0181273Y0045124D01*
X0181206Y0044990D01*
X0181142Y0044853D01*
X0181082Y0044715D01*
X0181026Y0044576D01*
X0180973Y0044434D01*
X0180924Y0044292D01*
X0180879Y0044149D01*
X0180837Y0044004D01*
X0180800Y0043858D01*
X0180766Y0043711D01*
X0180736Y0043564D01*
X0180709Y0043416D01*
X0180687Y0043267D01*
X0180669Y0043117D01*
X0180654Y0042967D01*
X0180644Y0042817D01*
X0180637Y0042667D01*
X0180634Y0042516D01*
X0190390Y0047322D02*
X0190045Y0046907D01*
X0189927Y0047002D01*
X0189807Y0047093D01*
X0189685Y0047181D01*
X0189560Y0047266D01*
X0189433Y0047347D01*
X0189304Y0047425D01*
X0189173Y0047500D01*
X0189041Y0047571D01*
X0188906Y0047639D01*
X0188769Y0047703D01*
X0188631Y0047764D01*
X0188492Y0047821D01*
X0188351Y0047874D01*
X0188208Y0047923D01*
X0188064Y0047969D01*
X0187920Y0048011D01*
X0187774Y0048049D01*
X0187627Y0048083D01*
X0187479Y0048113D01*
X0187331Y0048140D01*
X0187182Y0048162D01*
X0187032Y0048181D01*
X0186882Y0048196D01*
X0186731Y0048206D01*
X0186581Y0048213D01*
X0186430Y0048216D01*
X0186430Y0048755D01*
X0186430Y0048756D01*
X0186583Y0048753D01*
X0186737Y0048747D01*
X0186890Y0048737D01*
X0187043Y0048723D01*
X0187195Y0048705D01*
X0187347Y0048684D01*
X0187498Y0048659D01*
X0187649Y0048630D01*
X0187799Y0048598D01*
X0187948Y0048562D01*
X0188096Y0048522D01*
X0188243Y0048479D01*
X0188389Y0048432D01*
X0188534Y0048382D01*
X0188678Y0048328D01*
X0188820Y0048270D01*
X0188961Y0048209D01*
X0189100Y0048145D01*
X0189238Y0048077D01*
X0189374Y0048006D01*
X0189508Y0047931D01*
X0189640Y0047854D01*
X0189771Y0047773D01*
X0189899Y0047689D01*
X0190025Y0047602D01*
X0190149Y0047511D01*
X0190271Y0047418D01*
X0190391Y0047322D01*
X0190355Y0047279D01*
X0190236Y0047374D01*
X0190116Y0047467D01*
X0189993Y0047556D01*
X0189868Y0047642D01*
X0189740Y0047726D01*
X0189611Y0047806D01*
X0189480Y0047883D01*
X0189347Y0047957D01*
X0189212Y0048027D01*
X0189076Y0048094D01*
X0188938Y0048158D01*
X0188799Y0048218D01*
X0188658Y0048275D01*
X0188515Y0048329D01*
X0188372Y0048379D01*
X0188227Y0048425D01*
X0188081Y0048468D01*
X0187934Y0048508D01*
X0187787Y0048543D01*
X0187638Y0048575D01*
X0187489Y0048604D01*
X0187339Y0048629D01*
X0187188Y0048650D01*
X0187037Y0048667D01*
X0186886Y0048681D01*
X0186734Y0048691D01*
X0186582Y0048697D01*
X0186430Y0048700D01*
X0186430Y0048644D01*
X0186586Y0048641D01*
X0186742Y0048634D01*
X0186898Y0048624D01*
X0187054Y0048609D01*
X0187209Y0048591D01*
X0187363Y0048568D01*
X0187517Y0048542D01*
X0187671Y0048511D01*
X0187823Y0048477D01*
X0187975Y0048439D01*
X0188125Y0048397D01*
X0188274Y0048352D01*
X0188423Y0048302D01*
X0188570Y0048249D01*
X0188715Y0048192D01*
X0188859Y0048132D01*
X0189001Y0048068D01*
X0189142Y0048000D01*
X0189281Y0047928D01*
X0189418Y0047854D01*
X0189553Y0047775D01*
X0189687Y0047694D01*
X0189818Y0047609D01*
X0189947Y0047520D01*
X0190073Y0047429D01*
X0190197Y0047334D01*
X0190319Y0047236D01*
X0190283Y0047193D01*
X0190163Y0047290D01*
X0190039Y0047384D01*
X0189914Y0047475D01*
X0189786Y0047562D01*
X0189657Y0047646D01*
X0189525Y0047727D01*
X0189391Y0047805D01*
X0189255Y0047879D01*
X0189117Y0047950D01*
X0188978Y0048017D01*
X0188837Y0048080D01*
X0188694Y0048140D01*
X0188550Y0048197D01*
X0188404Y0048249D01*
X0188257Y0048298D01*
X0188109Y0048344D01*
X0187960Y0048385D01*
X0187810Y0048423D01*
X0187659Y0048457D01*
X0187507Y0048487D01*
X0187355Y0048513D01*
X0187202Y0048535D01*
X0187048Y0048554D01*
X0186894Y0048568D01*
X0186739Y0048579D01*
X0186585Y0048585D01*
X0186430Y0048588D01*
X0186430Y0048532D01*
X0186583Y0048529D01*
X0186737Y0048523D01*
X0186889Y0048512D01*
X0187042Y0048498D01*
X0187194Y0048480D01*
X0187346Y0048458D01*
X0187497Y0048432D01*
X0187648Y0048402D01*
X0187797Y0048368D01*
X0187946Y0048331D01*
X0188094Y0048290D01*
X0188240Y0048245D01*
X0188386Y0048197D01*
X0188530Y0048144D01*
X0188673Y0048089D01*
X0188814Y0048029D01*
X0188954Y0047966D01*
X0189092Y0047900D01*
X0189229Y0047830D01*
X0189363Y0047756D01*
X0189496Y0047679D01*
X0189627Y0047599D01*
X0189755Y0047516D01*
X0189882Y0047429D01*
X0190006Y0047339D01*
X0190128Y0047246D01*
X0190247Y0047150D01*
X0190211Y0047107D01*
X0190093Y0047202D01*
X0189972Y0047294D01*
X0189849Y0047383D01*
X0189724Y0047469D01*
X0189597Y0047552D01*
X0189467Y0047631D01*
X0189336Y0047707D01*
X0189202Y0047780D01*
X0189067Y0047849D01*
X0188930Y0047915D01*
X0188792Y0047978D01*
X0188652Y0048037D01*
X0188510Y0048092D01*
X0188367Y0048144D01*
X0188223Y0048192D01*
X0188078Y0048236D01*
X0187932Y0048277D01*
X0187784Y0048314D01*
X0187636Y0048347D01*
X0187487Y0048376D01*
X0187338Y0048402D01*
X0187187Y0048424D01*
X0187036Y0048442D01*
X0186885Y0048456D01*
X0186734Y0048467D01*
X0186582Y0048473D01*
X0186430Y0048476D01*
X0186430Y0048420D01*
X0186580Y0048417D01*
X0186731Y0048411D01*
X0186881Y0048400D01*
X0187031Y0048386D01*
X0187180Y0048369D01*
X0187329Y0048347D01*
X0187477Y0048321D01*
X0187625Y0048292D01*
X0187772Y0048259D01*
X0187918Y0048223D01*
X0188063Y0048182D01*
X0188206Y0048138D01*
X0188349Y0048091D01*
X0188491Y0048040D01*
X0188631Y0047985D01*
X0188769Y0047926D01*
X0188907Y0047865D01*
X0189042Y0047799D01*
X0189176Y0047731D01*
X0189308Y0047659D01*
X0189438Y0047583D01*
X0189566Y0047505D01*
X0189693Y0047423D01*
X0189817Y0047338D01*
X0189939Y0047249D01*
X0190058Y0047158D01*
X0190176Y0047064D01*
X0190140Y0047021D01*
X0190024Y0047114D01*
X0189905Y0047205D01*
X0189784Y0047292D01*
X0189661Y0047376D01*
X0189536Y0047457D01*
X0189409Y0047535D01*
X0189280Y0047610D01*
X0189150Y0047681D01*
X0189017Y0047749D01*
X0188883Y0047814D01*
X0188747Y0047875D01*
X0188610Y0047933D01*
X0188471Y0047987D01*
X0188331Y0048038D01*
X0188189Y0048085D01*
X0188047Y0048129D01*
X0187903Y0048169D01*
X0187759Y0048205D01*
X0187613Y0048237D01*
X0187467Y0048266D01*
X0187320Y0048292D01*
X0187173Y0048313D01*
X0187025Y0048331D01*
X0186877Y0048345D01*
X0186728Y0048355D01*
X0186579Y0048361D01*
X0186430Y0048364D01*
X0186430Y0048308D01*
X0186578Y0048305D01*
X0186725Y0048299D01*
X0186872Y0048289D01*
X0187019Y0048275D01*
X0187166Y0048257D01*
X0187312Y0048236D01*
X0187457Y0048211D01*
X0187602Y0048183D01*
X0187746Y0048150D01*
X0187889Y0048114D01*
X0188031Y0048075D01*
X0188172Y0048032D01*
X0188312Y0047985D01*
X0188451Y0047935D01*
X0188589Y0047881D01*
X0188725Y0047824D01*
X0188859Y0047763D01*
X0188992Y0047699D01*
X0189123Y0047632D01*
X0189253Y0047561D01*
X0189381Y0047487D01*
X0189506Y0047410D01*
X0189630Y0047330D01*
X0189752Y0047246D01*
X0189872Y0047160D01*
X0189989Y0047070D01*
X0190104Y0046978D01*
X0190068Y0046935D01*
X0189954Y0047026D01*
X0189838Y0047115D01*
X0189720Y0047201D01*
X0189599Y0047283D01*
X0189476Y0047363D01*
X0189352Y0047439D01*
X0189225Y0047512D01*
X0189097Y0047582D01*
X0188967Y0047649D01*
X0188835Y0047712D01*
X0188702Y0047772D01*
X0188567Y0047829D01*
X0188431Y0047882D01*
X0188294Y0047932D01*
X0188155Y0047978D01*
X0188016Y0048021D01*
X0187875Y0048060D01*
X0187733Y0048096D01*
X0187590Y0048128D01*
X0187447Y0048156D01*
X0187303Y0048181D01*
X0187158Y0048202D01*
X0187013Y0048219D01*
X0186868Y0048233D01*
X0186722Y0048243D01*
X0186576Y0048249D01*
X0186430Y0048252D01*
X0190669Y0042515D02*
X0190129Y0042515D01*
X0190130Y0042516D02*
X0190127Y0042637D01*
X0190120Y0042757D01*
X0190109Y0042878D01*
X0190095Y0042998D01*
X0190076Y0043117D01*
X0190054Y0043236D01*
X0190028Y0043354D01*
X0189998Y0043471D01*
X0189964Y0043587D01*
X0189926Y0043702D01*
X0189885Y0043815D01*
X0189840Y0043927D01*
X0189792Y0044038D01*
X0189740Y0044147D01*
X0189684Y0044254D01*
X0189625Y0044360D01*
X0189563Y0044463D01*
X0189497Y0044565D01*
X0189428Y0044664D01*
X0189356Y0044761D01*
X0189281Y0044855D01*
X0189203Y0044947D01*
X0189122Y0045037D01*
X0189038Y0045124D01*
X0188951Y0045208D01*
X0188861Y0045289D01*
X0188769Y0045367D01*
X0188675Y0045442D01*
X0188578Y0045514D01*
X0188479Y0045583D01*
X0188377Y0045649D01*
X0188274Y0045711D01*
X0188168Y0045770D01*
X0188061Y0045826D01*
X0187952Y0045878D01*
X0187841Y0045926D01*
X0187729Y0045971D01*
X0187616Y0046012D01*
X0187501Y0046050D01*
X0187385Y0046084D01*
X0187268Y0046114D01*
X0187150Y0046140D01*
X0187031Y0046162D01*
X0186912Y0046181D01*
X0186792Y0046195D01*
X0186671Y0046206D01*
X0186551Y0046213D01*
X0186430Y0046216D01*
X0186429Y0046755D01*
X0186430Y0046756D01*
X0186558Y0046753D01*
X0186685Y0046746D01*
X0186813Y0046736D01*
X0186940Y0046722D01*
X0187066Y0046704D01*
X0187192Y0046682D01*
X0187318Y0046656D01*
X0187442Y0046627D01*
X0187566Y0046594D01*
X0187688Y0046557D01*
X0187809Y0046517D01*
X0187929Y0046473D01*
X0188048Y0046425D01*
X0188165Y0046374D01*
X0188281Y0046320D01*
X0188395Y0046262D01*
X0188507Y0046200D01*
X0188617Y0046135D01*
X0188725Y0046067D01*
X0188831Y0045996D01*
X0188935Y0045922D01*
X0189037Y0045844D01*
X0189136Y0045764D01*
X0189233Y0045681D01*
X0189328Y0045594D01*
X0189419Y0045505D01*
X0189508Y0045414D01*
X0189595Y0045319D01*
X0189678Y0045222D01*
X0189758Y0045123D01*
X0189836Y0045021D01*
X0189910Y0044917D01*
X0189981Y0044811D01*
X0190049Y0044703D01*
X0190114Y0044593D01*
X0190176Y0044481D01*
X0190234Y0044367D01*
X0190288Y0044251D01*
X0190339Y0044134D01*
X0190387Y0044015D01*
X0190431Y0043895D01*
X0190471Y0043774D01*
X0190508Y0043652D01*
X0190541Y0043528D01*
X0190570Y0043404D01*
X0190596Y0043278D01*
X0190618Y0043152D01*
X0190636Y0043026D01*
X0190650Y0042899D01*
X0190660Y0042771D01*
X0190667Y0042644D01*
X0190670Y0042516D01*
X0190614Y0042516D01*
X0190611Y0042645D01*
X0190604Y0042773D01*
X0190593Y0042901D01*
X0190579Y0043029D01*
X0190560Y0043156D01*
X0190538Y0043283D01*
X0190512Y0043409D01*
X0190482Y0043534D01*
X0190448Y0043658D01*
X0190410Y0043781D01*
X0190369Y0043903D01*
X0190324Y0044023D01*
X0190275Y0044142D01*
X0190223Y0044260D01*
X0190167Y0044375D01*
X0190107Y0044489D01*
X0190044Y0044602D01*
X0189978Y0044712D01*
X0189909Y0044820D01*
X0189836Y0044926D01*
X0189760Y0045030D01*
X0189680Y0045131D01*
X0189598Y0045230D01*
X0189513Y0045326D01*
X0189425Y0045420D01*
X0189334Y0045511D01*
X0189240Y0045599D01*
X0189144Y0045684D01*
X0189045Y0045766D01*
X0188944Y0045846D01*
X0188840Y0045922D01*
X0188734Y0045995D01*
X0188626Y0046064D01*
X0188516Y0046130D01*
X0188403Y0046193D01*
X0188289Y0046253D01*
X0188174Y0046309D01*
X0188056Y0046361D01*
X0187937Y0046410D01*
X0187817Y0046455D01*
X0187695Y0046496D01*
X0187572Y0046534D01*
X0187448Y0046568D01*
X0187323Y0046598D01*
X0187197Y0046624D01*
X0187070Y0046646D01*
X0186943Y0046665D01*
X0186815Y0046679D01*
X0186687Y0046690D01*
X0186559Y0046697D01*
X0186430Y0046700D01*
X0186430Y0046644D01*
X0186557Y0046641D01*
X0186684Y0046634D01*
X0186810Y0046624D01*
X0186936Y0046609D01*
X0187062Y0046591D01*
X0187187Y0046569D01*
X0187311Y0046543D01*
X0187434Y0046513D01*
X0187557Y0046480D01*
X0187678Y0046443D01*
X0187798Y0046402D01*
X0187917Y0046357D01*
X0188034Y0046309D01*
X0188150Y0046258D01*
X0188264Y0046203D01*
X0188377Y0046144D01*
X0188488Y0046082D01*
X0188596Y0046017D01*
X0188703Y0045948D01*
X0188808Y0045876D01*
X0188910Y0045801D01*
X0189010Y0045723D01*
X0189108Y0045642D01*
X0189203Y0045558D01*
X0189295Y0045471D01*
X0189385Y0045381D01*
X0189472Y0045289D01*
X0189556Y0045194D01*
X0189637Y0045096D01*
X0189715Y0044996D01*
X0189790Y0044894D01*
X0189862Y0044789D01*
X0189931Y0044682D01*
X0189996Y0044574D01*
X0190058Y0044463D01*
X0190117Y0044350D01*
X0190172Y0044236D01*
X0190223Y0044120D01*
X0190271Y0044003D01*
X0190316Y0043884D01*
X0190357Y0043764D01*
X0190394Y0043643D01*
X0190427Y0043520D01*
X0190457Y0043397D01*
X0190483Y0043273D01*
X0190505Y0043148D01*
X0190523Y0043022D01*
X0190538Y0042896D01*
X0190548Y0042770D01*
X0190555Y0042643D01*
X0190558Y0042516D01*
X0190502Y0042516D01*
X0190499Y0042641D01*
X0190492Y0042766D01*
X0190482Y0042891D01*
X0190468Y0043015D01*
X0190450Y0043139D01*
X0190428Y0043262D01*
X0190402Y0043385D01*
X0190373Y0043506D01*
X0190340Y0043627D01*
X0190303Y0043747D01*
X0190263Y0043865D01*
X0190219Y0043983D01*
X0190172Y0044098D01*
X0190121Y0044213D01*
X0190066Y0044325D01*
X0190009Y0044436D01*
X0189947Y0044546D01*
X0189883Y0044653D01*
X0189815Y0044758D01*
X0189744Y0044861D01*
X0189670Y0044962D01*
X0189593Y0045061D01*
X0189513Y0045157D01*
X0189430Y0045251D01*
X0189344Y0045342D01*
X0189256Y0045430D01*
X0189165Y0045516D01*
X0189071Y0045599D01*
X0188975Y0045679D01*
X0188876Y0045756D01*
X0188775Y0045830D01*
X0188672Y0045901D01*
X0188567Y0045969D01*
X0188460Y0046033D01*
X0188350Y0046095D01*
X0188239Y0046152D01*
X0188127Y0046207D01*
X0188012Y0046258D01*
X0187897Y0046305D01*
X0187779Y0046349D01*
X0187661Y0046389D01*
X0187541Y0046426D01*
X0187420Y0046459D01*
X0187299Y0046488D01*
X0187176Y0046514D01*
X0187053Y0046536D01*
X0186929Y0046554D01*
X0186805Y0046568D01*
X0186680Y0046578D01*
X0186555Y0046585D01*
X0186430Y0046588D01*
X0186430Y0046532D01*
X0186556Y0046529D01*
X0186682Y0046522D01*
X0186807Y0046511D01*
X0186932Y0046497D01*
X0187057Y0046478D01*
X0187181Y0046456D01*
X0187304Y0046430D01*
X0187426Y0046400D01*
X0187547Y0046366D01*
X0187667Y0046328D01*
X0187786Y0046287D01*
X0187904Y0046242D01*
X0188020Y0046193D01*
X0188135Y0046141D01*
X0188248Y0046086D01*
X0188359Y0046026D01*
X0188468Y0045964D01*
X0188575Y0045898D01*
X0188680Y0045828D01*
X0188783Y0045756D01*
X0188884Y0045680D01*
X0188982Y0045601D01*
X0189077Y0045519D01*
X0189171Y0045435D01*
X0189261Y0045347D01*
X0189349Y0045257D01*
X0189433Y0045163D01*
X0189515Y0045068D01*
X0189594Y0044970D01*
X0189670Y0044869D01*
X0189742Y0044766D01*
X0189812Y0044661D01*
X0189878Y0044554D01*
X0189940Y0044445D01*
X0190000Y0044334D01*
X0190055Y0044221D01*
X0190107Y0044106D01*
X0190156Y0043990D01*
X0190201Y0043872D01*
X0190242Y0043753D01*
X0190280Y0043633D01*
X0190314Y0043512D01*
X0190344Y0043390D01*
X0190370Y0043267D01*
X0190392Y0043143D01*
X0190411Y0043018D01*
X0190425Y0042893D01*
X0190436Y0042768D01*
X0190443Y0042642D01*
X0190446Y0042516D01*
X0190390Y0042516D01*
X0190387Y0042640D01*
X0190380Y0042764D01*
X0190370Y0042888D01*
X0190355Y0043011D01*
X0190337Y0043134D01*
X0190315Y0043256D01*
X0190289Y0043377D01*
X0190260Y0043498D01*
X0190226Y0043618D01*
X0190189Y0043736D01*
X0190148Y0043853D01*
X0190104Y0043969D01*
X0190056Y0044084D01*
X0190005Y0044197D01*
X0189950Y0044308D01*
X0189891Y0044418D01*
X0189829Y0044525D01*
X0189764Y0044631D01*
X0189696Y0044735D01*
X0189624Y0044836D01*
X0189550Y0044935D01*
X0189472Y0045032D01*
X0189391Y0045126D01*
X0189308Y0045218D01*
X0189221Y0045307D01*
X0189132Y0045394D01*
X0189040Y0045477D01*
X0188946Y0045558D01*
X0188849Y0045636D01*
X0188750Y0045710D01*
X0188649Y0045782D01*
X0188545Y0045850D01*
X0188439Y0045915D01*
X0188332Y0045977D01*
X0188222Y0046036D01*
X0188111Y0046091D01*
X0187998Y0046142D01*
X0187883Y0046190D01*
X0187767Y0046234D01*
X0187650Y0046275D01*
X0187532Y0046312D01*
X0187412Y0046346D01*
X0187291Y0046375D01*
X0187170Y0046401D01*
X0187048Y0046423D01*
X0186925Y0046441D01*
X0186802Y0046456D01*
X0186678Y0046466D01*
X0186554Y0046473D01*
X0186430Y0046476D01*
X0186430Y0046420D01*
X0186552Y0046417D01*
X0186675Y0046410D01*
X0186796Y0046400D01*
X0186918Y0046386D01*
X0187039Y0046368D01*
X0187160Y0046346D01*
X0187279Y0046320D01*
X0187398Y0046291D01*
X0187516Y0046258D01*
X0187633Y0046222D01*
X0187748Y0046182D01*
X0187863Y0046138D01*
X0187976Y0046091D01*
X0188087Y0046040D01*
X0188197Y0045986D01*
X0188305Y0045928D01*
X0188411Y0045867D01*
X0188515Y0045803D01*
X0188617Y0045736D01*
X0188717Y0045665D01*
X0188815Y0045592D01*
X0188910Y0045515D01*
X0189003Y0045435D01*
X0189094Y0045353D01*
X0189182Y0045268D01*
X0189267Y0045180D01*
X0189349Y0045089D01*
X0189429Y0044996D01*
X0189506Y0044901D01*
X0189579Y0044803D01*
X0189650Y0044703D01*
X0189717Y0044601D01*
X0189781Y0044497D01*
X0189842Y0044391D01*
X0189900Y0044283D01*
X0189954Y0044173D01*
X0190005Y0044062D01*
X0190052Y0043949D01*
X0190096Y0043834D01*
X0190136Y0043719D01*
X0190172Y0043602D01*
X0190205Y0043484D01*
X0190234Y0043365D01*
X0190260Y0043246D01*
X0190282Y0043125D01*
X0190300Y0043004D01*
X0190314Y0042882D01*
X0190324Y0042761D01*
X0190331Y0042638D01*
X0190334Y0042516D01*
X0190278Y0042516D01*
X0190275Y0042639D01*
X0190268Y0042762D01*
X0190257Y0042885D01*
X0190243Y0043007D01*
X0190224Y0043128D01*
X0190202Y0043250D01*
X0190176Y0043370D01*
X0190146Y0043489D01*
X0190112Y0043608D01*
X0190075Y0043725D01*
X0190034Y0043841D01*
X0189989Y0043955D01*
X0189940Y0044069D01*
X0189888Y0044180D01*
X0189833Y0044290D01*
X0189774Y0044398D01*
X0189711Y0044504D01*
X0189646Y0044608D01*
X0189577Y0044710D01*
X0189505Y0044810D01*
X0189429Y0044907D01*
X0189351Y0045002D01*
X0189270Y0045095D01*
X0189185Y0045184D01*
X0189098Y0045271D01*
X0189009Y0045356D01*
X0188916Y0045437D01*
X0188821Y0045515D01*
X0188724Y0045591D01*
X0188624Y0045663D01*
X0188522Y0045732D01*
X0188418Y0045797D01*
X0188312Y0045860D01*
X0188204Y0045919D01*
X0188094Y0045974D01*
X0187983Y0046026D01*
X0187869Y0046075D01*
X0187755Y0046120D01*
X0187639Y0046161D01*
X0187522Y0046198D01*
X0187403Y0046232D01*
X0187284Y0046262D01*
X0187164Y0046288D01*
X0187042Y0046310D01*
X0186921Y0046329D01*
X0186799Y0046343D01*
X0186676Y0046354D01*
X0186553Y0046361D01*
X0186430Y0046364D01*
X0186430Y0046308D01*
X0186551Y0046305D01*
X0186672Y0046298D01*
X0186793Y0046288D01*
X0186914Y0046273D01*
X0187034Y0046255D01*
X0187153Y0046233D01*
X0187271Y0046207D01*
X0187389Y0046178D01*
X0187506Y0046145D01*
X0187621Y0046108D01*
X0187735Y0046067D01*
X0187848Y0046023D01*
X0187960Y0045975D01*
X0188070Y0045924D01*
X0188178Y0045869D01*
X0188285Y0045811D01*
X0188389Y0045750D01*
X0188492Y0045685D01*
X0188592Y0045617D01*
X0188690Y0045546D01*
X0188786Y0045471D01*
X0188880Y0045394D01*
X0188971Y0045314D01*
X0189059Y0045231D01*
X0189145Y0045145D01*
X0189228Y0045057D01*
X0189308Y0044966D01*
X0189385Y0044872D01*
X0189460Y0044776D01*
X0189531Y0044678D01*
X0189599Y0044578D01*
X0189664Y0044475D01*
X0189725Y0044371D01*
X0189783Y0044264D01*
X0189838Y0044156D01*
X0189889Y0044046D01*
X0189937Y0043934D01*
X0189981Y0043821D01*
X0190022Y0043707D01*
X0190059Y0043592D01*
X0190092Y0043475D01*
X0190121Y0043357D01*
X0190147Y0043239D01*
X0190169Y0043120D01*
X0190187Y0043000D01*
X0190202Y0042879D01*
X0190212Y0042758D01*
X0190219Y0042637D01*
X0190222Y0042516D01*
X0190166Y0042516D01*
X0190163Y0042638D01*
X0190156Y0042760D01*
X0190145Y0042881D01*
X0190130Y0043002D01*
X0190112Y0043123D01*
X0190089Y0043243D01*
X0190063Y0043362D01*
X0190032Y0043480D01*
X0189998Y0043597D01*
X0189960Y0043713D01*
X0189919Y0043828D01*
X0189874Y0043941D01*
X0189825Y0044053D01*
X0189772Y0044163D01*
X0189716Y0044271D01*
X0189656Y0044378D01*
X0189593Y0044482D01*
X0189527Y0044585D01*
X0189458Y0044685D01*
X0189385Y0044783D01*
X0189309Y0044878D01*
X0189230Y0044971D01*
X0189148Y0045061D01*
X0189063Y0045149D01*
X0188975Y0045234D01*
X0188885Y0045316D01*
X0188792Y0045395D01*
X0188697Y0045471D01*
X0188599Y0045544D01*
X0188499Y0045613D01*
X0188396Y0045679D01*
X0188292Y0045742D01*
X0188185Y0045802D01*
X0188077Y0045858D01*
X0187967Y0045911D01*
X0187855Y0045960D01*
X0187742Y0046005D01*
X0187627Y0046046D01*
X0187511Y0046084D01*
X0187394Y0046118D01*
X0187276Y0046149D01*
X0187157Y0046175D01*
X0187037Y0046198D01*
X0186916Y0046216D01*
X0186795Y0046231D01*
X0186674Y0046242D01*
X0186552Y0046249D01*
X0186430Y0046252D01*
X0189169Y0042515D02*
X0188629Y0042515D01*
X0188630Y0042516D02*
X0188627Y0042609D01*
X0188620Y0042702D01*
X0188609Y0042794D01*
X0188594Y0042886D01*
X0188575Y0042977D01*
X0188553Y0043068D01*
X0188527Y0043157D01*
X0188497Y0043245D01*
X0188463Y0043332D01*
X0188426Y0043417D01*
X0188386Y0043501D01*
X0188342Y0043583D01*
X0188294Y0043663D01*
X0188243Y0043741D01*
X0188190Y0043817D01*
X0188132Y0043890D01*
X0188072Y0043961D01*
X0188009Y0044030D01*
X0187944Y0044095D01*
X0187875Y0044158D01*
X0187804Y0044218D01*
X0187731Y0044276D01*
X0187655Y0044329D01*
X0187577Y0044380D01*
X0187497Y0044428D01*
X0187415Y0044472D01*
X0187331Y0044512D01*
X0187246Y0044549D01*
X0187159Y0044583D01*
X0187071Y0044613D01*
X0186982Y0044639D01*
X0186891Y0044661D01*
X0186800Y0044680D01*
X0186708Y0044695D01*
X0186616Y0044706D01*
X0186523Y0044713D01*
X0186430Y0044716D01*
X0186429Y0045255D01*
X0186430Y0045256D01*
X0186535Y0045253D01*
X0186639Y0045246D01*
X0186743Y0045235D01*
X0186847Y0045220D01*
X0186950Y0045201D01*
X0187052Y0045178D01*
X0187153Y0045152D01*
X0187253Y0045121D01*
X0187352Y0045087D01*
X0187450Y0045049D01*
X0187546Y0045008D01*
X0187640Y0044963D01*
X0187733Y0044914D01*
X0187824Y0044862D01*
X0187912Y0044807D01*
X0187999Y0044748D01*
X0188083Y0044686D01*
X0188165Y0044621D01*
X0188245Y0044552D01*
X0188321Y0044481D01*
X0188395Y0044407D01*
X0188466Y0044331D01*
X0188535Y0044251D01*
X0188600Y0044169D01*
X0188662Y0044085D01*
X0188721Y0043998D01*
X0188776Y0043910D01*
X0188828Y0043819D01*
X0188877Y0043726D01*
X0188922Y0043632D01*
X0188963Y0043536D01*
X0189001Y0043438D01*
X0189035Y0043339D01*
X0189066Y0043239D01*
X0189092Y0043138D01*
X0189115Y0043036D01*
X0189134Y0042933D01*
X0189149Y0042829D01*
X0189160Y0042725D01*
X0189167Y0042621D01*
X0189170Y0042516D01*
X0189114Y0042516D01*
X0189111Y0042618D01*
X0189104Y0042721D01*
X0189093Y0042823D01*
X0189078Y0042924D01*
X0189060Y0043025D01*
X0189038Y0043125D01*
X0189012Y0043224D01*
X0188982Y0043322D01*
X0188949Y0043419D01*
X0188911Y0043515D01*
X0188871Y0043609D01*
X0188827Y0043701D01*
X0188779Y0043792D01*
X0188728Y0043881D01*
X0188674Y0043968D01*
X0188616Y0044053D01*
X0188555Y0044135D01*
X0188491Y0044216D01*
X0188425Y0044293D01*
X0188355Y0044369D01*
X0188283Y0044441D01*
X0188207Y0044511D01*
X0188130Y0044577D01*
X0188049Y0044641D01*
X0187967Y0044702D01*
X0187882Y0044760D01*
X0187795Y0044814D01*
X0187706Y0044865D01*
X0187615Y0044913D01*
X0187523Y0044957D01*
X0187429Y0044997D01*
X0187333Y0045035D01*
X0187236Y0045068D01*
X0187138Y0045098D01*
X0187039Y0045124D01*
X0186939Y0045146D01*
X0186838Y0045164D01*
X0186737Y0045179D01*
X0186635Y0045190D01*
X0186532Y0045197D01*
X0186430Y0045200D01*
X0186430Y0045144D01*
X0186533Y0045141D01*
X0186635Y0045134D01*
X0186738Y0045122D01*
X0186839Y0045107D01*
X0186941Y0045088D01*
X0187041Y0045066D01*
X0187140Y0045039D01*
X0187238Y0045008D01*
X0187335Y0044974D01*
X0187431Y0044936D01*
X0187525Y0044894D01*
X0187617Y0044849D01*
X0187708Y0044800D01*
X0187796Y0044748D01*
X0187883Y0044692D01*
X0187967Y0044633D01*
X0188049Y0044571D01*
X0188129Y0044505D01*
X0188205Y0044437D01*
X0188279Y0044365D01*
X0188351Y0044291D01*
X0188419Y0044215D01*
X0188485Y0044135D01*
X0188547Y0044053D01*
X0188606Y0043969D01*
X0188662Y0043882D01*
X0188714Y0043794D01*
X0188763Y0043703D01*
X0188808Y0043611D01*
X0188850Y0043517D01*
X0188888Y0043421D01*
X0188922Y0043324D01*
X0188953Y0043226D01*
X0188980Y0043127D01*
X0189002Y0043027D01*
X0189021Y0042925D01*
X0189036Y0042824D01*
X0189048Y0042721D01*
X0189055Y0042619D01*
X0189058Y0042516D01*
X0189002Y0042516D01*
X0188999Y0042617D01*
X0188992Y0042717D01*
X0188981Y0042817D01*
X0188966Y0042917D01*
X0188948Y0043016D01*
X0188925Y0043114D01*
X0188899Y0043211D01*
X0188869Y0043307D01*
X0188835Y0043402D01*
X0188798Y0043496D01*
X0188757Y0043588D01*
X0188713Y0043678D01*
X0188665Y0043767D01*
X0188614Y0043853D01*
X0188559Y0043938D01*
X0188502Y0044020D01*
X0188441Y0044100D01*
X0188377Y0044178D01*
X0188310Y0044253D01*
X0188240Y0044326D01*
X0188167Y0044396D01*
X0188092Y0044463D01*
X0188014Y0044527D01*
X0187934Y0044588D01*
X0187852Y0044645D01*
X0187767Y0044700D01*
X0187681Y0044751D01*
X0187592Y0044799D01*
X0187502Y0044843D01*
X0187410Y0044884D01*
X0187316Y0044921D01*
X0187221Y0044955D01*
X0187125Y0044985D01*
X0187028Y0045011D01*
X0186930Y0045034D01*
X0186831Y0045052D01*
X0186731Y0045067D01*
X0186631Y0045078D01*
X0186531Y0045085D01*
X0186430Y0045088D01*
X0186430Y0045032D01*
X0186528Y0045029D01*
X0186627Y0045022D01*
X0186725Y0045011D01*
X0186822Y0044997D01*
X0186919Y0044979D01*
X0187015Y0044957D01*
X0187110Y0044931D01*
X0187204Y0044902D01*
X0187297Y0044869D01*
X0187388Y0044832D01*
X0187478Y0044792D01*
X0187567Y0044749D01*
X0187653Y0044702D01*
X0187738Y0044652D01*
X0187821Y0044599D01*
X0187901Y0044542D01*
X0187980Y0044483D01*
X0188056Y0044420D01*
X0188129Y0044355D01*
X0188200Y0044286D01*
X0188269Y0044215D01*
X0188334Y0044142D01*
X0188397Y0044066D01*
X0188456Y0043987D01*
X0188513Y0043907D01*
X0188566Y0043824D01*
X0188616Y0043739D01*
X0188663Y0043653D01*
X0188706Y0043564D01*
X0188746Y0043474D01*
X0188783Y0043383D01*
X0188816Y0043290D01*
X0188845Y0043196D01*
X0188871Y0043101D01*
X0188893Y0043005D01*
X0188911Y0042908D01*
X0188925Y0042811D01*
X0188936Y0042713D01*
X0188943Y0042614D01*
X0188946Y0042516D01*
X0188890Y0042516D01*
X0188887Y0042615D01*
X0188880Y0042713D01*
X0188869Y0042811D01*
X0188854Y0042909D01*
X0188835Y0043006D01*
X0188813Y0043102D01*
X0188786Y0043197D01*
X0188756Y0043291D01*
X0188722Y0043384D01*
X0188685Y0043475D01*
X0188644Y0043565D01*
X0188599Y0043653D01*
X0188551Y0043740D01*
X0188500Y0043824D01*
X0188445Y0043906D01*
X0188387Y0043986D01*
X0188326Y0044064D01*
X0188262Y0044139D01*
X0188195Y0044211D01*
X0188125Y0044281D01*
X0188053Y0044348D01*
X0187978Y0044412D01*
X0187900Y0044473D01*
X0187820Y0044531D01*
X0187738Y0044586D01*
X0187654Y0044637D01*
X0187567Y0044685D01*
X0187479Y0044730D01*
X0187389Y0044771D01*
X0187298Y0044808D01*
X0187205Y0044842D01*
X0187111Y0044872D01*
X0187016Y0044899D01*
X0186920Y0044921D01*
X0186823Y0044940D01*
X0186725Y0044955D01*
X0186627Y0044966D01*
X0186529Y0044973D01*
X0186430Y0044976D01*
X0186430Y0044920D01*
X0186526Y0044917D01*
X0186623Y0044910D01*
X0186719Y0044899D01*
X0186814Y0044885D01*
X0186909Y0044866D01*
X0187003Y0044844D01*
X0187096Y0044818D01*
X0187188Y0044789D01*
X0187278Y0044756D01*
X0187367Y0044719D01*
X0187455Y0044679D01*
X0187541Y0044636D01*
X0187626Y0044589D01*
X0187708Y0044539D01*
X0187788Y0044485D01*
X0187867Y0044429D01*
X0187942Y0044369D01*
X0188016Y0044306D01*
X0188087Y0044241D01*
X0188155Y0044173D01*
X0188220Y0044102D01*
X0188283Y0044028D01*
X0188343Y0043953D01*
X0188399Y0043874D01*
X0188453Y0043794D01*
X0188503Y0043712D01*
X0188550Y0043627D01*
X0188593Y0043541D01*
X0188633Y0043453D01*
X0188670Y0043364D01*
X0188703Y0043274D01*
X0188732Y0043182D01*
X0188758Y0043089D01*
X0188780Y0042995D01*
X0188799Y0042900D01*
X0188813Y0042805D01*
X0188824Y0042709D01*
X0188831Y0042612D01*
X0188834Y0042516D01*
X0188778Y0042516D01*
X0188775Y0042613D01*
X0188768Y0042709D01*
X0188756Y0042805D01*
X0188742Y0042901D01*
X0188723Y0042996D01*
X0188700Y0043090D01*
X0188674Y0043183D01*
X0188643Y0043275D01*
X0188610Y0043365D01*
X0188572Y0043454D01*
X0188531Y0043542D01*
X0188486Y0043628D01*
X0188438Y0043711D01*
X0188386Y0043793D01*
X0188332Y0043873D01*
X0188274Y0043950D01*
X0188213Y0044025D01*
X0188148Y0044098D01*
X0188081Y0044167D01*
X0188012Y0044234D01*
X0187939Y0044299D01*
X0187864Y0044360D01*
X0187787Y0044418D01*
X0187707Y0044472D01*
X0187625Y0044524D01*
X0187542Y0044572D01*
X0187456Y0044617D01*
X0187368Y0044658D01*
X0187279Y0044696D01*
X0187189Y0044729D01*
X0187097Y0044760D01*
X0187004Y0044786D01*
X0186910Y0044809D01*
X0186815Y0044828D01*
X0186719Y0044842D01*
X0186623Y0044854D01*
X0186527Y0044861D01*
X0186430Y0044864D01*
X0186430Y0044808D01*
X0186524Y0044805D01*
X0186618Y0044798D01*
X0186712Y0044787D01*
X0186806Y0044772D01*
X0186898Y0044754D01*
X0186990Y0044732D01*
X0187081Y0044706D01*
X0187170Y0044676D01*
X0187259Y0044643D01*
X0187346Y0044607D01*
X0187431Y0044566D01*
X0187515Y0044523D01*
X0187597Y0044476D01*
X0187677Y0044426D01*
X0187754Y0044372D01*
X0187830Y0044315D01*
X0187903Y0044256D01*
X0187974Y0044193D01*
X0188042Y0044128D01*
X0188107Y0044060D01*
X0188170Y0043989D01*
X0188229Y0043916D01*
X0188286Y0043840D01*
X0188340Y0043763D01*
X0188390Y0043683D01*
X0188437Y0043601D01*
X0188480Y0043517D01*
X0188521Y0043432D01*
X0188557Y0043345D01*
X0188590Y0043256D01*
X0188620Y0043167D01*
X0188646Y0043076D01*
X0188668Y0042984D01*
X0188686Y0042892D01*
X0188701Y0042798D01*
X0188712Y0042704D01*
X0188719Y0042610D01*
X0188722Y0042516D01*
X0188666Y0042516D01*
X0188663Y0042611D01*
X0188655Y0042705D01*
X0188644Y0042799D01*
X0188629Y0042892D01*
X0188610Y0042985D01*
X0188588Y0043077D01*
X0188561Y0043167D01*
X0188531Y0043257D01*
X0188497Y0043345D01*
X0188459Y0043432D01*
X0188418Y0043517D01*
X0188373Y0043600D01*
X0188325Y0043682D01*
X0188273Y0043761D01*
X0188218Y0043838D01*
X0188160Y0043913D01*
X0188099Y0043985D01*
X0188035Y0044055D01*
X0187969Y0044121D01*
X0187899Y0044185D01*
X0187827Y0044246D01*
X0187752Y0044304D01*
X0187675Y0044359D01*
X0187596Y0044411D01*
X0187514Y0044459D01*
X0187431Y0044504D01*
X0187346Y0044545D01*
X0187259Y0044583D01*
X0187171Y0044617D01*
X0187081Y0044647D01*
X0186991Y0044674D01*
X0186899Y0044696D01*
X0186806Y0044715D01*
X0186713Y0044730D01*
X0186619Y0044741D01*
X0186525Y0044749D01*
X0186430Y0044752D01*
X0182131Y0042457D02*
X0182671Y0042457D01*
X0182670Y0042456D02*
X0182673Y0042335D01*
X0182680Y0042215D01*
X0182691Y0042094D01*
X0182705Y0041974D01*
X0182724Y0041855D01*
X0182746Y0041736D01*
X0182772Y0041618D01*
X0182802Y0041501D01*
X0182836Y0041385D01*
X0182874Y0041270D01*
X0182915Y0041157D01*
X0182960Y0041045D01*
X0183008Y0040934D01*
X0183060Y0040825D01*
X0183116Y0040718D01*
X0183175Y0040612D01*
X0183237Y0040509D01*
X0183303Y0040407D01*
X0183372Y0040308D01*
X0183444Y0040211D01*
X0183519Y0040117D01*
X0183597Y0040025D01*
X0183678Y0039935D01*
X0183762Y0039848D01*
X0183849Y0039764D01*
X0183939Y0039683D01*
X0184031Y0039605D01*
X0184125Y0039530D01*
X0184222Y0039458D01*
X0184321Y0039389D01*
X0184423Y0039323D01*
X0184526Y0039261D01*
X0184632Y0039202D01*
X0184739Y0039146D01*
X0184848Y0039094D01*
X0184959Y0039046D01*
X0185071Y0039001D01*
X0185184Y0038960D01*
X0185299Y0038922D01*
X0185415Y0038888D01*
X0185532Y0038858D01*
X0185650Y0038832D01*
X0185769Y0038810D01*
X0185888Y0038791D01*
X0186008Y0038777D01*
X0186129Y0038766D01*
X0186249Y0038759D01*
X0186370Y0038756D01*
X0186371Y0038217D01*
X0186370Y0038216D01*
X0186242Y0038219D01*
X0186115Y0038226D01*
X0185987Y0038236D01*
X0185860Y0038250D01*
X0185734Y0038268D01*
X0185608Y0038290D01*
X0185482Y0038316D01*
X0185358Y0038345D01*
X0185234Y0038378D01*
X0185112Y0038415D01*
X0184991Y0038455D01*
X0184871Y0038499D01*
X0184752Y0038547D01*
X0184635Y0038598D01*
X0184519Y0038652D01*
X0184405Y0038710D01*
X0184293Y0038772D01*
X0184183Y0038837D01*
X0184075Y0038905D01*
X0183969Y0038976D01*
X0183865Y0039050D01*
X0183763Y0039128D01*
X0183664Y0039208D01*
X0183567Y0039291D01*
X0183472Y0039378D01*
X0183381Y0039467D01*
X0183292Y0039558D01*
X0183205Y0039653D01*
X0183122Y0039750D01*
X0183042Y0039849D01*
X0182964Y0039951D01*
X0182890Y0040055D01*
X0182819Y0040161D01*
X0182751Y0040269D01*
X0182686Y0040379D01*
X0182624Y0040491D01*
X0182566Y0040605D01*
X0182512Y0040721D01*
X0182461Y0040838D01*
X0182413Y0040957D01*
X0182369Y0041077D01*
X0182329Y0041198D01*
X0182292Y0041320D01*
X0182259Y0041444D01*
X0182230Y0041568D01*
X0182204Y0041694D01*
X0182182Y0041820D01*
X0182164Y0041946D01*
X0182150Y0042073D01*
X0182140Y0042201D01*
X0182133Y0042328D01*
X0182130Y0042456D01*
X0182186Y0042456D01*
X0182189Y0042327D01*
X0182196Y0042199D01*
X0182207Y0042071D01*
X0182221Y0041943D01*
X0182240Y0041816D01*
X0182262Y0041689D01*
X0182288Y0041563D01*
X0182318Y0041438D01*
X0182352Y0041314D01*
X0182390Y0041191D01*
X0182431Y0041069D01*
X0182476Y0040949D01*
X0182525Y0040830D01*
X0182577Y0040712D01*
X0182633Y0040597D01*
X0182693Y0040483D01*
X0182756Y0040370D01*
X0182822Y0040260D01*
X0182891Y0040152D01*
X0182964Y0040046D01*
X0183040Y0039942D01*
X0183120Y0039841D01*
X0183202Y0039742D01*
X0183287Y0039646D01*
X0183375Y0039552D01*
X0183466Y0039461D01*
X0183560Y0039373D01*
X0183656Y0039288D01*
X0183755Y0039206D01*
X0183856Y0039126D01*
X0183960Y0039050D01*
X0184066Y0038977D01*
X0184174Y0038908D01*
X0184284Y0038842D01*
X0184397Y0038779D01*
X0184511Y0038719D01*
X0184626Y0038663D01*
X0184744Y0038611D01*
X0184863Y0038562D01*
X0184983Y0038517D01*
X0185105Y0038476D01*
X0185228Y0038438D01*
X0185352Y0038404D01*
X0185477Y0038374D01*
X0185603Y0038348D01*
X0185730Y0038326D01*
X0185857Y0038307D01*
X0185985Y0038293D01*
X0186113Y0038282D01*
X0186241Y0038275D01*
X0186370Y0038272D01*
X0186370Y0038328D01*
X0186243Y0038331D01*
X0186116Y0038338D01*
X0185990Y0038348D01*
X0185864Y0038363D01*
X0185738Y0038381D01*
X0185613Y0038403D01*
X0185489Y0038429D01*
X0185366Y0038459D01*
X0185243Y0038492D01*
X0185122Y0038529D01*
X0185002Y0038570D01*
X0184883Y0038615D01*
X0184766Y0038663D01*
X0184650Y0038714D01*
X0184536Y0038769D01*
X0184423Y0038828D01*
X0184312Y0038890D01*
X0184204Y0038955D01*
X0184097Y0039024D01*
X0183992Y0039096D01*
X0183890Y0039171D01*
X0183790Y0039249D01*
X0183692Y0039330D01*
X0183597Y0039414D01*
X0183505Y0039501D01*
X0183415Y0039591D01*
X0183328Y0039683D01*
X0183244Y0039778D01*
X0183163Y0039876D01*
X0183085Y0039976D01*
X0183010Y0040078D01*
X0182938Y0040183D01*
X0182869Y0040290D01*
X0182804Y0040398D01*
X0182742Y0040509D01*
X0182683Y0040622D01*
X0182628Y0040736D01*
X0182577Y0040852D01*
X0182529Y0040969D01*
X0182484Y0041088D01*
X0182443Y0041208D01*
X0182406Y0041329D01*
X0182373Y0041452D01*
X0182343Y0041575D01*
X0182317Y0041699D01*
X0182295Y0041824D01*
X0182277Y0041950D01*
X0182262Y0042076D01*
X0182252Y0042202D01*
X0182245Y0042329D01*
X0182242Y0042456D01*
X0182298Y0042456D01*
X0182301Y0042331D01*
X0182308Y0042206D01*
X0182318Y0042081D01*
X0182332Y0041957D01*
X0182350Y0041833D01*
X0182372Y0041710D01*
X0182398Y0041587D01*
X0182427Y0041466D01*
X0182460Y0041345D01*
X0182497Y0041225D01*
X0182537Y0041107D01*
X0182581Y0040989D01*
X0182628Y0040874D01*
X0182679Y0040759D01*
X0182734Y0040647D01*
X0182791Y0040536D01*
X0182853Y0040426D01*
X0182917Y0040319D01*
X0182985Y0040214D01*
X0183056Y0040111D01*
X0183130Y0040010D01*
X0183207Y0039911D01*
X0183287Y0039815D01*
X0183370Y0039721D01*
X0183456Y0039630D01*
X0183544Y0039542D01*
X0183635Y0039456D01*
X0183729Y0039373D01*
X0183825Y0039293D01*
X0183924Y0039216D01*
X0184025Y0039142D01*
X0184128Y0039071D01*
X0184233Y0039003D01*
X0184340Y0038939D01*
X0184450Y0038877D01*
X0184561Y0038820D01*
X0184673Y0038765D01*
X0184788Y0038714D01*
X0184903Y0038667D01*
X0185021Y0038623D01*
X0185139Y0038583D01*
X0185259Y0038546D01*
X0185380Y0038513D01*
X0185501Y0038484D01*
X0185624Y0038458D01*
X0185747Y0038436D01*
X0185871Y0038418D01*
X0185995Y0038404D01*
X0186120Y0038394D01*
X0186245Y0038387D01*
X0186370Y0038384D01*
X0186370Y0038440D01*
X0186244Y0038443D01*
X0186118Y0038450D01*
X0185993Y0038461D01*
X0185868Y0038475D01*
X0185743Y0038494D01*
X0185619Y0038516D01*
X0185496Y0038542D01*
X0185374Y0038572D01*
X0185253Y0038606D01*
X0185133Y0038644D01*
X0185014Y0038685D01*
X0184896Y0038730D01*
X0184780Y0038779D01*
X0184665Y0038831D01*
X0184552Y0038886D01*
X0184441Y0038946D01*
X0184332Y0039008D01*
X0184225Y0039074D01*
X0184120Y0039144D01*
X0184017Y0039216D01*
X0183916Y0039292D01*
X0183818Y0039371D01*
X0183723Y0039453D01*
X0183629Y0039537D01*
X0183539Y0039625D01*
X0183451Y0039715D01*
X0183367Y0039809D01*
X0183285Y0039904D01*
X0183206Y0040002D01*
X0183130Y0040103D01*
X0183058Y0040206D01*
X0182988Y0040311D01*
X0182922Y0040418D01*
X0182860Y0040527D01*
X0182800Y0040638D01*
X0182745Y0040751D01*
X0182693Y0040866D01*
X0182644Y0040982D01*
X0182599Y0041100D01*
X0182558Y0041219D01*
X0182520Y0041339D01*
X0182486Y0041460D01*
X0182456Y0041582D01*
X0182430Y0041705D01*
X0182408Y0041829D01*
X0182389Y0041954D01*
X0182375Y0042079D01*
X0182364Y0042204D01*
X0182357Y0042330D01*
X0182354Y0042456D01*
X0182410Y0042456D01*
X0182413Y0042332D01*
X0182420Y0042208D01*
X0182430Y0042084D01*
X0182445Y0041961D01*
X0182463Y0041838D01*
X0182485Y0041716D01*
X0182511Y0041595D01*
X0182540Y0041474D01*
X0182574Y0041354D01*
X0182611Y0041236D01*
X0182652Y0041119D01*
X0182696Y0041003D01*
X0182744Y0040888D01*
X0182795Y0040775D01*
X0182850Y0040664D01*
X0182909Y0040554D01*
X0182971Y0040447D01*
X0183036Y0040341D01*
X0183104Y0040237D01*
X0183176Y0040136D01*
X0183250Y0040037D01*
X0183328Y0039940D01*
X0183409Y0039846D01*
X0183492Y0039754D01*
X0183579Y0039665D01*
X0183668Y0039578D01*
X0183760Y0039495D01*
X0183854Y0039414D01*
X0183951Y0039336D01*
X0184050Y0039262D01*
X0184151Y0039190D01*
X0184255Y0039122D01*
X0184361Y0039057D01*
X0184468Y0038995D01*
X0184578Y0038936D01*
X0184689Y0038881D01*
X0184802Y0038830D01*
X0184917Y0038782D01*
X0185033Y0038738D01*
X0185150Y0038697D01*
X0185268Y0038660D01*
X0185388Y0038626D01*
X0185509Y0038597D01*
X0185630Y0038571D01*
X0185752Y0038549D01*
X0185875Y0038531D01*
X0185998Y0038516D01*
X0186122Y0038506D01*
X0186246Y0038499D01*
X0186370Y0038496D01*
X0186370Y0038552D01*
X0186248Y0038555D01*
X0186125Y0038562D01*
X0186004Y0038572D01*
X0185882Y0038586D01*
X0185761Y0038604D01*
X0185640Y0038626D01*
X0185521Y0038652D01*
X0185402Y0038681D01*
X0185284Y0038714D01*
X0185167Y0038750D01*
X0185052Y0038790D01*
X0184937Y0038834D01*
X0184824Y0038881D01*
X0184713Y0038932D01*
X0184603Y0038986D01*
X0184495Y0039044D01*
X0184389Y0039105D01*
X0184285Y0039169D01*
X0184183Y0039236D01*
X0184083Y0039307D01*
X0183985Y0039380D01*
X0183890Y0039457D01*
X0183797Y0039537D01*
X0183706Y0039619D01*
X0183618Y0039704D01*
X0183533Y0039792D01*
X0183451Y0039883D01*
X0183371Y0039976D01*
X0183294Y0040071D01*
X0183221Y0040169D01*
X0183150Y0040269D01*
X0183083Y0040371D01*
X0183019Y0040475D01*
X0182958Y0040581D01*
X0182900Y0040689D01*
X0182846Y0040799D01*
X0182795Y0040910D01*
X0182748Y0041023D01*
X0182704Y0041138D01*
X0182664Y0041253D01*
X0182628Y0041370D01*
X0182595Y0041488D01*
X0182566Y0041607D01*
X0182540Y0041726D01*
X0182518Y0041847D01*
X0182500Y0041968D01*
X0182486Y0042090D01*
X0182476Y0042211D01*
X0182469Y0042334D01*
X0182466Y0042456D01*
X0182522Y0042456D01*
X0182525Y0042333D01*
X0182532Y0042210D01*
X0182543Y0042087D01*
X0182557Y0041965D01*
X0182576Y0041844D01*
X0182598Y0041722D01*
X0182624Y0041602D01*
X0182654Y0041483D01*
X0182688Y0041364D01*
X0182725Y0041247D01*
X0182766Y0041131D01*
X0182811Y0041017D01*
X0182860Y0040903D01*
X0182912Y0040792D01*
X0182967Y0040682D01*
X0183026Y0040574D01*
X0183089Y0040468D01*
X0183154Y0040364D01*
X0183223Y0040262D01*
X0183295Y0040162D01*
X0183371Y0040065D01*
X0183449Y0039970D01*
X0183530Y0039877D01*
X0183615Y0039788D01*
X0183702Y0039701D01*
X0183791Y0039616D01*
X0183884Y0039535D01*
X0183979Y0039457D01*
X0184076Y0039381D01*
X0184176Y0039309D01*
X0184278Y0039240D01*
X0184382Y0039175D01*
X0184488Y0039112D01*
X0184596Y0039053D01*
X0184706Y0038998D01*
X0184817Y0038946D01*
X0184931Y0038897D01*
X0185045Y0038852D01*
X0185161Y0038811D01*
X0185278Y0038774D01*
X0185397Y0038740D01*
X0185516Y0038710D01*
X0185636Y0038684D01*
X0185758Y0038662D01*
X0185879Y0038643D01*
X0186001Y0038629D01*
X0186124Y0038618D01*
X0186247Y0038611D01*
X0186370Y0038608D01*
X0186370Y0038664D01*
X0186249Y0038667D01*
X0186128Y0038674D01*
X0186007Y0038684D01*
X0185886Y0038699D01*
X0185766Y0038717D01*
X0185647Y0038739D01*
X0185529Y0038765D01*
X0185411Y0038794D01*
X0185294Y0038827D01*
X0185179Y0038864D01*
X0185065Y0038905D01*
X0184952Y0038949D01*
X0184840Y0038997D01*
X0184730Y0039048D01*
X0184622Y0039103D01*
X0184515Y0039161D01*
X0184411Y0039222D01*
X0184308Y0039287D01*
X0184208Y0039355D01*
X0184110Y0039426D01*
X0184014Y0039501D01*
X0183920Y0039578D01*
X0183829Y0039658D01*
X0183741Y0039741D01*
X0183655Y0039827D01*
X0183572Y0039915D01*
X0183492Y0040006D01*
X0183415Y0040100D01*
X0183340Y0040196D01*
X0183269Y0040294D01*
X0183201Y0040394D01*
X0183136Y0040497D01*
X0183075Y0040601D01*
X0183017Y0040708D01*
X0182962Y0040816D01*
X0182911Y0040926D01*
X0182863Y0041038D01*
X0182819Y0041151D01*
X0182778Y0041265D01*
X0182741Y0041380D01*
X0182708Y0041497D01*
X0182679Y0041615D01*
X0182653Y0041733D01*
X0182631Y0041852D01*
X0182613Y0041972D01*
X0182598Y0042093D01*
X0182588Y0042214D01*
X0182581Y0042335D01*
X0182578Y0042456D01*
X0182634Y0042456D01*
X0182637Y0042334D01*
X0182644Y0042212D01*
X0182655Y0042091D01*
X0182670Y0041970D01*
X0182688Y0041849D01*
X0182711Y0041729D01*
X0182737Y0041610D01*
X0182768Y0041492D01*
X0182802Y0041375D01*
X0182840Y0041259D01*
X0182881Y0041144D01*
X0182926Y0041031D01*
X0182975Y0040919D01*
X0183028Y0040809D01*
X0183084Y0040701D01*
X0183144Y0040594D01*
X0183207Y0040490D01*
X0183273Y0040387D01*
X0183342Y0040287D01*
X0183415Y0040189D01*
X0183491Y0040094D01*
X0183570Y0040001D01*
X0183652Y0039911D01*
X0183737Y0039823D01*
X0183825Y0039738D01*
X0183915Y0039656D01*
X0184008Y0039577D01*
X0184103Y0039501D01*
X0184201Y0039428D01*
X0184301Y0039359D01*
X0184404Y0039293D01*
X0184508Y0039230D01*
X0184615Y0039170D01*
X0184723Y0039114D01*
X0184833Y0039061D01*
X0184945Y0039012D01*
X0185058Y0038967D01*
X0185173Y0038926D01*
X0185289Y0038888D01*
X0185406Y0038854D01*
X0185524Y0038823D01*
X0185643Y0038797D01*
X0185763Y0038774D01*
X0185884Y0038756D01*
X0186005Y0038741D01*
X0186126Y0038730D01*
X0186248Y0038723D01*
X0186370Y0038720D01*
X0192669Y0042516D02*
X0192129Y0042516D01*
X0192130Y0042516D02*
X0192127Y0042663D01*
X0192121Y0042810D01*
X0192111Y0042957D01*
X0192097Y0043104D01*
X0192079Y0043250D01*
X0192057Y0043396D01*
X0192032Y0043541D01*
X0192003Y0043685D01*
X0191971Y0043829D01*
X0191934Y0043971D01*
X0191894Y0044113D01*
X0191851Y0044253D01*
X0191803Y0044393D01*
X0191753Y0044531D01*
X0191698Y0044668D01*
X0191640Y0044803D01*
X0191579Y0044937D01*
X0191515Y0045070D01*
X0191446Y0045200D01*
X0191375Y0045329D01*
X0191300Y0045456D01*
X0191222Y0045581D01*
X0191141Y0045703D01*
X0191057Y0045824D01*
X0190970Y0045943D01*
X0190880Y0046059D01*
X0190786Y0046173D01*
X0190690Y0046284D01*
X0190591Y0046393D01*
X0190489Y0046500D01*
X0190385Y0046604D01*
X0190278Y0046705D01*
X0190168Y0046803D01*
X0190056Y0046898D01*
X0189941Y0046991D01*
X0190272Y0047416D01*
X0190273Y0047417D01*
X0190395Y0047319D01*
X0190515Y0047217D01*
X0190632Y0047113D01*
X0190746Y0047006D01*
X0190858Y0046895D01*
X0190966Y0046783D01*
X0191072Y0046667D01*
X0191175Y0046549D01*
X0191276Y0046428D01*
X0191373Y0046305D01*
X0191467Y0046180D01*
X0191557Y0046052D01*
X0191645Y0045922D01*
X0191729Y0045790D01*
X0191810Y0045655D01*
X0191888Y0045519D01*
X0191962Y0045381D01*
X0192032Y0045241D01*
X0192099Y0045099D01*
X0192163Y0044956D01*
X0192223Y0044811D01*
X0192279Y0044665D01*
X0192332Y0044517D01*
X0192381Y0044368D01*
X0192426Y0044218D01*
X0192467Y0044067D01*
X0192505Y0043914D01*
X0192539Y0043761D01*
X0192569Y0043607D01*
X0192595Y0043453D01*
X0192617Y0043298D01*
X0192636Y0043142D01*
X0192650Y0042986D01*
X0192661Y0042829D01*
X0192667Y0042673D01*
X0192670Y0042516D01*
X0192614Y0042516D01*
X0192611Y0042671D01*
X0192605Y0042827D01*
X0192594Y0042982D01*
X0192580Y0043136D01*
X0192562Y0043291D01*
X0192540Y0043444D01*
X0192514Y0043598D01*
X0192484Y0043750D01*
X0192451Y0043902D01*
X0192413Y0044053D01*
X0192372Y0044203D01*
X0192327Y0044351D01*
X0192279Y0044499D01*
X0192227Y0044645D01*
X0192171Y0044790D01*
X0192112Y0044934D01*
X0192049Y0045076D01*
X0191982Y0045216D01*
X0191912Y0045355D01*
X0191839Y0045492D01*
X0191762Y0045627D01*
X0191682Y0045760D01*
X0191598Y0045891D01*
X0191511Y0046020D01*
X0191421Y0046147D01*
X0191328Y0046271D01*
X0191232Y0046393D01*
X0191133Y0046513D01*
X0191031Y0046630D01*
X0190926Y0046744D01*
X0190818Y0046856D01*
X0190707Y0046965D01*
X0190594Y0047071D01*
X0190478Y0047175D01*
X0190359Y0047275D01*
X0190238Y0047373D01*
X0190204Y0047328D01*
X0190324Y0047232D01*
X0190441Y0047132D01*
X0190556Y0047030D01*
X0190669Y0046925D01*
X0190778Y0046816D01*
X0190885Y0046706D01*
X0190989Y0046592D01*
X0191090Y0046476D01*
X0191189Y0046358D01*
X0191284Y0046237D01*
X0191376Y0046113D01*
X0191465Y0045988D01*
X0191551Y0045860D01*
X0191634Y0045730D01*
X0191713Y0045599D01*
X0191790Y0045465D01*
X0191862Y0045329D01*
X0191932Y0045192D01*
X0191998Y0045053D01*
X0192060Y0044912D01*
X0192119Y0044770D01*
X0192174Y0044626D01*
X0192226Y0044481D01*
X0192274Y0044335D01*
X0192318Y0044187D01*
X0192359Y0044039D01*
X0192396Y0043889D01*
X0192429Y0043739D01*
X0192459Y0043588D01*
X0192484Y0043436D01*
X0192506Y0043284D01*
X0192524Y0043131D01*
X0192538Y0042977D01*
X0192549Y0042824D01*
X0192555Y0042670D01*
X0192558Y0042516D01*
X0192502Y0042516D01*
X0192499Y0042669D01*
X0192493Y0042821D01*
X0192483Y0042973D01*
X0192468Y0043125D01*
X0192451Y0043277D01*
X0192429Y0043428D01*
X0192404Y0043578D01*
X0192374Y0043728D01*
X0192341Y0043877D01*
X0192305Y0044025D01*
X0192265Y0044172D01*
X0192221Y0044318D01*
X0192173Y0044463D01*
X0192122Y0044606D01*
X0192067Y0044749D01*
X0192009Y0044890D01*
X0191947Y0045029D01*
X0191881Y0045167D01*
X0191813Y0045303D01*
X0191741Y0045438D01*
X0191665Y0045570D01*
X0191586Y0045701D01*
X0191504Y0045829D01*
X0191419Y0045956D01*
X0191331Y0046080D01*
X0191240Y0046203D01*
X0191145Y0046322D01*
X0191048Y0046440D01*
X0190948Y0046555D01*
X0190844Y0046667D01*
X0190739Y0046777D01*
X0190630Y0046884D01*
X0190519Y0046988D01*
X0190405Y0047090D01*
X0190288Y0047189D01*
X0190170Y0047284D01*
X0190135Y0047240D01*
X0190253Y0047145D01*
X0190368Y0047047D01*
X0190481Y0046947D01*
X0190591Y0046843D01*
X0190699Y0046737D01*
X0190804Y0046629D01*
X0190906Y0046517D01*
X0191005Y0046403D01*
X0191102Y0046287D01*
X0191195Y0046168D01*
X0191286Y0046047D01*
X0191373Y0045924D01*
X0191458Y0045799D01*
X0191539Y0045671D01*
X0191617Y0045542D01*
X0191692Y0045411D01*
X0191763Y0045277D01*
X0191831Y0045142D01*
X0191896Y0045006D01*
X0191957Y0044868D01*
X0192015Y0044728D01*
X0192069Y0044587D01*
X0192120Y0044445D01*
X0192167Y0044301D01*
X0192211Y0044156D01*
X0192251Y0044011D01*
X0192287Y0043864D01*
X0192319Y0043716D01*
X0192348Y0043568D01*
X0192374Y0043419D01*
X0192395Y0043269D01*
X0192413Y0043119D01*
X0192427Y0042969D01*
X0192437Y0042818D01*
X0192443Y0042667D01*
X0192446Y0042516D01*
X0192390Y0042516D01*
X0192387Y0042670D01*
X0192380Y0042824D01*
X0192370Y0042977D01*
X0192355Y0043131D01*
X0192337Y0043284D01*
X0192314Y0043436D01*
X0192288Y0043588D01*
X0192258Y0043739D01*
X0192223Y0043889D01*
X0192185Y0044038D01*
X0192144Y0044186D01*
X0192098Y0044333D01*
X0192049Y0044479D01*
X0191996Y0044624D01*
X0191939Y0044767D01*
X0191878Y0044908D01*
X0191814Y0045048D01*
X0191747Y0045187D01*
X0191675Y0045323D01*
X0191601Y0045458D01*
X0191523Y0045591D01*
X0191441Y0045721D01*
X0191356Y0045850D01*
X0191268Y0045976D01*
X0191177Y0046100D01*
X0191082Y0046222D01*
X0190985Y0046341D01*
X0190884Y0046457D01*
X0190781Y0046571D01*
X0190674Y0046683D01*
X0190565Y0046791D01*
X0190453Y0046897D01*
X0190338Y0046999D01*
X0190221Y0047099D01*
X0190101Y0047196D01*
X0190067Y0047152D01*
X0190185Y0047056D01*
X0190301Y0046957D01*
X0190415Y0046855D01*
X0190526Y0046751D01*
X0190634Y0046643D01*
X0190740Y0046533D01*
X0190842Y0046420D01*
X0190942Y0046305D01*
X0191039Y0046187D01*
X0191132Y0046066D01*
X0191223Y0045943D01*
X0191310Y0045818D01*
X0191394Y0045691D01*
X0191475Y0045562D01*
X0191552Y0045430D01*
X0191626Y0045297D01*
X0191697Y0045162D01*
X0191764Y0045025D01*
X0191827Y0044886D01*
X0191887Y0044746D01*
X0191943Y0044604D01*
X0191996Y0044461D01*
X0192045Y0044316D01*
X0192090Y0044170D01*
X0192131Y0044024D01*
X0192169Y0043876D01*
X0192203Y0043727D01*
X0192233Y0043578D01*
X0192259Y0043427D01*
X0192281Y0043276D01*
X0192300Y0043125D01*
X0192314Y0042973D01*
X0192325Y0042821D01*
X0192331Y0042669D01*
X0192334Y0042516D01*
X0192278Y0042516D01*
X0192275Y0042667D01*
X0192269Y0042818D01*
X0192258Y0042969D01*
X0192244Y0043119D01*
X0192226Y0043269D01*
X0192204Y0043419D01*
X0192178Y0043567D01*
X0192148Y0043716D01*
X0192114Y0043863D01*
X0192077Y0044009D01*
X0192036Y0044155D01*
X0191991Y0044299D01*
X0191943Y0044442D01*
X0191891Y0044584D01*
X0191835Y0044724D01*
X0191776Y0044863D01*
X0191713Y0045001D01*
X0191647Y0045136D01*
X0191577Y0045270D01*
X0191504Y0045402D01*
X0191427Y0045533D01*
X0191347Y0045661D01*
X0191264Y0045787D01*
X0191177Y0045911D01*
X0191088Y0046032D01*
X0190995Y0046152D01*
X0190899Y0046269D01*
X0190801Y0046383D01*
X0190699Y0046495D01*
X0190595Y0046604D01*
X0190487Y0046710D01*
X0190377Y0046814D01*
X0190265Y0046915D01*
X0190150Y0047013D01*
X0190032Y0047107D01*
X0189998Y0047063D01*
X0190114Y0046969D01*
X0190228Y0046872D01*
X0190340Y0046773D01*
X0190449Y0046670D01*
X0190555Y0046564D01*
X0190658Y0046456D01*
X0190759Y0046346D01*
X0190856Y0046232D01*
X0190951Y0046117D01*
X0191043Y0045998D01*
X0191132Y0045878D01*
X0191217Y0045755D01*
X0191300Y0045630D01*
X0191379Y0045503D01*
X0191455Y0045375D01*
X0191527Y0045244D01*
X0191597Y0045111D01*
X0191662Y0044977D01*
X0191725Y0044841D01*
X0191783Y0044703D01*
X0191839Y0044564D01*
X0191890Y0044423D01*
X0191938Y0044282D01*
X0191982Y0044139D01*
X0192023Y0043995D01*
X0192060Y0043850D01*
X0192093Y0043704D01*
X0192123Y0043557D01*
X0192148Y0043410D01*
X0192170Y0043262D01*
X0192188Y0043113D01*
X0192202Y0042964D01*
X0192213Y0042815D01*
X0192219Y0042666D01*
X0192222Y0042516D01*
X0192166Y0042516D01*
X0192163Y0042664D01*
X0192157Y0042812D01*
X0192146Y0042960D01*
X0192132Y0043107D01*
X0192115Y0043255D01*
X0192093Y0043401D01*
X0192068Y0043547D01*
X0192038Y0043692D01*
X0192006Y0043837D01*
X0191969Y0043980D01*
X0191929Y0044123D01*
X0191885Y0044265D01*
X0191837Y0044405D01*
X0191786Y0044544D01*
X0191732Y0044682D01*
X0191673Y0044818D01*
X0191612Y0044953D01*
X0191547Y0045086D01*
X0191478Y0045217D01*
X0191406Y0045347D01*
X0191331Y0045474D01*
X0191253Y0045600D01*
X0191171Y0045724D01*
X0191086Y0045845D01*
X0190999Y0045965D01*
X0190908Y0046082D01*
X0190814Y0046196D01*
X0190717Y0046308D01*
X0190617Y0046418D01*
X0190515Y0046525D01*
X0190410Y0046630D01*
X0190302Y0046731D01*
X0190192Y0046830D01*
X0190079Y0046926D01*
X0189963Y0047019D01*
X0186370Y0048755D02*
X0186370Y0048215D01*
X0186370Y0048216D02*
X0186222Y0048213D01*
X0186074Y0048207D01*
X0185926Y0048196D01*
X0185779Y0048182D01*
X0185631Y0048164D01*
X0185485Y0048142D01*
X0185339Y0048117D01*
X0185194Y0048088D01*
X0185049Y0048055D01*
X0184906Y0048018D01*
X0184763Y0047977D01*
X0184622Y0047933D01*
X0184482Y0047885D01*
X0184343Y0047834D01*
X0184205Y0047779D01*
X0184069Y0047720D01*
X0183934Y0047658D01*
X0183801Y0047593D01*
X0183670Y0047524D01*
X0183541Y0047452D01*
X0183414Y0047376D01*
X0183288Y0047297D01*
X0183165Y0047215D01*
X0183044Y0047130D01*
X0182925Y0047042D01*
X0182808Y0046950D01*
X0182694Y0046856D01*
X0182343Y0047265D01*
X0182342Y0047266D01*
X0182463Y0047366D01*
X0182586Y0047463D01*
X0182711Y0047556D01*
X0182839Y0047647D01*
X0182969Y0047734D01*
X0183101Y0047818D01*
X0183235Y0047899D01*
X0183371Y0047976D01*
X0183509Y0048050D01*
X0183649Y0048120D01*
X0183791Y0048187D01*
X0183934Y0048251D01*
X0184078Y0048310D01*
X0184225Y0048367D01*
X0184372Y0048419D01*
X0184521Y0048468D01*
X0184671Y0048513D01*
X0184822Y0048554D01*
X0184974Y0048592D01*
X0185127Y0048625D01*
X0185280Y0048655D01*
X0185435Y0048681D01*
X0185590Y0048703D01*
X0185745Y0048722D01*
X0185901Y0048736D01*
X0186057Y0048747D01*
X0186213Y0048753D01*
X0186370Y0048756D01*
X0186370Y0048700D01*
X0186215Y0048697D01*
X0186060Y0048691D01*
X0185905Y0048680D01*
X0185751Y0048666D01*
X0185597Y0048648D01*
X0185443Y0048626D01*
X0185290Y0048600D01*
X0185138Y0048570D01*
X0184986Y0048537D01*
X0184836Y0048500D01*
X0184686Y0048459D01*
X0184538Y0048414D01*
X0184390Y0048366D01*
X0184244Y0048314D01*
X0184099Y0048258D01*
X0183956Y0048199D01*
X0183814Y0048136D01*
X0183674Y0048070D01*
X0183535Y0048000D01*
X0183399Y0047927D01*
X0183264Y0047850D01*
X0183131Y0047770D01*
X0183000Y0047687D01*
X0182871Y0047601D01*
X0182744Y0047511D01*
X0182620Y0047418D01*
X0182498Y0047322D01*
X0182379Y0047223D01*
X0182415Y0047181D01*
X0182534Y0047279D01*
X0182654Y0047374D01*
X0182778Y0047466D01*
X0182903Y0047555D01*
X0183031Y0047640D01*
X0183160Y0047723D01*
X0183292Y0047802D01*
X0183426Y0047878D01*
X0183561Y0047951D01*
X0183698Y0048020D01*
X0183837Y0048085D01*
X0183978Y0048148D01*
X0184120Y0048206D01*
X0184263Y0048261D01*
X0184408Y0048313D01*
X0184554Y0048361D01*
X0184702Y0048405D01*
X0184850Y0048446D01*
X0184999Y0048483D01*
X0185149Y0048516D01*
X0185300Y0048545D01*
X0185452Y0048571D01*
X0185604Y0048592D01*
X0185756Y0048610D01*
X0185909Y0048624D01*
X0186063Y0048635D01*
X0186216Y0048641D01*
X0186370Y0048644D01*
X0186370Y0048588D01*
X0186218Y0048585D01*
X0186066Y0048579D01*
X0185914Y0048569D01*
X0185762Y0048555D01*
X0185611Y0048537D01*
X0185460Y0048515D01*
X0185310Y0048490D01*
X0185160Y0048461D01*
X0185012Y0048428D01*
X0184864Y0048391D01*
X0184717Y0048351D01*
X0184571Y0048307D01*
X0184426Y0048260D01*
X0184283Y0048209D01*
X0184141Y0048154D01*
X0184000Y0048096D01*
X0183861Y0048035D01*
X0183723Y0047969D01*
X0183587Y0047901D01*
X0183453Y0047829D01*
X0183320Y0047754D01*
X0183190Y0047675D01*
X0183061Y0047594D01*
X0182935Y0047509D01*
X0182811Y0047421D01*
X0182689Y0047330D01*
X0182569Y0047236D01*
X0182452Y0047138D01*
X0182488Y0047096D01*
X0182604Y0047192D01*
X0182723Y0047285D01*
X0182844Y0047376D01*
X0182967Y0047463D01*
X0183092Y0047547D01*
X0183219Y0047628D01*
X0183349Y0047706D01*
X0183480Y0047780D01*
X0183613Y0047851D01*
X0183748Y0047919D01*
X0183884Y0047984D01*
X0184022Y0048045D01*
X0184161Y0048102D01*
X0184302Y0048156D01*
X0184444Y0048207D01*
X0184588Y0048254D01*
X0184732Y0048297D01*
X0184878Y0048337D01*
X0185024Y0048373D01*
X0185172Y0048406D01*
X0185320Y0048435D01*
X0185468Y0048460D01*
X0185618Y0048481D01*
X0185768Y0048499D01*
X0185918Y0048513D01*
X0186068Y0048523D01*
X0186219Y0048529D01*
X0186370Y0048532D01*
X0186370Y0048476D01*
X0186221Y0048473D01*
X0186071Y0048467D01*
X0185922Y0048457D01*
X0185773Y0048443D01*
X0185625Y0048426D01*
X0185477Y0048404D01*
X0185330Y0048380D01*
X0185183Y0048351D01*
X0185037Y0048319D01*
X0184892Y0048283D01*
X0184748Y0048244D01*
X0184605Y0048201D01*
X0184463Y0048154D01*
X0184322Y0048104D01*
X0184182Y0048050D01*
X0184044Y0047993D01*
X0183907Y0047933D01*
X0183772Y0047869D01*
X0183639Y0047802D01*
X0183507Y0047731D01*
X0183377Y0047657D01*
X0183249Y0047580D01*
X0183123Y0047500D01*
X0182999Y0047417D01*
X0182877Y0047330D01*
X0182757Y0047241D01*
X0182640Y0047149D01*
X0182525Y0047053D01*
X0182561Y0047011D01*
X0182675Y0047105D01*
X0182791Y0047197D01*
X0182910Y0047285D01*
X0183031Y0047371D01*
X0183154Y0047453D01*
X0183279Y0047533D01*
X0183406Y0047609D01*
X0183534Y0047682D01*
X0183665Y0047752D01*
X0183797Y0047819D01*
X0183931Y0047882D01*
X0184066Y0047942D01*
X0184203Y0047998D01*
X0184341Y0048051D01*
X0184481Y0048101D01*
X0184621Y0048147D01*
X0184763Y0048190D01*
X0184906Y0048229D01*
X0185050Y0048264D01*
X0185194Y0048296D01*
X0185339Y0048324D01*
X0185485Y0048349D01*
X0185632Y0048370D01*
X0185779Y0048387D01*
X0185926Y0048401D01*
X0186074Y0048411D01*
X0186222Y0048417D01*
X0186370Y0048420D01*
X0186370Y0048364D01*
X0186218Y0048361D01*
X0186066Y0048355D01*
X0185914Y0048344D01*
X0185763Y0048329D01*
X0185612Y0048311D01*
X0185462Y0048289D01*
X0185312Y0048262D01*
X0185163Y0048232D01*
X0185015Y0048198D01*
X0184867Y0048161D01*
X0184721Y0048119D01*
X0184576Y0048074D01*
X0184432Y0048025D01*
X0184289Y0047972D01*
X0184148Y0047916D01*
X0184009Y0047856D01*
X0183871Y0047792D01*
X0183734Y0047725D01*
X0183600Y0047654D01*
X0183467Y0047580D01*
X0183336Y0047502D01*
X0183207Y0047421D01*
X0183081Y0047337D01*
X0182956Y0047250D01*
X0182834Y0047159D01*
X0182715Y0047065D01*
X0182597Y0046968D01*
X0182634Y0046926D01*
X0182750Y0047022D01*
X0182868Y0047115D01*
X0182989Y0047204D01*
X0183113Y0047291D01*
X0183238Y0047374D01*
X0183365Y0047455D01*
X0183495Y0047531D01*
X0183626Y0047605D01*
X0183760Y0047675D01*
X0183895Y0047741D01*
X0184031Y0047804D01*
X0184170Y0047864D01*
X0184310Y0047920D01*
X0184451Y0047972D01*
X0184593Y0048021D01*
X0184737Y0048065D01*
X0184882Y0048107D01*
X0185028Y0048144D01*
X0185175Y0048178D01*
X0185322Y0048207D01*
X0185470Y0048233D01*
X0185619Y0048255D01*
X0185769Y0048274D01*
X0185919Y0048288D01*
X0186069Y0048299D01*
X0186219Y0048305D01*
X0186370Y0048308D01*
X0186370Y0048252D01*
X0186221Y0048249D01*
X0186072Y0048243D01*
X0185923Y0048232D01*
X0185775Y0048218D01*
X0185627Y0048200D01*
X0185479Y0048178D01*
X0185332Y0048152D01*
X0185186Y0048123D01*
X0185041Y0048090D01*
X0184896Y0048053D01*
X0184753Y0048012D01*
X0184611Y0047967D01*
X0184470Y0047919D01*
X0184330Y0047868D01*
X0184191Y0047812D01*
X0184054Y0047753D01*
X0183919Y0047691D01*
X0183785Y0047625D01*
X0183653Y0047556D01*
X0183523Y0047483D01*
X0183395Y0047407D01*
X0183268Y0047328D01*
X0183144Y0047245D01*
X0183022Y0047159D01*
X0182903Y0047070D01*
X0182785Y0046978D01*
X0182670Y0046883D01*
X0183631Y0042457D02*
X0184171Y0042457D01*
X0184170Y0042456D02*
X0184173Y0042363D01*
X0184180Y0042270D01*
X0184191Y0042178D01*
X0184206Y0042086D01*
X0184225Y0041995D01*
X0184247Y0041904D01*
X0184273Y0041815D01*
X0184303Y0041727D01*
X0184337Y0041640D01*
X0184374Y0041555D01*
X0184414Y0041471D01*
X0184458Y0041389D01*
X0184506Y0041309D01*
X0184557Y0041231D01*
X0184610Y0041155D01*
X0184668Y0041082D01*
X0184728Y0041011D01*
X0184791Y0040942D01*
X0184856Y0040877D01*
X0184925Y0040814D01*
X0184996Y0040754D01*
X0185069Y0040696D01*
X0185145Y0040643D01*
X0185223Y0040592D01*
X0185303Y0040544D01*
X0185385Y0040500D01*
X0185469Y0040460D01*
X0185554Y0040423D01*
X0185641Y0040389D01*
X0185729Y0040359D01*
X0185818Y0040333D01*
X0185909Y0040311D01*
X0186000Y0040292D01*
X0186092Y0040277D01*
X0186184Y0040266D01*
X0186277Y0040259D01*
X0186370Y0040256D01*
X0186371Y0039717D01*
X0186370Y0039716D01*
X0186265Y0039719D01*
X0186161Y0039726D01*
X0186057Y0039737D01*
X0185953Y0039752D01*
X0185850Y0039771D01*
X0185748Y0039794D01*
X0185647Y0039820D01*
X0185547Y0039851D01*
X0185448Y0039885D01*
X0185350Y0039923D01*
X0185254Y0039964D01*
X0185160Y0040009D01*
X0185067Y0040058D01*
X0184976Y0040110D01*
X0184888Y0040165D01*
X0184801Y0040224D01*
X0184717Y0040286D01*
X0184635Y0040351D01*
X0184555Y0040420D01*
X0184479Y0040491D01*
X0184405Y0040565D01*
X0184334Y0040641D01*
X0184265Y0040721D01*
X0184200Y0040803D01*
X0184138Y0040887D01*
X0184079Y0040974D01*
X0184024Y0041062D01*
X0183972Y0041153D01*
X0183923Y0041246D01*
X0183878Y0041340D01*
X0183837Y0041436D01*
X0183799Y0041534D01*
X0183765Y0041633D01*
X0183734Y0041733D01*
X0183708Y0041834D01*
X0183685Y0041936D01*
X0183666Y0042039D01*
X0183651Y0042143D01*
X0183640Y0042247D01*
X0183633Y0042351D01*
X0183630Y0042456D01*
X0183686Y0042456D01*
X0183689Y0042354D01*
X0183696Y0042251D01*
X0183707Y0042149D01*
X0183722Y0042048D01*
X0183740Y0041947D01*
X0183762Y0041847D01*
X0183788Y0041748D01*
X0183818Y0041650D01*
X0183851Y0041553D01*
X0183889Y0041457D01*
X0183929Y0041363D01*
X0183973Y0041271D01*
X0184021Y0041180D01*
X0184072Y0041091D01*
X0184126Y0041004D01*
X0184184Y0040919D01*
X0184245Y0040837D01*
X0184309Y0040756D01*
X0184375Y0040679D01*
X0184445Y0040603D01*
X0184517Y0040531D01*
X0184593Y0040461D01*
X0184670Y0040395D01*
X0184751Y0040331D01*
X0184833Y0040270D01*
X0184918Y0040212D01*
X0185005Y0040158D01*
X0185094Y0040107D01*
X0185185Y0040059D01*
X0185277Y0040015D01*
X0185371Y0039975D01*
X0185467Y0039937D01*
X0185564Y0039904D01*
X0185662Y0039874D01*
X0185761Y0039848D01*
X0185861Y0039826D01*
X0185962Y0039808D01*
X0186063Y0039793D01*
X0186165Y0039782D01*
X0186268Y0039775D01*
X0186370Y0039772D01*
X0186370Y0039828D01*
X0186267Y0039831D01*
X0186165Y0039838D01*
X0186062Y0039850D01*
X0185961Y0039865D01*
X0185859Y0039884D01*
X0185759Y0039906D01*
X0185660Y0039933D01*
X0185562Y0039964D01*
X0185465Y0039998D01*
X0185369Y0040036D01*
X0185275Y0040078D01*
X0185183Y0040123D01*
X0185092Y0040172D01*
X0185004Y0040224D01*
X0184917Y0040280D01*
X0184833Y0040339D01*
X0184751Y0040401D01*
X0184671Y0040467D01*
X0184595Y0040535D01*
X0184521Y0040607D01*
X0184449Y0040681D01*
X0184381Y0040757D01*
X0184315Y0040837D01*
X0184253Y0040919D01*
X0184194Y0041003D01*
X0184138Y0041090D01*
X0184086Y0041178D01*
X0184037Y0041269D01*
X0183992Y0041361D01*
X0183950Y0041455D01*
X0183912Y0041551D01*
X0183878Y0041648D01*
X0183847Y0041746D01*
X0183820Y0041845D01*
X0183798Y0041945D01*
X0183779Y0042047D01*
X0183764Y0042148D01*
X0183752Y0042251D01*
X0183745Y0042353D01*
X0183742Y0042456D01*
X0183798Y0042456D01*
X0183801Y0042355D01*
X0183808Y0042255D01*
X0183819Y0042155D01*
X0183834Y0042055D01*
X0183852Y0041956D01*
X0183875Y0041858D01*
X0183901Y0041761D01*
X0183931Y0041665D01*
X0183965Y0041570D01*
X0184002Y0041476D01*
X0184043Y0041384D01*
X0184087Y0041294D01*
X0184135Y0041205D01*
X0184186Y0041119D01*
X0184241Y0041034D01*
X0184298Y0040952D01*
X0184359Y0040872D01*
X0184423Y0040794D01*
X0184490Y0040719D01*
X0184560Y0040646D01*
X0184633Y0040576D01*
X0184708Y0040509D01*
X0184786Y0040445D01*
X0184866Y0040384D01*
X0184948Y0040327D01*
X0185033Y0040272D01*
X0185119Y0040221D01*
X0185208Y0040173D01*
X0185298Y0040129D01*
X0185390Y0040088D01*
X0185484Y0040051D01*
X0185579Y0040017D01*
X0185675Y0039987D01*
X0185772Y0039961D01*
X0185870Y0039938D01*
X0185969Y0039920D01*
X0186069Y0039905D01*
X0186169Y0039894D01*
X0186269Y0039887D01*
X0186370Y0039884D01*
X0186370Y0039940D01*
X0186272Y0039943D01*
X0186173Y0039950D01*
X0186075Y0039961D01*
X0185978Y0039975D01*
X0185881Y0039993D01*
X0185785Y0040015D01*
X0185690Y0040041D01*
X0185596Y0040070D01*
X0185503Y0040103D01*
X0185412Y0040140D01*
X0185322Y0040180D01*
X0185233Y0040223D01*
X0185147Y0040270D01*
X0185062Y0040320D01*
X0184979Y0040373D01*
X0184899Y0040430D01*
X0184820Y0040489D01*
X0184744Y0040552D01*
X0184671Y0040617D01*
X0184600Y0040686D01*
X0184531Y0040757D01*
X0184466Y0040830D01*
X0184403Y0040906D01*
X0184344Y0040985D01*
X0184287Y0041065D01*
X0184234Y0041148D01*
X0184184Y0041233D01*
X0184137Y0041319D01*
X0184094Y0041408D01*
X0184054Y0041498D01*
X0184017Y0041589D01*
X0183984Y0041682D01*
X0183955Y0041776D01*
X0183929Y0041871D01*
X0183907Y0041967D01*
X0183889Y0042064D01*
X0183875Y0042161D01*
X0183864Y0042259D01*
X0183857Y0042358D01*
X0183854Y0042456D01*
X0183910Y0042456D01*
X0183913Y0042357D01*
X0183920Y0042259D01*
X0183931Y0042161D01*
X0183946Y0042063D01*
X0183965Y0041966D01*
X0183987Y0041870D01*
X0184014Y0041775D01*
X0184044Y0041681D01*
X0184078Y0041588D01*
X0184115Y0041497D01*
X0184156Y0041407D01*
X0184201Y0041319D01*
X0184249Y0041232D01*
X0184300Y0041148D01*
X0184355Y0041066D01*
X0184413Y0040986D01*
X0184474Y0040908D01*
X0184538Y0040833D01*
X0184605Y0040761D01*
X0184675Y0040691D01*
X0184747Y0040624D01*
X0184822Y0040560D01*
X0184900Y0040499D01*
X0184980Y0040441D01*
X0185062Y0040386D01*
X0185146Y0040335D01*
X0185233Y0040287D01*
X0185321Y0040242D01*
X0185411Y0040201D01*
X0185502Y0040164D01*
X0185595Y0040130D01*
X0185689Y0040100D01*
X0185784Y0040073D01*
X0185880Y0040051D01*
X0185977Y0040032D01*
X0186075Y0040017D01*
X0186173Y0040006D01*
X0186271Y0039999D01*
X0186370Y0039996D01*
X0186370Y0040052D01*
X0186274Y0040055D01*
X0186177Y0040062D01*
X0186081Y0040073D01*
X0185986Y0040087D01*
X0185891Y0040106D01*
X0185797Y0040128D01*
X0185704Y0040154D01*
X0185612Y0040183D01*
X0185522Y0040216D01*
X0185433Y0040253D01*
X0185345Y0040293D01*
X0185259Y0040336D01*
X0185174Y0040383D01*
X0185092Y0040433D01*
X0185012Y0040487D01*
X0184933Y0040543D01*
X0184858Y0040603D01*
X0184784Y0040666D01*
X0184713Y0040731D01*
X0184645Y0040799D01*
X0184580Y0040870D01*
X0184517Y0040944D01*
X0184457Y0041019D01*
X0184401Y0041098D01*
X0184347Y0041178D01*
X0184297Y0041260D01*
X0184250Y0041345D01*
X0184207Y0041431D01*
X0184167Y0041519D01*
X0184130Y0041608D01*
X0184097Y0041698D01*
X0184068Y0041790D01*
X0184042Y0041883D01*
X0184020Y0041977D01*
X0184001Y0042072D01*
X0183987Y0042167D01*
X0183976Y0042263D01*
X0183969Y0042360D01*
X0183966Y0042456D01*
X0184022Y0042456D01*
X0184025Y0042359D01*
X0184032Y0042263D01*
X0184044Y0042167D01*
X0184058Y0042071D01*
X0184077Y0041976D01*
X0184100Y0041882D01*
X0184126Y0041789D01*
X0184157Y0041697D01*
X0184190Y0041607D01*
X0184228Y0041518D01*
X0184269Y0041430D01*
X0184314Y0041344D01*
X0184362Y0041261D01*
X0184414Y0041179D01*
X0184468Y0041099D01*
X0184526Y0041022D01*
X0184587Y0040947D01*
X0184652Y0040874D01*
X0184719Y0040805D01*
X0184788Y0040738D01*
X0184861Y0040673D01*
X0184936Y0040612D01*
X0185013Y0040554D01*
X0185093Y0040500D01*
X0185175Y0040448D01*
X0185258Y0040400D01*
X0185344Y0040355D01*
X0185432Y0040314D01*
X0185521Y0040276D01*
X0185611Y0040243D01*
X0185703Y0040212D01*
X0185796Y0040186D01*
X0185890Y0040163D01*
X0185985Y0040144D01*
X0186081Y0040130D01*
X0186177Y0040118D01*
X0186273Y0040111D01*
X0186370Y0040108D01*
X0186370Y0040164D01*
X0186276Y0040167D01*
X0186182Y0040174D01*
X0186088Y0040185D01*
X0185994Y0040200D01*
X0185902Y0040218D01*
X0185810Y0040240D01*
X0185719Y0040266D01*
X0185630Y0040296D01*
X0185541Y0040329D01*
X0185454Y0040365D01*
X0185369Y0040406D01*
X0185285Y0040449D01*
X0185203Y0040496D01*
X0185123Y0040546D01*
X0185046Y0040600D01*
X0184970Y0040657D01*
X0184897Y0040716D01*
X0184826Y0040779D01*
X0184758Y0040844D01*
X0184693Y0040912D01*
X0184630Y0040983D01*
X0184571Y0041056D01*
X0184514Y0041132D01*
X0184460Y0041209D01*
X0184410Y0041289D01*
X0184363Y0041371D01*
X0184320Y0041455D01*
X0184279Y0041540D01*
X0184243Y0041627D01*
X0184210Y0041716D01*
X0184180Y0041805D01*
X0184154Y0041896D01*
X0184132Y0041988D01*
X0184114Y0042080D01*
X0184099Y0042174D01*
X0184088Y0042268D01*
X0184081Y0042362D01*
X0184078Y0042456D01*
X0184134Y0042456D01*
X0184137Y0042361D01*
X0184145Y0042267D01*
X0184156Y0042173D01*
X0184171Y0042080D01*
X0184190Y0041987D01*
X0184212Y0041895D01*
X0184239Y0041805D01*
X0184269Y0041715D01*
X0184303Y0041627D01*
X0184341Y0041540D01*
X0184382Y0041455D01*
X0184427Y0041372D01*
X0184475Y0041290D01*
X0184527Y0041211D01*
X0184582Y0041134D01*
X0184640Y0041059D01*
X0184701Y0040987D01*
X0184765Y0040917D01*
X0184831Y0040851D01*
X0184901Y0040787D01*
X0184973Y0040726D01*
X0185048Y0040668D01*
X0185125Y0040613D01*
X0185204Y0040561D01*
X0185286Y0040513D01*
X0185369Y0040468D01*
X0185454Y0040427D01*
X0185541Y0040389D01*
X0185629Y0040355D01*
X0185719Y0040325D01*
X0185809Y0040298D01*
X0185901Y0040276D01*
X0185994Y0040257D01*
X0186087Y0040242D01*
X0186181Y0040231D01*
X0186275Y0040223D01*
X0186370Y0040220D01*
X0182410Y0037650D02*
X0182755Y0038065D01*
X0182873Y0037970D01*
X0182993Y0037879D01*
X0183115Y0037791D01*
X0183240Y0037706D01*
X0183367Y0037625D01*
X0183496Y0037547D01*
X0183627Y0037472D01*
X0183759Y0037401D01*
X0183894Y0037333D01*
X0184031Y0037269D01*
X0184169Y0037208D01*
X0184308Y0037151D01*
X0184449Y0037098D01*
X0184592Y0037049D01*
X0184736Y0037003D01*
X0184880Y0036961D01*
X0185026Y0036923D01*
X0185173Y0036889D01*
X0185321Y0036859D01*
X0185469Y0036832D01*
X0185618Y0036810D01*
X0185768Y0036791D01*
X0185918Y0036776D01*
X0186069Y0036766D01*
X0186219Y0036759D01*
X0186370Y0036756D01*
X0186370Y0036217D01*
X0186370Y0036216D01*
X0186217Y0036219D01*
X0186063Y0036225D01*
X0185910Y0036235D01*
X0185757Y0036249D01*
X0185605Y0036267D01*
X0185453Y0036288D01*
X0185302Y0036313D01*
X0185151Y0036342D01*
X0185001Y0036374D01*
X0184852Y0036410D01*
X0184704Y0036450D01*
X0184557Y0036493D01*
X0184411Y0036540D01*
X0184266Y0036590D01*
X0184122Y0036644D01*
X0183980Y0036702D01*
X0183839Y0036763D01*
X0183700Y0036827D01*
X0183562Y0036895D01*
X0183426Y0036966D01*
X0183292Y0037041D01*
X0183160Y0037118D01*
X0183029Y0037199D01*
X0182901Y0037283D01*
X0182775Y0037370D01*
X0182651Y0037461D01*
X0182529Y0037554D01*
X0182409Y0037650D01*
X0182445Y0037693D01*
X0182564Y0037598D01*
X0182684Y0037505D01*
X0182807Y0037416D01*
X0182932Y0037330D01*
X0183060Y0037246D01*
X0183189Y0037166D01*
X0183320Y0037089D01*
X0183453Y0037015D01*
X0183588Y0036945D01*
X0183724Y0036878D01*
X0183862Y0036814D01*
X0184001Y0036754D01*
X0184142Y0036697D01*
X0184285Y0036643D01*
X0184428Y0036593D01*
X0184573Y0036547D01*
X0184719Y0036504D01*
X0184866Y0036464D01*
X0185013Y0036429D01*
X0185162Y0036397D01*
X0185311Y0036368D01*
X0185461Y0036343D01*
X0185612Y0036322D01*
X0185763Y0036305D01*
X0185914Y0036291D01*
X0186066Y0036281D01*
X0186218Y0036275D01*
X0186370Y0036272D01*
X0186370Y0036328D01*
X0186214Y0036331D01*
X0186058Y0036338D01*
X0185902Y0036348D01*
X0185746Y0036363D01*
X0185591Y0036381D01*
X0185437Y0036404D01*
X0185283Y0036430D01*
X0185129Y0036461D01*
X0184977Y0036495D01*
X0184825Y0036533D01*
X0184675Y0036575D01*
X0184526Y0036620D01*
X0184377Y0036670D01*
X0184230Y0036723D01*
X0184085Y0036780D01*
X0183941Y0036840D01*
X0183799Y0036904D01*
X0183658Y0036972D01*
X0183519Y0037044D01*
X0183382Y0037118D01*
X0183247Y0037197D01*
X0183113Y0037278D01*
X0182982Y0037363D01*
X0182853Y0037452D01*
X0182727Y0037543D01*
X0182603Y0037638D01*
X0182481Y0037736D01*
X0182517Y0037779D01*
X0182637Y0037682D01*
X0182761Y0037588D01*
X0182886Y0037497D01*
X0183014Y0037410D01*
X0183143Y0037326D01*
X0183275Y0037245D01*
X0183409Y0037167D01*
X0183545Y0037093D01*
X0183683Y0037022D01*
X0183822Y0036955D01*
X0183963Y0036892D01*
X0184106Y0036832D01*
X0184250Y0036775D01*
X0184396Y0036723D01*
X0184543Y0036674D01*
X0184691Y0036628D01*
X0184840Y0036587D01*
X0184990Y0036549D01*
X0185141Y0036515D01*
X0185293Y0036485D01*
X0185445Y0036459D01*
X0185598Y0036437D01*
X0185752Y0036418D01*
X0185906Y0036404D01*
X0186061Y0036393D01*
X0186215Y0036387D01*
X0186370Y0036384D01*
X0186370Y0036440D01*
X0186217Y0036443D01*
X0186063Y0036449D01*
X0185911Y0036460D01*
X0185758Y0036474D01*
X0185606Y0036492D01*
X0185454Y0036514D01*
X0185303Y0036540D01*
X0185152Y0036570D01*
X0185003Y0036604D01*
X0184854Y0036641D01*
X0184706Y0036682D01*
X0184560Y0036727D01*
X0184414Y0036775D01*
X0184270Y0036828D01*
X0184127Y0036883D01*
X0183986Y0036943D01*
X0183846Y0037006D01*
X0183708Y0037072D01*
X0183571Y0037142D01*
X0183437Y0037216D01*
X0183304Y0037293D01*
X0183173Y0037373D01*
X0183045Y0037456D01*
X0182918Y0037543D01*
X0182794Y0037633D01*
X0182672Y0037726D01*
X0182553Y0037822D01*
X0182589Y0037865D01*
X0182707Y0037770D01*
X0182828Y0037678D01*
X0182951Y0037589D01*
X0183076Y0037503D01*
X0183203Y0037420D01*
X0183333Y0037341D01*
X0183464Y0037265D01*
X0183598Y0037192D01*
X0183733Y0037123D01*
X0183870Y0037057D01*
X0184008Y0036994D01*
X0184148Y0036935D01*
X0184290Y0036880D01*
X0184433Y0036828D01*
X0184577Y0036780D01*
X0184722Y0036736D01*
X0184868Y0036695D01*
X0185016Y0036658D01*
X0185164Y0036625D01*
X0185313Y0036596D01*
X0185462Y0036570D01*
X0185613Y0036548D01*
X0185764Y0036530D01*
X0185915Y0036516D01*
X0186066Y0036505D01*
X0186218Y0036499D01*
X0186370Y0036496D01*
X0186370Y0036552D01*
X0186220Y0036555D01*
X0186069Y0036561D01*
X0185919Y0036572D01*
X0185769Y0036586D01*
X0185620Y0036603D01*
X0185471Y0036625D01*
X0185323Y0036651D01*
X0185175Y0036680D01*
X0185028Y0036713D01*
X0184882Y0036749D01*
X0184737Y0036790D01*
X0184594Y0036834D01*
X0184451Y0036881D01*
X0184309Y0036932D01*
X0184169Y0036987D01*
X0184031Y0037046D01*
X0183893Y0037107D01*
X0183758Y0037173D01*
X0183624Y0037241D01*
X0183492Y0037313D01*
X0183362Y0037389D01*
X0183234Y0037467D01*
X0183107Y0037549D01*
X0182983Y0037634D01*
X0182861Y0037723D01*
X0182742Y0037814D01*
X0182624Y0037908D01*
X0182660Y0037951D01*
X0182776Y0037858D01*
X0182895Y0037767D01*
X0183016Y0037680D01*
X0183139Y0037596D01*
X0183264Y0037515D01*
X0183391Y0037437D01*
X0183520Y0037362D01*
X0183650Y0037291D01*
X0183783Y0037223D01*
X0183917Y0037158D01*
X0184053Y0037097D01*
X0184190Y0037039D01*
X0184329Y0036985D01*
X0184469Y0036934D01*
X0184611Y0036887D01*
X0184753Y0036843D01*
X0184897Y0036803D01*
X0185041Y0036767D01*
X0185187Y0036735D01*
X0185333Y0036706D01*
X0185480Y0036680D01*
X0185627Y0036659D01*
X0185775Y0036641D01*
X0185923Y0036627D01*
X0186072Y0036617D01*
X0186221Y0036611D01*
X0186370Y0036608D01*
X0186370Y0036664D01*
X0186222Y0036667D01*
X0186075Y0036673D01*
X0185928Y0036683D01*
X0185781Y0036697D01*
X0185634Y0036715D01*
X0185488Y0036736D01*
X0185343Y0036761D01*
X0185198Y0036789D01*
X0185054Y0036822D01*
X0184911Y0036858D01*
X0184769Y0036897D01*
X0184628Y0036940D01*
X0184488Y0036987D01*
X0184349Y0037037D01*
X0184211Y0037091D01*
X0184075Y0037148D01*
X0183941Y0037209D01*
X0183808Y0037273D01*
X0183677Y0037340D01*
X0183547Y0037411D01*
X0183419Y0037485D01*
X0183294Y0037562D01*
X0183170Y0037642D01*
X0183048Y0037726D01*
X0182928Y0037812D01*
X0182811Y0037902D01*
X0182696Y0037994D01*
X0182732Y0038037D01*
X0182846Y0037946D01*
X0182962Y0037857D01*
X0183080Y0037771D01*
X0183201Y0037689D01*
X0183324Y0037609D01*
X0183448Y0037533D01*
X0183575Y0037460D01*
X0183703Y0037390D01*
X0183833Y0037323D01*
X0183965Y0037260D01*
X0184098Y0037200D01*
X0184233Y0037143D01*
X0184369Y0037090D01*
X0184506Y0037040D01*
X0184645Y0036994D01*
X0184784Y0036951D01*
X0184925Y0036912D01*
X0185067Y0036876D01*
X0185210Y0036844D01*
X0185353Y0036816D01*
X0185497Y0036791D01*
X0185642Y0036770D01*
X0185787Y0036753D01*
X0185932Y0036739D01*
X0186078Y0036729D01*
X0186224Y0036723D01*
X0186370Y0036720D01*
X0180131Y0042457D02*
X0180671Y0042457D01*
X0180670Y0042456D02*
X0180673Y0042306D01*
X0180680Y0042156D01*
X0180690Y0042006D01*
X0180705Y0041857D01*
X0180723Y0041708D01*
X0180745Y0041560D01*
X0180772Y0041412D01*
X0180802Y0041265D01*
X0180836Y0041118D01*
X0180873Y0040973D01*
X0180915Y0040829D01*
X0180960Y0040686D01*
X0181009Y0040544D01*
X0181062Y0040403D01*
X0181118Y0040264D01*
X0181178Y0040127D01*
X0181242Y0039991D01*
X0181309Y0039857D01*
X0181380Y0039724D01*
X0181454Y0039594D01*
X0181531Y0039465D01*
X0181612Y0039339D01*
X0181696Y0039214D01*
X0181783Y0039092D01*
X0181874Y0038972D01*
X0181967Y0038855D01*
X0182064Y0038740D01*
X0182164Y0038628D01*
X0182266Y0038518D01*
X0182371Y0038411D01*
X0182479Y0038307D01*
X0182590Y0038206D01*
X0182704Y0038108D01*
X0182820Y0038012D01*
X0182938Y0037920D01*
X0182615Y0037489D01*
X0182614Y0037488D01*
X0182491Y0037583D01*
X0182371Y0037682D01*
X0182253Y0037783D01*
X0182138Y0037888D01*
X0182025Y0037995D01*
X0181915Y0038105D01*
X0181808Y0038217D01*
X0181703Y0038332D01*
X0181602Y0038450D01*
X0181503Y0038570D01*
X0181407Y0038693D01*
X0181315Y0038818D01*
X0181225Y0038945D01*
X0181139Y0039075D01*
X0181056Y0039206D01*
X0180976Y0039340D01*
X0180900Y0039475D01*
X0180827Y0039613D01*
X0180758Y0039752D01*
X0180692Y0039893D01*
X0180629Y0040035D01*
X0180570Y0040179D01*
X0180515Y0040324D01*
X0180463Y0040471D01*
X0180415Y0040619D01*
X0180370Y0040768D01*
X0180329Y0040918D01*
X0180292Y0041069D01*
X0180259Y0041221D01*
X0180230Y0041373D01*
X0180204Y0041527D01*
X0180182Y0041681D01*
X0180164Y0041835D01*
X0180150Y0041990D01*
X0180139Y0042145D01*
X0180133Y0042301D01*
X0180130Y0042456D01*
X0180186Y0042456D01*
X0180189Y0042302D01*
X0180195Y0042148D01*
X0180205Y0041994D01*
X0180220Y0041841D01*
X0180237Y0041688D01*
X0180259Y0041535D01*
X0180285Y0041383D01*
X0180314Y0041232D01*
X0180347Y0041081D01*
X0180384Y0040932D01*
X0180424Y0040783D01*
X0180468Y0040635D01*
X0180516Y0040489D01*
X0180567Y0040343D01*
X0180622Y0040199D01*
X0180681Y0040057D01*
X0180743Y0039916D01*
X0180808Y0039776D01*
X0180877Y0039638D01*
X0180949Y0039502D01*
X0181025Y0039368D01*
X0181104Y0039236D01*
X0181186Y0039105D01*
X0181272Y0038977D01*
X0181360Y0038851D01*
X0181452Y0038727D01*
X0181547Y0038606D01*
X0181644Y0038486D01*
X0181745Y0038370D01*
X0181848Y0038255D01*
X0181955Y0038144D01*
X0182064Y0038035D01*
X0182176Y0037929D01*
X0182290Y0037825D01*
X0182407Y0037725D01*
X0182526Y0037627D01*
X0182648Y0037533D01*
X0182681Y0037578D01*
X0182561Y0037671D01*
X0182442Y0037768D01*
X0182327Y0037868D01*
X0182213Y0037970D01*
X0182103Y0038075D01*
X0181995Y0038183D01*
X0181889Y0038294D01*
X0181787Y0038407D01*
X0181687Y0038523D01*
X0181590Y0038641D01*
X0181496Y0038761D01*
X0181406Y0038884D01*
X0181318Y0039009D01*
X0181233Y0039136D01*
X0181152Y0039265D01*
X0181073Y0039396D01*
X0180998Y0039529D01*
X0180927Y0039664D01*
X0180858Y0039801D01*
X0180794Y0039939D01*
X0180732Y0040079D01*
X0180674Y0040220D01*
X0180620Y0040363D01*
X0180569Y0040507D01*
X0180522Y0040652D01*
X0180478Y0040798D01*
X0180438Y0040945D01*
X0180401Y0041094D01*
X0180369Y0041243D01*
X0180340Y0041393D01*
X0180315Y0041543D01*
X0180293Y0041695D01*
X0180275Y0041846D01*
X0180261Y0041998D01*
X0180251Y0042151D01*
X0180245Y0042303D01*
X0180242Y0042456D01*
X0180298Y0042456D01*
X0180301Y0042301D01*
X0180308Y0042145D01*
X0180318Y0041990D01*
X0180333Y0041835D01*
X0180351Y0041681D01*
X0180374Y0041527D01*
X0180400Y0041374D01*
X0180431Y0041221D01*
X0180465Y0041069D01*
X0180503Y0040919D01*
X0180545Y0040769D01*
X0180590Y0040620D01*
X0180640Y0040473D01*
X0180693Y0040327D01*
X0180750Y0040182D01*
X0180810Y0040039D01*
X0180874Y0039897D01*
X0180942Y0039757D01*
X0181014Y0039619D01*
X0181088Y0039483D01*
X0181167Y0039348D01*
X0181248Y0039216D01*
X0181333Y0039086D01*
X0181422Y0038958D01*
X0181513Y0038832D01*
X0181608Y0038709D01*
X0181706Y0038588D01*
X0181806Y0038469D01*
X0181910Y0038354D01*
X0182017Y0038241D01*
X0182127Y0038130D01*
X0182239Y0038023D01*
X0182354Y0037918D01*
X0182472Y0037817D01*
X0182592Y0037718D01*
X0182715Y0037622D01*
X0182748Y0037667D01*
X0182627Y0037762D01*
X0182508Y0037860D01*
X0182391Y0037960D01*
X0182277Y0038064D01*
X0182166Y0038170D01*
X0182057Y0038280D01*
X0181951Y0038392D01*
X0181849Y0038506D01*
X0181749Y0038624D01*
X0181652Y0038743D01*
X0181558Y0038866D01*
X0181467Y0038990D01*
X0181380Y0039117D01*
X0181295Y0039246D01*
X0181215Y0039377D01*
X0181137Y0039510D01*
X0181063Y0039645D01*
X0180992Y0039782D01*
X0180925Y0039921D01*
X0180862Y0040061D01*
X0180802Y0040203D01*
X0180745Y0040346D01*
X0180693Y0040491D01*
X0180644Y0040637D01*
X0180598Y0040785D01*
X0180557Y0040933D01*
X0180519Y0041082D01*
X0180485Y0041233D01*
X0180455Y0041384D01*
X0180429Y0041536D01*
X0180407Y0041688D01*
X0180389Y0041841D01*
X0180374Y0041994D01*
X0180363Y0042148D01*
X0180357Y0042302D01*
X0180354Y0042456D01*
X0180410Y0042456D01*
X0180413Y0042303D01*
X0180419Y0042151D01*
X0180430Y0041999D01*
X0180444Y0041847D01*
X0180462Y0041695D01*
X0180485Y0041544D01*
X0180510Y0041394D01*
X0180540Y0041244D01*
X0180574Y0041095D01*
X0180611Y0040947D01*
X0180652Y0040800D01*
X0180697Y0040654D01*
X0180745Y0040510D01*
X0180798Y0040366D01*
X0180853Y0040224D01*
X0180913Y0040084D01*
X0180976Y0039945D01*
X0181042Y0039807D01*
X0181112Y0039672D01*
X0181186Y0039538D01*
X0181263Y0039406D01*
X0181343Y0039276D01*
X0181426Y0039148D01*
X0181513Y0039023D01*
X0181603Y0038899D01*
X0181696Y0038778D01*
X0181792Y0038659D01*
X0181891Y0038543D01*
X0181992Y0038430D01*
X0182097Y0038319D01*
X0182205Y0038210D01*
X0182315Y0038105D01*
X0182428Y0038002D01*
X0182544Y0037903D01*
X0182662Y0037806D01*
X0182782Y0037712D01*
X0182816Y0037757D01*
X0182696Y0037850D01*
X0182579Y0037946D01*
X0182465Y0038044D01*
X0182353Y0038146D01*
X0182244Y0038251D01*
X0182137Y0038358D01*
X0182034Y0038468D01*
X0181933Y0038580D01*
X0181835Y0038695D01*
X0181739Y0038813D01*
X0181647Y0038933D01*
X0181558Y0039055D01*
X0181473Y0039179D01*
X0181390Y0039306D01*
X0181311Y0039435D01*
X0181235Y0039565D01*
X0181162Y0039698D01*
X0181092Y0039832D01*
X0181027Y0039968D01*
X0180964Y0040106D01*
X0180905Y0040245D01*
X0180850Y0040386D01*
X0180798Y0040528D01*
X0180750Y0040671D01*
X0180706Y0040816D01*
X0180665Y0040961D01*
X0180628Y0041108D01*
X0180595Y0041256D01*
X0180566Y0041404D01*
X0180540Y0041553D01*
X0180518Y0041702D01*
X0180500Y0041852D01*
X0180486Y0042003D01*
X0180475Y0042154D01*
X0180469Y0042305D01*
X0180466Y0042456D01*
X0180522Y0042456D01*
X0180525Y0042306D01*
X0180531Y0042157D01*
X0180542Y0042007D01*
X0180556Y0041858D01*
X0180574Y0041710D01*
X0180595Y0041561D01*
X0180621Y0041414D01*
X0180650Y0041267D01*
X0180683Y0041121D01*
X0180719Y0040976D01*
X0180760Y0040832D01*
X0180804Y0040688D01*
X0180851Y0040546D01*
X0180902Y0040406D01*
X0180957Y0040266D01*
X0181016Y0040128D01*
X0181077Y0039992D01*
X0181143Y0039857D01*
X0181211Y0039724D01*
X0181283Y0039593D01*
X0181359Y0039464D01*
X0181437Y0039336D01*
X0181519Y0039211D01*
X0181604Y0039087D01*
X0181692Y0038966D01*
X0181783Y0038848D01*
X0181878Y0038731D01*
X0181975Y0038617D01*
X0182075Y0038506D01*
X0182177Y0038397D01*
X0182283Y0038291D01*
X0182391Y0038187D01*
X0182502Y0038086D01*
X0182615Y0037989D01*
X0182731Y0037894D01*
X0182849Y0037802D01*
X0182883Y0037846D01*
X0182766Y0037938D01*
X0182651Y0038032D01*
X0182539Y0038129D01*
X0182429Y0038228D01*
X0182322Y0038331D01*
X0182218Y0038436D01*
X0182116Y0038544D01*
X0182017Y0038654D01*
X0181921Y0038767D01*
X0181827Y0038882D01*
X0181737Y0039000D01*
X0181650Y0039120D01*
X0181566Y0039242D01*
X0181484Y0039366D01*
X0181407Y0039492D01*
X0181332Y0039621D01*
X0181261Y0039751D01*
X0181193Y0039882D01*
X0181128Y0040016D01*
X0181067Y0040151D01*
X0181009Y0040287D01*
X0180955Y0040425D01*
X0180904Y0040565D01*
X0180857Y0040705D01*
X0180813Y0040847D01*
X0180773Y0040990D01*
X0180737Y0041134D01*
X0180705Y0041278D01*
X0180676Y0041424D01*
X0180651Y0041570D01*
X0180629Y0041717D01*
X0180611Y0041864D01*
X0180597Y0042012D01*
X0180587Y0042160D01*
X0180581Y0042308D01*
X0180578Y0042456D01*
X0180634Y0042456D01*
X0180637Y0042305D01*
X0180644Y0042154D01*
X0180654Y0042003D01*
X0180669Y0041853D01*
X0180687Y0041703D01*
X0180710Y0041554D01*
X0180736Y0041405D01*
X0180766Y0041257D01*
X0180801Y0041110D01*
X0180839Y0040964D01*
X0180880Y0040819D01*
X0180926Y0040675D01*
X0180975Y0040532D01*
X0181028Y0040390D01*
X0181085Y0040250D01*
X0181145Y0040112D01*
X0181209Y0039975D01*
X0181277Y0039840D01*
X0181348Y0039707D01*
X0181423Y0039575D01*
X0181500Y0039446D01*
X0181582Y0039319D01*
X0181666Y0039194D01*
X0181754Y0039071D01*
X0181845Y0038950D01*
X0181940Y0038832D01*
X0182037Y0038717D01*
X0182137Y0038604D01*
X0182240Y0038493D01*
X0182346Y0038386D01*
X0182455Y0038281D01*
X0182566Y0038179D01*
X0182681Y0038080D01*
X0182797Y0037984D01*
X0182916Y0037891D01*
M02*
