G75*
%MOIN*%
%OFA0B0*%
%FSLAX25Y25*%
%IPPOS*%
%LPD*%
%AMOC8*
5,1,8,0,0,1.08239X$1,22.5*
%
%ADD10R,0.05918X0.06706*%
%ADD11R,0.06706X0.05918*%
%ADD12R,0.06312X0.07099*%
%ADD13R,0.02769X0.06706*%
%ADD14R,0.06706X0.02769*%
%ADD15OC8,0.06800*%
%ADD16R,0.05224X0.02769*%
%ADD17R,0.02769X0.05224*%
%ADD18C,0.05556*%
%ADD19C,0.06800*%
%ADD20R,0.08700X0.05100*%
%ADD21R,0.03556X0.05524*%
%ADD22OC8,0.07400*%
%ADD23C,0.06000*%
%ADD24C,0.03600*%
%ADD25C,0.03700*%
%ADD26C,0.03900*%
%ADD27C,0.03850*%
D10*
X0039122Y0050968D03*
X0046602Y0050968D03*
X0046594Y0061187D03*
X0039114Y0061187D03*
X0039114Y0072111D03*
X0046594Y0072111D03*
X0047396Y0082430D03*
X0039915Y0082430D03*
X0121104Y0069306D03*
X0128585Y0069306D03*
X0145261Y0034040D03*
X0152741Y0034040D03*
D11*
X0130649Y0051715D03*
X0118039Y0051052D03*
X0118039Y0058533D03*
X0130649Y0059196D03*
D12*
X0130793Y0040399D03*
X0119770Y0040399D03*
D13*
X0098330Y0036393D03*
X0095180Y0036393D03*
X0092031Y0036393D03*
X0088881Y0036393D03*
X0085732Y0036393D03*
X0082582Y0036393D03*
X0079432Y0036393D03*
X0076283Y0036393D03*
X0073133Y0036393D03*
X0069984Y0036393D03*
X0066834Y0036393D03*
X0066834Y0082062D03*
X0069984Y0082062D03*
X0073133Y0082062D03*
X0076283Y0082062D03*
X0079432Y0082062D03*
X0082582Y0082062D03*
X0085732Y0082062D03*
X0088881Y0082062D03*
X0092031Y0082062D03*
X0095180Y0082062D03*
X0098330Y0082062D03*
D14*
X0105417Y0074976D03*
X0105417Y0071826D03*
X0105417Y0068677D03*
X0105417Y0065527D03*
X0105417Y0062377D03*
X0105417Y0059228D03*
X0105417Y0056078D03*
X0105417Y0052929D03*
X0105417Y0049779D03*
X0105417Y0046629D03*
X0105417Y0043480D03*
X0059747Y0043480D03*
X0059747Y0046629D03*
X0059747Y0049779D03*
X0059747Y0052929D03*
X0059747Y0056078D03*
X0059747Y0059228D03*
X0059747Y0062377D03*
X0059747Y0065527D03*
X0059747Y0068677D03*
X0059747Y0071826D03*
X0059747Y0074976D03*
D15*
X0100406Y0025167D03*
X0110406Y0025167D03*
X0120406Y0025167D03*
X0120406Y0015167D03*
X0110406Y0015167D03*
X0100406Y0015167D03*
D16*
X0143060Y0044447D03*
X0143060Y0047596D03*
X0143060Y0050746D03*
X0143060Y0053895D03*
X0143060Y0057045D03*
X0143060Y0060195D03*
X0152021Y0060195D03*
X0152021Y0057045D03*
X0152021Y0053895D03*
X0152021Y0050746D03*
X0152021Y0047596D03*
X0151991Y0044447D03*
D17*
X0147540Y0044053D03*
X0147540Y0060588D03*
D18*
X0028471Y0020957D02*
X0023715Y0020957D01*
X0023715Y0025957D02*
X0028471Y0025957D01*
X0028471Y0030957D02*
X0023715Y0030957D01*
X0023715Y0035957D02*
X0028471Y0035957D01*
X0028471Y0040957D02*
X0023715Y0040957D01*
X0023715Y0045957D02*
X0028471Y0045957D01*
X0028471Y0050957D02*
X0023715Y0050957D01*
X0023715Y0055957D02*
X0028471Y0055957D01*
X0028471Y0060957D02*
X0023715Y0060957D01*
X0023715Y0065957D02*
X0028471Y0065957D01*
X0028471Y0070957D02*
X0023715Y0070957D01*
X0023715Y0075957D02*
X0028471Y0075957D01*
X0028471Y0080957D02*
X0023715Y0080957D01*
D19*
X0157579Y0078877D02*
X0157579Y0084877D01*
X0167579Y0084877D02*
X0167579Y0078877D01*
D20*
X0167388Y0018551D03*
X0131988Y0018551D03*
D21*
X0168080Y0031470D03*
X0168080Y0046037D03*
X0168289Y0055627D03*
X0168289Y0070193D03*
D22*
X0186400Y0047486D03*
X0186400Y0037486D03*
D23*
X0188881Y0057971D02*
X0183681Y0057971D01*
X0183681Y0067971D02*
X0188881Y0067971D01*
D24*
X0145680Y0078522D03*
X0144280Y0072222D03*
X0137980Y0056822D03*
X0136580Y0047722D03*
X0111380Y0054322D03*
X0099480Y0065922D03*
X0088280Y0066622D03*
X0033680Y0072222D03*
D25*
X0052880Y0070853D03*
X0052780Y0056453D03*
D26*
X0070780Y0058422D03*
X0074780Y0050022D03*
X0074980Y0043522D03*
X0061680Y0038622D03*
X0045580Y0030922D03*
X0071304Y0021209D03*
X0074980Y0030222D03*
X0111280Y0037722D03*
X0112080Y0063122D03*
X0123980Y0063122D03*
X0095980Y0073622D03*
X0102980Y0079222D03*
X0068680Y0075022D03*
X0060980Y0081322D03*
D27*
X0075880Y0069153D03*
X0069380Y0050553D03*
X0051980Y0040153D03*
X0162180Y0026953D03*
X0176780Y0030353D03*
X0162780Y0063153D03*
X0175380Y0076253D03*
M02*
